<svg xmlns="http://www.w3.org/2000/svg" width="451.14" height="530.238" viewBox="0 0 451.14 530.238">
  <g id="Grupo_135039" data-name="Grupo 135039" transform="translate(0.375)">
    <path id="Intersección_1" data-name="Intersección 1" d="M413.115,13.461c-37.592,25.354-35.668,70.653-61.055,103.284-31.987,41.117-83.027,33.334-132.7,25.554-27.433-4.294-54.447-8.592-77.6-4.655-31.106,5.285-59.04,22.584-82.748,43.406-26.313,23.107-49.05,52.2-56.631,86.388-12.553,56.63,26.51,100.128,72.932,126.046,34.5,19.26,74.081,28.023,113.513,30.5,34.873,2.189,70.016-.348,104.712,3.8,66.227,7.911,113.429,51.577,151.635,102.459V0A93.518,93.518,0,0,0,413.115,13.461Z" transform="translate(445.398 530.238) rotate(180)" fill="#a5b9c9" opacity="0.291"/>
    <path id="Intersección_3" data-name="Intersección 3" d="M183.641,0a214.442,214.442,0,0,0-25.1,1.569,206.15,206.15,0,0,0-33.477,6.982,224.95,224.95,0,0,0-22.671,8.085,218.7,218.7,0,0,0-21.93,10.647,187.379,187.379,0,0,0-39.085,28.68A141.838,141.838,0,0,0,12.93,94.026,121.3,121.3,0,0,0,4.306,116.4a119.679,119.679,0,0,0-4.027,24.49,158.193,158.193,0,0,0,.2,21.636c.322,4.152.817,8.283,1.474,12.359.325,3.811.79,7.606,1.393,11.354.325,3.812.792,7.608,1.4,11.354A149.678,149.678,0,0,0,7.88,217.975a131.745,131.745,0,0,0,16.006,39.89c.906,1.475,1.852,2.942,2.817,4.36A111.943,111.943,0,0,0,44.1,282.2a122.054,122.054,0,0,0,21.189,15.343,138.656,138.656,0,0,0,23.99,10.829,156.564,156.564,0,0,0,25.807,6.424,175.248,175.248,0,0,0,49.856.548,299.824,299.824,0,0,0,33.8-6.362c11.217-2.71,22.689-5.939,33.781-9.063l1.82-.513c7.2-2.027,13.709-3.667,19.907-5.02,7.243-1.578,13.915-2.731,20.4-3.528a161.032,161.032,0,0,1,18.435-1.243,122.609,122.609,0,0,1,18.221,1.18,99.724,99.724,0,0,1,17.727,4.184,89.7,89.7,0,0,1,16.95,7.761,107,107,0,0,1,10,6.71,118.511,118.511,0,0,1,9.1,7.638,152.242,152.242,0,0,1,16.032,17.534c9.9,12.529,18.594,26.742,27,40.484,5.956,9.742,12.076,19.746,18.668,29.232v-1.423c-6.328-9.183-12.227-18.828-17.978-28.23-8.418-13.766-17.123-28-27.054-40.566a153.528,153.528,0,0,0-16.118-17.627c-2.979-2.758-6.062-5.345-9.164-7.687a108.234,108.234,0,0,0-10.075-6.761,90.6,90.6,0,0,0-17.105-7.834,100.691,100.691,0,0,0-17.872-4.216,123.328,123.328,0,0,0-18.341-1.19,161.7,161.7,0,0,0-18.529,1.249c-6.5.8-13.2,1.959-20.47,3.543-6.213,1.352-12.74,3-19.955,5.029l-1.817.513c-11.088,3.121-22.549,6.35-33.753,9.055a294.736,294.736,0,0,1-33.705,6.345,174.26,174.26,0,0,1-49.627-.543,155.559,155.559,0,0,1-25.673-6.39,137.744,137.744,0,0,1-23.851-10.763A121.4,121.4,0,0,1,44.646,281.6a111.17,111.17,0,0,1-17.273-19.829c-.957-1.409-1.9-2.862-2.8-4.327A130.9,130.9,0,0,1,8.669,217.795c-.731-3.226-1.355-6.51-1.873-9.829a131.4,131.4,0,0,0,15.7,38.545c.9,1.472,1.85,2.939,2.817,4.357a111.983,111.983,0,0,0,17.4,19.973A121.964,121.964,0,0,0,63.9,286.185a138.705,138.705,0,0,0,23.988,10.827,156.334,156.334,0,0,0,25.81,6.425,175.184,175.184,0,0,0,49.851.549,299.406,299.406,0,0,0,33.794-6.363c11.217-2.708,22.686-5.938,33.779-9.063l1.827-.512c7.2-2.028,13.713-3.67,19.91-5.02,7.242-1.578,13.915-2.733,20.4-3.531a161.665,161.665,0,0,1,18.433-1.243,123.1,123.1,0,0,1,18.221,1.182,99.791,99.791,0,0,1,17.727,4.183,89.812,89.812,0,0,1,16.953,7.763,107.533,107.533,0,0,1,10,6.71c3.081,2.328,6.145,4.9,9.1,7.637a152.787,152.787,0,0,1,16.032,17.534c9.9,12.529,18.592,26.744,27,40.488,6.375,10.424,12.932,21.146,20.062,31.218v-1.405c-6.86-9.776-13.2-20.146-19.372-30.236-8.42-13.765-17.125-28-27.056-40.565a153.378,153.378,0,0,0-16.115-17.628c-2.98-2.758-6.063-5.345-9.165-7.687A108.634,108.634,0,0,0,345,290.685a90.7,90.7,0,0,0-17.107-7.832,100.673,100.673,0,0,0-17.869-4.218,123.917,123.917,0,0,0-18.344-1.19,162.371,162.371,0,0,0-18.526,1.251c-6.507.8-13.2,1.956-20.471,3.543-6.215,1.353-12.742,3-19.955,5.028l-1.83.515c-11.082,3.121-22.546,6.349-33.748,9.055a294.666,294.666,0,0,1-33.7,6.345,174.444,174.444,0,0,1-49.625-.543,155.732,155.732,0,0,1-25.675-6.39A138.075,138.075,0,0,1,64.3,285.485a121.434,121.434,0,0,1-21.049-15.242,111.309,111.309,0,0,1-17.275-19.829c-.957-1.408-1.9-2.865-2.794-4.327a131,131,0,0,1-15.91-39.646q-1-4.413-1.731-8.951c-.013-.153-.025-.3-.038-.451A131.288,131.288,0,0,0,21.1,235.157c.906,1.474,1.853,2.941,2.817,4.357a112.08,112.08,0,0,0,17.4,19.973A121.949,121.949,0,0,0,62.5,274.831a138.9,138.9,0,0,0,23.987,10.828,156.51,156.51,0,0,0,25.81,6.424,175.185,175.185,0,0,0,49.851.549,300.071,300.071,0,0,0,33.794-6.363c11.215-2.708,22.683-5.938,33.776-9.06l1.83-.515c7.2-2.027,13.709-3.669,19.907-5.02,7.246-1.578,13.915-2.733,20.4-3.53a161.572,161.572,0,0,1,18.435-1.243,122.92,122.92,0,0,1,18.222,1.182,99.755,99.755,0,0,1,17.727,4.183,89.828,89.828,0,0,1,16.952,7.763,107.394,107.394,0,0,1,10,6.71c3.081,2.327,6.144,4.9,9.1,7.636a152.845,152.845,0,0,1,16.032,17.534c9.9,12.529,18.592,26.744,27,40.487,6.789,11.1,13.785,22.541,21.455,33.172v-1.388c-7.4-10.347-14.179-21.436-20.765-32.206-8.421-13.766-17.126-28-27.056-40.565a153.179,153.179,0,0,0-16.118-17.628,119.369,119.369,0,0,0-9.165-7.687,108.151,108.151,0,0,0-10.075-6.763A90.615,90.615,0,0,0,326.5,271.5a100.727,100.727,0,0,0-17.869-4.218,123.927,123.927,0,0,0-18.344-1.19,161.841,161.841,0,0,0-18.526,1.251c-6.507.8-13.2,1.956-20.473,3.54-6.213,1.355-12.74,3-19.955,5.03l-1.83.515c-11.083,3.122-22.546,6.35-33.746,9.056a294.871,294.871,0,0,1-33.7,6.345,174.388,174.388,0,0,1-49.625-.543,155.784,155.784,0,0,1-25.673-6.39A138.314,138.314,0,0,1,62.905,274.13a121.4,121.4,0,0,1-21.046-15.243A111.2,111.2,0,0,1,24.584,239.06c-.956-1.406-1.9-2.863-2.8-4.327A130.915,130.915,0,0,1,5.88,195.086q-.377-1.663-.716-3.347c-.036-.753-.066-1.51-.092-2.264A130.3,130.3,0,0,0,19.7,223.8c.906,1.474,1.852,2.941,2.817,4.36a112.068,112.068,0,0,0,17.4,19.973,122.181,122.181,0,0,0,21.189,15.343A138.643,138.643,0,0,0,85.1,274.3a156.323,156.323,0,0,0,25.807,6.424,175.162,175.162,0,0,0,49.856.548,299.656,299.656,0,0,0,33.8-6.363c11.217-2.708,22.688-5.938,33.782-9.062l1.817-.513c7.2-2.025,13.712-3.667,19.909-5.017,7.243-1.578,13.915-2.733,20.4-3.53a161.682,161.682,0,0,1,18.435-1.244,123.036,123.036,0,0,1,18.222,1.181,99.867,99.867,0,0,1,17.725,4.184,90.091,90.091,0,0,1,16.955,7.761,107.321,107.321,0,0,1,10,6.713c3.081,2.327,6.141,4.895,9.1,7.636a152.383,152.383,0,0,1,16.032,17.534c9.9,12.529,18.592,26.742,27,40.487,7.2,11.767,14.631,23.92,22.851,35.082v-1.371c-7.943-10.889-15.164-22.691-22.16-34.133-8.419-13.766-17.126-28-27.056-40.568a153.408,153.408,0,0,0-16.115-17.625,119.594,119.594,0,0,0-9.165-7.69,108.615,108.615,0,0,0-10.075-6.761,90.752,90.752,0,0,0-17.1-7.831,100.663,100.663,0,0,0-17.872-4.218,123.666,123.666,0,0,0-18.344-1.19,162.28,162.28,0,0,0-18.526,1.251c-6.507.8-13.2,1.957-20.47,3.54-6.213,1.356-12.74,3-19.955,5.03l-1.817.513c-11.088,3.121-22.549,6.349-33.754,9.055a294.784,294.784,0,0,1-33.705,6.347,174.432,174.432,0,0,1-49.627-.543,155.556,155.556,0,0,1-25.673-6.39,138,138,0,0,1-23.851-10.763,121.527,121.527,0,0,1-21.049-15.242A111.283,111.283,0,0,1,23.191,227.7c-.957-1.408-1.9-2.865-2.8-4.327A130.348,130.348,0,0,1,5,185.917c-.036-3.637.053-7.284.272-10.918a118.616,118.616,0,0,1,4-24.325,120.374,120.374,0,0,1,8.565-22.219A141.007,141.007,0,0,1,46.12,90.61,186.558,186.558,0,0,1,85.038,62.055a217.118,217.118,0,0,1,21.851-10.606,223.81,223.81,0,0,1,22.587-8.058,205.418,205.418,0,0,1,33.345-6.953,213.314,213.314,0,0,1,25.006-1.563A235.886,235.886,0,0,1,212.56,36.1c7.931.807,16.169,2.033,24.481,3.641,7.808,1.513,15.968,3.422,24.249,5.673a502.786,502.786,0,0,1,47.877,15.912c16.1,6.167,32.19,12.993,47.176,19.45,18.009,7.762,41.817,17.465,66.281,23.672q2.088.531,4.16,1.021v-.832q-1.973-.469-3.961-.974c-24.412-6.2-48.179-15.881-66.159-23.63-14.994-6.464-31.091-13.293-47.207-19.465A503.046,503.046,0,0,0,261.5,44.635c-8.3-2.254-16.481-4.168-24.308-5.685-8.336-1.614-16.6-2.845-24.553-3.652a237.076,237.076,0,0,0-24.818-1.234,214.411,214.411,0,0,0-25.1,1.569,206.15,206.15,0,0,0-33.477,6.982A224.767,224.767,0,0,0,106.574,50.7a218.007,218.007,0,0,0-21.93,10.646,187.294,187.294,0,0,0-39.085,28.68,141.791,141.791,0,0,0-28.447,38.06,121.466,121.466,0,0,0-8.624,22.369,119.736,119.736,0,0,0-4.027,24.493q-.221,3.723-.266,7.464-.221-1.013-.426-2.033a158.9,158.9,0,0,1,.106-16.74,118.672,118.672,0,0,1,4-24.325A120.532,120.532,0,0,1,16.443,117.1,140.935,140.935,0,0,1,44.727,79.256,186.454,186.454,0,0,1,83.645,50.7a217.374,217.374,0,0,1,21.849-10.606,223.881,223.881,0,0,1,22.589-8.057,205.11,205.11,0,0,1,33.345-6.954,213.447,213.447,0,0,1,25.005-1.563,236.955,236.955,0,0,1,24.731,1.228c7.934.807,16.171,2.031,24.483,3.642,7.809,1.513,15.968,3.421,24.249,5.672a501.589,501.589,0,0,1,47.877,15.912c16.1,6.164,32.187,12.992,47.173,19.45,18.009,7.761,41.817,17.465,66.281,23.673q2.792.708,5.556,1.345v-.829q-2.663-.617-5.355-1.3c-24.411-6.2-48.181-15.885-66.159-23.633-14.993-6.461-31.091-13.293-47.206-19.463a502.344,502.344,0,0,0-47.955-15.935c-8.3-2.258-16.478-4.169-24.308-5.687-8.334-1.616-16.6-2.845-24.551-3.652a236.86,236.86,0,0,0-24.82-1.234,213.879,213.879,0,0,0-25.1,1.571,205.907,205.907,0,0,0-33.477,6.978,224.538,224.538,0,0,0-22.671,8.088,218.22,218.22,0,0,0-21.93,10.644,187.359,187.359,0,0,0-39.088,28.68,141.888,141.888,0,0,0-28.447,38.062A121.355,121.355,0,0,0,7.1,139.1a119.346,119.346,0,0,0-4.028,24.49c-.228,3.822-.317,7.659-.266,11.481-.015-.1-.033-.2-.048-.295-.028-.325-.053-.647-.079-.969a157.312,157.312,0,0,1-.193-21.523,118.615,118.615,0,0,1,4-24.325,120.672,120.672,0,0,1,8.565-22.219A141.066,141.066,0,0,1,43.333,67.9,186.642,186.642,0,0,1,82.249,39.346,217.45,217.45,0,0,1,104.1,28.74a223.68,223.68,0,0,1,22.587-8.057,205.162,205.162,0,0,1,33.345-6.954,213.479,213.479,0,0,1,25.005-1.563,236.109,236.109,0,0,1,24.734,1.228c7.933.8,16.168,2.031,24.483,3.642,7.807,1.512,15.965,3.421,24.247,5.672A501.9,501.9,0,0,1,306.379,38.62c16.1,6.164,32.188,12.991,47.174,19.45,18.008,7.761,41.816,17.465,66.28,23.673q3.5.887,6.949,1.663v-.83q-3.349-.755-6.751-1.618c-24.409-6.194-48.179-15.884-66.157-23.632-15-6.461-31.093-13.293-47.207-19.463a503.218,503.218,0,0,0-47.955-15.938c-8.3-2.257-16.478-4.17-24.307-5.685-8.337-1.617-16.6-2.845-24.554-3.652a236.2,236.2,0,0,0-24.817-1.233,214.093,214.093,0,0,0-25.1,1.57,205.886,205.886,0,0,0-33.477,6.979,225.32,225.32,0,0,0-22.668,8.088A217.75,217.75,0,0,0,81.855,38.638,187.482,187.482,0,0,0,42.77,67.318a141.852,141.852,0,0,0-28.446,38.062A121.478,121.478,0,0,0,5.7,127.75a119.556,119.556,0,0,0-4.03,24.49c-.231,3.926-.32,7.867-.261,11.793q-.069-.787-.132-1.575a157.7,157.7,0,0,1-.193-21.524,118.825,118.825,0,0,1,4-24.325,120.46,120.46,0,0,1,8.565-22.219A141.041,141.041,0,0,1,41.938,56.545,186.726,186.726,0,0,1,80.856,27.99a217.911,217.911,0,0,1,21.848-10.6,224.1,224.1,0,0,1,22.59-8.058,205.164,205.164,0,0,1,33.345-6.953A213.315,213.315,0,0,1,183.646.809,236.113,236.113,0,0,1,208.377,2.04c7.934.8,16.169,2.03,24.483,3.641,7.807,1.513,15.966,3.421,24.247,5.672a501.6,501.6,0,0,1,47.876,15.913c16.1,6.164,32.188,12.991,47.176,19.449,18.008,7.761,41.816,17.466,66.278,23.673q4.208,1.067,8.345,1.973v-.829c-2.687-.59-5.408-1.234-8.144-1.928-24.409-6.2-48.179-15.885-66.159-23.632-15-6.461-31.091-13.294-47.207-19.463a502.291,502.291,0,0,0-47.953-15.938c-8.3-2.257-16.478-4.17-24.307-5.685-8.337-1.616-16.6-2.845-24.554-3.654A237.494,237.494,0,0,0,184.6,0ZM4.147,186.133c-.013-.15-.026-.3-.038-.45.028.111.056.224.081.335,0,.137.005.274.005.413C4.18,186.333,4.165,186.232,4.147,186.133Z" transform="translate(426.782 424.514) rotate(180)" fill="#133d60" opacity="0.177"/>
    <path id="Intersección_2" data-name="Intersección 2" d="M206.71,29.453c-18.408,24.389-7.234,52.816-16.258,79.162C172.8,160.141,99.993,146.716,60.9,168.036c-18.678,10.189-32.7,27.331-43.243,45.788-11.708,20.484-19.822,44-17.148,67.43,4.429,38.816,38.9,57.95,74.2,64.276,26.234,4.7,53.4,1.6,79.1-5.469,22.722-6.253,44.582-15.575,67.62-20.542,56.9-12.27,106.626,20.553,149.468,54.353,25.481,20.1,51.434,40,79.233,55.363v-227.7A80.8,80.8,0,0,1,430.518,186.9C392.212,147.834,397.117,83.254,363,40.7A108.6,108.6,0,0,0,277.882,0C251.558,0,222.289,8.809,206.71,29.453Z" transform="translate(450.254 445.474) rotate(180)" fill="#133d60" stroke="rgba(0,0,0,0)" stroke-miterlimit="10" stroke-width="1" opacity="0.062"/>
  </g>
</svg>
