<svg xmlns="http://www.w3.org/2000/svg" width="995.187" height="249.24" viewBox="0 0 995.187 249.24">
  <g id="Grupo_135065" data-name="Grupo 135065" transform="translate(-28.407 7484.663)">
    <g id="Grupo_135064" data-name="Grupo 135064" transform="translate(-295.666 -9749)">
      <path id="Trazado_128287" data-name="Trazado 128287" d="M45.127-9261.609s96.784-56.787,315.6-11.9,378.572,1.892,403.593-11.572,197.179-24.965,248.62,11.572-171.752,42.875-326.288,45.844-221.432-82.287-298.135-80.656-134.876,52.771-214.475,68.1-136.5,56.364-146.555,22.692S45.127-9261.609,45.127-9261.609Z" transform="translate(298.78 11694.867)" fill="#008bfd" opacity="0.133"/>
      <circle id="Elipse_4938" data-name="Elipse 4938" cx="66" cy="66" r="66" transform="translate(369.666 2372.391)" fill="#008bfd"/>
      <circle id="Elipse_4939" data-name="Elipse 4939" cx="66" cy="66" r="66" transform="translate(514.666 2372.391)" fill="#008bfd"/>
      <circle id="Elipse_4940" data-name="Elipse 4940" cx="66" cy="66" r="66" transform="translate(660.666 2372.391)" fill="#008bfd"/>
      <circle id="Elipse_4941" data-name="Elipse 4941" cx="66" cy="66" r="66" transform="translate(809.666 2372.391)" fill="#008bfd"/>
      <circle id="Elipse_4942" data-name="Elipse 4942" cx="66" cy="66" r="66" transform="translate(952.666 2372.391)" fill="#008bfd"/>
      <circle id="Elipse_4943" data-name="Elipse 4943" cx="66" cy="66" r="66" transform="translate(1097.666 2372.391)" fill="#008bfd"/>
      <g id="Grupo_134987" data-name="Grupo 134987" transform="translate(156.931 2294.753)">
        <path id="Trazado_128038" data-name="Trazado 128038" d="M326.336,58.745S324.367,72.6,322.2,71.476s-8.131-5.538-9.094-3.383-6.678,12.674-7.321,11.2,2.577-20.9,4.188-20.393,9.7,5.9,10.506,4.76S326.128,49.942,326.336,58.745Z" fill="#e9b977"/>
        <path id="Trazado_128039" data-name="Trazado 128039" d="M343.942,104.088s-9.327,10.439-10.506,8.3-3.693-9.118-5.69-7.86-12.587,6.841-12.3,5.256,13.737-15.957,14.8-14.644,4.8,10.294,6.1,9.788S348.652,96.649,343.942,104.088Z" fill="#e9b977"/>
        <path id="Trazado_128040" data-name="Trazado 128040" d="M214.78,110.6s12.343-6.6,12.716-4.185.338,9.832,2.645,9.335,14.171-2.1,13.36-.711-18.38,10.27-18.925,8.673-.973-11.317-2.37-11.288S207.8,115.974,214.78,110.6Z" fill="#e9b977"/>
        <path id="Trazado_128041" data-name="Trazado 128041" d="M226.256,61.138s13.99-.452,13.254,1.879-4.051,8.965-1.762,9.542,13.636,4.389,12.293,5.278-21.027,1.069-20.809-.6,4.14-10.577,2.874-11.17S217.621,62.862,226.256,61.138Z" fill="#e9b977"/>
        <path id="Trazado_128042" data-name="Trazado 128042" d="M268.568,25.423S263.5,38.472,265.945,38.55s9.8-.848,9.586,1.5-.382,14.321.9,13.349,7.982-19.483,6.331-19.832-11.351.4-11.491-.993S273.058,17.849,268.568,25.423Z" fill="#e9b977"/>
        <g id="Grupo_134986" data-name="Grupo 134986">
          <circle id="Elipse_4983" data-name="Elipse 4983" cx="10.948" cy="10.948" r="10.948" transform="translate(269.81 58.796)" fill="#352b4c"/>
          <path id="Trazado_128043" data-name="Trazado 128043" d="M290.4,77.547s4.8,1.321,7.943,9.182c2.382,5.966.888,10.9,6.728,17.746s5.791,16.772-6.292,17.449c-7.5.42-11.128,5.974-17.723,4.359s-6.611-2.532-12.966-2.36c-7.427.2-11.016-1.44-13.338-6.393-3.866-8.244,3.245-12.246,3.231-19.589C257.969,90.258,263.326,68.572,290.4,77.547Z" fill="#352b4c"/>
          <path id="Trazado_128044" data-name="Trazado 128044" d="M286.005,104.657S285.7,124.263,286,127s17.884,1.419,23.231,6.416-12.609,19.764-23.52,26.125c-8.363,4.875-36.884-27.215-30.053-27.449s18.085-2.318,17.778-7.328-.488-9.568-.488-9.568S285.012,105.42,286.005,104.657Z" fill="#eaac90"/>
          <path id="Trazado_128045" data-name="Trazado 128045" d="M292.185,90.392s4.489,30.323-12.7,31.424c-11.826.757-17.876-19-15.064-28.5S284.876,83.275,292.185,90.392Z" fill="#eaac90"/>
          <path id="Trazado_128046" data-name="Trazado 128046" d="M266.654,105.058s-2.3-5.563-4.679-2.93.856,9.282,3.286,9.1S267.946,107.307,266.654,105.058Z" fill="#eaac90"/>
          <path id="Trazado_128047" data-name="Trazado 128047" d="M291.767,105.044s.489-5.207,3.176-2.888-.457,9.055-2.892,9.175S290.763,107.436,291.767,105.044Z" fill="#eaac90"/>
          <path id="Trazado_128048" data-name="Trazado 128048" d="M279.486,110.778c1.18.2,2.32,1.251,3.4,3.126l-.812.467c-1.046-1.817-2.123-2.749-3.107-2.69-1.384.081-2.527,2.055-2.852,2.809l-.861-.371c.057-.132,1.42-3.243,3.658-3.374A2.51,2.51,0,0,1,279.486,110.778Z" fill="#2e1f35"/>
          <path id="Trazado_128049" data-name="Trazado 128049" d="M288.565,79.563s8.666,4.365,8.48,14.3c-.073,3.866-13.655,4.782-15.993,1.7s-2.5-11.624-2.5-11.624.017,10.2-3.885,12.844-14.443,1.347-13.51.123,2.38-16.307,11.756-19.406S288.565,79.563,288.565,79.563Z" fill="#352b4c"/>
          <circle id="Elipse_4984" data-name="Elipse 4984" cx="3.092" cy="3.092" r="3.092" transform="translate(283.782 107.649)" fill="#e1916e"/>
          <circle id="Elipse_4985" data-name="Elipse 4985" cx="3.092" cy="3.092" r="3.092" transform="translate(267.339 107.649)" fill="#e1916e"/>
          <path id="Trazado_128050" data-name="Trazado 128050" d="M287.979,95.473c-3.117-3.292-4.014-15.556-4.051-16.076l.936-.066c.008.124.908,12.448,3.8,15.5Z" fill="#443965"/>
          <path id="Trazado_128051" data-name="Trazado 128051" d="M270.711,93.112A10.282,10.282,0,0,1,270.777,88c.662-2.659,2.632-6.519,8.266-9.807l.472.809c-10.194,5.95-7.932,13.757-7.908,13.835Z" fill="#443965"/>
          <path id="Trazado_128052" data-name="Trazado 128052" d="M262.8,92.835l-.888-.3c.183-.544,4.6-13.329,14.308-14.913l.15.925C267.216,80.041,262.841,92.707,262.8,92.835Z" fill="#443965"/>
          <path id="Trazado_128053" data-name="Trazado 128053" d="M292.891,94.012l-.908-.233c.02-.08,1.972-8.033-3.412-13.9l.69-.634C295,85.5,292.98,93.667,292.891,94.012Z" fill="#443965"/>
          <path id="Trazado_128054" data-name="Trazado 128054" d="M302.676,115.44a20.467,20.467,0,0,0-3.859-12.018l.723-.594a21.081,21.081,0,0,1,4.073,12.611Z" fill="#443965"/>
          <path id="Trazado_128055" data-name="Trazado 128055" d="M294.52,119.667l-.519-.78c.031-.021,3.1-2.21,1.833-9.206l.923-.168C298.148,117.171,294.669,119.568,294.52,119.667Z" fill="#443965"/>
          <path id="Trazado_128056" data-name="Trazado 128056" d="M265.946,122.082c-.141-.1-3.444-2.577-2.8-10.037l.934.081c-.591,6.882,2.39,9.176,2.42,9.2Z" fill="#443965"/>
          <path id="Trazado_128057" data-name="Trazado 128057" d="M260.157,119.86c-.209-.078-5.076-2.037-1.107-13.382l.885.31c-3.67,10.486.506,12.178.549,12.194Z" fill="#443965"/>
          <path id="Trazado_128058" data-name="Trazado 128058" d="M282.569,73.712l.314-.779c1.176-2.915-1.746-9.084-1.776-9.146l.846-.4c.118.247,2.675,5.651,2.036,9.074a5.324,5.324,0,0,0,3.328-2.4c.505-1.09.288-2.45-.646-4.042l.809-.474c1.1,1.875,1.329,3.528.685,4.914-1.145,2.462-4.62,3.085-4.767,3.11Z" fill="#443965"/>
          <path id="Trazado_128059" data-name="Trazado 128059" d="M278.811,73.54a3.507,3.507,0,0,1-1.943-2.011c-1.269-3.177,1-8.432,1.093-8.655l.858.375c-.022.051-2.2,5.121-1.081,7.934a2.575,2.575,0,0,0,1.437,1.494Z" fill="#443965"/>
          <path id="Trazado_128060" data-name="Trazado 128060" d="M269.761,107.395l-.15-.735A6.636,6.636,0,0,0,272.2,105.6l.524.537A7.476,7.476,0,0,1,269.761,107.395Z" fill="#2e1f35"/>
          <path id="Trazado_128061" data-name="Trazado 128061" d="M287.762,106.918a9.438,9.438,0,0,1-2.5-.455l.235-.712a6.615,6.615,0,0,0,2.777.365l.187.726A2.856,2.856,0,0,1,287.762,106.918Z" fill="#2e1f35"/>
          <circle id="Elipse_4986" data-name="Elipse 4986" cx="1.555" cy="1.555" r="1.555" transform="translate(268.875 102.308)" fill="#2e1f35"/>
          <circle id="Elipse_4987" data-name="Elipse 4987" cx="1.555" cy="1.555" r="1.555" transform="translate(285.679 101.942)" fill="#2e1f35"/>
          <path id="Trazado_128062" data-name="Trazado 128062" d="M279.5,122.678a9.1,9.1,0,0,1-4.065-.968l.278-.972c.028.01.085.036.169.078,1.778.889,5.411,1.876,9.78-1.507l.612.791A10.968,10.968,0,0,1,279.5,122.678Z" fill="#e1916e"/>
          <path id="Trazado_128063" data-name="Trazado 128063" d="M265.258,108.661l-.96-.279c.364-1.257-1.012-2.847-1.573-3.354l.67-.742C263.5,104.377,265.87,106.552,265.258,108.661Z" fill="#e1916e"/>
          <path id="Trazado_128064" data-name="Trazado 128064" d="M279.227,102.3s2.331,5.968,1.24,6.218-3.764.454-4.1,0S278.111,100.5,279.227,102.3Z" fill="#e1916e"/>
          <path id="Trazado_128065" data-name="Trazado 128065" d="M260.408,123.555c-.087-.013-8.664-1.436-8.495-11.518.1-6.153,2.678-9.744,4.747-12.629,1.242-1.731,2.222-3.1,2.309-4.536l1,.059c-.1,1.726-1.211,3.271-2.494,5.06-1.988,2.772-4.462,6.222-4.56,12.063-.155,9.192,7.328,10.463,7.647,10.513Z" fill="#352b4c"/>
          <path id="Trazado_128066" data-name="Trazado 128066" d="M305.744,120.358l-.087-1a4.888,4.888,0,0,0,3.138-1.843c1.142-1.506,1.45-3.74.916-6.64-.8-4.36-2.826-6.043-5.169-7.99a18.217,18.217,0,0,1-6.085-7.8l.927-.375a17.155,17.155,0,0,0,5.8,7.406c2.389,1.985,4.645,3.861,5.514,8.579.588,3.2.213,5.7-1.116,7.441A5.807,5.807,0,0,1,305.744,120.358Z" fill="#352b4c"/>
          <path id="Trazado_128067" data-name="Trazado 128067" d="M298.294,111.546a.55.55,0,0,1-.142-.018c-.585-.148-1.09-.276,1.5-17.59.814-5.446-.213-9.672-3.052-12.56-5.695-5.8-16.9-4.394-17.017-4.379l-.131-.991c.477-.064,11.811-1.483,17.859,4.666,3.073,3.125,4.193,7.637,3.33,13.411-2.148,14.372-2.038,16.428-1.952,16.715a.421.421,0,0,0-.332-.25.464.464,0,0,0-.273.042l.877.32C298.77,111.431,298.5,111.546,298.294,111.546Z" fill="#352b4c"/>
          <path id="Trazado_128068" data-name="Trazado 128068" d="M258.979,95.006c-1.395-6.488-.5-11.455,2.659-14.761,5.906-6.18,17.471-4.316,17.96-4.234l-.166.986c-.112-.018-11.536-1.854-17.073,3.941-2.915,3.052-3.723,7.714-2.4,13.858Z" fill="#352b4c"/>
          <path id="Trazado_128069" data-name="Trazado 128069" d="M291.706,128.329s-1.53,14.986-11.823,14.4-10.511-14.745-12.871-14.034-19.34.413-24.9,11.68-6.754,34.479-5.806,62.306c.207,6.068,81.716,7.34,81.953.4.581-17.06.091-67.6-6.819-70.725S291.706,128.329,291.706,128.329Z" fill="#2d3339"/>
          <path id="Trazado_128070" data-name="Trazado 128070" d="M307.837,170.622s-2.5-17.1,1.192-17.866,16.19-6.148,18.467-1.566,3.491,23.513-1.16,28.958C324.563,182.223,307.837,170.622,307.837,170.622Z" fill="#eaac90"/>
          <path id="Trazado_128071" data-name="Trazado 128071" d="M305.7,160.045s20.246,2.361,23.816,1.32c0,0,2.263-34.788-37.808-33.036C291.706,128.329,301.581,158.687,305.7,160.045Z" fill="#2d3339"/>
          <path id="Trazado_128072" data-name="Trazado 128072" d="M242.88,178.094s-10.017-3.334-13.039-19.413c-.646-3.439.27-32.763,34.1-30.188C263.941,128.493,247,176.737,242.88,178.094Z" fill="#2d3339"/>
          <path id="Trazado_128073" data-name="Trazado 128073" d="M248.67,155.826l-18.548,4.219c-.3,12.8,5.9,26.471,22.289,21.146C256.824,179.757,260.1,160.724,248.67,155.826Z" fill="#eaac90"/>
          <path id="Trazado_128074" data-name="Trazado 128074" d="M326.9,173.295s7.747,10.744-10.879,17.059-56.156-19.267-64.036-16.838-8.937-8.326,6.263-10.854S312.52,160.181,326.9,173.295Z" fill="#eaac90"/>
          <path id="Trazado_128075" data-name="Trazado 128075" d="M318.457,169.628c-1.391-1.7-11.277-4.549-14.969-5.5l.25-.968c1.392.359,13.644,3.572,15.494,5.838Z" fill="#e1916e"/>
          <path id="Trazado_128076" data-name="Trazado 128076" d="M237.791,179.475s14.153,10.879,21.2-7.249c5.367-13.808,12.915-51.072,12.085-53.832s-5.321-10.1-5.779-12.527-1.719,2.239-.035,5.361c0,0-1.061-7.109-1.217-8.4s-3.423,3.279-.984,8.5c0,0,.166-9.805-1.085-9.205s-2.958,6.42-2.638,9.917,4.7,7.164,3.723,9.181-24.256,33.55-25.173,41.8A89.421,89.421,0,0,0,237.791,179.475Z" fill="#eaac90"/>
          <path id="Trazado_128077" data-name="Trazado 128077" d="M271.647,119.13l-1-.024a8.3,8.3,0,0,0-1.375-4.337c-1.551-2.3-5.621-9.066-5.83-12.714l1-.058c.2,3.406,4.254,10.127,5.661,12.213A9.163,9.163,0,0,1,271.647,119.13Z" fill="#e1916e"/>
          <rect id="Rectángulo_36018" data-name="Rectángulo 36018" width="6.51" height="1" transform="matrix(0.381, -0.925, 0.925, 0.381, 237.426, 162.836)" fill="#e1916e"/>
          <path id="Trazado_128078" data-name="Trazado 128078" d="M292.469,107.7l-.995-.1a3.766,3.766,0,0,1,1.563-2.94l.5.866-.249-.433.255.43A2.82,2.82,0,0,0,292.469,107.7Z" fill="#e1916e"/>
          <path id="Trazado_128079" data-name="Trazado 128079" d="M280.561,145.627c-7.458,0-10.424-4.671-10.556-4.885l.851-.525c.131.21,3.3,5.138,11.5,4.319,4.912-.488,8.89-6.486,8.929-6.546l.837.548c-.172.263-4.284,6.458-9.668,6.993C281.8,145.6,281.163,145.627,280.561,145.627Z" fill="#352b4c"/>
          <path id="Trazado_128080" data-name="Trazado 128080" d="M307.57,162.473l-1-.041a26,26,0,0,0-2.329-10.654l.9-.432A26.6,26.6,0,0,1,307.57,162.473Z" fill="#352b4c"/>
        </g>
      </g>
      <g id="Grupo_134990" data-name="Grupo 134990" transform="translate(218.24 2072.055)">
        <g id="Grupo_134988" data-name="Grupo 134988">
          <path id="Trazado_128082" data-name="Trazado 128082" d="M664.531,432.093s39.039-9.636,55.448-60.513c12.268-38.037,4.04-108.123-27.724-110.134-30.139-1.908-42.074,21.138-31.759,49.064,12.539,33.947.011,76.947-25,88.947S664.531,432.093,664.531,432.093Z" fill="#12263f"/>
          <path id="Trazado_128083" data-name="Trazado 128083" d="M666.723,288.222s6.893-.6,5.976-7.364c-.457-3.378,9.083,1.4,3.009,8.77C671.451,294.792,662.2,288.882,666.723,288.222Z" fill="#f7ece9"/>
          <path id="Trazado_128084" data-name="Trazado 128084" d="M693.561,277.628s3.458,5.993,9.2,2.3c2.868-1.844,2.572,8.823-6.674,6.435C689.608,284.691,691.05,273.808,693.561,277.628Z" fill="#f7ece9"/>
          <path id="Trazado_128085" data-name="Trazado 128085" d="M677.737,302.659s.623-10.773,9.075-11.263,13.423,8.1,9.993,10.546-7.391-3.131-10.29-2.2C682.479,301.028,678.763,311.234,677.737,302.659Z" fill="#f7ece9"/>
        </g>
        <g id="Grupo_134989" data-name="Grupo 134989">
          <path id="Trazado_128086" data-name="Trazado 128086" d="M609.013,325.749s-16.457,1.44-19.034,17.819c-1.631,10.369.485,18.152,4.493,19.021s11.459-5.1,16.983-12.308S616.938,321.052,609.013,325.749Z" fill="#2d3339"/>
          <path id="Trazado_128087" data-name="Trazado 128087" d="M593.873,394.09l4.24,40.756c5.1,2.751,21.7.466,23.828-.384s5.446-36.622,5.446-36.622,8.088,34.332,11.446,35.852,24.508,1.555,25.7-1.6-6.034-43.825-9.859-46.439S592.888,389.584,593.873,394.09Z" fill="#eaac90"/>
          <circle id="Elipse_4988" data-name="Elipse 4988" cx="8.358" cy="8.358" r="8.358" transform="translate(616.608 268.379)" fill="#352b4c"/>
          <path id="Trazado_128088" data-name="Trazado 128088" d="M632.328,282.7S636,283.7,638.393,289.7c1.818,4.555.678,8.323,5.137,13.549s4.42,12.8-4.8,13.321c-5.725.321-8.5,4.561-13.531,3.328s-5.047-1.933-9.9-1.8c-5.67.154-8.41-1.1-10.183-4.88-2.951-6.294,2.478-9.35,2.467-14.956C607.568,292.4,611.658,275.842,632.328,282.7Z" fill="#352b4c"/>
          <path id="Trazado_128089" data-name="Trazado 128089" d="M628.972,303.391s-.23,14.969,0,17.059,13.372,5.794,17.454,9.61-9.345,10.377-17.675,15.233c-6.384,3.722-28.647-18.864-23.432-19.043s14.3-3.683,14.061-7.508-.373-7.3-.373-7.3S628.215,303.974,628.972,303.391Z" fill="#eaac90"/>
          <path id="Trazado_128090" data-name="Trazado 128090" d="M633.691,292.5s3.427,23.15-9.7,23.99c-9.028.578-13.647-14.507-11.5-21.756S628.111,287.067,633.691,292.5Z" fill="#eaac90"/>
          <path id="Trazado_128091" data-name="Trazado 128091" d="M614.2,303.7s-1.755-4.247-3.573-2.238.654,7.087,2.51,6.948S615.185,305.414,614.2,303.7Z" fill="#eaac90"/>
          <path id="Trazado_128092" data-name="Trazado 128092" d="M633.372,303.687s.373-3.975,2.425-2.205-.35,6.913-2.208,7.005S632.6,305.513,633.372,303.687Z" fill="#eaac90"/>
          <path id="Trazado_128093" data-name="Trazado 128093" d="M630.927,284.233s6.616,3.333,6.474,10.915c-.056,2.951-10.425,3.651-12.21,1.3s-1.909-8.875-1.909-8.875.013,7.789-2.966,9.806-11.027,1.028-10.314.093,1.816-12.449,8.974-14.815A12.992,12.992,0,0,1,630.927,284.233Z" fill="#352b4c"/>
          <circle id="Elipse_4989" data-name="Elipse 4989" cx="2.361" cy="2.361" r="2.361" transform="translate(627.276 305.676)" fill="#e1916e"/>
          <circle id="Elipse_4990" data-name="Elipse 4990" cx="2.361" cy="2.361" r="2.361" transform="translate(614.722 305.676)" fill="#e1916e"/>
          <path id="Trazado_128094" data-name="Trazado 128094" d="M630.48,296.38c-2.38-2.513-3.065-11.876-3.093-12.274l.714-.05c.006.1.693,9.5,2.9,11.832Z" fill="#3f345c"/>
          <path id="Trazado_128095" data-name="Trazado 128095" d="M617.3,294.577a7.841,7.841,0,0,1,.049-3.9c.506-2.03,2.01-4.977,6.311-7.487l.361.618c-7.783,4.542-6.056,10.5-6.038,10.562Z" fill="#3f345c"/>
          <path id="Trazado_128096" data-name="Trazado 128096" d="M611.255,294.366l-.678-.229c.14-.415,3.509-10.175,10.923-11.385l.115.707C614.628,284.6,611.288,294.268,611.255,294.366Z" fill="#3f345c"/>
          <path id="Trazado_128097" data-name="Trazado 128097" d="M634.229,295.264l-.693-.177c.016-.061,1.506-6.133-2.6-10.612l.526-.483C635.837,288.762,634.3,295,634.229,295.264Z" fill="#3f345c"/>
          <path id="Trazado_128098" data-name="Trazado 128098" d="M641.7,311.624a15.626,15.626,0,0,0-2.946-9.175l.552-.454a16.1,16.1,0,0,1,3.11,9.628Z" fill="#3f345c"/>
          <path id="Trazado_128099" data-name="Trazado 128099" d="M635.473,314.851l-.4-.6c.024-.017,2.37-1.687,1.4-7.029l.7-.128C638.243,312.945,635.587,314.776,635.473,314.851Z" fill="#3f345c"/>
          <path id="Trazado_128100" data-name="Trazado 128100" d="M609.239,315c-.16-.06-3.876-1.556-.845-10.217l.676.236c-2.8,8.006.386,9.3.418,9.31Z" fill="#3f345c"/>
          <path id="Trazado_128101" data-name="Trazado 128101" d="M626.35,279.767l.239-.6c.9-2.225-1.333-6.935-1.356-6.983l.646-.308c.09.188,2.042,4.314,1.554,6.928a4.065,4.065,0,0,0,2.541-1.829,3.32,3.32,0,0,0-.493-3.086l.618-.362a3.977,3.977,0,0,1,.523,3.752c-.875,1.879-3.528,2.355-3.64,2.374Z" fill="#3f345c"/>
          <path id="Trazado_128102" data-name="Trazado 128102" d="M623.48,279.635A2.678,2.678,0,0,1,622,278.1c-.969-2.425.76-6.438.834-6.608l.655.287c-.016.039-1.682,3.909-.825,6.056a1.963,1.963,0,0,0,1.1,1.141Z" fill="#3f345c"/>
          <path id="Trazado_128103" data-name="Trazado 128103" d="M616.723,300.821H616.7l0-.75a5.077,5.077,0,0,0,2.053-.375l.4.633A5.548,5.548,0,0,1,616.723,300.821Z" fill="#261e35"/>
          <path id="Trazado_128104" data-name="Trazado 128104" d="M630.167,300.691a7.9,7.9,0,0,1-1.553-.181l.164-.733a5.015,5.015,0,0,0,2.087.074l.258.7A2.912,2.912,0,0,1,630.167,300.691Z" fill="#261e35"/>
          <circle id="Elipse_4991" data-name="Elipse 4991" cx="1.187" cy="1.187" r="1.187" transform="translate(617.832 301.598)" fill="#261e35"/>
          <circle id="Elipse_4992" data-name="Elipse 4992" cx="1.187" cy="1.187" r="1.187" transform="translate(629.094 301.471)" fill="#261e35"/>
          <path id="Trazado_128105" data-name="Trazado 128105" d="M613.248,306.482l-.961-.28c.259-.894-.755-2.064-1.168-2.44l.671-.741C611.87,303.093,613.734,304.8,613.248,306.482Z" fill="#e1916e"/>
          <path id="Trazado_128106" data-name="Trazado 128106" d="M634.025,305.727l-.994-.1a3,3,0,0,1,1.251-2.336l.507.862A2.059,2.059,0,0,0,634.025,305.727Z" fill="#e1916e"/>
          <path id="Trazado_128107" data-name="Trazado 128107" d="M623.251,302.3s1.78,4.556.947,4.747-2.874.346-3.13,0S622.4,300.917,623.251,302.3Z" fill="#e1916e"/>
          <path id="Trazado_128108" data-name="Trazado 128108" d="M609.383,317.932c-.074-.017-7.409-1.678-7.279-9.452.08-4.75,2.432-7.42,4.147-9.37,1.062-1.2,1.9-2.156,1.962-3.2l1,.061c-.083,1.383-1.068,2.5-2.209,3.8-1.7,1.934-3.824,4.342-3.9,8.725a8.363,8.363,0,0,0,6.489,8.457Z" fill="#352b4c"/>
          <path id="Trazado_128109" data-name="Trazado 128109" d="M644.052,315.5l-.087-1a3.606,3.606,0,0,0,2.315-1.364c.848-1.122,1.076-2.8.675-4.973-.605-3.287-2.134-4.558-3.906-6.031a14,14,0,0,1-4.679-6l.927-.375a12.984,12.984,0,0,0,4.392,5.607c1.841,1.531,3.579,2.977,4.25,6.619.455,2.476.161,4.419-.874,5.775A4.563,4.563,0,0,1,644.052,315.5Z" fill="#352b4c"/>
          <path id="Trazado_128110" data-name="Trazado 128110" d="M638.354,308.769a.556.556,0,0,1-.137-.017c-.563-.144-.935-.237,1.056-13.561.615-4.119-.157-7.311-2.3-9.489-4.307-4.382-12.806-3.319-12.893-3.308l-.13-.993c.368-.047,9.077-1.137,13.734,3.6,2.373,2.413,3.239,5.892,2.574,10.34-1.621,10.852-1.553,12.473-1.492,12.711a.434.434,0,0,0-.351-.276.428.428,0,0,0-.415.158l.97.275C638.8,308.676,638.538,308.769,638.354,308.769Z" fill="#352b4c"/>
          <path id="Trazado_128111" data-name="Trazado 128111" d="M618.786,283.116c-2.712-1.116-4.2-2.621-4.416-4.474-.441-3.747,4.567-7.4,4.781-7.555l.584.811c-.047.034-4.745,3.464-4.372,6.628.173,1.465,1.453,2.7,3.8,3.665Z" fill="#352b4c"/>
          <path id="Trazado_128112" data-name="Trazado 128112" d="M614.721,324.549s1.638,7.031,6.982,7.422c10.787.788,11.825-8.562,11.825-8.562,2.054.908,12.644-.572,16.894,7.431s7.224,54.217,17.324,83.649c1.171,3.41-68.773,2.975-73.873,2.975s1.3-65.021,2.577-73.1S594.745,327.678,614.721,324.549Z" fill="#2d3339"/>
          <path id="Trazado_128113" data-name="Trazado 128113" d="M622.925,311.088l-.715-.226c.023-.072.569-1.765,1.849-2.061a2.694,2.694,0,0,1,2.485,1.109l-.545.516c-.671-.708-1.263-1.015-1.77-.895C623.513,309.7,623.045,310.71,622.925,311.088Z" fill="#261e35"/>
          <path id="Trazado_128114" data-name="Trazado 128114" d="M623.477,317.023a6.951,6.951,0,0,1-4.276-1.391l.483-.573c.122.1,3.034,2.465,7.427.3l.33.674A8.918,8.918,0,0,1,623.477,317.023Z" fill="#e1916e"/>
          <path id="Trazado_128115" data-name="Trazado 128115" d="M592.1,355.4c.743-1.867,10.266-22.462,11.067-29.9s6.11-15.811,6.721-14.155-.659,4.895-.659,4.895,1.948-1.85,4.434,1.106-1.212,10.794-1.137,13.979-.1,31.785-5.01,33.864S588.813,363.669,592.1,355.4Z" fill="#eaac90"/>
          <path id="Trazado_128116" data-name="Trazado 128116" d="M606.045,356.336s-.173-7.538,20.227-6.338c10.349.609,30.274-.389,32.608,5.612s3,11.231-4,14.282-36.155-9.03-44.889-7.219C605.711,363.56,606.045,356.336,606.045,356.336Z" fill="#eaac90"/>
          <path id="Trazado_128117" data-name="Trazado 128117" d="M646.9,353.909s-4.337-15.1,2.253-16.912,11.763-3.1,10.726-.568,7.241,29.287-7.447,33.726C646.661,371.9,646.9,353.909,646.9,353.909Z" fill="#eaac90"/>
          <path id="Trazado_128118" data-name="Trazado 128118" d="M641.743,349.221h20.316c-1.237-6.09-1.08-25.889-24.628-24.672C625.942,325.143,641.743,349.221,641.743,349.221Z" fill="#2d3339"/>
          <path id="Trazado_128119" data-name="Trazado 128119" d="M623.611,335.919a12.82,12.82,0,0,1-7.32-2.559l.634-.773c.318.26,7.86,6.27,14.69-1.929l.767.641C629.429,334.844,626.309,335.919,623.611,335.919Z" fill="#352b4c"/>
          <path id="Trazado_128120" data-name="Trazado 128120" d="M649.455,352.547c-1.841-.528-4.76-1.351-4.76-1.351l.2-.722s2.921.824,4.764,1.352Z" fill="#e1916e"/>
          <path id="Trazado_128121" data-name="Trazado 128121" d="M646.621,349.431l-.911-.414c.961-2.112-.474-7.212-1.109-9l.942-.334C645.643,339.961,647.945,346.521,646.621,349.431Z" fill="#352b4c"/>
          <path id="Trazado_128122" data-name="Trazado 128122" d="M620.9,411.765c-11.692,0-21.637-.647-21.786-.657l.066-1c.224.015,22.537,1.464,39.612,0,17.237-1.478,22.467.608,22.681.7l-.384.923c-.05-.022-5.308-2.075-22.212-.625C633.128,411.6,626.791,411.765,620.9,411.765Z" fill="#352b4c"/>
        </g>
      </g>
      <g id="Grupo_134991" data-name="Grupo 134991" transform="translate(653.112 2064.604)">
        <path id="Trazado_128123" data-name="Trazado 128123" d="M26.5,393.547s12.862,7.354,20.58,6.358,22.475-41.217,16.8-42.085S31.645,359.536,26.5,393.547Z" transform="translate(0.115 7.211)" fill="#2d3339"/>
        <path id="Trazado_128124" data-name="Trazado 128124" d="M82.177,306.112a16.188,16.188,0,0,1,11.25,9.528c2.855,6.334-.764,11.754,5.868,18.874s7.046,17.847-5.977,19.147c-8.081.807-11.742,6.978-18.943,5.544s-7.261-2.425-14.119-1.939c-8.015.567-11.969-1.038-14.712-6.279-4.565-8.725,2.93-13.384,2.569-21.316C47.736,321.371,52.5,297.69,82.177,306.112Z" transform="translate(2.067 1.28)" fill="#352b4c"/>
        <path id="Trazado_128125" data-name="Trazado 128125" d="M81.559,334.6s-.507,19.877-.057,22.82,23.805,5.56,29.817,10.707S93,384.062,81.513,391.448c-8.8,5.66-33.313-28.745-25.943-29.32s8.826-2.767,11.045-7.676c2.236-4.946-.978-10.314-.978-10.314S80.522,335.467,81.559,334.6Z" transform="translate(3.194 4.644)" fill="#eaac90"/>
        <path id="Trazado_128126" data-name="Trazado 128126" d="M83.875,318.769s6.277,32.55-12.245,34.548c-12.74,1.374-20.207-19.688-17.616-30.079S75.644,311.424,83.875,318.769Z" transform="translate(3.116 2.374)" fill="#eaac90"/>
        <ellipse id="Elipse_4993" data-name="Elipse 4993" cx="1.135" cy="1.454" rx="1.135" ry="1.454" transform="translate(62.258 336.449) rotate(-6.188)" fill="#2e1f35"/>
        <ellipse id="Elipse_4994" data-name="Elipse 4994" cx="1.135" cy="1.454" rx="1.135" ry="1.454" transform="translate(77.839 336.449) rotate(-6.188)" fill="#2e1f35"/>
        <path id="Trazado_128127" data-name="Trazado 128127" d="M56.352,334.029s-2.745-5.9-5.194-2.946,1.362,9.988,3.98,9.677S57.853,336.4,56.352,334.029Z" transform="translate(2.768 4.161)" fill="#eaac90"/>
        <path id="Trazado_128128" data-name="Trazado 128128" d="M86.472,334.023s1.109-6.415-2.588-5.381-4.575,8.984-2.247,10.22S86.356,336.824,86.472,334.023Z" transform="translate(6.1 3.97)" fill="#eaac90"/>
        <path id="Trazado_128129" data-name="Trazado 128129" d="M79.744,308.22s9.568,4.308,9.835,15.046c.1,4.18-14.528,5.81-17.2,2.587s-3.249-12.44-3.249-12.44.5,11.022-3.592,14.058-15.541,2.136-14.59.769,1.8-17.73,11.787-21.519S79.744,308.22,79.744,308.22Z" transform="translate(2.826 1.394)" fill="#352b4c"/>
        <path id="Trazado_128130" data-name="Trazado 128130" d="M68.857,350.836a8.816,8.816,0,0,1-4.088-1l.656-1.107c.19.111,4.693,2.672,8.993-1.721l.919.9A8.876,8.876,0,0,1,68.857,350.836Z" transform="translate(4.368 6.024)" fill="#e1916e"/>
        <circle id="Elipse_4995" data-name="Elipse 4995" cx="3.344" cy="3.344" r="3.344" transform="translate(78.065 339.092)" fill="#e1916e"/>
        <circle id="Elipse_4996" data-name="Elipse 4996" cx="3.344" cy="3.344" r="3.344" transform="translate(60.233 339.491)" fill="#e1916e"/>
        <path id="Trazado_128131" data-name="Trazado 128131" d="M62.629,357.684s.39,9.557,5.37,10.842c6.548,1.689,19.631-11.336,19.631-11.336,7.322-.131,26.422.3,32.64,9.358,5.163,7.522,3.127,25.216-.992,26.4-4.728,1.361-78.315,4.545-80.88,2.749s4.08-29.341,10.094-33.488C56.447,356.724,62.629,357.684,62.629,357.684Z" transform="translate(1.374 7.153)" fill="#2d3339"/>
        <circle id="Elipse_4997" data-name="Elipse 4997" cx="9.762" cy="9.762" r="9.762" transform="translate(78.254 292.814)" fill="#352b4c"/>
        <path id="Trazado_128132" data-name="Trazado 128132" d="M30.255,378.312h0c4.783.3,16.145,4.009,17.4,8.906s9.214,35.916-10.246,28.7C15.668,407.857,30.255,378.312,30.255,378.312Z" transform="translate(0 9.503)" fill="#eaac90"/>
        <path id="Trazado_128133" data-name="Trazado 128133" d="M48.525,369.866s-4.3,13.675-4.779,24.3-8.584,31.161-5.329,30.654,74.116,4.056,75.684.009C137.682,363.941,60.762,367.135,48.525,369.866Z" transform="translate(1.354 8.433)" fill="#2d3339"/>
        <path id="Trazado_128134" data-name="Trazado 128134" d="M77.2,325.351c-3.595-3.48-3.208-17.737-3.189-18.343l1.287.039c-.12,3.966.15,14.817,2.8,17.379Z" transform="translate(5.393 1.578)" fill="#443965"/>
        <path id="Trazado_128135" data-name="Trazado 128135" d="M60,323.572c-.033-.091-3.138-9.276,8.354-16.672l.7,1.082c-10.644,6.85-7.867,15.076-7.837,15.158Z" transform="translate(3.793 1.566)" fill="#443965"/>
        <path id="Trazado_128136" data-name="Trazado 128136" d="M52.608,323.687l-1.236-.357c.173-.6,4.362-14.7,14.859-16.882l.262,1.26C56.747,309.738,52.648,323.548,52.608,323.687Z" transform="translate(2.879 1.516)" fill="#443965"/>
        <path id="Trazado_128137" data-name="Trazado 128137" d="M84.233,323.51,83,323.149c.026-.087,2.443-8.708-3.573-14.715l.91-.911C86.9,314.08,84.345,323.129,84.233,323.51Z" transform="translate(5.997 1.635)" fill="#443965"/>
        <path id="Trazado_128138" data-name="Trazado 128138" d="M56.957,351.421c-.16-.106-3.906-2.666-3.562-10.833l1.284.054c-.313,7.446,2.952,9.681,2.986,9.7Z" transform="translate(3.102 5.31)" fill="#443965"/>
        <path id="Trazado_128139" data-name="Trazado 128139" d="M91.5,334.6c.128.142,3.092,3.578.666,11.384l-1.228-.382c2.212-7.117-.37-10.115-.4-10.144Z" transform="translate(7.233 4.644)" fill="#443965"/>
        <path id="Trazado_128140" data-name="Trazado 128140" d="M87.741,337.112c.066.18,1.547,4.469-3.6,10.82l-1-.809c4.69-5.791,3.4-9.533,3.388-9.569Z" transform="translate(6.411 4.924)" fill="#443965"/>
        <path id="Trazado_128141" data-name="Trazado 128141" d="M51.23,349.893c-.234-.076-5.707-2-1.913-14.575l1.231.372c-3.378,11.194,1.033,12.964,1.078,12.979Z" transform="translate(2.503 4.724)" fill="#443965"/>
        <path id="Trazado_128142" data-name="Trazado 128142" d="M76.709,305.3c-.717-7.235,6.2-9.167,6.271-9.186l.333,1.242c-.242.067-5.932,1.683-5.325,7.817Z" transform="translate(5.69 0.367)" fill="#443965"/>
        <path id="Trazado_128143" data-name="Trazado 128143" d="M83.085,307.517a8.143,8.143,0,0,1-2.873-.524l-.891-.383.7-.672c2.268-2.176,4.78-7.855,4.806-7.911l1.177.518a38.71,38.71,0,0,1-4.373,7.545,5.35,5.35,0,0,0,6.235-2.885l1.132.61A6.43,6.43,0,0,1,83.085,307.517Z" transform="translate(5.986 0.579)" fill="#443965"/>
        <path id="Trazado_128144" data-name="Trazado 128144" d="M90.466,332.7a14.043,14.043,0,0,1-3.526-8.648h1.287a12.963,12.963,0,0,0,3.2,7.79Z" transform="translate(6.833 3.472)" fill="#443965"/>
        <path id="Trazado_128145" data-name="Trazado 128145" d="M89.61,376.727s22.469-.064,26.665,6.038-8.93,26.809-9.3,27.681-25.593-9.351-23.786-13.708S89.61,376.727,89.61,376.727Z" transform="translate(6.405 9.327)" fill="#eaac90"/>
        <path id="Trazado_128146" data-name="Trazado 128146" d="M112.937,407.68s-5.716,10.174-16.112,10.813-42.395-25.629-53.156-26.259-3.94-4.161,9.028-5.881S108.459,391.756,112.937,407.68Z" transform="translate(1.431 10.369)" fill="#eaac90"/>
        <path id="Trazado_128147" data-name="Trazado 128147" d="M25.472,396.6s-.368,18.458,19.351,20.375,45.928-23.411,51.192-24.643-45.877-6.359-56.244-2.837S25.472,396.6,25.472,396.6Z" transform="translate(0.001 10.61)" fill="#eaac90"/>
        <path id="Trazado_128148" data-name="Trazado 128148" d="M67.511,342.651l-.966-.7c.076-.106,1.882-2.579,4.271-2.84a3.883,3.883,0,0,1,3.079,1.078l-.793.889a2.709,2.709,0,0,0-2.153-.784C69.09,340.5,67.527,342.629,67.511,342.651Z" transform="translate(4.566 5.144)" fill="#261e35"/>
        <path id="Trazado_128149" data-name="Trazado 128149" d="M61.135,331.382c-.51-.8-2.375-1.076-2.987-1.109l.062-1.188c.3.014,3,.194,3.929,1.657Z" transform="translate(3.633 4.031)" fill="#261e35"/>
        <path id="Trazado_128150" data-name="Trazado 128150" d="M73.275,331.382l-1-.64c.932-1.462,3.626-1.642,3.929-1.657l.062,1.188C75.65,330.306,73.785,330.581,73.275,331.382Z" transform="translate(5.202 4.031)" fill="#261e35"/>
        <path id="Trazado_128151" data-name="Trazado 128151" d="M66.458,332.365s-3.488,5.423-2.6,6.157,2.873,1.477,3.482.678S67.353,330.891,66.458,332.365Z" transform="translate(4.251 4.375)" fill="#e1916e"/>
        <path id="Trazado_128152" data-name="Trazado 128152" d="M89.611,377.481l-1.187-.106c0-.041.369-4.228.377-6.95l1.19,0C89.984,373.2,89.614,377.437,89.611,377.481Z" transform="translate(6.998 8.626)" fill="#261e35"/>
        <path id="Trazado_128153" data-name="Trazado 128153" d="M66.759,371.867a6.255,6.255,0,0,1-2.616-.538c-5.555-2.533-6.464-10.46-6.5-10.8l1.184-.127c.008.076.877,7.591,5.81,9.84,4.891,2.227,12.715-4.829,12.794-4.9l.8.879C77.941,366.492,71.982,371.867,66.759,371.867Z" transform="translate(3.576 7.512)" fill="#261e35"/>
        <path id="Trazado_128154" data-name="Trazado 128154" d="M44.714,384.63l-1.177-.19c.007-.04.644-3.936,1.648-7.845l1.153.294C45.349,380.746,44.719,384.592,44.714,384.63Z" transform="translate(2.009 9.312)" fill="#261e35"/>
        <path id="Trazado_128155" data-name="Trazado 128155" d="M70.971,406.565c-.217-.137-21.706-13.814-29.581-14.4l.089-1.189c8.172.614,29.24,14.02,30.133,14.592Z" transform="translate(1.77 10.91)" fill="#e1916e"/>
        <path id="Trazado_128156" data-name="Trazado 128156" d="M82.5,335.673l-1.183-.139a15.2,15.2,0,0,1,1.541-3.976l1.046.57A13.8,13.8,0,0,0,82.5,335.673Z" transform="translate(6.208 4.306)" fill="#e1916e"/>
        <path id="Trazado_128157" data-name="Trazado 128157" d="M53.858,337A4.946,4.946,0,0,0,52,334.167l.734-.938c.089.07,2.19,1.734,2.315,3.692Z" transform="translate(2.949 4.492)" fill="#e1916e"/>
      </g>
      <g id="Grupo_134992" data-name="Grupo 134992" transform="translate(555.361 2091.068)">
        <path id="Trazado_128158" data-name="Trazado 128158" d="M441.531,348.053s-25.784-21.518-29.243-19.982-12.22,6.622-9.888,11.418,20.552,27.586,25.164,26.144S443.421,349.889,441.531,348.053Z" transform="translate(-0.094 -4.827)" fill="#eaac90"/>
        <circle id="Elipse_4998" data-name="Elipse 4998" cx="11.494" cy="11.494" r="11.494" transform="translate(457.393 270.755)" fill="#352b4c"/>
        <path id="Trazado_128159" data-name="Trazado 128159" d="M482.647,292.048s5.044,1.387,8.339,9.639c2.5,6.264.932,11.446,7.064,18.632s6.079,17.607-6.606,18.319c-7.873.44-11.684,6.271-18.607,4.577s-6.941-2.659-13.613-2.478c-7.8.212-11.566-1.512-14-6.712-4.058-8.656,3.408-12.857,3.393-20.566C448.6,305.393,454.222,282.625,482.647,292.048Z" transform="translate(-3.636 -1.606)" fill="#352b4c"/>
        <path id="Trazado_128160" data-name="Trazado 128160" d="M478.13,323.338s-.317,20.584-.006,23.458,18.776,1.489,24.39,6.736-13.239,20.75-24.693,27.427c-8.78,5.119-38.724-28.571-31.552-28.817s18.987-2.434,18.665-7.694-.513-10.044-.513-10.044S477.088,324.139,478.13,323.338Z" transform="translate(-3.734 -4.434)" fill="#eaac90"/>
        <path id="Trazado_128161" data-name="Trazado 128161" d="M485.5,306.515s4.713,31.836-13.336,32.991c-12.416.795-18.768-19.95-15.816-29.918S477.827,299.043,485.5,306.515Z" transform="translate(-4.616 -2.587)" fill="#eaac90"/>
        <path id="Trazado_128162" data-name="Trazado 128162" d="M458.445,323.446s-2.414-5.841-4.913-3.077.9,9.746,3.45,9.554S459.8,325.807,458.445,323.446Z" transform="translate(-4.365 -4.121)" fill="#eaac90"/>
        <path id="Trazado_128163" data-name="Trazado 128163" d="M487.659,323.445s.513-5.467,3.334-3.033-.48,9.507-3.036,9.633S486.6,325.956,487.659,323.445Z" transform="translate(-7.213 -4.135)" fill="#eaac90"/>
        <path id="Trazado_128164" data-name="Trazado 128164" d="M481.444,294.27s9.1,4.582,8.9,15.009c-.076,4.059-14.336,5.021-16.791,1.783s-2.625-12.2-2.625-12.2.017,10.712-4.079,13.484-15.164,1.414-14.184.129,2.5-17.12,12.342-20.374S481.444,294.27,481.444,294.27Z" transform="translate(-4.361 -1.712)" fill="#352b4c"/>
        <circle id="Elipse_4999" data-name="Elipse 4999" cx="3.246" cy="3.246" r="3.246" transform="translate(472.062 322.045)" fill="#e1916e"/>
        <circle id="Elipse_5000" data-name="Elipse 5000" cx="3.246" cy="3.246" r="3.246" transform="translate(454.798 322.045)" fill="#e1916e"/>
        <path id="Trazado_128165" data-name="Trazado 128165" d="M483.036,311.247c-3.273-3.457-4.214-16.332-4.252-16.879l.982-.069c.009.13.953,13.069,3.986,16.271Z" transform="translate(-6.568 -1.985)" fill="#3f345c"/>
        <path id="Trazado_128166" data-name="Trazado 128166" d="M463.6,308.658a10.79,10.79,0,0,1,.069-5.368c.694-2.792,2.764-6.845,8.678-10.3l.5.85c-10.7,6.247-8.328,14.443-8.3,14.525Z" transform="translate(-5.263 -1.875)" fill="#3f345c"/>
        <path id="Trazado_128167" data-name="Trazado 128167" d="M454.47,308.312l-.932-.314c.192-.57,4.826-13.993,15.022-15.656l.158.972C459.109,294.88,454.516,308.179,454.47,308.312Z" transform="translate(-4.439 -1.82)" fill="#3f345c"/>
        <path id="Trazado_128168" data-name="Trazado 128168" d="M488.642,309.705l-.953-.244c.021-.084,2.07-8.433-3.582-14.593l.724-.665C490.853,300.763,488.736,309.343,488.642,309.705Z" transform="translate(-7.017 -1.977)" fill="#3f345c"/>
        <path id="Trazado_128169" data-name="Trazado 128169" d="M499.906,334.483a21.479,21.479,0,0,0-4.052-12.618l.759-.625a22.132,22.132,0,0,1,4.277,13.241Z" transform="translate(-8.008 -4.257)" fill="#3f345c"/>
        <path id="Trazado_128170" data-name="Trazado 128170" d="M490.878,339.566l-.545-.819c.032-.023,3.259-2.32,1.925-9.666l.968-.176C494.686,336.946,491.034,339.463,490.878,339.566Z" transform="translate(-7.542 -4.904)" fill="#3f345c"/>
        <path id="Trazado_128171" data-name="Trazado 128171" d="M459.821,341.985c-.168-.072-4.12-1.85-5.177-9.638l.975-.132c.975,7.185,4.555,8.851,4.592,8.866Z" transform="translate(-4.533 -5.183)" fill="#3f345c"/>
        <path id="Trazado_128172" data-name="Trazado 128172" d="M451.271,339.476c-.219-.082-5.329-2.14-1.161-14.05l.928.325c-3.852,11.01.531,12.786.576,12.8Z" transform="translate(-4.013 -4.61)" fill="#3f345c"/>
        <path id="Trazado_128173" data-name="Trazado 128173" d="M477.085,286.859l.33-.819c1.233-3.059-1.833-9.537-1.865-9.6l.888-.425c.124.26,2.808,5.934,2.137,9.528,1.039-.315,2.815-1.048,3.494-2.514.53-1.145.3-2.572-.678-4.244l.85-.5c1.154,1.968,1.395,3.7.718,5.159-1.2,2.585-4.85,3.239-5.005,3.265Z" transform="translate(-6.295 -0.443)" fill="#3f345c"/>
        <path id="Trazado_128174" data-name="Trazado 128174" d="M472.691,286.629a3.684,3.684,0,0,1-2.04-2.111c-1.331-3.336,1.046-8.853,1.147-9.086l.9.393c-.024.054-2.314,5.376-1.135,8.329a2.7,2.7,0,0,0,1.509,1.569Z" transform="translate(-5.848 -0.394)" fill="#3f345c"/>
        <path id="Trazado_128175" data-name="Trazado 128175" d="M464.575,320.028a7,7,0,0,0-2.9-.58l-.133-.7a7.687,7.687,0,0,1,3.3.619Z" transform="translate(-5.114 -4.043)" fill="#261e35"/>
        <path id="Trazado_128176" data-name="Trazado 128176" d="M480.74,319.142l-.465-.545a7.807,7.807,0,0,1,3.176-1.106l.1.711A7.007,7.007,0,0,0,480.74,319.142Z" transform="translate(-6.694 -3.941)" fill="#261e35"/>
        <circle id="Elipse_5001" data-name="Elipse 5001" cx="1.633" cy="1.633" r="1.633" transform="translate(456.412 316.438)" fill="#261e35"/>
        <circle id="Elipse_5002" data-name="Elipse 5002" cx="1.633" cy="1.633" r="1.633" transform="translate(474.054 316.054)" fill="#261e35"/>
        <path id="Trazado_128177" data-name="Trazado 128177" d="M457.091,327.5l-.919-.267c.467-1.611-1.644-3.55-1.666-3.568l.642-.71C455.253,323.046,457.724,325.31,457.091,327.5Z" transform="translate(-4.521 -4.401)" fill="#e1916e"/>
        <path id="Trazado_128178" data-name="Trazado 128178" d="M488.438,326.532l-.951-.1a3.911,3.911,0,0,1,1.617-3.053l.478.83-.239-.415.244.412A3,3,0,0,0,488.438,326.532Z" transform="translate(-7.302 -4.438)" fill="#e1916e"/>
        <path id="Trazado_128179" data-name="Trazado 128179" d="M473.644,319.751s2.448,6.267,1.3,6.528-3.952.477-4.3,0S472.472,317.856,473.644,319.751Z" transform="translate(-5.879 -4.107)" fill="#e1916e"/>
        <path id="Trazado_128180" data-name="Trazado 128180" d="M450.738,342.192c-.125-.007-12.493-.868-12.315-11.452.108-6.466,4.074-10.453,7.259-13.657,1.852-1.862,3.452-3.471,3.541-4.961l.955.058c-.111,1.851-1.829,3.578-3.817,5.577-3.065,3.083-6.879,6.919-6.981,13a9.127,9.127,0,0,0,5.576,8.877,17.351,17.351,0,0,0,5.839,1.6Z" transform="translate(-3.165 -3.488)" fill="#352b4c"/>
        <path id="Trazado_128181" data-name="Trazado 128181" d="M503.092,338.816l-.082-.952a5.175,5.175,0,0,0,3.326-1.951c1.208-1.592,1.535-3.95.971-7.009-.846-4.6-2.977-6.367-5.444-8.419a19.082,19.082,0,0,1-6.374-8.17l.887-.358a18.033,18.033,0,0,0,6.1,7.793c2.5,2.079,4.863,4.044,5.772,8.979.614,3.344.224,5.96-1.162,7.777A6.047,6.047,0,0,1,503.092,338.816Z" transform="translate(-7.977 -3.474)" fill="#352b4c"/>
        <path id="Trazado_128182" data-name="Trazado 128182" d="M493.431,327.74a.549.549,0,0,1-.135-.016c-.567-.144-1.1-.279,1.608-18.416.856-5.733-.226-10.182-3.217-13.225-6-6.1-17.787-4.628-17.906-4.61l-.125-.949c.5-.066,12.377-1.555,18.711,4.885,3.215,3.27,4.387,7.994,3.482,14.041-2.22,14.86-2.143,17.191-2.052,17.55l.29.106C493.9,327.626,493.63,327.74,493.431,327.74Zm-.158-.93.521.19a.408.408,0,0,0-.3-.211A.426.426,0,0,0,493.272,326.809Z" transform="translate(-6.136 -1.651)" fill="#352b4c"/>
        <path id="Trazado_128183" data-name="Trazado 128183" d="M459.256,351.887s.983,15.6,14.53,10.95c6.878-2.358,7.338-12.02,7.338-12.02,4.29-.275,23.494.661,26.762,6.475s2.93,55.831,4.02,62.557-68.034,2.942-76.645,3.362-.1-45.395-1.816-55.482S453.474,351.6,459.256,351.887Z" transform="translate(-2.567 -6.748)" fill="#2d3339"/>
        <path id="Trazado_128184" data-name="Trazado 128184" d="M473.377,344.491a7.2,7.2,0,0,1-4.823-2.089l.521-.494a6.593,6.593,0,0,0,4.3,1.865l.11,0c1.77-.038,3.483-.991,5.091-2.83l.54.472c-1.75,2-3.642,3.035-5.625,3.075Z" transform="translate(-5.706 -5.919)" fill="#e1916e"/>
        <path id="Trazado_128185" data-name="Trazado 128185" d="M445.727,310.018a10.106,10.106,0,0,1,4.546-1.108c2.454-.144,6.351.728,8.507-.939,2.687-2.077-9.007-2.438-8.134-2.577s11.752-.366,9.474-2.081-6.409-1.524-8.539-1.472c0,0,9.756-.82,8.728-2.207s-3.739-1.417-8.092-.335-12.467,4.528-12.992,5.715S443.471,310.463,445.727,310.018Z" transform="translate(-3.229 -2.343)" fill="#eaac90"/>
        <path id="Trazado_128186" data-name="Trazado 128186" d="M498.456,309.917s-4.337-3.168-7.438-3.188c-2.459-.016-6.305,1.057-8.544-.5-2.79-1.936,8.868-2.9,7.99-2.994s-11.755.241-9.57-1.589,6.322-1.853,8.452-1.912c0,0-9.786-.316-8.831-1.753s3.66-1.609,8.063-.753,11.56,4.506,12.146,5.664S500.731,310.246,498.456,309.917Z" transform="translate(-6.709 -2.189)" fill="#eaac90"/>
        <path id="Trazado_128187" data-name="Trazado 128187" d="M455.461,301.306c-1.937-6.256-9.846-4.295-10.183-4.206l-.24-.927c.091-.023,9.129-2.28,11.337,4.85Z" transform="translate(-3.723 -2.113)" fill="#352b4c"/>
        <path id="Trazado_128188" data-name="Trazado 128188" d="M460.094,302.989c-7.713-2.065-17.276-.395-17.37-.378l-.169-.941c.4-.072,9.866-1.723,17.786.395Z" transform="translate(-3.513 -2.549)" fill="#352b4c"/>
        <path id="Trazado_128189" data-name="Trazado 128189" d="M447.583,308.662l-.677-.676c4.805-4.8,13.176-2.246,13.529-2.137l-.286.914C460.068,306.738,451.974,304.274,447.583,308.662Z" transform="translate(-3.88 -2.894)" fill="#352b4c"/>
        <path id="Trazado_128190" data-name="Trazado 128190" d="M442.511,310.359s-17.911,29.266-29.44,30.075c-7.064.5-14.058-1.014-11.464-11.837,1.592-6.643,39.055-27.448,40.074-25.936S442.511,310.359,442.511,310.359Z" transform="translate(-0.014 -2.684)" fill="#eaac90"/>
        <path id="Trazado_128191" data-name="Trazado 128191" d="M500.326,347.435s25.784-21.519,29.243-19.983,11.323,7.188,8.992,11.984-19.656,27.02-24.267,25.579S498.436,349.272,500.326,347.435Z" transform="translate(-8.367 -4.774)" fill="#eaac90"/>
        <path id="Trazado_128192" data-name="Trazado 128192" d="M499.187,309.816s17.911,29.265,29.439,30.074c7.065.5,13.381-1.069,10.787-11.893-1.591-6.643-38.145-26.581-39.164-25.069S499.187,309.816,499.187,309.816Z" transform="translate(-8.289 -2.706)" fill="#eaac90"/>
        <path id="Trazado_128193" data-name="Trazado 128193" d="M458.09,351.17s-17.979-8.878-21.15-6.76-21.039,13.358-19.31,18.834,16.056,17.168,19.412,18.96S458.712,355.491,458.09,351.17Z" transform="translate(-1.402 -6.183)" fill="#2d3339"/>
        <path id="Trazado_128194" data-name="Trazado 128194" d="M488.758,350.916s15.554-10.929,18.724-8.812,22.668,13.245,20.94,18.722-15.958,19.395-19.314,21.187S488.137,355.237,488.758,350.916Z" transform="translate(-7.408 -5.994)" fill="#2d3339"/>
        <path id="Trazado_128195" data-name="Trazado 128195" d="M485.925,300.522l-.476-.83c4.409-2.534,11-1.725,11.273-1.69l-.122.95C496.536,298.943,490.052,298.15,485.925,300.522Z" transform="translate(-7.13 -2.285)" fill="#352b4c"/>
        <path id="Trazado_128196" data-name="Trazado 128196" d="M498.054,305.754c-5.116-3.926-12.362-.7-12.434-.664l-.4-.871c.319-.144,7.842-3.5,13.413.777Z" transform="translate(-7.111 -2.705)" fill="#352b4c"/>
        <path id="Trazado_128197" data-name="Trazado 128197" d="M516.824,304.474c-1.937,0-3.469-1.418-4.969-2.809-.482-.447-.973-.9-1.489-1.324a5.113,5.113,0,0,0-5.775-.5l-.5-.816a6.168,6.168,0,0,1,6.878.573c.536.439,1.042.908,1.534,1.363,2.367,2.194,4.238,3.927,7.658.975l.626.722A6.159,6.159,0,0,1,516.824,304.474Z" transform="translate(-8.702 -2.316)" fill="#352b4c"/>
        <path id="Trazado_128198" data-name="Trazado 128198" d="M496.329,284.673l-.839-.458a6.153,6.153,0,0,1,6.249-2.93c.677.111,1.35.266,2.009.417,3.148.722,5.633,1.291,7.126-2.971l.9.316c-1.776,5.073-5.065,4.319-8.242,3.588-.64-.147-1.293-.3-1.95-.406A5.142,5.142,0,0,0,496.329,284.673Z" transform="translate(-7.977 -0.672)" fill="#352b4c"/>
        <path id="Trazado_128199" data-name="Trazado 128199" d="M535.862,295.938c-2.018,0-3.532-1.526-5.013-3.02-.463-.466-.934-.941-1.432-1.384a5.165,5.165,0,0,0-5.748-.74l-.465-.835a6.16,6.16,0,0,1,6.847.859c.514.457,1,.946,1.476,1.426,2.273,2.292,4.071,4.1,7.611,1.295l.594.749A6.32,6.32,0,0,1,535.862,295.938Z" transform="translate(-10.314 -1.562)" fill="#352b4c"/>
        <path id="Trazado_128200" data-name="Trazado 128200" d="M401.75,293.086l-.858-.422c2.376-4.821,5.548-3.674,8.616-2.564.618.224,1.248.452,1.887.64a5.164,5.164,0,0,0,5.511-1.789l.777.557a6.16,6.16,0,0,1-6.557,2.15c-.664-.194-1.315-.429-1.944-.657C406.143,289.9,403.748,289.037,401.75,293.086Z" transform="translate(0 -1.534)" fill="#352b4c"/>
        <path id="Trazado_128201" data-name="Trazado 128201" d="M416.347,306.774a6.152,6.152,0,0,1-3.965-1.814l.625-.723c3.416,2.952,5.29,1.221,7.658-.974.492-.455,1-.925,1.534-1.362a6.164,6.164,0,0,1,6.879-.575l-.5.817a5.106,5.106,0,0,0-5.774.5c-.516.422-1.006.876-1.489,1.323C419.815,305.354,418.284,306.774,416.347,306.774Z" transform="translate(-0.969 -2.51)" fill="#352b4c"/>
        <path id="Trazado_128202" data-name="Trazado 128202" d="M440.455,284.283a5.092,5.092,0,0,0-5.254-2.445c-.658.108-1.311.258-1.951.406-3.178.73-6.466,1.484-8.241-3.588l.9-.316c1.493,4.263,3.977,3.692,7.125,2.971.653-.15,1.328-.3,2.01-.418a6.161,6.161,0,0,1,6.249,2.93Z" transform="translate(-2.034 -0.64)" fill="#352b4c"/>
        <path id="Trazado_128203" data-name="Trazado 128203" d="M465.4,291.187c-3.655-1.5-5.655-3.516-5.945-5.984-.591-5.032,6.2-9.986,6.49-10.2l.559.776c-.067.049-6.626,4.835-6.1,9.31.248,2.1,2.051,3.849,5.36,5.208Z" transform="translate(-4.936 -0.359)" fill="#352b4c"/>
        <path id="Trazado_128204" data-name="Trazado 128204" d="M472.649,368.8c-11.21,0-15.364-10.873-15.406-10.985l.9-.332c.169.455,4.257,11.114,15.676,10.32,11.345-.78,11.935-11.961,11.954-12.438l.957.038c-.006.125-.636,12.514-12.845,13.354C473.462,368.781,473.05,368.8,472.649,368.8Z" transform="translate(-4.752 -7.134)" fill="#352b4c"/>
        <path id="Trazado_128205" data-name="Trazado 128205" d="M516.716,379.963a47.284,47.284,0,0,0-6.5-14.77l.779-.553a48.334,48.334,0,0,1,6.658,15.106Z" transform="translate(-9.218 -7.917)" fill="#352b4c"/>
        <path id="Trazado_128206" data-name="Trazado 128206" d="M434.352,381.933l-.954-.072A43.878,43.878,0,0,1,436.5,369l.872.395A43.688,43.688,0,0,0,434.352,381.933Z" transform="translate(-2.741 -8.285)" fill="#352b4c"/>
        <path id="Trazado_128207" data-name="Trazado 128207" d="M468.863,332.469s1.87-5.579,5.677-2.774,2.7,4.452-.659,5.29S468.158,333.939,468.863,332.469Z" transform="translate(-5.721 -4.904)" fill="#f7ece9"/>
      </g>
      <g id="Grupo_134993" data-name="Grupo 134993" transform="translate(466.839 2294.071)">
        <path id="Trazado_128208" data-name="Trazado 128208" d="M156.958,192.654s8.8,7.435,14.2,10.533c4.351,2.5-.3,4.855-7.449,3.907-8.547-1.134-9.092-4.555-12.139-4.137S151.55,190.986,156.958,192.654Z" fill="#eaac90"/>
        <path id="Trazado_128209" data-name="Trazado 128209" d="M165.534,199.417s-.282,5.736-2.608,5.736-4.4-1.266-11.361-2.2c-1.907-.255.552,2.512,1.359,3.866s10.785,8.721,19.892,1.125C177.708,203.868,168.628,201.713,165.534,199.417Z" fill="#352b4c"/>
        <path id="Trazado_128210" data-name="Trazado 128210" d="M151.272,198.063s4.343,10.673,7.679,15.921c2.692,4.234-2.522,4.16-8.412,0-7.042-4.975-7.011-5.187-8.829-9.3C137.88,196.008,147.259,194.073,151.272,198.063Z" fill="#eaac90"/>
        <path id="Trazado_128211" data-name="Trazado 128211" d="M156.463,208.509s-3.652,4.475-5.711,3.4-3.313-3.168-9.042-7.222c0,0-1.107,4.718.788,6.334,4.167,3.556,4.121,10.454,15.714,7.957C164.439,217.632,158.137,211.979,156.463,208.509Z" fill="#352b4c"/>
        <path id="Trazado_128212" data-name="Trazado 128212" d="M131.9,133.468s6.51-1.027,8.06-6.349-13.859-16.1-17.934-17.067S125.394,134.288,131.9,133.468Z" fill="#352b4c"/>
        <path id="Trazado_128213" data-name="Trazado 128213" d="M96.743,61.6a13.743,13.743,0,0,0-9.3,8.37c-2.262,5.447.945,9.955-4.5,16.165s-5.527,15.323,5.556,16.1c6.878.48,10.141,5.624,16.215,4.224s6.1-2.241,11.932-2c6.816.279,10.132-1.183,12.325-5.7,3.652-7.519-2.825-11.282-2.719-18.023C126.355,73.681,121.71,53.706,96.743,61.6Z" fill="#352b4c"/>
        <path id="Trazado_128214" data-name="Trazado 128214" d="M100.853,85.872s-.2,16.879-.675,19.361-20.371,3.963-25.635,8.14,15.035,14.1,24.548,20.731c7.291,5.082,29.066-22.7,22.938-24.052-6.441-1.422-9.69-2.262-9.69-5.081a45.636,45.636,0,0,1,1.719-10.5S101.7,86.644,100.853,85.872Z" fill="#e1916e"/>
        <path id="Trazado_128215" data-name="Trazado 128215" d="M94.76,73.343s-4.5,27.78,11.265,29.007c10.847.843,16.649-17.219,14.188-25.971S101.559,66.9,94.76,73.343Z" fill="#eaac90"/>
        <ellipse id="Elipse_5003" data-name="Elipse 5003" cx="1.234" cy="0.964" rx="1.234" ry="0.964" transform="translate(114.022 88.016) rotate(-85.521)" fill="#2e1f35"/>
        <ellipse id="Elipse_5004" data-name="Elipse 5004" cx="1.234" cy="0.964" rx="1.234" ry="0.964" transform="translate(100.8 88.411) rotate(-85.521)" fill="#2e1f35"/>
        <path id="Trazado_128216" data-name="Trazado 128216" d="M118.842,87.1s2.18-5.078,4.333-2.631-.9,8.511-3.132,8.313S117.628,89.151,118.842,87.1Z" fill="#eaac90"/>
        <path id="Trazado_128217" data-name="Trazado 128217" d="M90.45,87.782s-1.1-5.415,2.06-4.631,4.11,7.507,2.165,8.615S90.62,90.157,90.45,87.782Z" fill="#eaac90"/>
        <path id="Trazado_128218" data-name="Trazado 128218" d="M98.22,63.448s-8.01,3.9-7.964,13.017c.018,3.55,12.474,4.562,14.66,1.759s2.442-10.639,2.442-10.639-.144,9.366,3.4,11.839,13.241,1.418,12.4.283-1.98-15-10.548-17.962A15.62,15.62,0,0,0,98.22,63.448Z" fill="#352b4c"/>
        <circle id="Elipse_5005" data-name="Elipse 5005" cx="2.839" cy="2.839" r="2.839" transform="translate(97.198 88.432)" fill="#e1916e"/>
        <circle id="Elipse_5006" data-name="Elipse 5006" cx="2.839" cy="2.839" r="2.839" transform="translate(112.339 88.319)" fill="#e1916e"/>
        <circle id="Elipse_5007" data-name="Elipse 5007" cx="8.287" cy="8.287" r="8.287" transform="translate(85.134 49.326)" fill="#352b4c"/>
        <path id="Trazado_128219" data-name="Trazado 128219" d="M98.64,78.142c2.963-3.045,2.273-15.133,2.242-15.646l-1.09.065c.2,3.362.247,12.578-1.934,14.819Z" fill="#443965"/>
        <path id="Trazado_128220" data-name="Trazado 128220" d="M114.549,76.145c.025-.078,2.428-7.951-7.511-13.935l-.563.936c9.206,5.543,7.058,12.594,7.035,12.665Z" fill="#443965"/>
        <path id="Trazado_128221" data-name="Trazado 128221" d="M121.6,75.991l1.04-.334c-.163-.5-4.075-12.361-13.037-13.949l-.191,1.076C117.731,64.258,121.559,75.874,121.6,75.991Z" fill="#443965"/>
        <path id="Trazado_128222" data-name="Trazado 128222" d="M92.112,76.822l1.039-.338c-.023-.073-2.294-7.328,2.66-12.577l-.795-.75C89.611,68.886,92.008,76.5,92.112,76.822Z" fill="#443965"/>
        <path id="Trazado_128223" data-name="Trazado 128223" d="M118.143,103.233c.132-.093,3.247-2.361,2.748-9.282l-1.089.079c.455,6.31-2.259,8.29-2.287,8.309Z" fill="#443965"/>
        <path id="Trazado_128224" data-name="Trazado 128224" d="M85.252,89c-.1.125-2.533,3.115-.277,9.677l1.033-.355c-2.058-5.983.057-8.592.079-8.618Z" fill="#443965"/>
        <path id="Trazado_128225" data-name="Trazado 128225" d="M88.84,91.627c-.051.155-1.2,3.832,3.326,9.091l.828-.712c-4.127-4.795-3.128-8-3.117-8.034Z" fill="#443965"/>
        <path id="Trazado_128226" data-name="Trazado 128226" d="M92.665,62.325a6.917,6.917,0,0,0,2.425-.517l.747-.348-.611-.553c-1.979-1.789-4.255-6.544-4.278-6.592l-.986.469a32.846,32.846,0,0,0,3.9,6.291A4.54,4.54,0,0,1,88.5,58.786l-.945.547A5.459,5.459,0,0,0,92.665,62.325Z" fill="#443965"/>
        <path id="Trazado_128227" data-name="Trazado 128227" d="M86.395,86.357a11.923,11.923,0,0,0,2.772-7.427l-1.091.031a11.007,11.007,0,0,1-2.516,6.692Z" fill="#443965"/>
        <path id="Trazado_128228" data-name="Trazado 128228" d="M98.777,59.392a11.925,11.925,0,0,0-2.324-7.58l-.847.69a11.007,11.007,0,0,1,2.08,6.84Z" fill="#443965"/>
        <path id="Trazado_128229" data-name="Trazado 128229" d="M104.785,96.509l-.581-.814c1.787-1.274,3.326-1.718,4.572-1.315a3.033,3.033,0,0,1,1.844,1.791l-.945.325a2.016,2.016,0,0,0-1.216-1.168C107.544,95.04,106.272,95.448,104.785,96.509Z" fill="#261e35"/>
        <path id="Trazado_128230" data-name="Trazado 128230" d="M109.127,86.029s3.5,6.669,2.295,6.689-3.068,1.376-3.736-.4S108.572,84.933,109.127,86.029Z" fill="#e1916e"/>
        <path id="Trazado_128231" data-name="Trazado 128231" d="M99.858,84.548a10.348,10.348,0,0,1-1.419-.093l.147-.989c.753.113,2.912.233,3.856-.52l.624.781A5.376,5.376,0,0,1,99.858,84.548Z" fill="#261e35"/>
        <path id="Trazado_128232" data-name="Trazado 128232" d="M117.974,84.357a8.8,8.8,0,0,1-3.679-1.138l.5-.867c.659.378,2.623,1.281,3.779.926l.295.955A3.026,3.026,0,0,1,117.974,84.357Z" fill="#261e35"/>
        <path id="Trazado_128233" data-name="Trazado 128233" d="M116.472,108.445s1.179,6.7-5.564,6.783c-10.016.122-9.875-7.013-12.5-8.8s-15.675-3.572-26.234,5.322-36.426,61.935.194,91.8c13.759,11.219,50.7-37.573,57.828-42.693s6.071-28.2-.3-37.971c-3.983-6.112-5.844-12.523-7.868-12.835A39.6,39.6,0,0,1,116.472,108.445Z" fill="#2d3339"/>
        <path id="Trazado_128234" data-name="Trazado 128234" d="M123.457,101.28c.2-.07,4.792-1.846,1.255-12.416l-1.036.347c3.15,9.413-.548,11.027-.586,11.041Z" fill="#443965"/>
        <path id="Trazado_128235" data-name="Trazado 128235" d="M115.3,149.293s8.855-27.262,25.185-18.218C152.993,138,171.218,185.45,161.4,195.293c-1.1,1.1-5.6,2.805-7.384,2.7C136.321,196.987,115.3,149.293,115.3,149.293Z" fill="#6c858a"/>
        <path id="Trazado_128236" data-name="Trazado 128236" d="M94.176,143.036s17.367-21.133,33.767-7.126c10.931,9.337,35.947,52.966,25.413,62.02-.762.655-14.523,6.259-15.631,6.713C127.874,208.678,94.176,143.036,94.176,143.036Z" fill="#6c858a"/>
        <path id="Trazado_128237" data-name="Trazado 128237" d="M94.6,141.629S72.28,170.348,66.539,185.987C56.957,212.093,110.49,216.5,121,200.509s15.3-38.074,1.331-51.211S94.6,141.629,94.6,141.629Z" fill="#6c858a"/>
        <path id="Trazado_128238" data-name="Trazado 128238" d="M107.983,102.916a10.435,10.435,0,0,1-5.394-1.6l.572-.821c.189.132,4.682,3.175,9.23,0l.572.82A8.549,8.549,0,0,1,107.983,102.916Z" fill="#261e35"/>
        <path id="Trazado_128239" data-name="Trazado 128239" d="M154.829,198.162c-.134-.467-13.562-46.865-27.256-61.915l.74-.673c13.85,15.222,27.342,61.843,27.477,62.312Z" fill="#261e35"/>
        <path id="Trazado_128240" data-name="Trazado 128240" d="M69.464,138.964s16.746-16.749,19.282-14.982,8.451,9.5,8.451,9.5-9.563,21.474-13.179,20.6S69.464,143.807,69.464,138.964Z" fill="#eaac90"/>
        <path id="Trazado_128241" data-name="Trazado 128241" d="M97.2,102.378s2.838-6.656,5.678-6.843,5.962,2.327,7.272,4.81-4.69,3.9-4.357,6.357,1.708,44.959-7.4,48.959-15.472-.769-19.053-5.746S94.92,104.243,97.2,102.378Z" fill="#eaac90"/>
        <path id="Trazado_128242" data-name="Trazado 128242" d="M120.009,101.913s-2.836-6.724-5.66-6.375-5.419,3.406-6.239,6.09,4.433,2.7,4.567,5.174S135.506,140.3,145.2,142.515s12.97-10.333,6.762-18.288C148.189,119.393,122.6,103.317,120.009,101.913Z" fill="#eaac90"/>
        <path id="Trazado_128243" data-name="Trazado 128243" d="M60.473,120.714c-.024-.187-.538-4.592,2.455-5.225.747-.157.832-.767.847-2.119.015-1.315.035-3.114,2.207-3.2,1.121-.045,1.4-.688,1.778-1.577.514-1.2,1.152-2.694,4.087-2.385l-.1.994c-2.2-.225-2.582.659-3.065,1.785-.4.94-.9,2.111-2.657,2.182-1.117.046-1.229.644-1.247,2.215-.014,1.224-.031,2.747-1.64,3.087-2.1.443-1.674,4.085-1.67,4.122Z" fill="#261e35"/>
        <path id="Trazado_128244" data-name="Trazado 128244" d="M147.977,116.092l-1-.016c.035-2.213-.883-2.514-2.046-2.9-.972-.319-2.182-.717-2.407-2.455-.143-1.11-.748-1.167-2.315-1.05-1.221.094-2.74.209-3.219-1.363-.627-2.058-4.215-1.311-4.252-1.3l-.21-.978c.184-.039,4.527-.937,5.419,1.989.222.731.838.762,2.185.658,1.313-.1,3.106-.237,3.384,1.919.144,1.113.808,1.331,1.727,1.634C146.482,112.636,148.024,113.143,147.977,116.092Z" fill="#261e35"/>
        <path id="Trazado_128245" data-name="Trazado 128245" d="M127.151,65.624l-1-.016c.036-2.213-.882-2.515-2.045-2.9-.973-.32-2.183-.718-2.407-2.456-.143-1.11-.749-1.168-2.316-1.049-1.221.091-2.739.208-3.218-1.364-.627-2.058-4.215-1.311-4.252-1.3l-.21-.977c.184-.04,4.527-.939,5.419,1.988.222.731.839.761,2.185.659,1.312-.1,3.106-.237,3.384,1.918.144,1.113.808,1.331,1.727,1.633C125.657,62.169,127.2,62.675,127.151,65.624Z" fill="#261e35"/>
        <path id="Trazado_128246" data-name="Trazado 128246" d="M70.5,210.182c-1.047,0-4.369-.207-4.738-2.81-.107-.756-.709-.882-2.057-.989-1.31-.1-3.1-.245-3.046-2.418.03-1.122-.592-1.44-1.454-1.881-1.161-.594-2.606-1.333-2.1-4.24l.985.171c-.377,2.181.484,2.621,1.574,3.179.911.466,2.045,1.046,2,2.8-.031,1.118.558,1.27,2.125,1.395,1.22.1,2.738.217,2.968,1.845.3,2.128,3.964,1.944,4,1.945l.057,1C70.784,210.176,70.673,210.182,70.5,210.182Z" fill="#261e35"/>
        <path id="Trazado_128247" data-name="Trazado 128247" d="M168.924,180.445l-.713-.7c1.552-1.577,1.1-2.429.518-3.508-.484-.9-1.086-2.025-.049-3.438.662-.9.264-1.363-.952-2.357-.948-.775-2.127-1.739-1.389-3.208.965-1.922-2.148-3.857-2.18-3.876l.523-.853c.16.1,3.923,2.444,2.55,5.177-.342.683.081,1.129,1.128,1.985,1.018.832,2.412,1.971,1.126,3.723-.664.9-.334,1.521.124,2.375C170.226,176.913,170.993,178.343,168.924,180.445Z" fill="#261e35"/>
        <path id="Trazado_128248" data-name="Trazado 128248" d="M83.008,134.113l-.941-.335c.82-2.3,3.582-9.653,3.61-9.727l.936.352C86.586,124.477,83.826,131.824,83.008,134.113Z" fill="#e1916e"/>
        <path id="Trazado_128249" data-name="Trazado 128249" d="M125.852,195.41s-7.676,14.562-27.61,13.834c0,0,15.439-16.521,13.817-38.614C112.059,170.63,125.169,192.271,125.852,195.41Z" fill="#566b7d"/>
      </g>
      <g id="Grupo_134994" data-name="Grupo 134994" transform="translate(535.24 2072.056)">
        <path id="Trazado_128250" data-name="Trazado 128250" d="M609.013,325.749s-16.457,1.44-19.034,17.819c-1.631,10.369.485,18.152,4.493,19.021s11.459-5.1,16.983-12.308S616.938,321.052,609.013,325.749Z" fill="#2d3339"/>
        <path id="Trazado_128251" data-name="Trazado 128251" d="M593.873,394.09l4.24,40.756c5.1,2.751,21.7.466,23.828-.384s5.446-36.622,5.446-36.622,8.088,34.332,11.446,35.852,24.508,1.555,25.7-1.6-6.034-43.825-9.859-46.439S592.888,389.584,593.873,394.09Z" fill="#eaac90"/>
        <circle id="Elipse_5008" data-name="Elipse 5008" cx="8.358" cy="8.358" r="8.358" transform="translate(616.608 268.379)" fill="#352b4c"/>
        <path id="Trazado_128252" data-name="Trazado 128252" d="M632.328,282.7S636,283.7,638.393,289.7c1.818,4.555.678,8.323,5.137,13.549s4.42,12.8-4.8,13.321c-5.725.321-8.5,4.561-13.531,3.328s-5.047-1.933-9.9-1.8c-5.67.154-8.41-1.1-10.183-4.88-2.951-6.294,2.478-9.35,2.467-14.956C607.568,292.4,611.658,275.842,632.328,282.7Z" fill="#352b4c"/>
        <path id="Trazado_128253" data-name="Trazado 128253" d="M629.142,303.391s-.232,15.859,0,18.073,13.465,6.139,17.576,10.181-9.41,10.994-17.8,16.139c-6.429,3.943-28.847-19.986-23.6-20.175s14.395-3.9,14.159-7.954-.376-7.738-.376-7.738S628.38,304.009,629.142,303.391Z" transform="translate(-0.297)" fill="#eaac90"/>
        <path id="Trazado_128254" data-name="Trazado 128254" d="M633.691,292.5s3.427,23.15-9.7,23.99c-9.028.578-13.647-14.507-11.5-21.756S628.111,287.067,633.691,292.5Z" fill="#eaac90"/>
        <path id="Trazado_128255" data-name="Trazado 128255" d="M614.2,303.7s-1.755-4.247-3.573-2.238.654,7.087,2.51,6.948S615.185,305.414,614.2,303.7Z" fill="#eaac90"/>
        <path id="Trazado_128256" data-name="Trazado 128256" d="M633.372,303.687s.373-3.975,2.425-2.205-.35,6.913-2.208,7.005S632.6,305.513,633.372,303.687Z" fill="#eaac90"/>
        <path id="Trazado_128257" data-name="Trazado 128257" d="M630.927,284.233s6.616,3.333,6.474,10.915c-.056,2.951-10.425,3.651-12.21,1.3s-1.909-8.875-1.909-8.875.013,7.789-2.966,9.806-11.027,1.028-10.314.093,1.816-12.449,8.974-14.815A12.992,12.992,0,0,1,630.927,284.233Z" fill="#352b4c"/>
        <circle id="Elipse_5009" data-name="Elipse 5009" cx="2.361" cy="2.361" r="2.361" transform="translate(627.276 305.676)" fill="#e1916e"/>
        <circle id="Elipse_5010" data-name="Elipse 5010" cx="2.361" cy="2.361" r="2.361" transform="translate(614.722 305.676)" fill="#e1916e"/>
        <path id="Trazado_128258" data-name="Trazado 128258" d="M630.48,296.38c-2.38-2.513-3.065-11.876-3.093-12.274l.714-.05c.006.1.693,9.5,2.9,11.832Z" fill="#3f345c"/>
        <path id="Trazado_128259" data-name="Trazado 128259" d="M617.3,294.577a7.841,7.841,0,0,1,.049-3.9c.506-2.03,2.01-4.977,6.311-7.487l.361.618c-7.783,4.542-6.056,10.5-6.038,10.562Z" fill="#3f345c"/>
        <path id="Trazado_128260" data-name="Trazado 128260" d="M611.255,294.366l-.678-.229c.14-.415,3.509-10.175,10.923-11.385l.115.707C614.628,284.6,611.288,294.268,611.255,294.366Z" fill="#3f345c"/>
        <path id="Trazado_128261" data-name="Trazado 128261" d="M634.229,295.264l-.693-.177c.016-.061,1.506-6.133-2.6-10.612l.526-.483C635.837,288.762,634.3,295,634.229,295.264Z" fill="#3f345c"/>
        <path id="Trazado_128262" data-name="Trazado 128262" d="M641.7,311.624a15.626,15.626,0,0,0-2.946-9.175l.552-.454a16.1,16.1,0,0,1,3.11,9.628Z" fill="#3f345c"/>
        <path id="Trazado_128263" data-name="Trazado 128263" d="M635.473,314.851l-.4-.6c.024-.017,2.37-1.687,1.4-7.029l.7-.128C638.243,312.945,635.587,314.776,635.473,314.851Z" fill="#3f345c"/>
        <path id="Trazado_128264" data-name="Trazado 128264" d="M609.239,315c-.16-.06-3.876-1.556-.845-10.217l.676.236c-2.8,8.006.386,9.3.418,9.31Z" fill="#3f345c"/>
        <path id="Trazado_128265" data-name="Trazado 128265" d="M626.35,279.767l.239-.6c.9-2.225-1.333-6.935-1.356-6.983l.646-.308c.09.188,2.042,4.314,1.554,6.928a4.065,4.065,0,0,0,2.541-1.829,3.32,3.32,0,0,0-.493-3.086l.618-.362a3.977,3.977,0,0,1,.523,3.752c-.875,1.879-3.528,2.355-3.64,2.374Z" fill="#3f345c"/>
        <path id="Trazado_128266" data-name="Trazado 128266" d="M623.48,279.635A2.678,2.678,0,0,1,622,278.1c-.969-2.425.76-6.438.834-6.608l.655.287c-.016.039-1.682,3.909-.825,6.056a1.963,1.963,0,0,0,1.1,1.141Z" fill="#3f345c"/>
        <path id="Trazado_128267" data-name="Trazado 128267" d="M616.723,300.821H616.7l0-.75a5.077,5.077,0,0,0,2.053-.375l.4.633A5.548,5.548,0,0,1,616.723,300.821Z" fill="#261e35"/>
        <path id="Trazado_128268" data-name="Trazado 128268" d="M630.167,300.691a7.9,7.9,0,0,1-1.553-.181l.164-.733a5.015,5.015,0,0,0,2.087.074l.258.7A2.912,2.912,0,0,1,630.167,300.691Z" fill="#261e35"/>
        <circle id="Elipse_5011" data-name="Elipse 5011" cx="1.187" cy="1.187" r="1.187" transform="translate(617.832 301.598)" fill="#261e35"/>
        <circle id="Elipse_5012" data-name="Elipse 5012" cx="1.187" cy="1.187" r="1.187" transform="translate(629.094 301.471)" fill="#261e35"/>
        <path id="Trazado_128269" data-name="Trazado 128269" d="M613.248,306.482l-.961-.28c.259-.894-.755-2.064-1.168-2.44l.671-.741C611.87,303.093,613.734,304.8,613.248,306.482Z" fill="#e1916e"/>
        <path id="Trazado_128270" data-name="Trazado 128270" d="M634.025,305.727l-.994-.1a3,3,0,0,1,1.251-2.336l.507.862A2.059,2.059,0,0,0,634.025,305.727Z" fill="#e1916e"/>
        <path id="Trazado_128271" data-name="Trazado 128271" d="M623.251,302.3s1.78,4.556.947,4.747-2.874.346-3.13,0S622.4,300.917,623.251,302.3Z" fill="#e1916e"/>
        <path id="Trazado_128272" data-name="Trazado 128272" d="M609.383,317.932c-.074-.017-7.409-1.678-7.279-9.452.08-4.75,2.432-7.42,4.147-9.37,1.062-1.2,1.9-2.156,1.962-3.2l1,.061c-.083,1.383-1.068,2.5-2.209,3.8-1.7,1.934-3.824,4.342-3.9,8.725a8.363,8.363,0,0,0,6.489,8.457Z" fill="#352b4c"/>
        <path id="Trazado_128273" data-name="Trazado 128273" d="M644.052,315.5l-.087-1a3.606,3.606,0,0,0,2.315-1.364c.848-1.122,1.076-2.8.675-4.973-.605-3.287-2.134-4.558-3.906-6.031a14,14,0,0,1-4.679-6l.927-.375a12.984,12.984,0,0,0,4.392,5.607c1.841,1.531,3.579,2.977,4.25,6.619.455,2.476.161,4.419-.874,5.775A4.563,4.563,0,0,1,644.052,315.5Z" fill="#352b4c"/>
        <path id="Trazado_128274" data-name="Trazado 128274" d="M638.354,308.769a.556.556,0,0,1-.137-.017c-.563-.144-.935-.237,1.056-13.561.615-4.119-.157-7.311-2.3-9.489-4.307-4.382-12.806-3.319-12.893-3.308l-.13-.993c.368-.047,9.077-1.137,13.734,3.6,2.373,2.413,3.239,5.892,2.574,10.34-1.621,10.852-1.553,12.473-1.492,12.711a.434.434,0,0,0-.351-.276.428.428,0,0,0-.415.158l.97.275C638.8,308.676,638.538,308.769,638.354,308.769Z" fill="#352b4c"/>
        <path id="Trazado_128275" data-name="Trazado 128275" d="M618.786,283.116c-2.712-1.116-4.2-2.621-4.416-4.474-.441-3.747,4.567-7.4,4.781-7.555l.584.811c-.047.034-4.745,3.464-4.372,6.628.173,1.465,1.453,2.7,3.8,3.665Z" fill="#352b4c"/>
        <path id="Trazado_128276" data-name="Trazado 128276" d="M614.721,324.549s1.638,7.031,6.982,7.422c10.787.788,11.825-8.562,11.825-8.562,2.054.908,12.644-.572,16.894,7.431s7.224,54.217,17.324,83.649c1.171,3.41-68.773,2.975-73.873,2.975s1.3-65.021,2.577-73.1S594.745,327.678,614.721,324.549Z" fill="#2d3339"/>
        <path id="Trazado_128277" data-name="Trazado 128277" d="M622.925,311.088l-.715-.226c.023-.072.569-1.765,1.849-2.061a2.694,2.694,0,0,1,2.485,1.109l-.545.516c-.671-.708-1.263-1.015-1.77-.895C623.513,309.7,623.045,310.71,622.925,311.088Z" fill="#261e35"/>
        <path id="Trazado_128278" data-name="Trazado 128278" d="M623.477,317.023a6.951,6.951,0,0,1-4.276-1.391l.483-.573c.122.1,3.034,2.465,7.427.3l.33.674A8.918,8.918,0,0,1,623.477,317.023Z" fill="#e1916e"/>
        <path id="Trazado_128280" data-name="Trazado 128280" d="M606.045,356.336s-.173-7.538,20.227-6.338c10.349.609,30.274-.389,32.608,5.612s3,11.231-4,14.282-36.155-9.03-44.889-7.219C605.711,363.56,606.045,356.336,606.045,356.336Z" fill="#e59f80"/>
        <path id="Trazado_128281" data-name="Trazado 128281" d="M646.9,353.909s-4.337-15.1,2.253-16.912,11.763-3.1,10.726-.568,7.241,29.287-7.447,33.726C646.661,371.9,646.9,353.909,646.9,353.909Z" transform="translate(-42.72 94.366) rotate(-8)" fill="#e59f80"/>
        <path id="Trazado_128282" data-name="Trazado 128282" d="M641.743,349.221h20.316c-1.237-6.09-1.08-25.889-24.628-24.672C625.942,325.143,641.743,349.221,641.743,349.221Z" fill="#2d3339"/>
        <path id="Trazado_128283" data-name="Trazado 128283" d="M623.611,335.919a12.82,12.82,0,0,1-7.32-2.559l.634-.773c.318.26,7.86,6.27,14.69-1.929l.767.641C629.429,334.844,626.309,335.919,623.611,335.919Z" fill="#352b4c"/>
        <path id="Trazado_128284" data-name="Trazado 128284" d="M649.455,352.547c-1.841-.528-4.76-1.351-4.76-1.351l.2-.722s2.921.824,4.764,1.352Z" fill="#e1916e"/>
        <path id="Trazado_128285" data-name="Trazado 128285" d="M646.621,349.431l-.911-.414c.961-2.112-.474-7.212-1.109-9l.942-.334C645.643,339.961,647.945,346.521,646.621,349.431Z" fill="#352b4c"/>
        <path id="Trazado_128286" data-name="Trazado 128286" d="M620.9,411.765c-11.692,0-21.637-.647-21.786-.657l.066-1c.224.015,22.537,1.464,39.612,0,17.237-1.478,22.467.608,22.681.7l-.384.923c-.05-.022-5.308-2.075-22.212-.625C633.128,411.6,626.791,411.765,620.9,411.765Z" fill="#352b4c"/>
        <path id="Trazado_128279" data-name="Trazado 128279" d="M592.1,355.4c.743-1.867,10.266-22.462,11.067-29.9s6.11-15.811,6.721-14.155-.659,4.895-.659,4.895,1.948-1.85,4.434,1.106-1.212,10.794-1.137,13.979-.1,31.785-5.01,33.864S588.813,363.669,592.1,355.4Z" transform="matrix(0.174, 0.985, -0.985, 0.174, 848.322, -299.427)" fill="#eaac90"/>
      </g>
    </g>
    <path id="Trazado_128367" data-name="Trazado 128367" d="M104.286,13.6a1.268,1.268,0,0,0-.479-1.055,5.954,5.954,0,0,0-1.683-.782,16.147,16.147,0,0,1-1.969-.782q-2.487-1.222-2.487-3.357a3.011,3.011,0,0,1,.62-1.876,4.008,4.008,0,0,1,1.753-1.266,6.823,6.823,0,0,1,2.549-.453,5.969,5.969,0,0,1,2.474.492,3.917,3.917,0,0,1,1.7,1.4A3.661,3.661,0,0,1,107.371,8h-3.076a1.547,1.547,0,0,0-.479-1.213,1.867,1.867,0,0,0-1.3-.431,2.106,2.106,0,0,0-1.305.365,1.074,1.074,0,0,0,.048,1.819,6.65,6.65,0,0,0,1.854.826,11.36,11.36,0,0,1,2.18.918,3.663,3.663,0,0,1,2.074,3.3,3.125,3.125,0,0,1-1.266,2.637,5.629,5.629,0,0,1-3.472.958,6.888,6.888,0,0,1-2.817-.558,4.247,4.247,0,0,1-1.9-1.529,3.985,3.985,0,0,1-.637-2.237h3.094a1.963,1.963,0,0,0,.532,1.516,2.513,2.513,0,0,0,1.727.488,1.985,1.985,0,0,0,1.208-.33A1.088,1.088,0,0,0,104.286,13.6Zm9.132,3.577a4.889,4.889,0,0,1-3.542-1.305,4.507,4.507,0,0,1-1.354-3.4v-.246a5.84,5.84,0,0,1,.541-2.575,3.955,3.955,0,0,1,1.578-1.727,4.763,4.763,0,0,1,2.461-.611,4.117,4.117,0,0,1,3.164,1.244,4.887,4.887,0,0,1,1.16,3.467v1.151h-5.889a2.135,2.135,0,0,0,.694,1.257,2.066,2.066,0,0,0,1.389.457,2.662,2.662,0,0,0,2.2-.984l1.354,1.6a3.784,3.784,0,0,1-1.569,1.217A5.3,5.3,0,0,1,113.417,17.176ZM113.083,9.6q-1.3,0-1.547,1.723h2.988v-.229a1.467,1.467,0,0,0-.36-1.1A1.434,1.434,0,0,0,113.083,9.6Zm8.253-2.109.1,1.116a3.225,3.225,0,0,1,2.716-1.292,2.713,2.713,0,0,1,2.219.888,4.226,4.226,0,0,1,.76,2.672V17h-2.971V11a1.6,1.6,0,0,0-.29-1.059,1.342,1.342,0,0,0-1.055-.338,1.413,1.413,0,0,0-1.292.686V17h-2.962V7.49Zm4.913-3.92a2.562,2.562,0,0,1-.584,1.7,1.813,1.813,0,0,1-1.446.7,2.852,2.852,0,0,1-1.292-.369,2.7,2.7,0,0,0-1.151-.369.66.66,0,0,0-.479.193.8.8,0,0,0-.2.6l-1.644-.088a2.576,2.576,0,0,1,.584-1.687,1.793,1.793,0,0,1,1.437-.712,2.967,2.967,0,0,1,1.151.325,7.07,7.07,0,0,0,.9.369,1.74,1.74,0,0,0,.4.044.671.671,0,0,0,.483-.2.807.807,0,0,0,.2-.6ZM134.125,17a3.344,3.344,0,0,1-.281-.853,2.754,2.754,0,0,1-2.285,1.028,3.374,3.374,0,0,1-2.285-.813,2.588,2.588,0,0,1-.94-2.043,2.66,2.66,0,0,1,1.143-2.338,5.821,5.821,0,0,1,3.322-.791h.914v-.5q0-1.316-1.134-1.316a.927.927,0,0,0-1.055,1.042h-2.962a2.655,2.655,0,0,1,1.173-2.239,4.931,4.931,0,0,1,2.993-.86A4.323,4.323,0,0,1,135.6,8.2a3.086,3.086,0,0,1,1.081,2.435v4.21a4.311,4.311,0,0,0,.4,2V17Zm-1.854-1.934a1.652,1.652,0,0,0,.918-.237,1.487,1.487,0,0,0,.523-.536V12.772h-.861q-1.547,0-1.547,1.389a.848.848,0,0,0,.272.655A.986.986,0,0,0,132.27,15.066ZM141.446,17h-2.971V3.5h2.971Zm6.425.176a4.889,4.889,0,0,1-3.542-1.305,4.507,4.507,0,0,1-1.354-3.4v-.246a5.84,5.84,0,0,1,.541-2.575,3.955,3.955,0,0,1,1.578-1.727,4.763,4.763,0,0,1,2.461-.611,4.117,4.117,0,0,1,3.164,1.244,4.887,4.887,0,0,1,1.16,3.467v1.151H145.99a2.135,2.135,0,0,0,.694,1.257,2.066,2.066,0,0,0,1.389.457,2.662,2.662,0,0,0,2.2-.984l1.354,1.6a3.784,3.784,0,0,1-1.569,1.217A5.3,5.3,0,0,1,147.871,17.176ZM147.537,9.6q-1.3,0-1.547,1.723h2.988v-.229a1.467,1.467,0,0,0-.36-1.1A1.434,1.434,0,0,0,147.537,9.6Zm10.512,4.729a.684.684,0,0,0-.4-.606,6.016,6.016,0,0,0-1.5-.475,6.853,6.853,0,0,1-1.828-.646,3.062,3.062,0,0,1-1.1-.971,2.319,2.319,0,0,1-.378-1.31,2.628,2.628,0,0,1,1.081-2.158,4.453,4.453,0,0,1,2.83-.848,4.934,4.934,0,0,1,3.023.853,2.666,2.666,0,0,1,1.143,2.241h-2.971q0-1.143-1.2-1.143a1.194,1.194,0,0,0-.782.259.8.8,0,0,0-.316.646.737.737,0,0,0,.387.642,3.654,3.654,0,0,0,1.235.4,10.671,10.671,0,0,1,1.49.378A2.706,2.706,0,0,1,160.9,14.24a2.491,2.491,0,0,1-1.156,2.118,5.068,5.068,0,0,1-2.993.817,5.172,5.172,0,0,1-2.18-.439,3.645,3.645,0,0,1-1.494-1.2,2.707,2.707,0,0,1-.536-1.591h2.769a1.145,1.145,0,0,0,.439.962,1.808,1.808,0,0,0,1.081.3,1.422,1.422,0,0,0,.91-.246A.787.787,0,0,0,158.048,14.328Zm8.35-2.153a5.809,5.809,0,0,1,.976-3.56,3.211,3.211,0,0,1,2.725-1.3,2.731,2.731,0,0,1,2.145,1V3.5h2.971V17H172.55l-.149-1.02a2.8,2.8,0,0,1-2.32,1.2,3.205,3.205,0,0,1-2.689-1.3A5.993,5.993,0,0,1,166.4,12.175Zm2.962.185q0,2.531,1.477,2.531a1.458,1.458,0,0,0,1.406-.826V10.443a1.419,1.419,0,0,0-1.389-.844q-1.371,0-1.485,2.215ZM181.5,17.176a4.889,4.889,0,0,1-3.542-1.305,4.507,4.507,0,0,1-1.354-3.4v-.246a5.84,5.84,0,0,1,.541-2.575,3.955,3.955,0,0,1,1.578-1.727,4.763,4.763,0,0,1,2.461-.611,4.117,4.117,0,0,1,3.164,1.244,4.887,4.887,0,0,1,1.16,3.467v1.151h-5.889a2.135,2.135,0,0,0,.694,1.257,2.066,2.066,0,0,0,1.389.457,2.662,2.662,0,0,0,2.2-.984l1.354,1.6a3.784,3.784,0,0,1-1.569,1.217A5.3,5.3,0,0,1,181.5,17.176ZM181.164,9.6q-1.3,0-1.547,1.723H182.6v-.229a1.467,1.467,0,0,0-.36-1.1A1.434,1.434,0,0,0,181.164,9.6ZM196.536,17a3.344,3.344,0,0,1-.281-.853,2.754,2.754,0,0,1-2.285,1.028,3.374,3.374,0,0,1-2.285-.813,2.588,2.588,0,0,1-.94-2.043,2.66,2.66,0,0,1,1.143-2.338,5.821,5.821,0,0,1,3.322-.791h.914v-.5q0-1.316-1.134-1.316a.927.927,0,0,0-1.055,1.042h-2.962a2.655,2.655,0,0,1,1.173-2.239,4.931,4.931,0,0,1,2.993-.86,4.323,4.323,0,0,1,2.874.888,3.086,3.086,0,0,1,1.081,2.435v4.21a4.311,4.311,0,0,0,.4,2V17Zm-1.854-1.934a1.652,1.652,0,0,0,.918-.237,1.487,1.487,0,0,0,.523-.536V12.772h-.861q-1.547,0-1.547,1.389a.848.848,0,0,0,.272.655A.986.986,0,0,0,194.681,15.066ZM203.857,17h-2.971V3.5h2.971Zm7.181,0a3.344,3.344,0,0,1-.281-.853,2.754,2.754,0,0,1-2.285,1.028,3.374,3.374,0,0,1-2.285-.813,2.588,2.588,0,0,1-.94-2.043,2.66,2.66,0,0,1,1.143-2.338,5.821,5.821,0,0,1,3.322-.791h.914v-.5q0-1.316-1.134-1.316a.927.927,0,0,0-1.055,1.042h-2.962a2.655,2.655,0,0,1,1.173-2.239,4.931,4.931,0,0,1,2.993-.86,4.323,4.323,0,0,1,2.874.888,3.086,3.086,0,0,1,1.081,2.435v4.21a4.311,4.311,0,0,0,.4,2V17Zm-1.854-1.934a1.652,1.652,0,0,0,.918-.237,1.487,1.487,0,0,0,.523-.536V12.772h-.861q-1.547,0-1.547,1.389a.848.848,0,0,0,.272.655A.986.986,0,0,0,209.183,15.066Zm11.8-4.9-.976-.07a1.752,1.752,0,0,0-1.793.879V17h-2.962V7.49h2.777l.1,1.222a2.294,2.294,0,0,1,2.083-1.4,2.888,2.888,0,0,1,.826.105Zm3.867-2.681.1,1.116a3.27,3.27,0,0,1,2.716-1.292A2.407,2.407,0,0,1,230.1,8.747,3.165,3.165,0,0,1,232.9,7.314q2.892,0,2.971,3.5V17H232.9V11a1.813,1.813,0,0,0-.246-1.063,1.048,1.048,0,0,0-.9-.334,1.4,1.4,0,0,0-1.31.782l.009.123V17h-2.971V11.015a1.906,1.906,0,0,0-.237-1.081,1.045,1.045,0,0,0-.905-.334,1.42,1.42,0,0,0-1.3.782V17h-2.962V7.49ZM242.916,17a3.344,3.344,0,0,1-.281-.853,2.754,2.754,0,0,1-2.285,1.028,3.374,3.374,0,0,1-2.285-.813,2.588,2.588,0,0,1-.94-2.043,2.66,2.66,0,0,1,1.143-2.338,5.821,5.821,0,0,1,3.322-.791h.914v-.5q0-1.316-1.134-1.316a.927.927,0,0,0-1.055,1.042h-2.962a2.655,2.655,0,0,1,1.173-2.239,4.931,4.931,0,0,1,2.993-.86,4.323,4.323,0,0,1,2.874.888,3.086,3.086,0,0,1,1.081,2.435v4.21a4.311,4.311,0,0,0,.4,2V17Zm-1.854-1.934a1.652,1.652,0,0,0,.918-.237,1.487,1.487,0,0,0,.523-.536V12.772h-.861q-1.547,0-1.547,1.389a.848.848,0,0,0,.272.655A.986.986,0,0,0,241.061,15.066Z" transform="translate(333 -7488.137)" fill="#008bfd"/>
    <path id="Trazado_128368" data-name="Trazado 128368" d="M0,0H164" transform="translate(422.5 -7458.5)" fill="none" stroke="#008bfd" stroke-width="2"/>
  </g>
</svg>
