<svg xmlns="http://www.w3.org/2000/svg" width="85" height="85" viewBox="0 0 85 85">
  <g id="Grupo_135057" data-name="Grupo 135057" transform="translate(-1071.666 -1127)">
    <circle id="Elipse_4925" data-name="Elipse 4925" cx="42.5" cy="42.5" r="42.5" transform="translate(1071.666 1127)" fill="#133d60"/>
    <g id="A0tsRq" transform="translate(-1219.304 900.598)">
      <g id="Grupo_134956" data-name="Grupo 134956" transform="translate(2302.839 238.744)">
        <path id="Trazado_127940" data-name="Trazado 127940" d="M2337.706,298.259c0-1.554-.01-3.009,0-4.465a22.512,22.512,0,0,1,.334-5.305,11.26,11.26,0,0,1,2.231-4.587,19.043,19.043,0,0,0,3.383-5.472,1.615,1.615,0,0,0,.158-.509c.011-1.755.007-3.509.007-5.343-.492,0-.944,0-1.4,0-1.292-.008-1.738-.747-1.121-1.87,1.076-1.959,2.168-3.909,3.227-5.877a2.019,2.019,0,0,0,.241-1.01c-.046-.855-.184-1.7-.261-2.558-.047-.522-.245-.714-.819-.708-3.335.034-6.671.011-10.006.019a6.692,6.692,0,0,1-5.034-1.983,6.372,6.372,0,0,1-1.884-4.464c-.006-.283-.027-.5-.368-.57a4.866,4.866,0,0,1-3.75-5.03,2.612,2.612,0,0,0-.077-.414,37.072,37.072,0,0,0-3.713,1.875,17.01,17.01,0,0,0-8.109,14.762,33.613,33.613,0,0,1-.306,4.947,10.809,10.809,0,0,1-3.269,5.871c-.723.718-1.466,1.418-2.146,2.175a1.293,1.293,0,0,0-.3.935c.065.429.49.515.9.513,1-.006,2,0,3,0a1.859,1.859,0,0,1,2.138,2.111,33.094,33.094,0,0,0,.076,3.532,7.294,7.294,0,0,0,7.177,6.584,4.032,4.032,0,0,1,3.8,2.351,5.88,5.88,0,0,1,.423,1.964c.07.809.017,1.629.017,2.529h.687c1.478,0,2.956,0,4.434,0,.752,0,1.157.337,1.143.921-.013.557-.408.872-1.129.874-1.638.006-3.276.01-4.913,0a1.893,1.893,0,0,1-2.017-2.032c-.01-.719,0-1.438,0-2.157a2.36,2.36,0,0,0-2.547-2.651,9.084,9.084,0,0,1-8.434-6.259,13.754,13.754,0,0,1-.5-3.117c-.079-.912-.016-1.835-.016-2.851-.791,0-1.562.034-2.329-.01a7.269,7.269,0,0,1-2.283-.283,2.469,2.469,0,0,1-.827-3.991c.7-.769,1.445-1.492,2.193-2.213a10.14,10.14,0,0,0,3.251-7.826,24.352,24.352,0,0,1,.568-6.724,18.535,18.535,0,0,1,9.911-12.338c1.127-.575,2.379-.9,3.566-1.367a1.7,1.7,0,0,0,.671-.442,4.936,4.936,0,0,1,4.033-1.869,1.455,1.455,0,0,0,.841-.306,3.911,3.911,0,0,1,2.414-.917.832.832,0,0,0,.857-.548,5.677,5.677,0,0,1,4.18-3.271,6.036,6.036,0,0,1,6.256,2.2c.083.108.184.2.286.315a8.522,8.522,0,0,1,13.249,6.15,6.784,6.784,0,0,1,3.821.695,6.522,6.522,0,0,1,3.036,3.338.893.893,0,0,1-.381,1.184.905.905,0,0,1-1.218-.421,10.417,10.417,0,0,0-.808-1.323,4.66,4.66,0,0,0-4.619-1.63c-1.094.179-1.549-.176-1.618-1.31a6.662,6.662,0,0,0-10.379-5.237c-.355.23-.246.461-.2.76.05.343.227.387.527.408a4.838,4.838,0,0,1,.376,9.654c-.5.032-1,.041-1.5.041q-6.741.005-13.482,0h-.7a4.526,4.526,0,0,0,2.121,4.3,5.4,5.4,0,0,0,2.911.76q11.3,0,22.59,0a4.8,4.8,0,0,0,4.645-2.786c.317-.631.809-.839,1.3-.6s.606.774.293,1.4a6.5,6.5,0,0,1-6.232,3.777c-3.1.014-6.191,0-9.287,0h-.769l.256,1.627c.957.3,1.147.564,1.148,1.563q0,2.128,0,4.255v.712c.582,0,1.1-.012,1.611,0a1.048,1.048,0,0,1,.986,1.675c-1.444,2.644-2.906,5.279-4.365,7.915-.837,1.511-1.645,3.04-2.539,4.518a20.5,20.5,0,0,1-1.632,2.141,9.673,9.673,0,0,0-2.173,5.965c-.053,2.276-.017,4.555-.021,6.832,0,1.563-.711,2.277-2.263,2.278-1.718,0-3.436,0-5.153,0a.987.987,0,0,1-1.07-.592c-.242-.633.208-1.2.977-1.2,1.657-.014,3.316,0,4.973,0Zm-1.968-46.345h.6c2.615-.01,5.233.033,7.846-.05a2.958,2.958,0,0,0,2.671-3.6,3.045,3.045,0,0,0-3.59-2.388c-1.048.1-1.394-.179-1.488-1.2a4.412,4.412,0,0,0-8.551-1.268c-.392.947-.779,1.118-1.795,1.118a2.539,2.539,0,0,0-1.6.446,2.9,2.9,0,0,1-2.325.784,3.021,3.021,0,0,0-3.032,2.539,2.959,2.959,0,0,0,1.9,3.346,5.542,5.542,0,0,0,1.756.266C2330.666,251.929,2333.2,251.913,2335.738,251.913Zm9.885,22.912.113.022q1.124-2.037,2.246-4.076a.508.508,0,0,0,.02-.179.771.771,0,0,0-.168-.055c-1.995-.155-1.995-.154-1.995-2.192v-1.85c-.884,1.323-1.624,2.661-2.362,4a1.787,1.787,0,0,0-.087.285c.317,0,.589,0,.862,0,1.017.01,1.366.355,1.37,1.364C2345.625,273.038,2345.622,273.932,2345.622,274.825Z" transform="translate(-2302.839 -238.744)" fill="#fff"/>
        <path id="Trazado_127941" data-name="Trazado 127941" d="M2363.192,298.4c-.583,0-1.1.016-1.61,0a1.059,1.059,0,0,1-.993-1.684c1.451-2.661,2.923-5.311,4.385-7.966a1.035,1.035,0,0,1,1.234-.608,1.05,1.05,0,0,1,.791,1.18c-.011,1.715,0,3.429,0,5.234.573,0,1.106-.013,1.637,0a1.05,1.05,0,0,1,.979,1.68c-1.442,2.643-2.906,5.274-4.358,7.912a1.072,1.072,0,0,1-2.058-.549c-.007-1.5,0-2.995,0-4.492Zm1.8,2.2.139.025q.576-1.036,1.149-2.073c.39-.706.78-1.413,1.175-2.131a1.149,1.149,0,0,0-.19-.062c-2.066-.143-2.066-.143-2.066-2.259v-1.788l-.133-.008-2.368,4.305c.52,0,.9-.02,1.268,0a.977.977,0,0,1,1.005.973c.028.3.018.6.019.9C2364.991,299.194,2364.99,299.9,2364.99,300.605Z" transform="translate(-2332.952 -264.569)" fill="#fff"/>
        <path id="Trazado_127942" data-name="Trazado 127942" d="M2412.024,294.555c.615,0,1.132-.013,1.648,0,.994.031,1.458.769.99,1.631-1.458,2.681-2.942,5.348-4.415,8.02a1.029,1.029,0,0,1-1.243.583.991.991,0,0,1-.76-1.079c-.006-1.538,0-3.075,0-4.613v-.7c-.594,0-1.111.016-1.626,0-1.026-.038-1.478-.788-.991-1.682,1.441-2.645,2.9-5.277,4.354-7.917a1.07,1.07,0,0,1,1.265-.662,1.049,1.049,0,0,1,.786,1.183c-.009,1.5,0,3,0,4.493Zm-1.987,6.023.154.015,2.331-4.24c-.295,0-.472,0-.649,0-1.369-.009-1.646-.287-1.646-1.655q0-1.178,0-2.357l-.128-.028-2.353,4.263c.293.013.485.029.677.03,1.348.007,1.613.27,1.614,1.611Q2410.038,299.4,2410.036,300.578Z" transform="translate(-2356.513 -264.569)" fill="#fff"/>
      </g>
    </g>
  </g>
</svg>
