<svg xmlns="http://www.w3.org/2000/svg" width="85" height="85" viewBox="0 0 85 85">
  <g id="Grupo_135052" data-name="Grupo 135052" transform="translate(-231.666 -1349)">
    <circle id="Elipse_4927" data-name="Elipse 4927" cx="42.5" cy="42.5" r="42.5" transform="translate(231.666 1349)" fill="#133d60"/>
    <g id="Yf5mZm" transform="translate(-403.059 915.851)">
      <g id="Grupo_134962" data-name="Grupo 134962" transform="translate(651.725 450.149)">
        <path id="Trazado_127992" data-name="Trazado 127992" d="M660.622,450.149h1.213a4.229,4.229,0,0,1,3.058,2.472c.177.377.334.764.51,1.168.128-.074.244-.136.355-.206a21.639,21.639,0,0,1,7.4-2.975c.969-.192,1.954-.307,2.932-.458h3.033a2.678,2.678,0,0,0,.387.088,20.049,20.049,0,0,1,6.351,1.525c1.352.583,2.654,1.284,4,1.942a.361.361,0,0,0,.059-.107,4.609,4.609,0,0,1,3.461-3.448h1.213c.167.067.331.14.5.2a3.242,3.242,0,0,1,2.138,3.02,3.677,3.677,0,0,1-1.886,3.35c-.422.254-.882.445-1.32.662l1.852,2.418c.2-.14.367-.278.552-.39a18.439,18.439,0,0,1,2.087-1.218,3.546,3.546,0,0,1,4.969,3.321,3.7,3.7,0,0,1-4.26,3.257c-.326-.048-.651-.106-1.012-.165a2.127,2.127,0,0,0,.044.291,19.667,19.667,0,0,1,.785,8.182,5.557,5.557,0,0,0-.089.851c.058,1.255.156,2.508.209,3.763a3.16,3.16,0,0,1-.916,2.385.475.475,0,0,0-.086.616c.295.7.587,1.4.844,2.107,1.312,3.64,2.255,7.341,1.743,11.261a1.043,1.043,0,0,0,.317.932,9.254,9.254,0,0,1,2.411,5.649c.076.947-.231,1.272-1.162,1.272q-24.711,0-49.421.008a1.173,1.173,0,0,1-1.166-.615V500.3a.818.818,0,0,0,.073-.187,9.423,9.423,0,0,1,2.53-5.335.755.755,0,0,0,.139-.537,19.926,19.926,0,0,1,.154-5.734A36.325,36.325,0,0,1,657,480.812a.638.638,0,0,0-.113-.828,2.742,2.742,0,0,1-.815-1.908,14.7,14.7,0,0,1,.182-4.117,1.01,1.01,0,0,0-.017-.4,19.392,19.392,0,0,1,.409-7.562c.114-.448.241-.894.377-1.4-.194.033-.322.052-.448.077a4.246,4.246,0,0,1-2.624-.162,3.938,3.938,0,0,1-2.229-2.635v-1.112a4.024,4.024,0,0,1,1.08-1.9,3.72,3.72,0,0,1,4.141-.564c.835.424,1.613.96,2.428,1.452l1.781-2.329a14.851,14.851,0,0,1-1.822-1.1,3.5,3.5,0,0,1-1.292-3.513,3.149,3.149,0,0,1,2.418-2.57A.753.753,0,0,0,660.622,450.149Zm29.448,35.365a17.117,17.117,0,0,0,2.971-9.076c.039-2.72-.229-5.446-.419-8.166-.095-1.36-.657-1.827-2.043-1.933a30.347,30.347,0,0,1-6.3-1.126,14.712,14.712,0,0,1-5.87-3.03c-.269-.243-.5-.524-.767-.8a14.577,14.577,0,0,1-7.171,3.965,36.635,36.635,0,0,1-6.264,1.052,1.6,1.6,0,0,0-1.582,1.6c-.163,1.76-.264,3.527-.429,5.287a19,19,0,0,0,1.082,8.542,17.207,17.207,0,0,0,1.876,3.677,3.858,3.858,0,0,1,3.787-1.712c1.7.057,3.4.043,5.1,0a4.088,4.088,0,0,1,3.559,1.2,3.862,3.862,0,0,1,3.195-1.2c1.886.041,3.774.05,5.66,0A3.779,3.779,0,0,1,690.07,485.514Zm7.331-13.549a.656.656,0,0,0,.018-.136,18.256,18.256,0,0,0-1.143-7.383.944.944,0,0,0-.711-.681,1.76,1.76,0,0,1-1.056-2.908c-.577-.736-1.193-1.472-1.75-2.251a1.158,1.158,0,0,0-1.482-.469,1.651,1.651,0,0,1-2.13-2.169.541.541,0,0,0-.286-.724,20.531,20.531,0,0,0-22.384-.087.714.714,0,0,0-.378.959,1.653,1.653,0,0,1-1.973,2.094c-.247-.049-.486-.153-.734-.18a.623.623,0,0,0-.471.11c-.765.892-1.506,1.805-2.235,2.689a1.765,1.765,0,0,1-.991,2.923c-.049.012-.095.039-.144.047a.679.679,0,0,0-.567.56c-.32,1.183-.708,2.352-.961,3.548a14.666,14.666,0,0,0-.209,4.085l2.771-.385c.046-.628.089-1.28.144-1.932s.116-1.308.185-1.962a3.41,3.41,0,0,1,2.98-3.031c1.9-.276,3.811-.489,5.674-.916a12.58,12.58,0,0,0,6.815-3.593,1.709,1.709,0,0,1,2.495.034c.3.293.582.611.9.882a13.163,13.163,0,0,0,4.746,2.391,34.749,34.749,0,0,0,6.8,1.217,3.318,3.318,0,0,1,2.977,3.021c.118,1.19.193,2.383.313,3.573.015.146.171.382.288.4C695.72,471.807,696.546,471.877,697.4,471.965Zm-23.218,13.563c-.01.151-.02.233-.02.315,0,1.3.006,2.595-.005,3.892a.87.87,0,0,1-.883.956.852.852,0,0,1-.833-.944c-.01-.623,0-1.247,0-1.87v-2.311h-1.726c0,1.419.01,2.8,0,4.18a.868.868,0,0,1-.9.945.847.847,0,0,1-.82-.955c-.009-1.213,0-2.426,0-3.639v-.569h-.676a1.741,1.741,0,0,0-1.923,1.949c0,.741,0,1.483,0,2.224-.006.608-.331.982-.842.991-.531.01-.87-.376-.877-1.01-.006-.513,0-1.027,0-1.552-.21-.01-.343-.021-.476-.022-1-.007-1.246.24-1.246,1.255q0,1.794,0,3.589a2.6,2.6,0,0,0,2.886,2.915q5.156,0,10.312,0h.6v-.6q0-2.3,0-4.6c0-1.129.017-2.258-.007-3.387a1.688,1.688,0,0,0-1.8-1.755C674.7,485.525,674.464,485.528,674.183,485.528Zm10.318.041h-1.725c0,1.4,0,2.767,0,4.13,0,.614-.324.983-.837.992s-.878-.38-.882-1.009c-.008-1.1,0-2.19,0-3.285v-.827c-1.768-.265-2.644.566-2.6,2.219.069,2.475.018,4.953.018,7.43v.582a.949.949,0,0,0,.2.058c3.74,0,7.481.017,11.221-.013a2.459,2.459,0,0,0,2.362-2.34c.048-1.515.024-3.032.01-4.549a.8.8,0,0,0-.786-.829,8.628,8.628,0,0,0-.872-.006.509.509,0,0,0-.038.1c-.007.5-.008,1.01-.02,1.514a.872.872,0,0,1-.879.958.859.859,0,0,1-.839-.943c-.01-.724,0-1.449,0-2.173a1.881,1.881,0,0,0-2.6-1.963c0,.374,0,.758,0,1.143,0,1.028.009,2.055-.01,3.083a.82.82,0,0,1-.818.852.863.863,0,0,1-.885-.8,3.905,3.905,0,0,1-.013-.5C684.5,488.128,684.5,486.866,684.5,485.569Zm9.477,6.5a5.356,5.356,0,0,1-.819,3.764,4.39,4.39,0,0,1-3.431,1.774v2.544h11.934C701.394,496.773,697.441,493.479,693.978,492.073Zm-32.741-.16c-1.143.691-2.19,1.256-3.163,1.928a10.678,10.678,0,0,0-4.159,4.816c-.186.473-.287.979-.438,1.509H665.5v-2.554a4.422,4.422,0,0,1-3.41-1.728A5.589,5.589,0,0,1,661.237,491.913Zm2.336-5.529a1.214,1.214,0,0,0-.082-.207,18.811,18.811,0,0,1-2.2-4.688.567.567,0,0,0-.428-.275c-.621-.04-1.245-.048-1.867-.028a.529.529,0,0,0-.384.268,30.233,30.233,0,0,0-2.495,8.952c-.079.874-.012,1.76-.012,2.651a.509.509,0,0,0,.133-.036,23.69,23.69,0,0,1,4.717-2.8.644.644,0,0,0,.256-.462,13.037,13.037,0,0,1,.074-1.305A2.584,2.584,0,0,1,663.574,486.384Zm35.549,6.749c.281-4.326-1.078-8.17-2.6-11.931h-2.356l-2.425,5.2a2.542,2.542,0,0,1,2.212,2.122c.082.406.013.841.055,1.258a.58.58,0,0,0,.241.418A23.883,23.883,0,0,1,699.122,493.133Zm-22.41,4.493H667.3v2.529h9.413Zm11.209.005h-9.4v2.536h9.4Zm-27.6-24.209a10.371,10.371,0,0,0-1.209.08,1.608,1.608,0,0,0-1.32,1.518q-.042,1.438,0,2.878a1.62,1.62,0,0,0,1.409,1.549,12.489,12.489,0,0,0,1.458.011Zm34.244,6.053c.337,0,.771.012,1.2,0a1.674,1.674,0,0,0,1.669-1.674c.02-.891.017-1.783,0-2.674a1.612,1.612,0,0,0-1.179-1.583,8.638,8.638,0,0,0-1.36-.123C694.782,475.482,694.673,477.456,694.562,479.475Zm-30.213-22.908.194-.17c-.514-1.2-1-2.409-1.554-3.584a1.782,1.782,0,0,0-1.534-.932,1.548,1.548,0,0,0-1.744,1.682,1.873,1.873,0,0,0,1.19,1.735C662.036,455.756,663.2,456.148,664.348,456.567Zm31.485,5.338.055.171c.221.076.437.168.663.227.973.259,1.938.57,2.927.746a1.77,1.77,0,1,0-.378-3.216C697.97,460.45,696.919,461.208,695.833,461.906Zm-36.49.221.008-.182c-.568-.414-1.119-.852-1.708-1.234a10.466,10.466,0,0,0-1.711-.956,1.864,1.864,0,0,0-2.4,1.079,1.734,1.734,0,0,0,1.315,2.154,2.083,2.083,0,0,0,.99.044C657.013,462.758,658.175,462.432,659.343,462.126Zm31.372-5.718.155.1a13.362,13.362,0,0,0,3.788-1.422,1.916,1.916,0,0,0,.642-2.444,1.663,1.663,0,0,0-2.342-.507,2.018,2.018,0,0,0-.8.8C691.639,454.078,691.192,455.25,690.715,456.409Z" transform="translate(-651.725 -450.149)" fill="#fff"/>
        <path id="Trazado_127993" data-name="Trazado 127993" d="M749.11,524.21c.342.054.657.092.966.156a.851.851,0,0,1,.75,1.052.87.87,0,0,1-1.09.639,5.827,5.827,0,0,0-4.391.861,7.905,7.905,0,0,0-.7.571.886.886,0,0,1-1.264.1c-.372-.336-.365-.8.016-1.3a.966.966,0,0,0,.071-.127c-1.374-1.536-1.611-3.092-.7-4.545a3.472,3.472,0,0,1,3.874-1.472C748.305,520.622,749.075,521.874,749.11,524.21Zm-1.713-.723a1.686,1.686,0,0,0-1.34-1.668,1.707,1.707,0,0,0-1.906.89,1.73,1.73,0,0,0,.427,2.105.631.631,0,0,0,.809.114,4.127,4.127,0,0,1,1.226-.442C747.339,524.357,747.342,524.149,747.4,523.487Z" transform="translate(-712.9 -497.377)" fill="#fff"/>
        <path id="Trazado_127994" data-name="Trazado 127994" d="M701.721,526.24c.052.067.093.118.131.171a.871.871,0,0,1-.034,1.225.832.832,0,0,1-1.221-.049,5.129,5.129,0,0,0-2.882-1.448,11.9,11.9,0,0,0-2.207,0c-.6.042-1.029-.153-1.132-.65-.112-.536.186-.929.808-1.049.294-.057.591-.1.936-.151a3.587,3.587,0,0,1,.9-3.081,3.344,3.344,0,0,1,1.824-1.008,3.446,3.446,0,0,1,3.714,1.729A3.5,3.5,0,0,1,701.721,526.24Zm-3.911-2.671c-.006.65.13.808.731.981a8.165,8.165,0,0,1,1.319.479.6.6,0,0,0,.725-.1,1.724,1.724,0,0,0,.488-2.086,1.715,1.715,0,0,0-3.263.725Z" transform="translate(-680.542 -497.459)" fill="#fff"/>
        <path id="Trazado_127995" data-name="Trazado 127995" d="M700.34,509.469a.883.883,0,0,1,.9.838.857.857,0,0,1-.809.872,10.592,10.592,0,0,0-4.743,1.583.855.855,0,0,1-.984-1.4A11.636,11.636,0,0,1,700.34,509.469Z" transform="translate(-680.537 -490.249)" fill="#fff"/>
        <path id="Trazado_127996" data-name="Trazado 127996" d="M754.465,511.868a.894.894,0,0,1-1.343.911,28.3,28.3,0,0,0-2.71-1.2,11.2,11.2,0,0,0-1.976-.382.893.893,0,0,1-.853-.935.878.878,0,0,1,1-.779,11.46,11.46,0,0,1,5.4,1.808A2.18,2.18,0,0,1,754.465,511.868Z" transform="translate(-716.521 -490.257)" fill="#fff"/>
        <path id="Trazado_127997" data-name="Trazado 127997" d="M726.211,542.377c-.554,0-1.108.009-1.661,0a.86.86,0,1,1,.008-1.715q1.661-.02,3.323,0a.859.859,0,1,1-.008,1.714C727.319,542.386,726.765,542.377,726.211,542.377Z" transform="translate(-700.333 -511.326)" fill="#fff"/>
      </g>
    </g>
  </g>
</svg>
