<svg xmlns="http://www.w3.org/2000/svg" width="263.906" height="189.526" viewBox="0 0 263.906 189.526">
  <g id="Grupo_131321" data-name="Grupo 131321" transform="translate(-2664.876 -824.727)">
    <g id="Grupo_131322" data-name="Grupo 131322">
      <path id="Trazado_123876" data-name="Trazado 123876" d="M3084.252,890.143c-2.349-.8-5.822,1.655-6.656,4-4.735,13.3-10.93,51.631-9.912,79.159.817,22.081,13.319,62.561,31.585,70.132,17,7.045,34.98,6.5,43.763-3.152a131.339,131.339,0,0,0,17.494-24.822c8.865-16.572,14.245-34.826,17.513-53.273,1.531-8.633,11.73-57.114,4.432-58.963-2.186-.555-9.023.761-11.257.853a222.1,222.1,0,0,1-54.207-4.92A272.567,272.567,0,0,1,3084.252,890.143Z" transform="translate(-27.955 -625.209) rotate(11)" fill="#008bfd" opacity="0.16"/>
      <path id="Trazado_123877" data-name="Trazado 123877" d="M2825.01,842.245s41.474,17.976,100.588.747a5.469,5.469,0,0,1,7.026,5.054c.59,18.685,4.018,63.255-8.675,109.834a63.685,63.685,0,0,1-7.207,16.558c-4.454,7.257-12.583,22.8-26.436,26.774-18.976,5.444-36.827-1.021-44.74-12.572-23.61-34.469-26.653-79.567-26.672-115.191C2818.883,848.066,2819.483,841.435,2825.01,842.245Z" transform="translate(-274.628 983.479) rotate(-19)" fill="#133d60" opacity="0.256"/>
    </g>
    <path id="Trazado_123812" data-name="Trazado 123812" d="M2893.886,875.267a.282.282,0,0,0,0-.032c-2.822-12.362-7.148-13.463-11.811-18.212a11.705,11.705,0,0,1-2.951-6.883q-.566-3.852-.889-7.734a14.547,14.547,0,0,0-1.735-6.587c-3.906-6.381-12.067-7.456-18.8-5.789-4.649,1.15-8.485,3.724-10.589,8.072-2.457,5.079-2.237,10.788-.4,16.021,2.552,7.291-.368,15.706,3.628,22.65a.849.849,0,0,0,1.172.333c6.619,2.167,13.588,2.07,20.487,2.051,6.566-.019,15.922,1.22,21.542-2.831A.94.94,0,0,0,2893.886,875.267Z" transform="translate(-69.61 0)" fill="#522727"/>
    <path id="Trazado_123813" data-name="Trazado 123813" d="M2896.282,1150.682c6.192.647,21.926.124,28.886-.788a3.034,3.034,0,0,0,2.634-3.031c-.081-15.877-1.8-32.764-5.523-47.119a86.8,86.8,0,0,0-3.647-11.051c-.385-.944-1.756-2.885-1.756-3.919v-10.155l-23.037-4.189-5.862,51.285,3.942,12.695s.719,6.918,1.668,13.682A3.031,3.031,0,0,0,2896.282,1150.682Z" transform="translate(-94.462 -140.385)" fill="#5bd3a9"/>
    <path id="Trazado_123814" data-name="Trazado 123814" d="M2870.065,880.584s1.06,5.619.7,7.059c-.311,1.244-3.751,2.4-3.751,2.4l2.179,8.7,10.239,9.519,10-7.919-1.6-10.662-2.353-2.33a2.748,2.748,0,0,1-1.423-1.655,74.973,74.973,0,0,1-1.8-15.628c-.24-9.359-8.505-.922-8.505-.922Z" transform="translate(-82.257 -21.15)" fill="#faa985"/>
    <path id="Trazado_123815" data-name="Trazado 123815" d="M2766.38,977.43,2749.591,949a114.246,114.246,0,0,0-10.229,13.241,160.609,160.609,0,0,0-12.4,19.832c-3.4,6.732.9,15.151,5.578,17.55,5.953,3.052,12.3,1.15,16.638-2.2,6.389-4.933,10.527-9.775,17.2-16.8C2766.795,980.194,2765.96,977.862,2766.38,977.43Z" transform="translate(0 -69.683)" fill="#95c0d9"/>
    <path id="Trazado_123816" data-name="Trazado 123816" d="M2861.229,839.668a3.32,3.32,0,0,0-2.808.8c-1.485,1.33-3.58,3.687-4.085,5.479-1.35,4.8-.207,13.944.4,16.23s1.753,4.191,4.482,4.35c1.851.108,7.405,1.06,11.52-5.264s2.286-4.419,2.286-4.419l3.325-2.286a2.75,2.75,0,0,0,1.118-2.9l-1.711-7.237A3.468,3.468,0,0,0,2873,841.8Z" transform="translate(-74.507 -5.988)" fill="#faa985"/>
    <path id="Trazado_123817" data-name="Trazado 123817" d="M2874.559,840.02a14.317,14.317,0,0,0-6.938-4.256,15.668,15.668,0,0,0-17.022,5.007.952.952,0,0,0-.039,1.166c-.471.877.7,1.963,1.412,1.118a11.822,11.822,0,0,1,4.512-3.413,11.09,11.09,0,0,1,2.467-.732c1.569-.263,1.484.307,1.957,1.628a21.96,21.96,0,0,0,4.588,7.255c1.521,1.67,3.822,4.369,6.331,4.223,1.1-.064,3.563.294,4.314-.426a4.137,4.137,0,0,0,1.135-2.8A14.059,14.059,0,0,0,2874.559,840.02Z" transform="translate(-72.57 -3.302)" fill="#522727"/>
    <path id="Trazado_123818" data-name="Trazado 123818" d="M2850.529,1083.444c-5.279,1.27-34.436,0-34.436,0s-.12,6.3,0,8.717c0,0-5.415,8.548-9.4,33.005a152.711,152.711,0,0,0-4.47,30.812,2.133,2.133,0,0,0,1.958,2.221c7.218.589,24.973,1.21,32.221-.3a2.593,2.593,0,0,0,2-1.986c2.643-11.953,2.389-23.682,3.25-24.228,1.2-.761,6.6-4.951,6.6-4.951l.6-13.837S2855.808,1082.174,2850.529,1083.444Z" transform="translate(-44.529 -147.941)" fill="#5bd3a9"/>
    <path id="Trazado_123819" data-name="Trazado 123819" d="M2963.562,949s23.908,21.086,26.255,28.666c1.363,4.4,11.479,16.678,11.479,16.678s-4.56,7.079-12,10.319c-10.356,4.51-19.983-4.677-27.249-10.636-3-2.463-5.458-5.4-8.3-8.011-.544-.5-3.338-2.54-3.4-3.31l-1.8-29.277Z" transform="translate(-129.728 -69.683)" fill="#95c0d9"/>
    <path id="Trazado_123820" data-name="Trazado 123820" d="M2882.2,900.983c-2.463,3.066-11.032,2.774-12.9,2.469a.386.386,0,0,0-.443.448,22.158,22.158,0,0,1,.354,3.174c-.007.668.227,1.818-.575,2.3a27.731,27.731,0,0,1-3.321,1.335l3.69,11.249,9.419,8.459,8.129-6.24,3.03-3.75-1.62-10.619-3.393-1.491c-.6-.285-.494-1.036-.914-1.566-.728-.92-.88-3.707-1.094-5.5C2882.493,900.669,2882.139,901.055,2882.2,900.983Z" transform="translate(-81.267 -41.687)" fill="#0b0808"/>
    <path id="Trazado_123821" data-name="Trazado 123821" d="M2826.316,991.77c-.709.3-1.436.542-2.135.819-10.624,4.2-21.076,3.5-27.633-2.093-2.343-2-2.439-7.684-3.109-8.833-3.724-6.391-7.162-17.195-7.718-22.047l-2.6-8.207s-11.787-13.212-11.077-14.308a35.5,35.5,0,0,1,9.135-9.507c4.965-3.5,12.315-4.1,18.283-5.108q4.171-.7,8.349-1.373c.289-.047,3.753-.823,3.887-.622l4.449,6.685c1.309,1.967,1.178,2.964,3.329,4.108a47.326,47.326,0,0,0,4.74,1.5s5.761.641,7.739-12.272c0-.014,13.8,2.457,21.032,5.979,4.406,2.146,6.507,3.39,14.894,11.256,3.349,3.141-12.415,2.807-13.361,7.157l-.365,1.676c-.276,1.268.777,3.529.994,4.8a40.4,40.4,0,0,1,.568,5.8c.15,5.856-2.544,14.317-3.124,20.1-.45,4.487.906,8.3-2.279,12.03-2.88,3.373-8.519,3.26-8.519,3.26Z" transform="translate(-26.94 -53.061)" fill="#95c0d9"/>
    <path id="Trazado_123822" data-name="Trazado 123822" d="M2890.443,925.442a2.4,2.4,0,0,0-.178-.5,73.182,73.182,0,0,0-3.779-6.593c-.738-1.22-1.495-2.425-2.294-3.6a6.367,6.367,0,0,0-2.777-2.163c-.4-.172-1.132-.611-1.489-.256-.268.267-.126.878-.055,1.2.528,2.351.027,4.888-.21,7.286s-1.584,5.317-3.77,6.331c-1.14.529-6.474-4.653-7.208-6.53-.427-1.092-.912-2.161-1.307-3.265a22.116,22.116,0,0,1-.727-2.756,3.8,3.8,0,0,0-.432-1.534c-.877-1.048-4.157,2.38-4.449,3.167a26.856,26.856,0,0,0-.826,2.672,32.468,32.468,0,0,0-.984,9.242.564.564,0,0,0,.739.51l5.287-1.732a7.229,7.229,0,0,1,3.819.347l5.6,2.4.936.24c.374.174.514-1.067.637-1.12a31.728,31.728,0,0,1,4.9-2.112,16.751,16.751,0,0,1,5.533-.358,10.313,10.313,0,0,0,2.354.074.956.956,0,0,0,.515-.192A.742.742,0,0,0,2890.443,925.442Z" transform="translate(-78.134 -48.247)" fill="#f2ecdb"/>
    <path id="Trazado_123823" data-name="Trazado 123823" d="M2894.863,845.4c-.177-.251-.593-.011-.415.242a14.926,14.926,0,0,1,2.759,8.588.24.24,0,0,0,.48,0A15.38,15.38,0,0,0,2894.863,845.4Z" transform="translate(-98.205 -9.295)" fill="#140508"/>
    <g id="Grupo_131301" data-name="Grupo 131301" transform="translate(2799.433 867.68)">
      <path id="Trazado_123824" data-name="Trazado 123824" d="M2902.354,933.827a.209.209,0,0,1-.1-.392,19.223,19.223,0,0,1,4.993-1.945,39.462,39.462,0,0,1,4.323-.064,20.762,20.762,0,0,0,2.7-.032.749.749,0,0,0,.476-.43c.241-.624-.314-1.7-.612-2.271l-.056-.109a38.216,38.216,0,0,0-4.349-7.105.209.209,0,0,1,.321-.268,38.55,38.55,0,0,1,4.4,7.182l.056.108c.352.679.939,1.815.631,2.614a1.158,1.158,0,0,1-.719.672,15.237,15.237,0,0,1-2.852.058,39.473,39.473,0,0,0-4.265.06,19.279,19.279,0,0,0-4.844,1.9A.2.2,0,0,1,2902.354,933.827Z" transform="translate(-2902.145 -921.135)" fill="#0b0808"/>
    </g>
    <path id="Trazado_123825" data-name="Trazado 123825" d="M3043.4,991.844c-.925-.476-1.6-1.121-3.265-.561-1.184.4-7.229,6.081-8.256,7.519s-.61,1.886-.61,1.886l-8.349,7.872-.974,21.153s10.853,5.083,24.491-10.595l.636-.084a1.576,1.576,0,0,0,2.086.138c3.177-2.509,4.693-5.369,7.561-8.868,1.226-1.495.417-3.43-.349-4.9a32.6,32.6,0,0,0-10.059-11.6A24.476,24.476,0,0,0,3043.4,991.844Z" transform="translate(-172.468 -94.174)" fill="#95c0d9"/>
    <path id="Trazado_123826" data-name="Trazado 123826" d="M2897.993,871.649s-2.56,9.525,10.5,17.984l5.383,1.853-6.523-17.191-6-4.88Z" transform="translate(-100.176 -23.34)" fill="#522727"/>
    <path id="Trazado_123827" data-name="Trazado 123827" d="M2897.506,866.14c-1.08-.163-2.094.817-2.6,1.842-.648,1.327-.872,3.631.171,4.792,1.545,1.72,3.03-.891,3.542-2.343S2899.38,866.422,2897.506,866.14Z" transform="translate(-98.18 -21.423)" fill="#faa985"/>
    <g id="Grupo_131302" data-name="Grupo 131302" transform="translate(2781.473 867.227)">
      <path id="Trazado_123828" data-name="Trazado 123828" d="M2860.056,933.551a.757.757,0,0,1-.586-.188c-.423-.484-.329-1.508-.26-2.255.014-.155.027-.292.032-.4a31.852,31.852,0,0,1,.324-3.437,54.339,54.339,0,0,1,1.628-6.642l.123-.424a.207.207,0,0,1,.259-.142.209.209,0,0,1,.143.259l-.123.423a54.08,54.08,0,0,0-1.617,6.591,31.574,31.574,0,0,0-.32,3.392c0,.116-.018.26-.033.421-.054.6-.145,1.593.16,1.943.24.278,2.209-.341,4.3-1.346a8.7,8.7,0,0,1,3.053-.582c1.687.335,6.513,1.612,6.561,1.624a.209.209,0,0,1-.107.4c-.048-.013-4.862-1.285-6.536-1.618a8.136,8.136,0,0,0-2.811.557A13.542,13.542,0,0,1,2860.056,933.551Z" transform="translate(-2859.15 -920.05)" fill="#0b0808"/>
    </g>
    <path id="Trazado_123829" data-name="Trazado 123829" d="M3079.777,970.9a28.539,28.539,0,0,0,4.19-4.4c-.058-.118-1.245-1.775-1.344-1.863.113-2.48-.554-1.816-2.441-3.513-1.084-.975-2.354-1.762-3.356-2.827-1.527-1.622-1.511-3.414-1.134-5.5.331-1.828,1.105-5.627-1.03-6.866-1.872-1.087-2.746,1.665-3.083,3.191a19.611,19.611,0,0,0-.684,11.5,2.985,2.985,0,0,1-.34,2.225,69.8,69.8,0,0,1-4.877,6.65c-.888,1.08.38,3.769.937,4.72,1.447,2.473,3.588,5.017,6.479,5.635a.689.689,0,0,0,.716-.311C3076.155,975.921,3079.33,971.238,3079.777,970.9Z" transform="translate(-197.755 -67.752)" fill="#faa985"/>
    <path id="Trazado_123830" data-name="Trazado 123830" d="M3067.949,996.341a.235.235,0,0,0-.423-.088c-.664.934-1.343,2.021-1.848,2.634-.888,1.08.38,3.769.937,4.72,1.449,2.476,3.594,5.024,6.491,5.637a.671.671,0,0,0,.7-.3c.727-1.127,1.936-2.511,2.832-3.725a.4.4,0,0,0-.276-.626C3072.4,1004.124,3068.734,1000.421,3067.949,996.341Z" transform="translate(-197.755 -97.136)" fill="#0b0808"/>
    <path id="Trazado_123831" data-name="Trazado 123831" d="M2813.79,915.923s-1.5,2.13,3.912,8.38c.968,1.117.456,2.087-.385,3.125a20.988,20.988,0,0,1-2.616,2.594,50.3,50.3,0,0,1-4.027,3.152l6.72,8.7c1.7-1.384,3.336-2.869,4.914-4.394,2.687-2.595,6.43-5.105,7.921-8.591,2.824-6.6,1.5-13.619.72-20.465l-.049-.435a1.952,1.952,0,0,0-1.6-1.736.923.923,0,0,0-1.135.65,41.532,41.532,0,0,0-.865,5.938Z" transform="translate(-49.452 -44.778)" fill="#faa985"/>
    <path id="Trazado_123832" data-name="Trazado 123832" d="M2815.42,958.236a.447.447,0,0,0-.565.089c-.558.625-5.595,4.447-6.988,5.426l7.893,8.365c1.7-1.384,3.5-2.671,5.084-4.2q.267-.258.548-.515a.669.669,0,0,0,.168-.754C2820.188,963.445,2818.253,959.978,2815.42,958.236Z" transform="translate(-47.816 -75.021)" fill="#0b0808"/>
    <path id="Trazado_123833" data-name="Trazado 123833" d="M2766.093,963.308c-1.35-.5-10.918,7.319-10.918,7.319l-14.639,8.159s-7.981,14.858-9.719,24.386c1.813,3.166,3.315,5.234,8.441,7.018a8.133,8.133,0,0,0,5.6-.061c10.667-4.127,21.355-15.653,21.355-15.653a1.977,1.977,0,0,0,1.8.12c1.173-.377,7.2-6.642,8.156-8.082S2773.533,966.068,2766.093,963.308Z" transform="translate(-2.953 -77.998)" fill="#95c0d9"/>
    <path id="Trazado_123834" data-name="Trazado 123834" d="M2820.18,842.194s8.723,3.781,21.156.157a1.15,1.15,0,0,1,1.478,1.063c.124,3.93.845,13.3-1.824,23.1a13.4,13.4,0,0,1-1.516,3.483c-.937,1.526-2.646,4.8-5.56,5.631-3.991,1.145-7.746-.215-9.41-2.644-4.966-7.25-5.606-16.735-5.61-24.228C2818.891,843.418,2819.018,842.024,2820.18,842.194Z" transform="translate(-54.237 -7.482)" fill="#133d60"/>
    <path id="Trazado_123835" data-name="Trazado 123835" d="M3071.337,890.023a1.45,1.45,0,0,0-1.5.9c-1.069,3-2.467,11.652-2.237,17.864.184,4.983,3.006,14.119,7.128,15.827,3.836,1.59,7.894,1.467,9.876-.711a29.636,29.636,0,0,0,3.948-5.6,40.327,40.327,0,0,0,3.952-12.023c.345-1.948,2.647-12.889,1-13.307a14.952,14.952,0,0,0-2.54.193,50.123,50.123,0,0,1-12.233-1.11A61.511,61.511,0,0,1,3071.337,890.023Z" transform="translate(-199.037 -35.319)" fill="#008bfd"/>
    <g id="Grupo_131303" data-name="Grupo 131303" transform="translate(2778.507 836.268)">
      <path id="Trazado_123836" data-name="Trazado 123836" d="M2852.26,877.276a.209.209,0,0,1-.075-.4c10.86-4.169,8.513-30.441,8.488-30.706a.209.209,0,0,1,.188-.227.214.214,0,0,1,.228.188c.1,1.094,2.4,26.852-8.754,31.135A.214.214,0,0,1,2852.26,877.276Z" transform="translate(-2852.051 -845.938)" fill="#0b0808"/>
    </g>
    <g id="Grupo_131304" data-name="Grupo 131304" transform="translate(2870.509 856.746)">
      <path id="Trazado_123837" data-name="Trazado 123837" d="M3079.107,927.01a.214.214,0,0,1-.1-.024c-3.856-2.031-5.381-6.755-5.858-8.692-.963-3.909-1.109-8.413-.46-14.171a47.814,47.814,0,0,1,1.567-9.02.209.209,0,1,1,.4.13,47.5,47.5,0,0,0-1.548,8.936c-.644,5.708-.5,10.164.45,14.025.463,1.881,1.941,6.469,5.648,8.421a.209.209,0,0,1-.1.394Z" transform="translate(-3072.295 -894.959)" fill="#0b0808"/>
    </g>
    <path id="Trazado_123838" data-name="Trazado 123838" d="M2821.893,907.987a.679.679,0,0,0,.482-.454,1.906,1.906,0,0,1,1.437-1.292c.929-.232,6.8-.058,7.719,4.32s.288,3.9.288,3.9v1.194a1.6,1.6,0,0,1-.684,1.313l-.469.328s.346,2.419-1.613,1.9a2.03,2.03,0,0,1-2.209.649c-1.535-.361-3.263-2.2-3.608-2.55s-2.132.576-2.132.576-3.277.727-3.553-.266c-.349-1.26-.476-2.386.7-3.264.395-.293.229-.7.153-1.1a2.3,2.3,0,0,1,.133-1.485c.533-1,1.515-.761,1.464-1.265A2.048,2.048,0,0,1,2821.893,907.987Z" transform="translate(-53.314 -44.745)" fill="#faa985"/>
    <path id="Trazado_123839" data-name="Trazado 123839" d="M3092.072,975.377c.018.02.039.037.059.056a25.781,25.781,0,0,0,6.333-7.985c1.176-2.576-.752-8.777-1.362-9.962-.983-1.91-2.647-3.931-5.018-3.772-2.9.2-5.958,4.025-5.111,6.855a.927.927,0,0,0,.28.438,6.406,6.406,0,0,0-.891,4.352.849.849,0,0,0,.215.451,3.35,3.35,0,0,0,1.642,3.864,5.085,5.085,0,0,0,.3,2.384,7.434,7.434,0,0,0,3.248,3.2A.938.938,0,0,0,3092.072,975.377Z" transform="translate(-209.933 -72.42)" fill="#faa985"/>
    <g id="Grupo_131305" data-name="Grupo 131305" transform="translate(2779.221 847.7)">
      <path id="Trazado_123840" data-name="Trazado 123840" d="M2854.178,875.337a.418.418,0,0,1-.3-.7,3.989,3.989,0,0,1,5.179-.625.418.418,0,0,1-.471.69,3.18,3.18,0,0,0-4.1.507A.418.418,0,0,1,2854.178,875.337Z" transform="translate(-2853.76 -873.304)" fill="#fff"/>
    </g>
    <g id="Grupo_131306" data-name="Grupo 131306" transform="translate(2766.572 847.782)">
      <path id="Trazado_123841" data-name="Trazado 123841" d="M2828.248,875.451a.42.42,0,0,1-.291-.117,3.01,3.01,0,0,0-3.826-.556.418.418,0,0,1-.473-.689,3.881,3.881,0,0,1,4.881.644.418.418,0,0,1-.29.718Z" transform="translate(-2823.478 -873.501)" fill="#fff"/>
    </g>
    <path id="Trazado_123842" data-name="Trazado 123842" d="M2836.039,885.418c-.093,1.569,1.566,2.74,3.1,2.982a4.125,4.125,0,0,0,4.285-2.174c.531-1.084.221-1.66-.411-1.34a8.361,8.361,0,0,1-3.489.968,4.305,4.305,0,0,1-2.067-.392c-.3-.151-.988-.668-1.308-.321A.431.431,0,0,0,2836.039,885.418Z" transform="translate(-64.218 -32.297)" fill="#fff"/>
    <g id="Grupo_131309" data-name="Grupo 131309" transform="translate(2874.849 868.335)">
      <path id="Trazado_123845" data-name="Trazado 123845" d="M3087.542,925.457c-3.556,0-4.754-2.045-4.8-2.132a.418.418,0,0,1,.726-.414c.045.077,1.043,1.71,4.078,1.71a.418.418,0,0,1,0,.835Z" transform="translate(-3082.684 -922.702)" fill="#0b0808"/>
    </g>
    <g id="Grupo_131310" data-name="Grupo 131310" transform="translate(2886.368 871.478)">
      <path id="Trazado_123846" data-name="Trazado 123846" d="M3113.093,931.453a8.921,8.921,0,0,1-2.548-.41.418.418,0,0,1,.265-.792c.024.008,2.463.807,3.931.027a.418.418,0,0,1,.391.738A4.377,4.377,0,0,1,3113.093,931.453Z" transform="translate(-3110.26 -930.228)" fill="#0b0808"/>
    </g>
    <g id="Grupo_131311" data-name="Grupo 131311" transform="translate(2879.637 874.241)">
      <path id="Trazado_123847" data-name="Trazado 123847" d="M3099.921,939.435a.208.208,0,0,1-.2-.155,2.658,2.658,0,0,0-1.975-1.922,3.369,3.369,0,0,0-3.236.929.209.209,0,0,1-.3-.286,3.8,3.8,0,0,1,3.643-1.048,3.063,3.063,0,0,1,2.276,2.219.208.208,0,0,1-.147.255A.2.2,0,0,1,3099.921,939.435Z" transform="translate(-3094.148 -936.841)" fill="#0b0808"/>
    </g>
    <g id="Grupo_131312" data-name="Grupo 131312" transform="translate(2877.112 864.074)">
      <path id="Trazado_123848" data-name="Trazado 123848" d="M3089.03,913.533a6.17,6.17,0,0,1-.746-.044.209.209,0,0,1,.052-.414,4.916,4.916,0,0,0,3.029-.54.209.209,0,0,1,.222.354A4.908,4.908,0,0,1,3089.03,913.533Z" transform="translate(-3088.102 -912.503)" fill="#0b0808"/>
    </g>
    <g id="Grupo_131313" data-name="Grupo 131313" transform="translate(2887.514 865.566)">
      <path id="Trazado_123849" data-name="Trazado 123849" d="M3115.036,918.169a.21.21,0,0,1-.089-.02,3.272,3.272,0,0,1-1.933-1.807.209.209,0,0,1,.4-.122,2.9,2.9,0,0,0,1.71,1.55.209.209,0,0,1-.088.4Z" transform="translate(-3113.005 -916.073)" fill="#0b0808"/>
    </g>
    <g id="Grupo_131314" data-name="Grupo 131314" transform="translate(2798.202 879.495)">
      <path id="Trazado_123850" data-name="Trazado 123850" d="M2900.638,1008.093a.2.2,0,0,1-.047-.005.208.208,0,0,1-.157-.25c.35-1.54.968-4.547,1.167-5.958,3.892-27.443,2.423-34.842-2.4-52.2a.209.209,0,0,1,.4-.112c4.836,17.417,6.31,24.841,2.408,52.367-.2,1.422-.823,4.445-1.175,5.992A.209.209,0,0,1,2900.638,1008.093Z" transform="translate(-2899.198 -949.419)" fill="#0b0808"/>
    </g>
    <g id="Grupo_131315" data-name="Grupo 131315" transform="translate(2823.044 886.902)">
      <path id="Trazado_123851" data-name="Trazado 123851" d="M2962.877,999.011l-.025,0a.208.208,0,0,1-.183-.232c1.333-11.312,1.132-20.5-3.981-31.33a.209.209,0,1,1,.377-.179c5.157,10.921,5.36,20.172,4.018,31.557A.209.209,0,0,1,2962.877,999.011Z" transform="translate(-2958.669 -967.15)" fill="#0b0808"/>
    </g>
    <path id="Trazado_123852" data-name="Trazado 123852" d="M2822.124,994.134a56.1,56.1,0,0,0-2.106-7.954c-.1-.29-.564-.165-.463.128a55.064,55.064,0,0,1,1.7,5.991q.341,1.521.6,3.059a10.808,10.808,0,0,1,.352,3.644,6.125,6.125,0,0,1-1.875,2.813c-.7.766-1.409,1.531-2.127,2.283s-1.448,1.493-2.2,2.212a8.6,8.6,0,0,1-1.328,1.191,2.189,2.189,0,0,1-2.233-.076.189.189,0,0,0-.267.124,13.031,13.031,0,0,1-1.72,1.753c-.237.2.1.537.34.339a13,13,0,0,0,1.667-1.694,2.6,2.6,0,0,0,2.144.151,10.267,10.267,0,0,0,2.534-2.226c.948-.943,1.865-1.916,2.773-2.9a18.566,18.566,0,0,0,2.279-2.644C2823.307,998.547,2822.484,996.044,2822.124,994.134Z" transform="translate(-49.281 -91.233)" fill="#0b0808"/>
    <path id="Trazado_123853" data-name="Trazado 123853" d="M2801.7,1004.5a84.187,84.187,0,0,0-3.727-12.435c-1.292-3.335-2.624-6.994-5.334-9.454-.229-.207-.569.131-.339.339,2.843,2.581,4.217,6.575,5.53,10.08a84.422,84.422,0,0,1,3.407,11.6C2801.3,1004.932,2801.766,1004.8,2801.7,1004.5Z" transform="translate(-38.708 -89.215)" fill="#0b0808"/>
    <path id="Trazado_123854" data-name="Trazado 123854" d="M3066.157,1003.423a8.875,8.875,0,0,1-.276-5.284.24.24,0,0,0-.463-.128,9.348,9.348,0,0,0,.276,5.54C3065.8,1003.839,3066.263,1003.715,3066.157,1003.423Z" transform="translate(-197.611 -98.119)" fill="#0b0808"/>
    <path id="Trazado_123855" data-name="Trazado 123855" d="M3091.262,1028.294a7.788,7.788,0,0,1-5.553-1.265c-.258-.172-.5.244-.242.414a8.289,8.289,0,0,0,5.924,1.313C3091.694,1028.712,3091.565,1028.25,3091.262,1028.294Z" transform="translate(-209.392 -115.091)" fill="#0b0808"/>
    <path id="Trazado_123856" data-name="Trazado 123856" d="M3057.7,1032.835a20.878,20.878,0,0,1-13.019-16.676c-.038-.3-.518-.306-.48,0a21.382,21.382,0,0,0,13.372,17.139C3057.864,1033.409,3057.989,1032.945,3057.7,1032.835Z" transform="translate(-185.428 -108.652)" fill="#0b0808"/>
    <path id="Trazado_123857" data-name="Trazado 123857" d="M3034.574,1014.727c-1.889,1.887-4.073,3.7-5.477,5.993-.161.264.253.505.415.242,1.377-2.251,3.547-4.043,5.4-5.9A.24.24,0,0,0,3034.574,1014.727Z" transform="translate(-176.612 -107.91)" fill="#0b0808"/>
    <path id="Trazado_123858" data-name="Trazado 123858" d="M2780.78,963.225c-1.371-2-4.413.44-5.718,1.354-2.206,1.546-4.969,3.058-6.486,5.351a.2.2,0,0,0-.007.225A63.654,63.654,0,0,0,2753.5,979.3c-.24.2.1.533.339.339a63.242,63.242,0,0,1,14.99-9.083.2.2,0,0,0,.079-.312.249.249,0,0,0,.081-.076c1.213-1.834,3.277-3,5.029-4.26,1.136-.816,5.113-4.24,6.345-2.445C2780.539,963.72,2780.955,963.48,2780.78,963.225Z" transform="translate(-16.114 -77.517)" fill="#0b0808"/>
    <path id="Trazado_123859" data-name="Trazado 123859" d="M2900.521,1015.5c-5.175,9.568-13.136,17.128-20.968,24.508-.223.211.078.584.3.372,7.9-7.443,15.894-15.059,21.112-24.705C2901.116,1015.407,2900.667,1015.236,2900.521,1015.5Z" transform="translate(-89.512 -108.325)" fill="#0b0808"/>
    <path id="Trazado_123860" data-name="Trazado 123860" d="M2913.2,1081.063a17.8,17.8,0,0,1-5.466,3.193c-.288.105-.163.569.127.463a18.529,18.529,0,0,0,5.678-3.316C2913.779,1081.2,2913.438,1080.864,2913.2,1081.063Z" transform="translate(-105.874 -146.542)" fill="#0b0808"/>
    <path id="Trazado_123861" data-name="Trazado 123861" d="M3098.021,963.549a5.752,5.752,0,0,0-4.558-1.562c-1.83.3-3.187,2-4.376,3.287-.21.227.129.567.339.34a11.347,11.347,0,0,1,3.3-2.9c1.757-.767,3.58.04,4.957,1.177C3097.918,964.083,3098.259,963.746,3098.021,963.549Z" transform="translate(-211.525 -77.208)" fill="#bf5b46"/>
    <path id="Trazado_123862" data-name="Trazado 123862" d="M3091.166,974.089c1.4-1.209,3.881-3.067,5.771-1.886.263.164.5-.251.242-.415-2.161-1.35-4.9.675-6.493,2.082a7.312,7.312,0,0,0-1.721,1.97.248.248,0,0,0-.077-.041,2.627,2.627,0,0,1-1.708-2.683.24.24,0,0,0-.48,0,3.112,3.112,0,0,0,2.061,3.145.23.23,0,0,0,.052,0,1.559,1.559,0,0,0-.05.267c-.057.988,1.073,1.909,1.759,2.446a.25.25,0,0,0,.06.03,4.592,4.592,0,0,0,.742,3.317.215.215,0,0,0,.149.114,1.093,1.093,0,0,0,1.715.4,3.121,3.121,0,0,0,1.159-2.6c.013-.309-.467-.308-.48,0a3.137,3.137,0,0,1-.5,1.758,1.7,1.7,0,0,1-.622.543c-.53.254-.852-.205-1.017-.645a.236.236,0,0,0-.173-.151c-.785-1.574-.888-3.135.852-4.165a6.744,6.744,0,0,1,4.428-.852c.3.051.432-.411.128-.463a7.024,7.024,0,0,0-5.433,1.335,2.942,2.942,0,0,0-.778.959c-.752-.591-1.687-1.373-1.362-2.425A5.739,5.739,0,0,1,3091.166,974.089Z" transform="translate(-210.173 -82.691)" fill="#bf5b46"/>
    <path id="Trazado_123863" data-name="Trazado 123863" d="M3088.842,989.228a6.02,6.02,0,0,0-4.244,3.094c-.147.272.268.515.415.242a5.565,5.565,0,0,1,3.957-2.873C3089.273,989.635,3089.145,989.172,3088.842,989.228Z" transform="translate(-208.932 -93.101)" fill="#bf5b46"/>
    <path id="Trazado_123864" data-name="Trazado 123864" d="M2882.317,894.316a8.393,8.393,0,0,1-5.324,3.545c-.3.062-.174.525.128.462a8.864,8.864,0,0,0,5.61-3.765C2882.9,894.3,2882.489,894.062,2882.317,894.316Z" transform="translate(-87.967 -37.776)" fill="#bf5b46"/>
    <path id="Trazado_123865" data-name="Trazado 123865" d="M2899.194,868.544a3.646,3.646,0,0,0-2.069,2.949c-.033.307.447.3.48,0a3.168,3.168,0,0,1,1.83-2.534C2899.716,868.826,2899.473,868.412,2899.194,868.544Z" transform="translate(-99.789 -22.818)" fill="#bf5b46"/>
    <path id="Trazado_123866" data-name="Trazado 123866" d="M2913.786,906.675c-2.456-4.189-7.932-5.311-10.183-9.65-.142-.274-.557-.032-.415.242,2.26,4.357,7.732,5.47,10.183,9.65A.24.24,0,0,0,2913.786,906.675Z" transform="translate(-103.303 -39.346)" fill="#140508"/>
    <path id="Trazado_123867" data-name="Trazado 123867" d="M2925.573,886.074a6.189,6.189,0,0,1-2.741-4.072c-.034-.3-.514-.307-.48,0a6.6,6.6,0,0,0,2.881,4.412C2925.474,886.6,2925.816,886.264,2925.573,886.074Z" transform="translate(-114.477 -30.535)" fill="#140508"/>
    <path id="Trazado_123868" data-name="Trazado 123868" d="M2861.072,1179.849a35.564,35.564,0,0,0-16.437-9.642.254.254,0,0,0-.127.49,35.073,35.073,0,0,1,16.225,9.512C2860.954,1180.436,2861.294,1180.077,2861.072,1179.849Z" transform="translate(-69.052 -198.478)" fill="#0b0808"/>
    <path id="Trazado_123869" data-name="Trazado 123869" d="M2912.835,1168.788a32.751,32.751,0,0,1-10.247,9.409,30.664,30.664,0,0,1-2.947,1.5,11.114,11.114,0,0,0-2.647,1.257c-1.237,1.008-1.428,2.777-1.555,4.308-.027.325.453.323.48,0a7.192,7.192,0,0,1,.767-3.213c.7-1.113,2.018-1.39,3.113-1.873a31.494,31.494,0,0,0,5.035-2.8,33.615,33.615,0,0,0,8.417-8.33C2913.436,1168.783,2913.019,1168.53,2912.835,1168.788Z" transform="translate(-98.806 -197.594)" fill="#0b0808"/>
    <path id="Trazado_123870" data-name="Trazado 123870" d="M2883,1104.9a114.207,114.207,0,0,1-21.942,2.47q-5.309.076-10.611-.346c-3.576-.285-7.732-.3-11-2.01-.275-.145-.519.293-.242.438,2.974,1.559,6.612,1.661,9.862,1.961a112.67,112.67,0,0,0,11.529.47q2.21-.023,4.417-.138c-.133,4.161-.466,10.172,3.334,12.684a.2.2,0,0,0,.193.025q-.325,4.445-.993,8.857c-.049.32.414.457.463.135a114.521,114.521,0,0,0,1.224-21.988,116.08,116.08,0,0,0,13.893-2.069C2883.432,1105.327,2883.3,1104.838,2883,1104.9Zm-14.428,15.078c-3.594-2.4-3.205-8.3-3.078-12.26,1.088-.06,2.175-.13,3.26-.221A114.222,114.222,0,0,1,2868.574,1119.979Z" transform="translate(-65.994 -160.454)" fill="#0b0808"/>
    <g id="Grupo_131316" data-name="Grupo 131316" transform="translate(2769.351 862.964)">
      <path id="Trazado_123871" data-name="Trazado 123871" d="M2838.331,918.116a2.868,2.868,0,0,1-.405-.027.208.208,0,0,1-.164-.138,30.162,30.162,0,0,0-2.617-5.562c-1.364-2.088-4.771-2.125-4.805-2.125a.209.209,0,0,1,0-.418c.149,0,3.665.036,5.154,2.314a30.05,30.05,0,0,1,2.617,5.529,1.9,1.9,0,0,0,1.343-.334,1.162,1.162,0,0,0,.316-.987.209.209,0,0,1,.195-.222.213.213,0,0,1,.222.195,1.56,1.56,0,0,1-.452,1.324A2.1,2.1,0,0,1,2838.331,918.116Z" transform="translate(-2830.132 -909.846)" fill="#bf5b46"/>
    </g>
    <g id="Grupo_131317" data-name="Grupo 131317" transform="translate(2767.491 866.144)">
      <path id="Trazado_123872" data-name="Trazado 123872" d="M2833.638,924.994a1.453,1.453,0,0,1-.808-.239,5.207,5.207,0,0,1-1.144-2.355c-.461-1.362-.982-2.905-1.805-3.522-.956-.715-3.98-1-4.011-1a.209.209,0,0,1-.189-.227.211.211,0,0,1,.227-.189c.129.012,3.173.3,4.223,1.086.927.694,1.471,2.3,1.951,3.722a5.736,5.736,0,0,0,.98,2.141,1.194,1.194,0,0,0,1.31-.058,1.947,1.947,0,0,0,.789-2,.209.209,0,1,1,.413-.064,2.356,2.356,0,0,1-.977,2.418A1.784,1.784,0,0,1,2833.638,924.994Z" transform="translate(-2825.68 -917.458)" fill="#bf5b46"/>
    </g>
    <g id="Grupo_131318" data-name="Grupo 131318" transform="translate(2765.571 869.144)">
      <path id="Trazado_123873" data-name="Trazado 123873" d="M2828.736,931.326a1.36,1.36,0,0,1-1.167-.7,30.144,30.144,0,0,0-3.025-4.653c-.816-.671-3.247-.911-3.272-.913a.21.21,0,0,1-.188-.228.214.214,0,0,1,.228-.188c.1.01,2.583.254,3.5,1.007a28.672,28.672,0,0,1,3.124,4.77.933.933,0,0,0,.846.489c.863-.048,1.174-1.2,1.282-2.167a.209.209,0,0,1,.416.046c-.228,2.033-1.037,2.5-1.675,2.537Z" transform="translate(-2821.083 -924.641)" fill="#bf5b46"/>
    </g>
    <g id="Grupo_131319" data-name="Grupo 131319" transform="translate(2767.08 873.774)">
      <path id="Trazado_123874" data-name="Trazado 123874" d="M2828.567,939.2a1.1,1.1,0,0,1-.532-.147,18.842,18.842,0,0,1-3.286-2.979.209.209,0,0,1,.312-.278,18.973,18.973,0,0,0,3.176,2.891.614.614,0,0,0,.551.051c.549-.217.97-1.192,1.086-1.548a.209.209,0,1,1,.4.129c-.019.06-.485,1.473-1.328,1.808A1.011,1.011,0,0,1,2828.567,939.2Z" transform="translate(-2824.695 -935.723)" fill="#bf5b46"/>
    </g>
    <g id="Grupo_131320" data-name="Grupo 131320" transform="translate(2772.39 875.301)">
      <path id="Trazado_123875" data-name="Trazado 123875" d="M2841.183,945.687a.209.209,0,0,1-.206-.173c-.888-5.109-3.379-5.717-3.4-5.722a.21.21,0,0,1-.16-.248.206.206,0,0,1,.247-.16c.114.023,2.788.643,3.729,6.06a.208.208,0,0,1-.206.244Z" transform="translate(-2837.408 -939.378)" fill="#bf5b46"/>
    </g>
  </g>
</svg>
