<svg xmlns="http://www.w3.org/2000/svg" width="85" height="85" viewBox="0 0 85 85">
  <g id="Grupo_135058" data-name="Grupo 135058" transform="translate(-1277.666 -1138)">
    <circle id="Elipse_4926" data-name="Elipse 4926" cx="42.5" cy="42.5" r="42.5" transform="translate(1277.666 1138)" fill="#133d60"/>
    <g id="oy5OhV" transform="translate(847.699 711.659)">
      <g id="Grupo_134961" data-name="Grupo 134961" transform="translate(443.967 442.341)">
        <path id="Trazado_127985" data-name="Trazado 127985" d="M569.827,536.3c-.784.507-1.546,1.053-2.359,1.509a20.063,20.063,0,0,1-2.07.935.851.851,0,0,1-1.223-.371c-.2-.483.029-.9.609-1.178,1-.472,1.994-.969,3-1.44a.467.467,0,0,0,.294-.608,4.235,4.235,0,0,0-3.762-3.4c-1.386-.07-2.777-.039-4.165-.024a.591.591,0,0,0-.427.3,3.322,3.322,0,0,1-6.2.01.64.64,0,0,0-.469-.314c-1.3-.021-2.593-.04-3.888.006a4.241,4.241,0,0,0-3.962,3.241.632.632,0,0,0,.344.845,22.157,22.157,0,0,0,13.909,2.734c.55-.07,1.095-.18,1.645-.247a.843.843,0,0,1,1.045.665.857.857,0,0,1-.774.975,23.93,23.93,0,0,1-17.434-3.156,1.051,1.051,0,0,1-.524-1.075,5.667,5.667,0,0,1,1.421-3.538,2.835,2.835,0,0,0,.767-1.728c.306-3.26.635-6.518.878-9.783.159-2.14.178-4.291.27-6.437a7.019,7.019,0,0,1,4.7-6.708,13.637,13.637,0,0,1,10.4.02,7.051,7.051,0,0,1,4.653,6.852c.157,5.07.36,10.139,1,15.177a8.549,8.549,0,0,0,.255,1.418,2.692,2.692,0,0,0,.532,1,7.286,7.286,0,0,1,1.544,3.2Zm-3.915-5.938c-.1-.823-.242-1.6-.29-2.392q-.417-6.843-.794-13.688a5.4,5.4,0,0,0-3.335-5.081,12.076,12.076,0,0,0-9.708-.022,5.032,5.032,0,0,0-3.115,3.53,13.751,13.751,0,0,0-.279,2.471c-.231,3.861-.429,7.723-.669,11.583-.074,1.191-.246,2.376-.356,3.412l5.98-.193a1.381,1.381,0,0,0-.481-1.451,25.124,25.124,0,0,1-2.457-2.769,3.939,3.939,0,0,1-.768-2.5c.023-1.591.05-3.183.069-4.774.01-.795.273-1.074,1.059-1.076,1.8,0,3.591,0,5.387,0a1.7,1.7,0,0,0,1.958-1.654c.073-.488.3-.794.8-.828.469-.031.773.269.866.823a1.694,1.694,0,0,0,1.95,1.659c.222,0,.444,0,.666,0,.872,0,1.12.257,1.127,1.117.013,1.425-.005,2.852.069,4.274a4.723,4.723,0,0,1-.963,3.279,23.711,23.711,0,0,1-2.365,2.559,1.3,1.3,0,0,0-.383,1.368C561.9,530.171,563.913,529.777,565.912,530.359Zm-3.989-11.292a3.636,3.636,0,0,1-2.946-1.082,3.961,3.961,0,0,1-3.342,1.085h-4.253c0,.254,0,.453,0,.651-.014,1.036.013,2.074-.057,3.105a3.065,3.065,0,0,0,.552,2.15,9.049,9.049,0,0,0,1.83,2.06,3.2,3.2,0,0,1,1.333,3.415c-.012.092-.018.184-.026.276a1.528,1.528,0,0,0,.786,1.538,1.5,1.5,0,0,0,1.68-.027,1.612,1.612,0,0,0,.753-1.615c-.048-.532-.043-1.07-.05-1.605a1.759,1.759,0,0,1,.683-1.373,23.758,23.758,0,0,0,2.359-2.484,3.042,3.042,0,0,0,.667-1.605C561.983,522.087,561.923,520.608,561.923,519.067Z" transform="translate(-512.959 -486.85)" fill="#fff"/>
        <path id="Trazado_127986" data-name="Trazado 127986" d="M460.438,530.154c1.3,0,2.572-.015,3.847,0a5.943,5.943,0,0,1,5.937,4.709c.016.072.033.145.044.217.214,1.369.162,1.491-1.033,2.175a23.932,23.932,0,0,1-16.76,2.809c-.592-.11-.92-.489-.85-.969.075-.511.5-.746,1.138-.683,1.581.155,3.164.415,4.745.414a21.646,21.646,0,0,0,10.751-2.919.588.588,0,0,0,.328-.758,4.242,4.242,0,0,0-3.908-3.308c-1.331-.052-2.666-.028-4-.01a.588.588,0,0,0-.425.3,3.322,3.322,0,0,1-6.2.02.6.6,0,0,0-.417-.318c-1.407-.015-2.817-.05-4.221.027a4.227,4.227,0,0,0-3.718,3.383c-.057.3-.011.476.279.614.9.428,1.791.88,2.686,1.32.149.073.31.123.458.2a.841.841,0,0,1,.479,1.1.8.8,0,0,1-1.11.424c-1.382-.663-2.757-1.342-4.1-2.081a1.158,1.158,0,0,1-.424-.876,5.9,5.9,0,0,1,5.463-5.754c1.275-.059,2.555-.025,3.832-.033.2,0,.4,0,.616,0a1.377,1.377,0,0,0-.427-1.458,24.929,24.929,0,0,1-2.473-2.758,4.38,4.38,0,0,1-.8-2.993c.066-1.219.044-2.443.082-3.664a.728.728,0,0,0-.373-.72,4,4,0,0,1-.882-6.038.57.57,0,0,0,.11-.678,3.025,3.025,0,0,1,3.091-4.119,1.028,1.028,0,0,0,.842-.271,3.121,3.121,0,0,1,3.716-.332.651.651,0,0,0,.786,0,3.224,3.224,0,0,1,4.192.807,1.05,1.05,0,0,0,.656.355,2.712,2.712,0,0,1,2.48,3.228.778.778,0,0,0,.246.819,4.01,4.01,0,0,1-.671,6.21.756.756,0,0,0-.4.753c.04,1.351.055,2.7.078,4.053a3.854,3.854,0,0,1-.73,2.46,26.452,26.452,0,0,1-2.477,2.825A1.417,1.417,0,0,0,460.438,530.154Zm-8.547-10.931a26.188,26.188,0,0,1-.025,3.207,4.328,4.328,0,0,0,1.258,3.637,6.752,6.752,0,0,0,1.261,1.243,2.8,2.8,0,0,1,1.206,3.028c-.014.129-.028.257-.046.386a1.569,1.569,0,0,0,.731,1.622,1.5,1.5,0,0,0,1.68.043,1.58,1.58,0,0,0,.8-1.587c-.04-.59-.022-1.183-.032-1.775a1.448,1.448,0,0,1,.548-1.15,29.664,29.664,0,0,0,2.233-2.232,3.615,3.615,0,0,0,.929-2.917,28.375,28.375,0,0,1-.046-2.884c0-.2,0-.4,0-.627a4.2,4.2,0,0,1-3.345-1.569.432.432,0,0,0-.382-.065,4.45,4.45,0,0,1-2.992.014.486.486,0,0,0-.425.066A4.256,4.256,0,0,1,451.89,519.223Zm10.167-1.687a2.43,2.43,0,0,0,2.473-1.736,2.377,2.377,0,0,0-1.067-2.684c-.759-.485-.834-.764-.378-1.527a1,1,0,0,0-.02-1.193,1.03,1.03,0,0,0-1.181-.385c-.718.176-.957.049-1.25-.629a1.547,1.547,0,0,0-2.723-.4c-.525.608-1,.612-1.517.01a1.538,1.538,0,0,0-2.607.133.915.915,0,0,1-1.235.385,1.366,1.366,0,0,0-1.727.449,1.415,1.415,0,0,0,.114,1.742c.491.63.44,1-.2,1.481a2.378,2.378,0,0,0,1,4.343,2.379,2.379,0,0,0,2.457-1.346c.4-.753.781-.86,1.511-.419a2.59,2.59,0,0,0,2.834.025c.8-.473,1.13-.383,1.58.45A2.28,2.28,0,0,0,462.057,517.536Z" transform="translate(-443.967 -486.966)" fill="#fff"/>
        <path id="Trazado_127987" data-name="Trazado 127987" d="M510.765,442.341A16.229,16.229,0,0,1,527.3,456.959a22.1,22.1,0,0,1,.062,2.383c-.011.718-.387,1.126-.913,1.08s-.762-.439-.746-1.153c.129-5.9-2.3-10.437-7.4-13.407a14.289,14.289,0,0,0-16.587,1.766c-.1.086-.189.178-.292.256a.817.817,0,0,1-1.19-.06.784.784,0,0,1,.108-1.18,34.486,34.486,0,0,1,3.728-2.576A14.382,14.382,0,0,1,510.765,442.341Z" transform="translate(-482.857 -442.341)" fill="#fff"/>
        <path id="Trazado_127988" data-name="Trazado 127988" d="M528.416,465.541c0-1.721-.006-3.442,0-5.163a2.5,2.5,0,1,1,5,.015q.012,5.163,0,10.327a2.5,2.5,0,1,1-5-.015C528.411,468.983,528.416,467.262,528.416,465.541Zm1.667-.059c0,1.72,0,3.44,0,5.161,0,.646.319,1.032.828,1.031s.835-.394.836-1.034q.006-5.078,0-10.155c0-.654-.3-1.034-.811-1.049-.54-.016-.852.362-.853,1.053Q530.079,462.984,530.083,465.482Z" transform="translate(-502.556 -453.038)" fill="#fff"/>
        <path id="Trazado_127989" data-name="Trazado 127989" d="M484.224,473.839a15.786,15.786,0,0,1,2.6-8.742c.135-.206.345-.477.545-.5a1.274,1.274,0,0,1,.89.233c.333.285.227.685.032,1.065a33.06,33.06,0,0,0-1.625,3.324,13.043,13.043,0,0,0-.724,6c.065.63-.226,1.052-.735,1.106s-.85-.294-.919-.939c-.024-.22-.057-.441-.065-.662C484.215,474.431,484.224,474.135,484.224,473.839Z" transform="translate(-471.895 -457.777)" fill="#fff"/>
        <path id="Trazado_127990" data-name="Trazado 127990" d="M530.913,518.873a2.481,2.481,0,0,1-2.486-2.511,2.5,2.5,0,1,1,2.486,2.511Zm.841-2.5a.857.857,0,0,0-.873-.819.837.837,0,0,0-.784.843.818.818,0,0,0,.864.81A.838.838,0,0,0,531.753,516.37Z" transform="translate(-502.565 -491.975)" fill="#fff"/>
        <path id="Trazado_127991" data-name="Trazado 127991" d="M524.709,542.506c-1.221-.216-2.675-.448-4.117-.739-.641-.129-.905-.576-.753-1.066s.574-.693,1.211-.518a14.387,14.387,0,0,0,6.363.339c.109-.019.219-.033.329-.044a.843.843,0,0,1,1,.655.8.8,0,0,1-.7.957C527.025,542.247,526,542.349,524.709,542.506Z" transform="translate(-496.578 -510.179)" fill="#fff"/>
      </g>
    </g>
  </g>
</svg>
