<svg xmlns="http://www.w3.org/2000/svg" width="85" height="85" viewBox="0 0 85 85">
  <g id="Grupo_135048" data-name="Grupo 135048" transform="translate(-862.666 -1127)">
    <circle id="Elipse_4924" data-name="Elipse 4924" cx="42.5" cy="42.5" r="42.5" transform="translate(862.666 1127)" fill="#133d60"/>
    <g id="kPhr5G" transform="translate(845.182 690.21)">
      <g id="Grupo_134955" data-name="Grupo 134955" transform="translate(35.484 451.79)">
        <path id="Trazado_127933" data-name="Trazado 127933" d="M87.448,507.79a4.3,4.3,0,0,1-.376-1.193c-.031-3.284-.015-6.569-.018-9.853a5.741,5.741,0,0,0-4.283-5.95c-2.592-.877-5.189-1.735-7.777-2.624a1.209,1.209,0,0,0-1.324.21,9.976,9.976,0,0,1-12.546-.166.763.763,0,0,0-.878-.158c-.733.277-1.483.511-2.228.755-.622.2-1.077.052-1.249-.407-.189-.5.063-.921.705-1.141,1-.343,2-.673,3.005-1.016a1.856,1.856,0,0,0,1.19-2.456.6.6,0,0,0-.264-.251,12.554,12.554,0,0,1-6.43-9.758.308.308,0,0,0-.048-.094c-2.267-.407-3.447-1.555-3.432-3.338.015-1.754,1.153-2.871,3.41-3.275v-.614c0-2.719-.009-5.438,0-8.156a6.3,6.3,0,0,1,5.179-6.407,8.062,8.062,0,0,1,1.473-.1q5.866-.012,11.731,0a6.257,6.257,0,0,1,6.423,4.458c.019.05.056.092.012.021a35.779,35.779,0,0,1,3.8-1.077,10.547,10.547,0,1,1,2.7,20.919,16.507,16.507,0,0,1-2.024.089c-.7.006-1.067-.293-1.07-.819s.358-.823,1.063-.815a10.04,10.04,0,0,0,4.481-.838c.18-.085.356-.18.622-.314-.39-.556-.745-1.1-1.146-1.6-.082-.1-.339-.091-.515-.091-1.827-.006-3.655,0-5.482,0-1.625,0-2.326-.712-2.328-2.344,0-.274-.017-.549,0-.821a1.656,1.656,0,0,0-.366-1.2,2.4,2.4,0,0,1,.059-2.9,1.571,1.571,0,0,0,.3-.774,5.671,5.671,0,0,1,.827-2.7l-1.463-2.1a8.909,8.909,0,0,0-.755,12.805,1.193,1.193,0,0,1-.182,1.962,5.955,5.955,0,0,0-.985.926h2.439c.829,0,1.187.233,1.207.78s-.29.759-1.136.881a.715.715,0,0,0-.433.426,12.5,12.5,0,0,1-4.323,5.926,9.976,9.976,0,0,1-1.493.9.67.67,0,0,0-.428.77,3.864,3.864,0,0,1,0,.438,1.437,1.437,0,0,0,1.133,1.535q4.595,1.525,9.187,3.055a7.346,7.346,0,0,1,5.283,7.3q.022,5.036-.013,10.072a4.159,4.159,0,0,1-.357,1.145ZM56.464,468.727c.092,1.941.033,3.851.3,5.713a10.858,10.858,0,0,0,8.562,8.825,11.119,11.119,0,0,0,11.47-5.092c.353-.6.625-1.244.982-1.965-.425,0-.7,0-.968,0a11.142,11.142,0,0,1-1.366-.051c-.661-.1-1.245-.937-.974-1.374a3.362,3.362,0,0,1,.671-.77c.59-.5,1.21-.976,1.834-1.475a10.963,10.963,0,0,1-2.259-4.34.658.658,0,0,0-.359-.334,9.751,9.751,0,0,1-3.377-2.47c-.3-.338-.572-.7-.868-1.061A30.075,30.075,0,0,1,56.464,468.727Zm.111-1.73a.5.5,0,0,0,.133.049c.109,0,.219,0,.328-.014a28.123,28.123,0,0,0,12.185-4.085c1.082-.669,1.59-.557,2.319.5a7.848,7.848,0,0,0,2.642,2.468c.152-.824.278-1.619.446-2.405a10.344,10.344,0,0,1,3.31-5.721.771.771,0,0,0,.246-.905,4.643,4.643,0,0,0-4.749-3.446q-6.028-.015-12.055,0a5.384,5.384,0,0,0-1.142.1,4.655,4.655,0,0,0-3.686,4.729c-.012,2.754,0,5.508,0,8.262C56.551,466.692,56.567,466.852,56.576,467Zm34.065,5.476a8.855,8.855,0,0,0-10.082-14.5l1.2,1.732a5.236,5.236,0,0,1,8.483,4.1,1.152,1.152,0,0,0,.275.616,2.34,2.34,0,0,1,.13,2.851,2.259,2.259,0,0,0-.423,1.516,3.168,3.168,0,0,1-.405,2.21.37.37,0,0,0,.028.331C90.095,471.711,90.363,472.076,90.64,472.474ZM63.332,484.414a3.249,3.249,0,0,1-.937,2.643c2.824,2.514,7.759,2.261,10.1.064a3.26,3.26,0,0,1-1.06-2.689A12.589,12.589,0,0,1,63.332,484.414Zm19.38-23.344c.519.747.99,1.46,1.5,2.141a.841.841,0,0,0,.577.283c.964.029,1.93.013,2.895.013h.893a3.462,3.462,0,0,0-2.08-2.96A3.5,3.5,0,0,0,82.712,461.071Zm-1.248,7.365c0,.375.023.666-.005.951-.051.516.14.71.676.7,1.422-.029,2.844-.009,4.266-.012.154,0,.308-.023.53-.04-.356-.515-.656-.971-.981-1.406a.52.52,0,0,0-.36-.184C84.244,468.431,82.9,468.436,81.464,468.436Zm3.186-1.681c-.365-.529-.674-.994-1.006-1.443a.457.457,0,0,0-.321-.153c-.655-.009-1.312-.024-1.965.017a.718.718,0,0,0-.7.767.7.7,0,0,0,.658.8C82.4,466.783,83.481,466.755,84.65,466.755Zm.911-1.586c.375.54.668.974.977,1.4.069.094.19.21.288.21a18.588,18.588,0,0,0,1.96-.043.7.7,0,0,0,.621-.776.711.711,0,0,0-.687-.777C87.707,465.145,86.692,465.169,85.56,465.169Zm-30.68,3.645A1.8,1.8,0,0,0,53.14,470.4a1.767,1.767,0,0,0,1.741,1.536Zm26.6-5.352h.9l-.7-.957Zm6.37,4.995.7,1v-1Z" transform="translate(-46.09 -451.79)" fill="#fff"/>
        <path id="Trazado_127934" data-name="Trazado 127934" d="M35.942,579.88a1.091,1.091,0,0,1-.458-.987c.012-3.482-.009-6.965.012-10.448a7.293,7.293,0,0,1,4.958-6.966c.822-.3,1.659-.553,2.5-.807a.822.822,0,1,1,.515,1.553c-.791.273-1.6.5-2.388.777a5.659,5.659,0,0,0-3.938,5.528c-.012,3.41.01,6.819-.022,10.229a3.66,3.66,0,0,1-.407,1.122Z" transform="translate(-35.484 -523.879)" fill="#fff"/>
        <path id="Trazado_127935" data-name="Trazado 127935" d="M60.628,603.938a1.084,1.084,0,0,1-.458-.985c.017-1.656.005-3.312.008-4.968,0-.675.311-1.062.829-1.051s.812.4.814,1.08c0,1.6.027,3.2-.018,4.8a3.824,3.824,0,0,1-.406,1.12Z" transform="translate(-51.837 -547.938)" fill="#fff"/>
        <path id="Trazado_127936" data-name="Trazado 127936" d="M132.851,603.955a4.16,4.16,0,0,1-.376-1.139c-.043-1.568-.019-3.138-.017-4.707a2.573,2.573,0,0,1,.022-.437.764.764,0,0,1,.826-.712.732.732,0,0,1,.777.758c.018,1.843.019,3.686-.011,5.528,0,.238-.224.472-.344.708Z" transform="translate(-99.717 -547.955)" fill="#fff"/>
        <path id="Trazado_127937" data-name="Trazado 127937" d="M95.777,525.691c-.224.258-.382.6-.612.662a1.2,1.2,0,0,1-.93-.175,2.654,2.654,0,0,0-2.326-.681,4.386,4.386,0,0,0-1.4.665c-.54.361-.968.405-1.3,0a.863.863,0,0,1,.21-1.247,4.355,4.355,0,0,1,5.869.035A4.669,4.669,0,0,1,95.777,525.691Z" transform="translate(-70.946 -499.491)" fill="#fff"/>
        <path id="Trazado_127938" data-name="Trazado 127938" d="M111.518,505.643c-.223.28-.415.541-.629.783a.836.836,0,0,1-1.172.145.8.8,0,0,1-.125-1.127,14.017,14.017,0,0,1,1.014-1.29,1.22,1.22,0,0,1,1.766-.059,13.856,13.856,0,0,1,1.152,1.3.787.787,0,0,1-.081,1.169.927.927,0,0,1-1.241-.089C111.967,506.221,111.762,505.941,111.518,505.643Z" transform="translate(-84.46 -486.206)" fill="#fff"/>
        <path id="Trazado_127939" data-name="Trazado 127939" d="M77.413,505.64c-.241.3-.433.569-.652.81a.825.825,0,0,1-1.131.133.8.8,0,0,1-.158-1.118,12.992,12.992,0,0,1,1.045-1.328,1.219,1.219,0,0,1,1.8.007,12.956,12.956,0,0,1,1.047,1.327.78.78,0,0,1-.169,1.115.819.819,0,0,1-1.126-.144C77.85,506.2,77.655,505.939,77.413,505.64Z" transform="translate(-61.867 -486.205)" fill="#fff"/>
      </g>
    </g>
  </g>
</svg>
