<svg xmlns="http://www.w3.org/2000/svg" width="85" height="85" viewBox="0 0 85 85">
  <g id="Grupo_135049" data-name="Grupo 135049" transform="translate(-862.666 -1349)">
    <circle id="Elipse_4930" data-name="Elipse 4930" cx="42.5" cy="42.5" r="42.5" transform="translate(862.666 1349)" fill="#133d60"/>
    <g id="Grupo_134959" data-name="Grupo 134959" transform="translate(-1275.829 1106.587)">
      <path id="Trazado_127958" data-name="Trazado 127958" d="M2204.143,302.838a12.314,12.314,0,0,0-1.447-3.325c-.058-.066-.12-.13-.175-.2a9.943,9.943,0,0,0-8.3-4.121c-1.249,0-2.5-.01-3.75-.017-.375.006-.75.009-1.126.018-.431.01-.629-.2-.6-.625a.262.262,0,0,0,0-.054,1.853,1.853,0,0,1,1.087-2.1,13.2,13.2,0,0,0,5.917-8.055c.088-.323.188-.506.577-.54a2.2,2.2,0,0,0,1.748-1.349,4.313,4.313,0,0,0,.232-3.285l-.447-.854a2.7,2.7,0,0,0-1.395-.929c-.292-.056-.22-.279-.221-.461,0-.963,0-1.926,0-2.889l1.62-.1a8.845,8.845,0,0,0,2.3-.585,2.26,2.26,0,0,0,1.395-1.5,2.854,2.854,0,0,0-.237-1.4h0a.179.179,0,0,0-.13-.207,12.266,12.266,0,0,0-3.447-2.975l-.733-.454c-.207-.1-.419-.193-.619-.306-.273-.155-.555-.25-.739.082-.161.29,0,.509.275.647a.77.77,0,0,1,.125.1,3.383,3.383,0,0,1,.893.513,1.222,1.222,0,0,1,.523.314,8.668,8.668,0,0,1,2.566,2.066h0a.192.192,0,0,0,.193.23c.785.983.619,1.679-.536,2.151a5.222,5.222,0,0,1-2.025.419,3.259,3.259,0,0,1-1,.109,14.95,14.95,0,0,0-1.917-6.64l.014-.01a14.312,14.312,0,0,0,1.959-1.664,5.379,5.379,0,0,0,.906-1.38q.048-.417.095-.834a2.231,2.231,0,0,0-1.416-1.625,7.764,7.764,0,0,0-2.328-.573,23.252,23.252,0,0,0-3.371-.071.415.415,0,0,0-.459.42c-.008.28.187.412.447.433a4.67,4.67,0,0,0,.482,0,17.031,17.031,0,0,1,3.1.124,4.106,4.106,0,0,1,2.318.846l-.013,0,.121.118a.8.8,0,0,1,.114,1,1.1,1.1,0,0,1-.263.519,8.223,8.223,0,0,1-2.167,1.928l-.142-.229-.144.084c-3.711-4.98-8.573-6.968-14.451-5.9a14.047,14.047,0,0,0-5,2.107l-1.377,1.085a18.82,18.82,0,0,0-2.554,2.95,4.859,4.859,0,0,1-.926-.7,3.681,3.681,0,0,1-.972-.881,2.057,2.057,0,0,1-.532-.663,1.069,1.069,0,0,1,.468-1.693,4.233,4.233,0,0,1,.949-.361,15.751,15.751,0,0,1,4.427-.312c.32.007.6-.066.6-.439,0-.341-.263-.415-.563-.426a24.829,24.829,0,0,0-2.844.033,7.852,7.852,0,0,0-2.806.644,1.96,1.96,0,0,0-.889,3.132,5.4,5.4,0,0,0,1.142,1.274c.422.344.855.674,1.288,1.005l-.85,1.763-.48,1.476-.014.052a19.967,19.967,0,0,0-.5,3.419,8.7,8.7,0,0,1-2.192-.284,2.339,2.339,0,0,1-.987-.328c-.921-.426-1.1-.994-.563-1.839a4.971,4.971,0,0,1,.608-.748,11.144,11.144,0,0,1,2.243-1.738c.547-.339,1.11-.652,1.669-.97.251-.144.392-.349.254-.618-.153-.3-.415-.29-.685-.133-.248.143-.5.272-.75.418a13.066,13.066,0,0,0-3.858,3.034c-1.116,1.432-.8,2.692.851,3.454.1.045.191.095.287.142l1.172.295a20.793,20.793,0,0,0,2.385.21l2.493-.03c1.362-.177,2.724-.361,4.087-.53a18.622,18.622,0,0,1,2.162-.335l-.015.007h.009l.005-.007a10.689,10.689,0,0,1,1.831-.467c.963-.267,1.935-.5,2.9-.759a1.142,1.142,0,0,1,.631-.031c1.56.454,3.137.837,4.728,1.17.042.009.076.054.113.085.946.046,1.856.323,2.791.435,1.152.137,2.3.285,3.456.429a4.3,4.3,0,0,0,1.293.742.433.433,0,0,1,.33.469c-.037,2.2.07,4.4-.063,6.6a12.957,12.957,0,0,1-25.661,1.331,14.913,14.913,0,0,1-.22-2.94c0-1.629.008-3.258-.006-4.887a.533.533,0,0,1,.385-.6,3.962,3.962,0,0,0,1.245-.72l-2.493.031q-.012.362-.025.725v.858c.009.482.017.965.029,1.447,0,.155-.02.266-.2.318a2.893,2.893,0,0,0-2.042,2.682c-.214,1.389.4,3.3,1.993,3.748.205.45.29.989.869,1.158a14.834,14.834,0,0,0,5.158,7.09,4.4,4.4,0,0,0,1.7,1.622c.006.25.017.5.017.749,0,.657-.087.746-.736.747-1.375,0-2.751.044-4.124-.009a10.785,10.785,0,0,0-6.316,1.629c-.19-.175-.107-.4-.107-.609q-.007-7.573,0-15.147c0-.143,0-.287,0-.43a.43.43,0,1,0-.858.024c0,.107,0,.215,0,.322q0,7.95,0,15.9c0,.214.018.429.028.643a10.28,10.28,0,0,0-3.318,5.5,21.768,21.768,0,0,0-.239,4.648c-.012,1.373.357,1.762,1.7,1.843q4.64-.009,9.279-.016c.339,0,.656-.008.748-.428-.067-.437-.383-.441-.727-.44q-4.3.007-8.6,0c-.2,0-.393-.01-.59-.016-.882.044-.963-.022-.95-.9a19.07,19.07,0,0,1,.294-4.8,9.09,9.09,0,0,1,4.667-5.848c.153-.083.3-.2.5-.13a6.707,6.707,0,0,1,3.536-.872,5.223,5.223,0,0,1,1.969.047c.6.234.605,1.094.934,1.649a10.586,10.586,0,0,0,19.095-1.275.562.562,0,0,1,.612-.436,12.472,12.472,0,0,1,4.963.656,9.205,9.205,0,0,1,5.748,8.511c.01.859,0,1.719,0,2.579,0,.738-.1.835-.834.835h-22.026c-.555,0-1.11.01-1.665,0-.331-.008-.559.092-.628.44.107.448.457.429.807.428q7.009,0,14.017,0h9.506c1.22,0,1.7-.466,1.684-1.683A21.851,21.851,0,0,0,2204.143,302.838Zm-7.827-24.522c.161-.091.311.041.43.137a2.84,2.84,0,0,1,.929,2.187,2.772,2.772,0,0,1-.941,2.133c-.173.133-.4.271-.587.167s-.02-.323,0-.489c.121-1.245.1-2.493.1-3.742C2196.244,278.575,2196.174,278.4,2196.316,278.316Zm-4.35-5.686a12.824,12.824,0,0,1-1.657-2.03,5.887,5.887,0,0,0-.966-1.2l.047-.018c1.5-.721,3-1.443,4.437-2.282a13.916,13.916,0,0,1,1.714,5.727A20.584,20.584,0,0,1,2191.966,272.631Zm-18.176-8.983,1.282-1.012a13.153,13.153,0,0,1,4.65-1.968c5.456-.983,9.976.836,13.442,5.408-1.639.917-3.375,1.719-5.064,2.491l-.5.227a4.272,4.272,0,0,0-.612.03,40.447,40.447,0,0,1-9.173,0,4.563,4.563,0,0,0-.517-.034,2.528,2.528,0,0,0-.517.05,27.536,27.536,0,0,1-5.207-2.681A18.008,18.008,0,0,1,2173.79,263.647Zm-4.184,6.336.434-1.349.721-1.5c1.341.807,2.738,1.52,4.11,2.207a3.762,3.762,0,0,0-.729.879,15.709,15.709,0,0,1-1.768,2.432,17.061,17.061,0,0,1-3.228.194A20.634,20.634,0,0,1,2169.605,269.984Zm7.5,2.261c-1.185.235-2.37.474-3.57.611a16.529,16.529,0,0,0,1.461-2.094,3.677,3.677,0,0,1,1.106-1.088l.026-.018c1.513.58,3.034,1.182,4.717,1.69C2179.513,271.744,2178.311,272.006,2177.105,272.245Zm3.341-1.909c-.312-.133-.63-.252-.95-.367.969.068,1.939.107,2.91.107s1.958-.039,2.934-.108c-.33.117-.658.239-.981.375A4.74,4.74,0,0,1,2180.446,270.336Zm5.746,1.581c-.7-.154-1.388-.336-2.249-.546,1.5-.482,2.888-1,4.253-1.525a4.655,4.655,0,0,1,1.152,1.29,11.1,11.1,0,0,0,1.261,1.628C2189.124,272.558,2187.657,272.24,2186.192,271.916Zm-18.522,10.452a3.19,3.19,0,0,1,.049-3.568,1.981,1.981,0,0,1,.427-.4c.291-.206.44-.151.428.241-.018.588,0,1.177,0,2.057a12.5,12.5,0,0,0,.145,1.948c.062.362-.107.36-.348.278A1.444,1.444,0,0,1,2167.669,282.368Zm22.013,16.693a9.731,9.731,0,0,1-16.155-2.492c-.172-.4-.179-.557.325-.522.553.038,1.11.017,1.666.006a1.321,1.321,0,0,0,1.409-1.413c.011-.35-.166-.846.078-1.011s.647.17.981.28a13.755,13.755,0,0,0,9.31-.168c.178-.066.341-.207.59-.14,0,.367-.008.741,0,1.113a1.286,1.286,0,0,0,1.317,1.333c.732.022,1.465,0,2.264,0A9.119,9.119,0,0,1,2189.682,299.062Z" transform="translate(-2.04 0)" fill="#fff"/>
      <path id="Trazado_127959" data-name="Trazado 127959" d="M2217.591,288.393l-.007-.006h-.009Z" transform="translate(-32.115 -15.233)" fill="#fff"/>
      <path id="Trazado_127960" data-name="Trazado 127960" d="M2251.269,320.5a.423.423,0,0,0,.845.019,2.566,2.566,0,0,0,.008-.376q0-8.036,0-16.071a2.033,2.033,0,0,0-.046-.531.375.375,0,0,0-.436-.312.4.4,0,0,0-.374.394c0,.143,0,.287,0,.43q0,4,0,8.009t0,8.009A4.128,4.128,0,0,0,2251.269,320.5Z" transform="translate(-49.826 -23.033)" fill="#fff"/>
      <path id="Trazado_127961" data-name="Trazado 127961" d="M2164.213,316.915a.423.423,0,0,0,.844.011,3.028,3.028,0,0,0,.009-.429q0-8.025,0-16.05a2.932,2.932,0,0,0-.016-.482.418.418,0,0,0-.825-.011,2.525,2.525,0,0,0-.018.481q0,4.026,0,8.052v8A4.121,4.121,0,0,0,2164.213,316.915Z" transform="translate(-4.053 -21.135)" fill="#fff"/>
      <path id="Trazado_127962" data-name="Trazado 127962" d="M2247.643,316.926a.424.424,0,0,0,.845-.012,2.474,2.474,0,0,0,.006-.322q0-8.133,0-16.265a1.764,1.764,0,0,0-.017-.374.419.419,0,0,0-.827.011,2.931,2.931,0,0,0-.015.482q0,4,0,8V316.5A3.532,3.532,0,0,0,2247.643,316.926Z" transform="translate(-47.918 -21.134)" fill="#fff"/>
      <path id="Trazado_127963" data-name="Trazado 127963" d="M2239.894,314.09q.008,3.617.014,7.234c0,.328.025.658.439.65s.426-.346.425-.669q-.006-3.456,0-6.913a1.1,1.1,0,0,0-.153-.61C2240.3,313.688,2240.03,313.737,2239.894,314.09Z" transform="translate(-43.85 -28.564)" fill="#fff"/>
      <path id="Trazado_127964" data-name="Trazado 127964" d="M2172.361,313.75c-.386-.009-.447.274-.447.592q0,3.52,0,7.041c0,.322.07.607.445.6s.421-.309.419-.623c-.006-1.165,0-2.329,0-3.494s0-2.329,0-3.494C2172.777,314.064,2172.754,313.76,2172.361,313.75Z" transform="translate(-8.107 -28.569)" fill="#fff"/>
      <path id="Trazado_127965" data-name="Trazado 127965" d="M2156.926,308.693c-.407,0-.433.334-.432.661.007,1.143,0,2.287,0,3.431,0,1.161,0,2.323,0,3.484,0,.321,0,.656.431.656s.432-.338.432-.656q0-3.458,0-6.915C2157.36,309.027,2157.333,308.693,2156.926,308.693Z" transform="translate(0 -25.91)" fill="#fff"/>
      <path id="Trazado_127966" data-name="Trazado 127966" d="M2259.827,316.467c0-1.2,0-2.4,0-3.6,0-.3-.111-.569-.44-.562s-.423.247-.422.566c.01,2.347.007,4.694,0,7.041,0,.316.057.61.433.608s.431-.3.43-.612C2259.825,318.76,2259.828,317.614,2259.827,316.467Z" transform="translate(-53.875 -27.809)" fill="#fff"/>
      <path id="Trazado_127967" data-name="Trazado 127967" d="M2160.12,319.945c0,.3.073.563.413.577s.449-.229.449-.539q0-3.547,0-7.094c0-.3-.1-.577-.422-.582-.355-.007-.446.264-.442.6.013,1.164,0,2.328,0,3.493C2160.123,317.58,2160.125,318.762,2160.12,319.945Z" transform="translate(-1.905 -27.81)" fill="#fff"/>
      <path id="Trazado_127968" data-name="Trazado 127968" d="M2255.764,308.692c-.366.006-.423.3-.423.621q.007,3.511,0,7.022c0,.318.062.6.445.591s.419-.309.418-.616c0-1.161,0-2.323,0-3.484s0-2.323,0-3.484C2256.208,309.012,2256.174,308.685,2255.764,308.692Z" transform="translate(-51.971 -25.91)" fill="#fff"/>
      <path id="Trazado_127969" data-name="Trazado 127969" d="M2243.913,325.606a.445.445,0,0,0,.5-.443,2.1,2.1,0,0,0,0-.215q0-3.434,0-6.868c0-.311-.04-.617-.414-.626-.414-.01-.452.314-.45.644.005,1.144,0,2.289,0,3.434,0,1.2,0,2.4,0,3.6C2243.553,325.383,2243.589,325.6,2243.913,325.606Z" transform="translate(-45.773 -30.516)" fill="#fff"/>
      <path id="Trazado_127970" data-name="Trazado 127970" d="M2175.95,325.592c.414.014.454-.309.454-.64q-.005-3.434,0-6.868c0-.31-.036-.618-.41-.63-.414-.014-.455.309-.454.64,0,1.127,0,2.254,0,3.381,0,1.162,0,2.325,0,3.488C2175.539,325.271,2175.576,325.58,2175.95,325.592Z" transform="translate(-10.014 -30.516)" fill="#fff"/>
      <path id="Trazado_127971" data-name="Trazado 127971" d="M2216.367,289.065a4,4,0,0,0,3.833,2.811c.242-.021.419-.114.449-.37.033-.284-.131-.43-.392-.482a1.927,1.927,0,0,0-.267-.025,2.967,2.967,0,0,1-2.7-1.961,1.94,1.94,0,0,0-.355-.636C2216.5,288.41,2216.251,288.582,2216.367,289.065Z" transform="translate(-31.464 -15.242)" fill="#fff"/>
      <path id="Trazado_127972" data-name="Trazado 127972" d="M2217.591,288.393l-.015-.007.006.008Z" transform="translate(-32.115 -15.233)" fill="#fff"/>
      <path id="Trazado_127973" data-name="Trazado 127973" d="M2188.729,291.013c-.3.011-.535.145-.5.495.034.325.28.367.553.367a3.921,3.921,0,0,0,3.666-2.657c.189-.562.089-.724-.5-.814a1.868,1.868,0,0,0-.255.386A3.052,3.052,0,0,1,2188.729,291.013Z" transform="translate(-16.684 -15.243)" fill="#fff"/>
      <path id="Trazado_127974" data-name="Trazado 127974" d="M2191.012,363.186c-1,.016-1.99.011-2.986,0a.484.484,0,0,0-.559.44c.08.343.319.43.64.427.945-.008,1.889-.012,2.834,0a.6.6,0,0,0,.649-.434A.543.543,0,0,0,2191.012,363.186Z" transform="translate(-16.285 -54.561)" fill="#fff"/>
      <path id="Trazado_127975" data-name="Trazado 127975" d="M2188.886,299.767c-.375.012-.438.3-.419.617a1.916,1.916,0,0,0,.029.265,2.868,2.868,0,0,0,3.4,2.227,2.92,2.92,0,0,0,2.155-2.556c.027-.253-.056-.521-.384-.552-.369-.035-.447.233-.483.558a1.936,1.936,0,0,1-3.856-.016C2189.3,300.008,2189.224,299.755,2188.886,299.767Z" transform="translate(-16.809 -21.216)" fill="#fff"/>
      <path id="Trazado_127976" data-name="Trazado 127976" d="M2213.824,299.766c-.375.013-.438.3-.42.618a1.963,1.963,0,0,0,.029.265,2.868,2.868,0,0,0,3.405,2.227,2.92,2.92,0,0,0,2.155-2.555c.026-.253-.056-.521-.384-.553-.37-.035-.447.233-.483.558a1.914,1.914,0,0,1-2.458,1.684,1.891,1.891,0,0,1-1.4-1.7C2214.239,300.008,2214.162,299.755,2213.824,299.766Z" transform="translate(-29.92 -21.216)" fill="#fff"/>
      <path id="Trazado_127977" data-name="Trazado 127977" d="M2204.665,309.571a1.062,1.062,0,0,1-1.079-1.091c-.013-.3.012-.609-.018-.911a.393.393,0,0,0-.434-.383.387.387,0,0,0-.407.407c-.014.321-.014.643,0,.965a1.925,1.925,0,0,0,1.314,1.777,1.971,1.971,0,0,0,2.577-2.157c0-.143,0-.286,0-.429.005-.3-.057-.558-.417-.56s-.445.24-.446.543c0,.25.007.5,0,.751A1.06,1.06,0,0,1,2204.665,309.571Z" transform="translate(-24.302 -25.118)" fill="#fff"/>
      <path id="Trazado_127978" data-name="Trazado 127978" d="M2200.783,318.82c-.213.185-.324.412-.13.654.214.266.466.206.7,0a1.771,1.771,0,0,0,.242-.212c.367-.476.749-.52,1.165-.061.047.052.122.077.173.127.408.407.775.354,1.209-.009.679-.568.7-.542,1.413.034a1.315,1.315,0,0,0,.4.267c.336.1.49-.1.556-.383-.048-.369-.352-.5-.579-.691-1.239-1.034-.947-.944-2.111-.074-.191.143-.323.2-.553.032-1.378-1-1-.922-2.276.145C2200.917,318.7,2200.85,318.761,2200.783,318.82Z" transform="translate(-23.165 -30.694)" fill="#fff"/>
      <path id="Trazado_127979" data-name="Trazado 127979" d="M2192.908,300.416a1.31,1.31,0,0,0,1.316-1.326,1.326,1.326,0,1,0-2.651.021A1.309,1.309,0,0,0,2192.908,300.416Z" transform="translate(-18.443 -20.154)" fill="#fff"/>
      <path id="Trazado_127980" data-name="Trazado 127980" d="M2217.826,300.416a1.306,1.306,0,0,0,1.322-1.319,1.326,1.326,0,1,0-2.651-.046A1.312,1.312,0,0,0,2217.826,300.416Z" transform="translate(-31.547 -20.154)" fill="#fff"/>
    </g>
  </g>
</svg>
