<svg xmlns="http://www.w3.org/2000/svg" width="85" height="85" viewBox="0 0 85 85">
  <g id="Grupo_135051" data-name="Grupo 135051" transform="translate(-437.666 -1349)">
    <circle id="Elipse_4928" data-name="Elipse 4928" cx="42.5" cy="42.5" r="42.5" transform="translate(437.666 1349)" fill="#133d60"/>
    <g id="_5Alqa6" data-name="5Alqa6" transform="translate(-574.453 912.251)">
      <g id="Grupo_134965" data-name="Grupo 134965" transform="translate(1028.119 448.749)">
        <path id="Trazado_128013" data-name="Trazado 128013" d="M1067.857,506.579c.166.936.391,1.872.481,2.821.079.828-.363,1.226-1.2,1.233q-1.9.014-3.8,0c-.767-.007-1.1-.382-1.181-1.146-.067-.65-.211-1.292-.34-2.049-4.765,4.247-9.449,4.281-14.271.112-.118.678-.263,1.276-.317,1.882-.075.84-.4,1.2-1.258,1.2-1.245.008-2.491.009-3.737,0-.83-.007-1.265-.405-1.185-1.242.09-.948.317-1.883.481-2.8-1.022-.1-2.157-.13-3.26-.333a12.41,12.41,0,0,1-10.114-12.006c-.04-6.358-.063-12.718,0-19.076a26.779,26.779,0,0,1,52.926-5.411,30.188,30.188,0,0,1,.643,6c.082,6.014.035,12.029.028,18.044a12.444,12.444,0,0,1-10.386,12.5A32.029,32.029,0,0,1,1067.857,506.579Zm3.593-28.873a6.194,6.194,0,0,1,4.377,3.136c1.527,2.767,1.162,7.737-3.313,9.442-1.073.409-1.087.433-1.06,1.571a14.611,14.611,0,0,1-3.112,9.467,5.662,5.662,0,0,0-1.02,3.2,32.466,32.466,0,0,0,3.888-.285,10.357,10.357,0,0,0,8.486-10.354q.015-9.023,0-18.044a24.738,24.738,0,0,0-35.552-22.5c-9.059,4.666-13.739,12.229-13.919,22.442-.106,5.991-.023,11.986-.013,17.979a12.4,12.4,0,0,0,.129,1.86,10.483,10.483,0,0,0,11.719,8.757,4.1,4.1,0,0,0-.907-2.54,13.413,13.413,0,0,1-3.7-9.669,1.755,1.755,0,0,0-1.329-2.021c-4.776-1.861-4.868-8.257-1.854-10.881a6.936,6.936,0,0,1,3.15-1.561c0-1,.018-1.96-.006-2.924a1.2,1.2,0,0,1,.911-1.3c.891-.309,1.773-.647,2.647-1a11.73,11.73,0,0,0,6.664-6.532c.409-.967.759-1.959,1.124-2.944a1.059,1.059,0,0,1,1.085-.831,1.048,1.048,0,0,1,.993.938,4.463,4.463,0,0,0,.127.432,11.542,11.542,0,0,0,8.918,8.138c3.458.738,6.973,1.212,10.461,1.808.836.143,1.095.451,1.1,1.3C1071.453,475.754,1071.449,476.718,1071.449,477.706Zm-30.337,20.612a8.609,8.609,0,0,1,.341-1.047,5.9,5.9,0,0,0,.026-5.04,6.7,6.7,0,0,1,0-4.912,9.285,9.285,0,0,0,.5-1.655,1.735,1.735,0,0,0-.231-1.038,1,1,0,0,1,.385-1.517,1.851,1.851,0,0,1,1.217.114,7.055,7.055,0,0,0,6.96-.107,1.021,1.021,0,1,1,.973,1.794,4.18,4.18,0,0,1-1.446.678,2.507,2.507,0,0,0-2.231,2.149,5.806,5.806,0,0,0,0,4.021,7.432,7.432,0,0,1,.013,5.944,5.26,5.26,0,0,0,.043,4.135,4.483,4.483,0,0,1,.51,1.971,2.865,2.865,0,0,0,1.542,2.82c.14.1.263.221.4.326a7.1,7.1,0,0,0,6.425,1.355c1.86-.469,3.146-1.788,4.474-3.036.121-.113.085-.395.12-.6a11.842,11.842,0,0,1,.466-2.51,6.025,6.025,0,0,0,.023-4.868,5.65,5.65,0,0,1-.212-4.342,7.669,7.669,0,0,0-.061-6.409.947.947,0,0,0-.67-.616,19.558,19.558,0,0,1-2.393-.916,1.036,1.036,0,0,1-.618-1.513c.317-.558.9-.661,1.621-.272a6.668,6.668,0,0,0,6.014.285,4.809,4.809,0,0,1,1.255-.472,1.287,1.287,0,0,1,1,.344,1.1,1.1,0,0,1,.126,1.031,1.821,1.821,0,0,0-.075,2.107,7.924,7.924,0,0,1,.03,6.492,5.133,5.133,0,0,0,.551,4.648,12.049,12.049,0,0,0,1.192-5.3q0-8.154,0-16.307c0-.206-.019-.413-.03-.617-.151-.042-.252-.081-.356-.1-2.92-.486-5.845-.949-8.761-1.457a13.91,13.91,0,0,1-10.132-7.1c-.09-.158-.189-.31-.327-.537-.112.254-.188.424-.262.595a12.971,12.971,0,0,1-5.019,6.06,42.4,42.4,0,0,1-4.51,2.158c-.273.127-.515.183-.514.6.021,5.779-.012,11.559.042,17.337A10.45,10.45,0,0,0,1041.112,498.318Zm22.3-12.16a.821.821,0,0,0,0,.147,1.2,1.2,0,0,0,.068.248,7.713,7.713,0,0,1,.029,6.482,4.521,4.521,0,0,0,.052,3.58,7.652,7.652,0,0,1,0,6.186,4.395,4.395,0,0,0-.233,2.9c.256.945.591,1.87.9,2.838h1.9a.657.657,0,0,0,.009-.2,4.169,4.169,0,0,0-.181-.549,7.592,7.592,0,0,1-.027-6.243,4.666,4.666,0,0,0,0-3.7,7.662,7.662,0,0,1,0-6.186,4.472,4.472,0,0,0,.227-2.965c-.268-.982-.616-1.943-.932-2.924Zm-19.27-.382a18.039,18.039,0,0,1-.552,1.774,5.481,5.481,0,0,0-.027,4.434,7.059,7.059,0,0,1-.013,5.575,5.42,5.42,0,0,0,.009,4.313,7.158,7.158,0,0,1-.024,5.637c-.134.325-.223.669-.341,1.028h1.981a9.244,9.244,0,0,1,.408-1.383,5.872,5.872,0,0,0,.033-4.978,6.368,6.368,0,0,1,.007-4.962,6.071,6.071,0,0,0,0-4.926,5.911,5.911,0,0,1-.353-3.6c.184-.847.456-1.674.7-2.536Zm-6.755,2.631V479.89a4.02,4.02,0,0,0-3.059,3.905C1034.286,486.264,1035.355,487.885,1037.391,488.407Zm34.087-8.518v8.519c2.022-.519,3.1-2.129,3.064-4.549A4.022,4.022,0,0,0,1071.478,479.889Z" transform="translate(-1028.119 -448.749)" fill="#fff"/>
        <path id="Trazado_128014" data-name="Trazado 128014" d="M1090.668,541.384c.625,0,1.179-.008,1.733,0a1.035,1.035,0,1,1,.025,2.056q-1.417.021-2.833,0a1.052,1.052,0,0,1-1.143-1.334q.484-2.952.994-5.9a1.051,1.051,0,0,1,1.18-1,1.071,1.071,0,0,1,.852,1.353C1091.215,538.146,1090.947,539.729,1090.668,541.384Z" transform="translate(-1064.678 -501.155)" fill="#fff"/>
        <path id="Trazado_128015" data-name="Trazado 128015" d="M1093.465,566.834a1.057,1.057,0,0,1-1.374,1.02,15.654,15.654,0,0,0-5.621-.334c-.636.085-1.267.213-1.9.334a1.071,1.071,0,0,1-1.393-.779,1.056,1.056,0,0,1,.938-1.231,17.931,17.931,0,0,1,8.412,0A1.069,1.069,0,0,1,1093.465,566.834Z" transform="translate(-1061.484 -519.43)" fill="#fff"/>
        <path id="Trazado_128016" data-name="Trazado 128016" d="M1109.485,519.982a13.064,13.064,0,0,1-5.266-1.038c-.7-.3-.975-.835-.739-1.416a1.059,1.059,0,0,1,1.515-.491,11.5,11.5,0,0,0,4.837.886c.258-.007.516-.012.773,0a1.027,1.027,0,1,1-.025,2.053C1110.216,520,1109.85,519.982,1109.485,519.982Z" transform="translate(-1073.754 -490.069)" fill="#fff"/>
        <path id="Trazado_128017" data-name="Trazado 128017" d="M1068.482,519.949c-.236,0-.474.017-.708,0a1.011,1.011,0,0,1-.976-1,.969.969,0,0,1,.933-1.034,20.23,20.23,0,0,0,6-1,1,1,0,0,1,1.258.712,1.034,1.034,0,0,1-.773,1.286A20.5,20.5,0,0,1,1068.482,519.949Z" transform="translate(-1051.567 -490.038)" fill="#fff"/>
      </g>
    </g>
  </g>
</svg>
