<svg xmlns="http://www.w3.org/2000/svg" width="85" height="85" viewBox="0 0 85 85">
  <g id="Grupo_135060" data-name="Grupo 135060" transform="translate(-1071.666 -1349)">
    <circle id="Elipse_4931" data-name="Elipse 4931" cx="42.5" cy="42.5" r="42.5" transform="translate(1071.666 1349)" fill="#133d60"/>
    <g id="_2Xpjd4" data-name="2Xpjd4" transform="translate(-146.043 916.871)">
      <g id="Grupo_134966" data-name="Grupo 134966" transform="translate(1237.336 443.396)">
        <path id="Trazado_128018" data-name="Trazado 128018" d="M1240.5,504.958a1.228,1.228,0,0,1-.62-1.2c.027-1.823.008-3.647.015-5.47,0-.749.348-1.162.924-1.147s.878.431.877,1.192c0,1.58,0,3.16,0,4.779h6.7q0-1.106,0-2.209c0-.24-.009-.482.008-.721a.89.89,0,1,1,1.78-.009c.035.679.013,1.362.015,2.043,0,.28,0,.559,0,.887h20.043c0-.76,0-1.531,0-2.3a4.416,4.416,0,0,1,.036-.778.818.818,0,0,1,.938-.732.787.787,0,0,1,.807.806c.032.82.015,1.643.023,2.464,0,.176.019.352.031.559h6.741a45.445,45.445,0,0,0-.289-6.3c-.653-3.616-2.991-5.87-6.524-6.864-.712-.2-1.438-.352-2.158-.523a.586.586,0,0,0-.162.005c-1.476,4.653-4.522,7.457-9.494,7.446-4.943-.011-7.972-2.811-9.439-7.445-3.277.495-6.165,1.655-7.912,4.735-.383.675-.85.871-1.356.6a.909.909,0,0,1-.283-1.346,10.238,10.238,0,0,1,6.289-5.059c2.115-.6,4.26-1.1,6.4-1.619.424-.1.593-.25.577-.71-.037-1.081,0-2.164-.024-3.245a.771.771,0,0,0-.278-.574,13.168,13.168,0,0,1-6.985-10.612,11.515,11.515,0,0,1-1.278-.167,4.53,4.53,0,0,1-1.6-8.161.871.871,0,0,0,.441-.821c-.026-1.121-.023-2.244,0-3.366a.641.641,0,0,0-.431-.681c-1.264-.6-2.516-1.23-3.769-1.856-.9-.45-.977-1.129-.2-1.764.366-.3.739-.592,1.176-.941l-3.278-1.636c-1.121-.56-1.188-1.185-.2-1.961,1.479-1.165,2.964-2.323,4.442-3.49.347-.274.76-.561,1.131-.24a3.242,3.242,0,0,1,1,1.335c.178.558-.514,1.062-1.1.841a.7.7,0,0,0-.791.168c-.858.691-1.729,1.366-2.594,2.048a1.13,1.13,0,0,0-.119.158c.985.491,1.935,1.031,2.936,1.447,1.494.621,1.555,1.5.25,2.33-.25.159-.468.368-.779.616l5.821,2.87.1-.089c-.141-.192-.279-.386-.424-.575-.584-.764-1.178-1.52-1.754-2.29a.921.921,0,0,1,.182-1.457c.307-.253.623-.494,1-.79-.428-.471-.822-.914-1.226-1.346-.373-.4-.6-.818-.238-1.336.3-.423.737-.46,1.3-.185a35.142,35.142,0,0,1,3.158-3.224,2.61,2.61,0,0,0,1.25-2.627.853.853,0,0,1,.854-1.012.922.922,0,0,1,.927.972c.011.177,0,.356,0,.576.662-.257,1.278-.483,1.88-.74a.907.907,0,0,0,.309-.337.9.9,0,0,1,1.246-.349,1.265,1.265,0,0,0,.665.111,16.393,16.393,0,0,1,5.5,0,1.358,1.358,0,0,0,.717-.124c.425-.184.864-.168,1.077.205a1.8,1.8,0,0,0,1.09.747c.389.151.773.318,1.216.5.011-.25.011-.461.032-.669a.908.908,0,0,1,.944-.889.825.825,0,0,1,.831.911c-.222,1.326.418,2.074,1.4,2.857a31.088,31.088,0,0,1,2.988,3.09c.2-.211.485-.507.763-.811.812-.886,1.614-1.782,2.434-2.661a.881.881,0,0,1,1.375-.13q2.421,1.879,4.819,3.787a.9.9,0,0,1-.19,1.633c-.565.3-1.146.572-1.719.857s-1.143.572-1.807.9c.423.343.8.645,1.178.954.749.619.689,1.3-.172,1.737-1.249.633-2.5,1.264-3.77,1.854a.707.707,0,0,0-.471.777c.025,1.1.022,2.2,0,3.306a.8.8,0,0,0,.4.78,4.466,4.466,0,0,1,1.842,5,4.517,4.517,0,0,1-4.255,3.3c-.136.006-.273.021-.267.02-.408,1.438-.776,2.8-1.194,4.148a1.057,1.057,0,0,1-.552.646,1.256,1.256,0,0,1-.929-.141c-.379-.241-.335-.651-.223-1.08.329-1.251.632-2.511.887-3.779a2.083,2.083,0,0,0-.142-1.048q-1.545-4.291-3.135-8.565a2.224,2.224,0,0,0-.447-.766c-.454-.47-.812-.41-1.194.111a12.35,12.35,0,0,1-10.233,5.126c-.841.021-1.683-.008-2.525.011a3.786,3.786,0,0,0-3.352,1.985,17.427,17.427,0,0,0-1.234,2.4,2.935,2.935,0,0,0-.076,1.463,11.261,11.261,0,0,0,19,6.622c.088-.082.168-.173.259-.25a.879.879,0,0,1,1.289-.014.854.854,0,0,1-.038,1.284c-1,.828-2.026,1.623-3.088,2.365a.909.909,0,0,0-.518.877c.037,1.061.024,2.124.005,3.185-.006.343.1.475.448.558q3.062.738,6.111,1.533a10.566,10.566,0,0,1,8.01,10.291c.01,1.743-.015,3.487.012,5.23a1.234,1.234,0,0,1-.62,1.2Zm24.514-58.917v.771q0,3.636,0,7.272a3.631,3.631,0,0,1-.016.54.877.877,0,0,1-.956.8.846.846,0,0,1-.825-.865c-.013-.179-.006-.361-.006-.541,0-2.645.006-5.289-.013-7.934,0-.2-.148-.55-.289-.587a16.39,16.39,0,0,0-1.756-.275c-.013.287-.031.5-.032.716,0,1.342,0,2.684,0,4.027,0,.541.015,1.083-.015,1.622a.884.884,0,0,1-.866.9.9.9,0,0,1-.915-.914c-.015-.179-.009-.36-.009-.541q0-2.554,0-5.109c0-.213-.021-.427-.035-.7-.535.073-1.005.165-1.478.193s-.592.219-.587.678c.024,2.224.011,4.448.011,6.671,0,.6.016,1.2-.01,1.8a.821.821,0,0,1-.832.852.845.845,0,0,1-.936-.749,2.8,2.8,0,0,1-.024-.6q0-3.636,0-7.272v-.762c-.617.289-1.132.543-1.657.773a.639.639,0,0,0-.419.694c.023,1.081.013,2.163.007,3.245,0,.7-.344,1.117-.9,1.123s-.9-.4-.9-1.1c-.006-.773,0-1.546,0-2.352a9.978,9.978,0,0,0-2.971,3.394c.207.229.425.462.634.7a.938.938,0,0,1-.137,1.542c-.336.274-.679.538-1.04.822,1.357,1.764,2.674,3.478,3.994,5.189.35.454.73.9.28,1.5-.326.43-.729.437-1.514.05q-1.831-.9-3.66-1.8c-.172-.084-.351-.153-.559-.243v2.908c.5,0,.957-.013,1.413,0a.876.876,0,0,1,.973.969c.023.641.007,1.282.008,1.923q0,.724,0,1.447a6.353,6.353,0,0,1,5.633-2.408c.6.033,1.2.021,1.8,0a10.641,10.641,0,0,0,9.064-5.017,1.293,1.293,0,0,1,.962-.545,21.34,21.34,0,0,1,2.537.493l3.361-4.374a6.619,6.619,0,0,1-1.378-1.531c-.331-.762.628-1.1.913-1.705a13.488,13.488,0,0,0-2.983-3.414c0,.909,0,1.681,0,2.452-.005.708-.337,1.109-.9,1.106s-.9-.419-.9-1.117c-.007-1.1.007-2.2-.011-3.305a.66.66,0,0,0-.2-.5C1266.3,446.638,1265.7,446.372,1265.009,446.04Zm-8.744,37.063c0,1.563-.071,3.046.017,4.519a3.91,3.91,0,0,0,3.747,3.624,3.867,3.867,0,0,0,4.045-3.269,23.4,23.4,0,0,0,.1-3.052c.011-.586,0-1.173,0-1.819A13.587,13.587,0,0,1,1256.266,483.1Zm9.639,5.331c-.845,2.795-2.61,4.515-5.524,4.586-3.084.074-4.96-1.665-5.868-4.58l-1.906.48a7.756,7.756,0,0,0,15.2,0Zm11.388-39.9-4.191,4.6c.307.245.539.433.772.619.859.682.9,1,.219,1.887-.583.762-1.173,1.52-1.755,2.284a5.767,5.767,0,0,0-.292.5l5.985-2.956c-.424-.334-.768-.6-1.111-.875-.879-.7-.809-1.356.2-1.862,1.1-.552,2.2-1.1,3.366-1.684Zm-30.166,15.822a2.56,2.56,0,0,0-2.611,1.233,2.712,2.712,0,0,0,.127,3.042,2.444,2.444,0,0,0,2.484,1.022Zm26.17,5.383a2.675,2.675,0,0,0,2.717-1.506,2.558,2.558,0,0,0-.307-2.917,2.52,2.52,0,0,0-2.409-.995Zm.563-10.2-3.912,1.925,1.382,3.755a9.3,9.3,0,0,0,.135-1.739c.023-.687.32-.978,1-1,.453-.014.908,0,1.4,0Z" transform="translate(-1237.336 -443.396)" fill="#fff"/>
        <path id="Trazado_128019" data-name="Trazado 128019" d="M1284.8,522.426a2.857,2.857,0,0,1-2.849-2.619.947.947,0,0,1,.772-1.105.9.9,0,0,1,1.018.854q.184,1.033,1.01,1.065c.582.021.935-.318,1.085-1.043.128-.619.494-.938,1-.878.534.064.823.494.772,1.15A2.82,2.82,0,0,1,1284.8,522.426Z" transform="translate(-1266.987 -493.442)" fill="#fff"/>
        <path id="Trazado_128020" data-name="Trazado 128020" d="M1315.051,522.426a2.827,2.827,0,0,1-2.821-2.7.895.895,0,1,1,1.776-.209c.172.793.5,1.123,1.1,1.1.564-.022.865-.357,1.014-1.126a.9.9,0,0,1,1.014-.793.939.939,0,0,1,.774,1.047A2.856,2.856,0,0,1,1315.051,522.426Z" transform="translate(-1287.114 -493.442)" fill="#fff"/>
        <path id="Trazado_128021" data-name="Trazado 128021" d="M1298.378,542.558a4.636,4.636,0,0,1,3.22,1.25.92.92,0,0,1,.17,1.37.9.9,0,0,1-1.336,0,2.919,2.919,0,0,0-4.075-.013.905.905,0,1,1-1.192-1.344A4.628,4.628,0,0,1,1298.378,542.558Z" transform="translate(-1275.511 -509.305)" fill="#fff"/>
        <path id="Trazado_128022" data-name="Trazado 128022" d="M1302.9,478.213a4.646,4.646,0,0,1,.005-.659.826.826,0,0,1,.9-.781.8.8,0,0,1,.846.768,7.826,7.826,0,0,1,0,1.437.878.878,0,0,1-1.744.014,5.867,5.867,0,0,1-.006-.778Z" transform="translate(-1280.91 -465.58)" fill="#fff"/>
        <path id="Trazado_128023" data-name="Trazado 128023" d="M1281.485,476.431a4.443,4.443,0,0,1-.007.719.89.89,0,0,1-1.776-.085c-.021-.379-.015-.761,0-1.142a.894.894,0,0,1,.845-.973.9.9,0,0,1,.951.939c.012.179,0,.361,0,.541Z" transform="translate(-1265.486 -464.368)" fill="#fff"/>
        <path id="Trazado_128024" data-name="Trazado 128024" d="M1327.8,476.454c0,.2.011.4,0,.6a.9.9,0,0,1-.866.9.89.89,0,0,1-.918-.849,8.253,8.253,0,0,1,0-1.321.875.875,0,0,1,.927-.832.884.884,0,0,1,.856.9C1327.809,476.052,1327.8,476.254,1327.8,476.454Z" transform="translate(-1296.258 -464.369)" fill="#fff"/>
      </g>
    </g>
  </g>
</svg>
