<svg xmlns="http://www.w3.org/2000/svg" width="85" height="85" viewBox="0 0 85 85">
  <g id="Grupo_135055" data-name="Grupo 135055" transform="translate(-653.666 -1561)">
    <circle id="Elipse_4935" data-name="Elipse 4935" cx="42.5" cy="42.5" r="42.5" transform="translate(653.666 1561)" fill="#133d60"/>
    <g id="TGvAC9" transform="translate(-1069.504 1321.31)">
      <g id="Grupo_134957" data-name="Grupo 134957" transform="translate(1736.17 252.69)">
        <path id="Trazado_127943" data-name="Trazado 127943" d="M1767.505,252.69c1.118.154,2.243.271,3.353.469a29.143,29.143,0,0,1,14.109,6.731.906.906,0,0,1,.227,1.353c-.363.4-.836.4-1.375-.063a27.244,27.244,0,0,0-8.96-5.192,27.552,27.552,0,0,0-34.6,15.095c-4.41,10.353-2.848,20.106,4.144,28.956.131.166.275.321.4.492a.825.825,0,0,1-.094,1.189.841.841,0,0,1-1.231-.114c-.621-.73-1.24-1.469-1.791-2.252a29.077,29.077,0,0,1-5.316-20.523,29.421,29.421,0,0,1,23.592-25.568c1.315-.247,2.651-.385,3.977-.573Z" transform="translate(-1736.17 -252.69)" fill="#fff"/>
        <path id="Trazado_127944" data-name="Trazado 127944" d="M1803,291.764c-.146,1.1-.258,2.207-.443,3.3a29.276,29.276,0,0,1-22.2,23.634c-9.707,2.228-18.444.045-26.117-6.323-.526-.437-.636-.933-.323-1.344.344-.452.832-.438,1.414,0,1.166.874,2.292,1.815,3.525,2.585a27.737,27.737,0,0,0,41.42-16.3c2.468-9.307.49-17.781-5.624-25.256-.061-.074-.126-.145-.184-.221-.419-.539-.412-1.033.017-1.37a.915.915,0,0,1,1.31.263,29.125,29.125,0,0,1,6.734,14.1c.2,1.111.315,2.236.47,3.354Z" transform="translate(-1744.007 -260.538)" fill="#fff"/>
        <path id="Trazado_127945" data-name="Trazado 127945" d="M1779.985,316.085a34.109,34.109,0,0,1,7.645,1.041,5.523,5.523,0,0,1,4.257,5.727,5.463,5.463,0,0,1-5.359,5.087,6.673,6.673,0,0,1-1.7-.219,25.47,25.47,0,0,0-11.854.052,5.47,5.47,0,1,1-2.542-10.641A37.341,37.341,0,0,1,1779.985,316.085Zm-12.038,6.13a43.893,43.893,0,0,1,22.155-.009,3.6,3.6,0,0,0-3.04-3.429c-1.862-.352-3.735-.693-5.619-.86a31,31,0,0,0-10.778.947A3.579,3.579,0,0,0,1767.947,322.215Zm.285,1.714a3.668,3.668,0,0,0,3.9,2.247c1.91-.3,3.818-.664,5.741-.822a26.892,26.892,0,0,1,7.985.806,3.6,3.6,0,0,0,3.981-2.226A41.984,41.984,0,0,0,1768.233,323.929Z" transform="translate(-1749.545 -280.952)" fill="#fff"/>
        <path id="Trazado_127946" data-name="Trazado 127946" d="M1801.067,300.125a12.4,12.4,0,0,1,.237-1.871,3.051,3.051,0,0,1,2.813-2.18.873.873,0,0,1,1.025.769c.043.468-.258.8-.825.92a1.521,1.521,0,0,0-1.458,1.778c0,.518-.014,1.037.01,1.554a1.446,1.446,0,0,0,1.393,1.41,1.467,1.467,0,0,0,1.469-1.342c.042-.438.01-.882.022-1.324.018-.645.331-1,.863-1a.86.86,0,0,1,.855.958,11.082,11.082,0,0,1-.058,1.665,3.146,3.146,0,0,1-6.265-.242c-.022-.363,0-.729,0-1.093Z" transform="translate(-1765.102 -272.031)" fill="#fff"/>
        <path id="Trazado_127947" data-name="Trazado 127947" d="M1772.488,300.565c0,1.779-.647,2.907-1.978,3.441a3.122,3.122,0,0,1-4.29-2.514,12.96,12.96,0,0,1,.006-2.753,3.057,3.057,0,0,1,2.935-2.668.851.851,0,0,1,1,.727c.061.5-.211.836-.771.955-1.16.246-1.515.679-1.517,1.858,0,.461-.014.923,0,1.383a1.484,1.484,0,0,0,1.487,1.51,1.461,1.461,0,0,0,1.4-1.528c.013-.422-.017-.847.018-1.267a.834.834,0,0,1,.881-.865c.5.014.8.337.827.913C1772.5,300.026,1772.488,300.3,1772.488,300.565Z" transform="translate(-1749.535 -272.029)" fill="#fff"/>
        <path id="Trazado_127948" data-name="Trazado 127948" d="M1808.195,272.537c-.557-.531-1.035-.974-1.5-1.432-.575-.569-.655-1.1-.244-1.489s.875-.321,1.448.248c.475.472.943.952,1.479,1.495.528-.552,1.007-1.071,1.506-1.57s.967-.552,1.362-.173.359.88-.163,1.4c-.488.489-.99.963-1.587,1.541.593.559,1.165,1.064,1.694,1.61a.841.841,0,0,1-.119,1.412.883.883,0,0,1-1.139-.241c-.5-.522-1-1.054-1.567-1.654-.564.585-1.047,1.1-1.547,1.6s-.981.538-1.363.172-.346-.9.16-1.4C1807.1,273.567,1807.608,273.1,1808.195,272.537Z" transform="translate(-1767.387 -260.124)" fill="#fff"/>
        <path id="Trazado_127949" data-name="Trazado 127949" d="M1772.822,290.6a.792.792,0,0,1-.86.855,2.035,2.035,0,0,1-.655-.189q-3.831-1.7-7.656-3.408a2.262,2.262,0,0,1-.5-.274.711.711,0,0,1-.228-1.011,1.951,1.951,0,0,1,.885-.468c.113-.04.29.068.429.13q3.935,1.745,7.868,3.495C1772.487,289.9,1772.818,290.12,1772.822,290.6Z" transform="translate(-1748.038 -267.585)" fill="#fff"/>
        <path id="Trazado_127950" data-name="Trazado 127950" d="M1798.63,291.53c-.206-.186-.572-.361-.621-.6a1.586,1.586,0,0,1,.247-.971c.092-.167.381-.235.589-.328q3.748-1.672,7.5-3.336a2.9,2.9,0,0,1,.593-.207.769.769,0,0,1,.9.453.788.788,0,0,1-.232,1.029,2.27,2.27,0,0,1-.5.274q-3.826,1.708-7.656,3.408C1799.224,291.351,1798.983,291.412,1798.63,291.53Z" transform="translate(-1763.733 -267.57)" fill="#fff"/>
      </g>
    </g>
  </g>
</svg>
