<svg xmlns="http://www.w3.org/2000/svg" width="85" height="85" viewBox="0 0 85 85">
  <g id="Grupo_135053" data-name="Grupo 135053" transform="translate(-231.666 -1561)">
    <circle id="Elipse_4934" data-name="Elipse 4934" cx="42.5" cy="42.5" r="42.5" transform="translate(231.666 1561)" fill="#133d60"/>
    <g id="Grupo_134958" data-name="Grupo 134958" transform="translate(-1791.788 1310.149)">
      <path id="Trazado_127951" data-name="Trazado 127951" d="M2121.467,291.362q0-13.205,0-26.41a1.382,1.382,0,0,0-.069-.618.7.7,0,0,0-.8-.463.691.691,0,0,0-.635.672c-.006.168,0,.335,0,.5v26.222a2.709,2.709,0,0,0,.009.5.7.7,0,0,0,.727.639.715.715,0,0,0,.76-.608A1.808,1.808,0,0,0,2121.467,291.362Z" transform="translate(-29.023 -0.002)" fill="#fff"/>
      <path id="Trazado_127952" data-name="Trazado 127952" d="M2088.16,263.851c-.484,0-.748.356-.749,1.017q0,4.15,0,8.3a32.683,32.683,0,0,1-2.021-2.9q0-2.166.009-4.333c0-.419.01-.838,0-1.256-.017-.486-.264-.826-.762-.814a.708.708,0,0,0-.746.818,9.173,9.173,0,0,1,0,.941,10.511,10.511,0,0,1-.1,2.355c-.652-.736-1.141-.725-1.906.043h0c0-1.068,0-2.137-.006-3.206,0-.609-.292-.963-.754-.965s-.75.349-.752.949c0,1.153,0,2.305,0,3.458h0a11.482,11.482,0,0,0-2.008-1.156c0-.77.005-1.539,0-2.309-.008-.6-.3-.949-.767-.942s-.708.353-.749.951c-.035.526.164,1.074-.128,1.578a11.277,11.277,0,0,0-1.876-.407h0c0-.461.02-.923-.012-1.381a.709.709,0,0,0-.72-.728c-.412-.008-.8.21-.76.657.052.647-.029,1.135-.574,1.279h-.027a.877.877,0,0,0-.425.048,3.823,3.823,0,0,0-2.737,1.711c-.251.378-.347.325-.587,0a3.8,3.8,0,0,0-2.954-1.7,42.8,42.8,0,0,0-6.97.113,15.192,15.192,0,0,0-12.539,11.6c-.617,2.821-.3,5.679-.371,8.522-.01.389.258.522.628.54.963.049.962.058.962,1.031a5.837,5.837,0,0,0,0,.629,1.215,1.215,0,0,1-.476,1.138,4.7,4.7,0,0,0-1.618,3.49,5.007,5.007,0,0,0,4.5,5.156.887.887,0,0,1,.9.718,14.332,14.332,0,0,0,6.3,8.257,2.154,2.154,0,0,1,1.186,2.351c-.038.4-.165.489-.527.475-.607-.022-1.216-.012-1.824,0a8.141,8.141,0,0,0-7.65,7.13c-.229,2.529-.05,5.07-.09,7.6-.012.74.13.864.887.864q16.542,0,33.085,0c.721,0,.835-.115.835-.843,0-2.222.008-4.445,0-6.667a7.5,7.5,0,0,0-.834-3.511,8.1,8.1,0,0,0-7.884-4.591c-1.353.028-1.325,0-1.366-1.314a1.092,1.092,0,0,1,.638-1.125,14.962,14.962,0,0,0,6.858-8.658.849.849,0,0,1,.853-.692,5.019,5.019,0,0,0,2.8-8.767c-.17-.158-.351-.284-.34-.559.037-.878-.059-1.759.052-2.635a.815.815,0,0,0,.977.15.953.953,0,0,0,.394-.924c0-1.456.006-2.912.011-4.368h0a5.872,5.872,0,0,0,1.871-1.544h0c.225.2.122.474.122.712q.011,5.66.006,11.319c0,.639.248.94.748.94s.759-.305.759-.933q0-13.3,0-26.6C2088.919,264.213,2088.64,263.849,2088.16,263.851Zm-15.514,3.189a1.341,1.341,0,0,0,.581-.167,1.853,1.853,0,0,0-.108.832q0,6.066,0,12.134a2.889,2.889,0,0,0,.063.812.882.882,0,0,0,.812.68.866.866,0,0,0,.9-.547,1.515,1.515,0,0,0,.13-.673c.006-4.347.027-8.694-.011-13.041a3.339,3.339,0,0,0,1.644.42c0,.041,0,.082,0,.122-.026,4.16-.007,8.321-.008,12.483a1.988,1.988,0,0,0,.048.5.89.89,0,0,0,.9.734.854.854,0,0,0,.877-.671,1.56,1.56,0,0,0,.012-.968,6.132,6.132,0,0,0,1.93,1.467,1.144,1.144,0,0,0-.041.528c-.014,1.124-.017,2.249-.024,3.373-.016-.013-.022-.03-.041-.041a2.133,2.133,0,0,0-.867-.091c-1.214,0-2.43.016-3.644-.005a5.937,5.937,0,0,1-5.685-5.764q-.014-4.617,0-9.234A2.671,2.671,0,0,1,2072.646,267.04Zm-24.9,18.578c-.469,0-.614-.133-.606-.6.027-1.593-.066-3.191.027-4.779a14.23,14.23,0,0,1,9.563-12.675,11.811,11.811,0,0,1,4.174-.7c1.614.034,3.229,0,4.843.009a3.122,3.122,0,0,1,3.042,3.05q0,4.5,0,8.994a6.358,6.358,0,0,1-1.5,3.971,7.009,7.009,0,0,1-6.023,2.738c-2.1-.044-4.194-.009-6.29-.009C2052.57,285.609,2050.159,285.6,2047.748,285.618Zm29.207,25.513a7.094,7.094,0,0,1,5.172,5.788c.3,2.4.058,4.812.126,7.218.007.234-.088.352-.331.342-.167-.007-.335,0-.5,0q-15.6,0-31.193.013c-.609,0-.832-.108-.812-.779.054-1.8.01-3.6.02-5.407a7.212,7.212,0,0,1,4.642-6.956,6.216,6.216,0,0,1,2.322-.459c.9.005,1.8.006,2.7.009h0a.685.685,0,0,0,.425-.756c-.021-.4.016-.8-.012-1.192-.034-.5.058-.678.614-.447a14.682,14.682,0,0,0,6,1.1,14.482,14.482,0,0,0,5.435-1.093c.523-.224.658-.1.616.433-.034.416.01.837-.013,1.254a.649.649,0,0,0,.414.7A19.428,19.428,0,0,1,2076.955,311.131Zm7.94-19.1a4.049,4.049,0,0,1-4.075,5.1.779.779,0,0,0-.931.671c-1.748,5.995-5.716,9.566-11.864,10.582a14.315,14.315,0,0,1-16.211-10.533c-.141-.538-.358-.752-.951-.719a4.078,4.078,0,0,1-4.206-3.812,3.977,3.977,0,0,1,3.847-4.192c.611-.026.848-.256.846-.876-.006-1.615.014-1.615,1.6-1.615q4.214,0,8.429,0a8.113,8.113,0,0,0,7.724-4.757c.046-.091.1-.18.209-.4a7.527,7.527,0,0,0,3.006,3.584,6.953,6.953,0,0,0,3.633,1.051c1.216.009,2.434.038,3.647-.012.627-.026.814.2.767.784-.036.438-.005.88,0,1.32,0,.767.1.871.847.907A3.99,3.99,0,0,1,2084.895,292.026Zm-2.834-10.053a.751.751,0,0,0-.073-.3,4.142,4.142,0,0,0,1.79-.02,1.082,1.082,0,0,0-.083.438q-.018,1.214,0,2.428a.988.988,0,0,0,.122.5,3.845,3.845,0,0,0-1.85-.026c-.007,0-.009.01-.015.014a.649.649,0,0,0,.1-.305C2082.1,283.8,2082.087,282.885,2082.06,281.973Zm4.785-3.74a4.428,4.428,0,0,1-3.92,2.359,4.482,4.482,0,0,1-4.035-2.4,4.025,4.025,0,0,1,.327-4.439c1.115-1.62,2.234-3.238,3.337-4.866.228-.336.35-.441.629-.022,1.1,1.653,2.242,3.282,3.365,4.922A4.043,4.043,0,0,1,2086.846,278.233Z" transform="translate(0 0)" fill="#fff"/>
      <path id="Trazado_127953" data-name="Trazado 127953" d="M2092.845,303.58c-.167,0-.335,0-.5,0a11.908,11.908,0,0,1-7.038-1.864c-.3-.2-.658-.41-.924.018-.3.477.121.661.438.861a14.125,14.125,0,0,0,2.966,1.413,2.031,2.031,0,0,0-1.269,2.124c.033.857,0,1.716.009,2.574a1.836,1.836,0,0,0,1.778,1.9,1.863,1.863,0,0,0,1.851-1.9c.018-.774-.011-1.549.009-2.323a2.646,2.646,0,0,0-.542-1.923c.3.016.468.01.631.038a17.3,17.3,0,0,0,2.568.087c.357.007.638-.119.628-.525C2093.438,303.692,2093.184,303.569,2092.845,303.58Z" transform="translate(-15.089 -14.702)" fill="#fff"/>
      <path id="Trazado_127954" data-name="Trazado 127954" d="M2067.361,301.771c-.212-.385-.539-.316-.856-.107a12.184,12.184,0,0,1-7.461,1.919c-.373-.017-.777,0-.786.486s.381.523.763.521a17.907,17.907,0,0,0,3.053-.165,2.342,2.342,0,0,0-.573,1.781c.019.815,0,1.632.007,2.448a1.839,1.839,0,0,0,1.779,1.954,1.891,1.891,0,0,0,1.849-1.969c.012-.732-.021-1.466.009-2.2a2.192,2.192,0,0,0-1.256-2.417,15.037,15.037,0,0,0,3.135-1.494C2067.312,302.35,2067.557,302.127,2067.361,301.771Z" transform="translate(-4.924 -14.705)" fill="#fff"/>
      <path id="Trazado_127955" data-name="Trazado 127955" d="M2067.271,313.46c-.326-.057-.471.2-.5.5a3.123,3.123,0,0,1-.069.368,2.358,2.358,0,0,1-2.335,1.966,2.409,2.409,0,0,1-2.242-2.213c-.043-.352-.174-.648-.559-.613a.505.505,0,0,0-.45.656,3.362,3.362,0,0,0,3.375,3.167,3.4,3.4,0,0,0,3.277-3.2A.578.578,0,0,0,2067.271,313.46Z" transform="translate(-6.035 -19.376)" fill="#fff"/>
      <path id="Trazado_127956" data-name="Trazado 127956" d="M2091.671,313.484c-.37-.034-.5.23-.548.607a2.306,2.306,0,0,1-3.105,2.046,2.255,2.255,0,0,1-1.534-2.031c-.021-.355-.16-.652-.546-.623s-.5.328-.461.69c.011.1,0,.211.016.313a3.344,3.344,0,0,0,6.641-.3C2092.156,313.835,2092.043,313.517,2091.671,313.484Z" transform="translate(-15.554 -19.387)" fill="#fff"/>
      <path id="Trazado_127957" data-name="Trazado 127957" d="M2076.573,322.5c-.374.036-.752.051-1.122.11a2.782,2.782,0,0,0-2.386,2.321c-.012.329.059.608.417.661s.538-.193.581-.516a1.7,1.7,0,0,1,1.572-1.462,4.677,4.677,0,0,1,1.5-.048c1,.112,1.766.491,1.957,1.6a.456.456,0,0,0,.578.426.517.517,0,0,0,.4-.623,2.342,2.342,0,0,0-.6-1.353A3.717,3.717,0,0,0,2076.573,322.5Z" transform="translate(-10.708 -22.912)" fill="#fff"/>
    </g>
  </g>
</svg>
