<svg xmlns="http://www.w3.org/2000/svg" width="108.508" height="85.48" viewBox="0 0 108.508 85.48">
  <g id="Grupo_133803" data-name="Grupo 133803" transform="translate(-221.076 -3021)">
    <g id="Grupo_78348" data-name="Grupo 78348" transform="translate(221.076 3021)">
      <path id="Trazado_113319" data-name="Trazado 113319" d="M1572.434,1094v-8.714h-8.783v-6.015h8.783v-8.714h5.855v8.714h8.806v6.015h-8.806V1094Z" transform="translate(-1563.651 -1070.555)" fill="#5bd3a9"/>
    </g>
    <g id="A0tsRq" transform="translate(246.076 3021)">
      <g id="Grupo_133643" data-name="Grupo 133643" transform="translate(0 0)">
        <path id="Trazado_126659" data-name="Trazado 126659" d="M2351.445,321.711c0-2.166-.014-4.2,0-6.224a31.382,31.382,0,0,1,.465-7.4,15.694,15.694,0,0,1,3.111-6.395,26.542,26.542,0,0,0,4.715-7.628,2.247,2.247,0,0,0,.22-.709c.016-2.446.01-4.891.01-7.448-.686,0-1.315,0-1.945,0-1.8-.011-2.423-1.042-1.563-2.606,1.5-2.73,3.022-5.449,4.5-8.193a2.808,2.808,0,0,0,.336-1.408c-.063-1.192-.257-2.376-.364-3.567-.066-.727-.342-.995-1.142-.986-4.649.047-9.3.015-13.949.026a9.328,9.328,0,0,1-7.018-2.765,8.882,8.882,0,0,1-2.627-6.223c-.008-.395-.037-.7-.513-.795a6.784,6.784,0,0,1-5.228-7.012,3.627,3.627,0,0,0-.107-.578,51.629,51.629,0,0,0-5.176,2.613c-7.417,4.827-11.138,11.727-11.3,20.579a46.936,46.936,0,0,1-.427,6.9,15.069,15.069,0,0,1-4.557,8.184c-1.008,1-2.044,1.977-2.991,3.032a1.8,1.8,0,0,0-.421,1.3c.09.6.683.719,1.254.715,1.393-.008,2.784-.005,4.177,0,2.032.005,2.96.931,2.981,2.943a46.106,46.106,0,0,0,.106,4.923A10.169,10.169,0,0,0,2324,312.17a5.62,5.62,0,0,1,5.3,3.277,8.2,8.2,0,0,1,.59,2.738c.1,1.128.023,2.271.023,3.525h.957c2.061,0,4.121-.005,6.181,0,1.049,0,1.613.469,1.593,1.283-.019.777-.568,1.215-1.574,1.218-2.283.008-4.566.013-6.849,0a2.638,2.638,0,0,1-2.812-2.833c-.013-1,0-2.005,0-3.008-.005-2.367-1.193-3.6-3.551-3.7a12.664,12.664,0,0,1-11.758-8.726,19.178,19.178,0,0,1-.693-4.345c-.11-1.271-.023-2.558-.023-3.975-1.1,0-2.178.047-3.247-.013a10.132,10.132,0,0,1-3.182-.395,3.442,3.442,0,0,1-1.153-5.564c.972-1.071,2.015-2.08,3.057-3.085a14.137,14.137,0,0,0,4.533-10.91,33.935,33.935,0,0,1,.792-9.373,25.837,25.837,0,0,1,13.816-17.2c1.572-.8,3.317-1.26,4.971-1.906a2.368,2.368,0,0,0,.935-.616,6.881,6.881,0,0,1,5.622-2.605,2.029,2.029,0,0,0,1.172-.427,5.451,5.451,0,0,1,3.365-1.279,1.16,1.16,0,0,0,1.194-.764,7.916,7.916,0,0,1,5.828-4.56c3.414-.6,6.475.172,8.722,3.072.116.15.256.283.4.439a11.88,11.88,0,0,1,18.47,8.574,9.457,9.457,0,0,1,5.327.968,9.092,9.092,0,0,1,4.232,4.654,1.244,1.244,0,0,1-.53,1.651,1.262,1.262,0,0,1-1.7-.586,14.486,14.486,0,0,0-1.126-1.844,6.5,6.5,0,0,0-6.439-2.272c-1.525.25-2.159-.245-2.255-1.826a9.288,9.288,0,0,0-14.469-7.3c-.5.32-.343.643-.281,1.06.07.479.317.54.734.568a6.745,6.745,0,0,1,.524,13.459c-.694.045-1.391.058-2.086.058q-9.4.007-18.794,0h-.97a6.311,6.311,0,0,0,2.956,5.993,7.528,7.528,0,0,0,4.058,1.06q15.746.006,31.492,0a6.694,6.694,0,0,0,6.476-3.884c.442-.879,1.128-1.17,1.81-.831s.845,1.079.408,1.952a9.058,9.058,0,0,1-8.687,5.265c-4.316.02-8.631,0-12.948,0h-1.071l.357,2.268c1.335.422,1.6.786,1.6,2.179q.005,2.966,0,5.932v.992c.812,0,1.529-.017,2.246,0a1.461,1.461,0,0,1,1.375,2.336q-3.019,5.529-6.085,11.034c-1.167,2.107-2.293,4.239-3.539,6.3a28.587,28.587,0,0,1-2.275,2.985,13.486,13.486,0,0,0-3.029,8.315c-.074,3.173-.023,6.349-.029,9.524,0,2.179-.991,3.174-3.154,3.176-2.4,0-4.79,0-7.184,0a1.376,1.376,0,0,1-1.492-.825c-.337-.882.291-1.67,1.363-1.678,2.31-.019,4.622-.007,6.933-.007ZM2348.7,257.1c.279,0,.557,0,.835,0,3.646-.014,7.295.047,10.938-.069a4.123,4.123,0,0,0,3.723-5.024c-.519-2.34-2.384-3.58-5-3.329-1.46.14-1.943-.25-2.073-1.674a6.151,6.151,0,0,0-11.921-1.768c-.546,1.32-1.085,1.558-2.5,1.558a3.541,3.541,0,0,0-2.231.621,4.042,4.042,0,0,1-3.241,1.093,4.212,4.212,0,0,0-4.227,3.54,4.124,4.124,0,0,0,2.65,4.664,7.729,7.729,0,0,0,2.449.371C2341.63,257.125,2345.166,257.1,2348.7,257.1Zm13.78,31.94.158.031q1.566-2.839,3.13-5.682a.709.709,0,0,0,.028-.25,1.067,1.067,0,0,0-.234-.077c-2.781-.216-2.781-.215-2.781-3.055V277.43c-1.231,1.844-2.264,3.709-3.292,5.577a2.457,2.457,0,0,0-.121.4c.443,0,.822,0,1.2,0,1.418.014,1.9.5,1.91,1.9C2362.485,286.552,2362.481,287.8,2362.481,289.043Z" transform="translate(-2302.84 -238.744)" fill="#fff"/>
        <path id="Trazado_126660" data-name="Trazado 126660" d="M2364.294,302.462c-.813,0-1.529.022-2.244,0a1.477,1.477,0,0,1-1.385-2.348c2.022-3.71,4.074-7.4,6.113-11.105a1.443,1.443,0,0,1,1.72-.848,1.463,1.463,0,0,1,1.1,1.645c-.015,2.39-.005,4.781-.005,7.3.8,0,1.542-.018,2.283,0a1.464,1.464,0,0,1,1.365,2.342c-2.011,3.685-4.052,7.352-6.075,11.03a1.495,1.495,0,0,1-2.869-.765c-.01-2.087,0-4.175,0-6.262Zm2.507,3.071.195.035q.8-1.445,1.6-2.89c.544-.984,1.086-1.97,1.637-2.971a1.608,1.608,0,0,0-.264-.087c-2.881-.2-2.881-.2-2.881-3.149v-2.493l-.186-.011-3.3,6c.724,0,1.248-.027,1.768.007a1.362,1.362,0,0,1,1.4,1.357c.039.414.025.833.027,1.25C2366.8,303.565,2366.8,304.548,2366.8,305.533Z" transform="translate(-2322.139 -255.295)" fill="#fff"/>
        <path id="Trazado_126661" data-name="Trazado 126661" d="M2414.624,297.1c.858,0,1.578-.019,2.3,0,1.386.043,2.033,1.071,1.38,2.273-2.033,3.737-4.1,7.455-6.154,11.18a1.435,1.435,0,0,1-1.734.812,1.381,1.381,0,0,1-1.06-1.5c-.008-2.144-.005-4.287-.007-6.431v-.97c-.828,0-1.549.022-2.268,0-1.43-.053-2.061-1.1-1.381-2.344,2.009-3.687,4.048-7.357,6.07-11.036a1.491,1.491,0,0,1,1.764-.923,1.462,1.462,0,0,1,1.1,1.65c-.013,2.088,0,4.176,0,6.264Zm-2.77,8.4.215.021c1.063-1.932,2.125-3.864,3.25-5.911-.411,0-.658,0-.905,0-1.908-.012-2.294-.4-2.295-2.308q0-1.642,0-3.285l-.178-.039-3.279,5.943c.409.019.676.04.943.041,1.879.009,2.249.376,2.251,2.245Q2411.856,303.847,2411.854,305.494Z" transform="translate(-2337.24 -255.295)" fill="#fff"/>
      </g>
    </g>
  </g>
</svg>
