<svg xmlns="http://www.w3.org/2000/svg" xmlns:xlink="http://www.w3.org/1999/xlink" width="504.819" height="613.779" viewBox="0 0 504.819 613.779">
  <defs>
    <linearGradient id="linear-gradient" x1="179.199" y1="0.5" x2="180.199" y2="0.5" gradientUnits="objectBoundingBox">
      <stop offset="0.021" stop-color="#ffc1a8"/>
      <stop offset="0.327" stop-color="#ffbda4"/>
      <stop offset="0.612" stop-color="#ffb399"/>
      <stop offset="0.888" stop-color="#ffa286"/>
      <stop offset="0.903" stop-color="#ffa185"/>
    </linearGradient>
    <linearGradient id="linear-gradient-2" x1="167.648" y1="1.174" x2="166.281" y2="-0.311" xlink:href="#linear-gradient"/>
    <linearGradient id="linear-gradient-3" x1="401.182" y1="-0.238" x2="403.016" y2="1.294" xlink:href="#linear-gradient"/>
  </defs>
  <g id="Grupo_135038" data-name="Grupo 135038" transform="translate(599.97 -55.606)">
    <rect id="Rectángulo_36002" data-name="Rectángulo 36002" width="504.819" height="613.779" transform="translate(-599.97 55.606)" fill="#d2f3e8"/>
    <circle id="Elipse_4958" data-name="Elipse 4958" cx="88.947" cy="88.947" r="88.947" transform="translate(-534.345 109.954)" fill="#5bd3a9"/>
    <circle id="Elipse_4959" data-name="Elipse 4959" cx="22.375" cy="22.375" r="22.375" transform="translate(-238.636 212.925)" fill="#5bd3a9"/>
    <g id="Grupo_134228" data-name="Grupo 134228">
      <path id="Trazado_127198" data-name="Trazado 127198" d="M-241.321,415.912a8.448,8.448,0,0,1-8.448,8.448,8.448,8.448,0,0,1-8.448-8.448,8.448,8.448,0,0,1,8.448-8.448A8.448,8.448,0,0,1-241.321,415.912Z" fill="#5bd3a9"/>
    </g>
    <g id="Grupo_134229" data-name="Grupo 134229">
      <path id="Trazado_127199" data-name="Trazado 127199" d="M-95.151,269.888v-.815c-132.26,22.085-127.276,160.95-125.124,220.6.228,6.305.424,11.75.424,16.077,0,18.482-5.066,29.739-17.487,38.853s-31.782,16.012-61.106,26.467c-12.734,4.542-27.169,9.688-43.6,15.939-47.464,18.057-63.956,43.2-69.432,61.11a63.556,63.556,0,0,0-2.721,21.264h.8a62.774,62.774,0,0,1,2.7-21.076c9.843-32.113,42.921-50.65,68.934-60.548,16.422-6.247,30.852-11.392,43.583-15.93,57.582-20.533,79.127-28.214,79.127-66.079,0-4.343-.2-9.794-.424-16.106C-221.614,430.228-226.579,291.935-95.151,269.888Z" fill="#5bd3a9"/>
      <path id="Trazado_127200" data-name="Trazado 127200" d="M-95.151,669.385V293.151c-107.6,15.592-112.981,130.232-107.311,188.35,5.829,59.746-10.2,75.776-102.005,109.292-70.808,25.851-86.133,62.964-89.44,78.592Z" fill="#5bd3a9"/>
    </g>
    <g id="Grupo_134230" data-name="Grupo 134230">
      <path id="Trazado_127201" data-name="Trazado 127201" d="M-184.588,100.461c8.947,47.72,13.423,90.967,89.437,67.145v-112H-205.043A105.029,105.029,0,0,1-184.588,100.461Z" fill="#5bd3a9"/>
      <path id="Trazado_127202" data-name="Trazado 127202" d="M-95.151,188.242q-15.529.757-40.578,8.795c-11.117,3.574-20.4,3.086-28.385-1.492-15.079-8.644-26.154-32.08-35.911-75.988-7.289-32.8-17.807-52.526-26.268-63.951h-.984c8.443,11.25,19.1,30.972,26.466,64.126,9.811,44.147,21.005,67.744,36.3,76.511a29.814,29.814,0,0,0,15.142,3.957,45.481,45.481,0,0,0,13.888-2.4q24.963-8.023,40.333-8.79Z" fill="#5bd3a9"/>
    </g>
    <path id="Trazado_127203" data-name="Trazado 127203" d="M-283.843,205.622A134.836,134.836,0,0,0-418.679,70.786,134.833,134.833,0,0,0-553.4,200.289h-.108V205.1c0,.176-.006.35-.006.525s.006.35.006.526v421.32h269.4V214.008C-283.94,211.233-283.843,208.439-283.843,205.622Z" transform="translate(-4.434)" fill="#5bd3a9" opacity="0.354"/>
    <g id="Grupo_134234" data-name="Grupo 134234">
      <g id="Grupo_134231" data-name="Grupo 134231">
        <path id="Trazado_127204" data-name="Trazado 127204" d="M-469.745,247.515h-32.436l-6.292,21.2h-26.668l35.582-109.069H-486v.074l.075-.074h13.558l35.658,109.069h-26.669Zm-26.593-19.477h20.75l-10.188-33.859h-.449Z" fill="#5bd3a9"/>
        <path id="Trazado_127205" data-name="Trazado 127205" d="M-345.994,231.934l.15.449q.3,18.652-10.524,28.279t-30.676,9.626q-20.226,0-32.474-12.361t-12.248-32.361V202.794q0-19.926,11.8-32.324t31.2-12.4q20.748,0,32.1,9.663t11.049,28.091l-.225.449h-24.645q0-10.036-4.27-14.382t-14.008-4.345a14.813,14.813,0,0,0-13.109,6.854q-4.57,6.855-4.57,18.241v22.922q0,11.462,5.019,18.353t14.383,6.892q8.688,0,12.547-4.345t3.858-14.532Z" fill="#5bd3a9"/>
        <path id="Trazado_127206" data-name="Trazado 127206" d="M-268.087,222.046h-38.429v27.192h46.07v19.477h-71.389V159.646h71.464v19.476h-46.145v23.447h38.429Z" fill="#5bd3a9"/>
        <path id="Trazado_127207" data-name="Trazado 127207" d="M-220.894,226.915v41.8h-25.319V159.646h37.979q18.951,0,30.039,8.764t11.087,23.971a23.879,23.879,0,0,1-4.457,14.533q-4.458,6.067-13.147,9.888,10.038,2.847,14.42,9.476t4.382,16.518v6.891a43.43,43.43,0,0,0,1.274,9.739q1.273,5.469,4.419,7.79v1.5H-186.36q-3-2.322-3.9-8.166a72.6,72.6,0,0,1-.9-11.011v-6.593q0-7.79-4.12-11.91t-12.061-4.12Zm0-19.477h12.81q7.641,0,11.686-3.483t4.045-10a14.393,14.393,0,0,0-4.157-10.749q-4.158-4.083-11.724-4.083h-12.66Z" fill="#5bd3a9"/>
      </g>
      <g id="Grupo_134232" data-name="Grupo 134232">
        <path id="Trazado_127208" data-name="Trazado 127208" d="M-443.077,378.653l.15.45q.3,18.651-10.525,28.278t-30.676,9.626q-20.225,0-32.473-12.36t-12.248-32.362V349.513q0-19.926,11.8-32.324t31.2-12.4q20.748,0,32.1,9.663t11.05,28.091l-.225.45h-24.646q0-10.038-4.269-14.383t-14.008-4.345a14.813,14.813,0,0,0-13.11,6.855q-4.569,6.854-4.569,18.24v22.922q0,11.461,5.019,18.354t14.382,6.892q8.689,0,12.548-4.345t3.858-14.533Z" fill="#5bd3a9"/>
        <path id="Trazado_127209" data-name="Trazado 127209" d="M-371.837,394.234h-32.437l-6.292,21.2h-26.668l35.582-109.069h13.559v.075l.075-.075h13.559L-338.8,415.434H-365.47Zm-26.594-19.476h20.751l-10.188-33.86h-.45Z" fill="#5bd3a9"/>
        <path id="Trazado_127210" data-name="Trazado 127210" d="M-305.692,373.634v41.8h-25.32V306.365h37.98q18.951,0,30.039,8.764t11.087,23.972a23.872,23.872,0,0,1-4.458,14.532q-4.456,6.068-13.147,9.888,10.038,2.849,14.421,9.477t4.382,16.517v6.892a43.429,43.429,0,0,0,1.274,9.738q1.272,5.469,4.419,7.79v1.5h-26.143q-3-2.32-3.9-8.165a72.62,72.62,0,0,1-.9-11.012v-6.592q0-7.791-4.119-11.911t-12.061-4.12Zm0-19.476h12.81q7.641,0,11.686-3.484t4.045-10a14.392,14.392,0,0,0-4.158-10.75q-4.156-4.082-11.723-4.083h-12.66Z" fill="#5bd3a9"/>
      </g>
      <g id="Grupo_134233" data-name="Grupo 134233">
        <path id="Trazado_127211" data-name="Trazado 127211" d="M-470.569,533.239q0-5.844-3.82-8.952t-13.859-6.629q-20.3-6.591-30.151-14.046t-9.851-21.462q0-13.709,11.462-22.173t29.14-8.465q18.652,0,30.039,8.727t11.012,24.608l-.151.449h-24.57q0-7.713-4.2-11.2t-12.66-3.483q-6.893,0-10.862,3.371a10.493,10.493,0,0,0-3.97,8.315,8.958,8.958,0,0,0,4.083,7.678q4.082,2.885,15.244,7.229,18.951,5.619,28.69,13.708t9.739,22.174q0,14.382-11.237,22.511t-29.814,8.127q-18.5,0-31.35-8.727t-12.472-27.455l.15-.449h24.645q0,9.515,4.682,13.521t14.345,4.008q7.939,0,11.836-3.147A10.082,10.082,0,0,0-470.569,533.239Z" fill="#5bd3a9"/>
        <path id="Trazado_127212" data-name="Trazado 127212" d="M-367.717,515.485h-38.429v27.192h46.069v19.477h-71.389V453.085H-360v19.476h-46.144v23.447h38.429Z" fill="#5bd3a9"/>
      </g>
    </g>
    <g id="Grupo_134289" data-name="Grupo 134289">
      <g id="Grupo_134240" data-name="Grupo 134240" transform="translate(-580.641 170.049)">
        <path id="Trazado_127213" data-name="Trazado 127213" d="M-239.541,359.7c1.889-.472,40.6-25.024,40.6-25.024s-33.946,55.608-33,54.191,62.275-75.438,62.275-75.438l-24.8,9.768,19.608-34.32S-241.429,360.173-239.541,359.7Z" transform="translate(575.986 -167.353)" fill="#ffb840"/>
        <g id="Grupo_134239" data-name="Grupo 134239" transform="translate(26.094 79.562) rotate(-79)">
          <g id="Grupo_134236" data-name="Grupo 134236" transform="translate(6.771 3.28)">
            <path id="Trazado_127214" data-name="Trazado 127214" d="M-579.193,217.794s6.871-2.053,11.432-10.622.745-7.618,7.973-16.744,15.01-14.979,8.59-20.578-14.227,11.722-17.167,14.673c-2.052,2.059-7.089,4.166-10.472,10.351s-10.682,13.319-10.682,13.319Z" transform="translate(589.517 -168.744)" fill="#133d60"/>
            <g id="Grupo_134235" data-name="Grupo 134235" transform="translate(8.484 8.31)">
              <path id="Trazado_127215" data-name="Trazado 127215" d="M-577.17,216.845c.018-.017,1.781-1.757,4.086-4.538a68.171,68.171,0,0,0,7.557-11.07,42.11,42.11,0,0,1,4.136-6.215,67.247,67.247,0,0,1,4.612-5.228,71.716,71.716,0,0,1,5.293-4.942l-.165-.2a72.033,72.033,0,0,0-5.315,4.962,67.5,67.5,0,0,0-4.63,5.249,42.365,42.365,0,0,0-4.161,6.254,67.915,67.915,0,0,1-7.525,11.023c-2.3,2.771-4.053,4.5-4.07,4.521Z" transform="translate(577.353 -184.649)" fill="#95c0d9"/>
              <path id="Trazado_127216" data-name="Trazado 127216" d="M-572.744,195.277l6.444-1.044-.042-.258-6.12.992.431-6.605-.261-.017Z" transform="translate(589.76 -186.414)" fill="#95c0d9"/>
              <path id="Trazado_127217" data-name="Trazado 127217" d="M-558.2,213.756l5.022-.878-.045-.257-4.727.827-.209-5.411-.261.01Z" transform="translate(569.149 -195.819)" fill="#95c0d9"/>
              <path id="Trazado_127218" data-name="Trazado 127218" d="M-550.405,232.543l8.331-1.795-.055-.255-8.028,1.73-.277-6.6-.261.011Z" transform="translate(554.015 -204.217)" fill="#95c0d9"/>
            </g>
          </g>
          <g id="Grupo_134238" data-name="Grupo 134238" transform="translate(0 0)">
            <path id="Trazado_127219" data-name="Trazado 127219" d="M-560.918,191.838s17.977-36.151,28.943-28.242-5.4,30.463-19.056,39.9Z" transform="translate(560.918 -162.465)" fill="#d9e5ff"/>
            <g id="Grupo_134237" data-name="Grupo 134237" transform="translate(5.963 7.987)">
              <path id="Trazado_127220" data-name="Trazado 127220" d="M-548.6,202.591a181.945,181.945,0,0,0,14.277-16.685c3.554-4.672,5.752-7.975,5.774-8.007l-.218-.144c-.022.033-2.216,3.33-5.766,8a181.674,181.674,0,0,1-14.254,16.659Z" transform="translate(548.79 -177.754)" fill="#133d60"/>
              <path id="Trazado_127221" data-name="Trazado 127221" d="M-551.547,189.318l.314-.124a35.3,35.3,0,0,1,3.466-1.112,16.265,16.265,0,0,1,6.192-.683l.04-.258a16.277,16.277,0,0,0-6.3.69c-1.441.382-2.647.807-3.188,1.006a13.875,13.875,0,0,0,1.019-3.428,20.348,20.348,0,0,0,.269-3.545,22.24,22.24,0,0,0-.324-3.7l-.256.051a21.955,21.955,0,0,1,.319,3.662,20.071,20.071,0,0,1-.266,3.5,13.333,13.333,0,0,1-1.135,3.647Z" transform="translate(563.213 -177.947)" fill="#133d60"/>
              <path id="Trazado_127222" data-name="Trazado 127222" d="M-539,203.54l.4-.177a18.714,18.714,0,0,1,3.347-1.041,13.85,13.85,0,0,1,3.111-.324,7.589,7.589,0,0,1,3.112.663l.112-.236a7.849,7.849,0,0,0-3.221-.688,14.113,14.113,0,0,0-3.173.331,19.729,19.729,0,0,0-3.038.911,5.593,5.593,0,0,0,.517-2.8,12.791,12.791,0,0,0-.673-3.367,22.414,22.414,0,0,0-1.668-3.8l-.226.131a22.13,22.13,0,0,1,1.647,3.754,12.527,12.527,0,0,1,.659,3.3,5.056,5.056,0,0,1-.668,2.986Z" transform="translate(544.783 -185.038)" fill="#133d60"/>
            </g>
          </g>
        </g>
      </g>
      <g id="Grupo_134244" data-name="Grupo 134244" transform="translate(-530.58 163.615)">
        <g id="Grupo_134241" data-name="Grupo 134241" transform="translate(0 0)">
          <path id="Trazado_127223" data-name="Trazado 127223" d="M-474.574,241.817h-31.183l-6.049,20.379h-25.637l34.206-104.852H-490.2v.072l.072-.072h13.035L-442.816,262.2h-25.637Zm-25.566-18.724h19.949l-9.794-32.551h-.433Z" transform="translate(537.442 -155.833)" fill="#133d60"/>
          <path id="Trazado_127224" data-name="Trazado 127224" d="M-351.611,226.777l.144.433q.287,17.931-10.118,27.185t-29.49,9.254q-19.444,0-31.217-11.882t-11.774-31.11V198.764q0-19.156,11.342-31.073t29.994-11.919q19.947,0,30.858,9.289t10.622,27l-.215.433h-23.693q0-9.65-4.1-13.827t-13.466-4.177a14.239,14.239,0,0,0-12.6,6.59q-4.394,6.589-4.393,17.535v22.037q0,11.017,4.825,17.643t13.827,6.625q8.354,0,12.062-4.176t3.709-13.971Z" transform="translate(533.445 -155.772)" fill="#133d60"/>
          <path id="Trazado_127225" data-name="Trazado 127225" d="M-272.853,217.332H-309.8v26.141h44.289V262.2h-68.629V157.345h68.7v18.724H-309.8v22.539h36.943Z" transform="translate(529.581 -155.833)" fill="#133d60"/>
          <path id="Trazado_127226" data-name="Trazado 127226" d="M-224.173,222.013V262.2h-24.341V157.345H-212q18.218,0,28.877,8.425t10.657,23.045a22.949,22.949,0,0,1-4.285,13.97q-4.286,5.833-12.639,9.506,9.65,2.738,13.863,9.11t4.213,15.879v6.626a41.743,41.743,0,0,0,1.224,9.361q1.224,5.258,4.249,7.49v1.44h-25.133q-2.881-2.231-3.744-7.849a69.825,69.825,0,0,1-.864-10.586v-6.337q0-7.488-3.961-11.45t-11.595-3.961Zm0-18.723h12.314q7.346,0,11.234-3.349t3.89-9.613a13.835,13.835,0,0,0-4-10.334q-4-3.924-11.27-3.924h-12.17Z" transform="translate(526.27 -155.833)" fill="#133d60"/>
        </g>
        <g id="Grupo_134242" data-name="Grupo 134242" transform="translate(6.05 141.046)">
          <path id="Trazado_127227" data-name="Trazado 127227" d="M-448.694,373.5l.143.432q.287,17.931-10.117,27.185t-29.49,9.255q-19.444,0-31.218-11.883t-11.773-31.11V345.483q0-19.154,11.342-31.073t29.994-11.919q19.946,0,30.858,9.29t10.622,27l-.216.432h-23.692q0-9.648-4.1-13.826t-13.466-4.177a14.238,14.238,0,0,0-12.6,6.589q-4.394,6.589-4.393,17.536v22.036q0,11.018,4.825,17.643t13.827,6.626q8.352,0,12.062-4.177t3.709-13.97Z" transform="translate(531.149 -302.491)" fill="#133d60"/>
          <path id="Trazado_127228" data-name="Trazado 127228" d="M-376.667,388.536h-31.182l-6.049,20.379h-25.638l34.207-104.852h13.035v.072l.071-.072h13.035l34.278,104.852h-25.637Zm-25.565-18.724h19.948l-9.794-32.55h-.432Z" transform="translate(527.606 -302.552)" fill="#133d60"/>
          <path id="Trazado_127229" data-name="Trazado 127229" d="M-308.972,368.733v40.183h-24.34V304.064h36.51q18.218,0,28.877,8.426t10.658,23.044a22.953,22.953,0,0,1-4.285,13.97q-4.286,5.834-12.639,9.506,9.65,2.738,13.862,9.111T-256.114,384v6.625a41.75,41.75,0,0,0,1.225,9.362q1.224,5.256,4.248,7.489v1.44h-25.132q-2.881-2.231-3.745-7.849a69.808,69.808,0,0,1-.863-10.586v-6.337q0-7.488-3.961-11.45t-11.595-3.96Zm0-18.724h12.315q7.346,0,11.234-3.348t3.889-9.614a13.84,13.84,0,0,0-4-10.334q-4-3.924-11.271-3.924h-12.17Z" transform="translate(523.499 -302.552)" fill="#133d60"/>
        </g>
        <g id="Grupo_134243" data-name="Grupo 134243" transform="translate(4.815 282.093)">
          <path id="Trazado_127230" data-name="Trazado 127230" d="M-475.172,527.778q0-5.617-3.673-8.606t-13.322-6.373q-19.516-6.336-28.986-13.5t-9.469-20.632q0-13.177,11.018-21.316t28.013-8.138q17.931,0,28.877,8.39t10.586,23.656l-.144.433h-23.62q0-7.416-4.033-10.766t-12.17-3.349q-6.627,0-10.442,3.241a10.086,10.086,0,0,0-3.816,7.993,8.614,8.614,0,0,0,3.924,7.382q3.924,2.773,14.655,6.949,18.218,5.4,27.582,13.179t9.361,21.316q0,13.827-10.8,21.641t-28.661,7.814q-17.789,0-30.138-8.391T-532.423,522.3l.144-.433h23.692q0,9.147,4.5,13t13.791,3.853q7.631,0,11.377-3.025A9.7,9.7,0,0,0-475.172,527.778Z" transform="translate(532.434 -449.211)" fill="#133d60"/>
          <path id="Trazado_127231" data-name="Trazado 127231" d="M-372.483,510.771h-36.943v26.141h44.289v18.723h-68.629V450.784h68.7v18.724h-44.361v22.54h36.943Z" transform="translate(528.618 -449.272)" fill="#133d60"/>
        </g>
      </g>
      <g id="Grupo_134247" data-name="Grupo 134247" transform="translate(-184.961 212.192)">
        <g id="Grupo_134246" data-name="Grupo 134246" transform="translate(0 0)">
          <path id="Trazado_127232" data-name="Trazado 127232" d="M-140.436,214.191s-27.664,13.431-37.486,41.9" transform="translate(177.922 -206.609)" fill="none" stroke="#133d60" stroke-miterlimit="10" stroke-width="0.5"/>
          <g id="Grupo_134245" data-name="Grupo 134245" transform="translate(1.583)">
            <path id="Trazado_127233" data-name="Trazado 127233" d="M-171.463,243.221s21.624,3.223,21.221-5.776-20.549,4.3-20.549,4.3,7.253-20.549-1.746-21.624S-171.463,243.221-171.463,243.221Z" transform="translate(176.275 -206.837)" fill="#133d60"/>
            <path id="Trazado_127234" data-name="Trazado 127234" d="M-160.726,229.439s20.652,7.177,21.924-1.741-20.99.413-20.99.413,10.937-18.849,2.294-21.573S-160.726,229.439-160.726,229.439Z" transform="translate(175.739 -206.305)" fill="#133d60"/>
            <path id="Trazado_127235" data-name="Trazado 127235" d="M-148.216,219.184s20.416-.94,16.655-10.342S-148.216,219.184-148.216,219.184Z" transform="translate(175.19 -206.304)" fill="#133d60"/>
          </g>
        </g>
      </g>
      <g id="Grupo_134249" data-name="Grupo 134249" transform="translate(-537.231 427.358)">
        <g id="Grupo_134248" data-name="Grupo 134248" transform="translate(0 0)">
          <path id="Trazado_127236" data-name="Trazado 127236" d="M-522.59,452.754s8.051-19.828.407-21.989-1.479,20.926-1.479,20.926-15.435-12.77-18.561-4.443S-522.59,452.754-522.59,452.754Z" transform="translate(544.29 -430.143)" fill="#133d60"/>
          <path id="Trazado_127237" data-name="Trazado 127237" d="M-529.211,443.164s-7.589-18.5-13.923-11.429S-529.211,443.164-529.211,443.164Z" transform="translate(544.361 -430.124)" fill="#133d60"/>
        </g>
        <path id="Trazado_127238" data-name="Trazado 127238" d="M-518.979,462.66a56.407,56.407,0,0,0-3.8-9.164,52.509,52.509,0,0,0-5.084-8.055,36.058,36.058,0,0,0-7.5-7.35l.279-.391a36.54,36.54,0,0,1,7.6,7.453,52.993,52.993,0,0,1,5.132,8.133,56.884,56.884,0,0,1,3.828,9.242Z" transform="translate(544.013 -430.417)" fill="#133d60"/>
      </g>
    </g>
    <g id="Grupo_134255" data-name="Grupo 134255" transform="translate(2.703 1.751)">
      <path id="Trazado_127239" data-name="Trazado 127239" d="M-461.726,384.29l-.491-.094a53.177,53.177,0,0,1,3.256-11.344l.453.212A52.724,52.724,0,0,0-461.726,384.29Z" transform="translate(-1.366 -4.509)" fill="#133d60"/>
      <g id="Grupo_134254" data-name="Grupo 134254" transform="translate(-468.49 351.445)">
        <g id="Grupo_134252" data-name="Grupo 134252" transform="translate(3.33)">
          <g id="Grupo_134250" data-name="Grupo 134250" transform="translate(9.54 1.295)">
            <path id="Trazado_127240" data-name="Trazado 127240" d="M-451.969,360.558l-.477-.151a18,18,0,0,1,3.78-6.848l.355.352-.177-.176.178.176A17.862,17.862,0,0,0-451.969,360.558Z" transform="translate(452.207 -353.22)" fill="#133d60"/>
            <circle id="Elipse_4960" data-name="Elipse 4960" cx="0.554" cy="0.554" r="0.554" transform="translate(3.095)" fill="#fff"/>
          </g>
          <g id="Grupo_134251" data-name="Grupo 134251">
            <path id="Trazado_127241" data-name="Trazado 127241" d="M-460.6,359.657c0-.051-.355-5.14-3.13-7.314l.308-.394a8.749,8.749,0,0,1,2.786,4.729,15.728,15.728,0,0,1,.535,2.948Z" transform="translate(464.13 -351.592)" fill="#133d60"/>
            <circle id="Elipse_4961" data-name="Elipse 4961" cx="0.554" cy="0.554" r="0.554" fill="#fff"/>
          </g>
        </g>
        <g id="Grupo_134253" data-name="Grupo 134253" transform="translate(0 1.828)">
          <path id="Trazado_127242" data-name="Trazado 127242" d="M-459.177,369.044s13.555-6.947,10.674-10.929-7.117,2.372-7.117,2.372,1.525-6.1-2.117-6.693-3.643,6.185-3.643,6.185-2.457-5.761-6.354-4.321S-459.177,369.044-459.177,369.044Z" transform="translate(468.49 -353.758)" fill="#f96767"/>
          <path id="Trazado_127243" data-name="Trazado 127243" d="M-456.624,368.481s1.388-4.162-.132-4.823-2.444,4.889-2.444,4.889-.991-5.484-3.634-4.955,2.378,11.033,2.378,11.033,8.788-5.946,7.8-8.655S-456.624,368.481-456.624,368.481Z" transform="translate(467.465 -355.811)" fill="#133d60"/>
        </g>
      </g>
    </g>
    <g id="Grupo_134288" data-name="Grupo 134288">
      <g id="Grupo_134260" data-name="Grupo 134260">
        <g id="Grupo_134257" data-name="Grupo 134257">
          <path id="Trazado_127244" data-name="Trazado 127244" d="M-175.792,603.425s67.325-118.809,30.1-135.442-71.285,60.2-75.245,110.1Z" fill="#133d60"/>
          <g id="Grupo_134256" data-name="Grupo 134256">
            <path id="Trazado_127245" data-name="Trazado 127245" d="M-193.25,575.573l-.482-.133c2.97-10.739,6.609-22.134,10.815-33.869,3.364-9.387,7.1-19.012,11.1-28.607,6.807-16.337,12.093-27.064,12.146-27.171l.448.221c-.053.106-5.333,10.822-12.134,27.146-3.994,9.587-7.724,19.2-11.085,28.582C-186.649,553.464-190.283,564.847-193.25,575.573Z" fill="#95c0d9"/>
            <path id="Trazado_127246" data-name="Trazado 127246" d="M-176.03,524.689l-.1-.639a106.652,106.652,0,0,0-2.346-10.738,76.34,76.34,0,0,0-3.1-9.215,33.293,33.293,0,0,0-4.515-8.026l.389-.314a33.785,33.785,0,0,1,4.589,8.151,76.854,76.854,0,0,1,3.121,9.278c1.27,4.653,2,8.673,2.255,10.168a41.4,41.4,0,0,1,7.574-8.1,61.227,61.227,0,0,1,8.82-6.053,66.881,66.881,0,0,1,10.129-4.751l.162.473a66.371,66.371,0,0,0-10.053,4.718,60.714,60.714,0,0,0-8.744,6,40.355,40.355,0,0,0-7.827,8.512Z" fill="#95c0d9"/>
            <path id="Trazado_127247" data-name="Trazado 127247" d="M-185.717,550.736l-.089-.829a56.576,56.576,0,0,0-2.353-10.33,41.893,41.893,0,0,0-3.876-8.639,23.027,23.027,0,0,0-6.481-7.16l.283-.412a23.522,23.522,0,0,1,6.628,7.317,42.405,42.405,0,0,1,3.923,8.747,59.016,59.016,0,0,1,2.273,9.667,16.43,16.43,0,0,1,6.685-5.875,38.432,38.432,0,0,1,9.766-3.328,67.426,67.426,0,0,1,12.4-1.4v.5a66.889,66.889,0,0,0-12.309,1.388,37.922,37.922,0,0,0-9.634,3.282,15.389,15.389,0,0,0-6.841,6.326Z" fill="#95c0d9"/>
          </g>
        </g>
        <g id="Grupo_134259" data-name="Grupo 134259">
          <path id="Trazado_127248" data-name="Trazado 127248" d="M-261.318,576.369s-5.043-21.029,10.4-45.9S-232.17,517-219.3,484.336s16.357-61.821,40.677-53.55-9.044,54.852-12.292,66.985c-2.266,8.467-.138,24.8-11.154,42.98s-18.576,48.02-18.576,48.02Z" fill="#d9e5ff"/>
          <g id="Grupo_134258" data-name="Grupo 134258">
            <path id="Trazado_127249" data-name="Trazado 127249" d="M-235.894,567.921l-.484-.124c.018-.072,1.886-7.3,5.648-17.512,2.209-6,4.629-11.839,7.194-17.359A179.146,179.146,0,0,1-213.3,513.844a127.107,127.107,0,0,0,9.964-20.216,202.932,202.932,0,0,0,6.662-19.958,216.462,216.462,0,0,0,4.884-21.3l.494.08a217.026,217.026,0,0,1-4.9,21.358,203.436,203.436,0,0,1-6.679,20.007,127.605,127.605,0,0,1-10,20.3,178.647,178.647,0,0,0-10.2,19.028c-2.559,5.509-4.974,11.336-7.179,17.322C-234.014,560.647-235.875,567.85-235.894,567.921Z" fill="#133d60"/>
            <path id="Trazado_127250" data-name="Trazado 127250" d="M-201.06,488.322l-6.964-18.222.467-.178,6.74,17.635,16.726-11.222.279.415Z" fill="#133d60"/>
            <path id="Trazado_127251" data-name="Trazado 127251" d="M-215.548,517.886l-5.252-14.273.469-.173,5.055,13.736,14.575-7.72.234.442Z" fill="#133d60"/>
            <path id="Trazado_127252" data-name="Trazado 127252" d="M-231.529,552.76l-7.873-24.285.476-.154,7.69,23.72,17.787-9.345.233.443Z" fill="#133d60"/>
          </g>
        </g>
      </g>
      <g id="Grupo_134287" data-name="Grupo 134287">
        <g id="Grupo_134262" data-name="Grupo 134262">
          <path id="Trazado_127253" data-name="Trazado 127253" d="M-150.869,606.5H-377.217c11.071-51.443,79.705-66.939,79.705-66.939l53.338-.375C-184.873,552.285-155.323,598.925-150.869,606.5Z" fill="#feb726"/>
          <path id="Trazado_127254" data-name="Trazado 127254" d="M-155.476,606.307s-33.533-56.409-90.3-65.152l-52.7.479s-67.067,16.169-75.69,64.673" fill="none" stroke="#fecd68" stroke-miterlimit="10" stroke-width="1"/>
          <g id="Grupo_134261" data-name="Grupo 134261">
            <line id="Línea_115" data-name="Línea 115" x2="1.437" y2="9.581" transform="translate(-196.195 596.726)" fill="none" stroke="#852c14" stroke-miterlimit="10" stroke-width="1"/>
            <line id="Línea_116" data-name="Línea 116" x1="2.395" y2="10.06" transform="translate(-337.516 596.247)" fill="none" stroke="#852c14" stroke-miterlimit="10" stroke-width="1"/>
            <path id="Trazado_127255" data-name="Trazado 127255" d="M-212.626,588.636a18.56,18.56,0,0,1-12.232,4.078" fill="none" stroke="#852c14" stroke-miterlimit="10" stroke-width="1"/>
            <path id="Trazado_127256" data-name="Trazado 127256" d="M-211.927,591.157s-2.039,3.4-7.7,3.625" fill="none" stroke="#852c14" stroke-miterlimit="10" stroke-width="1"/>
            <path id="Trazado_127257" data-name="Trazado 127257" d="M-355.634,581.679a18.571,18.571,0,0,0,1.92,5.622" fill="none" stroke="#852c14" stroke-miterlimit="10" stroke-width="1"/>
            <path id="Trazado_127258" data-name="Trazado 127258" d="M-357.16,581.983a4.922,4.922,0,0,0,1.008,3.526" fill="none" stroke="#852c14" stroke-miterlimit="10" stroke-width="1"/>
          </g>
        </g>
        <g id="Grupo_134286" data-name="Grupo 134286">
          <path id="Trazado_127259" data-name="Trazado 127259" d="M-239.115,470.528s-1.832-36.815-33.816-43.312-41.98,13.493-43.646,18.658Z" fill="#5bd3a9"/>
          <g id="Grupo_134276" data-name="Grupo 134276">
            <g id="Grupo_134273" data-name="Grupo 134273">
              <g id="Grupo_134264" data-name="Grupo 134264">
                <g id="Grupo_134263" data-name="Grupo 134263">
                  <path id="Trazado_127260" data-name="Trazado 127260" d="M-300.646,430.2s6.067-13.063.306-14.486-1.114,13.786-1.114,13.786-11.633-8.413-13.989-2.928S-300.646,430.2-300.646,430.2Z" fill="#173159"/>
                  <path id="Trazado_127261" data-name="Trazado 127261" d="M-305.583,423.894s-5.719-12.188-10.493-7.529S-305.583,423.894-305.583,423.894Z" fill="#173159"/>
                </g>
                <path id="Trazado_127262" data-name="Trazado 127262" d="M-297.959,436.5s-3.523-10.735-12.413-16.27" fill="none" stroke="#173159" stroke-miterlimit="10" stroke-width="0.5"/>
              </g>
              <g id="Grupo_134266" data-name="Grupo 134266">
                <path id="Trazado_127263" data-name="Trazado 127263" d="M-227.268,430.145s-18.224,8.848-24.695,27.6" fill="none" stroke="#173159" stroke-miterlimit="10" stroke-width="0.5"/>
                <g id="Grupo_134265" data-name="Grupo 134265">
                  <path id="Trazado_127264" data-name="Trazado 127264" d="M-247.749,449.119s14.246,2.124,13.98-3.8-13.537,2.832-13.537,2.832,4.778-13.538-1.151-14.246S-247.749,449.119-247.749,449.119Z" fill="#173159"/>
                  <path id="Trazado_127265" data-name="Trazado 127265" d="M-241.03,440.389s13.6,4.729,14.443-1.146-13.827.272-13.827.272,7.205-12.417,1.511-14.212S-241.03,440.389-241.03,440.389Z" fill="#173159"/>
                  <path id="Trazado_127266" data-name="Trazado 127266" d="M-233.15,433.635s13.45-.619,10.972-6.813S-233.15,433.635-233.15,433.635Z" fill="#173159"/>
                </g>
              </g>
              <g id="Grupo_134272" data-name="Grupo 134272">
                <path id="Trazado_127267" data-name="Trazado 127267" d="M-265.228,429.937s-2.737,5.848-4.852,16.922" fill="none" stroke="#173159" stroke-miterlimit="10" stroke-width="0.5"/>
                <g id="Grupo_134271" data-name="Grupo 134271">
                  <g id="Grupo_134269" data-name="Grupo 134269">
                    <g id="Grupo_134267" data-name="Grupo 134267">
                      <path id="Trazado_127268" data-name="Trazado 127268" d="M-252.931,407.155a26.846,26.846,0,0,0-5.576,10.117" fill="none" stroke="#173159" stroke-miterlimit="10" stroke-width="0.5"/>
                      <circle id="Elipse_4962" data-name="Elipse 4962" cx="0.831" cy="0.831" r="0.831" transform="translate(-253.866 406.383)" fill="#fff"/>
                    </g>
                    <g id="Grupo_134268" data-name="Grupo 134268">
                      <path id="Trazado_127269" data-name="Trazado 127269" d="M-267.145,416.51s-.491-7.834-4.837-11.238" fill="none" stroke="#173159" stroke-miterlimit="10" stroke-width="0.5"/>
                      <circle id="Elipse_4963" data-name="Elipse 4963" cx="0.831" cy="0.831" r="0.831" transform="translate(-272.813 404.441)" fill="#fff"/>
                    </g>
                  </g>
                  <g id="Grupo_134270" data-name="Grupo 134270">
                    <path id="Trazado_127270" data-name="Trazado 127270" d="M-263.843,430.1s20.326-10.417,16.007-16.387-10.671,3.556-10.671,3.556,2.287-9.146-3.176-10.035-5.462,9.273-5.462,9.273-3.684-8.638-9.528-6.478S-263.843,430.1-263.843,430.1Z" fill="#f96767"/>
                    <path id="Trazado_127271" data-name="Trazado 127271" d="M-261.548,426.179s2.08-6.241-.2-7.231-3.666,7.33-3.666,7.33-1.486-8.222-5.448-7.43,3.566,16.544,3.566,16.544,13.176-8.916,11.69-12.977S-261.548,426.179-261.548,426.179Z" fill="#173159"/>
                  </g>
                </g>
              </g>
            </g>
            <g id="Grupo_134275" data-name="Grupo 134275">
              <path id="Trazado_127272" data-name="Trazado 127272" d="M-241.63,469.975s-.909-15.426-10.365-14.092c0,0,.848-7.88-5.456-12.487s-13.941-.606-13.941-.606-1.212-11.032-9.213-11.4-9.941,5.456-9.941,5.456a10.128,10.128,0,0,0-8.971-4.971c-6.3.121-10.425,9.82-10.425,9.82Z" fill="#ffada9"/>
              <g id="Grupo_134274" data-name="Grupo 134274">
                <path id="Trazado_127273" data-name="Trazado 127273" d="M-259.875,452.3s-4.562-2.621-7.668,0c0,0,.292-4.853-4.27-5.436" fill="none" stroke="#ff5c54" stroke-miterlimit="10" stroke-width="0.5"/>
                <path id="Trazado_127274" data-name="Trazado 127274" d="M-283.849,441.133s-3.3-.874-4.854,1.844c0,0-2.717-3.2-6.017-1.747" fill="none" stroke="#ff5c54" stroke-miterlimit="10" stroke-width="0.5"/>
                <path id="Trazado_127275" data-name="Trazado 127275" d="M-246.5,462.211a5.082,5.082,0,0,0-5.117-.348" fill="none" stroke="#ff5c54" stroke-miterlimit="10" stroke-width="0.5"/>
              </g>
            </g>
          </g>
          <g id="Grupo_134285" data-name="Grupo 134285">
            <g id="Grupo_134277" data-name="Grupo 134277">
              <path id="Trazado_127276" data-name="Trazado 127276" d="M-319.755,477.664s-5.572-7.259-9.448-5.389-1.574,20.9,11.265,17.816Z" fill="url(#linear-gradient)"/>
              <path id="Trazado_127277" data-name="Trazado 127277" d="M-327.551,477.958a8.972,8.972,0,0,0,7.617,4.389" fill="none" stroke="#3f2321" stroke-miterlimit="10" stroke-width="1"/>
              <path id="Trazado_127278" data-name="Trazado 127278" d="M-324.151,488.017s-.673,4.622.269,4.667,1.032-2.513,1.032-2.513" fill="none" stroke="#3f2321" stroke-miterlimit="10" stroke-width="1"/>
            </g>
            <path id="Trazado_127279" data-name="Trazado 127279" d="M-239.908,542.723s.616-57.57.924-73.578l-72.963-30.478c-5.849,3.694-23.4,73.578,11.083,87.739l-.307,18.472S-266.384,556.884-239.908,542.723Z" fill="#ffc1a8"/>
            <path id="Trazado_127280" data-name="Trazado 127280" d="M-238.984,469.145l1.547,8.751s-4.015,4.972-3.824,15.489c0,0-7.075-2.1-6.693-14.342,0,0-3.442,2.677-9.752-1.147a15.157,15.157,0,0,1-7.075-10.326,19.538,19.538,0,0,1-13.768.191,24.388,24.388,0,0,1-11.473-8.413,12.274,12.274,0,0,1-11.473,3.633c-7.075-1.53-8.988-6.5-8.988-6.5s-1.529,2.677-5.927,1.339c0,0,2.1,8.8-1.912,14.724,0,0,.191,12.047-2.1,15.68,0,0,.382-11.665-4.016-14.724,0,0-7.457-15.871,1.148-21.225,0,0-2.737-15.93,11.347-13.606Z" fill="#3f2321"/>
            <g id="Grupo_134278" data-name="Grupo 134278">
              <path id="Trazado_127281" data-name="Trazado 127281" d="M-300.874,527c5.114.183,14.794,0,19.554-3.6a27.931,27.931,0,0,1-19.65,9.381Z" fill="#ff9378"/>
              <path id="Trazado_127282" data-name="Trazado 127282" d="M-276.439,518.714s-6.889,10.7-25.357,7.915" fill="none" stroke="#3f2321" stroke-miterlimit="10" stroke-width="1"/>
            </g>
            <g id="Grupo_134279" data-name="Grupo 134279">
              <path id="Trazado_127283" data-name="Trazado 127283" d="M-319.654,490.447c5.137,0,9.3,3.247,9.3,7.251,0,3.762-3.676,6.854-8.381,7.214a67.22,67.22,0,0,1-2.6-14.341A11.966,11.966,0,0,1-319.654,490.447Z" fill="#ffa682"/>
              <ellipse id="Elipse_4964" data-name="Elipse 4964" cx="9.301" cy="7.251" rx="9.301" ry="7.251" transform="translate(-277.378 489.706)" fill="#ffa682"/>
            </g>
            <g id="Grupo_134280" data-name="Grupo 134280">
              <path id="Trazado_127284" data-name="Trazado 127284" d="M-240.019,481.177s5.336-7.971,10.672-4.762.654,24.741-10.563,18.944Z" fill="url(#linear-gradient-2)"/>
              <path id="Trazado_127285" data-name="Trazado 127285" d="M-230.493,481.58s-1.893,6.6-7.445,6.838" fill="none" stroke="#3f2321" stroke-miterlimit="10" stroke-width="1"/>
            </g>
            <g id="Grupo_134284" data-name="Grupo 134284">
              <path id="Trazado_127286" data-name="Trazado 127286" d="M-300.186,480.178l-.216,7.891s-2.887,1.8-2.054,4.324,3.676,2.81,5.513,1.081" stroke="#3f2321" stroke-miterlimit="10" stroke-width="1" fill="url(#linear-gradient-3)"/>
              <g id="Grupo_134281" data-name="Grupo 134281">
                <path id="Trazado_127287" data-name="Trazado 127287" d="M-287.586,496.739s-1.725,6.612-9.392,5.941" fill="none" stroke="#3f2321" stroke-miterlimit="10" stroke-width="1"/>
                <path id="Trazado_127288" data-name="Trazado 127288" d="M-286.027,499.157s-.84-3.362-3.572-3.362" fill="none" stroke="#3f2321" stroke-miterlimit="10" stroke-width="1"/>
              </g>
              <g id="Grupo_134282" data-name="Grupo 134282">
                <path id="Trazado_127289" data-name="Trazado 127289" d="M-306.085,479.882s1.038,4.909-2.519,4.841-3.261-4.637-3.261-4.637" fill="none" stroke="#3f2321" stroke-miterlimit="10" stroke-width="1.183"/>
                <path id="Trazado_127290" data-name="Trazado 127290" d="M-310.881,476.447c3.373-1.893,4.438-2.9,4.556-3.431a1.714,1.714,0,0,0-2.485-1.775c-2.13.769-6.626,4.2-6.626,5.265s.532,1.835,1.479,1.539A22.1,22.1,0,0,0-310.881,476.447Z" fill="#3f2321"/>
              </g>
              <g id="Grupo_134283" data-name="Grupo 134283">
                <path id="Trazado_127291" data-name="Trazado 127291" d="M-282.5,477.655c-3.372-1.894-4.437-2.9-4.556-3.432a1.714,1.714,0,0,1,2.485-1.775c2.13.769,6.627,4.2,6.627,5.266s-.533,1.834-1.479,1.538A22.093,22.093,0,0,1-282.5,477.655Z" fill="#3f2321"/>
                <path id="Trazado_127292" data-name="Trazado 127292" d="M-283.054,481.077s.586,4.909-2.965,4.841-2.834-4.637-2.834-4.637" fill="none" stroke="#3f2321" stroke-miterlimit="10" stroke-width="1.183"/>
              </g>
            </g>
            <path id="Trazado_127293" data-name="Trazado 127293" d="M-238.163,541.939s-29.145,16.547-65.059,1.5" fill="none" stroke="#852c14" stroke-miterlimit="10" stroke-width="1"/>
          </g>
        </g>
      </g>
    </g>
  </g>
</svg>
