<svg xmlns="http://www.w3.org/2000/svg" width="58.461" height="60" viewBox="0 0 58.461 60">
  <g id="Grupo_133778" data-name="Grupo 133778" transform="translate(-1007 -4447)">
    <ellipse id="Elipse_4913" data-name="Elipse 4913" cx="29.231" cy="30" rx="29.231" ry="30" transform="translate(1007 4447)" fill="#d2f3e8"/>
    <g id="Grupo_133627" data-name="Grupo 133627" transform="translate(57.936 4380.369)">
      <path id="Trazado_126570" data-name="Trazado 126570" d="M1049.068,114.332c0-2.108.01-4.215,0-6.323a2.462,2.462,0,1,0-4.92.042q-.006,4.154,0,8.307v.413c-.079-.06-.115-.085-.148-.113a2.531,2.531,0,0,0-3.159-.182c-1.093.719-2.209,1.411-3.235,2.225a10.379,10.379,0,0,0-3.681,5.52c-.555,2.054-.9,4.156-1.356,6.233-.135.62-.048.836.473,1.153h.441a1.205,1.205,0,0,0,.521-.735.4.4,0,0,1,.093-.063c.373-1.735.742-3.472,1.093-5.212a9.285,9.285,0,0,1,3-5.345,32.764,32.764,0,0,1,3.647-2.537.82.82,0,0,1,.6-.1.979.979,0,0,1,.815.658,1.1,1.1,0,0,1-.219,1.167c-.712.809-1.467,1.578-2.2,2.363-.419.446-.842.889-1.248,1.346a.819.819,0,0,0,.019,1.213.859.859,0,0,0,1.24-.127c1.059-1.1,2.086-2.239,3.154-3.335a5.693,5.693,0,0,0,1.725-4.193c-.031-2.805-.009-5.611-.009-8.416a1.937,1.937,0,0,1,.061-.619.829.829,0,0,1,.938-.594.862.862,0,0,1,.77.723,2.857,2.857,0,0,1,.016.477c0,3.54-.011,7.081.007,10.622a6.348,6.348,0,0,1-1.16,3.831c-1.742,2.459-3.495,4.91-5.229,7.374a1.385,1.385,0,0,0-.3.757.373.373,0,0,1,.079.218c.061.255.289.366.457.529h.441a1.573,1.573,0,0,0,.489-.425q2.725-3.85,5.457-7.7a7.208,7.208,0,0,0,1.336-4.305C1049.061,117.566,1049.068,115.949,1049.068,114.332Z" transform="translate(-51.352 -18.314)" fill="#133d60"/>
      <path id="Trazado_126571" data-name="Trazado 126571" d="M975.5,125.361a10.876,10.876,0,0,0-3.58-6.324,30.089,30.089,0,0,0-3.949-2.731,2.222,2.222,0,0,0-1.6-.24,2.78,2.78,0,0,0-1.39.715v-.417q0-3.639,0-7.277c0-.441.023-.884-.015-1.322a2.32,2.32,0,0,0-1.561-2.117,2.376,2.376,0,0,0-2.635.562,4.425,4.425,0,0,0-.714,1.207v12.8a7.786,7.786,0,0,1,.284,1.112,7.7,7.7,0,0,0,1.111,2.253c.376.527.748,1.057,1.124,1.584a.784.784,0,0,0,1.153.341l.047.039.013-.006a.79.79,0,0,0,.143-1.148c-.406-.657-.882-1.267-1.315-1.906a5.788,5.788,0,0,1-.987-3.331q0-5.4,0-10.809a4.044,4.044,0,0,1,.01-.477.855.855,0,0,1,.828-.785.833.833,0,0,1,.919.717,2.543,2.543,0,0,1,.026.513q0,4.338,0,8.676a5.079,5.079,0,0,0,1.248,3.375c.906,1.063,1.912,2.033,2.849,3.069.271.3.565.578.841.874a.827.827,0,0,0,1.272-1.055,1.324,1.324,0,0,0-.186-.227c-.544-.514-1.028-1.085-1.537-1.632-.609-.654-1.259-1.271-1.825-1.965a1.139,1.139,0,0,1,0-1.483,1.031,1.031,0,0,1,1.4-.115c.7.457,1.389.921,2.081,1.386a12.7,12.7,0,0,1,1.41,1.059,9.468,9.468,0,0,1,2.985,5.361c.346,1.729.715,3.454,1.087,5.178a.373.373,0,0,1,.094.065,1.2,1.2,0,0,0,.521.735h.441c.521-.317.6-.533.474-1.153C976.211,128.759,975.847,127.062,975.5,125.361Z" transform="translate(0 -18.315)" fill="#133d60"/>
      <path id="Trazado_126572" data-name="Trazado 126572" d="M962.661,161.288c.3.409.6.415,1.122.154l-.047-.039a.784.784,0,0,1-1.153-.341c-.376-.527-.748-1.057-1.124-1.584a7.7,7.7,0,0,1-1.111-2.253,7.786,7.786,0,0,0-.284-1.112,6.6,6.6,0,0,0,.423,1.8A15.431,15.431,0,0,0,962.661,161.288Z" transform="translate(0 -54.216)" fill="#133d60"/>
      <path id="Trazado_126573" data-name="Trazado 126573" d="M993.849,192.422l-.008-.038a.716.716,0,0,0-.318-.05q-3-.006-6,0a.614.614,0,0,0-.432.112.868.868,0,0,1-.046.209c-.061.255-.289.366-.456.529h7.868C994.055,193.089,993.947,192.76,993.849,192.422Z" transform="translate(-18.801 -79.889)" fill="#133d60"/>
      <path id="Trazado_126574" data-name="Trazado 126574" d="M1011.6,192.58a.37.37,0,0,0-.093-.065l.008.038c.1.337.205.666.606.762A1.2,1.2,0,0,1,1011.6,192.58Z" transform="translate(-36.464 -80.02)" fill="#133d60"/>
      <path id="Trazado_126575" data-name="Trazado 126575" d="M1043.188,192.633a.988.988,0,0,1-.012-.2c-.105-.123-.3-.1-.467-.1q-2.93-.007-5.861,0a.86.86,0,0,0-.393.054l-.008.039c-.1.335-.205.664-.606.76h7.869A.687.687,0,0,1,1043.188,192.633Z" transform="translate(-53.717 -79.887)" fill="#133d60"/>
      <path id="Trazado_126576" data-name="Trazado 126576" d="M1036.448,192.56l.008-.039a.4.4,0,0,0-.093.063,1.206,1.206,0,0,1-.521.735C1036.242,193.225,1036.349,192.9,1036.448,192.56Z" transform="translate(-53.717 -80.024)" fill="#133d60"/>
      <path id="Trazado_126577" data-name="Trazado 126577" d="M1061.109,192.917a.375.375,0,0,0-.079-.218.953.953,0,0,0,.012.2.686.686,0,0,0,.523.551C1061.4,193.283,1061.17,193.172,1061.109,192.917Z" transform="translate(-71.571 -80.15)" fill="#133d60"/>
      <path id="Trazado_126578" data-name="Trazado 126578" d="M982.339,186.96a1.049,1.049,0,0,0-.256-.741c-.248-.332-.477-.679-.717-1.018a1.811,1.811,0,0,0-.451-.475.639.639,0,0,0-.865.07c0,.011.006.021.008.031a1.014,1.014,0,0,0,.149,1.3,8.1,8.1,0,0,0,1.173,1.473.086.086,0,0,1,.016.1h.441c.075-.27.348-.41.44-.67A.392.392,0,0,1,982.339,186.96Z" transform="translate(-14.052 -74.403)" fill="#133d60"/>
      <path id="Trazado_126579" data-name="Trazado 126579" d="M981.068,188.1a8.1,8.1,0,0,1-1.173-1.473,1.014,1.014,0,0,1-.149-1.3c0-.011-.006-.021-.008-.031-.012.013-.025.023-.037.037a.783.783,0,0,0-.035,1.122c.286.412.585.814.867,1.228a1.477,1.477,0,0,0,.551.515A.086.086,0,0,0,981.068,188.1Z" transform="translate(-13.74 -74.902)" fill="#133d60"/>
      <path id="Trazado_126580" data-name="Trazado 126580" d="M987.043,192.938a.868.868,0,0,0,.046-.209.389.389,0,0,0-.061.068c-.093.26-.365.4-.44.67C986.754,193.3,986.982,193.193,987.043,192.938Z" transform="translate(-18.801 -80.171)" fill="#133d60"/>
      <path id="Trazado_126581" data-name="Trazado 126581" d="M1002.474,98.862c.681,0,.957-.279.96-.956,0-.8.014-1.593-.007-2.389-.007-.269.074-.319.324-.315.98.015,1.96.01,2.941,0a.767.767,0,0,0,.857-.833c.014-.416.018-.834,0-1.25a3.43,3.43,0,0,0-2.025-3.157,9.858,9.858,0,0,0-1.651-.479c-.1-.03-.261.022-.284-.164-.019-.156.1-.212.19-.287a3.121,3.121,0,0,0,1.159-2.02,11.485,11.485,0,0,0,.025-2.494,3.265,3.265,0,0,0-5.2-2.364c-.3.222-.284-.074-.349-.192a4.15,4.15,0,0,0-3.838-2.337,4.1,4.1,0,0,0-3.793,2.338c-.155.29-.231.293-.482.113a3.267,3.267,0,0,0-4.924,1.646,8.484,8.484,0,0,0-.139,3.278,2.9,2.9,0,0,0,.955,1.852c.087.085.189.156.275.242.17.17.206.31-.092.375s-.618.147-.928.22a3.479,3.479,0,0,0-2.6,2.2,6.37,6.37,0,0,0-.225,2.4c0,.642.283.911.924.913.968,0,1.936.007,2.9,0,.219,0,.289.041.284.278-.018.833-.013,1.666-.005,2.5a.773.773,0,0,0,.847.88q2.1.019,4.191,0c.524,0,.74-.2.858-.72a.666.666,0,0,0-.51-.793,1.46,1.46,0,0,0-.364-.036c-.519-.013-.518-.013-.52-.543,0-.257.008-.515,0-.772a.84.84,0,1,0-1.667.011c-.007.147,0,.294,0,.441-.016.955.16.858-.94.862-.236,0-.329-.1-.327-.335.006-.5-.023-1.006.009-1.507a3.009,3.009,0,0,1,2.494-2.919c.419-.094.835-.2,1.252-.3.444-.108.458-.1.641.306.374.826.727,1.661,1.1,2.487a.83.83,0,0,0,.755.551.843.843,0,0,0,.831-.5c.052-.1.094-.2.136-.3.322-.769.683-1.52,1-2.29.091-.221.21-.351.47-.287a18.862,18.862,0,0,1,1.988.526,2.752,2.752,0,0,1,1.651,1.575,5.169,5.169,0,0,1,.264,2.134c-.01.944.136.841-.873.855-.279,0-.407-.1-.4-.385s.01-.588,0-.882a.845.845,0,1,0-1.668-.015c-.009.233,0,.466,0,.7,0,.571,0,.572-.556.581a1.563,1.563,0,0,0-.4.037.666.666,0,0,0-.51.793c.118.536.348.721.931.722Q1000.434,98.868,1002.474,98.862Zm-2.312-15.049a1.859,1.859,0,0,1,1.945-.792,1.78,1.78,0,0,1,1.381,1.648,6.8,6.8,0,0,1-3.187-.47C1000.087,84.1,1000.022,84.031,1000.162,83.813Zm.3,2.017a7.786,7.786,0,0,0,2.685.313c.3-.012.4.053.38.372a1.835,1.835,0,0,1-1.785,1.788,1.791,1.791,0,0,1-1.845-1.706c-.01-.122-.012-.244-.018-.367C999.885,85.645,999.884,85.648,1000.459,85.83Zm-7.682-2.059a2.81,2.81,0,0,1,5.309-1.149,3.791,3.791,0,0,1,.188.437,3.328,3.328,0,0,1,.082.389c-.4-.236-.768-.458-1.141-.666a.709.709,0,0,0-1.02.137,3.7,3.7,0,0,1-3.236,1.116C992.742,84.021,992.773,83.91,992.777,83.771Zm-5,.378a1.718,1.718,0,0,1,1.411-1.144,1.754,1.754,0,0,1,1.765.742c.163.217.187.34-.116.469a6.212,6.212,0,0,1-2.47.462h-.221C987.575,84.679,987.569,84.677,987.773,84.15Zm-.14,2.2c.014-.248.159-.2.294-.2a8.545,8.545,0,0,0,2.614-.278c.231-.07.46-.148.738-.238a6.755,6.755,0,0,1-.025,1.1,1.8,1.8,0,0,1-2.041,1.557A1.875,1.875,0,0,1,987.633,86.348Zm3.393,4.78a4.409,4.409,0,0,0-2.835,2.375.364.364,0,0,1-.391.238c-.8-.012-1.593-.014-2.388,0-.243,0-.336-.043-.337-.315A2.088,2.088,0,0,1,986.9,91.1c.488-.116.977-.224,1.462-.349s.63-.282.68-.776c.016-.153.046-.224.212-.207a2.008,2.008,0,0,0,.4,0c.155-.016.218.029.22.2a.783.783,0,0,0,.718.794c.283.063.563.137.855.208A.816.816,0,0,1,991.026,91.128Zm.484-1.661c-.21-.049-.212-.167-.106-.319a.384.384,0,0,1,.055-.048c.482-.466.48-.464.927.027.131.144.271.281.416.411s.275.223.412.334C992.644,89.722,992.076,89.6,991.51,89.466Zm4.939,1.249a1.229,1.229,0,0,1-.064.431c-.26.578-.514,1.16-.808,1.827-.3-.7-.591-1.3-.832-1.925-.163-.423-.042-.535.407-.495a3.259,3.259,0,0,0,1.06-.035C996.387,90.476,996.464,90.526,996.449,90.716Zm.78-2.157a2.807,2.807,0,0,1-4.439-2.005c-.035-.327-.134-.746.02-.968.167-.24.611-.076.933-.081a4.577,4.577,0,0,0,2.917-1.028.356.356,0,0,1,.507-.022,5.34,5.34,0,0,0,.824.478.613.613,0,0,1,.417.742,2.222,2.222,0,0,0,0,.305A2.814,2.814,0,0,1,997.229,88.558Zm.74,1.333a5.6,5.6,0,0,0,1.108-1.123c.038-.054.1-.164.159-.083.177.226.509.316.58.622.034.146-.125.142-.229.169C999.05,89.619,998.5,89.708,997.969,89.891Zm1.813,1.134c-.021-.005-.037-.029-.076-.06.34-.084.648-.162.956-.237a.73.73,0,0,0,.622-.715c.009-.215.079-.278.281-.244a1.094,1.094,0,0,0,.293,0c.17-.018.267,0,.265.221a.717.717,0,0,0,.626.744c.593.143,1.19.273,1.779.433a2.1,2.1,0,0,1,1.554,2.416c-.009.141-.087.152-.193.152-.881,0-1.762,0-2.643,0a.219.219,0,0,1-.232-.134A4.571,4.571,0,0,0,999.782,91.025Z" transform="translate(-16.686 0)" fill="#133d60"/>
      <path id="Trazado_126582" data-name="Trazado 126582" d="M1022.9,140.668c-.391.009-.608.229-.726.737.134.484.373.713.745.713s.606-.226.745-.713C1023.534,140.884,1023.3,140.659,1022.9,140.668Z" transform="translate(-44.025 -43.267)" fill="#133d60"/>
      <path id="Trazado_126583" data-name="Trazado 126583" d="M975.644,177.7a.813.813,0,0,0-.87-.075l.006.011c-.007.129-.1.217-.151.328a.6.6,0,0,0,.045.654.607.607,0,0,0,.64.25.589.589,0,0,1,.322-.03l.007.006C976,178.392,976,178,975.644,177.7Z" transform="translate(-10.271 -69.4)" fill="#133d60"/>
      <path id="Trazado_126584" data-name="Trazado 126584" d="M975.06,179.085a.607.607,0,0,1-.64-.25.6.6,0,0,1-.045-.654c.048-.11.144-.2.151-.328l-.006-.011-.014,0a1.879,1.879,0,0,0-.22.285.7.7,0,0,0,.116.843.756.756,0,0,0,.969.11l.017-.023-.007-.006A.588.588,0,0,0,975.06,179.085Z" transform="translate(-10.017 -69.619)" fill="#133d60"/>
    </g>
  </g>
</svg>
