<svg xmlns="http://www.w3.org/2000/svg" width="58.461" height="60" viewBox="0 0 58.461 60">
  <g id="Grupo_133780" data-name="Grupo 133780" transform="translate(-1220 -4447)">
    <ellipse id="Elipse_4914" data-name="Elipse 4914" cx="29.231" cy="30" rx="29.231" ry="30" transform="translate(1220 4447)" fill="#d2f3e8"/>
    <g id="TGvAC9" transform="translate(-505.17 4205.31)">
      <g id="Grupo_133628" data-name="Grupo 133628" transform="translate(1736.17 252.69)">
        <path id="Trazado_126585" data-name="Trazado 126585" d="M1755.827,252.69c.7.1,1.407.17,2.1.294a18.281,18.281,0,0,1,8.85,4.222.568.568,0,0,1,.142.849c-.228.253-.525.251-.862-.04a17.089,17.089,0,0,0-5.621-3.257,17.284,17.284,0,0,0-21.708,9.469c-2.766,6.494-1.786,12.613,2.6,18.164.082.1.173.2.25.309a.517.517,0,0,1-.059.746.528.528,0,0,1-.772-.072c-.39-.458-.777-.922-1.124-1.413a18.24,18.24,0,0,1-3.334-12.874,18.456,18.456,0,0,1,14.8-16.039c.825-.155,1.663-.241,2.495-.359Z" transform="translate(-1736.171 -252.69)" fill="#133d60"/>
        <path id="Trazado_126586" data-name="Trazado 126586" d="M1784.646,283.762c-.091.69-.162,1.384-.278,2.07a18.365,18.365,0,0,1-13.925,14.826,18.133,18.133,0,0,1-16.383-3.966c-.33-.274-.4-.585-.2-.843.216-.284.522-.275.887,0,.731.548,1.438,1.139,2.211,1.621a17.4,17.4,0,0,0,25.983-10.223,16.987,16.987,0,0,0-3.528-15.843c-.038-.047-.079-.091-.116-.139-.262-.338-.258-.648.01-.859a.574.574,0,0,1,.822.165,18.268,18.268,0,0,1,4.224,8.847c.125.7.2,1.4.295,2.1Z" transform="translate(-1747.638 -264.173)" fill="#133d60"/>
        <path id="Trazado_126587" data-name="Trazado 126587" d="M1774.836,316.085a21.393,21.393,0,0,1,4.8.653,3.465,3.465,0,0,1,2.671,3.592,3.427,3.427,0,0,1-3.362,3.191,4.187,4.187,0,0,1-1.069-.138,15.977,15.977,0,0,0-7.436.032,3.432,3.432,0,1,1-1.594-6.675A23.424,23.424,0,0,1,1774.836,316.085Zm-7.551,3.846a27.534,27.534,0,0,1,13.9-.006,2.258,2.258,0,0,0-1.907-2.151c-1.168-.221-2.343-.435-3.525-.539a19.445,19.445,0,0,0-6.761.594A2.245,2.245,0,0,0,1767.285,319.93Zm.179,1.075a2.3,2.3,0,0,0,2.449,1.41c1.2-.187,2.395-.416,3.6-.516a16.868,16.868,0,0,1,5.009.505,2.26,2.26,0,0,0,2.5-1.4A26.337,26.337,0,0,0,1767.464,321.006Z" transform="translate(-1755.741 -294.046)" fill="#133d60"/>
        <path id="Trazado_126588" data-name="Trazado 126588" d="M1801.067,298.615a7.768,7.768,0,0,1,.148-1.174,1.914,1.914,0,0,1,1.765-1.367.547.547,0,0,1,.643.482c.027.294-.162.5-.517.577a.955.955,0,0,0-.915,1.116c0,.325-.009.651.006.975a.907.907,0,0,0,.874.884.92.92,0,0,0,.921-.842c.026-.275.006-.553.014-.831.011-.4.208-.628.542-.625.315,0,.526.22.536.6a6.968,6.968,0,0,1-.036,1.045,1.973,1.973,0,0,1-3.93-.152c-.014-.228,0-.457,0-.686Z" transform="translate(-1778.507 -280.991)" fill="#133d60"/>
        <path id="Trazado_126589" data-name="Trazado 126589" d="M1770.125,298.889a2.056,2.056,0,0,1-1.241,2.159,1.959,1.959,0,0,1-2.691-1.577,8.132,8.132,0,0,1,0-1.727,1.917,1.917,0,0,1,1.841-1.674.534.534,0,0,1,.626.456c.038.313-.132.525-.484.6-.727.154-.95.426-.952,1.166,0,.289-.009.579,0,.867a.931.931,0,0,0,.933.947.916.916,0,0,0,.877-.958c.008-.265-.01-.531.011-.795a.523.523,0,0,1,.553-.542c.311.009.5.211.519.573C1770.133,298.551,1770.125,298.72,1770.125,298.889Z" transform="translate(-1755.727 -280.989)" fill="#133d60"/>
        <path id="Trazado_126590" data-name="Trazado 126590" d="M1807.449,271.355c-.349-.333-.649-.611-.94-.9-.361-.357-.411-.689-.153-.934s.549-.2.908.155c.3.3.591.6.928.938.331-.346.632-.672.944-.985s.606-.346.855-.109.225.552-.1.881c-.306.307-.621.6-1,.967.372.351.731.667,1.063,1.01a.528.528,0,0,1-.074.885.554.554,0,0,1-.715-.151c-.317-.328-.627-.661-.983-1.037-.354.367-.657.69-.97,1s-.615.338-.855.108-.217-.564.1-.88S1807.081,271.707,1807.449,271.355Z" transform="translate(-1781.851 -263.568)" fill="#133d60"/>
        <path id="Trazado_126591" data-name="Trazado 126591" d="M1769.083,288.925a.5.5,0,0,1-.539.536,1.277,1.277,0,0,1-.411-.119q-2.4-1.064-4.8-2.138a1.41,1.41,0,0,1-.314-.172.446.446,0,0,1-.143-.634,1.225,1.225,0,0,1,.555-.293c.071-.025.182.043.269.081q2.469,1.095,4.936,2.192C1768.873,288.486,1769.081,288.621,1769.083,288.925Z" transform="translate(-1753.537 -274.486)" fill="#133d60"/>
        <path id="Trazado_126592" data-name="Trazado 126592" d="M1798.394,289.495c-.129-.116-.359-.226-.389-.376a1,1,0,0,1,.155-.609c.058-.1.239-.147.37-.206q2.351-1.049,4.7-2.093a1.814,1.814,0,0,1,.372-.13.483.483,0,0,1,.564.284.494.494,0,0,1-.146.646,1.431,1.431,0,0,1-.314.172q-2.4,1.072-4.8,2.138C1798.766,289.382,1798.615,289.42,1798.394,289.495Z" transform="translate(-1776.503 -274.464)" fill="#133d60"/>
      </g>
    </g>
  </g>
</svg>
