<svg xmlns="http://www.w3.org/2000/svg" width="68.351" height="68.352" viewBox="0 0 68.351 68.352">
  <g id="Grupo_135042" data-name="Grupo 135042" transform="translate(-818 -9374.559)">
    <path id="Trazado_122810" data-name="Trazado 122810" d="M34.176,0A34.176,34.176,0,1,1,0,34.176,34.176,34.176,0,0,1,34.176,0Z" transform="translate(818 9374.559)" fill="#5bd3a9"/>
    <g id="_68zuN0" data-name="68zuN0" transform="translate(-1792.925 9138.631)">
      <g id="Grupo_133645" data-name="Grupo 133645" transform="translate(2622.925 247.351)">
        <path id="Trazado_126670" data-name="Trazado 126670" d="M2632.339,292.743c-1.1-.518-1.344-.96-1.151-2.21.307-1.983.6-3.969.963-5.941a6.257,6.257,0,0,1,6.338-5.269c1.034-.011,2.068,0,3.1,0h.515c0-.525.012-1-.01-1.465a.345.345,0,0,0-.214-.251,6.182,6.182,0,0,1-5.337-5.053c-.417-.03-.86-.032-1.293-.1a3.307,3.307,0,0,1-2.822-3.211,7.318,7.318,0,0,1,.14-1.974,4.615,4.615,0,0,1,.852-1.469.681.681,0,0,0,.149-.619c-.24-1.333-.479-2.667-.668-4.008a12.071,12.071,0,0,1-.012-1.633,1.385,1.385,0,0,0-1.068.036,6.129,6.129,0,0,1-6.667-1.041,6,6,0,0,1-1.994-6.4,6.09,6.09,0,0,1,4.947-4.647,6.336,6.336,0,0,1,7.4,4.731c.029.11.058.22.081.3.8-.356,1.566-.719,2.352-1.041a.654.654,0,0,1,.988.471c.061.429-.2.622-.556.789-.784.371-1.551.775-2.321,1.174-.281.146-.345.414-.446.707a3.571,3.571,0,0,0,.311,2.6c.164.411.311.829.447,1.249a1.046,1.046,0,0,1-1.206,1.427l-.817-.124a11.639,11.639,0,0,0,.553,5.1l1.6-.095c0-.737-.01-1.469,0-2.2a10.938,10.938,0,0,1,.09-1.232,2.286,2.286,0,0,1,.2-.628,1.718,1.718,0,0,1,2.41-1.03,15.949,15.949,0,0,0,9.625.34,12.489,12.489,0,0,0,2.048-.82,1.723,1.723,0,0,1,1.876.12,3.247,3.247,0,0,1,1.477,2.729c.017.9,0,1.8,0,2.714l1.655.107a13.363,13.363,0,0,0,.554-5.1c-.656.01-1.325.4-1.871-.192s-.153-1.191.045-1.861c-.869-.025-1.084-.688-1.389-1.327a6.256,6.256,0,0,0-2.96-2.763,15.457,15.457,0,0,0-8.366-1.612c-.177.012-.353.035-.53.038a.662.662,0,1,1-.085-1.317c.958-.042,1.921-.115,2.875-.065a15.727,15.727,0,0,1,6.628,1.728,7.78,7.78,0,0,1,3.821,3.786.475.475,0,0,0,.334.2c.066.011.211-.117.223-.2a2.364,2.364,0,0,0,.055-.889,6.375,6.375,0,1,1,12.487-2.492,6.072,6.072,0,0,1-2.4,5.942,6.221,6.221,0,0,1-6.359.863,6.459,6.459,0,0,0-1.157-.207,21.125,21.125,0,0,1-.017,2.417c-.134,1.109-.373,2.207-.593,3.3a.629.629,0,0,0,.16.7,3.129,3.129,0,0,1,.963,2.306,9.6,9.6,0,0,1-.045,1.547,3.361,3.361,0,0,1-3.307,2.837c-.25.008-.5,0-.726,0a15.732,15.732,0,0,1-.638,1.714,5.953,5.953,0,0,1-4.609,3.342c-.285.045-.376.133-.363.411.02.425,0,.852,0,1.336.271,0,.5,0,.736,0a31.953,31.953,0,0,1,4.023.114,6.288,6.288,0,0,1,5.325,5.85.657.657,0,0,1-.537.746.63.63,0,0,1-.757-.51c-.1-.415-.146-.844-.263-1.254a4.951,4.951,0,0,0-4.5-3.6c-.074,0-.148-.005-.222-.013-.914-.1-1.764-.063-2.161.978a6.308,6.308,0,0,1-10.2-.56.818.818,0,0,0-.814-.429,7.045,7.045,0,0,0-2.662.335,4.984,4.984,0,0,0-3.186,4.043c-.319,1.951-.615,3.906-.941,5.856-.066.391.027.548.437.542,1-.014,2,0,3.067,0v-1.2q0-1.44,0-2.881c0-.556.239-.869.656-.874s.671.31.672.858c0,1.343,0,2.687,0,4.065h16.131v-.461c0-1.211,0-2.422,0-3.634,0-.517.25-.824.656-.828s.669.305.67.816c0,1.358,0,2.716,0,4.142h1.592c.487,0,.975,0,1.462,0,.462,0,.52-.076.448-.522q-.18-1.114-.356-2.229a.69.69,0,0,1,.549-.863.671.671,0,0,1,.752.637c.148.843.3,1.686.411,2.534.107.785-.287,1.329-1.223,1.773Zm20.568-25.791q0-2.413,0-4.827a2,2,0,0,0-.813-1.642.551.551,0,0,0-.682-.054,13.768,13.768,0,0,1-5.826,1.475,17.557,17.557,0,0,1-6.916-1c-.309-.112-.506-.036-.592.246a3.987,3.987,0,0,0-.239,1.107c-.019,3.041-.016,6.082-.009,9.123a4.785,4.785,0,0,0,4.946,4.944q2.59.01,5.182,0a4.787,4.787,0,0,0,4.95-4.942C2652.913,269.9,2652.909,268.429,2652.908,266.952Zm2.866-8.445c.472-.078.863-.129,1.248-.208a4.685,4.685,0,0,1,2.746.16,4.974,4.974,0,0,0,6.677-4.453,5.032,5.032,0,1,0-9.886,1.033,2.271,2.271,0,0,1-.072,1.46C2656.235,257.135,2656.027,257.789,2655.774,258.507Zm-20.807,0c-.281-.8-.564-1.5-.765-2.216a2.371,2.371,0,0,1-.038-1.111,6.145,6.145,0,0,0,.135-2.236,5.042,5.042,0,1,0-2.84,5.341,2.01,2.01,0,0,1,1.286-.153C2633.449,258.274,2634.162,258.376,2634.967,258.51Zm6.479,22.133a4.881,4.881,0,0,0,7.817.038c-.145-.011-.27-.027-.394-.03-1.133-.021-1.567-.462-1.569-1.6q0-.679,0-1.359h-3.862c0,.568.008,1.1,0,1.627a1.259,1.259,0,0,1-1.259,1.321C2641.95,280.657,2641.721,280.643,2641.446,280.643Zm-4.97-14.512c-.211,0-.4,0-.586,0a2.032,2.032,0,0,0-2.14,2.182c0,.251,0,.5,0,.753a2.108,2.108,0,0,0,2.726,2.052Zm17.782,5.02a2.17,2.17,0,0,0,2.732-2.365c-.013-.146,0-.295,0-.442a2.107,2.107,0,0,0-2.73-2.149Z" transform="translate(-2622.925 -247.351)" fill="#133d60"/>
        <path id="Trazado_126671" data-name="Trazado 126671" d="M2674.8,303.974c.69.188,1.361.341,2.01.559a.64.64,0,0,1,.423.882.656.656,0,0,1-.92.334,3.7,3.7,0,0,0-3.039,0,.651.651,0,0,1-.915-.345.642.642,0,0,1,.434-.878C2673.447,304.313,2674.118,304.16,2674.8,303.974Z" transform="translate(-2652.359 -281.098)" fill="#133d60"/>
        <path id="Trazado_126672" data-name="Trazado 126672" d="M2665.361,289.935a2.482,2.482,0,0,1-.328,0,.65.65,0,0,1-.055-1.289,5.8,5.8,0,0,0,.961-.133,10.141,10.141,0,0,0,1.513-.693c.419-.235.784-.244,1.023.076a.685.685,0,0,1-.225,1A4.974,4.974,0,0,1,2665.361,289.935Z" transform="translate(-2647.665 -271.367)" fill="#133d60"/>
        <path id="Trazado_126673" data-name="Trazado 126673" d="M2685.388,289.9a4.857,4.857,0,0,1-2.859-1.047.676.676,0,0,1-.2-1,.659.659,0,0,1,.983-.062,4.083,4.083,0,0,0,2.39.811.618.618,0,0,1,.654.639.594.594,0,0,1-.531.654A2.433,2.433,0,0,1,2685.388,289.9Z" transform="translate(-2658.245 -271.338)" fill="#133d60"/>
        <path id="Trazado_126674" data-name="Trazado 126674" d="M2669.465,296.862a.707.707,0,0,1-.662.785c-.406.007-.67-.314-.667-.811s.239-.769.649-.773S2669.47,296.365,2669.465,296.862Z" transform="translate(-2649.871 -276.383)" fill="#133d60"/>
        <path id="Trazado_126675" data-name="Trazado 126675" d="M2686.858,296.827c.005.5-.252.82-.658.819a.7.7,0,0,1-.67-.776c-.008-.5.249-.808.67-.808S2686.854,296.343,2686.858,296.827Z" transform="translate(-2660.237 -276.383)" fill="#133d60"/>
        <path id="Trazado_126676" data-name="Trazado 126676" d="M2716.967,256.4a1.672,1.672,0,0,1-1.045,1.646c-.3.146-.535.287-.513.709a.612.612,0,0,1-.664.622.664.664,0,0,1-.642-.654,1.526,1.526,0,0,1,.935-1.718c.622-.294.694-.464.573-.915a.878.878,0,0,0-.9-.635q-.7.033-.843.864c-.083.473-.375.724-.765.66a.709.709,0,0,1-.548-.871,2.213,2.213,0,0,1,4.414.295Z" transform="translate(-2676.338 -251.383)" fill="#133d60"/>
        <path id="Trazado_126677" data-name="Trazado 126677" d="M2717.728,270.067a.674.674,0,0,1-.7.686.66.66,0,0,1-.619-.716.669.669,0,0,1,.649-.692A.692.692,0,0,1,2717.728,270.067Z" transform="translate(-2678.638 -260.459)" fill="#133d60"/>
        <path id="Trazado_126678" data-name="Trazado 126678" d="M2635.683,254.112a2.236,2.236,0,0,1,2.132,2.847,1.775,1.775,0,0,1-1.06,1.119.615.615,0,0,0-.443.66.578.578,0,0,1-.606.626.626.626,0,0,1-.689-.554,1.487,1.487,0,0,1,.774-1.717c.09-.05.18-.1.273-.145.356-.157.6-.365.47-.813a.885.885,0,0,0-1.714-.051c-.033.128-.029.265-.066.392a.654.654,0,0,1-1.288-.151A2.192,2.192,0,0,1,2635.683,254.112Z" transform="translate(-2629.206 -251.38)" fill="#133d60"/>
        <path id="Trazado_126679" data-name="Trazado 126679" d="M2637.934,269.344a.669.669,0,0,1,.662.68.661.661,0,0,1-.652.729.674.674,0,0,1-.673-.674A.694.694,0,0,1,2637.934,269.344Z" transform="translate(-2631.475 -260.459)" fill="#133d60"/>
      </g>
    </g>
  </g>
</svg>
