<svg xmlns="http://www.w3.org/2000/svg" width="114.064" height="85.84" viewBox="0 0 114.064 85.84">
  <g id="Grupo_133805" data-name="Grupo 133805" transform="translate(-221.076 -3019.054)">
    <g id="Grupo_78348" data-name="Grupo 78348" transform="translate(221.076 3021)">
      <path id="Trazado_113319" data-name="Trazado 113319" d="M1572.434,1094v-8.714h-8.783v-6.015h8.783v-8.714h5.855v8.714h8.806v6.015h-8.806V1094Z" transform="translate(-1563.651 -1070.555)" fill="#5bd3a9"/>
    </g>
    <g id="TGvAC9" transform="translate(-1486.852 2766.364)">
      <g id="Grupo_134911" data-name="Grupo 134911" transform="translate(1736.17 252.69)">
        <path id="Trazado_127843" data-name="Trazado 127843" d="M1781.753,252.69c1.627.224,3.263.394,4.878.683a42.392,42.392,0,0,1,20.523,9.792,1.318,1.318,0,0,1,.33,1.969c-.528.587-1.217.582-2-.092a39.632,39.632,0,0,0-13.034-7.553c-20.148-6.935-42,2.377-50.34,21.958-6.415,15.06-4.143,29.249,6.028,42.122.19.241.4.467.579.716a1.2,1.2,0,0,1-.136,1.73,1.224,1.224,0,0,1-1.791-.166c-.9-1.063-1.8-2.137-2.606-3.276a42.3,42.3,0,0,1-7.733-29.855,42.8,42.8,0,0,1,34.318-37.194c1.913-.36,3.857-.559,5.786-.834Z" transform="translate(-1736.171 -252.69)" fill="#fff"/>
        <path id="Trazado_127844" data-name="Trazado 127844" d="M1825.4,301.527c-.212,1.6-.375,3.21-.644,4.8a42.588,42.588,0,0,1-32.292,34.381c-14.121,3.241-26.83.065-37.992-9.2-.766-.636-.925-1.358-.469-1.955.5-.658,1.21-.638,2.057,0,1.7,1.271,3.334,2.64,5.127,3.76,22.855,14.278,53.342,2.357,60.253-23.707,3.59-13.54.713-25.866-8.181-36.74-.088-.108-.183-.211-.268-.322-.609-.784-.6-1.5.024-1.993a1.331,1.331,0,0,1,1.906.382,42.367,42.367,0,0,1,9.8,20.517c.288,1.616.459,3.252.683,4.879Z" transform="translate(-1739.578 -256.102)" fill="#fff"/>
        <path id="Trazado_127845" data-name="Trazado 127845" d="M1786.266,316.085a49.619,49.619,0,0,1,11.121,1.514,8.035,8.035,0,0,1,6.193,8.331,7.947,7.947,0,0,1-7.8,7.4,9.708,9.708,0,0,1-2.48-.319,37.05,37.05,0,0,0-17.245.075,7.958,7.958,0,1,1-3.7-15.479A54.321,54.321,0,0,1,1786.266,316.085ZM1768.755,325a63.851,63.851,0,0,1,32.229-.013,5.236,5.236,0,0,0-4.422-4.989c-2.708-.512-5.434-1.008-8.174-1.251a45.1,45.1,0,0,0-15.678,1.378A5.206,5.206,0,0,0,1768.755,325Zm.415,2.493a5.336,5.336,0,0,0,5.679,3.269c2.779-.434,5.554-.966,8.352-1.2a39.122,39.122,0,0,1,11.616,1.172,5.24,5.24,0,0,0,5.792-3.238A61.074,61.074,0,0,0,1769.171,327.5Z" transform="translate(-1741.985 -264.978)" fill="#fff"/>
        <path id="Trazado_127846" data-name="Trazado 127846" d="M1801.067,301.968a18.047,18.047,0,0,1,.344-2.722,4.439,4.439,0,0,1,4.092-3.171,1.27,1.27,0,0,1,1.491,1.118c.063.681-.375,1.17-1.2,1.338a2.213,2.213,0,0,0-2.122,2.587c0,.754-.021,1.509.014,2.261a2.1,2.1,0,0,0,2.027,2.051,2.134,2.134,0,0,0,2.137-1.952c.061-.637.014-1.283.032-1.926.026-.938.481-1.456,1.255-1.449.732.007,1.221.51,1.244,1.394a16.2,16.2,0,0,1-.084,2.423,4.577,4.577,0,0,1-9.115-.352c-.031-.528,0-1.06,0-1.591Z" transform="translate(-1748.75 -261.099)" fill="#fff"/>
        <path id="Trazado_127847" data-name="Trazado 127847" d="M1775.37,302.609c0,2.588-.942,4.228-2.877,5.006a4.542,4.542,0,0,1-6.241-3.658,18.845,18.845,0,0,1,.009-4,4.446,4.446,0,0,1,4.269-3.882,1.237,1.237,0,0,1,1.452,1.058c.089.726-.307,1.217-1.121,1.39-1.687.358-2.2.988-2.207,2.7,0,.671-.021,1.342.007,2.011a2.159,2.159,0,0,0,2.163,2.2,2.125,2.125,0,0,0,2.033-2.223c.019-.614-.024-1.232.026-1.843a1.213,1.213,0,0,1,1.282-1.258c.721.02,1.157.49,1.2,1.329C1775.388,301.826,1775.37,302.218,1775.37,302.609Z" transform="translate(-1741.981 -261.098)" fill="#fff"/>
        <path id="Trazado_127848" data-name="Trazado 127848" d="M1809.1,273.979c-.809-.772-1.506-1.416-2.18-2.083-.836-.827-.953-1.6-.355-2.166s1.274-.467,2.106.36c.691.687,1.371,1.384,2.152,2.174.768-.8,1.465-1.558,2.19-2.284s1.406-.8,1.982-.252c.593.568.521,1.28-.237,2.042-.709.712-1.441,1.4-2.309,2.242.862.813,1.695,1.548,2.464,2.342a1.224,1.224,0,0,1-.172,2.053,1.284,1.284,0,0,1-1.657-.351c-.734-.759-1.455-1.533-2.279-2.406-.821.851-1.523,1.6-2.25,2.326-.706.705-1.427.783-1.983.251-.576-.551-.5-1.308.232-2.041C1807.517,275.478,1808.252,274.8,1809.1,273.979Z" transform="translate(-1749.743 -255.922)" fill="#fff"/>
        <path id="Trazado_127849" data-name="Trazado 127849" d="M1777.383,292.652a1.152,1.152,0,0,1-1.251,1.243,2.961,2.961,0,0,1-.953-.275q-5.574-2.468-11.137-4.957a3.287,3.287,0,0,1-.729-.4,1.035,1.035,0,0,1-.331-1.47,2.839,2.839,0,0,1,1.287-.68c.164-.059.422.1.624.189q5.725,2.538,11.446,5.084C1776.9,291.634,1777.377,291.947,1777.383,292.652Z" transform="translate(-1741.33 -259.166)" fill="#fff"/>
        <path id="Trazado_127850" data-name="Trazado 127850" d="M1798.919,294.014c-.3-.27-.832-.525-.9-.873a2.309,2.309,0,0,1,.359-1.412c.134-.243.554-.342.858-.477q5.451-2.433,10.908-4.853a4.211,4.211,0,0,1,.863-.3,1.119,1.119,0,0,1,1.308.659,1.147,1.147,0,0,1-.338,1.5,3.3,3.3,0,0,1-.729.4q-5.566,2.485-11.136,4.957C1799.782,293.753,1799.432,293.842,1798.919,294.014Z" transform="translate(-1748.154 -259.16)" fill="#fff"/>
      </g>
    </g>
  </g>
</svg>
