<svg xmlns="http://www.w3.org/2000/svg" width="371.974" height="230.711" viewBox="0 0 371.974 230.711">
  <g id="Grupo_135043" data-name="Grupo 135043" transform="translate(5046 6698.291)">
    <g id="Grupo_134923" data-name="Grupo 134923" transform="translate(-5660.013 -10946)">
      <path id="Trazado_127913" data-name="Trazado 127913" d="M496.41,46.182c-6.537-2.528-11.774-6.418-17.73-9.584-23.228-12.348-58.295-11.985-79.942.826-9.549,5.651-16.633,13.354-27.491,17.743-19,7.678-43.741,6.713-61.55,16.014-10.62,5.546-12.665,11.642-13.149,20.291-.635,11.309-5.966,22.406-15.124,31.586-9.742,9.765-23.867,17.632-29.663,28.872-3.56,6.907-3.619,14.517-2.589,21.908,3.137,22.54,22.157,44.165,54.546,51.532,14.567,3.314,30.311,3.5,44.517,7.548,8.618,2.456,16.337,6.244,24.547,9.331,33.217,12.487,75.011,12.582,107.312.244,9.519-3.636,18.337-8.294,28.711-10.62,9.441-2.117,19.653-2.178,29.327-3.762a75.693,75.693,0,0,0,37.708-17.432c10.251-8.706,11.609-20.587,18.461-30.8,4.465-6.655,11.456-12.3,16.425-18.772,12.091-15.753,14.488-38.748-1.046-54.5-11.354-11.516-32.358-17.273-42.87-29.16-2.659-3.008-4.544-6.31-7.122-9.351-5.777-6.821-15.1-12.194-25.772-14.852-12.2-3.039-25.927-2.642-37.323-6.99Z" transform="translate(365.42 4226.74)" fill="#b3dcf5"/>
      <path id="Trazado_127914" data-name="Trazado 127914" d="M258.24,127.747a4.316,4.316,0,0,1-2.5-.058,3.675,3.675,0,0,1-1.666-1.77c-2.26-4.323-.575-9.7,2.068-13.8s6.214-7.637,8.168-12.105c1.649-3.775,2.049-8.02,3.848-11.724s5.84-6.934,9.78-5.729c8.837,2.7,6.071,21.085,3.552,27.488C277.949,119.065,267.444,126,258.24,127.747Z" transform="translate(366.959 4227.987)" fill="#b3dcf5"/>
      <path id="Trazado_127915" data-name="Trazado 127915" d="M451.908,91.9c4.534-1.972,7.284-8.162,4.376-12.159-3.083-4.24-9.782-3.537-13.945-6.719-4.362-3.337-4.974-11.223-10.07-13.524-6.168-2.786-11.054,1.623-11.752,7.445C418.932,80.14,439.807,97.168,451.908,91.9Z" transform="translate(514.198 4220.429)" fill="#b3dcf5"/>
    </g>
    <g id="Grupo_134922" data-name="Grupo 134922" transform="translate(-5615.346 -7099.184)">
      <path id="Trazado_127879" data-name="Trazado 127879" d="M569.372,1678c0,6.762,78.788,14.613,169.568,14.613s164.373-5.482,164.373-12.244-73.592-12.243-164.373-12.243S569.372,1671.237,569.372,1678Z" transform="translate(0 -1064.469)" fill="#32323f" opacity="0.17"/>
      <path id="Trazado_127880" data-name="Trazado 127880" d="M1254.763,1089.021c-2.8,1.607-25.04-22.056-28.873-25.4-1.171-1.022-15.2-.756-14.133,3.566.876,3.548,32.628,51.783,46.67,43.158,9.16-5.627,34.911-44.546,39.241-56.236,4.193-11.318-21.963-19.973-21.643-8.942C1276.41,1058.4,1258.084,1087.118,1254.763,1089.021Z" transform="translate(-517.889 -558.083)" fill="#0069ab"/>
      <path id="Trazado_127881" data-name="Trazado 127881" d="M1254.763,1089.021c-2.8,1.607-25.04-22.056-28.873-25.4-1.171-1.022-15.2-.756-14.133,3.566.876,3.548,32.628,51.783,46.67,43.158,9.16-5.627,34.911-44.546,39.241-56.236,4.193-11.318-21.963-19.973-21.643-8.942C1276.41,1058.4,1258.084,1087.118,1254.763,1089.021Z" transform="translate(-517.889 -558.083)" fill="#0a0a0a" opacity="0.18"/>
      <g id="Grupo_134914" data-name="Grupo 134914" transform="translate(647.117 498.332)">
        <path id="Trazado_127882" data-name="Trazado 127882" d="M1113.8,1562.563c.359-5.332,2.936-18.568,2.936-18.568l14.01,1.8-4.051,19.843-10.255,4.828Z" transform="translate(-1086.075 -1462.719)" fill="#efaea6"/>
        <path id="Trazado_127883" data-name="Trazado 127883" d="M997.677,1627.062c-1.426-.531-.985.944-1.8,3.1-1.867,4.922-20.349,2.794-23.19,2.909-1.466.06-4.7,7.236,2.456,8.084,6.188.734,26,3.157,32.777,3.917a3.134,3.134,0,0,0,3.282-1.981c1.821-4.753,2.421-12.4.553-12.795C1009.011,1629.027,1003.617,1629.275,997.677,1627.062Z" transform="translate(-970.674 -1529.606)" fill="#211b2d"/>
        <path id="Trazado_127884" data-name="Trazado 127884" d="M1222.727,1200.665c-31.718,0-49.91-77.508-72.174-76.181-18.343,1.094-65.127,90.471-55.643,92.414s20.644,7.746,22.132,2.636,26.745-66.631,34.66-57.457,22.9,63.2,28.055,64.733S1222.727,1200.665,1222.727,1200.665Z" transform="translate(-1069.829 -1124.468)" fill="#3b3b4d"/>
        <path id="Trazado_127885" data-name="Trazado 127885" d="M1222.727,1200.665c-31.718,0-49.91-77.508-72.174-76.181-18.343,1.094-65.127,90.471-55.643,92.414s20.644,7.746,22.132,2.636,26.745-66.631,34.66-57.457,22.9,63.2,28.055,64.733S1222.727,1200.665,1222.727,1200.665Z" transform="translate(-1069.829 -1124.468)" fill="#0a0a0a" opacity="0.24"/>
      </g>
      <g id="Grupo_134915" data-name="Grupo 134915" transform="translate(598.332 575.883)">
        <path id="Trazado_127886" data-name="Trazado 127886" d="M861.077,1539.908c2.771-4.57,11.145-15.138,11.145-15.138l11.615,8.038-12.722,15.758-11.326-.429Z" transform="translate(-832.486 -1524.77)" fill="#efaea6"/>
        <path id="Trazado_127887" data-name="Trazado 127887" d="M747.9,1564.383c-1.022-1.127-1.309.386-3.022,1.92-3.922,3.513-19.355-6.876-21.93-8.08-1.33-.622-7.5,4.264-1.537,8.308,5.158,3.5,21.637,14.76,27.305,18.551a3.135,3.135,0,0,0,3.825-.25c3.8-3.383,7.852-9.9,6.374-11.107C757.062,1571.34,752.158,1569.08,747.9,1564.383Z" transform="translate(-718.857 -1551.699)" fill="#211b2d"/>
      </g>
      <path id="Trazado_127888" data-name="Trazado 127888" d="M1044.7,1228.148c-5.812,13.525-17.845,24.433-40.666,17.565-7.98-2.4-24.143-11.694-30.278-20.941-3.287-4.956-8.793-13.858-14.72-23.319v0c-11.452-18.278-24.476-38.64-26.123-36.651-2.5,3.016-48.266,59.364-53.337,59.956s-20.051-8.891-17.543-13.143,52.571-78.323,74.319-79.945c15.35-1.144,58.438,65.253,67.109,68.4s45.91,1.791,45.91,1.791A62.872,62.872,0,0,1,1044.7,1228.148Z" transform="translate(-235.739 -631.93)" fill="#3b3b4c"/>
      <path id="Trazado_127889" data-name="Trazado 127889" d="M1608.782,922.167l-14.741,6.333s-8.174-4.95-6.184-7.8c1.771-2.539,2.011-6.069,1.7-9.132a25.164,25.164,0,0,0-.773-4.144,15.066,15.066,0,0,0-.523-1.582c-.6-1.474-1.1-1.49-1.119-1.49l.892-.554,4.4-2.724.28-1.023,1.313-4.777a20.259,20.259,0,0,1,6.805,8.064C1602.827,907.966,1607.607,916.742,1608.782,922.167Z" transform="translate(-820.596 -441.341)" fill="#ffafa6"/>
      <path id="Trazado_127890" data-name="Trazado 127890" d="M1593.194,931.448a25.158,25.158,0,0,0-.773-4.144,11.536,11.536,0,0,0-.4-1.385,5.2,5.2,0,0,1-.346-2.24c.3-2.99,4.4-2.724,4.4-2.724s-.168-1.037.28-1.023c.15,0,.367.126.68.439C1599.067,922.407,1600.362,932.2,1593.194,931.448Z" transform="translate(-824.233 -461.223)" fill="#191939" opacity="0.18"/>
      <g id="Grupo_134916" data-name="Grupo 134916" transform="translate(745.961 435.869)">
        <path id="Trazado_127891" data-name="Trazado 127891" d="M1515.294,856.484c1.255,4.113-.014,13.448,2.671,12.365s2.643,8.692,5.542,7.644c7.023-2.54,13.249-10.11,12.813-13.816s-4.646-12.86-4.646-12.86Z" transform="translate(-1508.628 -840.563)" fill="#f2a39e"/>
        <path id="Trazado_127892" data-name="Trazado 127892" d="M1496.217,818.941c-2.083,1.129-1.945,1.673-3.772,1.544s-.02-3.3-3.065-2.63-6.25,1.745-7.851-1.4c-2.317-4.558,2.169-5.495,4.977-5.982,1.807-.313.776-4.1,4.17-5.275,2.662-.922,2.964.726,5.375.009,1.456-.433,3.279-3.845,6.146-3.029,5.319,1.515,3.461,6.728,8.18,8.727,5.5,2.332-.317,14.322-1.778,13.738-1.706-.682-1.5-5.461-3.125-5.911-2.457-.679-2.052,1.024-3.041,3.147-1.056,2.267-4.137,3.609-3.359-.266S1498.1,817.919,1496.217,818.941Z" transform="translate(-1480.886 -802.049)" fill="#191939"/>
      </g>
      <path id="Trazado_127893" data-name="Trazado 127893" d="M1579.447,970.107c-5.018-1.115-7.874,7.353-11.869,7.912-2.425.34-1.356-4.21-2.573-5.314a5.9,5.9,0,0,0-2.568,2.428c-15.11,28.075,3.833,87.548,3.833,87.548s12.678,11.691,37.445,11.354c15.081-.205.244-15.15-.441-18.709s-12.837-73.057-12.837-73.057S1587.236,976.549,1579.447,970.107Z" transform="translate(-795.962 -501.598)" fill="#fff"/>
      <path id="Trazado_127894" data-name="Trazado 127894" d="M1673.217,1089.419c-4.433,12.43-10.8,2.629-16.229-4.285a36.215,36.215,0,0,0-3.119-3.6c-2.739-2.7-2.807-5.748-2.571-9.652q.032-.514.068-1.048v-.014c.012-.188.023-.376.037-.567.025-.391.051-.791.073-1.2.07-1.222.12-2.522.1-3.911,0-.116,0-.233-.008-.351q-.006-.34-.023-.686c-.006-.145-.014-.294-.021-.443-.025-.449-.058-.9-.1-1.37-.014-.143-.027-.291-.043-.436a.213.213,0,0,1,0-.033c-.017-.157-.035-.316-.054-.475-.017-.137-.035-.277-.054-.418-.027-.211-.058-.424-.091-.639-.019-.132-.041-.267-.064-.4v0c-.027-.167-.056-.335-.089-.5s-.06-.335-.095-.506q-.1-.512-.221-1.034c-.039-.172-.08-.347-.122-.521a.045.045,0,0,1,0-.016c-.039-.161-.081-.325-.124-.488-.05-.19-.1-.383-.155-.575s-.1-.364-.157-.548-.11-.368-.169-.554q-.4-1.3-.945-2.677l-.081-.205c-.066-.167-.134-.335-.206-.5-.023-.06-.05-.12-.075-.182-.066-.157-.132-.314-.2-.471-.01-.021-.019-.043-.029-.066-.081-.186-.165-.374-.252-.562q-.285-.634-.6-1.285c-1.928-4.448-4.485-9.274-6.742-14.144-.68-1.467-1.333-2.937-1.934-4.4a.244.244,0,0,0-.013-.035,55.469,55.469,0,0,1-2.213-6.389,37.635,37.635,0,0,1-1.2-12.443.418.418,0,0,1,0-.048c.109-2.623.37-5.365.74-8.148.389-2.958.9-5.961,1.47-8.916.062-.318.122-.635.184-.953a.015.015,0,0,0,0-.008q.259-1.308.529-2.6c.041-.2.081-.391.122-.585,1.526-7.226,3.239-13.867,4.187-18.439.186-.893.341-1.707.461-2.429,0-.017.006-.033.008-.048,6.031-1.528,13.515,2.325,19.677,8.848a45.905,45.905,0,0,1,9.853,16.117,36.03,36.03,0,0,1,1.8,7.8c.312,2.972.575,5.857.82,8.642.922,10.578-3.355,22.994-1.529,29.993,2.367,9.109-1.389,6.831,2.614,18.722C1679.992,1070.332,1678.043,1075.9,1673.217,1089.419Z" transform="translate(-859.527 -501.003)" fill="#0267a4"/>
      <path id="Trazado_127895" data-name="Trazado 127895" d="M1549.736,1076.994a3.293,3.293,0,0,1-1.8-.637,21.693,21.693,0,0,1-6.686-7.587c-2.272-4.039-3.636-8.712-3.444-12.5.13-2.594-1.968-6.949-3.088-13.071-.025-.136-.049-.271-.072-.409-.136-.781-.256-1.591-.351-2.429-.711-6.172-2.022-15.006-2.937-19.633a53.768,53.768,0,0,1-.608-9.131c.014-1.461.079-3.028.223-4.65.446-5.006,1.629-10.529,4.314-15.072a18.449,18.449,0,0,1,8.857-7.92l.025-.012a41.03,41.03,0,0,0-2.77,5.818,48.933,48.933,0,0,0-1.68,5.058,42.166,42.166,0,0,0-1.416,8.253c-.082,1.224-.12,2.418-.122,3.586-.012,8.245,1.85,15.231,3.871,23.573q.137.561.273,1.134c.907,3.783,1.831,7.861,2.617,12.467a121.228,121.228,0,0,0,3.447,15.2c1.49,4.923,2.658,7.321,3.187,11.542C1552.064,1074.444,1551.444,1076.953,1549.736,1076.994Z" transform="translate(-775.126 -512.833)" fill="#0067a7"/>
      <path id="Trazado_127896" data-name="Trazado 127896" d="M1549.736,1076.994a3.293,3.293,0,0,1-1.8-.637,21.693,21.693,0,0,1-6.686-7.587c-2.272-4.039-3.636-8.712-3.444-12.5.13-2.594-1.968-6.949-3.088-13.071-.025-.136-.049-.271-.072-.409-.136-.781-.256-1.591-.351-2.429-.711-6.172-2.022-15.006-2.937-19.633a53.768,53.768,0,0,1-.608-9.131c.014-1.461.079-3.028.223-4.65.446-5.006,1.629-10.529,4.314-15.072a18.449,18.449,0,0,1,8.857-7.92l.025-.012a41.03,41.03,0,0,0-2.77,5.818,48.933,48.933,0,0,0-1.68,5.058,42.166,42.166,0,0,0-1.416,8.253c-.082,1.224-.12,2.418-.122,3.586-.012,8.245,1.85,15.231,3.871,23.573q.137.561.273,1.134c.907,3.783,1.831,7.861,2.617,12.467a121.228,121.228,0,0,0,3.447,15.2c1.49,4.923,2.658,7.321,3.187,11.542C1552.064,1074.444,1551.444,1076.953,1549.736,1076.994Z" transform="translate(-775.126 -512.833)" fill="#0a0a0a" opacity="0.18"/>
      <path id="Trazado_127897" data-name="Trazado 127897" d="M1651.551,1169.245c.35-5.306.86-12.146-3.782-21.641-2.508-5.788-6.083-12.216-8.676-18.549a.243.243,0,0,0-.013-.034,47.822,47.822,0,0,1-3.413-18.833.421.421,0,0,1,0-.047,104.322,104.322,0,0,1,2.079-17.055l.132-.009,22.681-1.748C1667.226,1110.472,1653.214,1160.721,1651.551,1169.245Z" transform="translate(-859.712 -599.416)" fill="#0a0a0a" opacity="0.15"/>
      <path id="Trazado_127898" data-name="Trazado 127898" d="M1449.572,1518.637c-5.812,13.525-17.845,24.433-40.666,17.565-7.98-2.4-24.144-11.694-30.278-20.941-3.287-4.956-8.793-13.858-14.72-23.319C1391.318,1521.828,1429.09,1530.224,1449.572,1518.637Z" transform="translate(-640.61 -922.419)" fill="#0a0a0a" opacity="0.18"/>
      <g id="Grupo_134918" data-name="Grupo 134918" transform="translate(783.29 558.755)">
        <path id="Trazado_127899" data-name="Trazado 127899" d="M1849.448,1436.36l-13.283.152c-2.049.023-3.674,2.5-3.631,5.521l.119,8.395a.072.072,0,0,0,.071.072l2.472-.028a.072.072,0,0,0,.069-.074l-.084-5.915c-.032-2.263,1.182-4.112,2.714-4.13l9.93-.114c1.532-.018,2.8,1.8,2.831,4.066l.084,5.915a.072.072,0,0,0,.071.073l2.472-.028a.072.072,0,0,0,.069-.074l-.119-8.395C1853.191,1438.772,1851.5,1436.337,1849.448,1436.36Z" transform="translate(-1801.737 -1436.36)" fill="#201b2c"/>
        <path id="Trazado_127900" data-name="Trazado 127900" d="M1836.164,1436.98c-2.051.024-3.675,2.5-3.632,5.522l.12,8.393a.072.072,0,0,0,.071.072l2.471-.028a.072.072,0,0,0,.069-.074l-.084-5.915c-.032-2.262,1.184-4.112,2.715-4.13h0l1.017-3.747a.073.073,0,0,0-.068-.093Z" transform="translate(-1801.737 -1436.86)" fill="#201b2c"/>
        <g id="Grupo_134917" data-name="Grupo 134917" transform="translate(0 8.584)">
          <path id="Trazado_127901" data-name="Trazado 127901" d="M1673.573,1489.945l.345,38.955a4.2,4.2,0,0,0,4.129,4.239h.051l66.787.513c7.536-.042,7.437-5.584,7.417-7.9l.731-36.821c-.021-2.315-2.755-8.386-8.783-8.265l-59.422.3-2.23.009A8.857,8.857,0,0,0,1673.573,1489.945Z" transform="translate(-1673.573 -1480.668)" fill="#603a3e"/>
          <path id="Trazado_127902" data-name="Trazado 127902" d="M1673.573,1491.194l.345,38.955a4.2,4.2,0,0,0,4.129,4.239h0a.071.071,0,0,0,.067-.049c.743-2.314,1.193-5.954.778-11.674-1.006-13.885,2.673-29.644,5.908-40.353a.072.072,0,0,0-.068-.094l-2.134.008A8.857,8.857,0,0,0,1673.573,1491.194Z" transform="translate(-1673.573 -1481.916)" fill="#775155"/>
        </g>
      </g>
      <path id="Trazado_127903" data-name="Trazado 127903" d="M1589.256,998.237c-1.974.51-5.715,1.24-7.792.139-.136-.072-.285-.161-.447-.266-1.947-1.253-5.762-4.75-9.024-7.511l-.622-.523h0c-2.069-1.73-3.84-3.065-4.642-3.187s-2.792,1.188-5.167,2.937c-1.978,1.459-4.225,3.22-6.285,4.71a.213.213,0,0,1-.023.019l-.3.219c-2.151,1.542-4.064,2.753-5.207,2.958-1.637.294-6.174.56-10.618.763-.682.033-1.36.062-2.028.089-1.389.058-2.722.11-3.9.155l-1.281.045c.446-5.006,1.629-10.529,4.314-15.072l4.483-1.55,1.629-.564,3.921-1.356,5.279-1.825,7.716-2.668,2.335-.808,3.245-1.122,14.567,8.3A45.9,45.9,0,0,1,1589.256,998.237Z" transform="translate(-776.067 -504.674)" fill="#0a0a0a" opacity="0.15"/>
      <g id="Grupo_134919" data-name="Grupo 134919" transform="translate(693.785 400.892)">
        <path id="Trazado_127904" data-name="Trazado 127904" d="M1698.732,668.421c-.177-18.93.52-19.33.034-22.89-.889-6.511-27.584-21.064-33.81-22.907s-6.39,8.457-7.577,19.427c0,0,4.325,51.444,8.617,52.13,4.1.654,27.215.246,31.248.216.222,0,.365-.081.518-.533C1698.667,691.184,1698.855,681.86,1698.732,668.421Z" transform="translate(-1571.011 -622.233)" fill="#c48653"/>
        <path id="Trazado_127905" data-name="Trazado 127905" d="M1370.948,622.705c-1.845-3.619-61.871,2.136-73.729,1.654-5.7-.232-7.093,4.773-6.9,16.2.148,8.885-.772,11.738.017,28.944.308,6.71.185,16.106.32,24.2.137,8.164,72.014-.246,79.144-.246.289,0,.548-.692.778-1.945C1372.679,680.081,1373.9,628.506,1370.948,622.705Z" transform="translate(-1274.813 -621.504)" fill="#dda66f"/>
        <path id="Trazado_127906" data-name="Trazado 127906" d="M1701.858,991.56c4.462,6.777,15.883,17.225,19.1,16.958s32.123-2.275,30.517-4.149-14.633-13.138-17.846-13.125S1701.858,991.56,1701.858,991.56Z" transform="translate(-1606.873 -919.614)" fill="#dda66f"/>
        <path id="Trazado_127907" data-name="Trazado 127907" d="M1306.55,991.552c-9.28,12.809-13.223,17.8-15.348,18.422-4.674,1.373-81.735.536-79.594-2.142s14.036-16.8,17.129-16.6S1306.55,991.552,1306.55,991.552Z" transform="translate(-1211.565 -919.605)" fill="#e8bc91"/>
      </g>
      <g id="Grupo_134920" data-name="Grupo 134920" transform="translate(710.685 479.116)">
        <path id="Trazado_127908" data-name="Trazado 127908" d="M1310.428,1064.273c-1.481-3.594-1.953-1.078-3.226-6.074a70.865,70.865,0,0,0-5.448-13.455c-1.639-3.312-6.107-13.953.733-18.925,3.907-2.84,6.425,6.335,7.305,9.04,1.241,3.813,3.975,1.626,5.174,2.508,1.026.754-2.536,3.157-1.851,6.136.606,2.635,3.681,6.1,4.125,7.273,1.819,4.824,3.983,6.276,4.063,8.5S1310.428,1064.273,1310.428,1064.273Z" transform="translate(-1298.801 -1025.28)" fill="#e5a5a1"/>
        <path id="Trazado_127909" data-name="Trazado 127909" d="M1364.028,1122.787c-2.892,1.443-20.572-29.866-23.376-34.112-.856-1.3-17.684.4-14.079,5.442,2.125,2.973,21.57,64.18,42.218,53.689,9.584-4.87,31.373-45.817,40.232-54.587,19.807-19.608-18.3-25.623-20.757-14.864C1385.737,1089.414,1367.453,1121.078,1364.028,1122.787Z" transform="translate(-1320.785 -1063.81)" fill="#0267a4"/>
      </g>
      <path id="Trazado_127910" data-name="Trazado 127910" d="M2128.311,1188.52c-8.306-.164-16.965,1.677-25.1-.276-2.967-1-5.688-3.341-6.221-6.426s1.9-6.612,5.027-6.457c1.7.084,3.516,1.134,5,.295,2.084-1.177,1.114-4.486,2.308-6.56,2.728-4.337,9.775-.036,13.024-3.485.968-1.037,1.27-2.527,2.046-3.715,3.786-7.275,14.369-5.675,17.612-1.982,2.36,2.538,2.125,7.172,5.2,8.768,3.25,1.7,7.917-1.539,10.813,1.357,2.064,2.064.849,4.183,2.079,5.892,1.337,1.858,4.039,1.883,6.325,1.762s5.019.023,6.219,1.972C2176.813,1193.938,2133.765,1187.757,2128.311,1188.52Z" transform="translate(-1254.611 -651.284)" fill="#fff"/>
      <path id="Trazado_127911" data-name="Trazado 127911" d="M1034.543,372.773c6.906,0,21.1,12.25.816,14.213s-50.662,1.06-62.955,1.1c-20.066.067-25.043-.753-24.883-8.953.092-4.745,2.654-7.817,13.232-9.062,11-1.295,5.382-13.532,18.815-13.162,11.441.316,12.608,16.335,23.077,12.409s8.276,6.773,15.932,8.736C1026.992,380.214,1027.639,372.773,1034.543,372.773Z" transform="translate(-357.157 65.614)" fill="#e8e8e8"/>
    </g>
  </g>
</svg>
