<svg xmlns="http://www.w3.org/2000/svg" width="58.461" height="60" viewBox="0 0 58.461 60">
  <g id="Grupo_133911" data-name="Grupo 133911" transform="translate(0.001)">
    <ellipse id="Elipse_4912" data-name="Elipse 4912" cx="29.231" cy="30" rx="29.231" ry="30" transform="translate(-0.001)" fill="#d2f3e8"/>
    <g id="W6wih9" transform="translate(-4446.544 -226.23)">
      <g id="Grupo_134903" data-name="Grupo 134903" transform="translate(4456.543 236.229)">
        <path id="Trazado_127798" data-name="Trazado 127798" d="M4490.767,272.409v-1.281h-.709c-2.232,0-4.465-.034-6.7.01a2.559,2.559,0,0,1-2.433-3.718.645.645,0,0,0,.031-.143,3.7,3.7,0,0,1-1.85-.992,4.166,4.166,0,0,1-1.007-1.812v11.067h-1.258v-8.823H4474.3v8.829h-1.261v-1.86h-11.4v1.852h-1.274V266.72h-2.542v8.825h-1.277v-.41q0-6.717,0-13.435a7.119,7.119,0,0,1,5.589-7.055c.585-.139,1.169-.288,1.843-.454a5.913,5.913,0,0,1-2.208-3.309,7.942,7.942,0,0,1-.925-.171,2.528,2.528,0,0,1-1.349-3.8,1.36,1.36,0,0,0,.209-.683c.02-1.308.009-2.616.009-3.923a3.216,3.216,0,0,1,3.227-3.535c.037-.122.075-.258.121-.391a3.156,3.156,0,0,1,2.922-2.119c1.347-.016,2.695-.023,4.042,0a5.061,5.061,0,0,1,4.9,4.91c.028,1.717,0,3.435.014,5.152a.889.889,0,0,0,.126.474,2.536,2.536,0,0,1-2.017,4.043c-.04,0-.078.008-.159.016a5.95,5.95,0,0,1-2.237,3.344c2.091.455,4.093.907,5.553,2.592,1.456-1.679,3.441-2.142,5.436-2.56a8.29,8.29,0,0,1-2.206-3.364,6.43,6.43,0,0,1-.831-.152,2.516,2.516,0,0,1-1-4.216.533.533,0,0,0,.2-.572c-.12-.554-.191-1.118-.278-1.679a3.575,3.575,0,0,1,3.175-4.187.83.83,0,0,0,.453-.238,20.163,20.163,0,0,1,1.918-1.989,6.609,6.609,0,0,1,6.478-1.226,5.673,5.673,0,0,1,3.573,6.835c-.212.858-.439,1.712-.636,2.573a.631.631,0,0,0,.084.489,2.545,2.545,0,0,1-1.833,4.337c-.025,0-.051.012-.013,0a15.942,15.942,0,0,1-.9,1.834,15.379,15.379,0,0,1-1.3,1.535c.653.166,1.327.332,2,.507a7.11,7.11,0,0,1,5.325,6.822c.011,1.294.038,2.59-.006,3.883a5.575,5.575,0,0,1-3.5,5.242.43.43,0,0,0-.3.471c.011,1.321.005,2.642.005,3.963v.445H4490.8v-1.877h-11.409v-1.26Zm-13.937-7.005c0-1.329.031-2.623-.007-3.914a5.747,5.747,0,0,0-2.46-4.653,11.27,11.27,0,0,0-3.959-1.406,3.191,3.191,0,0,1-6.165,0c-.7.176-1.39.333-2.073.526a5.827,5.827,0,0,0-4.353,5.734c-.005,1.123,0,2.245,0,3.368,0,.114.014.227.021.329h2.53v-3.745h1.273v10.73h11.4V261.647h1.273V265.4Zm8.253,4.456h.384c1.518,0,3.038,0,4.556,0a4.442,4.442,0,0,0,4.562-4.553c.005-1.2.022-2.4-.009-3.606a7.664,7.664,0,0,0-.217-1.64,5.649,5.649,0,0,0-2.041-3.078,10.328,10.328,0,0,0-4.172-1.546,3.081,3.081,0,0,1-2.788,2.349,3.119,3.119,0,0,1-3.37-2.339c-1.852.424-3.72.746-5,2.379a8.692,8.692,0,0,1,1.13,5.369,3.556,3.556,0,0,1,3.665-2.845h2.3a2.2,2.2,0,0,0,2.347-1.612,3.219,3.219,0,0,1,2.524-2.112,4.11,4.11,0,0,1,4.114,1.649,5.011,5.011,0,0,1,.881,3.527,5.746,5.746,0,0,1-4.926,5.435c-1.162.132-2.346.066-3.52.089-.138,0-.277,0-.421,0Zm-4.43-24.873c0,1.679-.009,3.342.008,5a3.237,3.237,0,0,0,.18.889,4.431,4.431,0,0,0,8.665-1.217c.023-1.254.006-2.509.007-3.764v-.8c-2.248.2-4.294-.1-5.762-2.03A6.76,6.76,0,0,1,4480.654,244.986Zm-17.751.253c0,1.546-.094,3.161.023,4.761a4.361,4.361,0,0,0,4.2,4,4.432,4.432,0,0,0,4.634-4.388c.019-1.215,0-2.43,0-3.645q0-.489,0-.978a6.759,6.759,0,0,1-3.113-1.919,4.579,4.579,0,0,1-2.572,1.79A31.168,31.168,0,0,1,4462.9,245.239Zm10.729.6a.823.823,0,0,0,.029-.14c0-1.492.021-2.984,0-4.475a3.78,3.78,0,0,0-3.7-3.7c-1.307-.024-2.614-.015-3.92,0a1.889,1.889,0,0,0-1.848,1.547c-.2.976-.2.976-1.224.985-.04,0-.079,0-.119,0a1.831,1.831,0,0,0-1.829,1.649c-.064,1.368-.017,2.741-.017,4.13l.62-.1c0-.38,0-.748,0-1.115.006-.539.231-.76.779-.764.607,0,1.215-.01,1.822,0a3.966,3.966,0,0,0,3.781-2.136.628.628,0,0,1,1.145-.077,5.439,5.439,0,0,0,3.312,2.208.669.669,0,0,1,.575.734c-.005.381,0,.761,0,1.146Zm17.612-.056c.252-1.054.55-2.068.731-3.1a4.334,4.334,0,0,0-3.255-5,5.683,5.683,0,0,0-5.627,1.836,16.15,16.15,0,0,0-1.147,1.364,1.092,1.092,0,0,1-.945.453,2.257,2.257,0,0,0-2.252,2.434,16.086,16.086,0,0,0,.293,1.8c.018.09.154.157.236.234a3.348,3.348,0,0,0,.091-.908c0-.814.051-.891.822-1.1a5.268,5.268,0,0,0,2.931-1.971c.528-.706.926-.675,1.391.1a3.617,3.617,0,0,0,2.709,1.861c.925.112,1.87.063,2.806.085.519.012.746.235.753.752.005.379,0,.758,0,1.142Zm1.2,13.858c-.464.691-.861,1.314-1.288,1.914a4.589,4.589,0,0,1-6.936.7,1.96,1.96,0,0,0-1.718-.641,10.22,10.22,0,0,0-1.607.133,2.165,2.165,0,0,0-1.506,2.4,2.206,2.206,0,0,0,2.158,1.9c2.245.014,4.49.007,6.735,0a4.042,4.042,0,0,0,.9-.119,4.645,4.645,0,0,0,3.454-5.529A7.647,7.647,0,0,0,4492.443,259.641Zm-4.79,2.576a3.751,3.751,0,0,0,3.087-2.407A2.463,2.463,0,0,0,4487.653,262.217Zm-3.862,5.127c-.688-.069-1.317-.048-1.7.6a1.182,1.182,0,0,0,.035,1.345,1.557,1.557,0,0,0,1.668.545Zm-18.3-12.376a1.855,1.855,0,0,0,1.946,1.572,1.788,1.788,0,0,0,1.7-1.561A5.711,5.711,0,0,1,4465.489,254.968Zm21.4.08a14.7,14.7,0,0,1-1.81.21,15.012,15.012,0,0,1-1.814-.21,1.8,1.8,0,0,0,1.739,1.494A1.832,1.832,0,0,0,4486.893,255.048Zm-25.3-7.994a1.239,1.239,0,0,0-1.246,1.339,1.2,1.2,0,0,0,1.246,1.128Zm11.451,2.493a1.255,1.255,0,0,0,1.25-1.277,1.231,1.231,0,0,0-1.25-1.2Zm6.3,0v-2.5a1.249,1.249,0,1,0,0,2.5Zm11.45-.008a1.242,1.242,0,1,0,0-2.485Zm.836,9.188a2.6,2.6,0,0,0-2.532-.849,1.965,1.965,0,0,0-1.516,1.548A3.9,3.9,0,0,1,4491.635,258.728Zm-5.052,2.112-1.34.716,1.065.544Z" transform="translate(-4456.543 -236.229)"/>
        <path id="Trazado_127799" data-name="Trazado 127799" d="M4551.441,286.253l1.084.541a2.561,2.561,0,0,1-2.36,1.638,2.6,2.6,0,0,1-2.5-1.63l1.083-.541a1.494,1.494,0,0,0,1.346.9A1.458,1.458,0,0,0,4551.441,286.253Z" transform="translate(-4521.564 -271.923)"/>
        <path id="Trazado_127800" data-name="Trazado 127800" d="M4485.625,286.853l1.065-.529c1.011,1.2,1.772,1.2,2.767,0l1.04.519a2.54,2.54,0,0,1-2.224,1.636A2.651,2.651,0,0,1,4485.625,286.853Z" transform="translate(-4477.294 -271.971)"/>
      </g>
    </g>
  </g>
</svg>
