<svg xmlns="http://www.w3.org/2000/svg" width="58.461" height="60" viewBox="0 0 58.461 60">
  <g id="Grupo_133908" data-name="Grupo 133908" transform="translate(0.001)">
    <ellipse id="Elipse_4912" data-name="Elipse 4912" cx="29.231" cy="30" rx="29.231" ry="30" transform="translate(-0.001)" fill="#d2f3e8"/>
    <g id="WMLnPV" transform="translate(-4227.996 -233.18)">
      <g id="Grupo_134902" data-name="Grupo 134902" transform="translate(4233.995 243.181)">
        <path id="Trazado_127786" data-name="Trazado 127786" d="M4234,267.082a1.26,1.26,0,0,0,.091-.2,3.63,3.63,0,0,1,2.668-2.745c1.5-.427,3-.821,4.5-1.225.755-.2.9-.379.9-1.162a12.338,12.338,0,0,0-.017-1.711c-.087-.621-.771-.77-1.138-1.189a6.864,6.864,0,0,1-1.718-3.524c-.041-.266-.129-.35-.4-.381a2.044,2.044,0,0,1-1.768-1.368,2.091,2.091,0,0,1,.387-2.206.929.929,0,0,0,.188-.529c.021-.787.006-1.574.01-2.361a4.43,4.43,0,0,1,3.921-4.526,1.279,1.279,0,0,0,.565-.244,2.319,2.319,0,0,1,1.452-.52c1.729,0,3.458-.019,5.186.005a5.108,5.108,0,0,1,5.094,4.963c.036.879,0,1.76.024,2.639a.919.919,0,0,0,.171.541,2.1,2.1,0,0,1,.394,2.288,2.076,2.076,0,0,1-1.937,1.344.714.714,0,0,0-.123.035c-.074.339-.133.7-.234,1.052a6.511,6.511,0,0,1-2.417,3.519.688.688,0,0,0-.323.653c.024.493-.021.989.016,1.481a3.184,3.184,0,0,0,.229.918.721.721,0,0,1-.225.938.637.637,0,0,1-.93-.2,4.747,4.747,0,0,1-.457-1.375,9.166,9.166,0,0,1-.017-1.457,7.108,7.108,0,0,1-4.547-.014c-.023,1.34.273,2.753-1.314,3.535,1.064.6,2.042,1.173,3.044,1.7a1.368,1.368,0,0,0,1.333-.1c.337-.186.662-.4,1.01-.562a.648.648,0,0,1,.863.215.589.589,0,0,1-.082.874c-.968.672-1.966,1.327-3.243.987a4.331,4.331,0,0,1-.975-.409c-1.171-.654-2.327-1.335-3.5-1.985a.9.9,0,0,0-.592-.1c-1,.249-2,.524-2.989.809a2.249,2.249,0,0,0-1.718,2.29q-.007,1.343,0,2.686c0,.647.286.936.932.946.691.011,1.382,0,2.13,0,0-.765-.036-1.488.019-2.2a.682.682,0,0,1,1.164-.53.7.7,0,0,1,.2.531q.015,6.6.006,13.2a.7.7,0,0,1-.672.784c-.426.011-.712-.315-.713-.842q-.005-4.469,0-8.937v-.577h-2.32v7.83a2.813,2.813,0,0,1-.009.416.689.689,0,0,1-1.371-.006,2.816,2.816,0,0,1-.009-.416c0-2.639.007-5.279-.012-7.918a2.119,2.119,0,0,0-.267-.782c-.137-.3-.307-.6-.462-.892Zm11.843-7.565a5.227,5.227,0,0,0,5.219-4.972c.042-.775.245-.966,1.029-.97.108,0,.216,0,.324,0,.541-.014.858-.286.875-.746a.8.8,0,0,0-.821-.821c-.23-.019-.462-.006-.694-.01a2.2,2.2,0,0,1-2-1.272.768.768,0,0,0-.459-.342c-.754-.156-1.517-.269-2.277-.4-1.368-.229-2.735-.463-4.1-.682-.569-.091-.807.073-.868.548a2.179,2.179,0,0,1-2.438,2.151,2.516,2.516,0,0,0-.729.079.7.7,0,0,0-.525.817.731.731,0,0,0,.714.669c.169.013.339.006.509.007.757.005.953.192,1,.946A5.247,5.247,0,0,0,4245.838,259.517Zm-6.686-8.906h.487c.744,0,.959-.2,1.039-.924a1.952,1.952,0,0,1,2.4-1.765c2.4.383,4.8.8,7.2,1.2a.742.742,0,0,1,.7.731.731.731,0,0,0,.6.728,5.922,5.922,0,0,0,.96.011c0-.852.03-1.654-.006-2.453a3.7,3.7,0,0,0-3.635-3.546c-1.727-.032-3.455-.02-5.181,0a1.008,1.008,0,0,0-.687.284,1.223,1.223,0,0,1-1,.456,2.89,2.89,0,0,0-2.856,2.479A21.618,21.618,0,0,0,4239.152,250.611Z" transform="translate(-4233.995 -243.181)" fill="#133d60"/>
        <path id="Trazado_127787" data-name="Trazado 127787" d="M4287.388,309.385l-.39-.069a2.07,2.07,0,0,1-1.794-1.8,8.856,8.856,0,0,1,1.693-6.813,1.816,1.816,0,0,0,.52-1.542,11.258,11.258,0,0,1-.016-1.9,1.433,1.433,0,0,1,2.114-1.366c1.107.466,2.215.933,3.309,1.43a1.053,1.053,0,0,0,.954-.014c1.068-.48,2.146-.937,3.224-1.394a1.441,1.441,0,0,1,2.167,1.385c.007.831-.049,1.663-.058,2.494a.635.635,0,0,0,.154.395,8.254,8.254,0,0,1,2.15,5.8c0,.386.007.772,0,1.158a2.178,2.178,0,0,1-1.885,2.178l-.382.067a5.952,5.952,0,0,1-2.136,3.824,3.037,3.037,0,0,1-.485.353.582.582,0,0,0-.329.593c0,1.332-.006,1.336,1.287,1.712.592.172,1.183.347,1.77.536a3.032,3.032,0,0,1,2.145,3.407.717.717,0,0,1-.7.671.7.7,0,0,1-.681-.726c-.016-.262,0-.526-.043-.784a1.4,1.4,0,0,0-.936-1.166,8.826,8.826,0,0,0-1.192-.362.629.629,0,0,0-.449.12,6.6,6.6,0,0,1-8.23,0c-.1-.077-.261-.175-.359-.147a9.658,9.658,0,0,0-1.566.538,1.37,1.37,0,0,0-.7,1.233c-.013.2,0,.4-.013.6a.677.677,0,0,1-.669.686.653.653,0,0,1-.694-.614,3,3,0,0,1,2.078-3.444c.735-.23,1.475-.444,2.214-.661.757-.222.854-.391.9-1.177a1.251,1.251,0,0,0-.6-1.249,5.5,5.5,0,0,1-2.235-3.5c-.028-.136-.059-.271-.091-.406C4287.428,309.421,4287.411,309.411,4287.388,309.385Zm2.91-5.812c-.01.215-.02.365-.024.516a2.2,2.2,0,0,1-2.35,2.3c-.2,0-.4-.005-.6.017a.777.777,0,0,0-.755.783.786.786,0,0,0,.768.775,3.66,3.66,0,0,0,.37.007c.9,0,1.042.135,1.105,1.027a4.479,4.479,0,0,0,6.379,3.728,4.424,4.424,0,0,0,2.6-3.919c.048-.648.244-.826.9-.836a5.206,5.206,0,0,0,.6-.015.773.773,0,0,0,0-1.544,6.035,6.035,0,0,0-.693-.023,2.22,2.22,0,0,1-2.137-1.349.54.54,0,0,0-.3-.284C4294.232,304.357,4292.3,303.974,4290.3,303.573Zm9.679,1.489A6.594,6.594,0,0,0,4298,300.9a.59.59,0,0,0-.246-.1c-.336-.1-.686-.167-1.008-.3-1.039-.428-2.064-.893-3.107-1.311a1,1,0,0,0-.679-.006c-1.128.455-2.24.95-3.362,1.421-.21.088-.444.116-.659.194a1.354,1.354,0,0,0-.507.251,6.457,6.457,0,0,0-1.729,3.262c-.055.261-.077.528-.11.765.482-.026.9-.057,1.31-.069.7-.021.972-.287.984-.993.007-.37,0-.741,0-1.111.014-.7.313-.957,1.005-.822,2.374.465,4.744.948,7.116,1.419a.8.8,0,0,1,.7.74.782.782,0,0,0,.871.764C4299.023,305.02,4299.467,305.039,4299.977,305.062Zm-4.014,11.768a2.326,2.326,0,0,1-1.163-2.357h-3.058a2.3,2.3,0,0,1-1.158,2.363A5.061,5.061,0,0,0,4295.962,316.83Zm-.9-18.564,2.68,1.152v-2.307Zm-3.544,0-2.693-1.15v2.306Z" transform="translate(-4269.564 -279.74)" fill="#133d60"/>
        <path id="Trazado_127788" data-name="Trazado 127788" d="M4340.39,274.488h-2.32v.545q0,4.4,0,8.8a2.1,2.1,0,0,1-.02.461.688.688,0,0,1-1.362-.065,2.468,2.468,0,0,1-.006-.324q0-6.413,0-12.826c0-.077,0-.154,0-.231a.691.691,0,1,1,1.381-.017c.019.57.005,1.142.006,1.713v.533c.817,0,1.586.029,2.351-.011a.719.719,0,0,0,.7-.777c.012-1.034.047-2.071-.013-3.1a2.084,2.084,0,0,0-1.518-1.962c-1.069-.345-2.164-.613-3.254-.889a.773.773,0,0,0-.5.113c-1.171.655-2.338,1.316-3.5,1.993a3.021,3.021,0,0,1-3.323-.015c-.263-.16-.544-.293-.8-.468a.643.643,0,0,1-.242-.888.669.669,0,0,1,.909-.3c.347.165.673.375,1.01.563a1.392,1.392,0,0,0,1.375.092c.989-.525,1.956-1.092,3.007-1.685-1.577-.773-1.3-2.18-1.309-3.531a6.987,6.987,0,0,1-4.55-.011c0,.511,0,.966,0,1.42a2.182,2.182,0,0,1-.511,1.5.638.638,0,0,1-.877.133.582.582,0,0,1-.265-.832,3.04,3.04,0,0,0,.273-1.473,2.252,2.252,0,0,0-.927-2.24,5.661,5.661,0,0,1-1.951-3.581c-.026-.149-.066-.3-.1-.451-.185-.022-.354-.03-.519-.064a2.176,2.176,0,0,1-1.672-1.724,2.023,2.023,0,0,1,.982-2.22.864.864,0,0,0,.472-.916,5.681,5.681,0,0,1,3.091-5.4,5.492,5.492,0,0,1,2.229-.679,25.6,25.6,0,0,1,4.388.04,5.81,5.81,0,0,1,5.034,5.6,2.466,2.466,0,0,1,0,.37.891.891,0,0,0,.517,1.021,2.039,2.039,0,0,1,.908,2.246,2.118,2.118,0,0,1-1.86,1.681c-.263.029-.356.107-.4.377a6.45,6.45,0,0,1-2.561,4.247.691.691,0,0,0-.317.651c.021.539,0,1.08.006,1.62,0,.666.15.862.805,1.043,1.5.413,3,.818,4.5,1.231a3.671,3.671,0,0,1,2.851,3.73c0,.91,0,1.821,0,2.732a2.359,2.359,0,0,1-.514,1.453,1.108,1.108,0,0,0-.218.613c-.014,2.67-.009,5.34-.01,8.01a2.5,2.5,0,0,1-.015.462.688.688,0,0,1-1.364-.028,2.621,2.621,0,0,1-.01-.416v-7.856Zm-9.691-27.547,0,.058c-.541,0-1.081-.016-1.62,0a4.48,4.48,0,0,0-4.355,4.314c-.022.524-.006,1.049-.016,1.574a.712.712,0,0,1-.54.766c-.772.207-1,.441-.924.951.072.469.381.643,1.152.645.838,0,1.032.188,1.073,1.026a5.241,5.241,0,0,0,10.47-.18c.029-.6.256-.826.857-.844.139,0,.278,0,.417,0,.575-.007.917-.27.95-.728.031-.434-.267-.751-.8-.85-.5-.093-.673-.3-.679-.819-.006-.494.008-.988-.008-1.481a4.439,4.439,0,0,0-3.492-4.241A18.693,18.693,0,0,0,4330.7,246.941Z" transform="translate(-4295.096 -244.856)" fill="#133d60"/>
        <path id="Trazado_127789" data-name="Trazado 127789" d="M4268.467,286.014c-.512-.159-1.019-.281-1.5-.475a.644.644,0,0,1-.367-.877.656.656,0,0,1,.918-.365,2.146,2.146,0,0,0,1.873.008.683.683,0,1,1,.548,1.249C4269.479,285.741,4268.985,285.856,4268.467,286.014Z" transform="translate(-4256.637 -271.731)" fill="#133d60"/>
        <path id="Trazado_127790" data-name="Trazado 127790" d="M4279.249,273.525c0,.108,0,.216,0,.323-.02.48-.271.754-.687.753a.685.685,0,0,1-.695-.709,4.993,4.993,0,0,1,0-.645.724.724,0,0,1,.7-.764.707.707,0,0,1,.686.766C4279.251,273.34,4279.248,273.433,4279.249,273.525Z" transform="translate(-4264.503 -263.562)" fill="#133d60"/>
        <path id="Trazado_127791" data-name="Trazado 127791" d="M4264.62,273.534c0,.092,0,.184,0,.277-.015.51-.268.8-.7.791a.7.7,0,0,1-.688-.764c-.009-.2-.01-.4,0-.6a.72.72,0,0,1,.707-.755.708.708,0,0,1,.678.775C4264.623,273.349,4264.62,273.441,4264.62,273.534Z" transform="translate(-4254.328 -263.562)" fill="#133d60"/>
        <path id="Trazado_127792" data-name="Trazado 127792" d="M4306.934,343.3a2.956,2.956,0,0,1-1.871-.695.7.7,0,0,1-.155-1.019.683.683,0,0,1,.992-.079,1.55,1.55,0,0,0,2.073-.016.674.674,0,0,1,.986.117.705.705,0,0,1-.159.986A2.963,2.963,0,0,1,4306.934,343.3Z" transform="translate(-4283.213 -311.452)" fill="#133d60"/>
        <path id="Trazado_127793" data-name="Trazado 127793" d="M4317.67,332.442a.687.687,0,0,1-.684-.714.654.654,0,0,1,.679-.659.683.683,0,0,1,.7.7A.709.709,0,0,1,4317.67,332.442Z" transform="translate(-4291.722 -304.315)" fill="#133d60"/>
        <path id="Trazado_127794" data-name="Trazado 127794" d="M4303.012,331.07a.666.666,0,0,1,.7.688.685.685,0,1,1-1.37-.016A.658.658,0,0,1,4303.012,331.07Z" transform="translate(-4281.537 -304.315)" fill="#133d60"/>
        <path id="Trazado_127795" data-name="Trazado 127795" d="M4346.547,286.018c-.5-.15-1-.262-1.463-.447a.684.684,0,1,1,.538-1.252,2.116,2.116,0,0,0,1.83,0,.66.66,0,0,1,.932.329.651.651,0,0,1-.368.914C4347.552,285.747,4347.058,285.862,4346.547,286.018Z" transform="translate(-4310.938 -271.739)" fill="#133d60"/>
        <path id="Trazado_127796" data-name="Trazado 127796" d="M4342.737,273.56a3.3,3.3,0,0,1-.063.546.628.628,0,0,1-.732.49.616.616,0,0,1-.6-.6,5.742,5.742,0,0,1-.009-.783.692.692,0,0,1,.669-.732.719.719,0,0,1,.709.706c.012.122,0,.246,0,.369Z" transform="translate(-4308.655 -263.563)" fill="#133d60"/>
        <path id="Trazado_127797" data-name="Trazado 127797" d="M4355.978,273.529c0-.711.213-1.043.679-1.047s.707.347.706,1.037a2.415,2.415,0,0,1-.021.505.645.645,0,0,1-.719.572.638.638,0,0,1-.643-.651C4355.968,273.807,4355.978,273.668,4355.978,273.529Z" transform="translate(-4318.842 -263.562)" fill="#133d60"/>
      </g>
    </g>
  </g>
</svg>
