<svg id="Grupo_133779" data-name="Grupo 133779" xmlns="http://www.w3.org/2000/svg" width="58.462" height="60" viewBox="0 0 58.462 60">
  <ellipse id="Elipse_4912" data-name="Elipse 4912" cx="29.231" cy="30" rx="29.231" ry="30" fill="#d2f3e8"/>
  <g id="Grupo_134900" data-name="Grupo 134900" transform="translate(-3735.239 -237.372)">
    <path id="Trazado_127768" data-name="Trazado 127768" d="M3783.862,262.61c-.1-.47-.466-.619-.92-.612-.646.009-1.292,0-1.981,0a2.749,2.749,0,0,0-2.076-2.514c-1.031-.412-2.037-.892-3.043-1.366a2.727,2.727,0,0,0-2.454-.008c-1.061.5-2.128.987-3.208,1.444a2.906,2.906,0,0,0-1.806,1.651c-1.136-.973-1.136-.973-1-2.34a2.125,2.125,0,0,0-1.347-2.448c-.236-.116-.469-.24-.711-.34a1.647,1.647,0,0,1-1.007-1.2c-.207-.8-.44-1.6-.689-2.389a1.98,1.98,0,0,0-1.759-1.456c-.281-.036-.562-.08-.844-.094a6.282,6.282,0,0,1-2.925-.818,5.4,5.4,0,0,0-5.976.173,13.981,13.981,0,0,1-3.322,1.7,2.116,2.116,0,0,0-1.466,2.095,7.771,7.771,0,0,0,0,.911,1.708,1.708,0,0,1-1.032,1.756A2.247,2.247,0,0,0,3745.16,260a1.823,1.823,0,0,1-.217,1.981,2.1,2.1,0,0,0,.108,2.77c.07.062.139.125.207.189.059.047.122.092.188.134a5.6,5.6,0,0,1,1.984,2.222,2.166,2.166,0,0,0,2.437,1.184,5.821,5.821,0,0,0,.6-.064c1.177-.3,1.941.457,2.76,1.067.052.038.026.179.026.18a7.458,7.458,0,0,0-1.972.872,12.45,12.45,0,0,0-2.383,2.627,28.239,28.239,0,0,1-2.447,2.432c-1.079,1.238-.954,2.774-.948,4.289.007,1.8,0,3.6,0,5.4v.7h-.062q.045.262.074.528c.016.064.037.127.051.192H3770.5c3.888,0,7.776-.009,11.665.01.58,0,.776-.184.766-.771-.031-1.843-.01-3.686-.012-5.53a3.243,3.243,0,0,0-3.506-3.529,1.54,1.54,0,0,1-.64-.1c-.58-.283-1.139-.608-1.8-.967,0-.415-.014-.981.01-1.545a.564.564,0,0,1,.213-.388,5.422,5.422,0,0,0,2.463-4.429c1.548-.317,1.854-1.261.836-2.5a.471.471,0,0,1-.114-.263c-.009-.784-.005-1.568-.005-2.266,1.014-.327,1.938-.621,2.857-.924C3783.658,263.364,3783.968,263.1,3783.862,262.61Zm-6.224-2.871c.534.236,1.072.467,1.6.72a1.609,1.609,0,0,1,.976,1.512h-2.232c-.1-1.215-1.008-1.913-1.694-2.818C3776.737,259.348,3777.188,259.54,3777.638,259.739Zm-3.145-1.194c.9,1.179,2.289,1.879,2.789,3.4-1.008.063-1.935.059-2.841.193s-1.8.409-2.746.633a2.143,2.143,0,0,1,.55-1.954C3772.952,260.071,3773.691,259.354,3774.493,258.545Zm-5.408,3.12a1.415,1.415,0,0,1,.57-.944,14.475,14.475,0,0,1,2.818-1.22,4.564,4.564,0,0,1-.35.386,3.472,3.472,0,0,0-1.239,2.906.7.7,0,0,1-.334.524c-.449.234-.936.395-1.49.618A19.168,19.168,0,0,1,3769.085,261.665Zm-.03,5.91v1.079a.541.541,0,0,1-.69-.5C3768.324,267.758,3768.534,267.511,3769.055,267.576Zm-18.354.127c-1.575.458-2.519-.2-3.162-1.635a3.48,3.48,0,0,0-1.215-1.217c-1.2-.849-1.352-1.477-.556-2.675a2.43,2.43,0,0,0,.15-2.318,2.433,2.433,0,0,1-.166-1.384,1.921,1.921,0,0,1,.893-.979,2.492,2.492,0,0,0,1.442-2.518c-.016-.262-.007-.527,0-.79a1.472,1.472,0,0,1,1.1-1.5,11.147,11.147,0,0,0,3.271-1.662,4.565,4.565,0,0,1,5.111-.29,8.7,8.7,0,0,0,3.918,1.044,1.411,1.411,0,0,1,1.535,1.26c.2.7.409,1.4.594,2.1a2.282,2.282,0,0,0,1.347,1.615c.056.024.11.051.165.078,1.634.789,1.648.811,1.468,2.583a2.1,2.1,0,0,0,.752,1.89,1.422,1.422,0,0,1,.089,2.383,3.862,3.862,0,0,0-1.235,2.228,1.308,1.308,0,0,1-1.733,1.145,2.533,2.533,0,0,0-2.212.456,7.717,7.717,0,0,0,1.2-4c1.423-.334,1.975-.891,1.887-1.877-.079-.9-.723-1.4-1.889-1.446,0-.277-.015-.558,0-.837.031-.46-.146-.68-.63-.653-.424.024-.851.016-1.276,0a.993.993,0,0,1-1.036-.906c-.272-1.447-.732-1.813-2.221-1.819a2.571,2.571,0,0,1-1.018-.06,1.931,1.931,0,0,1-.812-.775c-.2-.358.118-.552.406-.79a2.694,2.694,0,0,0,.627-1.049c.041-.1-.171-.3-.266-.456-.143.108-.387.2-.413.328-.119.618-.524.764-1.066.751-.222-.005-.445,0-.668,0-1.185.011-1.625.392-1.817,1.571a.994.994,0,0,1-1.017.932,6.319,6.319,0,0,0-.969.025,1.975,1.975,0,0,0-.581.364c.178.116.353.241.538.345a.648.648,0,0,0,.238.028,1.3,1.3,0,0,1-1.32,1.135,9.866,9.866,0,0,0-1.03.021c-.213.036-.554.2-.572.334-.052.412.315.374.6.379.2,0,.4,0,.654,0V260.2c-1.162.019-1.834.567-1.876,1.529-.043.982.634,1.612,1.922,1.732a7.2,7.2,0,0,0,1.341,4.174A3.75,3.75,0,0,0,3750.7,267.7Zm12.763-6.325c.014-.462.32-.629.729-.389a.809.809,0,0,1,.385,1.041.833.833,0,0,1-1.116.546C3763.462,262.178,3763.453,261.777,3763.464,261.377Zm-13.613,1.191c-.585.146-1.023-.023-1.125-.511a1.634,1.634,0,0,1,.307-1c.066-.115.418-.146.6-.086.115.038.2.309.211.482C3749.874,261.81,3749.852,262.171,3749.852,262.568Zm.743,1.177c-.035-1.577-.006-3.155-.006-4.754a2.482,2.482,0,0,0,1.71-1.675c.038-.12.261-.209.416-.258a1.744,1.744,0,0,0,1.235-1.3c.3-1.178.4-1.253,1.7-1.121.018.143.037.3.057.45a1.725,1.725,0,0,0,1.664,1.555c.444.022.89,0,1.335.012a1.009,1.009,0,0,1,1.064.88c.332,1.536.731,1.851,2.318,1.864.2,0,.392.019.75.038a41.82,41.82,0,0,1-.371,5.642,5.865,5.865,0,0,1-6.4,4.493A6.024,6.024,0,0,1,3750.595,263.745Zm10.239,9.986c-1.868,1.416-5.828,1.643-8.359.068,1.495-.89,1.68-2.326,1.574-3.968a7.238,7.238,0,0,0,5.2-.011C3759.116,271.442,3759.377,272.848,3760.834,273.731Zm-.813-3.314c.361.244.74.373.905.636.432.689.769,1.438,1.145,2.163C3760.65,273.1,3759.872,272,3760.021,270.417Zm-8.547,2.354a17.8,17.8,0,0,1,.991-1.858c.134-.207.475-.279.8-.454a2.456,2.456,0,0,1-1.277,2.746.651.651,0,0,1-.489-.006C3751.43,273.165,3751.416,272.89,3751.474,272.771Zm-1.8,10.242a13.735,13.735,0,0,0-.051,2.967h-3.336c-.013-.206-.034-.382-.035-.559,0-2.348-.006-4.7,0-7.043a3.418,3.418,0,0,1,1.819-3.169l.345.7c-.217.013-.373.016-.527.033-.6.064-.82.461-.538,1.036.674,1.38,1.348,2.761,2.061,4.121A2.533,2.533,0,0,1,3749.672,283.013Zm1.058,3a.43.43,0,0,1-.284-.245,4.6,4.6,0,0,1-.141-2.536l.153-.01,1.4,2.8C3751.426,286.021,3751.076,286.04,3750.73,286.009Zm1.537-.838-3.909-7.813c-.1-.195-.189-.393-.333-.691.636,0,1.194.027,1.746-.014.2-.015.388-.194.582-.3-.127-.161-.251-.324-.382-.481-.023-.028-.072-.034-.108-.053-1.206-.633-1.222-.653-.581-1.849a11.591,11.591,0,0,1,.861-1.32c.211-.29.474-.542.789-.9.009.177.034.249.012.3a7.89,7.89,0,0,0,.081,5.81c.878,2.477,1.774,4.948,2.662,7.422.073.205.14.413.229.677C3752.738,286.115,3752.738,286.114,3752.267,285.171Zm5.889.826c-.99.039-1.984.038-2.974,0a.744.744,0,0,1-.558-.367c-1.028-2.787-2.071-5.57-3.006-8.389a13.792,13.792,0,0,1-.472-3.2,10.068,10.068,0,0,0,10.942-.026,7.451,7.451,0,0,1-.433,3.384q-1.444,4.119-2.948,8.216A.747.747,0,0,1,3758.156,286Zm1.165.1c.679-1.885,1.317-3.582,1.9-5.3.541-1.583,1.092-3.168,1.514-4.784a6.28,6.28,0,0,0-.385-3.98,1.745,1.745,0,0,1-.069-.227c0-.016.014-.037.043-.107a7.766,7.766,0,0,1,2.071,3.159.705.705,0,0,1-.263.57c-.266.208-.618.3-.9.5a.638.638,0,0,0-.243.473c0,.093.262.24.412.248.564.029,1.131.012,1.8.012a2.689,2.689,0,0,1-.122.426c-1.392,2.849-2.793,5.693-4.179,8.545C3760.552,286.357,3759.946,285.87,3759.321,286.1Zm3.514-.336c-.079.141-.337.215-.526.253a4.568,4.568,0,0,1-.786.01l1.354-2.772A3.335,3.335,0,0,1,3762.834,285.762Zm4.156.251h-3.425a5.582,5.582,0,0,0-.09-3.662.879.879,0,0,1,.138-.559c.712-1.472,1.436-2.937,2.156-4.406.555-1.134.417-1.379-.867-1.463l.324-.7a2.89,2.89,0,0,1,1.731,2.388C3767.052,280.4,3766.991,283.185,3766.991,286.014Zm-1.9-11.672c-.136-.057-.195-.288-.3-.432-.686-.944-1.329-1.923-2.076-2.816a3.811,3.811,0,0,0-2.312-1.232c-.158-.029-.293-.186-.439-.284.146-.072.292-.2.439-.205a2.816,2.816,0,0,0,1.911-.945,2.288,2.288,0,0,1,2.256-.655,1.975,1.975,0,0,0,2.329-1.7,3.261,3.261,0,0,1,1.4-2.174c0,1,0,1.89-.006,2.775a.58.58,0,0,1-.132.319c-.949,1.219-.629,2.13.9,2.484a5.411,5.411,0,0,0,2.468,4.421.558.558,0,0,1,.207.389c.022.584.01,1.169.01,1.6-.633.343-1.165.642-1.708.922a1.273,1.273,0,0,1-.456.105c-.636.059-1.273.107-1.965.164A4.293,4.293,0,0,0,3765.089,274.342Zm15.766,3.6a2.267,2.267,0,0,1,1.338,2.208c.009,1.921,0,3.843,0,5.831h-2.542c0-.7.024-1.359-.015-2.018-.011-.194-.2-.377-.308-.565-.135.186-.372.365-.386.56-.049.659-.019,1.325-.019,2.018H3769.8c0-.644.007-1.247,0-1.851,0-.287.1-.7-.342-.709-.483-.006-.375.434-.38.74-.011.585,0,1.171,0,1.728-.062.056-.089.1-.121.106-1.182.132-1.182.131-1.182-1.027,0-2.166.013-4.331-.011-6.5,0-.434.152-.653.547-.708a3.856,3.856,0,0,1,2.781.321,6.129,6.129,0,0,0,6.817-.13A3.052,3.052,0,0,1,3780.855,277.94Zm-2.928-1.106a5.314,5.314,0,0,1-6.949.294c0-.078.009-.155.013-.232a4.3,4.3,0,0,1,1.3.105,5.289,5.289,0,0,0,4.24-.04A5.113,5.113,0,0,1,3777.927,276.834Zm-5.459-2.462a5.377,5.377,0,0,0,3.78-.012c0,.617.013,1.168-.012,1.717,0,.1-.148.226-.257.275a3.834,3.834,0,0,1-3.222.007.606.606,0,0,1-.276-.439C3772.446,275.439,3772.468,274.954,3772.468,274.372Zm6.436-4.909a4.547,4.547,0,0,1-9.094.05c-.031-1.618-.006-3.236-.006-4.934h9.059a2.418,2.418,0,0,1,.042.332C3778.909,266.427,3778.925,267.945,3778.9,269.462Zm.761-.805v-1.063c.394-.117.644.05.684.42C3780.4,268.449,3780.153,268.684,3779.666,268.657ZM3782.51,263a21.668,21.668,0,0,1-3.6.757c-2.422.119-4.855.035-7.284.035a8.518,8.518,0,0,1,4.056-1.042c2.388-.041,4.777-.011,7.341-.011A2.932,2.932,0,0,1,3782.51,263Z" transform="translate(0)" fill="#133d60"/>
    <path id="Trazado_127769" data-name="Trazado 127769" d="M3781.435,304.424c-.687-.325-1.308-.586-1.889-.918-.142-.081-.151-.4-.221-.6.211.009.474-.061.627.039a2.316,2.316,0,0,0,2.961.026c.167-.109.45-.04.68-.052-.073.2-.088.512-.23.591C3782.761,303.84,3782.122,304.1,3781.435,304.424Z" transform="translate(-24.8 -38.134)" fill="#133d60"/>
    <path id="Trazado_127770" data-name="Trazado 127770" d="M3794.832,285.582c-.046.056-.148.292-.274.306a.516.516,0,0,1-.414-.295c-.094-.431-.3-.732-.746-.74-.48-.008-.693.315-.786.767-.025.121-.244.2-.375.3-.107-.145-.3-.285-.306-.436a1.463,1.463,0,0,1,1.428-1.371A1.493,1.493,0,0,1,3794.832,285.582Z" transform="translate(-33.77 -24.773)" fill="#133d60"/>
    <path id="Trazado_127771" data-name="Trazado 127771" d="M3774.243,285.542l-.26.346c-.15-.123-.39-.221-.432-.374-.118-.419-.319-.713-.774-.71s-.645.317-.762.728c-.041.143-.253.238-.387.355-.1-.149-.292-.295-.3-.447a1.458,1.458,0,0,1,2.913.1Z" transform="translate(-19.11 -24.747)" fill="#133d60"/>
    <path id="Trazado_127772" data-name="Trazado 127772" d="M3843.924,323.444c-.581-.3-1.1-.538-1.583-.83-.095-.057-.073-.308-.1-.47.178-.025.422-.138.524-.061a1.75,1.75,0,0,0,2.334.008c.108-.082.351.011.532.023-.035.179-.009.457-.113.519C3845.029,322.925,3844.507,323.156,3843.924,323.444Z" transform="translate(-69.571 -51.776)" fill="#133d60"/>
    <path id="Trazado_127773" data-name="Trazado 127773" d="M3853.034,307.766a1.185,1.185,0,0,1,1.2,1.048c0,.161-.146.327-.225.49a3.378,3.378,0,0,1-.457-.281c-.179-.153-.333-.336-.5-.506a7.006,7.006,0,0,1-.5.514,2.941,2.941,0,0,1-.454.268c-.079-.146-.224-.292-.225-.438A1.206,1.206,0,0,1,3853.034,307.766Z" transform="translate(-76.427 -41.605)" fill="#133d60"/>
    <path id="Trazado_127774" data-name="Trazado 127774" d="M3837.378,307.827a1.2,1.2,0,0,1,1.193,1.07c0,.154-.178.307-.273.461a3.06,3.06,0,0,1-.409-.273c-.176-.161-.33-.347-.493-.523-.167.17-.324.354-.5.507a3.339,3.339,0,0,1-.455.278c-.082-.164-.238-.333-.23-.492A1.19,1.19,0,0,1,3837.378,307.827Z" transform="translate(-65.279 -41.649)" fill="#133d60"/>
  </g>
</svg>
