<svg id="Grupo_133914" data-name="Grupo 133914" xmlns="http://www.w3.org/2000/svg" width="58.461" height="60" viewBox="0 0 58.461 60">
  <ellipse id="Elipse_4912" data-name="Elipse 4912" cx="29.231" cy="30" rx="29.231" ry="30" fill="#d2f3e8"/>
  <g id="hlzMnS" transform="translate(-5143.784 -210.362)">
    <g id="Grupo_134907" data-name="Grupo 134907" transform="translate(5151.784 219.362)">
      <path id="Trazado_127832" data-name="Trazado 127832" d="M5193.8,246.949V258.6c-.03.087-.065.174-.088.263a3.23,3.23,0,0,1-1.828,2.216c-.28.128-.582.209-.874.311h-36.43a2.229,2.229,0,0,0-.225-.081,3.268,3.268,0,0,1-2.562-3.2c-.01-3.515-.018-7.029,0-10.544a5.853,5.853,0,0,1,4.1-5.554c.908-.295,1.834-.534,2.749-.81a.714.714,0,0,0,.361-.225c.371-.518.72-1.051,1.088-1.6.015.022,0-.005-.016-.022-.042-.035-.087-.065-.132-.1a6.464,6.464,0,0,1-2.893-5.25c-.011-.243-.113-.311-.312-.393a2.5,2.5,0,0,1-1.648-2.166,2.527,2.527,0,0,1,1.21-2.48c.084-.056.165-.118.26-.188a4.371,4.371,0,0,1-1.41-2.481,6.078,6.078,0,0,1,5.771-6.921c1.776-.041,3.555-.018,5.332-.007a1.938,1.938,0,0,1,1.888,1.529c.034.142.063.286.092.42a1.989,1.989,0,0,1,1.932,2.146c0,1.614,0,3.227,0,4.841a.39.39,0,0,0,.291.447,2.6,2.6,0,0,1,.02,4.855.412.412,0,0,0-.318.432,6.506,6.506,0,0,1-2.1,4.573,2.8,2.8,0,0,1-.357.244,6.345,6.345,0,0,1,2.012,2.531c.046.109.216.185.344.236.86.339,1.724.668,2.587,1,.072.027.171.066.227.039.448-.218.887-.451,1.345-.688a6.815,6.815,0,0,1-.777-3.536c.021-3.46,0-6.92.015-10.379a10.576,10.576,0,0,1,.166-1.833,8.53,8.53,0,0,1,16.892,1.8c0,3.487-.014,6.974.009,10.461a7.045,7.045,0,0,1-.741,3.444c-.009.017.009.048.019.09l.25.106a5.892,5.892,0,0,1,3.543,3.988C5193.675,246.4,5193.732,246.674,5193.8,246.949Zm-4.6-18.156c.164-3.165-.978-5.739-3.89-7.263a6.819,6.819,0,0,0-7.8.738,7.125,7.125,0,0,0-2.733,6.507c.613-.073,1.186-.166,1.762-.2a16.375,16.375,0,0,1,1.68,0,4.822,4.822,0,0,0,4.416-2.174c.426-.607.882-.589,1.338.009.132.174.26.351.4.517a4.659,4.659,0,0,0,3.154,1.636C5188.077,228.618,5188.621,228.71,5189.2,228.793Zm-20.345-.332c0-1.557-.019-3.031.006-4.5.018-1.009-.049-1.4-1.243-1.312-.475.035-.717-.256-.732-.738,0-.109,0-.219,0-.328,0-.676-.21-.889-.874-.89-1.6,0-3.2-.005-4.8,0a4.813,4.813,0,0,0-4.716,3.751,3.187,3.187,0,0,0,3.343,4.132,11.573,11.573,0,0,0,6.44-2.34.8.8,0,0,1,.863-.2c.316.143.378.42.412.74A2,2,0,0,0,5168.856,228.461Zm13.4,9.3c.621.193,1.264.4,1.916.586a.682.682,0,0,0,.484-.034,4.756,4.756,0,0,0,2.466-3.632c.157-1.571.075-3.165.1-4.75,0-.022-.025-.045-.039-.068a9.076,9.076,0,0,1-2.111-.73,16.57,16.57,0,0,1-1.847-1.355,5.451,5.451,0,0,1-3.031,1.89,18.1,18.1,0,0,1-2.481.212c-.319.021-.642,0-.97,0,0,1.484-.057,2.908.016,4.325a4.915,4.915,0,0,0,1.977,3.719.642.642,0,0,0,.429.157c.756-.119,1.507-.272,2.1-.383a10.825,10.825,0,0,1-1.057-.817.6.6,0,0,1,.039-.911.636.636,0,0,1,.917.047c.607.585,1.025.569,1.659.01a.834.834,0,0,1,.654-.172.722.722,0,0,1,.433.471.888.888,0,0,1-.2.623A2.281,2.281,0,0,1,5182.261,237.757Zm-3.763,7.878a7.136,7.136,0,0,1,.86.005,2.668,2.668,0,0,0,2.78-1.063c.277-.393.667-.344,1.028,0,.3.283.571.589.876.862a.721.721,0,0,0,.419.187c.682.019,1.366.016,2.049.006a.649.649,0,0,0,.718-.748,7.365,7.365,0,0,0-.164-1.3,5.9,5.9,0,0,0-11.64,1.148c-.017.664.205.9.861.9C5177.022,245.637,5177.76,245.636,5178.5,245.636Zm.829,9.225c-3.544-.445-6.363,2.061-5.828,5.2h13.338c-.331-1.508-.583-2.986.394-4.384a5.524,5.524,0,0,0-3.892-.83c-.283,1.3-.987,1.967-2.048,1.95C5180.261,256.778,5179.565,256.092,5179.327,254.86Zm-20.962.818c.958,1.395.738,2.882.375,4.378h13.332c.333-2.5-1.493-5.735-5.813-5.195-.225,1.224-.931,1.918-1.964,1.933-1.059.015-1.753-.644-2.045-1.94A5.19,5.19,0,0,0,5158.365,255.678Zm.03-6.068c-1.274-.219-2.019-.908-1.988-1.935a2.736,2.736,0,0,1,.4-1.254,1.89,1.89,0,0,1,1.57-.811v-2.957c-.592.169-1.192.338-1.791.512a4.605,4.605,0,0,0-3.484,4.641q0,3.016,0,6.032c0,1.409,0,2.818,0,4.226a1.861,1.861,0,0,0,.656,1.5c0-.677-.016-1.384,0-2.09a2.543,2.543,0,0,1,1.671-2.447.4.4,0,0,0,.3-.443c-.01-1.395-.006-2.79,0-4.185,0-.519.243-.818.653-.82s.657.3.658.815q0,2.051,0,4.1v.4a16.4,16.4,0,0,1,1.634-.9,16.937,16.937,0,0,1,1.805-.538A6,6,0,0,1,5158.4,249.611Zm10.459-3.983c0-.712.011-1.38,0-2.047a4.593,4.593,0,0,0-8.556-2.232c-.809,1.342-.607,2.807-.621,4.275.829,0,1.624.053,2.406-.023a2.89,2.89,0,0,0,1.1-.49,3.732,3.732,0,0,0,.562-.536.661.661,0,0,1,1.042-.007,3.421,3.421,0,0,0,.53.509,3.245,3.245,0,0,0,1.165.525A22.63,22.63,0,0,0,5168.854,245.627Zm-9.184,1.312c0,.74-.013,1.421,0,2.1a4.59,4.59,0,0,0,8.725,1.877c.626-1.266.418-2.606.459-3.953-1.612-.1-3.313.361-4.587-1.058a3.212,3.212,0,0,1-2.132,1.025C5161.335,246.972,5160.529,246.94,5159.67,246.94Zm26.325.009c-.71,0-1.31.026-1.905-.013a1.247,1.247,0,0,1-.684-.282,6.845,6.845,0,0,1-.713-.837c-.286.3-.475.484-.638.684a1.211,1.211,0,0,1-1.078.457c-.7-.031-1.393-.008-2.09-.008h-2.151c0,.723-.013,1.4,0,2.083a4.6,4.6,0,0,0,4.164,4.466,4.506,4.506,0,0,0,4.85-3.468A22.287,22.287,0,0,0,5185.995,246.949Zm-19.56-19.185a12.242,12.242,0,0,1-8.028,2.031v4.7c.224-.175.378-.282.518-.406a3.726,3.726,0,0,1,2.674-.938c1.408.031,2.817.016,4.225,0a3.481,3.481,0,0,1,2.309.807c.2.163.4.321.674.539v-4.7A3.368,3.368,0,0,1,5166.435,227.763ZM5188.291,243a4.721,4.721,0,0,1,.021,2.941,1.966,1.966,0,0,1,.566,2.74.47.47,0,0,0-.046.267c.122.64.256,1.278.386,1.917h3.269c0-1.033,0-2.041,0-3.048A4.724,4.724,0,0,0,5188.291,243Zm-29.5-7.126a5.133,5.133,0,0,0,2.341,2.55.472.472,0,0,0,.339.036c.641-.23,1.276-.478,1.768-.666a13.006,13.006,0,0,1-1.322-.821.623.623,0,0,1-.055-1,.643.643,0,0,1,.971.1.993.993,0,0,0,1.544.009c.345-.349.711-.387,1-.1a.642.642,0,0,1-.077,1,10.019,10.019,0,0,1-1.048.7c.591.129,1.332.3,2.077.446a.529.529,0,0,0,.366-.088,4.821,4.821,0,0,0,1.607-1.93.431.431,0,0,0-.091-.39,6.134,6.134,0,0,0-1.062-.834,2.7,2.7,0,0,0-1.175-.395c-1.585-.044-3.172-.037-4.757,0a2.159,2.159,0,0,0-1.036.32A16.128,16.128,0,0,0,5158.788,235.874Zm15.468,7.57a4.452,4.452,0,0,0-2.456,2.526.639.639,0,0,0,.049.643,1.9,1.9,0,0,1-.171,2.254.824.824,0,0,0-.187.463q-.02,2.728,0,5.457a.708.708,0,0,0,.138.4c.38.5.779.98,1.148,1.44l1.444-1.794c-.2,0-.39,0-.579,0-.667-.006-.917-.311-.79-.959.315-1.594.635-3.188.936-4.785a.882.882,0,0,0-.088-.526,1.954,1.954,0,0,1,.279-2.284c.119-.126.251-.24.378-.36A4.036,4.036,0,0,1,5174.255,243.444Zm11.545-4.286c.594.735,1.16,1.443,1.736,2.144a.686.686,0,0,0,1.134-.112,4.553,4.553,0,0,0,.534-2.163q0-2.6,0-5.2c0-.1-.011-.205-.017-.309-.484.063-.707.288-.665.78a2.8,2.8,0,0,1-.1.768A6.566,6.566,0,0,1,5185.8,239.157Zm4.061,13.065c0,.812.008,1.588-.006,2.364a.394.394,0,0,0,.3.44,2.5,2.5,0,0,1,1.661,2.279c.05.768.01,1.543.01,2.262a1.888,1.888,0,0,0,.66-1.527q0-2.784,0-5.569c0-.078-.011-.156-.018-.25Zm-12.282-13.556c.025.056.023.041.014.032-.1-.1-.193-.192-.289-.289a6.28,6.28,0,0,1-1.855-4.124c-.029-.491-.193-.71-.649-.762-.01.022-.03.044-.03.066,0,1.939-.025,3.878.02,5.815a8.2,8.2,0,0,0,.353,1.606Zm12.934,19.43c0-.246.015-.493,0-.738a1.317,1.317,0,0,0-1.311-1.217,1.3,1.3,0,0,0-1.3,1.223c-.025.491-.022.984,0,1.476a1.309,1.309,0,0,0,2.614-.005C5190.527,258.589,5190.515,258.342,5190.514,258.1Zm-35.439-.005c0,.246-.011.493,0,.738a1.309,1.309,0,0,0,2.614.017c.024-.491.024-.985,0-1.476a1.309,1.309,0,0,0-2.614.024C5155.063,257.625,5155.074,257.858,5155.074,258.09Zm30-4.6h3.326l-.786-3.931-.414.037A6.064,6.064,0,0,1,5185.072,253.493Zm-7.564,0c-.005-.047,0-.063-.008-.07-.106-.106-.213-.21-.32-.316a5.714,5.714,0,0,1-1.666-3.213c-.052-.324-.18-.384-.478-.295-.256,1.288-.514,2.58-.775,3.894Zm-7.354-3.741a6.291,6.291,0,0,1-2.116,3.713l2.116.6Zm.025-4.032c.18-.118.335-.165.4-.268.365-.615.709-1.244,1.088-1.918l-1.484-.525Zm-13.157-15.656a1.3,1.3,0,0,0-.624,1.275,1.184,1.184,0,0,0,.624.948Zm13.177.024v2.181A1.267,1.267,0,0,0,5170.2,230.093Zm5.221-.012a1.237,1.237,0,0,0,0,2.174v-2.174Zm13.15,2.182a1.228,1.228,0,0,0,0-2.136Zm-13.161,14.705c-.455.094-.663.323-.642.674s.241.547.642.575Zm-5.223,1.281a.627.627,0,0,0,.632-.618c.031-.35-.2-.583-.632-.655Zm-11.859.008v-1.314c-.395.083-.624.287-.621.664A.631.631,0,0,0,5158.328,248.257Zm5.3,6.59c.082.435.315.664.663.629a.627.627,0,0,0,.612-.629Zm17.067,0c.08.434.313.664.661.629a.628.628,0,0,0,.613-.629Zm6.549-6.606c.453-.095.663-.326.642-.674s-.243-.548-.642-.574Z" transform="translate(-5151.783 -219.362)" fill="#133d60"/>
      <path id="Trazado_127833" data-name="Trazado 127833" d="M5260.426,256.9c0,.082,0,.164,0,.246a.658.658,0,1,1-1.311.013q-.01-.267,0-.533a.658.658,0,1,1,1.31-.013C5260.429,256.711,5260.426,256.807,5260.426,256.9Z" transform="translate(-5226.287 -244.731)" fill="#133d60"/>
      <path id="Trazado_127834" data-name="Trazado 127834" d="M5238.952,256.888a2.3,2.3,0,0,1,0,.367.65.65,0,0,1-1.294-.012,4.544,4.544,0,0,1-.006-.652.654.654,0,0,1,.659-.683.661.661,0,0,1,.649.695c0,.1,0,.191,0,.286Z" transform="translate(-5211.382 -244.731)" fill="#133d60"/>
      <path id="Trazado_127835" data-name="Trazado 127835" d="M5188.116,324.438a2.548,2.548,0,0,1-1.762-.855.649.649,0,1,1,.96-.874,1,1,0,0,0,1.622.006.636.636,0,0,1,.943-.057.629.629,0,0,1,.028.919A2.511,2.511,0,0,1,5188.116,324.438Z" transform="translate(-5175.65 -290.94)" fill="#133d60"/>
      <path id="Trazado_127836" data-name="Trazado 127836" d="M5199.025,312.639c0-.524.189-.854.565-.842a1.016,1.016,0,0,1,.644.319,1.247,1.247,0,0,1-.056,1.234,1.081,1.081,0,0,1-.688.21C5199.138,313.526,5199.022,313.233,5199.025,312.639Z" transform="translate(-5184.577 -283.528)" fill="#133d60"/>
      <path id="Trazado_127837" data-name="Trazado 127837" d="M5183.162,312.657a2.473,2.473,0,0,1-.021.367.652.652,0,0,1-.954.45.8.8,0,0,1-.347-.815c0-.336,0-.663.347-.855a.646.646,0,0,1,.959.485,2.367,2.367,0,0,1,0,.368Z" transform="translate(-5172.648 -283.474)" fill="#133d60"/>
      <path id="Trazado_127838" data-name="Trazado 127838" d="M5243.969,324.434a2.319,2.319,0,0,1-1.777-.82.648.648,0,0,1,.017-.978.637.637,0,0,1,.938.1,1,1,0,0,0,1.595-.014.637.637,0,0,1,.941-.071.646.646,0,0,1,.019.951A2.3,2.3,0,0,1,5243.969,324.434Z" transform="translate(-5214.393 -290.937)" fill="#133d60"/>
      <path id="Trazado_127839" data-name="Trazado 127839" d="M5256.148,312.637a2.6,2.6,0,0,1-.088.517.593.593,0,0,1-.688.388.6.6,0,0,1-.544-.531,2.816,2.816,0,0,1-.013-.612.654.654,0,1,1,1.307-.011c.006.082,0,.164,0,.246Z" transform="translate(-5223.298 -283.475)" fill="#133d60"/>
      <path id="Trazado_127840" data-name="Trazado 127840" d="M5238.95,312.648a1.921,1.921,0,0,1,0,.327.652.652,0,0,1-1.3-.019,3.475,3.475,0,0,1,0-.613.647.647,0,0,1,.639-.621.653.653,0,0,1,.66.6,2.7,2.7,0,0,1,0,.327Z" transform="translate(-5211.38 -283.476)" fill="#133d60"/>
      <path id="Trazado_127841" data-name="Trazado 127841" d="M5178.855,256.916a2.263,2.263,0,0,1,0,.369.65.65,0,0,1-1.295-.013,5.064,5.064,0,0,1-.006-.656.657.657,0,1,1,1.31.013c0,.1,0,.191,0,.287Z" transform="translate(-5169.666 -244.731)" fill="#133d60"/>
      <path id="Trazado_127842" data-name="Trazado 127842" d="M5200.318,256.922a2.936,2.936,0,0,1,0,.328.654.654,0,0,1-.644.621.643.643,0,0,1-.655-.6,4.65,4.65,0,0,1,0-.738.643.643,0,0,1,.641-.62.65.65,0,0,1,.658.6A4.094,4.094,0,0,1,5200.318,256.922Z" transform="translate(-5184.562 -244.731)" fill="#133d60"/>
    </g>
  </g>
</svg>
