<svg xmlns="http://www.w3.org/2000/svg" width="58.461" height="60" viewBox="0 0 58.461 60">
  <g id="Grupo_135079" data-name="Grupo 135079" transform="translate(-6824 1128)">
    <g id="Grupo_135076" data-name="Grupo 135076" transform="translate(1867.308 2111.5)">
      <g id="Grupo_133944" data-name="Grupo 133944" transform="translate(4956.691 -3240)">
        <ellipse id="Elipse_4912" data-name="Elipse 4912" cx="29.231" cy="30" rx="29.231" ry="30" transform="translate(0 0.5)" fill="#d2f3e8"/>
        <g id="Grupo_135025" data-name="Grupo 135025" transform="translate(-4956 3226.5)">
          <g id="U5UgpF" transform="translate(2984.67 -3692.956)">
            <g id="Grupo_135025-2" data-name="Grupo 135025" transform="translate(1977.33 476.956)">
              <path id="Trazado_128346" data-name="Trazado 128346" d="M2001.838,479.442c.221-.085.4-.164.583-.223a12,12,0,0,1,12.659,2.92c3.776,3.607,4.768,8.1,3.453,13.112a1.378,1.378,0,0,0,.179,1.242c.555.809,1.075,1.643,1.607,2.468.226.351.448.7.688,1.083-1.385.761-2.708,1.508-4.051,2.217a1.174,1.174,0,0,0-.693,1.176c.019,1.834.007,3.668.007,5.5v.53c-.18,0-.293.009-.4,0q-3.666-.344-7.331-.692c-.726-.068-1.039.213-1.042.94,0,.95,0,1.9,0,2.85v2.057c-.07.047-.083.063-.1.064-.491.006-.982.007-1.473.017-.554.011-.882.3-.891.768-.01.491.327.8.907.8.7.007,1.408,0,2.112,0,.739,0,1.009-.267,1.011-1,0-1.441,0-2.882,0-4.323v-.554c2.567.245,5.075.477,7.581.727.9.089,1.2-.157,1.2-1.074,0-1.949.014-3.9-.009-5.846a.868.868,0,0,1,.522-.915c1.3-.68,2.584-1.409,3.872-2.122.789-.437.879-.787.4-1.532-.763-1.182-1.52-2.369-2.3-3.541a.959.959,0,0,1-.156-.857,14.373,14.373,0,0,0,.308-5.89,14.174,14.174,0,0,0-20.038-11.016.841.841,0,0,1-.63,0,13.739,13.739,0,0,0-12.4.213,13.388,13.388,0,0,0-4.152,3.246.808.808,0,0,0-.049,1.183.843.843,0,0,0,1.217-.127c.091-.094.173-.2.263-.292a12.082,12.082,0,0,1,8.737-3.988,12.24,12.24,0,0,1,10.817,5.656c.215.308.394.641.584.965.3.511.708.672,1.132.442s.507-.656.256-1.19c-.007-.015-.013-.03-.02-.045a12.415,12.415,0,0,0-3.2-4.054C2002.635,480.038,2002.252,479.761,2001.838,479.442Zm-22.6,20.594c.789-1.219,1.543-2.4,2.32-3.571a1.264,1.264,0,0,0,.176-1.154,13.109,13.109,0,0,1,.028-7.688c.187-.626.011-1.072-.466-1.2s-.845.141-1.025.731a14.524,14.524,0,0,0-.212,7.989,1.162,1.162,0,0,1-.186,1.037c-.771,1.157-1.519,2.329-2.273,3.5-.446.691-.35,1.059.381,1.463,1.316.728,2.629,1.462,3.956,2.17a.77.77,0,0,1,.483.791c-.024,2.03-.014,4.06-.009,6.09,0,.688.319,1.012.944.956,1.466-.133,2.931-.283,4.4-.423,1.132-.108,2.263-.212,3.437-.322v.587c0,1.457,0,2.914,0,4.371,0,.618.289.913.9.914q4.051.009,8.1,0a1.086,1.086,0,0,0,.244-.015.78.78,0,0,0-.012-1.543,2.811,2.811,0,0,0-.441-.014h-7.222c0-1.723,0-3.375,0-5.026,0-.652-.319-.966-.935-.911-1.727.155-3.453.326-5.179.489-.871.082-1.743.162-2.662.248v-.6c0-1.833-.01-3.667.006-5.5a1.139,1.139,0,0,0-.677-1.137c-.929-.481-1.838-1-2.755-1.5C1980.126,500.529,1979.7,500.292,1979.238,500.036Zm17.717-2.574h-.617c-1.047,0-2.1.017-3.142,0-1.519-.03-1.713.072-1.659,1.639.006.181,0,.363,0,.562l-5.279-5.278,5.241-4.709c.017.238.034.379.036.519.015.979.2,1.164,1.192,1.165,1.244,0,2.487,0,3.731,0,.266,0,.468,0,.632.312.251.473,1.028.521,1.215.059a2.77,2.77,0,0,0,.1-1.456c-.08-.446-.551-.488-.964-.487-1.244,0-2.488,0-3.732,0h-.608c0-.667.014-1.254,0-1.84-.016-.52-.324-.88-.76-.838a1.3,1.3,0,0,0-.684.317q-3.518,3.136-7.014,6.3a.828.828,0,0,0-.015,1.385c.8.8,1.6,1.6,2.4,2.4q2.293,2.29,4.588,4.578c.41.409.872.523,1.16.211a1.4,1.4,0,0,0,.321-.821c.042-.793.015-1.591.015-2.435h.6c1.276,0,2.553,0,3.829,0,.609,0,.927-.233.962-.751a11.933,11.933,0,0,0,0-1.618.766.766,0,0,0-.79-.719.775.775,0,0,0-.749.761C1996.941,496.93,1996.955,497.158,1996.955,497.462Zm17.052-3.068c-.027.076-.029.115-.049.135-.332.34-.668.675-1,1.015-.415.427-.457.867-.122,1.208a.8.8,0,0,0,1.214-.084c.529-.513,1.05-1.035,1.567-1.559a.841.841,0,0,0-.046-1.421q-3.469-3.121-6.942-6.238c-.294-.264-.59-.479-1.008-.294-.435.192-.489.571-.484.984.006.534,0,1.068,0,1.643h-.608c-1.261,0-2.521-.005-3.782,0-.731,0-1.016.287-1.017,1.013q-.008,3.611,0,7.222c0,.728.286,1.007,1.018,1.01,1.277.007,2.554,0,3.831,0,.173,0,.346.016.56.027,0,.867,0,1.683,0,2.5a.794.794,0,0,0,.484.834.831.831,0,0,0,.939-.24c.437-.443.884-.876,1.322-1.318s.512-.908.2-1.253c-.293-.327-.736-.314-1.231.033-.02.014-.057,0-.147.008,0-.388,0-.775,0-1.162-.01-.746-.257-1-1.011-1-1.277-.007-2.554,0-3.831,0-.174,0-.348-.016-.536-.025V491.39c.171-.012.314-.031.457-.032,1.31,0,2.62,0,3.929,0,.721,0,.977-.26.992-.969,0-.205,0-.411,0-.749Zm-10.581,20.311a.783.783,0,0,0,.047,1.564.783.783,0,1,0-.047-1.564Zm-5.632-21.905a.781.781,0,0,0-.836.718.768.768,0,0,0,.7.844.783.783,0,0,0,.843-.711A.8.8,0,0,0,1997.794,492.8Zm-15.025-7.8a.773.773,0,1,0-1.545.013.773.773,0,1,0,1.545-.013Zm28.387,14.21a.774.774,0,0,0,.028-1.548.774.774,0,1,0-.028,1.548Z" transform="translate(-1977.33 -476.956)" fill="#133d60"/>
              <path id="Trazado_128347" data-name="Trazado 128347" d="M2013.155,479.442c.414.319.8.6,1.159.9a12.419,12.419,0,0,1,3.2,4.054c.007.015.013.03.02.045.252.534.159.965-.256,1.19s-.832.07-1.133-.442c-.191-.324-.369-.658-.584-.965a12.241,12.241,0,0,0-10.817-5.656,12.082,12.082,0,0,0-8.737,3.988c-.09.095-.172.2-.263.292a.843.843,0,0,1-1.217.127.808.808,0,0,1,.048-1.183,13.387,13.387,0,0,1,4.152-3.246,13.739,13.739,0,0,1,12.4-.213.841.841,0,0,0,.63,0,14.174,14.174,0,0,1,20.038,11.016,14.373,14.373,0,0,1-.308,5.89.958.958,0,0,0,.156.857c.778,1.172,1.536,2.359,2.3,3.541.48.745.39,1.095-.4,1.532-1.288.713-2.567,1.442-3.872,2.122a.867.867,0,0,0-.522.915c.023,1.949.011,3.9.009,5.846,0,.916-.3,1.163-1.2,1.074-2.506-.25-5.014-.482-7.581-.727v.554c0,1.441,0,2.882,0,4.323,0,.735-.271,1-1.011,1-.7,0-1.408.006-2.112,0-.58-.006-.916-.311-.907-.8.009-.469.337-.756.891-.768.49-.01.982-.011,1.473-.017.013,0,.026-.017.1-.064v-2.057c0-.95,0-1.9,0-2.85,0-.727.317-1.009,1.043-.94q3.666.345,7.331.692c.111.011.224,0,.4,0v-.53c0-1.834.012-3.669-.007-5.5a1.174,1.174,0,0,1,.693-1.176c1.343-.709,2.666-1.456,4.051-2.217-.24-.379-.462-.732-.688-1.083-.532-.825-1.052-1.659-1.607-2.468a1.378,1.378,0,0,1-.179-1.242c1.315-5.016.324-9.506-3.453-13.112a12,12,0,0,0-12.659-2.92C2013.553,479.278,2013.376,479.357,2013.155,479.442Z" transform="translate(-1988.647 -476.956)" fill="#133d60"/>
              <path id="Trazado_128348" data-name="Trazado 128348" d="M1979.238,518.93c.463.256.889.492,1.316.727.917.5,1.826,1.022,2.755,1.5a1.139,1.139,0,0,1,.677,1.137c-.016,1.833-.006,3.667-.006,5.5v.6l2.662-.248c1.726-.163,3.452-.333,5.179-.489.616-.056.933.258.935.911.006,1.652,0,3.3,0,5.026h7.222a2.811,2.811,0,0,1,.441.014.781.781,0,0,1,.012,1.543,1.086,1.086,0,0,1-.244.015q-4.051,0-8.1,0c-.608,0-.894-.3-.9-.914-.007-1.457,0-2.914,0-4.371v-.587c-1.173.11-2.3.214-3.437.322-1.466.14-2.93.29-4.4.423-.624.057-.942-.267-.944-.956-.006-2.03-.015-4.06.009-6.09a.77.77,0,0,0-.483-.791c-1.327-.708-2.64-1.443-3.956-2.17-.731-.4-.826-.772-.381-1.463.754-1.168,1.5-2.341,2.273-3.5a1.162,1.162,0,0,0,.186-1.037,14.524,14.524,0,0,1,.212-7.989c.18-.59.562-.859,1.025-.731s.653.578.466,1.2a13.109,13.109,0,0,0-.028,7.688,1.264,1.264,0,0,1-.176,1.154C1980.781,516.528,1980.027,517.712,1979.238,518.93Z" transform="translate(-1977.33 -495.85)" fill="#133d60"/>
              <path id="Trazado_128349" data-name="Trazado 128349" d="M2010.843,517.788c0-.3-.014-.532,0-.757a.775.775,0,0,1,.749-.76.766.766,0,0,1,.79.719,11.934,11.934,0,0,1,0,1.618c-.035.517-.353.747-.962.75-1.276.007-2.553,0-3.829,0h-.6c0,.844.028,1.642-.015,2.435a1.4,1.4,0,0,1-.321.821c-.288.312-.75.2-1.16-.211q-2.3-2.287-4.588-4.578c-.8-.8-1.6-1.593-2.4-2.4a.828.828,0,0,1,.015-1.385q3.5-3.156,7.014-6.3a1.3,1.3,0,0,1,.684-.317c.436-.042.745.318.761.838.018.586,0,1.173,0,1.84h.608c1.244,0,2.488,0,3.732,0,.413,0,.884.041.964.487a2.769,2.769,0,0,1-.1,1.457c-.187.463-.964.414-1.215-.059-.164-.308-.366-.313-.632-.312-1.244,0-2.488,0-3.731,0-.99,0-1.177-.186-1.192-1.165,0-.141-.019-.282-.036-.519l-5.241,4.709,5.279,5.278c0-.2.005-.381,0-.562-.054-1.567.14-1.669,1.659-1.639,1.047.021,2.095,0,3.142,0Z" transform="translate(-1991.218 -497.282)" fill="#133d60"/>
              <path id="Trazado_128350" data-name="Trazado 128350" d="M2062.878,514.691l-5.3-4.758c0,.338,0,.544,0,.749-.015.71-.27.966-.991.969-1.31.006-2.62,0-3.929,0-.143,0-.286.019-.457.032v6.046c.188.009.362.025.536.025,1.277,0,2.554,0,3.831,0,.753,0,1,.254,1.01,1,.005.387,0,.774,0,1.162.09,0,.127.006.147-.008.494-.347.938-.36,1.231-.033.309.345.236.812-.2,1.253s-.886.874-1.323,1.318a.831.831,0,0,1-.939.24.794.794,0,0,1-.484-.834c0-.816,0-1.632,0-2.5-.213-.011-.386-.027-.56-.027-1.277,0-2.554,0-3.831,0-.732,0-1.016-.283-1.018-1.01q-.008-3.611,0-7.222c0-.726.287-1.008,1.018-1.013,1.261-.008,2.521,0,3.782,0h.608c0-.575,0-1.109,0-1.643-.005-.413.048-.792.484-.984.417-.185.714.03,1.008.294q3.468,3.122,6.942,6.238a.841.841,0,0,1,.046,1.421c-.518.525-1.038,1.047-1.567,1.559a.8.8,0,0,1-1.214.084c-.335-.342-.293-.782.122-1.208.331-.34.667-.675,1-1.015C2062.849,514.806,2062.852,514.767,2062.878,514.691Z" transform="translate(-2026.201 -497.252)" fill="#133d60"/>
              <path id="Trazado_128351" data-name="Trazado 128351" d="M2054.193,590.321a.783.783,0,1,1,.047,1.564.783.783,0,0,1-.047-1.564Z" transform="translate(-2028.097 -552.572)" fill="#133d60"/>
              <path id="Trazado_128352" data-name="Trazado 128352" d="M2037.105,524.532a.8.8,0,0,1,.71.85.783.783,0,0,1-.843.711.768.768,0,0,1-.7-.844A.781.781,0,0,1,2037.105,524.532Z" transform="translate(-2016.641 -508.688)" fill="#133d60"/>
              <path id="Trazado_128353" data-name="Trazado 128353" d="M1990.568,499.581a.773.773,0,1,1-1.545.013.773.773,0,1,1,1.545-.013Z" transform="translate(-1985.129 -491.533)" fill="#133d60"/>
              <path id="Trazado_128354" data-name="Trazado 128354" d="M2077.382,540.7a.774.774,0,1,1,.028-1.548.774.774,0,0,1-.028,1.548Z" transform="translate(-2043.556 -518.439)" fill="#133d60"/>
            </g>
          </g>
        </g>
      </g>
    </g>
  </g>
</svg>
