<svg xmlns="http://www.w3.org/2000/svg" width="58.461" height="60" viewBox="0 0 58.461 60">
  <g id="Grupo_135080" data-name="Grupo 135080" transform="translate(-7139 1128.5)">
    <g id="Grupo_135074" data-name="Grupo 135074" transform="translate(1867.308 2111.5)">
      <g id="Grupo_133943" data-name="Grupo 133943" transform="translate(5271.691 -3240)">
        <ellipse id="Elipse_4912" data-name="Elipse 4912" cx="29.231" cy="30" rx="29.231" ry="30" fill="#d2f3e8"/>
        <g id="_6VqCNZ" data-name="6VqCNZ" transform="translate(-2339.187 -3286.083)">
          <g id="Grupo_135026" data-name="Grupo 135026" transform="translate(2348.496 3296.927)">
            <path id="Trazado_128355" data-name="Trazado 128355" d="M2410.027,3317.4a2.758,2.758,0,0,1-3.213-2.114,2.705,2.705,0,0,1-3.577-3.588l-.392-.152a2.651,2.651,0,0,1-1.037-4.314,1.974,1.974,0,0,0,.76-1.9,3.139,3.139,0,0,1,.185-1.063c.413-2.325,1.9-3.934,3.6-5.4a4.456,4.456,0,0,1,3.159-1.149,14.658,14.658,0,0,1,1.664.206c.705.108,1.406.248,2.113.346a.614.614,0,0,0,.433-.147c.325-.288.616-.613.93-.913a.683.683,0,0,1,1.1,0q4.211,4.2,8.412,8.413c.375.375.412.779-.008,1.088a4.906,4.906,0,0,0-1.745,3.354,5.423,5.423,0,0,1-1.635,2.916c-2.008,1.975-3.981,3.985-5.982,5.968a2.643,2.643,0,0,1-4.03-.133A8.706,8.706,0,0,1,2410.027,3317.4Zm-.858-12.589a1.33,1.33,0,0,0,.34,1.376c.45.462.908.915,1.365,1.37a3.871,3.871,0,0,1,1.072,1.824c.064.26.194.321.426.36a2.579,2.579,0,0,1,2.131,2.147c.036.217.057.436.086.659a2.694,2.694,0,0,1,2.734,1.941c.12-.108.215-.187.3-.273.8-.8,1.6-1.609,2.41-2.406a3.638,3.638,0,0,0,1-1.766c.09-.367.2-.73.266-1.1a3.884,3.884,0,0,1,1.429-2.7.111.111,0,0,0,.032-.05l-7.636-7.641-.769.848a.827.827,0,0,1-.83.274c-.812-.151-1.626-.286-2.443-.409a15.39,15.39,0,0,0-1.706-.2,2.88,2.88,0,0,0-2.047.743c-1.478,1.3-2.844,2.66-3.28,4.727a2.446,2.446,0,0,0,.61,2.525c1.68,1.649,3.333,3.325,5,4.99.1.1.2.188.3.283a2.644,2.644,0,0,0,.049-3.728c-.5-.533-1.038-1.024-1.534-1.557a2.671,2.671,0,0,1-.083-3.567.723.723,0,0,1,1.161-.106,3.337,3.337,0,0,0,4.643-.012.685.685,0,0,1,1.01-.014.67.67,0,0,1-.1,1,4.639,4.639,0,0,1-2.943,1.277A4.858,4.858,0,0,1,2409.169,3304.806Zm3.677,13.7a3.132,3.132,0,0,0,.849-.4c.71-.654,1.4-1.337,2.052-2.049a1.333,1.333,0,0,0-1.907-1.852c-.694.652-1.368,1.328-2.022,2.021a1.232,1.232,0,0,0-.214,1.445A1.475,1.475,0,0,0,2412.846,3318.507Zm-3.931-5.2c-.111.141-.232.313-.372.467a1.343,1.343,0,0,0,1.884,1.915c.289-.264.558-.551.835-.828.524-.525,1.059-1.04,1.569-1.579a1.269,1.269,0,0,0,.258-1.475,1.114,1.114,0,0,0-.918-.729,15.005,15.005,0,0,1-.856,1.733C2410.656,3313.806,2410.031,3313.924,2408.916,3313.308Zm-2.8-2.823-1.242,1.256c-.059.06-.121.117-.176.18a1.346,1.346,0,0,0-.014,1.8,1.269,1.269,0,0,0,1.744.207,21.59,21.59,0,0,0,1.526-1.6Zm-2.815-2.849a1.642,1.642,0,0,0-.817,1.727,1.321,1.321,0,0,0,1.049.974,1.653,1.653,0,0,0,1.64-.842Z" transform="translate(-2385.026 -3296.926)" fill="#133d60"/>
            <path id="Trazado_128356" data-name="Trazado 128356" d="M2363.262,3351.751a2.738,2.738,0,0,1,3.091.611,2.606,2.606,0,0,1,.488,2.961,2.721,2.721,0,0,1,2.1,3.226,8.471,8.471,0,0,1,1.477.754,2.64,2.64,0,0,1,.146,3.942c-.915.947-1.857,1.868-2.788,2.8-1.119,1.12-2.25,2.229-3.356,3.361a5.231,5.231,0,0,1-2.63,1.485c-.15.034-.3.082-.45.1a4.427,4.427,0,0,0-3.033,1.646c-.354.452-.738.412-1.15,0q-4.179-4.172-8.351-8.351a.706.706,0,0,1,0-1.161c.355-.374.872-.7,1.014-1.139a3.617,3.617,0,0,0-.194-1.476c-.094-.58-.19-1.16-.282-1.74a4.611,4.611,0,0,1,1.232-4.065c.632-.674,1.292-1.323,1.958-1.964a8.648,8.648,0,0,1,5.117-1.631.659.659,0,0,0,.438-.138c.209-.161.378-.374.573-.554a2.7,2.7,0,0,1,4.521,1.148A1.989,1.989,0,0,0,2363.262,3351.751Zm-13.14,11.884,7.6,7.606a8.168,8.168,0,0,1,1.364-1.046,8.523,8.523,0,0,1,1.7-.453c.177-.044.353-.089.532-.124a4.147,4.147,0,0,0,2.293-1.308c.62-.667,1.28-1.3,1.929-1.936.167-.164.358-.3.6-.505a2.794,2.794,0,0,1-2.071-2.762.631.631,0,0,0-.106-.03,2.658,2.658,0,0,1-2.69-2.3.473.473,0,0,0-.289-.283,4.243,4.243,0,0,1-1.918-1.158q-.648-.66-1.31-1.306a1.321,1.321,0,0,0-1.366-.35l.238.44a4.73,4.73,0,0,1-.708,5.5.681.681,0,0,1-1,.106.693.693,0,0,1,0-1.012,5.4,5.4,0,0,0,.577-.822,3.32,3.32,0,0,0-.5-3.757c-.46-.535-.43-.874.14-1.291a2.671,2.671,0,0,1,2.1-.509,2.747,2.747,0,0,1,1.5.778c.489.483.959.986,1.465,1.448a2.585,2.585,0,0,0,3.6-.008c-1.847-1.9-3.675-3.8-5.521-5.679a1.39,1.39,0,0,0-1.309-.448c-1.1.3-2.17.7-3.249,1.073a.91.91,0,0,0-.286.244c-.606.6-1.214,1.2-1.814,1.814a3.367,3.367,0,0,0-.949,3.083c.19,1.132.364,2.267.563,3.4a.833.833,0,0,1-.27.831C2350.679,3363.125,2350.39,3363.39,2350.123,3363.635Zm19.911-2.125a1.417,1.417,0,0,0-.824-1.409,1.268,1.268,0,0,0-1.472.275q-.949.921-1.872,1.869a1.34,1.34,0,0,0-.06,1.919,1.377,1.377,0,0,0,1.961-.023c.623-.6,1.25-1.206,1.832-1.848A3.269,3.269,0,0,0,2370.034,3361.51Zm-7.385-.828a1.285,1.285,0,0,0,2.138.7c.88-.8,1.708-1.657,2.529-2.519a1.234,1.234,0,0,0,.185-1.451,1.266,1.266,0,0,0-1.256-.748c-.623.007-.964.438-1.329.835.568,1.033.461,1.649-.5,2.3A15.162,15.162,0,0,1,2362.649,3360.682Zm1.329-4.141,1.231-1.261c.059-.06.12-.118.175-.181a1.334,1.334,0,0,0,.018-1.8,1.3,1.3,0,0,0-1.75-.2,20.217,20.217,0,0,0-1.512,1.6Zm-2.916-2.857a1.629,1.629,0,0,0,.815-1.77,1.232,1.232,0,0,0-1.034-.929,1.641,1.641,0,0,0-1.635.814Z" transform="translate(-2348.496 -3333.53)" fill="#133d60"/>
            <path id="Trazado_128357" data-name="Trazado 128357" d="M2446.7,3395.879a3.685,3.685,0,0,1-.591-.375q-1.349-1.325-2.677-2.672c-.36-.363-.388-.737-.1-1.035a.675.675,0,0,1,1.036.073c.906.9,1.8,1.8,2.706,2.7a.635.635,0,0,1,.192.793A2.573,2.573,0,0,1,2446.7,3395.879Z" transform="translate(-2414.245 -3362.688)" fill="#133d60"/>
            <path id="Trazado_128358" data-name="Trazado 128358" d="M2373.476,3321.183c-.181.213-.3.488-.495.55a.9.9,0,0,1-.724-.118,15.6,15.6,0,0,1-1.2-1.171c-.516-.515-1.033-1.029-1.545-1.546-.367-.37-.4-.774-.1-1.066a.694.694,0,0,1,1.036.1c.885.879,1.77,1.758,2.643,2.649A3.873,3.873,0,0,1,2373.476,3321.183Z" transform="translate(-2362.882 -3311.316)" fill="#133d60"/>
            <path id="Trazado_128359" data-name="Trazado 128359" d="M2362.455,3339.982c-.089-.016-.2-.029-.309-.058q-1.8-.484-3.6-.974c-.481-.132-.706-.454-.61-.843s.469-.575.973-.442q1.8.475,3.606.958c.332.088.6.239.637.626A.657.657,0,0,1,2362.455,3339.982Z" transform="translate(-2355.038 -3325.198)" fill="#133d60"/>
            <path id="Trazado_128360" data-name="Trazado 128360" d="M2451.708,3377.6c.116.029.278.069.44.112,1.147.307,2.3.612,3.441.924.474.13.705.47.6.848a.691.691,0,0,1-.94.442q-1.885-.5-3.766-1.011a.632.632,0,0,1-.5-.758A.658.658,0,0,1,2451.708,3377.6Z" transform="translate(-2419.687 -3352.972)" fill="#133d60"/>
            <path id="Trazado_128361" data-name="Trazado 128361" d="M2430.027,3399.419c.092.1.366.256.431.476.387,1.311.734,2.635,1.074,3.958a.66.66,0,0,1-.528.783.669.669,0,0,1-.783-.529c-.291-1.049-.567-2.1-.847-3.154a7.414,7.414,0,0,1-.192-.771C2429.115,3399.748,2429.428,3399.4,2430.027,3399.419Z" transform="translate(-2404.542 -3368.128)" fill="#133d60"/>
            <path id="Trazado_128362" data-name="Trazado 128362" d="M2389.873,3306.379a.633.633,0,0,1,.57.509c.348,1.279.694,2.559,1.022,3.842a.665.665,0,1,1-1.283.34q-.532-1.916-1.033-3.84A.672.672,0,0,1,2389.873,3306.379Z" transform="translate(-2376.72 -3303.493)" fill="#133d60"/>
          </g>
        </g>
      </g>
    </g>
  </g>
</svg>
