<svg xmlns="http://www.w3.org/2000/svg" width="85" height="85" viewBox="0 0 85 85">
  <g id="Grupo_135070" data-name="Grupo 135070" transform="translate(-4207 1764)">
    <circle id="Elipse_5014" data-name="Elipse 5014" cx="42.5" cy="42.5" r="42.5" transform="translate(4207 -1764)" fill="#5bd3a9"/>
    <g id="_8Suhy7" data-name="8Suhy7" transform="translate(2416.996 -2202.002)">
      <g id="Grupo_135022" data-name="Grupo 135022" transform="translate(1808.004 456.476)">
        <path id="Trazado_128330" data-name="Trazado 128330" d="M1816.951,502.2v-4.074h-.559q-3.157,0-6.315,0a1.862,1.862,0,0,1-2.069-2.079q0-3.591,0-7.181v-.484h1.629v.555c0,2.326.009,4.652-.008,6.978,0,.426.087.6.558.593,2.238-.023,4.477-.011,6.749-.011v-1.612h-1.556v-1.615h9.712v1.578h-1.572V496.5h.361c2.139,0,4.278-.008,6.416.007.39,0,.535-.1.534-.513q-.021-6.01,0-12.019c0-.408-.126-.521-.526-.521q-10.083.016-20.166,0c-.423,0-.517.154-.508.538.022.882.007,1.765.007,2.689h-1.6c0-1.116-.075-2.252.024-3.372a1.739,1.739,0,0,1,1.907-1.474q6.468,0,12.935,0,3.743,0,7.486,0a1.854,1.854,0,0,1,2.059,2.038q0,6.112,0,12.224a1.857,1.857,0,0,1-2.063,2.035q-3.361,0-6.722,0a1.081,1.081,0,0,0-.138.024v4.014h19.517v-3.106c0-.8,0-1.6,0-2.394.005-.7.294-.985,1-.986q5.118,0,10.236,0c.7,0,.985.295.986,1,0,1.815,0,3.63,0,5.521.27,0,.517-.009.762,0a.806.806,0,0,1,.862.862q.021,1.579,0,3.158a.808.808,0,0,1-.861.864c-.234.011-.469,0-.759,0v5.681h-1.619v-5.651h-42.344v12.975h42.313v-5.631h1.615c.01.121.03.251.03.381q0,2.928,0,5.857c0,.77-.278,1.056-1.032,1.056q-21.771,0-43.541,0c-.788,0-1.055-.276-1.055-1.083q0-6.468,0-12.937v-.648c-.28,0-.513.008-.745,0a.816.816,0,0,1-.881-.9c-.011-1-.008-2,0-3,0-.7.295-.983,1-.984q3.666-.006,7.333,0Zm-7.289,3.226h45.564v-1.571h-45.564Zm35.048-8.093v4.827h8.9v-4.827Zm-22.887,4.844v-7.27h-3.2v7.27Z" transform="translate(-1808.004 -472.905)" fill="#133d60"/>
        <path id="Trazado_128331" data-name="Trazado 128331" d="M1887.6,474.555c-1.083.544-2.16,1.077-3.228,1.626a1.241,1.241,0,0,0-.655,1.227c.008,2.036,0,4.072,0,6.109v.589h-1.606c-.008-.167-.022-.331-.022-.5,0-2.019.018-4.039-.007-6.058a2.993,2.993,0,0,1,1.856-2.992c.81-.38,1.6-.8,2.464-1.231a3.528,3.528,0,0,1-1.063-3.082c.038-1.322.009-2.646.009-4-.565-.082-.753-.5-.906-.969-.464-1.434-.95-2.861-1.424-4.292-.224-.679-.118-.951.5-1.294,1.437-.8,2.86-1.623,4.317-2.383a6.639,6.639,0,0,1,6.438,0c1.474.764,2.912,1.6,4.362,2.407a.853.853,0,0,1,.463,1.227c-.494,1.5-1,2.986-1.49,4.484a1,1,0,0,1-.852.805c0,1.45-.027,2.889.009,4.326a3.29,3.29,0,0,1-1.075,2.758c.55.279,1.054.536,1.559.791.378.191.761.373,1.136.569a2.9,2.9,0,0,1,1.625,2.909h-1.632c.171-1.023-.547-1.4-1.316-1.756s-1.512-.764-2.279-1.123a.544.544,0,0,0-.473.021A4.663,4.663,0,0,1,1887.6,474.555Zm8.67-10.268,1.128-3.4c-1.251-.7-2.461-1.374-3.677-2.041a5.227,5.227,0,0,0-5.332,0c-1.113.612-2.222,1.232-3.331,1.851-.113.063-.217.143-.339.225l1.126,3.366c1.723-.667,3.3-1.62,5.183-1.627C1892.928,462.659,1894.523,463.613,1896.267,464.287Zm-1.142,5.137c0-.839.005-1.465,0-2.092-.006-.574.174-1.277-.093-1.684s-.986-.515-1.507-.753a4.853,4.853,0,0,0-3.254-.5,31.752,31.752,0,0,0-3.139,1.13.305.305,0,0,0-.144.235c-.01,1.157-.006,2.314-.006,3.667A6.169,6.169,0,0,1,1895.126,469.424Zm.078,1.74c-.953-.475-1.812-.911-2.677-1.334a3.208,3.208,0,0,0-2.94-.005c-.778.377-1.539.786-2.322,1.151-.294.137-.333.308-.2.555a2.321,2.321,0,0,0,.341.5c.556.572,1.159,1.1,1.684,1.7a3.229,3.229,0,0,0,3.931-.027c.516-.6,1.132-1.123,1.673-1.708A5,5,0,0,0,1895.2,471.164Z" transform="translate(-1856.011 -456.476)" fill="#133d60"/>
        <path id="Trazado_128332" data-name="Trazado 128332" d="M1866.015,565.566c-.543,0-1.016.006-1.49,0-.64-.01-.946-.3-.952-.927q-.014-1.526,0-3.053a.821.821,0,0,1,.922-.905c.488-.01.976,0,1.52,0,0-.528-.006-1.015,0-1.5a.83.83,0,0,1,.938-.941q1.5-.013,3,0a.834.834,0,0,1,.946.934c.006.237,0,.475,0,.712v.8c.478,0,.945,0,1.411,0,.739.005,1.028.282,1.032,1q.008,1.451,0,2.9c0,.692-.3.977-1,.985-.424,0-.848,0-1.272.006a1.311,1.311,0,0,0-.172.036c0,.467.006.951,0,1.435-.009.665-.3.962-.966.967q-1.475.011-2.951,0c-.667,0-.96-.3-.969-.962C1866.01,566.575,1866.015,566.1,1866.015,565.566Zm1.63-5.694c0,.482,0,.919,0,1.356,0,.8-.271,1.074-1.058,1.078-.451,0-.9,0-1.348,0v1.6a.933.933,0,0,0,.135.027l1.219,0c.767.005,1.046.278,1.051,1.033,0,.466,0,.932,0,1.382h1.63c0-.465,0-.9,0-1.339,0-.8.268-1.073,1.058-1.077.451,0,.9,0,1.387,0v-1.63h-1.239c-.976,0-1.2-.225-1.205-1.185,0-.415,0-.83,0-1.249Z" transform="translate(-1844.012 -522.418)" fill="#133d60"/>
        <path id="Trazado_128333" data-name="Trazado 128333" d="M1840,494.37a3.258,3.258,0,1,1-3.251-3.278A3.266,3.266,0,0,1,1840,494.37Zm-3.251,1.607a1.627,1.627,0,1,0-1.634-1.607A1.633,1.633,0,0,0,1836.749,495.977Z" transform="translate(-1824.516 -478.909)" fill="#133d60"/>
        <path id="Trazado_128334" data-name="Trazado 128334" d="M1895.472,521.268v1.567h-4.019v-1.567Z" transform="translate(-1862.084 -498.465)" fill="#133d60"/>
        <path id="Trazado_128335" data-name="Trazado 128335" d="M1922.587,530.556v1.567h-5.64v-1.567Z" transform="translate(-1878.606 -504.484)" fill="#133d60"/>
        <path id="Trazado_128336" data-name="Trazado 128336" d="M1906.228,464.166v1.613l-.775.053-.038.767h-1.586l-.045-.764-.768-.05V464.19h.761l.045-.8h1.608v.771Z" transform="translate(-1869.578 -460.96)" fill="#133d60"/>
      </g>
    </g>
  </g>
</svg>
