<svg xmlns="http://www.w3.org/2000/svg" width="85" height="85" viewBox="0 0 85 85">
  <g id="Grupo_135071" data-name="Grupo 135071" transform="translate(-4417 1769.5)">
    <circle id="Elipse_5015" data-name="Elipse 5015" cx="42.5" cy="42.5" r="42.5" transform="translate(4417 -1769.5)" fill="#5bd3a9"/>
    <g id="NHH1gn" transform="translate(1175.854 -5454.486)">
      <g id="Grupo_135023" data-name="Grupo 135023" transform="translate(3255.146 3698.486)">
        <path id="Trazado_128337" data-name="Trazado 128337" d="M3302.839,3779.215a2.316,2.316,0,0,1-1.6-2.61c.026-.357-.011-.719.009-1.078a2.1,2.1,0,0,1,1.291-1.9c.146-.069.342-.243.346-.373.028-1.078.017-2.156.017-3.235v-.682h-17.859c-.869,0-1.264-.264-1.246-.828.016-.541.39-.776,1.24-.776h17.823v-2.471h-40.306v2.471h17.826c.887,0,1.255.247,1.239.825-.015.552-.372.779-1.233.779h-17.866v1.159c0,.629.031,1.26-.009,1.887-.043.673,0,1.189.772,1.508a1.688,1.688,0,0,1,.888,1.621c.02.556.018,1.115,0,1.671a2.188,2.188,0,0,1-1.57,2.03h-5.825a2.248,2.248,0,0,1-1.622-2.532c.026-.34.005-.683,0-1.024a2.1,2.1,0,0,1,1.313-2.043.69.69,0,0,0,.309-.45,4.832,4.832,0,0,0,.014-.86q0-15.179,0-30.357a2.5,2.5,0,0,1,.766-1.993,3.87,3.87,0,0,1,4.235.015,2.337,2.337,0,0,1,.731,1.84c-.01,2.966,0,5.932,0,8.9v.674a6.448,6.448,0,0,1,3.542-.519c2.391-.012,4.784.055,7.172-.019a3.478,3.478,0,0,1,3.407,5.1c-.024.04-.01.1-.016.191h.652q11.865,0,23.729.007c.6,0,1.2.112,1.863.177a3.009,3.009,0,0,0,.031-.354c0-.917-.011-1.833.006-2.75a2.251,2.251,0,0,1,2.392-2.352c.36,0,.72-.011,1.079,0a2.251,2.251,0,0,1,2.231,2.072,6.243,6.243,0,0,1,.021.7q0,9.625-.006,19.25c0,.413.048.665.5.849a1.856,1.856,0,0,1,1.14,1.752c.03.574.026,1.151,0,1.725a2.165,2.165,0,0,1-1.6,2Zm.01-15.635c0-1.6.044-3.175-.021-4.748-.028-.671-.681-1.082-1.455-1.082q-18.655,0-37.31,0a1.414,1.414,0,0,0-1.538,1.5c-.019.574,0,1.15,0,1.725,0,.858,0,1.716,0,2.6Zm-41.942,9.887v-31.021c0-1.466,0-1.466-1.467-1.456-.875.005-1.028.158-1.028,1.045q0,15.414,0,30.828v.6Zm46.06,0a1.245,1.245,0,0,0,.044-.2q0-9.993,0-19.985c0-.583-.241-.79-.838-.8-.179,0-.359,0-.539,0-1,0-1.121.12-1.121,1.109q0,9.616,0,19.231v.652Zm-38-17.337c1.489,0,2.979,0,4.469,0a1.834,1.834,0,1,0,.008-3.653q-4.469-.006-8.938,0a1.832,1.832,0,1,0-.008,3.651C3265.991,3756.135,3267.48,3756.131,3268.97,3756.131Zm36.778,18.981c-.753,0-1.506.013-2.259,0-.431-.01-.636.167-.631.6s.005.86,0,1.291.2.61.628.607q2.259-.015,4.518,0c.45,0,.67-.168.656-.632q-.02-.618,0-1.237c.015-.463-.2-.64-.653-.629C3307.254,3775.126,3306.5,3775.112,3305.748,3775.112Zm-46.086,0c-.753,0-1.506.014-2.258,0-.468-.011-.649.195-.63.647.017.412.014.825,0,1.236-.014.435.183.615.613.613q2.285-.013,4.571,0c.4,0,.606-.169.608-.571,0-.448,0-.9,0-1.344,0-.4-.18-.587-.594-.58C3261.2,3775.123,3260.432,3775.113,3259.661,3775.112Z" transform="translate(-3255.146 -3723.99)" fill="#133d60"/>
        <path id="Trazado_128338" data-name="Trazado 128338" d="M3298.32,3709.794a11.335,11.335,0,0,1,22.454-2.177.837.837,0,0,1-.582,1.1c-.457.108-.85-.187-.982-.753A9.473,9.473,0,0,0,3312,3700.4a9.7,9.7,0,1,0,7.14,11.535c.183-.812.512-1.139,1.038-1.033.549.11.729.57.547,1.4a11.318,11.318,0,0,1-22.215-.69C3298.416,3711.013,3298.38,3710.4,3298.32,3709.794Z" transform="translate(-3282.104 -3698.486)" fill="#133d60"/>
        <path id="Trazado_128339" data-name="Trazado 128339" d="M3321.113,3721.261c0,.671,0,1.368,0,2.064-.006.875-.409,1.3-1.27,1.32q-1.267.023-2.534,0c-.873-.016-1.264-.432-1.271-1.314-.006-.665-.007-1.329-.014-1.994,0-.032-.029-.062-.077-.159-.627,0-1.286,0-1.946,0-1.067-.007-1.422-.364-1.425-1.425,0-.791-.005-1.582,0-2.372.007-.887.391-1.276,1.286-1.293.665-.013,1.33-.008,1.994-.012a1.1,1.1,0,0,0,.18-.051c0-.67,0-1.364,0-2.058,0-.944.4-1.339,1.346-1.347q1.186-.009,2.372,0c.946.007,1.352.411,1.357,1.342,0,.68,0,1.36,0,2.124.689,0,1.346,0,2,0,1.1,0,1.455.362,1.457,1.452,0,.772,0,1.545,0,2.318,0,.912-.39,1.3-1.314,1.321-.664.014-1.329.012-1.993.02C3321.232,3721.2,3321.2,3721.222,3321.113,3721.261Zm-3.461-7.009v1.872c0,1.27-.312,1.577-1.6,1.578h-1.823v1.858c.7,0,1.366,0,2.027,0,1.018.008,1.39.386,1.394,1.407,0,.674,0,1.348,0,2.035h1.844v-1.25c0-2.115.077-2.192,2.166-2.192h1.266V3717.7c-.688,0-1.348,0-2.009,0-1.066-.006-1.421-.362-1.423-1.425,0-.673,0-1.346,0-2.025Z" transform="translate(-3291.003 -3707.307)" fill="#133d60"/>
      </g>
    </g>
  </g>
</svg>
