<svg xmlns="http://www.w3.org/2000/svg" width="85" height="85" viewBox="0 0 85 85">
  <g id="Grupo_135067" data-name="Grupo 135067" transform="translate(-3577 1769)">
    <circle id="Elipse_5018" data-name="Elipse 5018" cx="42.5" cy="42.5" r="42.5" transform="translate(3577 -1769)" fill="#5bd3a9"/>
    <g id="izEkSM" transform="translate(2615.314 -4807.764)">
      <g id="Grupo_135019" data-name="Grupo 135019" transform="translate(976.686 3054.764)">
        <path id="Trazado_128288" data-name="Trazado 128288" d="M976.686,3106.593v-32.134a.514.514,0,0,0,.08-.126,3.849,3.849,0,0,1,4.065-3.113q2.719,0,5.439,0h.625v-.615c0-.88-.012-1.761,0-2.642a3.869,3.869,0,0,1,4.066-4.018c.757,0,1.515,0,2.3,0,.036-.186.075-.335.093-.485a9.937,9.937,0,0,1,7.476-8.4c.448-.111.9-.2,1.353-.3h2.073a1.667,1.667,0,0,0,.286.093,9.928,9.928,0,0,1,8.331,7.491c.126.515.2,1.042.312,1.6.763,0,1.5,0,2.245,0a3.876,3.876,0,0,1,4.063,4.075q.007,3.628,0,7.255v.583c.223.01.392.025.561.025,1.106,0,2.211,0,3.317,0a1.6,1.6,0,0,1,1.717,1.713c.005.967,0,1.935-.006,2.9,0,.173,0,.346,0,.518a1.687,1.687,0,0,1-1.918,1.9c-1.2.005-2.409,0-3.63,0v3.11c1.314,0,2.59-.008,3.865,0a1.6,1.6,0,0,1,1.69,1.688q.01,1.789-.009,3.576a1.63,1.63,0,0,1-1.736,1.765c-1.088.022-2.176,0-3.265.008-.183,0-.365.018-.557.028v3.026c1.318,0,2.609-.009,3.9,0a1.611,1.611,0,0,1,1.667,1.669q.013,1.84-.011,3.679a1.619,1.619,0,0,1-1.7,1.691c-1.123.009-2.245,0-3.369,0h-.485v3.073h8.678v-.445q0-15.262,0-30.524a2.316,2.316,0,0,0-2.48-2.5c-1.088-.006-2.177.009-3.265-.008a.793.793,0,0,1-.882-.808c.016-.443.349-.73.885-.738q.907-.014,1.814,0a15.425,15.425,0,0,1,2.326.073,3.853,3.853,0,0,1,3.157,4.028q0,15.236,0,30.472c0,1.477-.56,2.042-2.021,2.042q-24.512,0-49.025.012A1.911,1.911,0,0,1,976.686,3106.593Zm16.581-41.069c-.964,0-1.883-.064-2.787.027a2.688,2.688,0,0,0-1.278.594,2.341,2.341,0,0,0-.754,2.006q.009,18.759,0,37.518v.578H994.7c.01-.1.021-.167.021-.234,0-1.4,0-2.8,0-4.2a.778.778,0,1,1,1.548-.012c.013.466,0,.933,0,1.4v3.036h6.135v-13.606h-6.135c0,1.419,0,2.8,0,4.181,0,.432.015.864-.008,1.295a.771.771,0,0,1-1.541.009c-.016-.189-.006-.379-.006-.57q0-2.458,0-4.908c-1.155-.188-1.553-.653-1.555-1.775,0-.466,0-.933,0-1.4a1.41,1.41,0,0,1,1.552-1.535c1.261-.006,2.522,0,3.783,0q6.529,0,13.059,0c1.22,0,1.715.5,1.717,1.735,0,.5.008,1,0,1.5a1.368,1.368,0,0,1-1.061,1.359c-.158.045-.319.076-.463.11v13.61h6.176c.006-.134.015-.235.015-.337q0-19.018,0-38.036a2.3,2.3,0,0,0-2.348-2.372c-.518-.013-1.036,0-1.554,0-.849,0-.849,0-.992.839a9.948,9.948,0,0,1-19.492.692C993.435,3066.548,993.366,3066.052,993.267,3065.524Zm-6.408,7.251H986.3q-2.746,0-5.493,0a2.335,2.335,0,0,0-2.565,2.571q0,15.183,0,30.365v.54h8.61v-3.079c-1.269,0-2.493,0-3.717,0a1.632,1.632,0,0,1-1.77-1.727q-.019-1.813-.01-3.627a1.617,1.617,0,0,1,1.7-1.687c1.088-.01,2.176,0,3.265,0h.535v-3.055h-.6c-1.037,0-2.073.013-3.109,0a1.648,1.648,0,0,1-1.783-1.825q-.011-1.709-.01-3.42a1.624,1.624,0,0,1,1.8-1.788c1.054,0,2.107,0,3.161,0,.18,0,.361-.021.54-.031v-3.077h-.6c-1.054,0-2.107.015-3.161-.006a1.6,1.6,0,0,1-1.716-1.572c-.035-1.312-.034-2.625-.012-3.938a1.574,1.574,0,0,1,1.537-1.521c.311-.013.622,0,.933,0h3.029Zm16.351.336a8.4,8.4,0,1,0-8.383-8.422A8.411,8.411,0,0,0,1003.209,3073.111Zm.832,19.51v13.636h6.1v-13.636Zm-9.306-1.615h16.947v-1.477H994.735Zm28.768,10.584v-3.865h-3.974v3.865Zm-3.968-24.128v3.869h3.973v-3.869Zm3.962,14.024v-3.863h-3.971v3.863Zm-40.573,10.089h3.936v-3.853h-3.936Zm0-20.239h3.921v-3.864h-3.921Zm0,10.125h3.938v-3.834h-3.938Z" transform="translate(-976.686 -3054.764)" fill="#133d60"/>
        <path id="Trazado_128289" data-name="Trazado 128289" d="M1025.413,3122.339c1.122,0,2.244-.006,3.366,0a1.613,1.613,0,0,1,1.711,1.724c.007,1.208.009,2.417,0,3.625a1.611,1.611,0,0,1-1.695,1.691q-3.366.014-6.732,0a1.6,1.6,0,0,1-1.663-1.667q-.017-1.89.022-3.78a1.573,1.573,0,0,1,1.625-1.59C1023.169,3122.33,1024.291,3122.34,1025.413,3122.339Zm3.509,1.585H1022v3.866h6.924Z" transform="translate(-1005.511 -3099.327)" fill="#133d60"/>
        <path id="Trazado_128290" data-name="Trazado 128290" d="M1064.152,3129.385c-1.07,0-2.141,0-3.211,0a1.632,1.632,0,0,1-1.763-1.781q-.006-1.761,0-3.522a1.618,1.618,0,0,1,1.749-1.739q3.289-.007,6.578,0a1.611,1.611,0,0,1,1.739,1.744q0,1.787-.011,3.574a1.618,1.618,0,0,1-1.714,1.723C1066.4,3129.392,1065.275,3129.385,1064.152,3129.385Zm-3.394-1.593h6.9v-3.871h-6.9Z" transform="translate(-1031.086 -3099.328)" fill="#133d60"/>
        <path id="Trazado_128291" data-name="Trazado 128291" d="M1043.237,3182.928a7.635,7.635,0,0,1,.006-.878.69.69,0,0,1,.728-.662.681.681,0,0,1,.772.667,13.352,13.352,0,0,1-.006,1.808.672.672,0,0,1-.745.639.688.688,0,0,1-.744-.644,7.477,7.477,0,0,1-.007-.929Z" transform="translate(-1020.568 -3138.27)" fill="#133d60"/>
        <path id="Trazado_128292" data-name="Trazado 128292" d="M1043.63,3068.406c.966,0,1.861,0,2.755,0,1.264,0,1.751.489,1.753,1.75,0,.431,0,.864,0,1.295a1.438,1.438,0,0,1-1.585,1.616c-.794.017-1.588,0-2.382.005-.153,0-.305.014-.54.027,0,.751-.03,1.487.006,2.22.081,1.642-.293,2.381-2.248,2.256-.31-.02-.621,0-.932,0a1.386,1.386,0,0,1-1.483-1.447c-.027-.811-.006-1.623-.01-2.434,0-.185-.015-.371-.026-.62h-2.816a1.608,1.608,0,0,1-1.313-.486,4.6,4.6,0,0,1,.005-3.709,1.492,1.492,0,0,1,1.212-.47c.947.005,1.895,0,2.9,0,.015-.22.037-.4.038-.581,0-.811-.013-1.623.008-2.434a1.4,1.4,0,0,1,1.535-1.5c.535-.006,1.07-.007,1.605,0a1.392,1.392,0,0,1,1.512,1.472c.025.811.007,1.623.008,2.434C1043.631,3067.981,1043.63,3068.166,1043.63,3068.406Zm2.937,1.555c-1.044,0-2.042,0-3.04,0-1.1,0-1.45-.361-1.453-1.465,0-1,0-1.995,0-3.014h-1.553c0,.966,0,1.9,0,2.828,0,1.357-.291,1.651-1.63,1.652h-2.854v1.555h.572c.88,0,1.76-.006,2.641,0s1.25.39,1.271,1.27c.007.293,0,.587,0,.88v2.321h1.553v-.584c0-.864-.007-1.726,0-2.589.01-.915.387-1.29,1.292-1.3.569-.006,1.139,0,1.709,0h1.49Z" transform="translate(-1014.761 -3060.78)" fill="#133d60"/>
        <path id="Trazado_128293" data-name="Trazado 128293" d="M1063,3182.967c0,.276.022.554-.005.827a.708.708,0,0,1-.744.706.686.686,0,0,1-.766-.677,13.8,13.8,0,0,1,0-1.757.684.684,0,0,1,.763-.679.7.7,0,0,1,.747.7C1063.025,3182.379,1063,3182.675,1063,3182.967Z" transform="translate(-1032.592 -3138.27)" fill="#133d60"/>
      </g>
    </g>
  </g>
</svg>
