<svg xmlns="http://www.w3.org/2000/svg" width="85" height="85" viewBox="0 0 85 85">
  <g id="Grupo_135069" data-name="Grupo 135069" transform="translate(-3998 1769.5)">
    <circle id="Elipse_5016" data-name="Elipse 5016" cx="42.5" cy="42.5" r="42.5" transform="translate(3998 -1769.5)" fill="#5bd3a9"/>
    <g id="A4PuaP" transform="translate(936.083 -5458.153)">
      <g id="Grupo_135021" data-name="Grupo 135021" transform="translate(3073.917 3702.153)">
        <path id="Trazado_128313" data-name="Trazado 128313" d="M3094.234,3724.2a5.247,5.247,0,0,1,1.577-4.585,4.826,4.826,0,0,1,6.947.469,5.36,5.36,0,0,1,1.119,4.067h1.011c1.57,0,3.14-.007,4.71,0a.966.966,0,1,1-.005,1.924c-1.369.013-2.738,0-4.106,0-3.2,0-6.4-.05-9.6.015a10.42,10.42,0,0,0-8.961,5.043c-.13.2-.237.414-.4.695.228.019.393.045.557.045,1.65,0,3.3,0,4.951,0,.875,0,1.219.335,1.221,1.193,0,2.114.02,4.228-.017,6.342a1.667,1.667,0,0,1-.415,1.007c-.832.9-1.7,1.774-2.6,2.6a1.77,1.77,0,0,1-1.059.433c-1.828.043-3.657.02-5.568.02,0,.349.006.663,0,.977a3.858,3.858,0,0,1-3.84,3.852c-1.226.018-2.452,0-3.783,0v6.725h5.74a6.781,6.781,0,1,1,7.292,7.756c-3.487.312-6.492-2.046-7.278-5.781h-.621q-2.959,0-5.918,0c-.915,0-1.25-.328-1.251-1.224,0-2.114-.042-4.229.01-6.341a7.284,7.284,0,0,1,3.967-6.589,6.709,6.709,0,0,0,3.071-3.346c1.058-2.476,2.194-4.919,3.27-7.388a12.558,12.558,0,0,1,9.6-7.784,2.1,2.1,0,0,0,.234-.061A1.02,1.02,0,0,0,3094.234,3724.2Zm-2.907,9.618c-1.868,0-3.673-.005-5.478.011a.486.486,0,0,0-.337.26c-1.113,2.464-2.212,4.935-3.338,7.459,1.373,0,2.713,0,4.053,0a7.624,7.624,0,0,0,2.74-.1c.791-.33,1.345-1.229,2-1.878a.561.561,0,0,0,.125-.129,1.409,1.409,0,0,0,.221-.522C3091.334,3737.246,3091.327,3735.578,3091.327,3733.815Zm-2.9,17.4a4.832,4.832,0,1,0,4.832,4.784A4.838,4.838,0,0,0,3088.427,3751.212Zm13.493-27.065a3.188,3.188,0,0,0-1.336-3.419,2.724,2.724,0,0,0-3.121.046,3.152,3.152,0,0,0-1.263,3.343,2.3,2.3,0,0,0,.251.028C3098.256,3724.147,3100.061,3724.146,3101.92,3724.146Zm-20.26,19.255a6.575,6.575,0,0,0-1.429.265,12.931,12.931,0,0,0-1.482.912,5.3,5.3,0,0,0-1.892,1.793c1.077,0,2.059.035,3.038-.01a1.9,1.9,0,0,0,1.763-1.821C3081.676,3744.22,3081.66,3743.9,3081.66,3743.4Z" transform="translate(-3073.917 -3711.587)" fill="#133d60"/>
        <path id="Trazado_128314" data-name="Trazado 128314" d="M3160.911,3755.415h-32.27c-1,0-1.451-.292-1.465-.947-.015-.674.455-.987,1.484-.987h32.333v-.665q0-6.765,0-13.531a4.844,4.844,0,0,0-5.153-5.135q-5.406,0-10.81,0a4.579,4.579,0,0,1-.543-.01.947.947,0,0,1-.878-.976.933.933,0,0,1,.857-.935,2.913,2.913,0,0,1,.482-.011q5.466,0,10.932,0a6.762,6.762,0,0,1,7.045,7.028q.009,10.42,0,20.84a4.817,4.817,0,0,1-4.15,4.939,3.4,3.4,0,0,1-.6.049.964.964,0,1,1-.1-1.925,2.921,2.921,0,0,0,2.917-3.283q0-2.144-.011-4.288C3160.981,3755.542,3160.952,3755.508,3160.911,3755.415Z" transform="translate(-3104.929 -3719.657)" fill="#133d60"/>
        <path id="Trazado_128315" data-name="Trazado 128315" d="M3142.6,3760.4v-7.7h-6.226a4.588,4.588,0,0,0,.293.365c.88.885,1.768,1.761,2.643,2.651a.979.979,0,1,1-1.378,1.354c-1.357-1.347-2.7-2.713-4.068-4.044a1.335,1.335,0,0,0-.825-.344c-1.549-.033-3.1-.013-4.648-.017-.77,0-1.209-.348-1.221-.948-.012-.62.44-.983,1.244-.984q7.456,0,14.912,0c.9,0,1.231.332,1.232,1.243q0,4.559,0,9.118c0,.905-.332,1.235-1.24,1.236q-7.456,0-14.912,0c-.909,0-1.237-.329-1.239-1.235q-.006-2.656,0-5.313c0-.747.386-1.194.99-1.178.581.016.937.448.94,1.168.005,1.51,0,3.019,0,4.577h5.29c-.128-.15-.229-.283-.345-.4-.837-.842-1.68-1.678-2.517-2.521-.578-.582-.639-1.131-.182-1.573.44-.425.975-.365,1.531.187,1.341,1.334,2.667,2.684,4.026,4a1.33,1.33,0,0,0,.826.342C3139.329,3760.416,3140.937,3760.4,3142.6,3760.4Z" transform="translate(-3104.92 -3730.44)" fill="#133d60"/>
        <path id="Trazado_128316" data-name="Trazado 128316" d="M3143.076,3800.109h-12.161a4.519,4.519,0,0,1-.543-.01.948.948,0,0,1-.875-.979.931.931,0,0,1,.86-.932,3.4,3.4,0,0,1,.542-.012h12.175a6.8,6.8,0,0,1,3.479-4.961,6.563,6.563,0,0,1,4.672-.685,6.769,6.769,0,0,1-.941,13.365C3146.783,3806.144,3143.876,3803.836,3143.076,3800.109Zm6.692-5.8a4.832,4.832,0,1,0,4.843,4.773A4.838,4.838,0,0,0,3149.768,3794.31Z" transform="translate(-3106.279 -3754.685)" fill="#133d60"/>
        <path id="Trazado_128317" data-name="Trazado 128317" d="M3184.438,3753.63c.651,0,1.231-.009,1.811,0a.97.97,0,1,1,0,1.927q-1.328.018-2.656,0a.976.976,0,0,1-1.087-1.081c-.012-.58,0-1.161,0-1.778h-1.934c0,.6.008,1.173,0,1.751a.991.991,0,0,1-1.123,1.108c-.562.009-1.123,0-1.73,0v1.934c.512,0,1.028,0,1.544,0,.994,0,1.306.309,1.311,1.285,0,.518,0,1.036,0,1.583h1.933c0-.569-.006-1.144,0-1.718.01-.792.353-1.141,1.14-1.149.865-.009,1.731-.01,2.6,0a.97.97,0,1,1,.014,1.927c-.58.013-1.16,0-1.819,0,0,.594,0,1.149,0,1.7-.008.834-.346,1.188-1.16,1.193q-1.75.012-3.5,0c-.783-.006-1.125-.361-1.135-1.156-.007-.559,0-1.118,0-1.741-.627,0-1.2.008-1.782,0a.986.986,0,0,1-1.115-1.115q-.015-1.781,0-3.561a.985.985,0,0,1,1.109-1.119c.563-.01,1.126,0,1.787,0,0-.569,0-1.123,0-1.676.006-.877.333-1.218,1.19-1.222q1.72-.009,3.44,0c.821,0,1.158.352,1.167,1.186C3184.442,3752.459,3184.438,3753,3184.438,3753.63Z" transform="translate(-3133.205 -3730.437)" fill="#133d60"/>
        <path id="Trazado_128318" data-name="Trazado 128318" d="M3127.747,3743.4c-.624,0-1.248.014-1.872,0a.963.963,0,1,1,.019-1.922q1.872-.022,3.743,0a.953.953,0,0,1,1.013.969.967.967,0,0,1-1.033.953C3128.995,3743.415,3128.371,3743.4,3127.747,3743.4Z" transform="translate(-3103.582 -3725.044)" fill="#133d60"/>
        <path id="Trazado_128319" data-name="Trazado 128319" d="M3185.635,3741.475c.584,0,1.167-.008,1.751,0a.982.982,0,0,1,1.1.947.97.97,0,0,1-1.066.98q-1.841.018-3.683,0a.966.966,0,1,1,.026-1.925C3184.387,3741.465,3185.012,3741.475,3185.635,3741.475Z" transform="translate(-3137.259 -3725.047)" fill="#133d60"/>
        <path id="Trazado_128320" data-name="Trazado 128320" d="M3131.788,3704.506c0-.463-.018-.927,0-1.389a.952.952,0,0,1,.957-.964.942.942,0,0,1,.96.96q.035,1.448,0,2.9a.958.958,0,1,1-1.916,0C3131.769,3705.513,3131.788,3705.009,3131.788,3704.506Z" transform="translate(-3107.61 -3702.153)" fill="#133d60"/>
        <path id="Trazado_128321" data-name="Trazado 128321" d="M3108.767,3783.125c.483,0,.967-.018,1.449,0a.959.959,0,1,1,0,1.917q-1.448.034-2.9,0a.958.958,0,1,1,0-1.917C3107.8,3783.107,3108.284,3783.125,3108.767,3783.125Z" transform="translate(-3092.805 -3749.298)" fill="#133d60"/>
        <path id="Trazado_128322" data-name="Trazado 128322" d="M3145.022,3707.674a5.134,5.134,0,0,1-.508.837c-.56.6-1.146,1.176-1.738,1.746a.969.969,0,1,1-1.372-1.352q.9-.929,1.827-1.828a.833.833,0,0,1,1.091-.193A4.26,4.26,0,0,1,3145.022,3707.674Z" transform="translate(-3113.005 -3704.832)" fill="#133d60"/>
        <path id="Trazado_128323" data-name="Trazado 128323" d="M3121.818,3709.729c-.181.225-.345.607-.621.722a1.134,1.134,0,0,1-.984-.089,24.306,24.306,0,0,1-2.093-2.073.841.841,0,0,1,.047-1.2.817.817,0,0,1,1.187-.175c.793.7,1.519,1.483,2.257,2.247C3121.71,3709.26,3121.721,3709.45,3121.818,3709.729Z" transform="translate(-3099.52 -3704.814)" fill="#133d60"/>
        <path id="Trazado_128324" data-name="Trazado 128324" d="M3114.824,3717.752c.021.874-.647,1.381-1.281,1.115a21.183,21.183,0,0,1-2.1-1.043.907.907,0,0,1-.356-1.254.918.918,0,0,1,1.228-.431,19.471,19.471,0,0,1,1.988,1A2.133,2.133,0,0,1,3114.824,3717.752Z" transform="translate(-3095.491 -3710.244)" fill="#133d60"/>
        <path id="Trazado_128325" data-name="Trazado 128325" d="M3149.007,3719.16c-.328-.306-.735-.516-.835-.826a1.1,1.1,0,0,1,.246-1,11.264,11.264,0,0,1,2.354-1.185,1.148,1.148,0,0,1,.985.439,1.05,1.05,0,0,1-.052,1.013C3150.892,3718.165,3149.994,3718.607,3149.007,3719.16Z" transform="translate(-3117.136 -3710.292)" fill="#133d60"/>
        <path id="Trazado_128326" data-name="Trazado 128326" d="M3156.859,3742.5a.962.962,0,1,1-.914-1.008A.978.978,0,0,1,3156.859,3742.5Z" transform="translate(-3121.093 -3725.057)" fill="#133d60"/>
        <path id="Trazado_128327" data-name="Trazado 128327" d="M3166.114,3742.435a.962.962,0,1,1-.978-.945A.974.974,0,0,1,3166.114,3742.435Z" transform="translate(-3126.482 -3725.058)" fill="#133d60"/>
        <path id="Trazado_128328" data-name="Trazado 128328" d="M3107.517,3804.521a2.9,2.9,0,1,1-2.884-2.875A2.908,2.908,0,0,1,3107.517,3804.521Zm-1.935.069a.963.963,0,1,0-1,.916A.975.975,0,0,0,3105.582,3804.589Z" transform="translate(-3090.109 -3760.086)" fill="#133d60"/>
        <path id="Trazado_128329" data-name="Trazado 128329" d="M3174.03,3801.646a2.9,2.9,0,1,1-2.9,2.922A2.9,2.9,0,0,1,3174.03,3801.646Zm.956,2.923a.963.963,0,1,0-.975.936A.975.975,0,0,0,3174.986,3804.569Z" transform="translate(-3130.522 -3760.086)" fill="#133d60"/>
      </g>
    </g>
  </g>
</svg>
