<svg xmlns="http://www.w3.org/2000/svg" width="58.461" height="60" viewBox="0 0 58.461 60">
  <g id="Grupo_135081" data-name="Grupo 135081" transform="translate(-7454 1128.5)">
    <g id="Grupo_135075" data-name="Grupo 135075" transform="translate(1867.308 2111.5)">
      <g id="Grupo_133946" data-name="Grupo 133946" transform="translate(5586.691 -3240)">
        <ellipse id="Elipse_4912" data-name="Elipse 4912" cx="29.231" cy="30" rx="29.231" ry="30" fill="#d2f3e8"/>
        <g id="UmCpdG" transform="translate(-5100.15 -43.298)">
          <g id="Grupo_135027" data-name="Grupo 135027" transform="translate(5109.369 53.302)">
            <path id="Trazado_128363" data-name="Trazado 128363" d="M5149.932,96.855c-.064.184-.133.367-.192.552a3.881,3.881,0,0,1-1.985,2.527c.07.089.111.15.162.2a4.443,4.443,0,0,1,1.215,3.017c.038,2.429.023,4.858.02,7.287,0,.563-.314.835-.921.835q-4.95,0-9.9,0h-.523c0,.339,0,.65,0,.962-.005.663-.278.96-.926.964q-1.921.014-3.842,0c-.591,0-.935-.307-.933-.793s.353-.784.939-.787c1.042-.006,2.083,0,3.116,0a3.109,3.109,0,0,0-1.609-3.49c-.733-.348-1.523-.578-2.309-.869a3.018,3.018,0,0,1-2.885,1.986,2.964,2.964,0,0,1-2.9-1.94,10.249,10.249,0,0,0-2.712,1.031,2.709,2.709,0,0,0-1.229,2.071c-.046.377-.058.757-.088,1.181.183.012.322.028.46.029.924,0,1.849,0,2.773,0a.8.8,0,0,1,.895.709.782.782,0,0,1-.851.867c-.977.015-1.954.006-2.931.006-.369,0-.74.011-1.108-.009a.775.775,0,0,1-.8-.809c-.016-.353,0-.708,0-1.111h-10.477c-.764,0-1.022-.257-1.022-1.021,0-2.192.005-4.383,0-6.575a4.824,4.824,0,0,1,3.11-4.83c1.171-.5,2.421-.8,3.632-1.209a.611.611,0,0,0,.359-.268c.082-.208-.021-.374-.237-.51a6.636,6.636,0,0,1-3.3-5.9,33.822,33.822,0,0,1,.1-4.111,6.774,6.774,0,0,1,13.467,1.112c.007,1.083.026,2.166-.01,3.248a6.63,6.63,0,0,1-3.233,5.619c-.208.135-.339.251-.316.521.025.3.264.25.433.3.378.115.813.365,1.128.263.27-.087.389-.6.6-.9a5.013,5.013,0,0,1,4.95-2.248.744.744,0,0,0,.5-.134,4.676,4.676,0,0,0,1.8-3.6c.057-1.3.057-2.613.167-3.912a7.228,7.228,0,0,1,1-3.062,5.86,5.86,0,0,1,5.884-3.01c3.169.226,5.007,2.353,5.627,5.322a20.812,20.812,0,0,1,.245,4.22,5.427,5.427,0,0,0,.424,2.238,5.555,5.555,0,0,0,3.417,2.924,1.364,1.364,0,0,1,.821.621ZM5116.6,99.1c-1.151.388-2.29.722-3.391,1.156a3.377,3.377,0,0,0-2.261,3.493c.026,1.847.005,3.694.006,5.542,0,.127.011.254.017.384h2.638v-.445c0-.845,0-1.689,0-2.533,0-.633.28-.976.778-.982.517-.006.8.341.8,1,0,.778,0,1.557,0,2.335v.609a1.178,1.178,0,0,0,.171.035c1.807,0,3.615.006,5.423-.008a.422.422,0,0,0,.307-.245,4.2,4.2,0,0,1,2.425-2.762c.755-.335,1.557-.565,2.334-.852.158-.058.4-.148.423-.255a.746.746,0,0,0-.215-.813,4.648,4.648,0,0,1-1.731-3.183c-.066-.663-.012-1.337-.012-2l-1.521-.415a3.191,3.191,0,0,1-3.03,2.2A3.236,3.236,0,0,1,5116.6,99.1Zm19.127.059c-.34.092-.666.2-1,.264-.25.051-.328.16-.331.423a13.59,13.59,0,0,1-.117,2.127,4.629,4.629,0,0,1-1.7,2.821c-.277.227-.217.5-.183.754.015.1.226.208.367.259.754.275,1.533.49,2.269.807a4.16,4.16,0,0,1,2.522,2.814c.075.275.229.268.434.268q2.5,0,4.989,0c.113,0,.227-.017.366-.028,0-.186,0-.342,0-.5,0-.9,0-1.795.006-2.692a.728.728,0,0,1,.595-.741.738.738,0,0,1,.869.388,1.472,1.472,0,0,1,.11.573c.01.986,0,1.972,0,2.97h2.619c0-2.22.035-4.411-.016-6.6a2.864,2.864,0,0,0-1.422-2.389,15.386,15.386,0,0,0-4.208-1.521,3.268,3.268,0,0,1-6.175.005Zm-10.835-8.847h-.364a13.37,13.37,0,0,1-6.367-1.3.422.422,0,0,0-.366.065,4.483,4.483,0,0,1-1.83.9c-.471.11-.948.19-1.435.285A5.177,5.177,0,0,0,5117,95.47a4.9,4.9,0,0,0,5.566-.081A5.15,5.15,0,0,0,5124.893,90.313Zm9.1-.283a4.9,4.9,0,0,0,2.325,4.849,4.845,4.845,0,0,0,7.3-4.855,7.839,7.839,0,0,0-9.624.006Zm-9.12-1.308a5.207,5.207,0,0,0-2.447-5.249,4.959,4.959,0,0,0-5.628.141,5.144,5.144,0,0,0-2.264,5.011,3.57,3.57,0,0,0,2.616-1.157.8.8,0,0,1,1.213-.19A11.3,11.3,0,0,0,5124.872,88.721Zm18.772-.343a8.651,8.651,0,0,0-.7-3.3c-1.436-3.2-6.165-3.217-7.842-.574a7.418,7.418,0,0,0-1.1,3.665.334.334,0,0,0,.182.265,3.506,3.506,0,0,0,3.632-1.373c.112-.163.2-.339.31-.505a.792.792,0,0,1,1.4.005c.064.1.118.206.177.308A3.467,3.467,0,0,0,5143.644,88.378Zm-14.339,16.008a3.483,3.483,0,0,0,3.5-3.077.385.385,0,0,0-.194-.459,6.271,6.271,0,0,0-6.547.021.471.471,0,0,0-.187.37A3.465,3.465,0,0,0,5129.305,104.387Zm15.184-10.36a15.815,15.815,0,0,1-1.777,1.782,1.373,1.373,0,0,0-.668,1.391.429.429,0,0,0,.359.453c1.158.35,2.308.726,3.461,1.09a.719.719,0,0,0,.229.045,2.137,2.137,0,0,0,2.035-1.674C5145.559,95.544,5145.559,95.544,5144.489,94.026Zm-11.763,5.081a3.464,3.464,0,0,0-3.539-2.8,3.4,3.4,0,0,0-3.212,2.793A8.029,8.029,0,0,1,5132.726,99.107Zm4.451-2.1c0,.4-.014.807,0,1.213a1.645,1.645,0,0,0,1.4,1.542,1.564,1.564,0,0,0,1.755-1.032,10.066,10.066,0,0,0,.188-1.731c-.633.062-1.154.153-1.676.153S5137.769,97.065,5137.177,97.009Zm-3.947-3.067-1.183,1.56a5.283,5.283,0,0,1,2.028,2.465l1.514-.426c0-.37.011-.7-.006-1.027a.413.413,0,0,0-.132-.295A6.851,6.851,0,0,1,5133.229,93.942ZM5118.1,97.752a1.677,1.677,0,0,0,.765,1.789,1.616,1.616,0,0,0,1.823-.082,1.693,1.693,0,0,0,.657-1.707Zm9.825,8.139a1.406,1.406,0,0,0,.605,1.562,1.506,1.506,0,0,0,1.683-.052,1.4,1.4,0,0,0,.563-1.51Z" transform="translate(-5109.369 -73.22)" fill="#133d60"/>
            <path id="Trazado_128364" data-name="Trazado 128364" d="M5166.746,54.156a3.468,3.468,0,0,1,2.56-.842,3.309,3.309,0,0,1,2.973,2.148,3.191,3.191,0,0,1-.618,3.61c-1.4,1.467-2.9,2.847-4.365,4.252a.751.751,0,0,1-1.132-.017c-1.4-1.342-2.81-2.674-4.183-4.043a3.462,3.462,0,0,1-.17-4.8,3.5,3.5,0,0,1,4.755-.434C5166.618,54.071,5166.673,54.106,5166.746,54.156Zm0,7.514c1.262-1.224,2.51-2.4,3.717-3.616a1.863,1.863,0,0,0-.016-2.583,1.919,1.919,0,0,0-2.616-.14c-.191.161-.357.352-.549.513a.791.791,0,0,1-1.079,0c-.171-.144-.324-.31-.492-.459a1.913,1.913,0,0,0-2.646.063,1.868,1.868,0,0,0-.015,2.641C5164.249,59.29,5165.487,60.457,5166.744,61.671Z" transform="translate(-5146.403 -53.302)" fill="#133d60"/>
            <path id="Trazado_128365" data-name="Trazado 128365" d="M5178.221,191.22a.78.78,0,0,1-.782-.769.79.79,0,1,1,1.579.018A.775.775,0,0,1,5178.221,191.22Z" transform="translate(-5158.263 -151.243)" fill="#133d60"/>
            <path id="Trazado_128366" data-name="Trazado 128366" d="M5140.7,123.862a2.738,2.738,0,0,1-1.809-.692.8.8,0,0,1-.134-1.13.783.783,0,0,1,1.13-.1,1.141,1.141,0,0,0,1.611,0,.783.783,0,0,1,1.131.085.812.812,0,0,1-.153,1.159A2.749,2.749,0,0,1,5140.7,123.862Z" transform="translate(-5130.351 -102.468)" fill="#133d60"/>
          </g>
        </g>
      </g>
    </g>
  </g>
</svg>
