<svg xmlns="http://www.w3.org/2000/svg" width="58.461" height="60" viewBox="0 0 58.461 60">
  <g id="Grupo_135077" data-name="Grupo 135077" transform="translate(-5882 1128.5)">
    <g id="Grupo_135073" data-name="Grupo 135073" transform="translate(5001.31 -9577.5)">
      <g id="Grupo_133942" data-name="Grupo 133942" transform="translate(880.69 8449)">
        <ellipse id="Elipse_4912" data-name="Elipse 4912" cx="29.231" cy="30" rx="29.231" ry="30" fill="#d2f3e8"/>
        <path id="Trazado_131296" data-name="Trazado 131296" d="M78.09,279.079a4.108,4.108,0,0,0-3.1-6.773h-.039a5.207,5.207,0,0,0-2.385-1.889,4.108,4.108,0,0,0-3.106-6.766h-.038a5.21,5.21,0,0,0-2.385-1.889,4.082,4.082,0,1,0-6.212,0,5.211,5.211,0,0,0-2.385,1.889h-.077a5.21,5.21,0,0,0-2.385-1.889,4.082,4.082,0,1,0-6.212,0,5.207,5.207,0,0,0-2.385,1.889h-.038a4.078,4.078,0,0,0-.654.053.9.9,0,0,0,.291,1.775,2.262,2.262,0,0,1,.363-.03,2.308,2.308,0,1,1-2.107,3.2.9.9,0,0,0-1.662.686,4.128,4.128,0,0,0,.66,1.09,5.212,5.212,0,0,0-2.384,1.886h-.036a4.108,4.108,0,0,0-3.1,6.773,5.23,5.23,0,0,0-3.328,4.866v2.527a2.7,2.7,0,0,0,2.7,2.7H71.528a.9.9,0,1,0,0-1.8H70.359v-3.426a3.431,3.431,0,0,1,3.426-3.427h2.408a3.431,3.431,0,0,1,3.427,3.427v2.527a.9.9,0,0,1-.9.9h-.989a.9.9,0,1,0,0,1.8h.992a2.7,2.7,0,0,0,2.7-2.7v-2.528a5.229,5.229,0,0,0-3.328-4.867Zm-.817-2.666a2.283,2.283,0,1,1-2.283-2.305,2.283,2.283,0,0,1,2.283,2.305Zm-5.529-8.651a2.283,2.283,0,1,1-2.283-2.309A2.283,2.283,0,0,1,71.744,267.762ZM63.931,256.8a2.308,2.308,0,1,1-2.283,2.334v-.025A2.3,2.3,0,0,1,63.931,256.8ZM62.7,263.217h2.47a3.364,3.364,0,0,1,2.331.944,4.116,4.116,0,0,0-1.145,6.26,5.211,5.211,0,0,0-2.385,1.889h-.078a5.208,5.208,0,0,0-2.385-1.889,4.115,4.115,0,0,0-1.145-6.26,3.365,3.365,0,0,1,2.332-.944Zm1.235,15.5a2.308,2.308,0,1,1,2.283-2.334v.025A2.3,2.3,0,0,1,63.931,278.721Zm-5.529,2.3a5.251,5.251,0,0,0-2.429-1.939,4.114,4.114,0,0,0-1.14-6.266,3.364,3.364,0,0,1,2.331-.944h2.475a3.363,3.363,0,0,1,2.331.944,4.115,4.115,0,0,0-1.14,6.266,5.253,5.253,0,0,0-2.429,1.939Zm-7.813-4.606a2.283,2.283,0,1,1,2.283,2.309A2.283,2.283,0,0,1,50.589,276.412ZM58.4,265.453a2.308,2.308,0,1,1-2.283,2.334v-.026A2.3,2.3,0,0,1,58.4,265.453Zm-5.53-8.651a2.308,2.308,0,1,1-2.283,2.334v-.025A2.3,2.3,0,0,1,52.872,256.8ZM49.3,264.161a3.365,3.365,0,0,1,2.332-.944h2.475a3.364,3.364,0,0,1,2.332.944,4.116,4.116,0,0,0-1.145,6.26,5.213,5.213,0,0,0-2.385,1.889h-.078a5.208,5.208,0,0,0-2.385-1.889,4.115,4.115,0,0,0-1.145-6.26Zm-3.2,7.706h2.475a3.367,3.367,0,0,1,2.331.944,4.115,4.115,0,0,0-1.14,6.266,5.257,5.257,0,0,0-2.429,1.939,5.249,5.249,0,0,0-2.428-1.939,4.115,4.115,0,0,0-1.14-6.266,3.367,3.367,0,0,1,2.332-.944Zm-4.294,2.24a2.308,2.308,0,1,1-2.283,2.334c0-.008,0-.017,0-.025A2.3,2.3,0,0,1,41.813,274.107Zm-4.63,12.365v-2.527a3.431,3.431,0,0,1,3.426-3.427h2.408a3.431,3.431,0,0,1,3.427,3.427v3.426H38.082A.9.9,0,0,1,37.183,286.473Zm11.058-2.527a3.431,3.431,0,0,1,3.426-3.427h2.408a3.431,3.431,0,0,1,3.427,3.427v3.426H48.241Zm11.059,0a3.431,3.431,0,0,1,3.426-3.427h2.408a3.431,3.431,0,0,1,3.426,3.427v3.426H59.3Zm10.16-2.927a5.251,5.251,0,0,0-2.429-1.939,4.115,4.115,0,0,0-1.139-6.267,3.364,3.364,0,0,1,2.331-.944H70.7a3.364,3.364,0,0,1,2.331.944,4.115,4.115,0,0,0-1.14,6.266,5.253,5.253,0,0,0-2.429,1.939Z" transform="translate(-29.172 -244.521)" fill="#133d60"/>
      </g>
    </g>
  </g>
</svg>
