<?xml version="1.0" encoding="utf-8"?>
<!-- Generator: Adobe Illustrator 26.0.1, SVG Export Plug-In . SVG Version: 6.00 Build 0)  -->
<svg version="1.1" id="Grupo_133828" xmlns="http://www.w3.org/2000/svg" xmlns:xlink="http://www.w3.org/1999/xlink" x="0px"
	 y="0px" viewBox="0 0 91.7 82.5" style="enable-background:new 0 0 91.7 82.5;" xml:space="preserve">
<style type="text/css">
	.st0{fill:#133D60;}
</style>
<g>
	<path id="Trazado_122313" class="st0" d="M3.4,59.1c0,0.4,0.2,0.8,0.4,1l1.5,1.5L3.8,63c-0.6,0.6-0.6,1.5,0,2c0.6,0.6,1.5,0.6,2,0
		c0,0,0,0,0,0l1.5-1.5l1.5,1.5c0.6,0.6,1.5,0.5,2,0c0.5-0.6,0.5-1.4,0-2l-1.5-1.5l1.5-1.5c0.6-0.6,0.6-1.5,0-2c0,0,0,0,0,0l0,0
		c-0.6-0.6-1.5-0.6-2,0c0,0,0,0,0,0l-1.5,1.5L5.8,58c-0.6-0.6-1.5-0.6-2,0l0,0C3.5,58.3,3.4,58.7,3.4,59.1L3.4,59.1z"/>
	<path id="Trazado_122323" class="st0" d="M3.4,18.4c0,0.4,0.2,0.8,0.4,1l1.5,1.5l-1.5,1.5c-0.6,0.6-0.6,1.5,0,2
		c0.6,0.6,1.5,0.6,2,0c0,0,0,0,0,0L7.3,23l1.5,1.5c0.6,0.6,1.5,0.5,2,0c0.5-0.6,0.5-1.4,0-2l-1.5-1.5l1.5-1.5c0.6-0.6,0.6-1.5,0-2
		c0,0,0,0,0,0l0,0c-0.6-0.6-1.5-0.6-2,0c0,0,0,0,0,0l-1.5,1.5l-1.5-1.5c-0.6-0.6-1.5-0.6-2,0l0,0C3.5,17.7,3.4,18.1,3.4,18.4
		L3.4,18.4z"/>
	<path id="Trazado_122316" class="st0" d="M3.4,46.4c0,0.4,0.2,0.8,0.4,1l1.5,1.5l-1.5,1.5c-0.6,0.6-0.6,1.5,0,2
		c0.6,0.6,1.5,0.6,2,0c0,0,0,0,0,0l1.5-1.5l1.5,1.5c0.6,0.6,1.5,0.5,2,0c0.5-0.6,0.5-1.4,0-2l-1.5-1.5l1.5-1.5c0.6-0.6,0.6-1.5,0-2
		c0,0,0,0,0,0l0,0c-0.6-0.6-1.5-0.6-2,0c0,0,0,0,0,0l-1.5,1.5l-1.5-1.5c-0.6-0.6-1.5-0.6-2,0l0,0C3.5,45.6,3.4,46,3.4,46.4L3.4,46.4
		z"/>
	<path id="Trazado_122322" class="st0" d="M3.4,4.5c0,0.4,0.2,0.8,0.4,1L5.2,7L3.8,8.4c-0.6,0.6-0.6,1.5,0,2c0.6,0.6,1.5,0.6,2,0
		c0,0,0,0,0,0L7.3,9l1.5,1.5c0.6,0.6,1.5,0.5,2,0c0.5-0.6,0.5-1.4,0-2L9.3,7l1.5-1.5c0.6-0.6,0.6-1.5,0-2c0,0,0,0,0,0l0,0
		c-0.6-0.6-1.5-0.6-2,0c0,0,0,0,0,0L7.3,4.9L5.8,3.5c-0.6-0.6-1.5-0.6-2,0l0,0C3.5,3.7,3.4,4.1,3.4,4.5L3.4,4.5z"/>
	<path id="Trazado_122318" class="st0" d="M3.4,73c0,0.4,0.2,0.8,0.4,1l1.5,1.5L3.8,77c-0.6,0.6-0.6,1.5,0,2c0.6,0.6,1.5,0.6,2,0
		c0,0,0,0,0,0l1.5-1.5L8.7,79c0.6,0.6,1.5,0.5,2,0c0.5-0.6,0.5-1.4,0-2l-1.5-1.5l1.5-1.5c0.6-0.6,0.6-1.5,0-2c0,0,0,0,0,0l0,0
		c-0.6-0.6-1.5-0.6-2,0c0,0,0,0,0,0l-1.5,1.5L5.8,72c-0.6-0.6-1.5-0.6-2,0l0,0C3.5,72.3,3.4,72.6,3.4,73L3.4,73z"/>
	<path id="Trazado_122328" class="st0" d="M3.4,32.4c0,0.4,0.2,0.8,0.4,1l1.5,1.5l-1.5,1.5c-0.6,0.6-0.6,1.5,0,2
		c0.6,0.6,1.5,0.6,2,0c0,0,0,0,0,0l1.5-1.5l1.5,1.5c0.6,0.6,1.5,0.5,2,0c0.5-0.6,0.5-1.4,0-2l-1.5-1.5l1.5-1.5c0.6-0.6,0.6-1.5,0-2
		c0,0,0,0,0,0l0,0c-0.6-0.6-1.5-0.6-2,0c0,0,0,0,0,0l-1.5,1.5l-1.5-1.5c-0.6-0.6-1.5-0.6-2,0l0,0C3.5,31.7,3.4,32,3.4,32.4L3.4,32.4
		z"/>
	<path id="Trazado_122314" class="st0" d="M18.9,59.1c0,0.4,0.2,0.8,0.4,1l1.5,1.5L19.3,63c-0.6,0.6-0.6,1.5,0,2
		c0.6,0.6,1.5,0.6,2,0c0,0,0,0,0,0l1.5-1.5l1.5,1.5c0.6,0.6,1.5,0.5,2,0c0.5-0.6,0.5-1.4,0-2l-1.5-1.5l1.5-1.5c0.6-0.6,0.6-1.5,0-2
		c0,0,0,0,0,0l0,0c-0.6-0.6-1.5-0.6-2,0c0,0,0,0,0,0l-1.5,1.5L21.4,58c-0.6-0.6-1.5-0.6-2,0l0,0C19,58.3,18.9,58.7,18.9,59.1
		L18.9,59.1z"/>
	<path id="Trazado_122324" class="st0" d="M18.9,18.4c0,0.4,0.2,0.8,0.4,1l1.5,1.5l-1.5,1.5c-0.6,0.6-0.6,1.5,0,2
		c0.6,0.6,1.5,0.6,2,0c0,0,0,0,0,0l1.5-1.5l1.5,1.5c0.6,0.6,1.5,0.5,2,0c0.5-0.6,0.5-1.4,0-2l-1.5-1.5l1.5-1.5c0.6-0.6,0.6-1.5,0-2
		c0,0,0,0,0,0l0,0c-0.6-0.6-1.5-0.6-2,0c0,0,0,0,0,0l-1.5,1.5l-1.5-1.5c-0.6-0.6-1.5-0.6-2,0l0,0C19,17.7,18.9,18.1,18.9,18.4
		L18.9,18.4z"/>
	<path id="Trazado_122320" class="st0" d="M34.4,59.1c0,0.4,0.2,0.8,0.4,1l1.5,1.5L34.8,63c-0.6,0.6-0.6,1.5,0,2
		c0.6,0.6,1.5,0.6,2,0c0,0,0,0,0,0l1.5-1.5l1.5,1.5c0.6,0.6,1.5,0.5,2,0c0.5-0.6,0.5-1.4,0-2l-1.5-1.5l1.5-1.5c0.6-0.6,0.6-1.5,0-2
		c0,0,0,0,0,0l0,0c-0.6-0.6-1.5-0.6-2,0c0,0,0,0,0,0l-1.5,1.5L36.9,58c-0.6-0.6-1.5-0.6-2,0l0,0C34.6,58.3,34.4,58.7,34.4,59.1
		L34.4,59.1z"/>
	<path id="Trazado_122325" class="st0" d="M34.4,18.4c0,0.4,0.2,0.8,0.4,1l1.5,1.5l-1.5,1.5c-0.6,0.6-0.6,1.5,0,2
		c0.6,0.6,1.5,0.6,2,0c0,0,0,0,0,0l1.5-1.5l1.5,1.5c0.6,0.6,1.5,0.5,2,0c0.5-0.6,0.5-1.4,0-2l-1.5-1.5l1.5-1.5c0.6-0.6,0.6-1.5,0-2
		c0,0,0,0,0,0l0,0c-0.6-0.6-1.5-0.6-2,0c0,0,0,0,0,0l-1.5,1.5l-1.5-1.5c-0.6-0.6-1.5-0.6-2,0l0,0C34.6,17.7,34.4,18.1,34.4,18.4
		L34.4,18.4z"/>
	<path id="Trazado_122315" class="st0" d="M18.9,46.4c0,0.4,0.2,0.8,0.4,1l1.5,1.5l-1.5,1.5c-0.6,0.6-0.6,1.5,0,2
		c0.6,0.6,1.5,0.6,2,0c0,0,0,0,0,0l1.5-1.5l1.5,1.5c0.6,0.6,1.5,0.5,2,0c0.5-0.6,0.5-1.4,0-2l-1.5-1.5l1.5-1.5c0.6-0.6,0.6-1.5,0-2
		c0,0,0,0,0,0l0,0c-0.6-0.6-1.5-0.6-2,0c0,0,0,0,0,0l-1.5,1.5l-1.5-1.5c-0.6-0.6-1.5-0.6-2,0l0,0C19,45.6,18.9,46,18.9,46.4
		L18.9,46.4z"/>
	<path id="Trazado_122326" class="st0" d="M18.9,4.5c0,0.4,0.2,0.8,0.4,1L20.8,7l-1.5,1.5c-0.6,0.6-0.6,1.5,0,2c0.6,0.6,1.5,0.6,2,0
		c0,0,0,0,0,0L22.8,9l1.5,1.5c0.6,0.6,1.5,0.5,2,0c0.5-0.6,0.5-1.4,0-2L24.9,7l1.5-1.5c0.6-0.6,0.6-1.5,0-2c0,0,0,0,0,0l0,0
		c-0.6-0.6-1.5-0.6-2,0c0,0,0,0,0,0l-1.5,1.5l-1.5-1.5c-0.6-0.6-1.5-0.6-2,0l0,0C19,3.7,18.9,4.1,18.9,4.5L18.9,4.5z"/>
	<path id="Trazado_122319" class="st0" d="M34.4,46.4c0,0.4,0.2,0.8,0.4,1l1.5,1.5l-1.5,1.5c-0.6,0.6-0.6,1.5,0,2
		c0.6,0.6,1.5,0.6,2,0c0,0,0,0,0,0l1.5-1.5l1.5,1.5c0.6,0.6,1.5,0.5,2,0c0.5-0.6,0.5-1.4,0-2l-1.5-1.5l1.5-1.5c0.6-0.6,0.6-1.5,0-2
		c0,0,0,0,0,0l0,0c-0.6-0.6-1.5-0.6-2,0c0,0,0,0,0,0l-1.5,1.5l-1.5-1.5c-0.6-0.6-1.5-0.6-2,0l0,0C34.6,45.6,34.4,46,34.4,46.4
		L34.4,46.4z"/>
	<path id="Trazado_122327" class="st0" d="M34.4,4.5c0,0.4,0.2,0.8,0.4,1L36.3,7l-1.5,1.5c-0.6,0.6-0.6,1.5,0,2c0.6,0.6,1.5,0.6,2,0
		c0,0,0,0,0,0L38.3,9l1.5,1.5c0.6,0.6,1.5,0.5,2,0c0.5-0.6,0.5-1.4,0-2L40.4,7l1.5-1.5c0.6-0.6,0.6-1.5,0-2c0,0,0,0,0,0l0,0
		c-0.6-0.6-1.5-0.6-2,0c0,0,0,0,0,0l-1.5,1.5l-1.5-1.5c-0.6-0.6-1.5-0.6-2,0l0,0C34.6,3.7,34.4,4.1,34.4,4.5L34.4,4.5z"/>
	<path id="Trazado_122317" class="st0" d="M18.9,73c0,0.4,0.2,0.8,0.4,1l1.5,1.5L19.3,77c-0.6,0.6-0.6,1.5,0,2c0.6,0.6,1.5,0.6,2,0
		c0,0,0,0,0,0l1.5-1.5l1.5,1.5c0.6,0.6,1.5,0.5,2,0c0.5-0.6,0.5-1.4,0-2l-1.5-1.5l1.5-1.5c0.6-0.6,0.6-1.5,0-2c0,0,0,0,0,0l0,0
		c-0.6-0.6-1.5-0.6-2,0c0,0,0,0,0,0l-1.5,1.5L21.4,72c-0.6-0.6-1.5-0.6-2,0l0,0C19,72.3,18.9,72.6,18.9,73L18.9,73z"/>
	<path id="Trazado_122329" class="st0" d="M18.9,32.4c0,0.4,0.2,0.8,0.4,1l1.5,1.5l-1.5,1.5c-0.6,0.6-0.6,1.5,0,2
		c0.6,0.6,1.5,0.6,2,0c0,0,0,0,0,0l1.5-1.5l1.5,1.5c0.6,0.6,1.5,0.5,2,0c0.5-0.6,0.5-1.4,0-2l-1.5-1.5l1.5-1.5c0.6-0.6,0.6-1.5,0-2
		c0,0,0,0,0,0l0,0c-0.6-0.6-1.5-0.6-2,0c0,0,0,0,0,0l-1.5,1.5l-1.5-1.5c-0.6-0.6-1.5-0.6-2,0l0,0C19,31.7,18.9,32,18.9,32.4
		L18.9,32.4z"/>
	<path id="Trazado_122321" class="st0" d="M34.4,73c0,0.4,0.2,0.8,0.4,1l1.5,1.5L34.8,77c-0.6,0.6-0.6,1.5,0,2c0.6,0.6,1.5,0.6,2,0
		c0,0,0,0,0,0l1.5-1.5l1.5,1.5c0.6,0.6,1.5,0.5,2,0c0.5-0.6,0.5-1.4,0-2l-1.5-1.5l1.5-1.5c0.6-0.6,0.6-1.5,0-2c0,0,0,0,0,0l0,0
		c-0.6-0.6-1.5-0.6-2,0c0,0,0,0,0,0l-1.5,1.5L36.9,72c-0.6-0.6-1.5-0.6-2,0l0,0C34.6,72.3,34.4,72.6,34.4,73L34.4,73z"/>
	<path id="Trazado_122330" class="st0" d="M34.4,32.4c0,0.4,0.2,0.8,0.4,1l1.5,1.5l-1.5,1.5c-0.6,0.6-0.6,1.5,0,2
		c0.6,0.6,1.5,0.6,2,0c0,0,0,0,0,0l1.5-1.5l1.5,1.5c0.6,0.6,1.5,0.5,2,0c0.5-0.6,0.5-1.4,0-2l-1.5-1.5l1.5-1.5c0.6-0.6,0.6-1.5,0-2
		c0,0,0,0,0,0l0,0c-0.6-0.6-1.5-0.6-2,0c0,0,0,0,0,0l-1.5,1.5l-1.5-1.5c-0.6-0.6-1.5-0.6-2,0l0,0C34.6,31.7,34.4,32,34.4,32.4
		L34.4,32.4z"/>
	<path id="Trazado_122313-2" class="st0" d="M49.4,59.1c0,0.4,0.2,0.8,0.4,1l1.5,1.5L49.9,63c-0.6,0.6-0.6,1.5,0,2
		c0.6,0.6,1.5,0.6,2,0c0,0,0,0,0,0l1.5-1.5l1.5,1.5c0.6,0.6,1.5,0.5,2,0c0.5-0.6,0.5-1.4,0-2l-1.5-1.5l1.5-1.5c0.6-0.6,0.6-1.5,0-2
		c0,0,0,0,0,0l0,0c-0.6-0.6-1.5-0.6-2,0c0,0,0,0,0,0l-1.5,1.5L51.9,58c-0.6-0.6-1.5-0.6-2,0l0,0C49.6,58.3,49.4,58.7,49.4,59.1
		L49.4,59.1z"/>
	<path id="Trazado_122331" class="st0" d="M49.4,18.4c0,0.4,0.2,0.8,0.4,1l1.5,1.5l-1.5,1.5c-0.6,0.6-0.6,1.5,0,2
		c0.6,0.6,1.5,0.6,2,0c0,0,0,0,0,0l1.5-1.5l1.5,1.5c0.6,0.6,1.5,0.5,2,0c0.5-0.6,0.5-1.4,0-2l-1.5-1.5l1.5-1.5c0.6-0.6,0.6-1.5,0-2
		c0,0,0,0,0,0l0,0c-0.6-0.6-1.5-0.6-2,0c0,0,0,0,0,0l-1.5,1.5l-1.5-1.5c-0.6-0.6-1.5-0.6-2,0l0,0C49.6,17.7,49.4,18.1,49.4,18.4
		L49.4,18.4z"/>
	<path id="Trazado_122316-2" class="st0" d="M49.4,46.4c0,0.4,0.2,0.8,0.4,1l1.5,1.5l-1.5,1.5c-0.6,0.6-0.6,1.5,0,2
		c0.6,0.6,1.5,0.6,2,0c0,0,0,0,0,0l1.5-1.5l1.5,1.5c0.6,0.6,1.5,0.5,2,0c0.5-0.6,0.5-1.4,0-2l-1.5-1.5l1.5-1.5c0.6-0.6,0.6-1.5,0-2
		c0,0,0,0,0,0l0,0c-0.6-0.6-1.5-0.6-2,0c0,0,0,0,0,0l-1.5,1.5l-1.5-1.5c-0.6-0.6-1.5-0.6-2,0l0,0C49.6,45.6,49.4,46,49.4,46.4
		L49.4,46.4z"/>
	<path id="Trazado_122332" class="st0" d="M49.4,4.5c0,0.4,0.2,0.8,0.4,1L51.3,7l-1.5,1.5c-0.6,0.6-0.6,1.5,0,2c0.6,0.6,1.5,0.6,2,0
		c0,0,0,0,0,0L53.4,9l1.5,1.5c0.6,0.6,1.5,0.5,2,0c0.5-0.6,0.5-1.4,0-2L55.4,7l1.5-1.5c0.6-0.6,0.6-1.5,0-2c0,0,0,0,0,0l0,0
		c-0.6-0.6-1.5-0.6-2,0c0,0,0,0,0,0l-1.5,1.5l-1.5-1.5c-0.6-0.6-1.5-0.6-2,0l0,0C49.6,3.7,49.4,4.1,49.4,4.5L49.4,4.5z"/>
	<path id="Trazado_122318-2" class="st0" d="M49.4,73c0,0.4,0.2,0.8,0.4,1l1.5,1.5L49.9,77c-0.6,0.6-0.6,1.5,0,2
		c0.6,0.6,1.5,0.6,2,0c0,0,0,0,0,0l1.5-1.5l1.5,1.5c0.6,0.6,1.5,0.5,2,0c0.5-0.6,0.5-1.4,0-2l-1.5-1.5l1.5-1.5c0.6-0.6,0.6-1.5,0-2
		c0,0,0,0,0,0l0,0c-0.6-0.6-1.5-0.6-2,0c0,0,0,0,0,0l-1.5,1.5L51.9,72c-0.6-0.6-1.5-0.6-2,0l0,0C49.6,72.3,49.4,72.6,49.4,73
		L49.4,73z"/>
	<path id="Trazado_122333" class="st0" d="M49.4,32.4c0,0.4,0.2,0.8,0.4,1l1.5,1.5l-1.5,1.5c-0.6,0.6-0.6,1.5,0,2
		c0.6,0.6,1.5,0.6,2,0c0,0,0,0,0,0l1.5-1.5l1.5,1.5c0.6,0.6,1.5,0.5,2,0c0.5-0.6,0.5-1.4,0-2l-1.5-1.5l1.5-1.5c0.6-0.6,0.6-1.5,0-2
		c0,0,0,0,0,0l0,0c-0.6-0.6-1.5-0.6-2,0c0,0,0,0,0,0l-1.5,1.5l-1.5-1.5c-0.6-0.6-1.5-0.6-2,0l0,0C49.6,31.7,49.4,32,49.4,32.4
		L49.4,32.4z"/>
	<path id="Trazado_122314-2" class="st0" d="M65,59.1c0,0.4,0.2,0.8,0.4,1l1.5,1.5L65.4,63c-0.6,0.6-0.6,1.5,0,2
		c0.6,0.6,1.5,0.6,2,0c0,0,0,0,0,0l1.5-1.5l1.5,1.5c0.6,0.6,1.5,0.5,2,0c0.5-0.6,0.5-1.4,0-2l-1.5-1.5l1.5-1.5c0.6-0.6,0.6-1.5,0-2
		c0,0,0,0,0,0l0,0c-0.6-0.6-1.5-0.6-2,0c0,0,0,0,0,0l-1.5,1.5L67.4,58c-0.6-0.6-1.5-0.6-2,0l0,0C65.1,58.3,65,58.7,65,59.1L65,59.1z
		"/>
	<path id="Trazado_122334" class="st0" d="M65,18.4c0,0.4,0.2,0.8,0.4,1l1.5,1.5l-1.5,1.5c-0.6,0.6-0.6,1.5,0,2c0.6,0.6,1.5,0.6,2,0
		c0,0,0,0,0,0l1.5-1.5l1.5,1.5c0.6,0.6,1.5,0.5,2,0c0.5-0.6,0.5-1.4,0-2l-1.5-1.5l1.5-1.5c0.6-0.6,0.6-1.5,0-2c0,0,0,0,0,0l0,0
		c-0.6-0.6-1.5-0.6-2,0c0,0,0,0,0,0l-1.5,1.5l-1.5-1.5c-0.6-0.6-1.5-0.6-2,0l0,0C65.1,17.7,65,18.1,65,18.4L65,18.4z"/>
	<path id="Trazado_122320-2" class="st0" d="M80.5,59.1c0,0.4,0.2,0.8,0.4,1l1.5,1.5L80.9,63c-0.6,0.6-0.6,1.5,0,2
		c0.6,0.6,1.5,0.6,2,0c0,0,0,0,0,0l1.5-1.5l1.5,1.5c0.6,0.6,1.5,0.5,2,0c0.5-0.6,0.5-1.4,0-2l-1.5-1.5l1.5-1.5c0.6-0.6,0.6-1.5,0-2
		c0,0,0,0,0,0l0,0c-0.6-0.6-1.5-0.6-2,0c0,0,0,0,0,0l-1.5,1.5L83,58c-0.6-0.6-1.5-0.6-2,0l0,0C80.7,58.3,80.5,58.7,80.5,59.1
		L80.5,59.1z"/>
	<path id="Trazado_122337" class="st0" d="M80.5,18.4c0,0.4,0.2,0.8,0.4,1l1.5,1.5l-1.5,1.5c-0.6,0.6-0.6,1.5,0,2
		c0.6,0.6,1.5,0.6,2,0c0,0,0,0,0,0l1.5-1.5l1.5,1.5c0.6,0.6,1.5,0.5,2,0c0.5-0.6,0.5-1.4,0-2l-1.5-1.5l1.5-1.5c0.6-0.6,0.6-1.5,0-2
		c0,0,0,0,0,0l0,0c-0.6-0.6-1.5-0.6-2,0c0,0,0,0,0,0l-1.5,1.5L83,17.4c-0.6-0.6-1.5-0.6-2,0l0,0C80.7,17.7,80.5,18.1,80.5,18.4
		L80.5,18.4z"/>
	<path id="Trazado_122315-2" class="st0" d="M65,46.4c0,0.4,0.2,0.8,0.4,1l1.5,1.5l-1.5,1.5c-0.6,0.6-0.6,1.5,0,2
		c0.6,0.6,1.5,0.6,2,0c0,0,0,0,0,0l1.5-1.5l1.5,1.5c0.6,0.6,1.5,0.5,2,0c0.5-0.6,0.5-1.4,0-2l-1.5-1.5l1.5-1.5c0.6-0.6,0.6-1.5,0-2
		c0,0,0,0,0,0l0,0c-0.6-0.6-1.5-0.6-2,0c0,0,0,0,0,0l-1.5,1.5l-1.5-1.5c-0.6-0.6-1.5-0.6-2,0l0,0C65.1,45.6,65,46,65,46.4L65,46.4z"
		/>
	<path id="Trazado_122335" class="st0" d="M65,4.5c0,0.4,0.2,0.8,0.4,1L66.9,7l-1.5,1.5c-0.6,0.6-0.6,1.5,0,2c0.6,0.6,1.5,0.6,2,0
		c0,0,0,0,0,0L68.9,9l1.5,1.5c0.6,0.6,1.5,0.5,2,0c0.5-0.6,0.5-1.4,0-2L70.9,7l1.5-1.5c0.6-0.6,0.6-1.5,0-2c0,0,0,0,0,0l0,0
		c-0.6-0.6-1.5-0.6-2,0c0,0,0,0,0,0l-1.5,1.5l-1.5-1.5c-0.6-0.6-1.5-0.6-2,0l0,0C65.1,3.7,65,4.1,65,4.5L65,4.5z"/>
	<path id="Trazado_122319-2" class="st0" d="M80.5,46.4c0,0.4,0.2,0.8,0.4,1l1.5,1.5l-1.5,1.5c-0.6,0.6-0.6,1.5,0,2
		c0.6,0.6,1.5,0.6,2,0c0,0,0,0,0,0l1.5-1.5l1.5,1.5c0.6,0.6,1.5,0.5,2,0c0.5-0.6,0.5-1.4,0-2l-1.5-1.5l1.5-1.5c0.6-0.6,0.6-1.5,0-2
		c0,0,0,0,0,0l0,0c-0.6-0.6-1.5-0.6-2,0c0,0,0,0,0,0l-1.5,1.5L83,45.4c-0.6-0.6-1.5-0.6-2,0l0,0C80.7,45.6,80.5,46,80.5,46.4
		L80.5,46.4z"/>
	<path id="Trazado_122338" class="st0" d="M80.5,4.5c0,0.4,0.2,0.8,0.4,1L82.4,7l-1.5,1.5c-0.6,0.6-0.6,1.5,0,2c0.6,0.6,1.5,0.6,2,0
		c0,0,0,0,0,0L84.4,9l1.5,1.5c0.6,0.6,1.5,0.5,2,0c0.5-0.6,0.5-1.4,0-2L86.5,7l1.5-1.5c0.6-0.6,0.6-1.5,0-2c0,0,0,0,0,0l0,0
		c-0.6-0.6-1.5-0.6-2,0c0,0,0,0,0,0l-1.5,1.5L83,3.5c-0.6-0.6-1.5-0.6-2,0l0,0C80.7,3.7,80.5,4.1,80.5,4.5L80.5,4.5z"/>
	<path id="Trazado_122317-2" class="st0" d="M65,73c0,0.4,0.2,0.8,0.4,1l1.5,1.5L65.4,77c-0.6,0.6-0.6,1.5,0,2c0.6,0.6,1.5,0.6,2,0
		c0,0,0,0,0,0l1.5-1.5l1.5,1.5c0.6,0.6,1.5,0.5,2,0c0.5-0.6,0.5-1.4,0-2l-1.5-1.5l1.5-1.5c0.6-0.6,0.6-1.5,0-2c0,0,0,0,0,0l0,0
		c-0.6-0.6-1.5-0.6-2,0c0,0,0,0,0,0l-1.5,1.5L67.4,72c-0.6-0.6-1.5-0.6-2,0l0,0C65.1,72.3,65,72.6,65,73L65,73z"/>
	<path id="Trazado_122336" class="st0" d="M65,32.4c0,0.4,0.2,0.8,0.4,1l1.5,1.5l-1.5,1.5c-0.6,0.6-0.6,1.5,0,2c0.6,0.6,1.5,0.6,2,0
		c0,0,0,0,0,0l1.5-1.5l1.5,1.5c0.6,0.6,1.5,0.5,2,0c0.5-0.6,0.5-1.4,0-2l-1.5-1.5l1.5-1.5c0.6-0.6,0.6-1.5,0-2c0,0,0,0,0,0l0,0
		c-0.6-0.6-1.5-0.6-2,0c0,0,0,0,0,0l-1.5,1.5l-1.5-1.5c-0.6-0.6-1.5-0.6-2,0l0,0C65.1,31.7,65,32,65,32.4L65,32.4z"/>
	<path id="Trazado_122321-2" class="st0" d="M80.5,73c0,0.4,0.2,0.8,0.4,1l1.5,1.5L80.9,77c-0.6,0.6-0.6,1.5,0,2
		c0.6,0.6,1.5,0.6,2,0c0,0,0,0,0,0l1.5-1.5l1.5,1.5c0.6,0.6,1.5,0.5,2,0c0.5-0.6,0.5-1.4,0-2l-1.5-1.5l1.5-1.5c0.6-0.6,0.6-1.5,0-2
		c0,0,0,0,0,0l0,0c-0.6-0.6-1.5-0.6-2,0c0,0,0,0,0,0l-1.5,1.5L83,72c-0.6-0.6-1.5-0.6-2,0l0,0C80.7,72.3,80.5,72.6,80.5,73L80.5,73z
		"/>
	<path id="Trazado_122339" class="st0" d="M80.5,32.4c0,0.4,0.2,0.8,0.4,1l1.5,1.5l-1.5,1.5c-0.6,0.6-0.6,1.5,0,2
		c0.6,0.6,1.5,0.6,2,0c0,0,0,0,0,0l1.5-1.5l1.5,1.5c0.6,0.6,1.5,0.5,2,0c0.5-0.6,0.5-1.4,0-2l-1.5-1.5l1.5-1.5c0.6-0.6,0.6-1.5,0-2
		c0,0,0,0,0,0l0,0c-0.6-0.6-1.5-0.6-2,0c0,0,0,0,0,0l-1.5,1.5L83,31.4c-0.6-0.6-1.5-0.6-2,0l0,0C80.7,31.7,80.5,32,80.5,32.4
		L80.5,32.4z"/>
</g>
</svg>
