<svg id="Grupo_78302" data-name="Grupo 78302" xmlns="http://www.w3.org/2000/svg" xmlns:xlink="http://www.w3.org/1999/xlink" width="1320" height="506.835" viewBox="0 0 1320 506.835">
  <defs>
    <linearGradient id="linear-gradient" x1="0.835" y1="0.896" x2="0.013" y2="0.056" gradientUnits="objectBoundingBox">
      <stop offset="0" stop-color="#004b89"/>
      <stop offset="1" stop-color="#008bfd"/>
    </linearGradient>
    <linearGradient id="linear-gradient-2" x1="0.429" y1="0.396" x2="1.045" y2="0.295" xlink:href="#linear-gradient"/>
    <clipPath id="clip-path">
      <path id="Rectangle_652" data-name="Rectangle 652" d="M20.787,0H1299.213C1310.693,0,1320,8.4,1320,18.772V488.063c0,10.367-9.307,18.772-20.787,18.772H20.787C9.307,506.835,0,498.431,0,488.063V18.772C0,8.4,9.307,0,20.787,0Z" fill="url(#linear-gradient)"/>
    </clipPath>
  </defs>
  <path id="Rectangle_652-2" data-name="Rectangle 652" d="M1299.213,0H20.787C9.307,0,0,8.4,0,18.772V488.063c0,10.367,9.307,18.772,20.787,18.772H1299.213c11.48,0,20.787-8.4,20.787-18.772V18.772C1320,8.4,1310.693,0,1299.213,0Z" fill="url(#linear-gradient-2)"/>
  <g id="Enmascarar_grupo_45" data-name="Enmascarar grupo 45" clip-path="url(#clip-path)">
    <g id="Grupo_78299" data-name="Grupo 78299" transform="translate(1421.653 781.694) rotate(172)">
      <g id="Grupo_78299-2" data-name="Grupo 78299" transform="translate(221.608 214.317)">
        <path id="Trazado_113492" data-name="Trazado 113492" d="M17.283,328.423c20.259-39.4,57.978-65.29,100.17-77.522,50.023-14.5,98.156-6.769,148.343.93,46.274,7.1,97.741,9.075,136.786-21,60.6-46.679,66.391-137.113,121.882-189.438A153.591,153.591,0,0,1,627.03.008c41.715-.459,94.5,17.7,115.838,56.185,20.717,37.374-.278,74.588,7.078,112.848C764.333,243.87,867.667,239.423,917.6,276.565c23.856,17.747,39.91,44.227,50.909,71.851,12.206,30.66,18.854,64.816,10.59,96.765C965.408,498.1,914,517.914,863.928,519.815c-37.206,1.414-74.193-8.161-108.36-22.955-30.219-13.083-58.643-30.249-89.549-41.612C589.694,427.184,514.508,463,448.655,501.5c-84.537,49.427-171.844,97.077-272.917,80.071C98.507,568.576,18.354,521.067,3.2,438.479c-6.411-34.937-3.44-71.99,11.3-104.308Q15.829,331.251,17.283,328.423Z" transform="translate(0 42.404)" fill="none" stroke="#fff" stroke-miterlimit="10" stroke-width="1" opacity="0.29" style="mix-blend-mode: overlay;isolation: isolate"/>
        <path id="Trazado_113493" data-name="Trazado 113493" d="M17.283,328.423c20.259-39.4,57.978-65.29,100.17-77.523,50.023-14.5,98.156-6.767,148.343.932,46.274,7.1,97.741,9.076,136.786-21,60.6-46.677,66.391-137.111,121.882-189.438A153.6,153.6,0,0,1,627.03.008c41.715-.459,94.5,17.7,115.838,56.185,20.717,37.373-.278,74.588,7.078,112.848,14.387,74.828,117.721,70.381,167.649,107.523,23.856,17.747,39.91,44.226,50.909,71.851,12.206,30.66,18.854,64.816,10.59,96.765C965.408,498.1,914,517.914,863.928,519.815c-37.206,1.413-74.193-8.161-108.36-22.955-30.219-13.083-58.643-30.249-89.549-41.612C589.694,427.184,514.508,463,448.655,501.5c-84.537,49.427-171.844,97.076-272.917,80.071C98.507,568.576,18.354,521.067,3.2,438.479c-6.411-34.938-3.44-71.99,11.3-104.308Q15.829,331.249,17.283,328.423Z" transform="translate(0 28.27)" fill="none" stroke="#fff" stroke-miterlimit="10" stroke-width="1" opacity="0.29" style="mix-blend-mode: overlay;isolation: isolate"/>
        <path id="Trazado_113494" data-name="Trazado 113494" d="M17.283,328.424c20.259-39.4,57.978-65.29,100.17-77.523,50.023-14.5,98.156-6.767,148.343.932,46.274,7.1,97.741,9.075,136.786-21,60.6-46.679,66.391-137.111,121.882-189.438A153.6,153.6,0,0,1,627.03.008c41.715-.459,94.5,17.7,115.838,56.187,20.717,37.373-.278,74.588,7.078,112.848,14.387,74.828,117.721,70.38,167.649,107.523,23.856,17.747,39.91,44.226,50.909,71.851,12.206,30.66,18.854,64.816,10.59,96.765C965.408,498.1,914,517.914,863.928,519.816c-37.206,1.413-74.193-8.161-108.36-22.956-30.219-13.082-58.643-30.249-89.549-41.612C589.694,427.186,514.508,463,448.655,501.5c-84.537,49.427-171.844,97.076-272.917,80.071C98.507,568.578,18.354,521.068,3.2,438.48c-6.411-34.938-3.44-71.99,11.3-104.308Q15.829,331.251,17.283,328.424Z" transform="translate(0 14.134)" fill="none" stroke="#fff" stroke-miterlimit="10" stroke-width="1" opacity="0.29" style="mix-blend-mode: overlay;isolation: isolate"/>
        <path id="Trazado_113495" data-name="Trazado 113495" d="M17.283,328.423c20.259-39.4,57.978-65.288,100.17-77.522,50.023-14.5,98.156-6.769,148.343.93,46.274,7.1,97.741,9.076,136.786-21,60.6-46.678,66.391-137.111,121.882-189.438A153.6,153.6,0,0,1,627.03.008c41.715-.459,94.5,17.7,115.838,56.185,20.717,37.374-.278,74.589,7.078,112.848,14.387,74.829,117.721,70.381,167.649,107.524,23.856,17.746,39.91,44.226,50.909,71.851,12.206,30.66,18.854,64.814,10.59,96.764C965.408,498.1,914,517.914,863.928,519.816c-37.206,1.413-74.193-8.163-108.36-22.956-30.219-13.083-58.643-30.249-89.549-41.612C589.694,427.186,514.508,463,448.655,501.5c-84.537,49.428-171.844,97.077-272.917,80.073C98.507,568.578,18.354,521.068,3.2,438.479-3.215,403.542-.243,366.49,14.5,334.17Q15.829,331.251,17.283,328.423Z" transform="translate(0 0)" fill="none" stroke="#fff" stroke-miterlimit="10" stroke-width="1" opacity="0.29" style="mix-blend-mode: overlay;isolation: isolate"/>
      </g>
      <path id="Trazado_113496" data-name="Trazado 113496" d="M15.112,287.169c17.715-34.451,50.7-57.088,87.588-67.784,43.738-12.681,85.825-5.919,129.709.813,40.461,6.207,85.463,7.935,119.6-18.36C405,161.024,410.063,81.949,458.584,36.2A134.3,134.3,0,0,1,548.268.007c36.475-.4,82.632,15.474,101.287,49.129,18.115,32.679-.244,65.218,6.189,98.672,12.579,65.429,102.933,61.541,146.589,94.017,20.86,15.517,34.9,38.67,44.515,62.826,10.673,26.809,16.485,56.674,9.26,84.61-11.968,46.276-56.921,63.6-100.7,65.259-32.532,1.236-64.873-7.137-94.75-20.072-26.422-11.439-51.276-26.448-78.3-36.385-66.737-24.537-132.48,6.775-190.061,40.442-73.916,43.219-150.258,84.883-238.634,70.014C86.133,497.157,16.048,455.615,2.8,383.4c-5.607-30.549-3.008-62.948,9.88-91.206Q13.839,289.642,15.112,287.169Z" transform="translate(597.339 534.145)" fill="#fff" opacity="0.132" style="mix-blend-mode: overlay;isolation: isolate"/>
      <path id="Trazado_113497" data-name="Trazado 113497" d="M15.112,287.169c17.715-34.451,50.7-57.088,87.588-67.784,43.738-12.681,85.825-5.919,129.709.813,40.461,6.207,85.463,7.935,119.6-18.36C405,161.024,410.063,81.949,458.584,36.2A134.3,134.3,0,0,1,548.268.007c36.475-.4,82.632,15.474,101.287,49.127,18.114,32.68-.244,65.219,6.189,98.676,6.347,33.006,36.346,50.719,65.8,61.073,23.3,8.193,47.923,13.476,69.253,25.93,36.453,21.285,58.916,61.769,65.874,103.4,4.179,25,2.986,52.073-10.213,73.713-16.245,26.633-48.234,40.456-79.362,42.524-35.128,2.333-74.219-6.057-106.434-20.005-26.423-11.439-51.276-26.448-78.3-36.385-66.738-24.537-132.48,6.775-190.062,40.442-73.916,43.219-150.258,84.882-238.634,70.014C86.133,497.157,16.048,455.615,2.8,383.4c-5.607-30.549-3.008-62.947,9.88-91.206Q13.839,289.642,15.112,287.169Z" transform="translate(125.154 0)" fill="#fff" opacity="0.11" style="mix-blend-mode: overlay;isolation: isolate"/>
      <path id="Trazado_113498" data-name="Trazado 113498" d="M15.111,287.169c17.715-34.453,50.7-57.088,87.588-67.785,43.738-12.681,85.825-5.917,129.709.815,40.462,6.207,85.463,7.935,119.6-18.361C405,161.022,410.063,81.949,458.583,36.195A134.313,134.313,0,0,1,548.268.007c36.474-.4,82.632,15.474,101.287,49.128,18.113,32.68-.244,65.219,6.188,98.674,12.581,65.428,102.934,61.539,146.59,94.017,20.86,15.517,34.9,38.67,44.514,62.826,10.673,26.808,16.486,56.673,9.261,84.61-11.968,46.276-56.921,63.6-100.7,65.259-32.533,1.236-64.873-7.137-94.75-20.072-26.422-11.44-51.276-26.449-78.3-36.385-66.738-24.539-132.48,6.775-190.061,40.442-73.918,43.218-150.259,84.883-238.634,70.013C86.133,497.157,16.049,455.615,2.794,383.4c-5.606-30.548-3.007-62.946,9.88-91.2Q13.84,289.642,15.111,287.169Z" transform="translate(77.891 12.415)" fill="#fff" opacity="0.22" style="mix-blend-mode: overlay;isolation: isolate"/>
      <path id="Trazado_113499" data-name="Trazado 113499" d="M15.112,287.169c17.715-34.453,50.7-57.089,87.588-67.785,43.738-12.681,85.825-5.917,129.709.813,40.462,6.207,85.463,7.935,119.6-18.36C405,161.023,410.064,81.949,458.584,36.195A134.306,134.306,0,0,1,548.268.007c36.475-.4,82.633,15.473,101.287,49.128,18.115,32.679-.243,65.219,6.189,98.672,12.581,65.429,102.934,61.541,146.591,94.017,20.859,15.518,34.9,38.672,44.514,62.826,10.673,26.809,16.486,56.674,9.26,84.61-11.967,46.276-56.921,63.6-100.7,65.261-32.532,1.236-64.873-7.137-94.749-20.072-26.423-11.44-51.276-26.449-78.3-36.386-66.738-24.537-132.48,6.775-190.061,40.442-73.917,43.219-150.259,84.882-238.635,70.014C86.133,497.156,16.049,455.615,2.8,383.4c-5.607-30.549-3.007-62.946,9.88-91.206Q13.841,289.641,15.112,287.169Z" transform="translate(564.713 766.841)" fill="#fff" opacity="0.17" style="mix-blend-mode: overlay;isolation: isolate"/>
      <path id="Trazado_113500" data-name="Trazado 113500" d="M632.125,127.541c-3.382,29.741-20.932,54.914-44.53,72.432-27.977,20.768-60.041,26.955-93.386,33.637-30.745,6.161-63.537,16.779-80.927,44.921-26.994,43.68-9.185,102.547-31.628,148.641a101.5,101.5,0,0,1-54.6,50c-26.09,9.918-63.548,10.548-86.073-9.015-21.874-19-17.512-47.516-31.2-70.159-26.779-44.284-90.623-17.612-130.787-29.721-19.192-5.785-35.553-18.927-49.011-33.962C15.04,317.622,2.765,297.427.379,275.194c-3.952-36.827,23.638-61.292,54.633-74.055,23.031-9.484,48.532-11.927,73.5-10.4,22.081,1.35,44,5.713,66.108,5.811,54.59.241,93.319-39.89,125.547-79.58C361.536,66.018,405.07,15.559,472.58,3.055,524.167-6.5,585.771,5.23,614.875,54.275c12.311,20.747,19.231,45.005,17.637,68.967Q632.368,125.406,632.125,127.541Z" transform="translate(0 507.532)" fill="#912bd7" opacity="0.15" style="mix-blend-mode: color-burn;isolation: isolate"/>
      <circle id="Elipse_4692" data-name="Elipse 4692" cx="24.819" cy="24.819" r="24.819" transform="translate(583.612 746.202)" fill="#fff" opacity="0.17" style="mix-blend-mode: overlay;isolation: isolate"/>
      <ellipse id="Elipse_4693" data-name="Elipse 4693" cx="12.41" cy="12.41" rx="12.41" ry="12.41" transform="translate(568.854 828.418) rotate(99.217)" fill="#fff" opacity="0.17" style="mix-blend-mode: overlay;isolation: isolate"/>
      <ellipse id="Elipse_4694" data-name="Elipse 4694" cx="12.41" cy="12.41" rx="12.41" ry="12.41" transform="translate(579.813 484.305) rotate(100.476)" fill="#fff" opacity="0.17" style="mix-blend-mode: overlay;isolation: isolate"/>
      <circle id="Elipse_4695" data-name="Elipse 4695" cx="24.819" cy="24.819" r="24.819" transform="translate(582.531 416.117)" fill="#fff" opacity="0.17" style="mix-blend-mode: overlay;isolation: isolate"/>
      <circle id="Elipse_4696" data-name="Elipse 4696" cx="62.631" cy="62.631" r="62.631" transform="translate(1197.28 574.039) rotate(97.033)" fill="#fff" opacity="0.104" style="mix-blend-mode: overlay;isolation: isolate"/>
      <ellipse id="Elipse_4697" data-name="Elipse 4697" cx="62.631" cy="62.631" rx="62.631" ry="62.631" transform="translate(292.839 772.152) rotate(97.065)" fill="#fff" opacity="0.17" style="mix-blend-mode: overlay;isolation: isolate"/>
      <rect id="Rectángulo_33709" data-name="Rectángulo 33709" width="942.874" height="628.582" transform="translate(222.43 318.341)" fill="none"/>
    </g>
  </g>
</svg>
