<svg xmlns="http://www.w3.org/2000/svg" xmlns:xlink="http://www.w3.org/1999/xlink" width="777" height="346" viewBox="0 0 777 346">
  <defs>
    <clipPath id="clip-path">
      <path id="Trazado_127115" data-name="Trazado 127115" d="M222.007,144.365c4.567,15.93-2.13,34.94-11.488,37.624-13.121,3.762-31.388-6.558-35.956-22.487s.966-33.075,14.086-36.837S217.439,128.436,222.007,144.365Z" transform="translate(-172.983 -121.845)" fill="#f2b27e"/>
    </clipPath>
    <radialGradient id="radial-gradient" cx="0.5" cy="0.5" r="0.5" gradientTransform="matrix(0.961, -0.276, 0.276, 0.961, -0.411, 0.44)" gradientUnits="objectBoundingBox">
      <stop offset="0" stop-color="#e89575"/>
      <stop offset="1" stop-color="#f2b27e"/>
    </radialGradient>
    <radialGradient id="radial-gradient-2" cx="0.5" cy="0.5" r="0.5" gradientTransform="matrix(0.961, -0.276, 0.276, 0.961, -0.567, 0.442)" xlink:href="#radial-gradient"/>
    <linearGradient id="linear-gradient" x1="2.619" y1="3.036" x2="2.362" y2="2.43" gradientUnits="objectBoundingBox">
      <stop offset="0" stop-color="#db8965"/>
      <stop offset="1" stop-color="#f2b27e"/>
    </linearGradient>
    <clipPath id="clip-path-2">
      <path id="Trazado_127125" data-name="Trazado 127125" d="M208.036,164.84c-.422-.958.31-5.49-5.354-5.493-5.33,0-8.148,5.043-8.148,5.043S197.917,165.116,208.036,164.84Z" transform="translate(-194.534 -159.347)"/>
    </clipPath>
    <clipPath id="clip-path-3">
      <path id="Trazado_127162" data-name="Trazado 127162" d="M536.224,127.439c-4.567,15.93,2.13,34.94,11.488,37.623,13.121,3.763,31.388-6.558,35.956-22.487s-.966-33.074-14.086-36.837S540.792,111.51,536.224,127.439Z" transform="translate(-534.754 -104.919)" fill="#f2b27e"/>
    </clipPath>
    <radialGradient id="radial-gradient-3" cx="0.5" cy="0.5" r="0.5" gradientTransform="matrix(-0.961, -0.276, -0.276, 0.961, -9.029, -1.269)" xlink:href="#radial-gradient"/>
    <radialGradient id="radial-gradient-4" cx="0.5" cy="0.5" r="0.5" gradientTransform="matrix(-0.961, -0.276, -0.276, 0.961, -1.095, -0.154)" xlink:href="#radial-gradient"/>
    <linearGradient id="linear-gradient-2" x1="-7.486" y1="11.854" x2="-7.743" y2="11.248" xlink:href="#linear-gradient"/>
  </defs>
  <g id="Grupo_135036" data-name="Grupo 135036" transform="translate(5646 6284.729)">
    <path id="Trazado_127302" data-name="Trazado 127302" d="M347.5,0C539.419,0,695,68.948,695,154S539.419,308,347.5,308,0,239.052,0,154,155.581,0,347.5,0Z" transform="translate(-5605 -6265.729)" fill="#008bfd" opacity="0.175"/>
    <ellipse id="Elipse_4957" data-name="Elipse 4957" cx="287.5" cy="128" rx="287.5" ry="128" transform="translate(-5545 -6239.729)" fill="#008bfd" opacity="0.175"/>
    <g id="Elipse_4955" data-name="Elipse 4955" transform="translate(-5646 -6284.729)" fill="none" stroke="#12263f" stroke-width="1" stroke-dasharray="11">
      <ellipse cx="388.5" cy="173" rx="388.5" ry="173" stroke="none"/>
      <ellipse cx="388.5" cy="173" rx="388" ry="172.5" fill="none"/>
    </g>
    <g id="Grupo_134212" data-name="Grupo 134212" transform="translate(-6252.642 -11363.009)">
      <g id="Grupo_134211" data-name="Grupo 134211" transform="translate(661 5111)">
        <path id="Trazado_127060" data-name="Trazado 127060" d="M658.5,118.292c-24.866-8.57-52.321,4.3-72,21.746C566,158.21,550.721,181.867,531.773,201.562c-25.059,26.048-61.034,30.719-88.652,16.719C434.674,214,424.99,205.4,425.352,195c.31-8.864,9.037-17.156,17.678-15.16,4.894,1.131,8.728,5.055,11.168,9.445,10.87,19.548-4.384,47.441-24.735,53.1-10.686,2.971-22.324,1.275-32.456-3.234s-18.889-11.681-26.577-19.675c-24.78-25.77-30.819-64.921-57.325-89.3-14.559-13.39-34.328-20.131-54.038-21.784-13.783-1.156-27.983.07-40.727,5.446s-23.921,15.2-29.205,27.984" transform="translate(-77.892 -91.265)" fill="none" stroke="#000" stroke-linecap="round" stroke-linejoin="round" stroke-width="1" stroke-dasharray="4 4"/>
        <g id="Grupo_134153" data-name="Grupo 134153" transform="translate(187.848 10.113)">
          <path id="Trazado_127061" data-name="Trazado 127061" d="M473.518,102.739H321.973A34.77,34.77,0,0,0,287.2,137.51v15.146c0,.243.014.482.019.724-12.761,13.291-37.237,15.09-37.237,15.09,16.432,6.562,32.287,5.278,42.768,3.02a34.733,34.733,0,0,0,29.222,15.936H473.518a34.77,34.77,0,0,0,34.77-34.77V137.51A34.77,34.77,0,0,0,473.518,102.739Z" transform="translate(-249.983 -102.739)" fill="#95c0d9"/>
          <g id="Grupo_134146" data-name="Grupo 134146" transform="translate(71.852 26)">
            <circle id="Elipse_4949" data-name="Elipse 4949" cx="16.344" cy="16.344" r="16.344" fill="#008bfd"/>
            <g id="Grupo_134145" data-name="Grupo 134145" transform="translate(6.976 10.675)">
              <g id="Grupo_134144" data-name="Grupo 134144">
                <path id="Trazado_127062" data-name="Trazado 127062" d="M317.114,134.13a2.259,2.259,0,1,1-2.259-2.259A2.258,2.258,0,0,1,317.114,134.13Z" transform="translate(-312.597 -131.871)"/>
                <circle id="Elipse_4950" data-name="Elipse 4950" cx="2.259" cy="2.259" r="2.259" transform="translate(14.218)"/>
              </g>
              <path id="Trazado_127063" data-name="Trazado 127063" d="M313.017,137.579a8.839,8.839,0,1,0,17.678,0Z" transform="translate(-312.488 -130.393)"/>
            </g>
          </g>
          <g id="Grupo_134149" data-name="Grupo 134149" transform="translate(131.418 26)">
            <circle id="Elipse_4951" data-name="Elipse 4951" cx="16.344" cy="16.344" r="16.344" fill="#008bfd"/>
            <g id="Grupo_134148" data-name="Grupo 134148" transform="translate(6.976 10.675)">
              <g id="Grupo_134147" data-name="Grupo 134147">
                <path id="Trazado_127064" data-name="Trazado 127064" d="M364.428,134.13a2.259,2.259,0,1,1-2.259-2.259A2.258,2.258,0,0,1,364.428,134.13Z" transform="translate(-359.911 -131.871)"/>
                <circle id="Elipse_4952" data-name="Elipse 4952" cx="2.259" cy="2.259" r="2.259" transform="translate(14.218)"/>
              </g>
              <line id="Línea_110" data-name="Línea 110" x1="17.678" transform="translate(0.528 10.963)" fill="none" stroke="#000" stroke-linecap="round" stroke-linejoin="round" stroke-width="0.5"/>
            </g>
          </g>
          <g id="Grupo_134152" data-name="Grupo 134152" transform="translate(190.984 26)">
            <path id="Trazado_127193" data-name="Trazado 127193" d="M16.344,0A16.344,16.344,0,1,1,0,16.344,16.344,16.344,0,0,1,16.344,0Z" fill="#008bfd"/>
            <g id="Grupo_134151" data-name="Grupo 134151" transform="translate(6.976 10.675)">
              <g id="Grupo_134150" data-name="Grupo 134150">
                <path id="Trazado_127065" data-name="Trazado 127065" d="M411.742,134.13a2.259,2.259,0,1,1-2.259-2.259A2.258,2.258,0,0,1,411.742,134.13Z" transform="translate(-407.225 -131.871)"/>
                <circle id="Elipse_4954" data-name="Elipse 4954" cx="2.259" cy="2.259" r="2.259" transform="translate(14.218)"/>
              </g>
              <path id="Trazado_127066" data-name="Trazado 127066" d="M422.828,144.35a6.77,6.77,0,1,0-13.54,0" transform="translate(-406.691 -130.393)" fill="none" stroke="#000" stroke-linecap="round" stroke-linejoin="round" stroke-width="0.5"/>
            </g>
          </g>
        </g>
        <g id="Grupo_134183" data-name="Grupo 134183" transform="translate(0 26.033)">
          <g id="Grupo_134155" data-name="Grupo 134155" transform="translate(0 75.231)">
            <path id="Trazado_127067" data-name="Trazado 127067" d="M116.663,193.466c-9.386,12.549-13.55,28.3-15.164,43.891-2.513,24.266,1.193,50.221,15.93,69.663,10.238,13.506,25.237,23.014,41.4,28.1s33.462,5.945,50.314,4.15c19.48-2.075,39.321-8.07,53.56-21.524s21.406-35.6,13.3-53.431c-8.488-18.67-29.641-27.163-46.741-38.488a126.12,126.12,0,0,1-26.6-23.652c-10.059-11.893-21.166-22.407-36.953-25.811C147.169,172.371,128.114,178.156,116.663,193.466Z" transform="translate(-100.773 -175.141)" fill="#133d60"/>
            <g id="Grupo_134154" data-name="Grupo 134154" transform="translate(32.1 13.771)">
              <path id="Trazado_127068" data-name="Trazado 127068" d="M183.607,263.731a135.018,135.018,0,0,0-54.43-30.831" transform="translate(-125.518 -173.956)" fill="none" stroke="#000" stroke-linecap="round" stroke-linejoin="round" stroke-width="0.5"/>
              <path id="Trazado_127069" data-name="Trazado 127069" d="M165.85,247.582a116.278,116.278,0,0,0-39.579-44.576" transform="translate(-126.271 -181.697)" fill="none" stroke="#000" stroke-linecap="round" stroke-linejoin="round" stroke-width="0.5"/>
              <path id="Trazado_127070" data-name="Trazado 127070" d="M157.957,216.561A108.681,108.681,0,0,0,145.9,186.08" transform="translate(-121.187 -186.08)" fill="none" stroke="#000" stroke-linecap="round" stroke-linejoin="round" stroke-width="0.5"/>
            </g>
          </g>
          <g id="Grupo_134182" data-name="Grupo 134182" transform="translate(63.032)">
            <path id="Trazado_127071" data-name="Trazado 127071" d="M232.268,149.2c-.113-1.311-.263-2.61-.46-3.884-2.522-16.423-16.287-30.246-33.419-29.924a31.358,31.358,0,0,0-16.212,4.964c-6-.687-12.251,1.113-15.572,6.159-2.891,4.394-3.54,9.9-3.405,15.153s.972,10.5.719,15.751c-.539,11.235-6.013,22.472-3.086,33.332,2.172,8.059,8.816,14.379,16.422,17.814s16.115,4.321,24.46,4.43a23.241,23.241,0,0,0,8.968-1.16c3.936-1.574,6.807-5.008,9.159-8.534a67.014,67.014,0,0,0,3.985-6.825,80.825,80.825,0,0,0,7.7-25.1,103.039,103.039,0,0,0,1.017-13.252C232.588,155.2,232.525,152.171,232.268,149.2Z" transform="translate(-148.474 -115.385)" fill="#5e4028"/>
            <g id="Grupo_134158" data-name="Grupo 134158" transform="translate(98.568 83.602)">
              <g id="Grupo_134157" data-name="Grupo 134157">
                <g id="Grupo_134156" data-name="Grupo 134156">
                  <path id="Trazado_127072" data-name="Trazado 127072" d="M265.868,194.68a2.34,2.34,0,0,0,.428-2.062,7.9,7.9,0,0,0,1.585-1.819,2.69,2.69,0,0,0,.248-2.327,1.292,1.292,0,0,1-.159-.486,1.834,1.834,0,0,1,.094-.429,1.332,1.332,0,0,0-.67-1.337,3.437,3.437,0,0,0-1.526-.408c.084-1.586-2.839-1.128-3.627-.729a19.848,19.848,0,0,0-2.659,1.944c-2.96,2.189-6.785,2.734-10.435,3.212a2.4,2.4,0,0,1-.947,0c-.919-.248-.5-.966-.047-1.452,1.89-2.018,4.663-3.05,6.5-5.119a1.393,1.393,0,0,0,.467-1.143c-.156-.718-1.139-.793-1.87-.7a22.731,22.731,0,0,0-7.574,1.844c-3.995,2.029-7.462,5.466-10.566,8.636-1.929,1.969-5.976,5.7-5.976,5.7l6.73,9.251s2.629-1.925,4.526-2.114,3.793-.51,5.7-.636a23.216,23.216,0,0,0,7.447-1.589,24.843,24.843,0,0,0,5.06-2.7q2.825-2.04,5.648-4.08A6.891,6.891,0,0,0,265.868,194.68Z" transform="translate(-229.134 -181.791)" fill="#f2b27e"/>
                  <path id="Trazado_127073" data-name="Trazado 127073" d="M238.884,196.24a18.97,18.97,0,0,1,10.423-1.517" transform="translate(-226.609 -178.488)" fill="none" stroke="#333" stroke-linecap="round" stroke-linejoin="round" stroke-width="0.5"/>
                  <path id="Trazado_127074" data-name="Trazado 127074" d="M260.495,190.339a4.691,4.691,0,0,0-3.125,1.3,33.881,33.881,0,0,1-6.31,3.9" transform="translate(-223.456 -179.581)" fill="none" stroke="#333" stroke-linecap="round" stroke-linejoin="round" stroke-width="0.5"/>
                  <path id="Trazado_127075" data-name="Trazado 127075" d="M262.17,186.567c-1.812.121-3.329,1.343-4.769,2.449a59.5,59.5,0,0,1-6.947,4.593" transform="translate(-223.613 -180.554)" fill="none" stroke="#333" stroke-linecap="round" stroke-linejoin="round" stroke-width="0.5"/>
                  <path id="Trazado_127076" data-name="Trazado 127076" d="M260.083,185.043a10.381,10.381,0,0,0-3.547,2.139,33.212,33.212,0,0,1-6.642,3.978" transform="translate(-223.758 -180.948)" fill="none" stroke="#333" stroke-linecap="round" stroke-linejoin="round" stroke-width="0.5"/>
                </g>
              </g>
            </g>
            <g id="Grupo_134159" data-name="Grupo 134159" transform="translate(49.4 76.402)">
              <path id="Trazado_127077" data-name="Trazado 127077" d="M198.792,176.129c4.669,1.235,9.007,3.647,11.066,8.071s6.962,26.18,6.962,26.18l23.2-13.99s2.175.6,6.315,4.006a8.731,8.731,0,0,1,3.062,8.234s-21,25.773-35.321,29.228-24-43.915-24-43.915S194.123,174.9,198.792,176.129Z" transform="translate(-190.079 -176.071)" fill="#78a0b7"/>
              <path id="Trazado_127078" data-name="Trazado 127078" d="M214.7,201.368c-1.585-6.538-3.675-14.653-4.846-17.168-2.06-4.424-6.4-6.836-11.066-8.071s-8.713,17.814-8.713,17.814,1.549,7.573,4.321,16.439c.67,0,1.338-.021,2.007-.069A28.007,28.007,0,0,0,214.7,201.368Z" transform="translate(-190.079 -176.071)" fill="#95c0d9"/>
              <path id="Trazado_127079" data-name="Trazado 127079" d="M211.92,203.669a22.3,22.3,0,0,0-2.271,13.775" transform="translate(-185.081 -168.925)" fill="none" stroke="#000" stroke-linecap="round" stroke-linejoin="round" stroke-width="0.5"/>
            </g>
            <g id="Grupo_134161" data-name="Grupo 134161" transform="translate(23.055 119.622)">
              <g id="Grupo_134160" data-name="Grupo 134160" transform="translate(87.395 67.492)">
                <path id="Trazado_127080" data-name="Trazado 127080" d="M251.842,291.418a2.187,2.187,0,0,0,1.094-.157,2.379,2.379,0,0,0,.75-.76,18.381,18.381,0,0,1,6.932-5.8,11.689,11.689,0,0,1-3.256-5.094,27.751,27.751,0,0,1-.672-9.187c.047-1.065.194-2.826.412-5.071l-16.252-1.337c.189,3.242.374,6.727.533,10.56.113,2.729-.977,8.944-1.885,13.773A30.869,30.869,0,0,0,251.842,291.418Z" transform="translate(-238.331 -264.011)" fill="#f2b27e"/>
                <path id="Trazado_127081" data-name="Trazado 127081" d="M246.519,292.3c5.031,1.177,10.064,2.354,15.141,3.316a18.66,18.66,0,0,0,5.223.461c1.052-2.946,2.5-5.98,5.018-7.758a65.516,65.516,0,0,1-8.207-5.28c-.276-.242-.55-.48-.821-.716-.718-.626-1.41-1.24-2.058-1.881a18.381,18.381,0,0,0-6.932,5.8,2.379,2.379,0,0,1-.75.76,2.187,2.187,0,0,1-1.094.157,30.869,30.869,0,0,1-12.344-3.074q-.093.495-.184.969c-.319,1.678-.6,3.12-.777,4.11a14.3,14.3,0,0,0,2.814,1.648A28.489,28.489,0,0,0,246.519,292.3Z" transform="translate(-238.529 -259.756)" fill="#133d60"/>
                <path id="Trazado_127082" data-name="Trazado 127082" d="M279.34,291.737c-.932-1.206-4.082-3.088-7.4-5.036-2.514,1.778-3.966,4.812-5.018,7.758A18.66,18.66,0,0,1,261.7,294c-5.077-.962-10.111-2.139-15.141-3.316a28.489,28.489,0,0,1-4.97-1.486,14.3,14.3,0,0,1-2.814-1.648c-.122.67-.2,1.139-.2,1.314-.159,4.575,8.765,4.593,11.747,5.186,4.926.979,9.6,2.916,14.5,3.977,4.167.9,9.936,1.391,13.952-.392C281.306,296.512,280.823,293.657,279.34,291.737Z" transform="translate(-238.571 -258.135)" fill="#0d2941"/>
                <path id="Trazado_127083" data-name="Trazado 127083" d="M243.593,280.62a6.1,6.1,0,0,0,2.974,4.187" transform="translate(-237.271 -259.71)" fill="none" stroke="#000" stroke-linecap="round" stroke-linejoin="round" stroke-width="0.5"/>
              </g>
              <path id="Trazado_127084" data-name="Trazado 127084" d="M169.445,253.938s5.58,18.194,33.054,16.968,50.573-23.283,50.573-23.283l4.257,46.863s2.726,2.937,9.736,3.4,10.117-2.69,10.117-2.69,10.871-80.027-5.683-84.3-57.65,20.763-57.65,20.763l-44.7,3.473Z" transform="translate(-169.153 -210.402)" fill="#516d7e"/>
            </g>
            <g id="Grupo_134165" data-name="Grupo 134165" transform="translate(7.531 144.5)">
              <g id="Grupo_134162" data-name="Grupo 134162" transform="translate(107.074 76.589)">
                <path id="Trazado_127085" data-name="Trazado 127085" d="M255.124,318.308a2.186,2.186,0,0,0,1.093-.166,2.378,2.378,0,0,0,.743-.767,18.385,18.385,0,0,1,6.881-5.86,11.7,11.7,0,0,1-3.3-5.065,27.8,27.8,0,0,1-.752-9.182c.038-1.066.17-2.828.369-5.075L243.9,291c.217,3.239.432,6.723.623,10.555.136,2.728-.9,8.951-1.766,13.789A30.858,30.858,0,0,0,255.124,318.308Z" transform="translate(-241.644 -290.997)" fill="#f2b27e"/>
                <path id="Trazado_127086" data-name="Trazado 127086" d="M249.836,319.274c5.042,1.134,10.085,2.267,15.17,3.185a18.619,18.619,0,0,0,5.227.417c1.027-2.955,2.452-6,4.951-7.8a65.359,65.359,0,0,1-8.252-5.21l-.827-.709c-.724-.619-1.421-1.227-2.075-1.863a18.385,18.385,0,0,0-6.881,5.86,2.378,2.378,0,0,1-.743.767,2.186,2.186,0,0,1-1.093.166,30.858,30.858,0,0,1-12.37-2.966c-.059.33-.118.655-.175.969-.3,1.681-.572,3.125-.743,4.117a14.251,14.251,0,0,0,2.829,1.624A28.576,28.576,0,0,0,249.836,319.274Z" transform="translate(-241.832 -286.777)" fill="#133d60"/>
                <path id="Trazado_127087" data-name="Trazado 127087" d="M282.662,318.447c-.942-1.2-4.108-3.053-7.438-4.972-2.5,1.8-3.924,4.846-4.951,7.8a18.619,18.619,0,0,1-5.227-.417c-5.085-.918-10.128-2.051-15.17-3.185a28.581,28.581,0,0,1-4.982-1.443,14.253,14.253,0,0,1-2.829-1.624c-.115.672-.188,1.142-.191,1.317-.12,4.576,8.8,4.516,11.79,5.084,4.935.938,9.623,2.834,14.538,3.852,4.176.865,9.948,1.306,13.948-.511C284.67,323.2,284.162,320.354,282.662,318.447Z" transform="translate(-241.872 -285.176)" fill="#0d2941"/>
                <path id="Trazado_127088" data-name="Trazado 127088" d="M246.825,307.579a6.107,6.107,0,0,0,3.01,4.162" transform="translate(-240.589 -286.703)" fill="none" stroke="#000" stroke-linecap="round" stroke-linejoin="round" stroke-width="0.5"/>
              </g>
              <g id="Grupo_134164" data-name="Grupo 134164">
                <path id="Trazado_127089" data-name="Trazado 127089" d="M157.114,257.079s9.456,16.905,35.088,19.3,60.591-15.914,60.591-15.914-2.293,5.694.655,22.268,10.76,37.96,10.76,37.96,2.014,3.45,9.316,3.477,10.043-3.891,10.043-3.891,2.559-71.709-3.647-81.787-78.4-3.7-78.4-3.7l-44.7,3.475Z" transform="translate(-156.822 -229.478)" fill="#516d7e"/>
                <g id="Grupo_134163" data-name="Grupo 134163" transform="translate(10.147)">
                  <path id="Trazado_127090" data-name="Trazado 127090" d="M164.882,252.4s10.225,14.379,29.247,14.876,58.029-16.764,58.029-16.764-1.423,35.13,14.4,68.424" transform="translate(-164.882 -224.893)" fill="none" stroke="#000" stroke-linecap="round" stroke-linejoin="round" stroke-width="0.5"/>
                  <path id="Trazado_127091" data-name="Trazado 127091" d="M232.794,253.618l5-6.083" transform="translate(-147.296 -225.663)" fill="none" stroke="#000" stroke-linecap="round" stroke-linejoin="round" stroke-width="0.5"/>
                  <path id="Trazado_127092" data-name="Trazado 127092" d="M175.383,264.076a26.432,26.432,0,0,0,.951-17.458" transform="translate(-162.163 -225.901)" fill="none" stroke="#000" stroke-linecap="round" stroke-linejoin="round" stroke-width="0.5"/>
                  <path id="Trazado_127093" data-name="Trazado 127093" d="M208.021,230.162l-3.366,3.764c19.4-1.723,58.652-1.614,62.878,5.25,1.447,2.349,2.673,9.116,3.453,17.323" transform="translate(-154.583 -230.162)" fill="none" stroke="#000" stroke-linecap="round" stroke-linejoin="round" stroke-width="0.5"/>
                  <path id="Trazado_127094" data-name="Trazado 127094" d="M207.189,233.081s-2.066-.6-11.315-.711" transform="translate(-156.856 -229.59)" fill="none" stroke="#000" stroke-linecap="round" stroke-linejoin="round" stroke-width="0.5"/>
                  <path id="Trazado_127095" data-name="Trazado 127095" d="M208.743,231.377s-2.066-.6-11.315-.711" transform="translate(-156.454 -230.031)" fill="none" stroke="#000" stroke-linecap="round" stroke-linejoin="round" stroke-width="0.5"/>
                </g>
              </g>
            </g>
            <g id="Grupo_134167" data-name="Grupo 134167" transform="translate(0 53.765)">
              <path id="Trazado_127096" data-name="Trazado 127096" d="M189.847,188.544s5.662-3.937,6.441-10.356A2.685,2.685,0,0,1,195,176.672c-.726-2.979,2.61-11.934,2.61-11.934l-14.949-6.647s-.008,10.394-3.755,13.777a6.582,6.582,0,0,1-2.508,1.225A29.729,29.729,0,0,0,189.847,188.544Z" transform="translate(-144.223 -158.091)" fill="#f2b27e"/>
              <path id="Trazado_127097" data-name="Trazado 127097" d="M196.468,164.738l-14.949-6.647a40.565,40.565,0,0,1-.72,7.009c2.468,5.245,7.292,13.285,13.16,11.83a1.794,1.794,0,0,1-.1-.258C193.132,173.693,196.468,164.738,196.468,164.738Z" transform="translate(-143.083 -158.091)" fill="#f2b27e" opacity="0.7" style="mix-blend-mode: multiply;isolation: isolate"/>
              <path id="Trazado_127098" data-name="Trazado 127098" d="M218.377,241.916l-7.111-6.643q-2.379-2.225-4.76-4.447c-.67-.627-1.326-1.273-2.012-1.881-.741-.657-2.046-.956-1.046-2.1a2.625,2.625,0,0,0,.517-.715c.162-.409-.194-.749-.118-1.06.057-.234.258-.322.376-.52a11.043,11.043,0,0,1,.894-1.071,31.313,31.313,0,0,0,1.93-2.732,38.428,38.428,0,0,0,3.88-8.266c3.375-10.03,4.615-27.023,2.44-31.31-1.741-3.433-7.758-4.321-10.462-6.066-.779,6.419-6.441,10.356-6.441,10.356a29.729,29.729,0,0,1-13.451-15.451c-5.947,1.776-18.3,1.327-22.73,7.608-5.228,7.41-10.492,50.449-9.262,68.665s7.642,27.061,7.642,27.061,13.245,4.158,30.569-4.639,29.359-26.585,29.359-26.585Z" transform="translate(-150.84 -155.005)" fill="#78a0b7"/>
              <path id="Trazado_127099" data-name="Trazado 127099" d="M178.066,212.648c2.525-.482,5.008-1.2,7.559-1.512,6.8-.836,13.677,1.239,20.515.748a26.249,26.249,0,0,0,4.8-.813c3.037-10.14,4.074-25.81,2-29.9-1.742-3.433-7.759-4.321-10.463-6.066-.779,6.419-6.441,10.356-6.441,10.356a29.729,29.729,0,0,1-13.451-15.451c-5.947,1.776-18.3,1.327-22.73,7.608-2.766,3.92-5.542,17.814-7.361,32.729C160.717,213.163,169.559,214.274,178.066,212.648Z" transform="translate(-150.412 -155.005)" fill="#95c0d9"/>
              <g id="Grupo_134166" data-name="Grupo 134166" transform="translate(20.849 39.092)">
                <path id="Trazado_127100" data-name="Trazado 127100" d="M188.53,210.623a28.071,28.071,0,0,1-21.129,4.549" transform="translate(-167.401 -183.579)" fill="none" stroke="#000" stroke-linecap="round" stroke-linejoin="round" stroke-width="0.5"/>
                <path id="Trazado_127101" data-name="Trazado 127101" d="M196.393,215.93a95.253,95.253,0,0,1-25.674,6.442" transform="translate(-166.542 -182.205)" fill="none" stroke="#000" stroke-linecap="round" stroke-linejoin="round" stroke-width="0.5"/>
                <path id="Trazado_127102" data-name="Trazado 127102" d="M207.844,237.161l-.214-.2-7.111-6.643q-2.379-2.225-4.76-4.447c-.67-.627-1.326-1.273-2.012-1.881-.742-.657-2.046-.956-1.046-2.1a2.625,2.625,0,0,0,.517-.715c.162-.409-.194-.749-.118-1.06.057-.234.258-.322.376-.52a11.039,11.039,0,0,1,.894-1.071,31.32,31.32,0,0,0,1.93-2.732,38.428,38.428,0,0,0,3.88-8.266,79.312,79.312,0,0,0,3.344-18.381" transform="translate(-160.943 -189.142)" fill="none" stroke="#000" stroke-linecap="round" stroke-linejoin="round" stroke-width="0.5"/>
              </g>
            </g>
            <g id="Grupo_134173" data-name="Grupo 134173" transform="translate(2.336 71.661)">
              <g id="Grupo_134170" data-name="Grupo 134170" transform="translate(54.001 75.932)">
                <g id="Grupo_134169" data-name="Grupo 134169">
                  <path id="Trazado_127103" data-name="Trazado 127103" d="M217.742,254.7l7.041.671a7.013,7.013,0,0,0,2.213-.024,2.371,2.371,0,0,0,1.707-1.287,8.036,8.036,0,0,0,2.43-.326,2.73,2.73,0,0,0,1.747-1.61,1.288,1.288,0,0,1,.2-.476,2,2,0,0,1,.36-.266,1.351,1.351,0,0,0,.385-1.468,3.5,3.5,0,0,0-.893-1.333,1.079,1.079,0,0,0,.047-1.254,2.518,2.518,0,0,0-1.423-1.089,7.55,7.55,0,0,0-1.8-.3q-1.775-.147-3.552-.3a17.412,17.412,0,0,1-2.752-.39,13.312,13.312,0,0,1-4.695-2.478c-.661-.5-1.282-1.065-1.978-1.507-.419-.267-1-.621-.944-1.22.069-.69.9-.995,1.591-1.063,2.795-.274,5.6.8,8.388.447a1.414,1.414,0,0,0,1.122-.559c.361-.652-.337-1.37-.954-1.789a23.086,23.086,0,0,0-7.015-3.666c-4.409-1.128-9.357-.83-13.849-.49-2.479.186-4.865.53-7.275.535l-2.257,11.153c3.873,1.292,7.048,3.812,10.553,5.84a32.753,32.753,0,0,0,5.928,2.917A25.151,25.151,0,0,0,217.742,254.7Z" transform="translate(-195.589 -232.619)" fill="#f2b27e"/>
                  <g id="Grupo_134168" data-name="Grupo 134168" transform="translate(23.344 15.851)">
                    <path id="Trazado_127104" data-name="Trazado 127104" d="M227.261,245.338a40.142,40.142,0,0,1-10.884-.128" transform="translate(-213.549 -245.21)" fill="none" stroke="#333" stroke-linecap="round" stroke-linejoin="round" stroke-width="0.5"/>
                    <path id="Trazado_127105" data-name="Trazado 127105" d="M227.526,247.918a48.972,48.972,0,0,1-12.037-.783" transform="translate(-213.779 -244.712)" fill="none" stroke="#333" stroke-linecap="round" stroke-linejoin="round" stroke-width="0.5"/>
                    <path id="Trazado_127106" data-name="Trazado 127106" d="M223.459,249.627a55.683,55.683,0,0,1-9.328-.8" transform="translate(-214.131 -244.273)" fill="none" stroke="#333" stroke-linecap="round" stroke-linejoin="round" stroke-width="0.5"/>
                  </g>
                </g>
              </g>
              <g id="Grupo_134172" data-name="Grupo 134172">
                <path id="Trazado_127107" data-name="Trazado 127107" d="M175.014,173.118c-8.837-2.661-17.153,1.064-19.688,13.4s-4.311,38.947,1.166,49.576S205.8,260.959,205.8,260.959a12.774,12.774,0,0,0,4.452-6.646c.909-4.041-1.46-5.385-1.46-5.385l-1.162-.884-7.779-5.917-10.627-8.084c-.565-.431-8.6-6.428-8.528-6.531a4.857,4.857,0,0,0,.451-.789.239.239,0,0,0,.03-.123.255.255,0,0,0-.06-.117c-.3-.387-.952-.948-.932-1.424a2.117,2.117,0,0,1,.213-.54c.172-.438-.211-16.343.094-20.51l.876-11.913q.195-2.655.39-5.31S183.851,175.781,175.014,173.118Z" transform="translate(-152.642 -172.305)" fill="#78a0b7"/>
                <path id="Trazado_127108" data-name="Trazado 127108" d="M180.487,204.009l.876-11.913q.195-2.655.39-5.31s2.09-11-6.747-13.667-17.153,1.064-19.688,13.4a141.909,141.909,0,0,0-2.388,23.42,49.937,49.937,0,0,0,25.022,2.114c.808-.154,1.611-.332,2.413-.514C180.357,208.369,180.38,205.468,180.487,204.009Z" transform="translate(-152.635 -172.305)" fill="#95c0d9"/>
                <g id="Grupo_134171" data-name="Grupo 134171" transform="translate(0 19.79)">
                  <path id="Trazado_127109" data-name="Trazado 127109" d="M175.03,215.622a15.389,15.389,0,0,0-5.834,1.658" transform="translate(-148.423 -180.879)" fill="none" stroke="#000" stroke-linecap="round" stroke-linejoin="round" stroke-width="0.5"/>
                  <path id="Trazado_127110" data-name="Trazado 127110" d="M154.015,189.151c-1.846,13.948-2.362,33.087,2.53,42.582,1.518,2.946,6.04,6.1,11.785,9.126l4.574,2.612c14.463,7.122,32.952,13.126,32.952,13.126a10.075,10.075,0,0,0,.843-.721" transform="translate(-152.696 -187.733)" fill="none" stroke="#000" stroke-linecap="round" stroke-linejoin="round" stroke-width="0.5"/>
                  <path id="Trazado_127111" data-name="Trazado 127111" d="M203.182,244.858l-1.162-.884-7.779-5.917-10.627-8.084c-.565-.431-8.6-6.428-8.528-6.531a4.857,4.857,0,0,0,.451-.789.239.239,0,0,0,.03-.123.255.255,0,0,0-.06-.117c-.3-.387-.952-.948-.932-1.424a2.114,2.114,0,0,1,.213-.54c.172-.438-.212-16.343.094-20.51l.876-11.913" transform="translate(-147.03 -188.025)" fill="none" stroke="#000" stroke-linecap="round" stroke-linejoin="round" stroke-width="0.5"/>
                </g>
              </g>
            </g>
            <g id="Grupo_134181" data-name="Grupo 134181" transform="translate(20.536 4.424)">
              <g id="Grupo_134179" data-name="Grupo 134179" transform="translate(7.341 3.71)">
                <g id="Grupo_134175" data-name="Grupo 134175">
                  <path id="Trazado_127112" data-name="Trazado 127112" d="M222.007,144.365c4.567,15.93-2.13,34.94-11.488,37.624-13.121,3.762-31.388-6.558-35.956-22.487s.966-33.075,14.086-36.837S217.439,128.436,222.007,144.365Z" transform="translate(-172.983 -121.845)" fill="#f2b27e"/>
                  <g id="Grupo_134174" data-name="Grupo 134174" clip-path="url(#clip-path)">
                    <path id="Trazado_127113" data-name="Trazado 127113" d="M182.522,162.178a7.743,7.743,0,1,0,5.309-9.578A7.743,7.743,0,0,0,182.522,162.178Z" transform="translate(-170.592 -113.96)" fill="url(#radial-gradient)"/>
                    <path id="Trazado_127114" data-name="Trazado 127114" d="M207.357,161.792a7.743,7.743,0,1,0,5.309-9.577A7.742,7.742,0,0,0,207.357,161.792Z" transform="translate(-164.16 -114.059)" fill="url(#radial-gradient-2)"/>
                  </g>
                </g>
                <path id="Trazado_127116" data-name="Trazado 127116" d="M199.256,149.824a2.752,2.752,0,1,1-3.4-1.887A2.752,2.752,0,0,1,199.256,149.824Z" transform="translate(-167.578 -115.117)"/>
                <path id="Trazado_127117" data-name="Trazado 127117" d="M211.321,149.559a2.752,2.752,0,1,1-3.4-1.887A2.754,2.754,0,0,1,211.321,149.559Z" transform="translate(-164.454 -115.185)"/>
                <path id="Trazado_127118" data-name="Trazado 127118" d="M193.181,148.588a4.9,4.9,0,0,1,6.254.709" transform="translate(-167.753 -115.134)" fill="none" stroke="#000" stroke-linecap="round" stroke-linejoin="round" stroke-width="0.5"/>
                <path id="Trazado_127119" data-name="Trazado 127119" d="M205.686,148.407a4,4,0,0,1,5.542.4" transform="translate(-164.515 -115.211)" fill="none" stroke="#000" stroke-linecap="round" stroke-linejoin="round" stroke-width="0.5"/>
                <g id="Grupo_134176" data-name="Grupo 134176" transform="translate(35.451 34.081)">
                  <path id="Trazado_127120" data-name="Trazado 127120" d="M204.809,149.554a4.511,4.511,0,0,0,1.086,4.526c.68.67,1.593,1.142,2.028,1.99a2.768,2.768,0,0,1-.1,2.5,4.876,4.876,0,0,1-1.817,1.817,3.973,3.973,0,0,1-3.886-1.892c-1.557-2.34-1-6.033-.1-8.368S204.809,149.554,204.809,149.554Z" transform="translate(-201.143 -148.917)" fill="url(#linear-gradient)"/>
                  <path id="Trazado_127121" data-name="Trazado 127121" d="M204.1,149.423a4.511,4.511,0,0,0,1.086,4.526c.68.67,1.593,1.142,2.028,1.99a2.768,2.768,0,0,1-.1,2.5,4.876,4.876,0,0,1-1.817,1.817" transform="translate(-200.433 -148.786)" fill="none" stroke="#000" stroke-linecap="round" stroke-linejoin="round" stroke-width="0.5"/>
                </g>
                <g id="Grupo_134178" data-name="Grupo 134178" transform="translate(27.131 47.213)">
                  <path id="Trazado_127122" data-name="Trazado 127122" d="M208.036,164.84c-.422-.958.31-5.49-5.354-5.493-5.33,0-8.148,5.043-8.148,5.043S197.917,165.116,208.036,164.84Z" transform="translate(-194.534 -159.347)"/>
                  <g id="Grupo_134177" data-name="Grupo 134177" clip-path="url(#clip-path-2)">
                    <path id="Trazado_127123" data-name="Trazado 127123" d="M208.779,167.656c-.607,2.441-5.606,3.3-11.166,1.919s-9.577-4.482-8.97-6.923,5.606-3.3,11.167-1.919S209.386,165.215,208.779,167.656Z" transform="translate(-196.075 -159.159)" fill="#d8714c"/>
                    <path id="Trazado_127124" data-name="Trazado 127124" d="M194.125,161.761s9.67.951,12.844.767,4.818-4.031,4.818-4.031l-16.817-1.013Z" transform="translate(-194.64 -159.83)" fill="#fff"/>
                  </g>
                </g>
                <path id="Trazado_127126" data-name="Trazado 127126" d="M202.08,145.842a12.953,12.953,0,0,0-3.034-2.228,7.057,7.057,0,0,0-3.423-.816,8.5,8.5,0,0,0-3.458.886,25.505,25.505,0,0,0-3.28,1.938,10.08,10.08,0,0,1,2.833-2.745,8.636,8.636,0,0,1,1.829-.9,7.808,7.808,0,0,1,2.051-.363,6.642,6.642,0,0,1,3.922,1.21A7.512,7.512,0,0,1,202.08,145.842Z" transform="translate(-168.866 -116.726)" fill="#5e4028"/>
                <path id="Trazado_127127" data-name="Trazado 127127" d="M205.581,145.117a6.964,6.964,0,0,1,1.745-2.369,6.463,6.463,0,0,1,2.66-1.483,4.026,4.026,0,0,1,1.619-.128,3.367,3.367,0,0,1,1.528.629,3.837,3.837,0,0,1,1.492,2.606,5.985,5.985,0,0,0-2-1.8,3.211,3.211,0,0,0-2.352-.165,8.673,8.673,0,0,0-2.412,1.056A22.024,22.024,0,0,0,205.581,145.117Z" transform="translate(-164.542 -116.859)" fill="#5e4028"/>
              </g>
              <path id="Trazado_127128" data-name="Trazado 127128" d="M188.453,151.424c5.1-2.867,10.861-4.814,15.019-8.926a30.763,30.763,0,0,0,6.067-9.514c-1.486,6.583-3.314,13.72-8.683,17.809a24.889,24.889,0,0,1-8.648,3.794,19.985,19.985,0,0,0,21.023-15.6,21.025,21.025,0,0,0,11.98,12.491,37.07,37.07,0,0,0-6.553-20.263c-8.576-11.927-25.907-16.332-38.52-8.089-9.681,6.329-12.115,17.921-9.08,28.561.672,2.358,4.2,13.958,7.639,10.4,1.528-1.582,2.1-4.406,3.793-6.165A25.708,25.708,0,0,1,188.453,151.424Z" transform="translate(-166.459 -118.898)" fill="#5e4028"/>
              <g id="Grupo_134180" data-name="Grupo 134180" transform="translate(0 34.599)">
                <path id="Trazado_127129" data-name="Trazado 127129" d="M180.163,151.4c2.771,4.312,3.475,8.61.418,10.576s-8.721.855-11.493-3.456-2.539-9.4.519-11.366S177.391,147.09,180.163,151.4Z" transform="translate(-167.153 -146.38)" fill="#f2b27e"/>
                <path id="Trazado_127130" data-name="Trazado 127130" d="M167.533,148.976s6.061-.392,12.509,8.922" transform="translate(-167.054 -145.709)" fill="none" stroke="#000" stroke-linecap="round" stroke-linejoin="round" stroke-width="0.5"/>
              </g>
            </g>
            <path id="Trazado_127131" data-name="Trazado 127131" d="M192.589,180.807c-1.6-3.355-4.418-5.936-6.922-8.683s-4.841-5.971-5.09-9.68l-14.555,2.491c-.849,5.162,1.57,10.3,4.521,14.623s6.535,8.29,8.532,13.126a22.8,22.8,0,0,1,1.243,13.222,12.661,12.661,0,0,0,3.593-6.562,9.233,9.233,0,0,1-.652,5.864,10.964,10.964,0,0,0,8.611-5.529,19.687,19.687,0,0,0,2.425-10.25A20.11,20.11,0,0,0,192.589,180.807Z" transform="translate(-146.954 -103.198)" fill="#5e4028"/>
            <path id="Trazado_127132" data-name="Trazado 127132" d="M197.644,125.218c-3.562,1.622-6.829,3.852-10.444,5.348a28.93,28.93,0,0,1-23.508-.913,32.693,32.693,0,0,0-1.151,10.182,24.979,24.979,0,0,0,13.974.123c5.795-1.465,11.146-4.273,16.671-6.555s11.482-4.073,17.415-3.336c3.9.483,7.579,2.034,11.2,3.57a47.1,47.1,0,0,1,7.929,4,36.794,36.794,0,0,0-8.474-14.026A34.512,34.512,0,0,0,197.644,125.218Z" transform="translate(-147.815 -113.606)" fill="#5e4028" style="mix-blend-mode: screen;isolation: isolate"/>
          </g>
        </g>
        <g id="Grupo_134210" data-name="Grupo 134210" transform="translate(449.518 0)">
          <g id="Grupo_134184" data-name="Grupo 134184" transform="translate(62.935 89.387)">
            <line id="Línea_111" data-name="Línea 111" x2="12.048" y2="69.839" transform="translate(87.335 135.191)" fill="none" stroke="#000" stroke-linecap="round" stroke-linejoin="round" stroke-width="0.5"/>
            <line id="Línea_112" data-name="Línea 112" x2="25.356" y2="66.18" transform="translate(102.216 109.45)" fill="none" stroke="#000" stroke-linecap="round" stroke-linejoin="round" stroke-width="0.5"/>
            <line id="Línea_113" data-name="Línea 113" x1="19.776" y2="68.055" transform="translate(18.233 115.939)" fill="none" stroke="#000" stroke-linecap="round" stroke-linejoin="round" stroke-width="0.5"/>
            <line id="Línea_114" data-name="Línea 114" x1="15.199" y2="69.222" transform="translate(53.497 94.185)" fill="none" stroke="#000" stroke-linecap="round" stroke-linejoin="round" stroke-width="0.5"/>
            <path id="Trazado_127133" data-name="Trazado 127133" d="M632.727,176.628c9.456,9.252,14.972,21.857,18.338,34.65,5.241,19.919,5.514,42.052-4.26,60.181-6.791,12.595-18.071,22.47-30.9,28.812s-27.144,9.3-41.437,9.982c-16.519.794-33.849-1.637-47.471-11.016s-22.471-26.923-18.018-42.851c4.662-16.676,21.207-26.5,34.006-38.166a106.414,106.414,0,0,0,19.126-23.179c6.851-11.225,14.754-21.436,27.483-26.321C604.544,162.984,621.192,165.339,632.727,176.628Z" transform="translate(-507.819 -165.707)" fill="#133d60"/>
          </g>
          <g id="Grupo_134209" data-name="Grupo 134209">
            <g id="Grupo_134185" data-name="Grupo 134185" transform="translate(0 243.201)">
              <path id="Trazado_127134" data-name="Trazado 127134" d="M482.3,310.057a6.083,6.083,0,0,1,1.7,6.476,30.876,30.876,0,0,0,12.193-1.6c-.026-.324-.053-.65-.082-.995-.026-.324-.053-.657-.079-1-.4-4.963-.825-11.339-.418-14.076.573-3.845,1.134-7.336,1.673-10.582l-16.515-.4c-.021,2.286-.062,4.075-.13,5.153a28.126,28.126,0,0,1-1.666,9.183,11.859,11.859,0,0,1-3.827,4.78c-.247.2-.5.385-.759.577a10.2,10.2,0,0,1,1.4-.016A10.337,10.337,0,0,1,482.3,310.057Z" transform="translate(-453.542 -287.883)" fill="#f2b27e"/>
              <path id="Trazado_127135" data-name="Trazado 127135" d="M500.478,310.889a30.876,30.876,0,0,1-12.193,1.6,6.083,6.083,0,0,0-1.7-6.476,10.337,10.337,0,0,0-6.51-2.5,10.2,10.2,0,0,0-1.4.016c-.494.368-1,.731-1.518,1.1q-.448.312-.9.633a66.426,66.426,0,0,1-8.837,4.435c-3.547,1.605-6.922,3.162-7.989,4.277-1.7,1.775-2.5,4.6-.068,6,3.852,2.227,9.717,2.354,14.011,1.895,5.056-.541,9.971-1.989,15.039-2.445,3.068-.277,12.058.666,12.391-3.959.013-.177-.014-.658-.064-1.347C500.679,313.305,500.585,312.185,500.478,310.889Z" transform="translate(-457.83 -283.839)" fill="#1c5a8e"/>
              <path id="Trazado_127136" data-name="Trazado 127136" d="M458.025,313.8a2.828,2.828,0,0,0,1.512,2.181c3.852,2.227,9.717,2.354,14.012,1.895,5.056-.54,9.97-1.988,15.038-2.445,2.835-.256,10.726.53,12.172-3" transform="translate(-457.779 -281.526)" fill="none" stroke="#000" stroke-linecap="round" stroke-linejoin="round" stroke-width="0.5"/>
              <path id="Trazado_127137" data-name="Trazado 127137" d="M489.457,303.844a6.187,6.187,0,0,1-3.446,3.9" transform="translate(-450.532 -283.75)" fill="none" stroke="#000" stroke-linecap="round" stroke-linejoin="round" stroke-width="0.5"/>
              <path id="Trazado_127138" data-name="Trazado 127138" d="M463.571,309.459a1.909,1.909,0,0,0,.59,2.679,5.24,5.24,0,0,0,2.99.637,131.97,131.97,0,0,0,19.586-1.885" transform="translate(-456.432 -282.296)" fill="none" stroke="#000" stroke-linecap="round" stroke-linejoin="round" stroke-width="0.5"/>
              <path id="Trazado_127139" data-name="Trazado 127139" d="M480.208,312.246a12.287,12.287,0,0,0-9.111-6.515" transform="translate(-454.394 -283.261)" fill="none" stroke="#000" stroke-linecap="round" stroke-linejoin="round" stroke-width="0.5"/>
            </g>
            <g id="Grupo_134186" data-name="Grupo 134186" transform="translate(72.81 83.521)">
              <path id="Trazado_127140" data-name="Trazado 127140" d="M554.74,161.048s-9.3,3.123-12.576,9.233-3.822,40.606-3.822,40.606l-22.16,14.581s-2.183,6.1,2.413,10.239c3.579,3.356,10.106,1.441,10.106,1.441s25.935-8.57,30.7-16.93,3.7-45.593,3.7-45.593Z" transform="translate(-515.664 -161.048)" fill="#d2f3e8"/>
              <path id="Trazado_127141" data-name="Trazado 127141" d="M534.792,200.515a2.6,2.6,0,0,0,1.565,1.117,6.843,6.843,0,0,0,1.956.179,38.313,38.313,0,0,0,4.949-.39" transform="translate(-510.71 -150.828)" fill="#d2f3e8" stroke="#000" stroke-linecap="round" stroke-linejoin="round" stroke-width="0.5"/>
            </g>
            <path id="Trazado_127142" data-name="Trazado 127142" d="M591.867,235.868s-6.272,20.088-31.9,22.482-39.9,3.188-39.9,3.188-.881,8.325-5.678,24.377c-4.818,16.13-18.035,37.48-18.035,37.48s-4.248,2.984-11.411,1.571-9.078-5.8-9.078-5.8,13.257-65.549,19.463-75.627,42.514-19.46,56.118-22.009,40.716-4.476,40.716-4.476Z" transform="translate(-453.16 -63.022)" fill="#cc9864"/>
            <g id="Grupo_134189" data-name="Grupo 134189" transform="translate(29.096 158.522)">
              <g id="Grupo_134187" data-name="Grupo 134187" transform="translate(0 95.132)">
                <path id="Trazado_127143" data-name="Trazado 127143" d="M505.409,318.36a6.081,6.081,0,0,1,1.7,6.475,30.856,30.856,0,0,0,12.193-1.6c-.026-.324-.054-.65-.082-.993q-.04-.487-.081-1c-.4-4.963-.825-11.339-.417-14.078.573-3.845,1.133-7.335,1.673-10.58l-16.515-.4c-.021,2.285-.063,4.074-.13,5.153a28.153,28.153,0,0,1-1.666,9.182,11.886,11.886,0,0,1-3.828,4.782c-.247.2-.5.385-.759.575a10.21,10.21,0,0,1,1.4-.015A10.329,10.329,0,0,1,505.409,318.36Z" transform="translate(-476.654 -296.186)" fill="#f2b27e"/>
                <path id="Trazado_127144" data-name="Trazado 127144" d="M523.591,319.191a30.857,30.857,0,0,1-12.193,1.6,6.081,6.081,0,0,0-1.7-6.475,10.329,10.329,0,0,0-6.509-2.5,10.21,10.21,0,0,0-1.4.015c-.492.369-1,.733-1.517,1.1l-.9.633A66.012,66.012,0,0,1,490.53,318c-3.547,1.605-6.923,3.163-7.991,4.277-1.7,1.775-2.5,4.6-.068,6,3.854,2.226,9.717,2.353,14.012,1.893,5.056-.54,9.97-1.988,15.038-2.445,3.068-.277,12.058.666,12.391-3.958.014-.178-.013-.66-.063-1.347C523.791,321.607,523.7,320.487,523.591,319.191Z" transform="translate(-480.941 -292.142)" fill="#1c5a8e"/>
                <path id="Trazado_127145" data-name="Trazado 127145" d="M481.137,322.1a2.822,2.822,0,0,0,1.512,2.18c3.852,2.227,9.717,2.354,14.011,1.895,5.056-.541,9.971-1.989,15.039-2.446,2.834-.256,10.726.53,12.172-3" transform="translate(-480.891 -289.829)" fill="none" stroke="#000" stroke-linecap="round" stroke-linejoin="round" stroke-width="0.5"/>
                <path id="Trazado_127146" data-name="Trazado 127146" d="M512.569,312.147a6.187,6.187,0,0,1-3.447,3.9" transform="translate(-473.644 -292.053)" fill="none" stroke="#000" stroke-linecap="round" stroke-linejoin="round" stroke-width="0.5"/>
                <path id="Trazado_127147" data-name="Trazado 127147" d="M486.682,317.762a1.911,1.911,0,0,0,.592,2.679,5.248,5.248,0,0,0,2.99.637,131.993,131.993,0,0,0,19.586-1.886" transform="translate(-479.544 -290.599)" fill="none" stroke="#000" stroke-linecap="round" stroke-linejoin="round" stroke-width="0.5"/>
                <path id="Trazado_127148" data-name="Trazado 127148" d="M503.32,320.549a12.284,12.284,0,0,0-9.112-6.515" transform="translate(-477.506 -291.564)" fill="none" stroke="#000" stroke-linecap="round" stroke-linejoin="round" stroke-width="0.5"/>
              </g>
              <path id="Trazado_127149" data-name="Trazado 127149" d="M605.567,242.9s-9.455,16.9-35.087,19.3-39.9,3.188-39.9,3.188,1.044,5.771-1.319,22.355c-2.374,16.666-10.234,42.652-10.234,42.652s-2.184,3.345-9.479,3.009-9.836-4.386-9.836-4.386.72-74.729,6.925-84.807,56.118-23.592,56.118-23.592l43.1,3.473Z" transform="translate(-476.08 -220.622)" fill="#cc9864"/>
              <g id="Grupo_134188" data-name="Grupo 134188" transform="translate(24.212 4.423)">
                <path id="Trazado_127150" data-name="Trazado 127150" d="M524.567,256.216q-2.425-3.008-5.1-5.8" transform="translate(-495.177 -217.329)" fill="none" stroke="#000" stroke-linecap="round" stroke-linejoin="round" stroke-width="0.5"/>
                <path id="Trazado_127151" data-name="Trazado 127151" d="M570.906,246.98c-1.88-2.484-3.823-5.123-4.22-8.212-.593-4.627,2.406-8.968,2.785-13.617" transform="translate(-482.969 -223.872)" fill="none" stroke="#000" stroke-linecap="round" stroke-linejoin="round" stroke-width="0.5"/>
                <path id="Trazado_127152" data-name="Trazado 127152" d="M500.173,303.219c.768-22.719,2.508-53.682,6.346-59.915,3.983-6.469,25.969-14.351,41.207-19.169" transform="translate(-500.173 -224.135)" fill="none" stroke="#000" stroke-linecap="round" stroke-linejoin="round" stroke-width="0.5"/>
              </g>
            </g>
            <g id="Grupo_134192" data-name="Grupo 134192" transform="translate(101.841 62.718)">
              <g id="Grupo_134190" data-name="Grupo 134190">
                <path id="Trazado_127153" data-name="Trazado 127153" d="M550.956,167.967a7.119,7.119,0,0,0,4.36,3.028c3.2.713,6.437-.852,9.19-2.624a52.815,52.815,0,0,0,9.657-7.993c-.06-.028-.125-.054-.184-.083a6.582,6.582,0,0,1-2.3-1.588c-3.2-3.905-1.651-14.183-1.651-14.183l-15.775,4.333s1.956,9.354.793,12.19a2.691,2.691,0,0,1-1.5,1.3c-.86.387-2.2.865-3.71,1.424A7.121,7.121,0,0,0,550.956,167.967Z" transform="translate(-535.846 -144.524)" fill="#f2b27e"/>
                <path id="Trazado_127154" data-name="Trazado 127154" d="M598.19,167.96c-3.4-6.8-15.456-8.25-21.149-10.843a52.815,52.815,0,0,1-9.657,7.993c-2.753,1.771-6,3.336-9.19,2.624a7,7,0,0,1-5.476-7.219c-3.655,1.348-8.349,3.178-9.931,5.393-2.792,3.914,4.99,53.39,4.99,53.39s-8.983,18.31-9.053,18.377c0,0,8.852,8.236,26.175,17.034s30.567,4.64,30.567,4.64,6.412-8.847,7.643-27.062S602.25,176.071,598.19,167.96Z" transform="translate(-538.723 -141.263)" fill="#d2f3e8"/>
              </g>
              <path id="Trazado_127155" data-name="Trazado 127155" d="M553.348,148.857l15.775-4.333a40.631,40.631,0,0,0-.337,7.038c-3.224,4.817-9.2,12.043-14.784,9.725a1.767,1.767,0,0,0,.14-.239C555.3,158.211,553.348,148.857,553.348,148.857Z" transform="translate(-534.936 -144.524)" fill="#f2b27e" opacity="0.7" style="mix-blend-mode: multiply;isolation: isolate"/>
              <g id="Grupo_134191" data-name="Grupo 134191" transform="translate(3.962 44.266)">
                <path id="Trazado_127156" data-name="Trazado 127156" d="M548.929,206.889a20.012,20.012,0,0,0,6.63,1.453,80.287,80.287,0,0,0,18.09-.465" transform="translate(-540.042 -172.64)" fill="none" stroke="#000" stroke-linecap="round" stroke-linejoin="round" stroke-width="0.5"/>
                <path id="Trazado_127157" data-name="Trazado 127157" d="M542.428,179.685c1.623,15.27,4.534,33.769,4.534,33.769s-2.656,5.415-5.091,10.366" transform="translate(-541.87 -179.685)" fill="none" stroke="#000" stroke-linecap="round" stroke-linejoin="round" stroke-width="0.5"/>
              </g>
            </g>
            <g id="Grupo_134198" data-name="Grupo 134198" transform="translate(90.017)">
              <path id="Trazado_127158" data-name="Trazado 127158" d="M601.489,123.066a11.24,11.24,0,0,0-5.794-7.992c1.9-3.278.443-7.879-2.746-9.928a9.438,9.438,0,0,0-6.807-1.195,9.472,9.472,0,0,0-15.51-3.072c-2.66-3.656-6.949-6.368-11.465-6.163s-8.895,3.933-8.929,8.454a26.207,26.207,0,0,0-7.95-1.379c-2.484-.042-5.233.407-6.813,2.324-2.123,2.576-1.157,6.4-.086,9.562a9.015,9.015,0,0,0-2.055,16.015c-2.191,3.494-2.669,8.339-.18,11.628a11.247,11.247,0,0,0,3.513,2.9c6.827,3.851,15.2,3.116,23.012,2.512,2.829-.219,5.872-.356,8.289,1.131,1.9,1.17,3.205,3.239,5.278,4.074a10.26,10.26,0,0,0,4.055.468c2.418-.047,4.97-.135,7.022-1.414a11.829,11.829,0,0,1,1.712-1.05,8.579,8.579,0,0,1,2.45-.389,12.255,12.255,0,0,0,10.1-17.054A11.236,11.236,0,0,0,601.489,123.066Z" transform="translate(-529.331 -94.706)" fill="#5e4028"/>
              <g id="Grupo_134196" data-name="Grupo 134196" transform="translate(6.827 12.857)">
                <g id="Grupo_134194" data-name="Grupo 134194">
                  <path id="Trazado_127159" data-name="Trazado 127159" d="M536.224,127.439c-4.567,15.93,2.13,34.94,11.488,37.623,13.121,3.763,31.388-6.558,35.956-22.487s-.966-33.074-14.086-36.837S540.792,111.51,536.224,127.439Z" transform="translate(-534.754 -104.919)" fill="#f2b27e"/>
                  <g id="Grupo_134193" data-name="Grupo 134193" clip-path="url(#clip-path-3)">
                    <path id="Trazado_127160" data-name="Trazado 127160" d="M568.51,145.251a7.743,7.743,0,1,1-5.309-9.577A7.745,7.745,0,0,1,568.51,145.251Z" transform="translate(-529.946 -97.032)" fill="url(#radial-gradient-3)"/>
                    <path id="Trazado_127161" data-name="Trazado 127161" d="M543.674,144.866a7.743,7.743,0,1,1-5.309-9.577A7.743,7.743,0,0,1,543.674,144.866Z" transform="translate(-536.377 -97.132)" fill="url(#radial-gradient-4)"/>
                  </g>
                </g>
                <path id="Trazado_127163" data-name="Trazado 127163" d="M552.995,143.061a6.452,6.452,0,0,1-5.008,2.917,5.411,5.411,0,0,1-4.6-2.481" transform="translate(-532.518 -95.041)" fill="none" stroke="#000" stroke-linecap="round" stroke-linejoin="round" stroke-width="0.5"/>
                <path id="Trazado_127164" data-name="Trazado 127164" d="M549.93,132.842a2.752,2.752,0,1,0,3.4-1.886A2.754,2.754,0,0,0,549.93,132.842Z" transform="translate(-530.852 -98.204)"/>
                <path id="Trazado_127165" data-name="Trazado 127165" d="M537.725,132.613a2.752,2.752,0,1,0,3.4-1.887A2.754,2.754,0,0,0,537.725,132.613Z" transform="translate(-534.012 -98.263)"/>
                <path id="Trazado_127166" data-name="Trazado 127166" d="M548.479,128.916a12.985,12.985,0,0,1,3.034-2.23,7.076,7.076,0,0,1,3.424-.816,8.493,8.493,0,0,1,3.457.888,25.356,25.356,0,0,1,3.28,1.938,10.064,10.064,0,0,0-2.833-2.745,8.581,8.581,0,0,0-1.829-.9,7.739,7.739,0,0,0-2.05-.361,6.63,6.63,0,0,0-3.922,1.209A7.536,7.536,0,0,0,548.479,128.916Z" transform="translate(-531.2 -99.799)" fill="#5e4028"/>
                <path id="Trazado_127167" data-name="Trazado 127167" d="M544.124,128.191a6.949,6.949,0,0,0-1.744-2.371,6.463,6.463,0,0,0-2.66-1.482,4.01,4.01,0,0,0-1.62-.13,3.386,3.386,0,0,0-1.528.629,3.844,3.844,0,0,0-1.492,2.607,5.99,5.99,0,0,1,2-1.8,3.217,3.217,0,0,1,2.352-.165,8.7,8.7,0,0,1,2.413,1.058A21.7,21.7,0,0,1,544.124,128.191Z" transform="translate(-534.67 -99.932)" fill="#5e4028"/>
                <path id="Trazado_127168" data-name="Trazado 127168" d="M555.951,131.662a4.9,4.9,0,0,0-6.255.708" transform="translate(-530.885 -98.207)" fill="none" stroke="#000" stroke-linecap="round" stroke-linejoin="round" stroke-width="0.5"/>
                <path id="Trazado_127169" data-name="Trazado 127169" d="M543.3,131.481a4,4,0,0,0-5.542.4" transform="translate(-533.976 -98.283)" fill="none" stroke="#000" stroke-linecap="round" stroke-linejoin="round" stroke-width="0.5"/>
                <g id="Grupo_134195" data-name="Grupo 134195" transform="translate(8.007 34.082)">
                  <path id="Trazado_127170" data-name="Trazado 127170" d="M544.484,132.628a4.509,4.509,0,0,1-1.088,4.525c-.679.67-1.593,1.143-2.028,1.992a2.766,2.766,0,0,0,.1,2.5,4.885,4.885,0,0,0,1.815,1.818,3.975,3.975,0,0,0,3.886-1.892c1.557-2.342,1.006-6.033.1-8.37S544.484,132.628,544.484,132.628Z" transform="translate(-541.114 -131.99)" fill="url(#linear-gradient-2)"/>
                  <path id="Trazado_127171" data-name="Trazado 127171" d="M544.484,132.5a4.509,4.509,0,0,1-1.088,4.525c-.679.67-1.593,1.143-2.028,1.992a2.766,2.766,0,0,0,.1,2.5,4.885,4.885,0,0,0,1.815,1.818" transform="translate(-541.114 -131.859)" fill="none" stroke="#000" stroke-linecap="round" stroke-linejoin="round" stroke-width="0.5"/>
                </g>
              </g>
              <path id="Trazado_127172" data-name="Trazado 127172" d="M580.1,135.078a9.034,9.034,0,0,1-6.411-4.842,16.044,16.044,0,0,1-1.584-8.088,9.256,9.256,0,0,1-9.2-7.007,15.084,15.084,0,0,1-15.418,5.007,16.3,16.3,0,0,1-14.172,8.524,19.633,19.633,0,0,1,3.487-9.362,37.613,37.613,0,0,1,13.419-12.945,28,28,0,0,1,18.2-3.237,22.349,22.349,0,0,1,15.175,10.182,29.545,29.545,0,0,1,3.228,8.737c1.219,5.436,1.589,11.329-.2,16.687-.8,2.4-1.776,5.667-4.418,3.111A7.333,7.333,0,0,1,580.1,135.078Z" transform="translate(-528.3 -92.626)" fill="#5e4028"/>
              <g id="Grupo_134197" data-name="Grupo 134197" transform="translate(49.237 43.746)">
                <path id="Trazado_127173" data-name="Trazado 127173" d="M570.856,134.475c-2.772,4.311-3.476,8.609-.418,10.575s8.721.855,11.492-3.456,2.539-9.4-.519-11.365S573.627,130.164,570.856,134.475Z" transform="translate(-568.44 -129.454)" fill="#f2b27e"/>
                <path id="Trazado_127174" data-name="Trazado 127174" d="M582.885,132.049s-6.059-.392-12.509,8.922" transform="translate(-567.939 -128.782)" fill="none" stroke="#000" stroke-linecap="round" stroke-linejoin="round" stroke-width="0.5"/>
              </g>
              <path id="Trazado_127175" data-name="Trazado 127175" d="M600.484,121.609a11.03,11.03,0,0,0-1.671-4.2c-9.582-6.349-21.349-9.155-32.9-9.31-4.331-.058-8.756.22-12.907-1.02-3.358-1-6.568-3.291-7.968-6.4a26.237,26.237,0,0,0-3.754-.345c-2.484-.042-5.233.407-6.813,2.324a6.078,6.078,0,0,0-1.254,4.172c3.691,3.355,9.112,4.69,14.211,4.8,6.067.135,12.116-1.1,18.177-.784a35.96,35.96,0,0,1,16.4,4.95c6.285,3.723,11.222,9.224,15.809,14.968A11.233,11.233,0,0,0,600.484,121.609Z" transform="translate(-528.326 -93.249)" fill="#5e4028" style="mix-blend-mode: screen;isolation: isolate"/>
            </g>
            <g id="Grupo_134201" data-name="Grupo 134201" transform="translate(55.831 148.157)">
              <g id="Grupo_134200" data-name="Grupo 134200">
                <path id="Trazado_127176" data-name="Trazado 127176" d="M514.239,218.393c-1.2.718-2.377,1.488-3.522,2.288-1.333.93-2.687,1.836-3.951,2.859a16.686,16.686,0,0,0-3.4,3.291c-.52.753-1.206,2.04-.7,2.945.079.142.352.31.342.483-.011.2-.507.636-.6.9a2.083,2.083,0,0,0,.361,2.115,1.617,1.617,0,0,0-.582,1.272,1.255,1.255,0,0,0,1.034.952c.51.1,1.084-.161,1.557.057.611.279.776.876,1.579.857a4.015,4.015,0,0,0,1.824-.667,65.223,65.223,0,0,1,12.286-5.575c3-.945,6.306-1.588,8.654-3.755a39.819,39.819,0,0,0,4.832-6.489,5.974,5.974,0,0,0-.614-4.37,7.684,7.684,0,0,0-3.627-3.161s-5.751,2.659-7.677,2.936A21.338,21.338,0,0,0,514.239,218.393Z" transform="translate(-502.177 -212.389)" fill="#f2b27e"/>
                <g id="Grupo_134199" data-name="Grupo 134199" transform="translate(0.899 14.146)">
                  <path id="Trazado_127177" data-name="Trazado 127177" d="M511.51,227.383a25.807,25.807,0,0,1-1.086-2.517" transform="translate(-500.941 -223.304)" fill="none" stroke="#333" stroke-linecap="round" stroke-linejoin="round" stroke-width="0.5"/>
                  <path id="Trazado_127178" data-name="Trazado 127178" d="M512.667,226.227a34.724,34.724,0,0,0-8.785,5.247" transform="translate(-502.634 -222.951)" fill="none" stroke="#333" stroke-linecap="round" stroke-linejoin="round" stroke-width="0.5"/>
                  <path id="Trazado_127179" data-name="Trazado 127179" d="M510.295,225.149a37.4,37.4,0,0,0-7.4,4.625" transform="translate(-502.891 -223.23)" fill="none" stroke="#333" stroke-linecap="round" stroke-linejoin="round" stroke-width="0.5"/>
                  <path id="Trazado_127180" data-name="Trazado 127180" d="M508.844,223.625a42.284,42.284,0,0,0-5.735,3.622" transform="translate(-502.835 -223.625)" fill="none" stroke="#333" stroke-linecap="round" stroke-linejoin="round" stroke-width="0.5"/>
                </g>
                <path id="Trazado_127181" data-name="Trazado 127181" d="M514.811,217.593a31.1,31.1,0,0,0-2.711,3.044c-1.211,1.5-2.962,2.484-4.1,4.04-.419.574-.709,1.413-.254,1.958a1.6,1.6,0,0,0,1.137.46c2.1.159,3.85-1.026,5.427-2.254a7.763,7.763,0,0,1,3.416-1.661c2.284-.485,4.234-1.024,5.753-2.935" transform="translate(-500.794 -211.041)" fill="none" stroke="#333" stroke-linecap="round" stroke-linejoin="round" stroke-width="0.5"/>
              </g>
            </g>
            <g id="Grupo_134202" data-name="Grupo 134202" transform="translate(47.741 118.529)">
              <path id="Trazado_127182" data-name="Trazado 127182" d="M521.036,198.259H507.229l-3.841-8.14a.886.886,0,0,1,.8-1.264h11.849a.887.887,0,0,1,.8.509Z" transform="translate(-493.796 -188.855)" fill="#ff8099"/>
              <path id="Trazado_127183" data-name="Trazado 127183" d="M551.236,242.351h-31.46a2.575,2.575,0,0,1-2.328-1.477L496,195.413a2.574,2.574,0,0,1,2.328-3.672h31.459a2.575,2.575,0,0,1,2.329,1.477l21.448,45.461A2.574,2.574,0,0,1,551.236,242.351Z" transform="translate(-495.751 -188.108)" fill="#991933"/>
            </g>
            <g id="Grupo_134208" data-name="Grupo 134208" transform="translate(85.853 82.017)">
              <g id="Grupo_134205" data-name="Grupo 134205" transform="translate(0 72.292)">
                <g id="Grupo_134204" data-name="Grupo 134204">
                  <path id="Trazado_127184" data-name="Trazado 127184" d="M561.721,217.85c-2.411.044-4.8-.252-7.286-.388-4.5-.249-9.45-.448-13.835.769a12.534,12.534,0,0,0-1.209.413l2.412,5.111c.15,0,.3,0,.448.01.691.054,1.53.342,1.613,1.031.072.6-.506.963-.919,1.239-.018.011-.033.025-.049.036-.666.451-1.263,1.006-1.9,1.51a13.284,13.284,0,0,1-4.643,2.572,17.38,17.38,0,0,1-2.743.446q-1.773.191-3.545.373a7.52,7.52,0,0,0-1.8.334,2.519,2.519,0,0,0-1.4,1.117,1.08,1.08,0,0,0,.072,1.254,3.5,3.5,0,0,0-.866,1.351,1.6,1.6,0,0,0-.023.711,1.146,1.146,0,0,0,.438.749,1.979,1.979,0,0,1,.365.257,1.309,1.309,0,0,1,.214.472,2.734,2.734,0,0,0,1.78,1.575,8.018,8.018,0,0,0,2.435.276,2.369,2.369,0,0,0,1.734,1.253,7.012,7.012,0,0,0,2.212-.02l7.026-.813a25.17,25.17,0,0,0,5.645-1.442,32.856,32.856,0,0,0,5.868-3.038c3.463-2.1,6.587-4.682,10.432-6.052Z" transform="translate(-526.024 -217.275)" fill="#f2b27e"/>
                  <g id="Grupo_134203" data-name="Grupo 134203" transform="translate(1.212 16.063)">
                    <path id="Trazado_127185" data-name="Trazado 127185" d="M526.986,230.383a40.172,40.172,0,0,0,10.879-.349" transform="translate(-526.986 -230.034)" fill="none" stroke="#333" stroke-linecap="round" stroke-linejoin="round" stroke-width="0.5"/>
                    <path id="Trazado_127186" data-name="Trazado 127186" d="M527.007,232.967a49.021,49.021,0,0,0,12.019-1.026" transform="translate(-526.981 -229.54)" fill="none" stroke="#333" stroke-linecap="round" stroke-linejoin="round" stroke-width="0.5"/>
                    <path id="Trazado_127187" data-name="Trazado 127187" d="M530.551,234.594a55.551,55.551,0,0,0,9.309-.988" transform="translate(-526.063 -229.109)" fill="none" stroke="#333" stroke-linecap="round" stroke-linejoin="round" stroke-width="0.5"/>
                  </g>
                </g>
              </g>
              <g id="Grupo_134206" data-name="Grupo 134206" transform="translate(34.081)">
                <path id="Trazado_127188" data-name="Trazado 127188" d="M583.634,159.853s12.481,1.808,16.17,13.932c3.792,11.438,7.933,37.018,2.672,47.756s-42.9,25.469-42.9,25.469-4.327-2.369-6.117-9.03c-1.075-4,.557-6.208.557-6.208.38-.3,30.144-19.107,30.144-19.107s-3.126-18.949-5.1-33.428S583.634,159.853,583.634,159.853Z" transform="translate(-553.095 -159.853)" fill="#d2f3e8"/>
              </g>
              <g id="Grupo_134207" data-name="Grupo 134207" transform="translate(34.531 25.634)">
                <path id="Trazado_127189" data-name="Trazado 127189" d="M598.922,211.8c-10.31,10.127-40.032,21.76-40.032,21.76a11.551,11.551,0,0,1-3.132-2.9" transform="translate(-552.855 -172.035)" fill="none" stroke="#000" stroke-linecap="round" stroke-linejoin="round" stroke-width="0.5"/>
                <path id="Trazado_127190" data-name="Trazado 127190" d="M553.452,227.444a4.191,4.191,0,0,1,.473-.945c.38-.3,30.144-19.107,30.144-19.107s-2.315-14.035-4.22-27.177" transform="translate(-553.452 -180.214)" fill="none" stroke="#000" stroke-linecap="round" stroke-linejoin="round" stroke-width="0.5"/>
              </g>
              <path id="Trazado_127191" data-name="Trazado 127191" d="M579.044,202.037a17.311,17.311,0,0,0,8.45-.716" transform="translate(-512.294 -149.115)" fill="none" stroke="#000" stroke-linecap="round" stroke-linejoin="round" stroke-width="0.5"/>
              <path id="Trazado_127192" data-name="Trazado 127192" d="M577.959,160.277a15.765,15.765,0,0,0-3.739,7.565" transform="translate(-513.543 -159.743)" fill="none" stroke="#000" stroke-linecap="round" stroke-linejoin="round" stroke-width="0.5"/>
            </g>
          </g>
        </g>
      </g>
    </g>
  </g>
</svg>
