<svg xmlns="http://www.w3.org/2000/svg" xmlns:xlink="http://www.w3.org/1999/xlink" width="858.029" height="253.669" viewBox="0 0 858.029 253.669">
  <defs>
    <linearGradient id="linear-gradient" x1="0.5" x2="0.5" y2="1" gradientUnits="objectBoundingBox">
      <stop offset="0" stop-color="#133d60"/>
      <stop offset="1" stop-color="#1b5d95"/>
    </linearGradient>
  </defs>
  <g id="Grupo_135041" data-name="Grupo 135041" transform="translate(6043.016 2862.427)">
    <path id="Unión_14" data-name="Unión 14" d="M8580.182,11951.186a121.42,121.42,0,0,1-43.7-18.39,121.97,121.97,0,0,1-53.883-101.349c0-1.854.042-3.741.126-5.612h.123c.052-1.2.078-2.409.078-3.612a81.779,81.779,0,0,0-14.082-46.02,82.541,82.541,0,0,0-144.329,13.977,81.77,81.77,0,0,0-6.477,32.043c0,1.2.026,2.411.077,3.612h.01c.017.369.032.74.045,1.111.017.3.034.592.055.886h-.025c.034,1.207.052,2.417.052,3.615a123,123,0,0,1-2.483,24.63,121.562,121.562,0,0,1-18.411,43.7,122.789,122.789,0,0,1-53.832,44.285,121.833,121.833,0,0,1-22.974,7.119,123.612,123.612,0,0,1-49.316,0,122.2,122.2,0,0,1-95.213-95.108,122.968,122.968,0,0,1-2.487-24.63c0-1.854.042-3.741.129-5.612h.121c.051-1.2.078-2.409.078-3.612a81.765,81.765,0,0,0-14.079-46.02,82.663,82.663,0,0,0-36.276-29.823,82.438,82.438,0,0,0-78.182,7.59,82.69,82.69,0,0,0-22.269,22.233,81.761,81.761,0,0,0-14.079,46.02c0,1.872.063,3.759.186,5.609h-40.032c-.084-1.868-.126-3.756-.126-5.609a122.947,122.947,0,0,1,2.487-24.63,121.439,121.439,0,0,1,18.417-43.707,122.685,122.685,0,0,1,53.858-44.282,121.643,121.643,0,0,1,22.983-7.119,123.764,123.764,0,0,1,49.337,0,121.729,121.729,0,0,1,43.773,18.387,122.639,122.639,0,0,1,44.354,53.778,121.634,121.634,0,0,1,7.131,22.943,122.947,122.947,0,0,1,2.487,24.63c0,1.863-.042,3.75-.126,5.609h-.142c-.051,1.2-.077,2.413-.077,3.615a81.817,81.817,0,0,0,14.073,46.02,82.653,82.653,0,0,0,36.258,29.823,82.377,82.377,0,0,0,78.149-7.59,82.747,82.747,0,0,0,22.257-22.233,81.846,81.846,0,0,0,14.076-46.02c0-1.2-.026-2.414-.078-3.615h-.027q-.038-.861-.066-1.729l-.018-.269h.01c-.036-1.209-.055-2.418-.055-3.612a122.911,122.911,0,0,1,2.487-24.63,121.375,121.375,0,0,1,18.42-43.707,122.706,122.706,0,0,1,53.855-44.282,121.7,121.7,0,0,1,22.982-7.119,123.781,123.781,0,0,1,49.341,0,121.688,121.688,0,0,1,43.77,18.387,122.576,122.576,0,0,1,44.354,53.778,121.607,121.607,0,0,1,7.134,22.943,122.911,122.911,0,0,1,2.487,24.63c0,1.863-.045,3.75-.129,5.609h-.187c-.052,1.2-.077,2.413-.077,3.615a81.888,81.888,0,0,0,14.058,46.02,82.547,82.547,0,0,0,36.216,29.823,82.2,82.2,0,0,0,78.06-7.59,82.675,82.675,0,0,0,22.232-22.233,81.888,81.888,0,0,0,14.058-46.02c0-1.875-.062-3.765-.186-5.612H8726.9c.084,1.859.126,3.75.126,5.612a123.143,123.143,0,0,1-2.481,24.63,121.478,121.478,0,0,1-18.39,43.7,122.642,122.642,0,0,1-53.771,44.285,121.463,121.463,0,0,1-22.944,7.119,123.341,123.341,0,0,1-49.262,0Z" transform="translate(-13912.017 -14562.428)" fill="url(#linear-gradient)"/>
    <circle id="Elipse_4973" data-name="Elipse 4973" cx="70.5" cy="70.5" r="70.5" transform="translate(-5991 -2810.968)" fill="#5bd3a9"/>
    <circle id="Elipse_4974" data-name="Elipse 4974" cx="70.5" cy="70.5" r="70.5" transform="translate(-5786 -2805.968)" fill="#5bd3a9"/>
    <circle id="Elipse_4975" data-name="Elipse 4975" cx="70.5" cy="70.5" r="70.5" transform="translate(-5581 -2810.968)" fill="#5bd3a9"/>
    <circle id="Elipse_4976" data-name="Elipse 4976" cx="70.5" cy="70.5" r="70.5" transform="translate(-5376 -2799.968)" fill="#5bd3a9"/>
    <g id="Grupo_135040" data-name="Grupo 135040" transform="translate(-6025.419 -2873.062)">
      <path id="Trazado_127303" data-name="Trazado 127303" d="M156.958,192.654s8.8,7.435,14.2,10.533c4.351,2.5-.3,4.855-7.449,3.907-8.547-1.134-9.092-4.555-12.139-4.137S151.55,190.986,156.958,192.654Z" fill="#eaac90"/>
      <path id="Trazado_127304" data-name="Trazado 127304" d="M165.534,199.417s-.282,5.736-2.608,5.736-4.4-1.266-11.361-2.2c-1.907-.255.552,2.512,1.359,3.866s10.785,8.721,19.892,1.125C177.708,203.868,168.628,201.713,165.534,199.417Z" fill="#352b4c"/>
      <path id="Trazado_127305" data-name="Trazado 127305" d="M151.272,198.063s4.343,10.673,7.679,15.921c2.692,4.234-2.522,4.16-8.412,0-7.042-4.975-7.011-5.187-8.829-9.3C137.88,196.008,147.259,194.073,151.272,198.063Z" fill="#eaac90"/>
      <path id="Trazado_127306" data-name="Trazado 127306" d="M156.463,208.509s-3.652,4.475-5.711,3.4-3.313-3.168-9.042-7.222c0,0-1.107,4.718.788,6.334,4.167,3.556,4.121,10.454,15.714,7.957C164.439,217.632,158.137,211.979,156.463,208.509Z" fill="#352b4c"/>
      <path id="Trazado_127307" data-name="Trazado 127307" d="M131.9,133.468s6.51-1.027,8.06-6.349-13.859-16.1-17.934-17.067S125.394,134.288,131.9,133.468Z" fill="#352b4c"/>
      <path id="Trazado_127308" data-name="Trazado 127308" d="M96.743,61.6a13.743,13.743,0,0,0-9.3,8.37c-2.262,5.447.945,9.955-4.5,16.165s-5.527,15.323,5.556,16.1c6.878.48,10.141,5.624,16.215,4.224s6.1-2.241,11.932-2c6.816.279,10.132-1.183,12.325-5.7,3.652-7.519-2.825-11.282-2.719-18.023C126.355,73.681,121.71,53.706,96.743,61.6Z" fill="#352b4c"/>
      <path id="Trazado_127309" data-name="Trazado 127309" d="M100.853,85.872s-.2,16.879-.675,19.361-20.371,3.963-25.635,8.14,15.035,14.1,24.548,20.731c7.291,5.082,29.066-22.7,22.938-24.052-6.441-1.422-9.69-2.262-9.69-5.081a45.636,45.636,0,0,1,1.719-10.5S101.7,86.644,100.853,85.872Z" fill="#e1916e"/>
      <path id="Trazado_127310" data-name="Trazado 127310" d="M94.76,73.343s-4.5,27.78,11.265,29.007c10.847.843,16.649-17.219,14.188-25.971S101.559,66.9,94.76,73.343Z" fill="#eaac90"/>
      <ellipse id="Elipse_4977" data-name="Elipse 4977" cx="1.234" cy="0.964" rx="1.234" ry="0.964" transform="translate(114.022 88.016) rotate(-85.521)" fill="#2e1f35"/>
      <ellipse id="Elipse_4978" data-name="Elipse 4978" cx="1.234" cy="0.964" rx="1.234" ry="0.964" transform="translate(100.8 88.411) rotate(-85.521)" fill="#2e1f35"/>
      <path id="Trazado_127311" data-name="Trazado 127311" d="M118.842,87.1s2.18-5.078,4.333-2.631-.9,8.511-3.132,8.313S117.628,89.151,118.842,87.1Z" fill="#eaac90"/>
      <path id="Trazado_127312" data-name="Trazado 127312" d="M90.45,87.782s-1.1-5.415,2.06-4.631,4.11,7.507,2.165,8.615S90.62,90.157,90.45,87.782Z" fill="#eaac90"/>
      <path id="Trazado_127313" data-name="Trazado 127313" d="M98.22,63.448s-8.01,3.9-7.964,13.017c.018,3.55,12.474,4.562,14.66,1.759s2.442-10.639,2.442-10.639-.144,9.366,3.4,11.839,13.241,1.418,12.4.283-1.98-15-10.548-17.962A15.62,15.62,0,0,0,98.22,63.448Z" fill="#352b4c"/>
      <circle id="Elipse_4979" data-name="Elipse 4979" cx="2.839" cy="2.839" r="2.839" transform="translate(97.198 88.432)" fill="#e1916e"/>
      <circle id="Elipse_4980" data-name="Elipse 4980" cx="2.839" cy="2.839" r="2.839" transform="translate(112.339 88.319)" fill="#e1916e"/>
      <circle id="Elipse_4981" data-name="Elipse 4981" cx="8.287" cy="8.287" r="8.287" transform="translate(85.134 49.326)" fill="#352b4c"/>
      <path id="Trazado_127314" data-name="Trazado 127314" d="M98.64,78.142c2.963-3.045,2.273-15.133,2.242-15.646l-1.09.065c.2,3.362.247,12.578-1.934,14.819Z" fill="#443965"/>
      <path id="Trazado_127315" data-name="Trazado 127315" d="M114.549,76.145c.025-.078,2.428-7.951-7.511-13.935l-.563.936c9.206,5.543,7.058,12.594,7.035,12.665Z" fill="#443965"/>
      <path id="Trazado_127316" data-name="Trazado 127316" d="M121.6,75.991l1.04-.334c-.163-.5-4.075-12.361-13.037-13.949l-.191,1.076C117.731,64.258,121.559,75.874,121.6,75.991Z" fill="#443965"/>
      <path id="Trazado_127317" data-name="Trazado 127317" d="M92.112,76.822l1.039-.338c-.023-.073-2.294-7.328,2.66-12.577l-.795-.75C89.611,68.886,92.008,76.5,92.112,76.822Z" fill="#443965"/>
      <path id="Trazado_127318" data-name="Trazado 127318" d="M118.143,103.233c.132-.093,3.247-2.361,2.748-9.282l-1.089.079c.455,6.31-2.259,8.29-2.287,8.309Z" fill="#443965"/>
      <path id="Trazado_127319" data-name="Trazado 127319" d="M85.252,89c-.1.125-2.533,3.115-.277,9.677l1.033-.355c-2.058-5.983.057-8.592.079-8.618Z" fill="#443965"/>
      <path id="Trazado_127320" data-name="Trazado 127320" d="M88.84,91.627c-.051.155-1.2,3.832,3.326,9.091l.828-.712c-4.127-4.795-3.128-8-3.117-8.034Z" fill="#443965"/>
      <path id="Trazado_127321" data-name="Trazado 127321" d="M92.665,62.325a6.917,6.917,0,0,0,2.425-.517l.747-.348-.611-.553c-1.979-1.789-4.255-6.544-4.278-6.592l-.986.469a32.846,32.846,0,0,0,3.9,6.291A4.54,4.54,0,0,1,88.5,58.786l-.945.547A5.459,5.459,0,0,0,92.665,62.325Z" fill="#443965"/>
      <path id="Trazado_127322" data-name="Trazado 127322" d="M86.395,86.357a11.923,11.923,0,0,0,2.772-7.427l-1.091.031a11.007,11.007,0,0,1-2.516,6.692Z" fill="#443965"/>
      <path id="Trazado_127323" data-name="Trazado 127323" d="M98.777,59.392a11.925,11.925,0,0,0-2.324-7.58l-.847.69a11.007,11.007,0,0,1,2.08,6.84Z" fill="#443965"/>
      <path id="Trazado_127324" data-name="Trazado 127324" d="M104.785,96.509l-.581-.814c1.787-1.274,3.326-1.718,4.572-1.315a3.033,3.033,0,0,1,1.844,1.791l-.945.325a2.016,2.016,0,0,0-1.216-1.168C107.544,95.04,106.272,95.448,104.785,96.509Z" fill="#261e35"/>
      <path id="Trazado_127325" data-name="Trazado 127325" d="M109.127,86.029s3.5,6.669,2.295,6.689-3.068,1.376-3.736-.4S108.572,84.933,109.127,86.029Z" fill="#e1916e"/>
      <path id="Trazado_127326" data-name="Trazado 127326" d="M99.858,84.548a10.348,10.348,0,0,1-1.419-.093l.147-.989c.753.113,2.912.233,3.856-.52l.624.781A5.376,5.376,0,0,1,99.858,84.548Z" fill="#261e35"/>
      <path id="Trazado_127327" data-name="Trazado 127327" d="M117.974,84.357a8.8,8.8,0,0,1-3.679-1.138l.5-.867c.659.378,2.623,1.281,3.779.926l.295.955A3.026,3.026,0,0,1,117.974,84.357Z" fill="#261e35"/>
      <path id="Trazado_127328" data-name="Trazado 127328" d="M116.472,108.445s1.179,6.7-5.564,6.783c-10.016.122-9.875-7.013-12.5-8.8s-15.675-3.572-26.234,5.322-36.426,61.935.194,91.8c13.759,11.219,50.7-37.573,57.828-42.693s6.071-28.2-.3-37.971c-3.983-6.112-5.844-12.523-7.868-12.835A39.6,39.6,0,0,1,116.472,108.445Z" fill="#2d3339"/>
      <path id="Trazado_127329" data-name="Trazado 127329" d="M123.457,101.28c.2-.07,4.792-1.846,1.255-12.416l-1.036.347c3.15,9.413-.548,11.027-.586,11.041Z" fill="#443965"/>
      <path id="Trazado_127330" data-name="Trazado 127330" d="M115.3,149.293s8.855-27.262,25.185-18.218C152.993,138,171.218,185.45,161.4,195.293c-1.1,1.1-5.6,2.805-7.384,2.7C136.321,196.987,115.3,149.293,115.3,149.293Z" fill="#6c858a"/>
      <path id="Trazado_127331" data-name="Trazado 127331" d="M94.176,143.036s17.367-21.133,33.767-7.126c10.931,9.337,35.947,52.966,25.413,62.02-.762.655-14.523,6.259-15.631,6.713C127.874,208.678,94.176,143.036,94.176,143.036Z" fill="#6c858a"/>
      <path id="Trazado_127332" data-name="Trazado 127332" d="M94.6,141.629S72.28,170.348,66.539,185.987C56.957,212.093,110.49,216.5,121,200.509s15.3-38.074,1.331-51.211S94.6,141.629,94.6,141.629Z" fill="#6c858a"/>
      <path id="Trazado_127333" data-name="Trazado 127333" d="M107.983,102.916a10.435,10.435,0,0,1-5.394-1.6l.572-.821c.189.132,4.682,3.175,9.23,0l.572.82A8.549,8.549,0,0,1,107.983,102.916Z" fill="#261e35"/>
      <path id="Trazado_127334" data-name="Trazado 127334" d="M154.829,198.162c-.134-.467-13.562-46.865-27.256-61.915l.74-.673c13.85,15.222,27.342,61.843,27.477,62.312Z" fill="#261e35"/>
      <path id="Trazado_127335" data-name="Trazado 127335" d="M69.464,138.964s16.746-16.749,19.282-14.982,8.451,9.5,8.451,9.5-9.563,21.474-13.179,20.6S69.464,143.807,69.464,138.964Z" fill="#eaac90"/>
      <path id="Trazado_127336" data-name="Trazado 127336" d="M97.2,102.378s2.838-6.656,5.678-6.843,5.962,2.327,7.272,4.81-4.69,3.9-4.357,6.357,1.708,44.959-7.4,48.959-15.472-.769-19.053-5.746S94.92,104.243,97.2,102.378Z" fill="#eaac90"/>
      <path id="Trazado_127337" data-name="Trazado 127337" d="M120.009,101.913s-2.836-6.724-5.66-6.375-5.419,3.406-6.239,6.09,4.433,2.7,4.567,5.174S135.506,140.3,145.2,142.515s12.97-10.333,6.762-18.288C148.189,119.393,122.6,103.317,120.009,101.913Z" fill="#eaac90"/>
      <path id="Trazado_127338" data-name="Trazado 127338" d="M60.473,120.714c-.024-.187-.538-4.592,2.455-5.225.747-.157.832-.767.847-2.119.015-1.315.035-3.114,2.207-3.2,1.121-.045,1.4-.688,1.778-1.577.514-1.2,1.152-2.694,4.087-2.385l-.1.994c-2.2-.225-2.582.659-3.065,1.785-.4.94-.9,2.111-2.657,2.182-1.117.046-1.229.644-1.247,2.215-.014,1.224-.031,2.747-1.64,3.087-2.1.443-1.674,4.085-1.67,4.122Z" fill="#261e35"/>
      <path id="Trazado_127339" data-name="Trazado 127339" d="M147.977,116.092l-1-.016c.035-2.213-.883-2.514-2.046-2.9-.972-.319-2.182-.717-2.407-2.455-.143-1.11-.748-1.167-2.315-1.05-1.221.094-2.74.209-3.219-1.363-.627-2.058-4.215-1.311-4.252-1.3l-.21-.978c.184-.039,4.527-.937,5.419,1.989.222.731.838.762,2.185.658,1.313-.1,3.106-.237,3.384,1.919.144,1.113.808,1.331,1.727,1.634C146.482,112.636,148.024,113.143,147.977,116.092Z" fill="#261e35"/>
      <path id="Trazado_127340" data-name="Trazado 127340" d="M127.151,65.624l-1-.016c.036-2.213-.882-2.515-2.045-2.9-.973-.32-2.183-.718-2.407-2.456-.143-1.11-.749-1.168-2.316-1.049-1.221.091-2.739.208-3.218-1.364-.627-2.058-4.215-1.311-4.252-1.3l-.21-.977c.184-.04,4.527-.939,5.419,1.988.222.731.839.761,2.185.659,1.312-.1,3.106-.237,3.384,1.918.144,1.113.808,1.331,1.727,1.633C125.657,62.169,127.2,62.675,127.151,65.624Z" fill="#261e35"/>
      <path id="Trazado_127341" data-name="Trazado 127341" d="M70.5,210.182c-1.047,0-4.369-.207-4.738-2.81-.107-.756-.709-.882-2.057-.989-1.31-.1-3.1-.245-3.046-2.418.03-1.122-.592-1.44-1.454-1.881-1.161-.594-2.606-1.333-2.1-4.24l.985.171c-.377,2.181.484,2.621,1.574,3.179.911.466,2.045,1.046,2,2.8-.031,1.118.558,1.27,2.125,1.395,1.22.1,2.738.217,2.968,1.845.3,2.128,3.964,1.944,4,1.945l.057,1C70.784,210.176,70.673,210.182,70.5,210.182Z" fill="#261e35"/>
      <path id="Trazado_127342" data-name="Trazado 127342" d="M168.924,180.445l-.713-.7c1.552-1.577,1.1-2.429.518-3.508-.484-.9-1.086-2.025-.049-3.438.662-.9.264-1.363-.952-2.357-.948-.775-2.127-1.739-1.389-3.208.965-1.922-2.148-3.857-2.18-3.876l.523-.853c.16.1,3.923,2.444,2.55,5.177-.342.683.081,1.129,1.128,1.985,1.018.832,2.412,1.971,1.126,3.723-.664.9-.334,1.521.124,2.375C170.226,176.913,170.993,178.343,168.924,180.445Z" fill="#261e35"/>
      <path id="Trazado_127343" data-name="Trazado 127343" d="M83.008,134.113l-.941-.335c.82-2.3,3.582-9.653,3.61-9.727l.936.352C86.586,124.477,83.826,131.824,83.008,134.113Z" fill="#e1916e"/>
      <path id="Trazado_127344" data-name="Trazado 127344" d="M125.852,195.41s-7.676,14.562-27.61,13.834c0,0,15.439-16.521,13.817-38.614C112.059,170.63,125.169,192.271,125.852,195.41Z" fill="#566b7d"/>
    </g>
    <g id="Grupo_135038" data-name="Grupo 135038" transform="translate(-6284.327 -2968.167)">
      <g id="Grupo_134310" data-name="Grupo 134310" transform="translate(700.327 124.738)">
        <g id="Grupo_134298" data-name="Grupo 134298" transform="translate(1.032 38.851)">
          <path id="Trazado_127345" data-name="Trazado 127345" d="M724.45,204.748c6.479,13.61,18.982,42.2,25.485,46.99,7.993,5.885,23.425,7.625,23.425,7.625-23.631,32.549-34.749,24.421-34.749,24.421-15.922-12.309-23.252-64.968-24.571-74.353l-7.952-9.5a14.541,14.541,0,0,1-3.471-6.648c-.652-3.721-1.3-6.976-.523-6.828s2.838,5.1,3.156,6.029a8.769,8.769,0,0,0,1.888,2.935c.468.306-3.026-8.981-3.2-11.153s-.977-5.426-.2-5.433,2.67,3.7,2.67,3.7-.658-4.5.117-4.659,1.886,2.779,2.208,4.174,3.8,8.974,4.736,9.277c0,0,1.1-7.54,1.713-8.632s6.141.8,6.3,1.422-2.47,1.729-3.558,1.582l-.735,4.975s2.517,3.861,4.377,3.535A38.4,38.4,0,0,0,723,189.465c-.081-.465-2.578-2-1.593-4.878s5.737,8.337,5.737,8.337S724.072,200.635,724.45,204.748Z" transform="translate(-701.738 -177.873)" fill="#eaac90"/>
          <g id="Grupo_134297" data-name="Grupo 134297" transform="translate(4.516 4.2)">
            <path id="Trazado_127346" data-name="Trazado 127346" d="M707.915,183.617a36.75,36.75,0,0,0,5.237,11.9" transform="translate(-707.915 -183.617)" fill="none" stroke="#d66956" stroke-miterlimit="10" stroke-width="0.239"/>
            <path id="Trazado_127347" data-name="Trazado 127347" d="M726.8,200.682c-.732-.05-1.636-.01-1.967.645a1.792,1.792,0,0,0-.134.821,19.079,19.079,0,0,0,.609,4.734" transform="translate(-712.428 -188.2)" fill="none" stroke="#d66956" stroke-miterlimit="10" stroke-width="0.239"/>
            <path id="Trazado_127348" data-name="Trazado 127348" d="M712.333,203.364l3.534-4.533" transform="translate(-709.103 -187.707)" fill="none" stroke="#d66956" stroke-miterlimit="10" stroke-width="0.239"/>
          </g>
        </g>
        <g id="Grupo_134306" data-name="Grupo 134306" transform="translate(39.872)">
          <path id="Trazado_127349" data-name="Trazado 127349" d="M779.9,205.982s-16.674,3.225-25.039,41.279l12.59,20.08Z" transform="translate(-754.858 -146.578)" fill="#95c0d9"/>
          <path id="Trazado_127350" data-name="Trazado 127350" d="M778.982,206.846a3.274,3.274,0,0,1-.719,3.578c-3.527,3.764-5.675,8.409-7.724,13.087-2.1,4.784-4.109,9.589-5.866,14.51-1.78,4.988-3.346,10.044-4.751,15.146l8.887,14.175,12.45-61.359A10.3,10.3,0,0,0,778.982,206.846Z" transform="translate(-756.219 -146.578)" fill="#d8c7bc" opacity="0.28" style="mix-blend-mode: multiply;isolation: isolate"/>
          <g id="Grupo_134305" data-name="Grupo 134305" transform="translate(6.379)">
            <g id="Grupo_134304" data-name="Grupo 134304">
              <g id="Grupo_134300" data-name="Grupo 134300" transform="translate(0 36.901)">
                <path id="Trazado_127351" data-name="Trazado 127351" d="M831.591,302.135s.617-61.114-2.874-79.54-22.81-23.342-22.81-23.342l-6.844-2.86-14.221,4.557-4.993,3.428c-4.159,2.972-6.385,11.224-7.21,16.027l-9.057,81.677Z" transform="translate(-763.582 -180.901)" fill="#95c0d9"/>
                <path id="Trazado_127352" data-name="Trazado 127352" d="M833.282,223.956c-2.708-14.293-14.936-20.454-20.287-22.5-2.134,8.862-5.8,17.272-8.685,25.923-3.578,10.715-6.8,21.549-10,32.383-3.9,13.226-9.57,29.816-13.752,42.955l55.9.155S836.773,242.382,833.282,223.956Z" transform="translate(-768.147 -182.262)" fill="#d8c7bc" opacity="0.28" style="mix-blend-mode: multiply;isolation: isolate"/>
                <g id="Grupo_134299" data-name="Grupo 134299" transform="translate(19.495)">
                  <path id="Trazado_127353" data-name="Trazado 127353" d="M790.4,188.454l-.083-1.728.564-.038,10.859-10.683a11.1,11.1,0,0,1,2.079,1.532c.246.428,1.16-.3,1.16-.3l2.837,14s-11.172,9.531-15.467,9.056c-1.606-.178-1.779-.517-1.779-.517Z" transform="translate(-790.265 -175.421)" fill="#eaac90"/>
                  <path id="Trazado_127354" data-name="Trazado 127354" d="M802,175.206l-11.76,11.514.214,3.562a27.009,27.009,0,0,0,8.774-12.889" transform="translate(-790.244 -175.206)" fill="#d66956"/>
                </g>
              </g>
              <g id="Grupo_134303" data-name="Grupo 134303" transform="translate(6.167)">
                <path id="Trazado_127355" data-name="Trazado 127355" d="M800.48,158.6s-3.836.368-5.052,2.205l-5.318-9.564s-1.874-7.16-3.978-5.382-3.922,2.892-5.386,2.427-2.808-2.715-2.808-2.715-10.285-9.562-3.746-16.855c7.154-7.979,7.783-1.8,12.794-.021,1.931.684,5.678-.483,7.7.083,2.152.6,2.234,5.564,3.54,5.56,7.333-.02,6.475,10.217,2.988,24.1" transform="translate(-772.016 -124.738)" fill="#3e1c1a"/>
                <path id="Trazado_127356" data-name="Trazado 127356" d="M803.992,161.406a8.21,8.21,0,0,0-3.689,3.246,4.063,4.063,0,0,1-.4.566l3.02,5.431c1.217-1.837,5.052-2.205,5.052-2.205l.736-.156c.541-2.154,1.029-4.111,1.452-5.906A13.239,13.239,0,0,0,803.992,161.406Z" transform="translate(-779.513 -134.58)" fill="#d66956"/>
                <path id="Trazado_127357" data-name="Trazado 127357" d="M799.061,165.852c.159.344,4.263-2.644,5.137.834,1.188,4.725-4.245,4.422-4.619,5.09-.758,1.353-.06,2.3-3.95,4.237-2.371,1.18-8.966,6.269-11.768,3.964s-3.7-1.9-4.145-28.285c0,0,2.362-2.232,3.769-1.035,2.637,2.245,3.574,1.864,4.2,1.031a2.668,2.668,0,0,1,3.736-.477C798.029,156.262,798.2,164,799.061,165.852Z" transform="translate(-774.086 -131.611)" fill="#eaac90"/>
                <g id="Grupo_134302" data-name="Grupo 134302" transform="translate(4.636 27.931)">
                  <path id="Trazado_127358" data-name="Trazado 127358" d="M811.129,172.752a1.722,1.722,0,0,0-2.82,1.083" transform="translate(-786.409 -165.465)" fill="#d66956"/>
                  <path id="Trazado_127359" data-name="Trazado 127359" d="M784.115,165.775l.872,9.166-1.938-.138C783.171,174.813,784.115,165.775,784.115,165.775Z" transform="translate(-779.618 -163.701)" fill="#d66956"/>
                  <path id="Trazado_127360" data-name="Trazado 127360" d="M790.119,164.552a5.573,5.573,0,0,0-3.255-.165,1.787,1.787,0,0,1,2.06-1.437,1.737,1.737,0,0,1,1.218.729C790.26,163.864,790.475,164.65,790.119,164.552Z" transform="translate(-780.644 -162.938)"/>
                  <path id="Trazado_127361" data-name="Trazado 127361" d="M780.7,165.214c-1.857.037-2.338.589-2.338.589a3.089,3.089,0,0,1,.645-1.655c.251-.3.982-.069,1.4.243C780.578,164.522,781.062,165.178,780.7,165.214Z" transform="translate(-778.357 -163.225)"/>
                  <g id="Grupo_134301" data-name="Grupo 134301" transform="translate(1.352 5.768)">
                    <path id="Trazado_127362" data-name="Trazado 127362" d="M786.893,170.971c.979,1,2.167.831,2.689-.145" transform="translate(-782.004 -170.826)" fill="none" stroke="#000" stroke-linecap="round" stroke-miterlimit="10" stroke-width="0.503"/>
                    <path id="Trazado_127363" data-name="Trazado 127363" d="M780.206,171.531a.987.987,0,0,0,1.894-.138" transform="translate(-780.206 -170.978)" fill="none" stroke="#000" stroke-linecap="round" stroke-miterlimit="10" stroke-width="0.503"/>
                  </g>
                </g>
                <path id="Trazado_127364" data-name="Trazado 127364" d="M787.037,178.877a2.183,2.183,0,0,1-2.743,1.062" transform="translate(-775.317 -139.292)" fill="none" stroke="#000" stroke-linecap="round" stroke-miterlimit="10" stroke-width="0.503"/>
              </g>
            </g>
          </g>
        </g>
        <g id="Grupo_134308" data-name="Grupo 134308" transform="translate(92.278 36.704)">
          <path id="Trazado_127365" data-name="Trazado 127365" d="M868.648,202.1c-6.252,13.716-15.527,32.271-19.646,41,.306-.469-.356-5.432-.21-6.52a175.875,175.875,0,0,1-22.261,11.831c2.634,17.989,12.748,29.5,18.459,32.16,7.342,3.421,10.816.791,10.816.791,15.715-12.573,22.167-65.347,23.328-74.753l7.793-9.63a14.529,14.529,0,0,0,3.36-6.7c.59-3.731,1.185-7,.409-6.835s-2.752,5.147-3.055,6.081a8.773,8.773,0,0,1-1.839,2.966c-.463.314,2.875-9.03,3.012-11.205s.886-5.441.11-5.435-2.608,3.748-2.608,3.748.583-4.508-.195-4.656-1.84,2.81-2.139,4.21-3.651,9.036-4.58,9.354c0,0-1.227-7.52-1.857-8.6s-6.126.9-6.276,1.527,2.5,1.688,3.584,1.523l.818,4.962s-2.452,3.9-4.318,3.608a38.434,38.434,0,0,1-1.514-4.723c.074-.466,2.544-2.04,1.511-4.9s-5.6,8.431-5.6,8.431S868.957,197.986,868.648,202.1Z" transform="translate(-826.531 -174.937)" fill="#eaac90"/>
          <g id="Grupo_134307" data-name="Grupo 134307" transform="translate(45.767 4.194)">
            <path id="Trazado_127366" data-name="Trazado 127366" d="M906.644,180.672a36.767,36.767,0,0,1-5.038,11.986" transform="translate(-892.479 -180.672)" fill="none" stroke="#d66956" stroke-miterlimit="10" stroke-width="0.239"/>
            <path id="Trazado_127367" data-name="Trazado 127367" d="M889.124,198.059c.731-.064,1.636-.038,1.977.612a1.807,1.807,0,0,1,.148.819,19.114,19.114,0,0,1-.53,4.743" transform="translate(-889.124 -185.34)" fill="none" stroke="#d66956" stroke-miterlimit="10" stroke-width="0.239"/>
            <path id="Trazado_127368" data-name="Trazado 127368" d="M903.109,200.511l-3.609-4.473" transform="translate(-891.913 -184.803)" fill="none" stroke="#d66956" stroke-miterlimit="10" stroke-width="0.239"/>
          </g>
        </g>
        <g id="Grupo_134309" data-name="Grupo 134309" transform="translate(0 143.285)">
          <path id="Trazado_127369" data-name="Trazado 127369" d="M867.889,361.928l4.786,4.134a10.35,10.35,0,0,1,5.015,5.548l13.091,5.791c4.052,1.829,6.909,7.022,3.783,6.8l-38.829-1.229Z" transform="translate(-742.103 -331.784)" fill="#eaac90"/>
          <path id="Trazado_127370" data-name="Trazado 127370" d="M824.844,374.475,835.8,349.969s-119.88-48.367-128.847-8.426C700.232,371.48,758.246,373.485,824.844,374.475Z" transform="translate(-701.965 -322.056)" fill="#566b7d"/>
          <path id="Trazado_127371" data-name="Trazado 127371" d="M754.9,370.944l-3.913-22.327S850.8,295.745,860.436,335.53C867.655,365.351,821.474,368.844,754.9,370.944Z" transform="translate(-713.946 -320.702)" fill="#6c858a"/>
          <path id="Trazado_127372" data-name="Trazado 127372" d="M738.013,362.27l-9.308,1.009a8.944,8.944,0,0,0-3.35,3.32c-1.323,2.3-3.353,5.42-5.2,6.649-5.765,3.842-17.189,7.148-17.189,7.148-2.6.919-3.909,5.6-.937,5.338l39.875-3.622Z" transform="translate(-700.327 -331.876)" fill="#eaac90"/>
        </g>
        <path id="Trazado_127373" data-name="Trazado 127373" d="M821.967,257.969l28.284-15.763s-8.106-41.08-25.331-39.849S821.967,257.969,821.967,257.969Z" transform="translate(-731.534 -145.596)" fill="#95c0d9"/>
      </g>
    </g>
    <g id="Grupo_135039" data-name="Grupo 135039" transform="translate(-8521.438 -3690.706)">
      <path id="Trazado_127374" data-name="Trazado 127374" d="M2898.3,879.441a.211.211,0,0,0,0-.035c-3.079-13.485-7.8-14.686-12.884-19.866-2.048-2.086-2.806-4.695-3.219-7.508s-.735-5.615-.97-8.437a15.87,15.87,0,0,0-1.892-7.185c-4.261-6.961-13.164-8.133-20.513-6.315-5.072,1.255-9.256,4.062-11.551,8.805-2.68,5.54-2.44,11.768-.441,17.477,2.784,7.953-.4,17.133,3.958,24.708a.927.927,0,0,0,1.279.363c7.22,2.364,14.822,2.258,22.349,2.237,7.163-.021,17.369,1.331,23.5-3.088A1.025,1.025,0,0,0,2898.3,879.441Z" transform="translate(-65.072)" fill="#522727"/>
      <path id="Trazado_127375" data-name="Trazado 127375" d="M2897.037,1157.974c6.755.705,23.919.135,31.511-.86a3.31,3.31,0,0,0,2.873-3.306c-.089-17.32-1.962-35.741-6.025-51.4a94.691,94.691,0,0,0-3.978-12.056c-.421-1.029-1.916-3.147-1.916-4.275V1075l-25.13-4.57-6.4,55.946,4.3,13.848s.784,7.547,1.819,14.926A3.307,3.307,0,0,0,2897.037,1157.974Z" transform="translate(-88.304 -131.233)" fill="#133d60"/>
      <path id="Trazado_127376" data-name="Trazado 127376" d="M2870.343,881.941s1.156,6.13.764,7.7c-.339,1.357-4.092,2.619-4.092,2.619l2.378,9.487,11.169,10.384,10.907-8.638-1.741-11.63-2.566-2.542a3,3,0,0,1-1.552-1.8c-.711-2.3-1.767-9.26-1.967-17.049-.262-10.209-9.278-1.005-9.278-1.005Z" transform="translate(-76.895 -19.771)" fill="#faa985"/>
      <path id="Trazado_127377" data-name="Trazado 127377" d="M2770.073,980.013l-18.315-31.008c-4.2,4.41-7.659,9.477-11.158,14.444a175.249,175.249,0,0,0-13.522,21.634c-3.707,7.344.98,16.527,6.085,19.145,6.494,3.33,13.417,1.255,18.15-2.4,6.969-5.381,11.483-10.663,18.76-18.324C2770.525,983.028,2769.615,980.484,2770.073,980.013Z" transform="translate(0 -65.14)" fill="#636363"/>
      <path id="Trazado_127378" data-name="Trazado 127378" d="M2861.913,839.673a3.62,3.62,0,0,0-3.062.869c-1.62,1.451-3.906,4.022-4.456,5.976-1.473,5.237-.226,15.212.439,17.705s1.912,4.572,4.89,4.745c2.019.118,8.078,1.156,12.566-5.743s2.494-4.821,2.494-4.821l3.627-2.494a3,3,0,0,0,1.22-3.162l-1.867-7.895a3.782,3.782,0,0,0-3.005-2.851Z" transform="translate(-69.65 -5.598)" fill="#faa985"/>
      <path id="Trazado_127379" data-name="Trazado 127379" d="M2876.756,840.477c-1.82-2.315-4.818-3.772-7.569-4.643a17.091,17.091,0,0,0-18.569,5.462,1.038,1.038,0,0,0-.042,1.272c-.513.957.767,2.142,1.541,1.219a12.9,12.9,0,0,1,4.921-3.723,12.1,12.1,0,0,1,2.692-.8c1.711-.287,1.62.334,2.135,1.776a23.966,23.966,0,0,0,5,7.914c1.659,1.821,4.169,4.766,6.906,4.607,1.2-.07,3.887.321,4.706-.465a4.513,4.513,0,0,0,1.238-3.053A15.338,15.338,0,0,0,2876.756,840.477Z" transform="translate(-67.839 -3.087)" fill="#522727"/>
      <path id="Trazado_127380" data-name="Trazado 127380" d="M2854.918,1083.447c-5.759,1.385-37.565,0-37.565,0s-.131,6.878,0,9.509c0,0-5.908,9.324-10.253,36a166.585,166.585,0,0,0-4.876,33.612,2.327,2.327,0,0,0,2.136,2.422c7.874.642,27.242,1.32,35.149-.329a2.83,2.83,0,0,0,2.179-2.167c2.883-13.039,2.606-25.834,3.544-26.43,1.309-.831,7.2-5.4,7.2-5.4l.655-15.094S2860.677,1082.062,2854.918,1083.447Z" transform="translate(-41.627 -138.297)" fill="#133d60"/>
      <path id="Trazado_127381" data-name="Trazado 127381" d="M2964.927,949.005s26.081,23,28.64,31.27c1.487,4.8,12.521,18.193,12.521,18.193s-4.974,7.723-13.089,11.257c-11.3,4.92-21.8-5.1-29.725-11.6-3.275-2.686-5.954-5.892-9.058-8.74-.594-.544-3.642-2.771-3.712-3.61l-1.963-31.937Z" transform="translate(-121.271 -65.14)" fill="#636363"/>
      <path id="Trazado_127382" data-name="Trazado 127382" d="M2883.731,900.988c-2.686,3.345-12.035,3.026-14.069,2.693a.421.421,0,0,0-.483.489,24.231,24.231,0,0,1,.385,3.463c-.007.729.247,1.984-.627,2.509a30.244,30.244,0,0,1-3.622,1.456l4.024,12.271,10.275,9.228,8.868-6.807,3.305-4.09-1.767-11.583-3.7-1.626c-.652-.311-.539-1.131-1-1.709-.795-1-.96-4.044-1.193-6C2884.055,900.646,2883.668,901.067,2883.731,900.988Z" transform="translate(-75.97 -38.969)" fill="#12263f"/>
      <path id="Trazado_127383" data-name="Trazado 127383" d="M2831.25,998.25c-.773.332-1.566.591-2.329.893-11.589,4.585-22.991,3.818-30.144-2.283-2.556-2.18-2.661-8.382-3.391-9.636-4.062-6.972-7.813-18.757-8.42-24.05l-2.836-8.953s-12.859-14.412-12.084-15.608a38.723,38.723,0,0,1,9.964-10.371c5.416-3.823,13.434-4.473,19.945-5.572q4.55-.768,9.108-1.5c.315-.051,4.094-.9,4.24-.678l4.854,7.293c1.428,2.145,1.286,3.233,3.632,4.481,1.283.682,4.177,1.239,5.17,1.631,0,0,6.285.7,8.442-13.387,0-.016,15.052,2.68,22.943,6.522,4.807,2.341,7.1,3.7,16.248,12.278,3.653,3.426-13.543,3.063-14.575,7.808l-.4,1.828c-.3,1.383.847,3.85,1.084,5.234a44.106,44.106,0,0,1,.619,6.322c.164,6.388-2.775,15.618-3.408,21.925-.491,4.894.987,9.053-2.487,13.123-3.142,3.679-9.293,3.557-9.293,3.557Z" transform="translate(-25.184 -49.602)" fill="#636363"/>
      <path id="Trazado_127384" data-name="Trazado 127384" d="M2893.215,926.646a2.587,2.587,0,0,0-.194-.546,79.737,79.737,0,0,0-4.122-7.192c-.8-1.331-1.631-2.645-2.5-3.933a6.946,6.946,0,0,0-3.03-2.36c-.431-.187-1.235-.667-1.624-.279-.293.292-.138.957-.061,1.3.576,2.565.029,5.332-.229,7.948s-1.728,5.8-4.112,6.906c-1.244.577-7.062-5.076-7.863-7.123-.466-1.191-.994-2.357-1.425-3.562a24.041,24.041,0,0,1-.793-3.007,4.145,4.145,0,0,0-.472-1.674c-.957-1.143-4.535,2.6-4.853,3.455a29.332,29.332,0,0,0-.9,2.915,35.417,35.417,0,0,0-1.074,10.082.615.615,0,0,0,.806.556l5.768-1.889a7.885,7.885,0,0,1,4.166.378l6.112,2.617,1.021.262c.408.19.56-1.163.694-1.221a34.624,34.624,0,0,1,5.344-2.3,18.279,18.279,0,0,1,6.036-.391,11.253,11.253,0,0,0,2.568.081,1.045,1.045,0,0,0,.561-.209A.808.808,0,0,0,2893.215,926.646Z" transform="translate(-73.041 -45.102)" fill="#636363"/>
      <path id="Trazado_127385" data-name="Trazado 127385" d="M2894.9,845.41c-.193-.273-.647-.012-.452.264a16.281,16.281,0,0,1,3.01,9.368.262.262,0,0,0,.524,0A16.779,16.779,0,0,0,2894.9,845.41Z" transform="translate(-91.804 -8.689)" fill="#140508"/>
      <g id="Grupo_134312" data-name="Grupo 134312" transform="translate(2806.128 871.164)">
        <path id="Trazado_127386" data-name="Trazado 127386" d="M2902.373,934.981a.228.228,0,0,1-.109-.428,20.97,20.97,0,0,1,5.447-2.122,43.06,43.06,0,0,1,4.717-.069,22.66,22.66,0,0,0,2.943-.036.816.816,0,0,0,.52-.469c.263-.68-.343-1.85-.668-2.478l-.062-.119a41.677,41.677,0,0,0-4.744-7.751.228.228,0,0,1,.35-.292,42.074,42.074,0,0,1,4.8,7.835l.061.118c.384.74,1.025,1.98.688,2.851a1.264,1.264,0,0,1-.785.733,16.612,16.612,0,0,1-3.111.064,43.008,43.008,0,0,0-4.653.066,21.028,21.028,0,0,0-5.284,2.07A.224.224,0,0,1,2902.373,934.981Z" transform="translate(-2902.145 -921.135)" fill="#3d1b21"/>
      </g>
      <path id="Trazado_127387" data-name="Trazado 127387" d="M3045.347,991.915c-1.009-.519-1.748-1.223-3.562-.612-1.291.435-7.885,6.633-9.007,8.2s-.665,2.058-.665,2.058l-9.108,8.588-1.063,23.075s11.839,5.545,26.717-11.558l.694-.092a1.719,1.719,0,0,0,2.276.151c3.465-2.737,5.12-5.857,8.249-9.673,1.336-1.63.454-3.741-.381-5.347a35.567,35.567,0,0,0-10.974-12.65A26.677,26.677,0,0,0,3045.347,991.915Z" transform="translate(-161.225 -88.035)" fill="#636363"/>
      <path id="Trazado_127388" data-name="Trazado 127388" d="M2898.011,871.852s-2.792,10.39,11.453,19.618l5.872,2.021-7.116-18.753-6.544-5.323Z" transform="translate(-93.646 -21.818)" fill="#522727"/>
      <path id="Trazado_127389" data-name="Trazado 127389" d="M2897.792,866.142c-1.177-.178-2.284.891-2.831,2.01-.708,1.448-.951,3.961.187,5.228,1.686,1.876,3.306-.972,3.863-2.556C2899.574,869.224,2899.836,866.45,2897.792,866.142Z" transform="translate(-91.78 -20.026)" fill="#faa985"/>
      <g id="Grupo_134313" data-name="Grupo 134313" transform="translate(2786.537 870.67)">
        <path id="Trazado_127390" data-name="Trazado 127390" d="M2860.139,934.777a.826.826,0,0,1-.639-.205c-.461-.529-.359-1.645-.284-2.46.015-.169.03-.319.035-.44a34.962,34.962,0,0,1,.354-3.75,59.243,59.243,0,0,1,1.777-7.245l.134-.462a.228.228,0,1,1,.438.127l-.134.462a59.018,59.018,0,0,0-1.765,7.19,34.6,34.6,0,0,0-.349,3.7c-.005.126-.02.283-.036.459-.06.65-.159,1.737.174,2.119.262.3,2.41-.372,4.688-1.468a9.483,9.483,0,0,1,3.331-.635c1.84.366,7.1,1.758,7.158,1.772a.228.228,0,0,1-.117.441c-.053-.014-5.3-1.4-7.13-1.765a8.873,8.873,0,0,0-3.067.608A14.78,14.78,0,0,1,2860.139,934.777Z" transform="translate(-2859.15 -920.05)" fill="#3d1b21"/>
      </g>
      <path id="Trazado_127391" data-name="Trazado 127391" d="M3081.086,973.194a31.129,31.129,0,0,0,4.571-4.8c-.063-.129-1.358-1.937-1.466-2.032.123-2.705-.6-1.981-2.663-3.833-1.183-1.064-2.568-1.922-3.661-3.084-1.666-1.77-1.649-3.724-1.237-6,.36-1.994,1.206-6.138-1.124-7.491-2.042-1.185-3,1.816-3.364,3.481a21.4,21.4,0,0,0-.745,12.546,3.254,3.254,0,0,1-.371,2.427,76.08,76.08,0,0,1-5.32,7.255c-.969,1.178.415,4.111,1.022,5.149,1.578,2.7,3.914,5.473,7.068,6.147a.752.752,0,0,0,.781-.339C3077.135,978.668,3080.6,973.56,3081.086,973.194Z" transform="translate(-184.863 -63.335)" fill="#faa985"/>
      <path id="Trazado_127392" data-name="Trazado 127392" d="M3068.183,996.358a.256.256,0,0,0-.461-.1c-.725,1.019-1.466,2.2-2.016,2.873-.969,1.178.415,4.111,1.022,5.149,1.58,2.7,3.92,5.481,7.081,6.15a.732.732,0,0,0,.76-.329c.793-1.23,2.112-2.739,3.089-4.063a.431.431,0,0,0-.3-.683C3073.037,1004.849,3069.039,1000.809,3068.183,996.358Z" transform="translate(-184.863 -90.804)" fill="#12263f"/>
      <path id="Trazado_127393" data-name="Trazado 127393" d="M2814.074,916.8s-1.639,2.324,4.267,9.141c1.056,1.219.5,2.277-.419,3.409a22.953,22.953,0,0,1-2.854,2.83,54.868,54.868,0,0,1-4.393,3.438l7.331,9.49c1.86-1.51,3.639-3.13,5.361-4.793,2.931-2.831,7.014-5.569,8.641-9.372,3.081-7.2,1.632-14.856.785-22.325l-.054-.474a2.129,2.129,0,0,0-1.743-1.894,1.007,1.007,0,0,0-1.238.709,45.324,45.324,0,0,0-.944,6.478Z" transform="translate(-46.228 -41.859)" fill="#faa985"/>
      <path id="Trazado_127394" data-name="Trazado 127394" d="M2816.106,958.242a.487.487,0,0,0-.616.1c-.608.682-6.1,4.851-7.623,5.919l8.61,9.125c1.86-1.51,3.823-2.914,5.546-4.577q.291-.281.6-.561a.729.729,0,0,0,.183-.823C2821.308,963.924,2819.2,960.142,2816.106,958.242Z" transform="translate(-44.699 -70.13)" fill="#12263f"/>
      <path id="Trazado_127395" data-name="Trazado 127395" d="M2769.3,963.31c-1.473-.546-11.911,7.984-11.911,7.984l-15.969,8.9s-8.707,16.208-10.6,26.6c1.979,3.454,3.617,5.71,9.208,7.656a8.871,8.871,0,0,0,6.108-.067c11.636-4.5,23.3-17.076,23.3-17.076a2.157,2.157,0,0,0,1.964.131c1.279-.411,7.85-7.246,8.9-8.817S2777.415,966.321,2769.3,963.31Z" transform="translate(-2.76 -72.913)" fill="#636363"/>
      <path id="Trazado_127396" data-name="Trazado 127396" d="M2820.3,842.2s9.516,4.124,23.079.171a1.255,1.255,0,0,1,1.612,1.16c.135,4.287.922,14.513-1.99,25.2a14.622,14.622,0,0,1-1.653,3.8c-1.022,1.665-2.887,5.232-6.065,6.143-4.354,1.249-8.45-.234-10.265-2.884-5.417-7.908-6.116-18.256-6.12-26.429C2818.891,843.531,2819.029,842.009,2820.3,842.2Z" transform="translate(-50.702 -6.994)" fill="#8cf5d0"/>
      <path id="Trazado_127397" data-name="Trazado 127397" d="M3071.679,890.026a1.582,1.582,0,0,0-1.639.985c-1.166,3.275-2.691,12.711-2.44,19.488.2,5.436,3.279,15.4,7.776,17.265,4.185,1.734,8.612,1.6,10.774-.776a32.328,32.328,0,0,0,4.307-6.111,43.991,43.991,0,0,0,4.312-13.115c.377-2.125,2.888-14.061,1.091-14.516a16.315,16.315,0,0,0-2.771.21,54.677,54.677,0,0,1-13.345-1.211A67.086,67.086,0,0,1,3071.679,890.026Z" transform="translate(-186.062 -33.016)" fill="#087ed1"/>
      <g id="Grupo_134314" data-name="Grupo 134314" transform="translate(2783.302 836.899)">
        <path id="Trazado_127398" data-name="Trazado 127398" d="M2852.279,880.123a.228.228,0,0,1-.082-.441c11.847-4.548,9.287-33.208,9.26-33.5a.227.227,0,0,1,.206-.248.234.234,0,0,1,.248.205c.113,1.194,2.619,29.292-9.55,33.964A.236.236,0,0,1,2852.279,880.123Z" transform="translate(-2852.051 -845.938)" fill="#3d1b21"/>
      </g>
      <g id="Grupo_134315" data-name="Grupo 134315" transform="translate(2883.663 859.237)">
        <path id="Trazado_127399" data-name="Trazado 127399" d="M3079.726,929.922a.232.232,0,0,1-.107-.026c-4.207-2.216-5.871-7.369-6.391-9.481-1.051-4.265-1.21-9.177-.5-15.459a52.162,52.162,0,0,1,1.709-9.84.228.228,0,1,1,.432.142,51.847,51.847,0,0,0-1.688,9.748c-.7,6.226-.547,11.088.491,15.3.505,2.052,2.117,7.056,6.161,9.187a.228.228,0,0,1-.106.429Z" transform="translate(-3072.295 -894.959)" fill="#3d1b21"/>
      </g>
      <path id="Trazado_127400" data-name="Trazado 127400" d="M2822.31,908.152a.74.74,0,0,0,.526-.5,2.08,2.08,0,0,1,1.567-1.41c1.014-.253,7.414-.063,8.42,4.713s.314,4.259.314,4.259v1.3a1.748,1.748,0,0,1-.746,1.432l-.511.358s.377,2.639-1.759,2.074a2.215,2.215,0,0,1-2.41.708c-1.674-.394-3.559-2.4-3.936-2.781s-2.325.628-2.325.628-3.575.793-3.875-.291c-.38-1.374-.519-2.6.768-3.561.43-.32.251-.759.167-1.2a2.507,2.507,0,0,1,.145-1.62c.582-1.089,1.652-.83,1.6-1.38A2.234,2.234,0,0,1,2822.31,908.152Z" transform="translate(-49.839 -41.828)" fill="#faa985"/>
      <path id="Trazado_127401" data-name="Trazado 127401" d="M3092.6,977.346c.02.022.043.041.064.061a28.132,28.132,0,0,0,6.909-8.711c1.282-2.81-.82-9.574-1.486-10.868-1.073-2.083-2.888-4.288-5.474-4.114-3.159.213-6.5,4.391-5.575,7.478a1.01,1.01,0,0,0,.305.478,6.988,6.988,0,0,0-.972,4.747.923.923,0,0,0,.234.493,3.654,3.654,0,0,0,1.791,4.215,5.55,5.55,0,0,0,.327,2.6,8.108,8.108,0,0,0,3.543,3.487A1.026,1.026,0,0,0,3092.6,977.346Z" transform="translate(-196.248 -67.699)" fill="#faa985"/>
      <g id="Grupo_134316" data-name="Grupo 134316" transform="translate(2784.08 849.369)">
        <path id="Trazado_127402" data-name="Trazado 127402" d="M2854.216,875.522a.456.456,0,0,1-.332-.768,4.351,4.351,0,0,1,5.65-.682.456.456,0,1,1-.514.753,3.47,3.47,0,0,0-4.472.553A.456.456,0,0,1,2854.216,875.522Z" transform="translate(-2853.76 -873.305)" fill="#3d1b21"/>
      </g>
      <g id="Grupo_134317" data-name="Grupo 134317" transform="translate(2770.281 849.459)">
        <path id="Trazado_127403" data-name="Trazado 127403" d="M2828.681,875.629a.458.458,0,0,1-.317-.128,3.284,3.284,0,0,0-4.174-.607.456.456,0,0,1-.516-.751,4.234,4.234,0,0,1,5.324.7.456.456,0,0,1-.317.783Z" transform="translate(-2823.478 -873.501)" fill="#3d1b21"/>
      </g>
      <path id="Trazado_127404" data-name="Trazado 127404" d="M2836.039,885.474c-.1,1.711,1.708,2.989,3.384,3.253a4.5,4.5,0,0,0,4.674-2.371c.579-1.183.241-1.811-.448-1.462a9.121,9.121,0,0,1-3.806,1.056,4.7,4.7,0,0,1-2.254-.427c-.324-.164-1.078-.729-1.427-.35A.471.471,0,0,0,2836.039,885.474Z" transform="translate(-60.032 -30.191)" fill="#fff"/>
      <g id="Grupo_134318" data-name="Grupo 134318" transform="translate(2783.924 843.974)">
        <path id="Trazado_127405" data-name="Trazado 127405" d="M2857.148,862.5a.228.228,0,0,1-.132-.042,3.024,3.024,0,0,0-3.248-.113.228.228,0,1,1-.247-.383,3.505,3.505,0,0,1,3.758.124.228.228,0,0,1-.132.414Z" transform="translate(-2853.417 -861.465)" fill="#3d1b21"/>
      </g>
      <g id="Grupo_134319" data-name="Grupo 134319" transform="translate(2772.594 844.086)">
        <path id="Trazado_127406" data-name="Trazado 127406" d="M2832.01,862.635a.229.229,0,0,1-.109-.027,2.712,2.712,0,0,0-2.979-.022.228.228,0,0,1-.284-.356,3.15,3.15,0,0,1,3.481-.022.228.228,0,0,1-.109.428Z" transform="translate(-2828.553 -861.71)" fill="#3d1b21"/>
      </g>
      <g id="Grupo_134320" data-name="Grupo 134320" transform="translate(2888.397 871.879)">
        <path id="Trazado_127407" data-name="Trazado 127407" d="M3087.983,925.708c-3.879,0-5.186-2.231-5.24-2.326a.456.456,0,0,1,.792-.451c.049.084,1.138,1.866,4.448,1.866a.456.456,0,0,1,0,.911Z" transform="translate(-3082.684 -922.702)" fill="#3d1b21"/>
      </g>
      <g id="Grupo_134321" data-name="Grupo 134321" transform="translate(2900.963 875.308)">
        <path id="Trazado_127408" data-name="Trazado 127408" d="M3113.351,931.564a9.731,9.731,0,0,1-2.78-.448.456.456,0,0,1,.289-.864c.027.009,2.687.88,4.289.03a.456.456,0,0,1,.427.805A4.775,4.775,0,0,1,3113.351,931.564Z" transform="translate(-3110.26 -930.228)" fill="#3d1b21"/>
      </g>
      <g id="Grupo_134322" data-name="Grupo 134322" transform="translate(2893.621 878.322)">
        <path id="Trazado_127409" data-name="Trazado 127409" d="M3100.446,939.671a.227.227,0,0,1-.22-.169,2.9,2.9,0,0,0-2.154-2.1,3.675,3.675,0,0,0-3.53,1.014.228.228,0,0,1-.333-.313,4.142,4.142,0,0,1,3.973-1.143,3.341,3.341,0,0,1,2.483,2.421.227.227,0,0,1-.161.279A.219.219,0,0,1,3100.446,939.671Z" transform="translate(-3094.148 -936.841)" fill="#3d1b21"/>
      </g>
      <g id="Grupo_134323" data-name="Grupo 134323" transform="translate(2890.866 867.231)">
        <path id="Trazado_127410" data-name="Trazado 127410" d="M3089.115,913.626a6.7,6.7,0,0,1-.813-.048.228.228,0,0,1,.056-.452,5.362,5.362,0,0,0,3.3-.589.228.228,0,0,1,.242.386A5.353,5.353,0,0,1,3089.115,913.626Z" transform="translate(-3088.102 -912.503)" fill="#3d1b21"/>
      </g>
      <g id="Grupo_134324" data-name="Grupo 134324" transform="translate(2902.214 868.858)">
        <path id="Trazado_127411" data-name="Trazado 127411" d="M3115.221,918.36a.229.229,0,0,1-.1-.021,3.569,3.569,0,0,1-2.109-1.971.228.228,0,0,1,.436-.133,3.164,3.164,0,0,0,1.866,1.691.228.228,0,0,1-.1.434Z" transform="translate(-3113.005 -916.073)" fill="#3d1b21"/>
      </g>
      <g id="Grupo_134325" data-name="Grupo 134325" transform="translate(2804.786 884.053)">
        <path id="Trazado_127412" data-name="Trazado 127412" d="M2900.769,1013.425a.228.228,0,0,1-.222-.278c.382-1.68,1.056-4.961,1.274-6.5,4.245-29.937,2.643-38.008-2.614-56.939a.228.228,0,0,1,.439-.122c5.276,19,6.883,27.1,2.626,57.125-.22,1.551-.9,4.849-1.281,6.536A.228.228,0,0,1,2900.769,1013.425Z" transform="translate(-2899.199 -949.419)" fill="#3d1b21"/>
      </g>
      <g id="Grupo_134326" data-name="Grupo 134326" transform="translate(2831.885 892.133)">
        <path id="Trazado_127413" data-name="Trazado 127413" d="M2963.26,1001.906l-.027,0a.227.227,0,0,1-.2-.253c1.454-12.34,1.235-22.362-4.343-34.177a.228.228,0,1,1,.412-.2c5.625,11.914,5.847,22,4.383,34.425A.227.227,0,0,1,2963.26,1001.906Z" transform="translate(-2958.669 -967.15)" fill="#3d1b21"/>
      </g>
      <path id="Trazado_127414" data-name="Trazado 127414" d="M2823.191,994.872a61.3,61.3,0,0,0-2.3-8.677c-.11-.316-.615-.18-.5.139a60.023,60.023,0,0,1,1.858,6.536q.371,1.66.655,3.337a11.787,11.787,0,0,1,.384,3.975,6.684,6.684,0,0,1-2.046,3.069c-.768.836-1.538,1.67-2.321,2.49s-1.579,1.629-2.4,2.413a9.374,9.374,0,0,1-1.448,1.3,2.388,2.388,0,0,1-2.436-.083.206.206,0,0,0-.291.135,14.219,14.219,0,0,1-1.876,1.912c-.258.217.114.586.37.37a14.178,14.178,0,0,0,1.819-1.848,2.83,2.83,0,0,0,2.339.164,11.207,11.207,0,0,0,2.764-2.428c1.034-1.028,2.035-2.09,3.025-3.161a20.268,20.268,0,0,0,2.486-2.884C2824.481,999.686,2823.584,996.955,2823.191,994.872Z" transform="translate(-46.068 -85.286)" fill="#3d1b21"/>
      <path id="Trazado_127415" data-name="Trazado 127415" d="M2802.562,1006.5a91.9,91.9,0,0,0-4.065-13.565c-1.409-3.639-2.862-7.629-5.819-10.313-.249-.226-.62.143-.37.37,3.1,2.816,4.6,7.173,6.033,11a92.136,92.136,0,0,1,3.717,12.651C2802.128,1006.965,2802.633,1006.826,2802.562,1006.5Z" transform="translate(-36.185 -83.399)" fill="#3d1b21"/>
      <path id="Trazado_127416" data-name="Trazado 127416" d="M3066.251,1003.931a9.681,9.681,0,0,1-.3-5.764.262.262,0,0,0-.5-.139,10.2,10.2,0,0,0,.3,6.043C3065.86,1004.384,3066.366,1004.249,3066.251,1003.931Z" transform="translate(-184.729 -91.723)" fill="#3d1b21"/>
      <path id="Trazado_127417" data-name="Trazado 127417" d="M3091.8,1028.413a8.5,8.5,0,0,1-6.059-1.38c-.281-.187-.543.266-.264.452a9.044,9.044,0,0,0,6.462,1.433C3092.271,1028.869,3092.13,1028.365,3091.8,1028.413Z" transform="translate(-195.742 -107.588)" fill="#3d1b21"/>
      <path id="Trazado_127418" data-name="Trazado 127418" d="M3058.93,1034.371a22.775,22.775,0,0,1-14.2-18.191c-.041-.33-.565-.334-.524,0a23.326,23.326,0,0,0,14.587,18.7C3059.105,1035,3059.242,1034.492,3058.93,1034.371Z" transform="translate(-173.34 -101.569)" fill="#3d1b21"/>
      <path id="Trazado_127419" data-name="Trazado 127419" d="M3035.076,1014.733c-2.061,2.059-4.443,4.033-5.975,6.537-.176.288.276.551.452.264,1.5-2.456,3.87-4.411,5.893-6.432A.262.262,0,0,0,3035.076,1014.733Z" transform="translate(-165.099 -100.875)" fill="#3d1b21"/>
      <path id="Trazado_127420" data-name="Trazado 127420" d="M2783.266,963.294c-1.5-2.179-4.814.479-6.237,1.477-2.406,1.686-5.42,3.336-7.075,5.837a.218.218,0,0,0-.008.246,69.43,69.43,0,0,0-16.436,9.98c-.261.213.111.581.37.37a68.991,68.991,0,0,1,16.352-9.908.215.215,0,0,0,.086-.34.267.267,0,0,0,.088-.083c1.324-2,3.575-3.276,5.486-4.647,1.24-.89,5.577-4.626,6.922-2.667C2783,963.835,2783.457,963.573,2783.266,963.294Z" transform="translate(-15.063 -72.464)" fill="#3d1b21"/>
      <path id="Trazado_127421" data-name="Trazado 127421" d="M2902.434,1015.517c-5.645,10.438-14.329,18.684-22.874,26.735-.244.23.085.638.331.406,8.615-8.119,17.339-16.427,23.03-26.95C2903.082,1015.411,2902.593,1015.224,2902.434,1015.517Z" transform="translate(-83.677 -101.264)" fill="#3d1b21"/>
      <path id="Trazado_127422" data-name="Trazado 127422" d="M2913.716,1081.069a19.425,19.425,0,0,1-5.962,3.483c-.314.115-.178.621.139.5a20.207,20.207,0,0,0,6.194-3.618C2914.343,1081.22,2913.971,1080.852,2913.716,1081.069Z" transform="translate(-98.972 -136.989)" fill="#3d1b21"/>
      <path id="Trazado_127423" data-name="Trazado 127423" d="M3098.839,963.7a6.274,6.274,0,0,0-4.972-1.7c-2,.329-3.477,2.184-4.773,3.586-.229.247.141.618.37.37a12.392,12.392,0,0,1,3.6-3.166c1.917-.837,3.906.043,5.408,1.284C3098.727,964.279,3099.1,963.911,3098.839,963.7Z" transform="translate(-197.736 -72.175)" fill="#bf5b46"/>
      <path id="Trazado_127424" data-name="Trazado 127424" d="M3091.572,974.339c1.524-1.319,4.233-3.345,6.295-2.057.287.179.55-.274.264-.453-2.358-1.472-5.351.736-7.083,2.272a7.977,7.977,0,0,0-1.878,2.149.264.264,0,0,0-.084-.045,2.865,2.865,0,0,1-1.863-2.926.262.262,0,0,0-.524,0,3.4,3.4,0,0,0,2.248,3.431.259.259,0,0,0,.058.005,1.653,1.653,0,0,0-.055.291c-.062,1.078,1.17,2.082,1.919,2.669a.273.273,0,0,0,.065.033,5.01,5.01,0,0,0,.809,3.619.236.236,0,0,0,.163.124,1.192,1.192,0,0,0,1.87.432,3.4,3.4,0,0,0,1.265-2.833c.014-.337-.51-.336-.524,0a3.422,3.422,0,0,1-.542,1.918,1.848,1.848,0,0,1-.678.592c-.578.277-.929-.224-1.11-.7a.257.257,0,0,0-.188-.164c-.857-1.717-.968-3.42.93-4.543a7.356,7.356,0,0,1,4.831-.93c.33.056.471-.448.14-.5a7.661,7.661,0,0,0-5.926,1.456,3.206,3.206,0,0,0-.849,1.046c-.821-.644-1.839-1.5-1.486-2.646A6.256,6.256,0,0,1,3091.572,974.339Z" transform="translate(-196.472 -77.3)" fill="#bf5b46"/>
      <path id="Trazado_127425" data-name="Trazado 127425" d="M3089.23,989.228a6.568,6.568,0,0,0-4.63,3.375c-.16.3.292.561.452.264a6.072,6.072,0,0,1,4.317-3.134C3089.7,989.672,3089.561,989.168,3089.23,989.228Z" transform="translate(-195.312 -87.032)" fill="#bf5b46"/>
      <path id="Trazado_127426" data-name="Trazado 127426" d="M2882.816,894.326a9.155,9.155,0,0,1-5.807,3.867c-.33.068-.19.573.139.5a9.672,9.672,0,0,0,6.12-4.108C2883.458,894.31,2883,894.048,2882.816,894.326Z" transform="translate(-82.232 -35.313)" fill="#bf5b46"/>
      <path id="Trazado_127427" data-name="Trazado 127427" d="M2899.382,868.546a3.977,3.977,0,0,0-2.256,3.217c-.036.335.488.332.523,0a3.456,3.456,0,0,1,2-2.765C2899.951,868.854,2899.686,868.4,2899.382,868.546Z" transform="translate(-93.284 -21.33)" fill="#bf5b46"/>
      <path id="Trazado_127428" data-name="Trazado 127428" d="M2914.752,907.563c-2.679-4.57-8.653-5.794-11.108-10.527-.156-.3-.607-.035-.452.264,2.465,4.753,8.435,5.967,11.108,10.527A.262.262,0,0,0,2914.752,907.563Z" transform="translate(-96.569 -36.781)" fill="#140508"/>
      <path id="Trazado_127429" data-name="Trazado 127429" d="M2925.865,886.465a6.751,6.751,0,0,1-2.99-4.442c-.037-.331-.561-.335-.524,0a7.206,7.206,0,0,0,3.144,4.812C2925.758,887.04,2926.131,886.672,2925.865,886.465Z" transform="translate(-107.014 -28.545)" fill="#140508"/>
      <path id="Trazado_127430" data-name="Trazado 127430" d="M2862.592,1180.726a38.794,38.794,0,0,0-17.93-10.518.277.277,0,0,0-.139.534,38.259,38.259,0,0,1,17.7,10.376C2862.464,1181.366,2862.835,1180.975,2862.592,1180.726Z" transform="translate(-64.551 -185.54)" fill="#3d1b21"/>
      <path id="Trazado_127431" data-name="Trazado 127431" d="M2914.417,1168.8a35.725,35.725,0,0,1-11.178,10.264,33.475,33.475,0,0,1-3.215,1.636,12.111,12.111,0,0,0-2.888,1.372c-1.35,1.1-1.558,3.029-1.7,4.7-.03.355.494.353.524,0a7.845,7.845,0,0,1,.836-3.505c.759-1.214,2.2-1.516,3.4-2.043a34.331,34.331,0,0,0,5.493-3.057,36.664,36.664,0,0,0,9.182-9.087C2915.071,1168.793,2914.617,1168.516,2914.417,1168.8Z" transform="translate(-92.365 -184.713)" fill="#3d1b21"/>
      <path id="Trazado_127432" data-name="Trazado 127432" d="M2886.993,1104.9a124.577,124.577,0,0,1-23.936,2.694q-5.791.083-11.574-.377c-3.9-.311-8.435-.324-12-2.193-.3-.158-.566.32-.264.479,3.244,1.7,7.213,1.812,10.759,2.139a122.913,122.913,0,0,0,12.577.513q2.411-.025,4.818-.15c-.145,4.54-.508,11.1,3.636,13.837a.221.221,0,0,0,.211.027q-.355,4.848-1.083,9.662c-.053.349.451.5.5.147a124.9,124.9,0,0,0,1.335-23.986,126.647,126.647,0,0,0,15.156-2.257C2887.462,1105.366,2887.322,1104.832,2886.993,1104.9Zm-15.739,16.448c-3.92-2.616-3.5-9.053-3.357-13.374,1.187-.065,2.372-.142,3.557-.241A124.677,124.677,0,0,1,2871.254,1121.35Z" transform="translate(-61.692 -149.994)" fill="#3d1b21"/>
      <g id="Grupo_134327" data-name="Grupo 134327" transform="translate(2773.313 866.02)">
        <path id="Trazado_127433" data-name="Trazado 127433" d="M2839.077,918.867a3.1,3.1,0,0,1-.442-.029.227.227,0,0,1-.179-.151,32.9,32.9,0,0,0-2.855-6.067c-1.488-2.277-5.2-2.318-5.242-2.318a.228.228,0,0,1,0-.456c.163,0,4,.04,5.623,2.524a32.761,32.761,0,0,1,2.855,6.031,2.07,2.07,0,0,0,1.464-.364,1.269,1.269,0,0,0,.345-1.077.228.228,0,0,1,.212-.242.233.233,0,0,1,.242.212,1.7,1.7,0,0,1-.492,1.444A2.3,2.3,0,0,1,2839.077,918.867Z" transform="translate(-2830.132 -909.846)" fill="#bf5b46"/>
      </g>
      <g id="Grupo_134328" data-name="Grupo 134328" transform="translate(2771.285 869.489)">
        <path id="Trazado_127434" data-name="Trazado 127434" d="M2834.361,925.679a1.582,1.582,0,0,1-.881-.261,5.677,5.677,0,0,1-1.249-2.57c-.5-1.486-1.071-3.169-1.97-3.842-1.042-.781-4.342-1.092-4.375-1.095a.228.228,0,1,1,.042-.454c.14.013,3.461.327,4.606,1.184,1.012.757,1.6,2.512,2.128,4.061a6.26,6.26,0,0,0,1.069,2.335,1.3,1.3,0,0,0,1.428-.063,2.123,2.123,0,0,0,.861-2.185.228.228,0,0,1,.45-.069,2.569,2.569,0,0,1-1.066,2.638A1.947,1.947,0,0,1,2834.361,925.679Z" transform="translate(-2825.68 -917.458)" fill="#bf5b46"/>
      </g>
      <g id="Grupo_134329" data-name="Grupo 134329" transform="translate(2769.19 872.762)">
        <path id="Trazado_127435" data-name="Trazado 127435" d="M2829.432,931.933a1.484,1.484,0,0,1-1.272-.767c-.582-1.033-2.539-4.45-3.3-5.076-.89-.732-3.542-.993-3.57-1a.229.229,0,0,1-.2-.249.233.233,0,0,1,.249-.205c.114.011,2.818.277,3.815,1.1.8.658,2.649,3.858,3.408,5.2a1.017,1.017,0,0,0,.923.534c.942-.053,1.281-1.314,1.4-2.364a.228.228,0,0,1,.453.051c-.249,2.218-1.131,2.729-1.827,2.768Z" transform="translate(-2821.084 -924.641)" fill="#bf5b46"/>
      </g>
      <g id="Grupo_134330" data-name="Grupo 134330" transform="translate(2770.836 877.812)">
        <path id="Trazado_127436" data-name="Trazado 127436" d="M2828.918,939.512a1.2,1.2,0,0,1-.581-.16,20.579,20.579,0,0,1-3.585-3.249.228.228,0,1,1,.34-.3,20.671,20.671,0,0,0,3.464,3.153.67.67,0,0,0,.6.056c.6-.237,1.059-1.3,1.185-1.689a.228.228,0,1,1,.433.14c-.021.066-.529,1.607-1.449,1.972A1.1,1.1,0,0,1,2828.918,939.512Z" transform="translate(-2824.695 -935.723)" fill="#bf5b46"/>
      </g>
      <g id="Grupo_134331" data-name="Grupo 134331" transform="translate(2776.629 879.478)">
        <path id="Trazado_127437" data-name="Trazado 127437" d="M2841.526,946.26a.227.227,0,0,1-.224-.189c-.969-5.573-3.687-6.236-3.714-6.242a.229.229,0,0,1-.174-.271.224.224,0,0,1,.269-.175c.124.025,3.041.7,4.068,6.61a.228.228,0,0,1-.185.263A.235.235,0,0,1,2841.526,946.26Z" transform="translate(-2837.408 -939.378)" fill="#bf5b46"/>
      </g>
    </g>
    <g id="Grupo_135037" data-name="Grupo 135037" transform="translate(-6273 -11758.472)">
      <g id="Grupo_134333" data-name="Grupo 134333" transform="translate(940.402 8924.391)">
        <path id="Trazado_126028" data-name="Trazado 126028" d="M1379.965,367.552a.7.7,0,0,1,.276-.383c2.135-2.317,5.911-6.16,9.421-4.553,2.992,1.37,4.021,5.627,3.231,8.56-.962,3.57-3.937,4.067-7.16,3.183a12.445,12.445,0,0,1-5.261-2.677C1379.271,370.493,1379.5,369.047,1379.965,367.552Z" transform="translate(-1294.094 -358.912)" fill="#522727"/>
        <path id="Trazado_126029" data-name="Trazado 126029" d="M1389.568,415.127c1.319-3.051,3.638-5.08,4.136-8.53.461-3.186.2-6.356,1.541-9.372a.678.678,0,0,1,.254-.451,83.434,83.434,0,0,1,6.974-5.668,24.545,24.545,0,0,1,8.449-3.2c5.774-1.282,11.867-1.3,16.929,2.111.281.027,1.113-1.636,1.167-1.267.776,5.231,2.58,10.285,4.32,15.259a21.206,21.206,0,0,1,.966,12.48,68.861,68.861,0,0,0-2.009,7.5,25.334,25.334,0,0,0,.246,8.012c.758,4.339,1.814,8.709-.212,12.869a.814.814,0,0,1-1.484-.057.8.8,0,0,1-.164-.018c-7.408-1.554-15.059-2.714-22.309-4.908-3.616-1.094-7.136-2.532-10.674-3.847-1.821-.677-3.744-1.237-5.509-2.048a2.876,2.876,0,0,1-1.774-1.524c-.5-1.2-.28-2.873-.494-4.12-.282-1.639-.792-3.23-1.1-4.863A14.154,14.154,0,0,1,1389.568,415.127Z" transform="translate(-1341.037 -369.212)" fill="#522727"/>
        <path id="Trazado_126030" data-name="Trazado 126030" d="M1416.584,422.777a.772.772,0,0,1,.357-.7c1.675-1.094,3.735-1.325,5.344-2.534a17.281,17.281,0,0,0,3.757-4.463,78.306,78.306,0,0,0,5.92-11.6.726.726,0,0,1,.049-.087.772.772,0,0,1,.114-.307c2.216-3.578,6.422-4.689,10.167-6.011,2.552-.9,6.846-2.1,6.593,2.161-.132,2.213-1.354,4.38-2.286,6.341q-1.869,3.934-3.743,7.865c-1.18,2.479-2.621,4.978-3.234,7.673-.731,3.209,1.94,4.755,2.616,7.915.253.1-1.553,2.056-1.615,2.417-.971,5.64-9.413,5.859-13.666,4.6a15.242,15.242,0,0,1-10.579-12.63A.736.736,0,0,1,1416.584,422.777Z" transform="translate(-1371.389 -372.979)" fill="#944b3c"/>
        <path id="Trazado_126031" data-name="Trazado 126031" d="M1374.135,466.672c1.243-5.79,3-11.724,6.713-16.453,4.2-5.348,10.4-7.861,16.689-9.885q6.778-2.18,13.646-4.062,3.505-.963,7.031-1.852c1.585-.4,1.7-.579,1.914,1.059.736,5.7,2.995,13.163,9.721,13.938,4.814.555,7.727-2.9,8.944-6.986a1.335,1.335,0,0,1,2.142-.638c8.808,7.434,19.24,13.117,26.223,22.482,7.641,10.249,7.437,22.678,6.678,34.864a1.539,1.539,0,0,1-.619.853c-4.156,1.88-.935,4-3.734,7.767-2.9,3.909-13.817,23.967-15.727,28.327-1.677,3.829-33.769,13.108-39.344,12.722-11.939-.825-35.232-20.614-44.826-32.432C1366.706,512.828,1372.858,472.621,1374.135,466.672Z" transform="translate(-1368.826 -388.692)" fill="#95c0d9"/>
        <path id="Trazado_126032" data-name="Trazado 126032" d="M1398.891,379.466c5.361-.179,13.7.484,16.152,6.191s.858,13.006.457,18.961a34.763,34.763,0,0,0,.631,11c.861,3.365,2.5,6.534,2.708,10.048.212,3.587-1.2,6.78-.332,10.4.7,2.9,1.671,5.538.525,8.458a.765.765,0,0,1-1.129.381,9.208,9.208,0,0,0-4.275-.683c-2.2-.006-3.941.875-5.613-.991-2.838-3.166-5.627-7.126-5.409-11.574.146-2.966.63-4.545-.141-7.537-.664-2.581-3.081-4.243-3.938-6.76-1.874-5.5,1.088-12.3,1.962-17.847,1-6.329-.194-12.4-2.273-18.384a.628.628,0,0,1,0-.463A.816.816,0,0,1,1398.891,379.466Z" transform="translate(-1331.244 -366.038)" fill="#522727"/>
        <path id="Trazado_126033" data-name="Trazado 126033" d="M1413.238,375.747a3.369,3.369,0,0,0,1.95,1.689c-.251.993-.472,1.988-.666,2.959-.1.51-.2,1.021-.287,1.518-.167.933-.312,1.832-.444,2.7-1.011,6.76,2.467,5.657,6.592,6.7,2.075.522,4.549,1.1,6.639.387,1.977-.673,3.28-2.32,4.469-3.893a.679.679,0,0,0,.137-.343c3.051-1.1,6.4-1.639,8.52-4.259,5.308-6.561.7-16.852-5.758-20.986-3.758-2.4-7.519-2-11.01.562-3.328,2.442-5.513,6.388-6.995,10.633-.939.44-1.879.885-2.814,1.325A.766.766,0,0,0,1413.238,375.747Z" transform="translate(-1363.082 -358.242)" fill="#944b3c"/>
        <path id="Trazado_126034" data-name="Trazado 126034" d="M1442.065,375.78a8.889,8.889,0,0,1,3.3-.043c.357.074,1.79.53,1.3,1.232a.635.635,0,0,1-.209.169,7.314,7.314,0,0,1-3.331.963c-.721.034-1.986.17-2.273-.725S1441.187,376,1442.065,375.78Z" transform="translate(-1383.573 -364.448)" fill="#522727"/>
        <path id="Trazado_126035" data-name="Trazado 126035" d="M1397.429,357.036a14.889,14.889,0,0,1,4.5-.305c6.7.434,13.727,2.5,17.671,8.273,3.58,5.241,5.626,13.84,2.278,19.679-.254.444-4.3-.979-4.622-.706a7.587,7.587,0,0,1-4.4,1.854c-4.2.287-7.509-1.789-10.523-4.288-3.58-2.967-6.807-6.2-8.634-10.416-1.637-3.779-2.747-8.858.375-12.226A6.674,6.674,0,0,1,1397.429,357.036Z" transform="translate(-1331.849 -356.614)" fill="#522727"/>
        <path id="Trazado_126036" data-name="Trazado 126036" d="M1397.117,399.927a40.552,40.552,0,0,0,6.5,2.442c2.061.513,4.9,1.045,6.554-.658.225-.231.556.145.332.374-1.466,1.507-3.713,1.386-5.632,1.058a34.012,34.012,0,0,1-7.919-2.742C1396.663,400.272,1396.821,399.8,1397.117,399.927Z" transform="translate(-1321.609 -374.512)" fill="#0a0405"/>
        <path id="Trazado_126037" data-name="Trazado 126037" d="M1419.086,396.364c1.352-1.563,4.083-3.221,6.313-2.273,4.618,1.963-2.731,9.524-6.524,6.39C1417.5,399.347,1417.97,397.512,1419.086,396.364Z" transform="translate(-1350.342 -371.99)" fill="#944b3c"/>
        <path id="Trazado_126038" data-name="Trazado 126038" d="M1426.409,363.474c2.715-5.3,7.349-7.457,14.066-6.794a3.7,3.7,0,0,1,.934.531c.755-.015.944,1.246.1,1.5-2.192.666-3.068,3.366-5.487,3.833-3.5.676-5.665-.753-8.487,1.665C1426.967,364.7,1426.065,364.147,1426.409,363.474Z" transform="translate(-1370.396 -356.564)" fill="#522727"/>
        <path id="Trazado_126039" data-name="Trazado 126039" d="M1421.148,398.259c1.194-.987,3.562-3.054,5.05-1.507.224.233-.152.564-.375.332-1.187-1.233-3.416.784-4.343,1.55C1421.231,398.839,1420.9,398.464,1421.148,398.259Z" transform="translate(-1351.509 -372.976)" fill="#6f2e17"/>
        <path id="Trazado_126040" data-name="Trazado 126040" d="M1456.666,387.161a4.6,4.6,0,0,1,1.346.94c.228.228-.148.56-.374.332a3.932,3.932,0,0,0-1.134-.8C1456.215,387.5,1456.373,387.025,1456.666,387.161Z" transform="translate(-1404.003 -369.225)" fill="#6f2e17"/>
        <path id="Trazado_126041" data-name="Trazado 126041" d="M1455.31,394.1c.924-.265,2.971,1.314,3.333,1.7a.264.264,0,0,1-.121.434,10.9,10.9,0,0,1-3.069-.271,1.17,1.17,0,0,1-.383-.139.417.417,0,0,1-.076-.06,4.484,4.484,0,0,1,.282-1.575Z" transform="translate(-1403.842 -372.095)" fill="#58291e"/>
        <path id="Trazado_126042" data-name="Trazado 126042" d="M1446.3,381.169c.162-.49.609-1.346,1.21-.958.88.568.1,2.463-.8,2.547C1445.9,382.835,1446.149,381.627,1446.3,381.169Z" transform="translate(-1387.832 -366.316)" fill="#0a0405"/>
        <path id="Trazado_126043" data-name="Trazado 126043" d="M1396.887,423.683c-.1-.3.387-.4.491-.1,2.727,7.934-2.653,15.651-2.295,23.609.014.322-.486.289-.5-.03C1394.227,439.24,1399.594,431.558,1396.887,423.683Z" transform="translate(-1307.873 -384.241)" fill="#0a0405"/>
        <path id="Trazado_126044" data-name="Trazado 126044" d="M1385.14,370.172a15.626,15.626,0,0,1,.905,1.339,9.679,9.679,0,0,1,3.912-1.961c1.136-.326,2.5-.886,3.172.423,1.255,2.437-.526,5.848-3.474,5.023-.31-.087-.148-.561.163-.474a2.519,2.519,0,0,0,3.075-1.689c.446-1.352-.006-3.518-1.887-3.046a10.39,10.39,0,0,0-4.7,2.17,15.288,15.288,0,0,1,1.51,3.833c.077.313-.414.416-.49.1a14.714,14.714,0,0,0-1.495-3.766.281.281,0,0,1-.106-.186,14.89,14.89,0,0,0-.956-1.439C1384.572,370.248,1384.945,369.914,1385.14,370.172Z" transform="translate(-1297.483 -361.775)" fill="#0a0405"/>
        <path id="Trazado_126045" data-name="Trazado 126045" d="M1368.656,551.758c1.422-4.368,5.044-3.312,7.028-7.382a127.01,127.01,0,0,0,5.42-13.87l2.51-7.172a31.262,31.262,0,0,1,2.274-5.492c1.286-2.209,5.246-5.928,7.459-2.7a4.383,4.383,0,0,1,1.042.53c.7,8.525.509,16.715.521,25.275q.005,3.194-.129,6.386a30.747,30.747,0,0,1-.459,6.061c-.322,1.25-1.435,1.537-2.578,1.752-2.144.4-1.374,1.037-3.455,1.693-4.565,1.438-13.639,1.159-18.042.764C1370.046,557.58,1367.886,554.124,1368.656,551.758Z" transform="translate(-1289.371 -421.71)" fill="#95c0d9"/>
        <path id="Trazado_126047" data-name="Trazado 126047" d="M1417.418,412.3c-.092-.309.4-.411.49-.1a33.051,33.051,0,0,1,1.627,7.679c.139,2.759-.748,5.12-1.516,7.719-1.688,5.715-.595,11.708.647,17.395a.25.25,0,0,1-.49.1c-1.129-5.168-2.153-10.584-1.083-15.853.568-2.8,1.892-5.369,1.957-8.264A28.516,28.516,0,0,0,1417.418,412.3Z" transform="translate(-1342.204 -379.527)" fill="#0a0405"/>
        <path id="Trazado_126048" data-name="Trazado 126048" d="M1429.361,438.464c.063-.315.537-.15.474.162a14.42,14.42,0,0,0,.157,6.4c.078.313-.412.416-.49.1A14.989,14.989,0,0,1,1429.361,438.464Z" transform="translate(-1359.927 -390.41)" fill="#0a0405"/>
        <g id="Grupo_134337" data-name="Grupo 134337" transform="translate(105.085 60.309) rotate(17)">
          <path id="Trazado_126046" data-name="Trazado 126046" d="M.341,15.816c.973-.716,2.364,2.2,2.622,2.755a17.037,17.037,0,0,1,1.367,5.823c.095-1.57.174-3.136.342-4.7a.252.252,0,0,1-.039-.077c-.783-2.908-1.434-5.849-1.925-8.82-.228-1.379-.469-2.774-.585-4.167A2.571,2.571,0,0,1,2.71,4.441a.271.271,0,0,1,.377.023A6.138,6.138,0,0,1,4.625,7.624c.029-.449.066-.9.122-1.343a6.1,6.1,0,0,1,1.3-3.524.852.852,0,0,1,1.5.2,5.428,5.428,0,0,1,.54,1.631C8.622,3.71,8.925-.157,10.512,0c1.2.122.549,2.367.41,2.972-1,4.391-3.062,8.441-5.084,12.434a.235.235,0,0,1-.046.057C5.421,17.6,5.169,19.742,5.01,21.9a26.046,26.046,0,0,1,2.008-5.2A17.232,17.232,0,0,1,9.2,13.476c.355-.411.848-1.113,1.482-.91,2.863.916-5.012,11.65-5.777,12.841a.248.248,0,0,1-.054.056,64.67,64.67,0,0,0,.909,12.15c.058.339-.465.45-.523.111a64.908,64.908,0,0,1-.919-9.949.25.25,0,0,1-.109-.108A60.231,60.231,0,0,1,.79,21.144,11.272,11.272,0,0,1,.1,18.171C.057,17.634-.2,16.216.341,15.816Z" transform="translate(10.909 0)" fill="#7d4851"/>
          <path id="Trazado_126049" data-name="Trazado 126049" d="M.031,24.81C.483,17.327,10.316,7.011,11.456,5.8c.525-.557,1.876-2.286,2.757-2.126a1.178,1.178,0,0,1,.65.459c.741.893.643,2.254.6,3.408a8.065,8.065,0,0,1-.936,3.918,24.368,24.368,0,0,1-1.617,2.5A.906.906,0,0,0,13.9,15.37l1.9-.575a5.639,5.639,0,0,0,1.837-.805,5.621,5.621,0,0,0,1.6-2.624,5.382,5.382,0,0,0,.309-1.145c.378-2.8-2.02-3.569-3.289-5.18C15.307,3.832,14.337-.006,16.876,0c1.475,0,3.282,2.283,4.329,3.138a19.114,19.114,0,0,1,3.848,3.5c1.318,1.913.967,3.809.207,5.684.02.064.035.129.054.193a4.581,4.581,0,0,1,2,3.294,5.019,5.019,0,0,1-.846,3.072c0,.028,0,.056.008.083a4.721,4.721,0,0,1,.645,5.156,3.525,3.525,0,0,1,1.3,4.159c-.623,1.484-2.362,6.4-11.672,7.939-.893.148,1.422,22.426,1.556,24.2.048.64.425,2.12.1,2.724-.854,1.6-14.759.334-14.914.02-1.237-2.524-2.44-27.194-2.174-29.857C1.422,32.253-.243,29.332.031,24.81Z" transform="translate(0 25.89)" fill="#944b3c"/>
          <path id="Trazado_126050" data-name="Trazado 126050" d="M.027,4.7C-.281,2.684,2.111,1.152,3.474.061c.268-.214.624.185.354.4A14.275,14.275,0,0,0,1.192,2.87c-1.259,1.72-.084,3.1.347,4.788a6.755,6.755,0,0,1-.976,5.478.267.267,0,0,1-.444-.3A6.244,6.244,0,0,0,1.154,8.427C.965,7.133.223,5.983.027,4.7Z" transform="translate(8.355 41.428)" fill="#6f2e17"/>
          <path id="Trazado_126051" data-name="Trazado 126051" d="M1.642,4.743C3.441,2.029,6.134-.34,9.6.04c.341.038.311.571-.032.534C6.643.253,4.259,2.044,2.6,4.3A9.663,9.663,0,0,0,.688,8.071a3.016,3.016,0,0,0,.2,1.9,3.927,3.927,0,0,0,1.468,1.409c.46.307.453.174.747-.266.225-.337.459-.668.689-1C5.4,7.8,7.927,5.941,10.863,6.71c.333.087.159.593-.173.506-2.707-.709-5,1.1-6.454,3.2a24.925,24.925,0,0,0-1.531,2.564,2.613,2.613,0,0,0,.351,3.175.406.406,0,0,0,.636,0c.217-.279.446-.542.652-.783,1.7-1.991,4.371-4.435,7.188-3.319.318.126.148.633-.173.506C9,11.618,6.8,13.513,5.273,15.129a15.417,15.417,0,0,0-1.065,1.252,2.594,2.594,0,0,0-.719,2.04c.115.651,1.324,2.062,2.066,1.848a8.587,8.587,0,0,0,3.417-1.924.771.771,0,0,1,.271-.188.249.249,0,0,1,.293.09c.077.141-.056.3-.179.406a15.8,15.8,0,0,1-1.786,1.328,5.58,5.58,0,0,1-2.07.937,1.105,1.105,0,0,1-.466-.083,3.941,3.941,0,0,1-2.161-2.442,1.737,1.737,0,0,1,.249-1.363c-.848-.871-1.667-1.875-1.381-3.167a6.452,6.452,0,0,1,.74-1.754A10.006,10.006,0,0,1,.856,10.836,3.543,3.543,0,0,1,.01,8.814C-.108,7.323.857,5.927,1.642,4.743Z" transform="translate(14.843 37.925)" fill="#6f2e17"/>
        </g>
        <path id="Trazado_126052" data-name="Trazado 126052" d="M1444.051,361.5a.251.251,0,0,1,.417.278,6.291,6.291,0,0,0-.952,2.444c-.052.315-.552.288-.5-.03A6.906,6.906,0,0,1,1444.051,361.5Z" transform="translate(-1382.614 -358.561)" fill="#0a0405"/>
        <path id="Trazado_126053" data-name="Trazado 126053" d="M1399.357,372.844a30.311,30.311,0,0,0,5.534,7.347c2.408,2.249,6.054,4.733,9.492,3.744.31-.09.411.4.1.49-3.359.967-6.89-1.217-9.341-3.336a29.76,29.76,0,0,1-6.236-8.019C1398.751,372.789,1399.2,372.565,1399.357,372.844Z" transform="translate(-1326.919 -363.253)" fill="#0a0405"/>
        <path id="Trazado_126054" data-name="Trazado 126054" d="M1426.212,368.8a17.831,17.831,0,0,0,3.015,8.7c.18.268-.269.49-.446.226a18.294,18.294,0,0,1-3.069-8.96C1425.689,368.453,1426.188,368.486,1426.212,368.8Z" transform="translate(-1357.237 -361.527)" fill="#0a0405"/>
        <path id="Trazado_126055" data-name="Trazado 126055" d="M1434.45,411.134a5.633,5.633,0,0,0,3.216-.918c.809-.535,1.322-1.355,2.1-1.919.259-.188.594.185.332.375a25.244,25.244,0,0,1-2.589,2.229,6.23,6.23,0,0,1-3.086.732C1434.1,411.63,1434.129,411.13,1434.45,411.134Z" transform="translate(-1373.127 -377.966)" fill="#6f2e17"/>
      </g>
      <g id="Grupo_134334" data-name="Grupo 134334" transform="translate(896.985 8962.146)">
        <path id="Trazado_126118" data-name="Trazado 126118" d="M1465.3,557.957c2.092-6.963,5.079-13.625,7.9-20.312,1.609-3.807,3.1-7.695,4.837-11.443a35.362,35.362,0,0,1,1.614-3.348c.166-.386,1.349-2.178,1.842-1.946,8.907,4.2,11.854,20.1,12.481,26.462.652,6.6,1.255,19.1.628,25.706-.544,5.727-1.241,11.869-3.351,17.259-1.794,4.582-4.853,7.4-9.727,8.322-2.05.388-5.274,1.465-7.321.757-2.1-.727-3.388-3.972-4.359-5.737a57.714,57.714,0,0,1-6.249-17.093C1462.412,570.218,1463.454,564.092,1465.3,557.957Z" transform="translate(-1401.321 -462.369)" fill="#f2ecdb"/>
        <path id="Trazado_126119" data-name="Trazado 126119" d="M1490.641,464.861c.638-4.365,2.894-8.517,2.271-12.965-.828-5.906-2.23-11.352-.566-17.282a18.074,18.074,0,0,1,10.455-12c12.563-5.387,25.177,3.625,31.637,14.237a21.355,21.355,0,0,1,3.017,9.331c.3,3.332-1.369,5.883-1.834,9.086-.63,4.336,2.08,8.113,2.85,12.232a16.709,16.709,0,0,1-.613,9.341c-.837,2.08-2.567,4.868-5.055,5.113a2.584,2.584,0,0,1-2.532-1.364,22.174,22.174,0,0,1-.943-2.153c-2.415-5.269-10.927-5.879-15.9-6.663a12.066,12.066,0,0,0-5.749.046c-1.706.6-2.755,2.118-4.122,3.21-3,2.394-8.056,1.458-10.6-1.168a9.669,9.669,0,0,1-2.464-6.337A14.124,14.124,0,0,1,1490.641,464.861Z" transform="translate(-1461.346 -421.006)" fill="#944846"/>
        <path id="Trazado_126120" data-name="Trazado 126120" d="M1472.159,532.279a22.731,22.731,0,0,1,8.685-16.8c6-5.049,12.4-9.878,19.594-13.1,6.383-2.863,13.936-4.8,20.419-1.186a.728.728,0,0,1,.081.056.787.787,0,0,1,.258.028c6.5,1.825,13.038,3.571,19.515,5.488,5.01,1.484,10.139,3.4,13.878,7.207,4.152,4.224,5.586,10.195,5.726,15.954.121,4.913.177,12.867-3.086,16.716-1.764,2.081-2.466,4.773-3.667,7.161a95.354,95.354,0,0,1-5.244,8.561q-5.52,8.569-11.755,16.648c-4.857,6.294-7.84,13.767-15.829,13.611-10.468-.205-21.078.8-25.141-2.224-5.158-3.842-8.262-10-11.07-15.538a164.993,164.993,0,0,1-8.584-20.772C1473.532,547.107,1471.611,539.721,1472.159,532.279Z" transform="translate(-1472.065 -453.395)" fill="#f2ecdb"/>
        <path id="Trazado_126121" data-name="Trazado 126121" d="M1537.112,492.2c-2.757-1.831-4.277-4.692-5.28-7.737a72.515,72.515,0,0,0,7.053-20.295c-.271-.707-.532-1.419-.776-2.14-.32-.951,1.182-1.36,1.5-.414.021.061.044.122.065.184a.858.858,0,0,1,1.032.956c-.069.421-.146.839-.222,1.257a52.951,52.951,0,0,0,10.715,16.971.741.741,0,0,1,.089.936.831.831,0,0,1-.041.089,95.622,95.622,0,0,0-6.326,12.807C1542.24,495.087,1539.137,493.544,1537.112,492.2Z" transform="translate(-1498.141 -437.6)" fill="#faa985"/>
        <path id="Trazado_126122" data-name="Trazado 126122" d="M1508.629,431.195c6.642-6.751,19.434-4.326,24.993,2.4.192.029-.62-.727-.477-.546,6.12,7.732,5.576,18.577,2.126,26.876-1.311,3.153-3.356,7.27-6.9,8.748-4.009,1.673-9.672-.79-12.948-3.321a7.547,7.547,0,0,1-3.344-4.768,25.411,25.411,0,0,1-.637-4.367c-.055-.742.287-3.582-.194-4.093C1505.792,446.335,1502.274,437.653,1508.629,431.195Z" transform="translate(-1468.959 -423.564)" fill="#faa985"/>
        <path id="Trazado_126123" data-name="Trazado 126123" d="M1501.3,468.527c.276-3.006,3.3-4.671,3.608-7.671.369-3.617-.613-7.175-1.04-10.742-1.241-10.354,2.594-22.379,13.516-25.7a16.06,16.06,0,0,1,11.885,1.333.606.606,0,0,1,.453.232c6.267,3.337,11.1,10.06,11.057,16.9a.777.777,0,0,1-.085.355,18.488,18.488,0,0,1,.846,4.652c.053,1-2.13,2.212-2.182,1.214-.307-5.816-2.909-11.973-7.7-14.59a2.552,2.552,0,0,0-3.418.967,21.531,21.531,0,0,1-8.513,7.7,1.4,1.4,0,0,0-.72,1.307,40.215,40.215,0,0,0,.548,4.715,41.57,41.57,0,0,0,3,9.35c1.107,2.546,2.278,5.2,2.2,8.038-.08,3.038-1.745,5.734-2.02,8.75a19.2,19.2,0,0,0,.416,5.014,4.828,4.828,0,0,1-.2,3.146c-2.464,4.572-9.514-.665-12.153-2.239C1506.366,478.607,1500.782,474.137,1501.3,468.527Z" transform="translate(-1470.353 -422.167)" fill="#944846"/>
        <path id="Trazado_126124" data-name="Trazado 126124" d="M1491.94,502.323c2.214-1.062,5.526-.854,7.884-.721,2.325.131,2.7-1.394,4.7-.111.447-.1,2.906,1.181,2.911,1.765.044,4.476-.346,11.152-4.391,13.025-4.728,2.191-5.751-2.476-6.951-5.946a7.746,7.746,0,0,0-2.9-4.143c-.636-.441-2.021-.855-2.435-1.555C1490.132,503.574,1490.994,502.776,1491.94,502.323Z" transform="translate(-1429.979 -454.122)" fill="#944846"/>
        <path id="Trazado_126125" data-name="Trazado 126125" d="M1551.765,465.9a1.942,1.942,0,0,1,1.826-1.667,2.6,2.6,0,0,1,2.393,2.446c.1,1.056.762,4.989-.156,5.692C1553.369,474.261,1551.426,467.418,1551.765,465.9Z" transform="translate(-1514.69 -438.909)" fill="#faa985"/>
        <path id="Trazado_126126" data-name="Trazado 126126" d="M1529.842,471.456c.1-.647.777-1.949,1.618-1.165a.8.8,0,0,1,.21.414,2.985,2.985,0,0,1-.331,1.808,1.251,1.251,0,0,1-.4.519C1529.948,473.693,1529.755,472.021,1529.842,471.456Z" transform="translate(-1477.258 -441.315)" fill="#0a0405"/>
        <path id="Trazado_126127" data-name="Trazado 126127" d="M1449.291,585.734c.18-.261.618-.7.68-1.007.083-.411-.069-.486-.327-.891a14.387,14.387,0,0,1-2.353-7.587c.08-2.9,1.387-5.709,2.336-8.409.008-.022.019-.039.028-.06a1.784,1.784,0,0,1-.621-1.338c.1-.821,1.3-2.008,1.816-2.605,1.338-1.546,3.27-3.243,5.465-3.081,2.721.2,4.751,2.788,6.328,5.007a4.987,4.987,0,0,1,1.766.763,7.018,7.018,0,0,1,2.048,2.865,4.647,4.647,0,0,1,3.221,4.747c5.713,3.79-1.083,13.272-6.727,17.293-2.65,4.308-4.973,8.838-7.422,13.261-2.682,4.844-5.227,11.573-11.17,13.02a37.3,37.3,0,0,1-13.424-.525c-1.648-.446-4.388-.225-1.236-4.669C1434.563,605.66,1448.468,586.929,1449.291,585.734Zm6.754-15.555a5.058,5.058,0,0,0,.2-2.613.86.86,0,0,0-.226-.469c-.544-.487-2,.965-2.5,1.19-.208.093-.425.178-.648.252a3.922,3.922,0,0,1,.324,1.865,16.647,16.647,0,0,1-.631,2.694,5.456,5.456,0,0,0-.1.647c.137-.122.27-.248.414-.364C1454.152,572.364,1455.467,571.851,1456.045,570.18Z" transform="translate(-1357.877 -478.875)" fill="#faa985"/>
        <path id="Trazado_126128" data-name="Trazado 126128" d="M1511.411,472.185c.085-.627.691-1.883,1.468-1.113a.8.8,0,0,1,.2.4,3.007,3.007,0,0,1-.284,1.75,1.169,1.169,0,0,1-.36.5C1511.53,474.356,1511.336,472.732,1511.411,472.185Z" transform="translate(-1447.867 -441.639)" fill="#0a0405"/>
        <path id="Trazado_126129" data-name="Trazado 126129" d="M1508.915,463.078a2.1,2.1,0,0,1,.229.058,5.927,5.927,0,0,1,2.5,1.695c.413.468.957,1.264.145,1.65-1.039.495-2.146-.067-3.167-.329a2.081,2.081,0,0,1-1.6-1.84C1507,463.28,1508.05,462.912,1508.915,463.078Z" transform="translate(-1444.392 -438.413)" fill="#944846"/>
        <path id="Trazado_126130" data-name="Trazado 126130" d="M1526.361,464.633c.075-.608,1.037-1.11,1.489-1.392a10.214,10.214,0,0,1,2.552-1.162,1.37,1.37,0,0,1,1.83,1.728,3.263,3.263,0,0,1-2.655,1.921,5.475,5.475,0,0,1-2.147.11A1.173,1.173,0,0,1,1526.361,464.633Z" transform="translate(-1475.824 -437.984)" fill="#944846"/>
        <path id="Trazado_126131" data-name="Trazado 126131" d="M1517.325,477.459c.973-.33,1.629-.856,1.56-1.97a8.134,8.134,0,0,0-.592-2.224c-.115-.313.385-.449.5-.138a5.643,5.643,0,0,1,.536,3.267,2.523,2.523,0,0,1-1.867,1.565C1517.146,478.067,1517.01,477.566,1517.325,477.459Z" transform="translate(-1457.543 -442.518)" fill="#bf5b46"/>
        <path id="Trazado_126132" data-name="Trazado 126132" d="M1521.291,478.517a2.02,2.02,0,0,1,1.458.163c.3.152.035.6-.262.448a1.459,1.459,0,0,0-1.059-.111A.26.26,0,0,1,1521.291,478.517Z" transform="translate(-1463.321 -444.794)" fill="#bf5b46"/>
        <path id="Trazado_126133" data-name="Trazado 126133" d="M1479.748,585.353a.237.237,0,0,1,.291-.044c1.039-1.221,2.125-2.4,3.27-3.524.96-.942,2.049-2.157,3.5-2.184,3.44-.064,1.773,4.387.9,6.052-1.419,2.7-3.644,4.395-6.8,4.043-.762-.085-2.551-.061-2.884-.894C1477.607,587.762,1479.107,585.989,1479.748,585.353Z" transform="translate(-1404.045 -486.683)" fill="#faa985"/>
        <path id="Trazado_126134" data-name="Trazado 126134" d="M1488.473,578.94c2.719-4.639,3.066-10.07,2.8-15.325-.016-.333.5-.333.519,0,.266,5.346-.111,10.87-2.875,15.587A.26.26,0,0,1,1488.473,578.94Z" transform="translate(-1413.168 -479.96)" fill="#0a0405"/>
        <path id="Trazado_126135" data-name="Trazado 126135" d="M1448.3,577.3c.091-.174.188-.348.281-.522.022-.1.042-.2.064-.3a.244.244,0,0,1,.014-.15l.036-.083a98.2,98.2,0,0,0,1.591-9.891,11.312,11.312,0,0,1,1.084-4.5c.405-.71,1.368-1.983,2.317-2,2.3-.036.467,5.034.077,5.97-.88,2.113-1.794,4.212-2.711,6.31l.036-.03c3.357-6.623,7.126-13.174,12.626-18.189,1.075-.98,2.6-2.221,4.108-2.327a1.037,1.037,0,0,1,.55.077.91.91,0,0,1,.335,1.052,6.824,6.824,0,0,1-2.02,2.986c-2.921,2.649-6.04,5.084-8.658,8.122q-1.138,1.321-2.205,2.7a.1.1,0,0,0,.133.137,13.084,13.084,0,0,1,3.118-1.723c.907-.331,4.245-.568,3.932,1.25-.116.667-.99,1.1-1.542,1.32-1.167.464-2.432.657-3.61,1.1a21,21,0,0,0-5.72,3.285,1.68,1.68,0,0,0-.362.408c-.382.6-.756,1.212-1.122,1.833-.514,1.03-1.7,3.4-1.719,3.488-.068.3-.508.259-.515-.007A.222.222,0,0,1,1448.3,577.3Z" transform="translate(-1366.512 -475.079)" fill="#7d4851"/>
        <path id="Trazado_126136" data-name="Trazado 126136" d="M1519.83,485.07c1.022-.311,2.2-.881,3.231-.321.293.16.032.608-.262.448-.846-.461-1.991.118-2.831.373C1519.648,485.668,1519.511,485.167,1519.83,485.07Z" transform="translate(-1462.776 -447.305)" fill="#bf5b46"/>
        <path id="Trazado_126137" data-name="Trazado 126137" d="M1553.24,466.172c1.2.673,1.838,2.294,2.215,3.548a.26.26,0,0,1-.5.138c-.33-1.1-.917-2.645-1.976-3.238A.26.26,0,0,1,1553.24,466.172Z" transform="translate(-1514.506 -439.696)" fill="#bf5b46"/>
        <path id="Trazado_126138" data-name="Trazado 126138" d="M1481.975,594.125a67.282,67.282,0,0,1,10.74-10.058,32,32,0,0,1,10.468-5.854c1.611-.461,3.376.265,4.78,1.014a21.159,21.159,0,0,1,4.509,3.3,1.167,1.167,0,0,1-.362,2.011c-1.23.45-2.816-.548-3.747-1.251a4.942,4.942,0,0,0-3.528-1.209,5.7,5.7,0,0,0-3.053,1.948c-.43.463-.821.962-1.206,1.463-.023.031-1.082,1.5-.546,1.429l5.755-.81c1.564-.22,3.262-.609,4.783,0,2.274.916,2.459,3.086,2.057,5.145.029.011.06.018.089.03,2.5,1.011,1.957,3.777.915,5.694.111-.2.865,1.094.891,1.3.33,2.554-3.227,4.694-5.433,4.555-1.455-.091-1.369-.934-2.124-2.088a14.982,14.982,0,0,1-11.64,4.077c-3.265-.292-10.4,20.83-12.755,21.187-3.677.555-16.2,1.667-19.386-.729-.288-.217-.792-.031,0-1.506C1463.629,622.936,1478.726,598.023,1481.975,594.125Z" transform="translate(-1420.794 -486.049)" fill="#faa985"/>
        <path id="Trazado_126139" data-name="Trazado 126139" d="M1481.211,589.65a.259.259,0,0,1,.023-.067,11.385,11.385,0,0,1,3.449-4.075c.283-.179.543.269.262.448a10.119,10.119,0,0,0-3.066,3.562c.628-.107,1.259-.193,1.9-.243.333-.026.331.493,0,.519a20.052,20.052,0,0,0-2.348.323A.264.264,0,0,1,1481.211,589.65Z" transform="translate(-1402.072 -489.112)" fill="#bf5b46"/>
        <path id="Trazado_126140" data-name="Trazado 126140" d="M1466.9,599.308a23.009,23.009,0,0,1,5.16-1.124c1.173-.111,2.284-.143,3.046.86.2.266-.249.525-.448.262-.88-1.16-3.205-.572-4.409-.349a23.641,23.641,0,0,0-3.211.851C1466.718,599.915,1466.582,599.414,1466.9,599.308Z" transform="translate(-1383.731 -494.356)" fill="#bf5b46"/>
        <path id="Trazado_126141" data-name="Trazado 126141" d="M1465.182,608.8a9.946,9.946,0,0,1,2.894-.675,13.136,13.136,0,0,1,3.179.64.26.26,0,0,1-.138.5,11.774,11.774,0,0,0-3.041-.622,10.426,10.426,0,0,0-2.756.656A.26.26,0,0,1,1465.182,608.8Z" transform="translate(-1379.006 -498.494)" fill="#bf5b46"/>
        <path id="Trazado_126142" data-name="Trazado 126142" d="M1468.289,615.466a9.191,9.191,0,0,1,3.637-.169c.329.05.189.55-.138.5a8.509,8.509,0,0,0-3.361.169A.26.26,0,0,1,1468.289,615.466Z" transform="translate(-1381.502 -501.422)" fill="#bf5b46"/>
        <path id="Trazado_126143" data-name="Trazado 126143" d="M1433.841,577.169c.392-2.772,2.377-4.875,4.413-6.625.252-.217.621.149.367.367-1.745,1.5-3.474,3.222-4.1,5.511a5.266,5.266,0,0,0,2.6,6.214.286.286,0,0,1,.042.035,6.808,6.808,0,0,1,.332-1.205,16.75,16.75,0,0,1,4.99-7.222c.26-.2.63.161.367.367a15.121,15.121,0,0,0-3.963,5.087c-1.046,2-2.615,5.823.509,6.941a.292.292,0,0,1,.027.017l.427.151a2.861,2.861,0,0,1,.176-.591,23.114,23.114,0,0,1,5.5-7.3c.243-.23.611.137.367.367a26.762,26.762,0,0,0-3.851,4.5,19.33,19.33,0,0,0-1.375,2.287,3.1,3.1,0,0,0,.355,3.183,1.91,1.91,0,0,0,1.469.734c.743-.025,1.293-.713,1.744-1.226a7.432,7.432,0,0,0,1.073-1.629c.148-.3.6-.037.448.262a7.784,7.784,0,0,1-1.429,2.029c-.849.86-1.733,1.421-2.9.77a3.3,3.3,0,0,1-1.64-2.858c0-.021-1.041-.437-1.156-.507a3.034,3.034,0,0,1-.952-.884,4.261,4.261,0,0,1-.579-2.863.241.241,0,0,1-.245,0A5.706,5.706,0,0,1,1433.841,577.169Z" transform="translate(-1335.263 -482.905)" fill="#bf5b46"/>
        <path id="Trazado_126144" data-name="Trazado 126144" d="M1455.429,587.3c-.192-.274.258-.534.448-.262a11.349,11.349,0,0,1,2.419,5.165,10.4,10.4,0,0,1-1.259,5.456c-.142.3-.59.039-.448-.262a9.216,9.216,0,0,0,1.094-5.755A12.233,12.233,0,0,0,1455.429,587.3Z" transform="translate(-1360.266 -489.715)" fill="#bf5b46"/>
        <path id="Trazado_126145" data-name="Trazado 126145" d="M1465.621,586.085c.839.569,2.434.161,1.686-1.049a6.2,6.2,0,0,0-1.7-1.643c-.271-.192-.012-.641.262-.448.8.567,2.438,1.748,2.166,2.918-.28,1.2-1.839,1.237-2.674.67C1465.084,586.347,1465.344,585.9,1465.621,586.085Z" transform="translate(-1375.775 -488.049)" fill="#bf5b46"/>
        <path id="Trazado_126146" data-name="Trazado 126146" d="M1462.984,606.659c.378.477.486.9,1.045,1.2.94.509,2-.114,2.842-.623,1.532-.925,3.631-2.415,2.075-4.373a.28.28,0,0,1-.053-.113.261.261,0,0,1-.03-.272c.811-1.779,1.453-4.735-1.031-5.514a.243.243,0,0,1-.114-.075.274.274,0,0,1-.026-.316,6.734,6.734,0,0,0-.036-2.724,3.412,3.412,0,0,0-2-2.07c-.3-.155-.034-.6.262-.448a4.056,4.056,0,0,1,2.078,1.906,6.338,6.338,0,0,1,.221,3.321c2.491.978,2.052,3.986,1.165,6.028,1.3,1.741.292,3.4-1.309,4.491a7.548,7.548,0,0,1-3.222,1.528c-1.378.144-1.494-.657-2.229-1.582C1462.411,606.767,1462.776,606.4,1462.984,606.659Z" transform="translate(-1376.214 -491.529)" fill="#bf5b46"/>
        <path id="Trazado_126147" data-name="Trazado 126147" d="M1553.3,568.7c2.01,3.393,2.4,7.3,3.054,11.115a26.616,26.616,0,0,0,1.7,6.217,51.187,51.187,0,0,0,2.939,5.4,88.773,88.773,0,0,1,9.591,23.463.26.26,0,0,1-.5.138,89.211,89.211,0,0,0-9.77-23.732,31.762,31.762,0,0,1-4.346-10.707c-.718-3.967-1.014-8.085-3.113-11.63A.259.259,0,0,1,1553.3,568.7Z" transform="translate(-1529.603 -482.116)" fill="#0a0405"/>
        <path id="Trazado_126148" data-name="Trazado 126148" d="M1537.768,441.521c.252-.217.621.148.367.367a11.281,11.281,0,0,0-3.917,7.731c-.026.331-.545.334-.519,0A11.8,11.8,0,0,1,1537.768,441.521Z" transform="translate(-1486.038 -429.474)" fill="#0a0405"/>
        <path id="Trazado_126149" data-name="Trazado 126149" d="M1553.785,453.437c.029-.33.548-.333.519,0a20.063,20.063,0,0,0,.237,5.388c.059.326-.441.466-.5.138A20.6,20.6,0,0,1,1553.785,453.437Z" transform="translate(-1514.085 -434.334)" fill="#0a0405"/>
        <path id="Trazado_126150" data-name="Trazado 126150" d="M1551.792,490.2c.567-3.471,3.348-6.346,3.1-9.965-.023-.333.5-.332.519,0,.217,3.151-1.811,5.661-2.738,8.529a11.006,11.006,0,0,0,1.655,9.8c.2.271-.253.53-.448.262A11.555,11.555,0,0,1,1551.792,490.2Z" transform="translate(-1513.759 -445.43)" fill="#0a0405"/>
        <path id="Trazado_126151" data-name="Trazado 126151" d="M1503.089,466.438a14.534,14.534,0,0,1,.714,5.6c-.023.331-.541.333-.519,0a14.189,14.189,0,0,0-.7-5.464C1502.483,466.258,1502.984,466.122,1503.089,466.438Z" transform="translate(-1433.419 -439.746)" fill="#0a0405"/>
        <path id="Trazado_126152" data-name="Trazado 126152" d="M1510.967,498.363c.031-.329.55-.333.519,0-.216,2.271-1.833,4.131-1.881,6.424a.26.26,0,0,1-.519,0C1509.135,502.475,1510.75,500.633,1510.967,498.363Z" transform="translate(-1444.885 -452.938)" fill="#0a0405"/>
        <path id="Trazado_126153" data-name="Trazado 126153" d="M1557.544,447.071a.259.259,0,0,1,.5.138,10.458,10.458,0,0,0,.812,7.937c.156.295-.291.557-.448.262A10.991,10.991,0,0,1,1557.544,447.071Z" transform="translate(-1520.413 -431.725)" fill="#0a0405"/>
      </g>
      <g id="Grupo_134335" data-name="Grupo 134335" transform="translate(910.101 9006.743)">
        <path id="Trazado_126196" data-name="Trazado 126196" d="M1561.863,508.036a5.632,5.632,0,0,1,1.075-2,2.547,2.547,0,0,1,.966-.695,6.05,6.05,0,0,1,1.2-.127c1.318-3.118,2.5-3.845,4.188-2.975-.294-2.375,2.33-3.306,3.78-2.746.847-1.176,1.188-2.165,2.827-2.353s3.259,1.326,4.184,2.411a9.371,9.371,0,0,1,1.189,1.795c1.584.782,3.25,1.957,3.051,3.541a2.876,2.876,0,0,1-1.629,2.233c.164,1.891.121,3.976-1.021,5.471a.814.814,0,0,1-.181.17,2.175,2.175,0,0,1-.607.484,2.063,2.063,0,0,1-2.444-.48,2.085,2.085,0,0,1-2.082.33,4.286,4.286,0,0,1-2.063-.963,2.055,2.055,0,0,1-2,1.573c-.4-.029-.776-.065-1.133-.106a1.71,1.71,0,0,1-.547.8c-1.1.913-2.8.24-3.777-.6a.759.759,0,0,1-.3-.26,5.057,5.057,0,0,0-2.014-1.759c-.642-.308-1.455-.3-2.042-.655C1561.495,510.525,1561.494,509.221,1561.863,508.036Z" transform="translate(-1561.636 -497.126)" fill="#944b3c"/>
        <path id="Trazado_126197" data-name="Trazado 126197" d="M1571.712,502.185c3.71,2.555,4.865,6.837,4.534,11-.025.313-.544.315-.518,0,.316-3.967-.718-8.123-4.277-10.573C1571.183,502.425,1571.441,502,1571.712,502.185Z" transform="translate(-1559.286 -499.202)" fill="#6f2e17"/>
        <path id="Trazado_126198" data-name="Trazado 126198" d="M1579.063,507.246a15.814,15.814,0,0,1,4.46,7.942c.068.308-.432.439-.5.13a15.333,15.333,0,0,0-4.326-7.725C1578.464,507.366,1578.83,507.018,1579.063,507.246Z" transform="translate(-1570.783 -501.286)" fill="#6f2e17"/>
        <path id="Trazado_126199" data-name="Trazado 126199" d="M1583.96,512.356a11.729,11.729,0,0,1,5.562,6.613c.1.3-.4.431-.5.131a11.2,11.2,0,0,0-5.324-6.32C1583.41,512.62,1583.671,512.2,1583.96,512.356Z" transform="translate(-1579.689 -503.419)" fill="#6f2e17"/>
        <path id="Trazado_126200" data-name="Trazado 126200" d="M1565,505.565a17.068,17.068,0,0,1,.869,4.3c.023.315-.5.314-.518,0a16.54,16.54,0,0,0-.851-4.169C1564.394,505.394,1564.893,505.265,1565,505.565Z" transform="translate(-1544.834 -500.55)" fill="#6f2e17"/>
      </g>
    </g>
  </g>
</svg>
