<svg xmlns="http://www.w3.org/2000/svg" width="118.553" height="91.901" viewBox="0 0 118.553 91.901">
  <g id="Grupo_133804" data-name="Grupo 133804" transform="translate(-221.076 -3021)">
    <g id="Grupo_78348" data-name="Grupo 78348" transform="translate(221.076 3021)">
      <path id="Trazado_113319" data-name="Trazado 113319" d="M1572.434,1094v-8.714h-8.783v-6.015h8.783v-8.714h5.855v8.714h8.806v6.015h-8.806V1094Z" transform="translate(-1563.651 -1070.555)" fill="#5bd3a9"/>
    </g>
    <g id="WEk4HE" transform="translate(-2218.568 2773.24)">
      <g id="Grupo_133644" data-name="Grupo 133644" transform="translate(2476.512 247.761)">
        <path id="Trazado_126662" data-name="Trazado 126662" d="M2485.3,264.7c-1.775.411-3.4.775-5.015,1.163a1.4,1.4,0,0,0-.925,2.362q2.588,3.923,5.212,7.821c.592.882,1.335,1.107,2.032.66.72-.463.811-1.28.211-2.187-1.249-1.893-2.513-3.776-3.766-5.666-.139-.21-.25-.44-.41-.723,1.739-.408,3.393-.778,5.035-1.187a1.344,1.344,0,0,0,.9-2.241q-3.728-5.584-7.509-11.132a1.362,1.362,0,0,0-1.939-.467,1.325,1.325,0,0,0-.317,1.963c.477.756.994,1.488,1.495,2.231Zm10.671-5.962c1.24-.072,2.365-.12,3.486-.208a1.308,1.308,0,0,0,1.264-1.868c-.895-2.178-1.854-4.331-2.829-6.475a1.276,1.276,0,0,0-1.8-.658,1.331,1.331,0,0,0-.631,1.826c.494,1.215,1.04,2.41,1.559,3.614.122.284.228.574.435,1.1-1.3,0-2.407-.058-3.5.017-1.062.071-1.661.871-1.3,1.771.973,2.4,2,4.785,3.066,7.151a1.235,1.235,0,0,0,1.686.6,1.326,1.326,0,0,0,.754-1.7c-.172-.507-.414-.99-.626-1.484Zm22.18,57.958a12.351,12.351,0,0,0-8.6,3.418,1.41,1.41,0,0,0-.258,2.12c.574.6,1.29.58,2.063-.072.16-.134.306-.284.467-.418a9.79,9.79,0,0,1,13.059.389,1.36,1.36,0,0,0,2.123.064,1.417,1.417,0,0,0-.266-2.057A12.35,12.35,0,0,0,2518.152,316.7Zm9.842-10.208c1.191-1.145,2.286-2.15,3.321-3.213a1.29,1.29,0,0,0,.008-1.92,1.34,1.34,0,0,0-1.927.023c-1.621,1.582-3.233,3.176-4.8,4.81a1.332,1.332,0,0,0,.585,2.285c2.35.763,4.713,1.482,7.081,2.183a1.3,1.3,0,0,0,1.705-.755,1.336,1.336,0,0,0-.981-1.865C2531.4,307.52,2529.809,307.049,2527.994,306.489Zm-20.03-.048a2.374,2.374,0,0,1-.279.162c-1.477.464-2.955.923-4.432,1.388-.988.31-1.439.968-1.215,1.759a1.414,1.414,0,0,0,1.96.853c2.224-.672,4.445-1.351,6.659-2.054,1.392-.441,1.658-1.527.631-2.576-1.462-1.492-2.944-2.964-4.431-4.431a1.4,1.4,0,0,0-2.124-.167c-.59.611-.524,1.368.223,2.117C2505.925,304.464,2506.913,305.413,2507.964,306.441Z" transform="translate(-2476.937 -248.104)" fill="#fff"/>
        <path id="Trazado_126663" data-name="Trazado 126663" d="M2554.661,247.761a11.111,11.111,0,0,1,2.33,1.692,3.765,3.765,0,0,1,.179,4.523q-3.2,5.649-6.406,11.3c-.16.283-.306.574-.563,1.061.712,0,1.285,0,1.858,0,.986.007,1.974-.02,2.958.039a3.258,3.258,0,0,1,3,2.3,3.22,3.22,0,0,1-1.042,3.642c-1.832,1.535-3.71,3.014-5.571,4.514-1.559,1.257-3.13,2.5-4.668,3.779a1.071,1.071,0,0,0-.392.841,35.1,35.1,0,0,1,1.3,11.076,3.557,3.557,0,0,0,.039.4c.71.12,1.415.2,2.1.36a10.7,10.7,0,0,1-.948,21.034c-1.568.213-1.515.227-1.929,1.815-.4,1.555-.906,3.09-1.423,4.614a1.374,1.374,0,1,1-2.541-.931,30.21,30.21,0,0,0,1.971-11.846c-.048-3.706-.01-7.412-.01-11.118v-1.217c-1.555,0-3.015.066-4.467-.011-9.726-.515-19.217-2.15-28.2-6.1a42.119,42.119,0,0,1-10.005-6.075c-.242.624-.427,1.2-.68,1.743A19.789,19.789,0,0,1,2491.4,295a1.277,1.277,0,0,0-.919,1.37c.075,5.109-.187,10.24.191,15.324.731,9.859,5.645,17.29,14.324,21.947a26.966,26.966,0,0,0,35.219-8.726,3.577,3.577,0,0,1,.613-.764,1.231,1.231,0,0,1,1.715.014,1.26,1.26,0,0,1,.2,1.848,41.063,41.063,0,0,1-3.72,4.581c-8.528,8.258-18.654,11.1-30.005,7.614s-18.218-11.47-20.724-23.123c-.032-.146-.065-.291-.108-.433a.6.6,0,0,0-.1-.145,10.9,10.9,0,0,1-11.575-10.924c.095-5.246,4.12-10.556,11.268-10.633,0-.5.009-.994,0-1.492a30.055,30.055,0,0,1,4.586-17.132c.415-.656.861-1.293,1.319-1.92.642-.876,1.456-1.082,2.127-.567.694.531.718,1.278.038,2.2a27.174,27.174,0,0,0-4.57,9.743,31.7,31.7,0,0,0-.761,8.464c.11.009.212.051.276.018,4.054-2.065,7.236-4.948,8.683-9.4.237-.727.168-1.552.4-2.279a2.078,2.078,0,0,1,.942-1.234,1.621,1.621,0,0,1,1.411.37c4.119,4.148,9.172,6.733,14.567,8.713a82.722,82.722,0,0,0,26.445,4.58c.5.014,1.009,0,1.508,0,.489-1.768-.076-7.989-.933-10.069l-5.652,4.544c-.815.655-1.614,1.33-2.449,1.96a3.309,3.309,0,0,1-5.181-3.787c1.163-3.164,2.367-6.313,3.552-9.469.113-.3.222-.6.378-1.025-1.4,0-2.677,0-3.954,0-3.016-.013-4.551-2.442-3.251-5.152.682-1.422,1.38-2.837,2.186-4.488-1.9-.615-3.7-1.36-5.564-1.768a26.852,26.852,0,0,0-23.48,5.487,2.9,2.9,0,0,1-.9.56,1.228,1.228,0,0,1-1.534-.6,1.247,1.247,0,0,1,.354-1.754,49,49,0,0,1,5.652-3.761,29.382,29.382,0,0,1,26.023-.745c.164.071.329.138.565.236.15-.291.3-.572.442-.86,1.817-3.729,3.673-7.44,5.428-11.2a5.654,5.654,0,0,1,3.337-3.361Zm-7.463,2.712c-2.062,0-4.124.014-6.186-.007a1.7,1.7,0,0,0-1.711,1.038q-4.767,9.828-9.551,19.647c-.449.924-.233,1.268.793,1.275,1.793.014,3.586,0,5.379.007,1.7.009,2.221.757,1.625,2.34-1.44,3.825-2.894,7.645-4.307,11.48a.694.694,0,1,0,1.072.814q10.322-8.263,20.6-16.578c.254-.206.329-.632.488-.956-.319-.154-.635-.437-.957-.443-2-.042-4-.019-6.007-.022-1.881,0-2.426-.933-1.5-2.567q3.882-6.859,7.77-13.715c.762-1.349.216-2.3-1.321-2.31C2551.323,250.465,2549.261,250.473,2547.2,250.473Zm-59.465,45.274a7.985,7.985,0,1,0,0,15.941v-8.657a2.785,2.785,0,0,0-2.74,1.488,1.315,1.315,0,0,1-1.872.675,1.386,1.386,0,0,1-.5-2.009,4.7,4.7,0,0,1,2.8-2.492,22.178,22.178,0,0,1,2.313-.494Zm59.916,15.94a7.974,7.974,0,0,0,6.247-12.6,7.546,7.546,0,0,0-6.2-3.317v4.507c.313.027.577.041.839.073a5.052,5.052,0,0,1,4.256,2.857,1.565,1.565,0,0,1,.14,1.177,2.012,2.012,0,0,1-1.073.917,1.2,1.2,0,0,1-1.445-.782,2.633,2.633,0,0,0-2.762-1.454Z" transform="translate(-2476.512 -247.761)" fill="#fff"/>
        <path id="Trazado_126664" data-name="Trazado 126664" d="M2485.3,265.641l-5-7.405c-.5-.742-1.018-1.474-1.495-2.231a1.325,1.325,0,0,1,.317-1.963,1.362,1.362,0,0,1,1.939.467q3.773,5.554,7.509,11.132a1.344,1.344,0,0,1-.9,2.241c-1.643.41-3.3.779-5.035,1.187.16.284.271.514.41.723,1.253,1.89,2.517,3.774,3.766,5.666.6.907.509,1.725-.211,2.187-.7.448-1.44.222-2.032-.66q-2.618-3.9-5.212-7.821a1.4,1.4,0,0,1,.925-2.362C2481.9,266.415,2483.526,266.051,2485.3,265.641Z" transform="translate(-2476.937 -249.044)" fill="#fff"/>
        <path id="Trazado_126665" data-name="Trazado 126665" d="M2499.749,258.739l1.567,3.68c.211.494.454.976.626,1.484a1.326,1.326,0,0,1-.754,1.7,1.234,1.234,0,0,1-1.685-.6c-1.062-2.366-2.093-4.747-3.066-7.151-.364-.9.236-1.7,1.3-1.771,1.095-.074,2.2-.017,3.5-.017-.207-.526-.312-.817-.435-1.1-.519-1.2-1.065-2.4-1.559-3.614a1.33,1.33,0,0,1,.63-1.826,1.276,1.276,0,0,1,1.8.658c.975,2.144,1.934,4.3,2.829,6.475a1.308,1.308,0,0,1-1.264,1.868C2502.113,258.62,2500.988,258.668,2499.749,258.739Z" transform="translate(-2480.714 -248.104)" fill="#fff"/>
        <path id="Trazado_126666" data-name="Trazado 126666" d="M2526.332,334.812a12.35,12.35,0,0,1,8.589,3.444,1.417,1.417,0,0,1,.267,2.057,1.36,1.36,0,0,1-2.123-.064,9.789,9.789,0,0,0-13.059-.389c-.16.133-.307.284-.467.418-.773.652-1.489.675-2.063.072a1.41,1.41,0,0,1,.258-2.12A12.35,12.35,0,0,1,2526.332,334.812Z" transform="translate(-2485.119 -266.218)" fill="#fff"/>
        <path id="Trazado_126667" data-name="Trazado 126667" d="M2540.274,320.369c1.816.559,3.41,1.031,4.99,1.547a1.337,1.337,0,0,1,.981,1.865,1.3,1.3,0,0,1-1.705.755c-2.368-.7-4.732-1.42-7.082-2.183a1.332,1.332,0,0,1-.585-2.285c1.569-1.634,3.181-3.228,4.8-4.81a1.34,1.34,0,0,1,1.927-.023,1.29,1.29,0,0,1-.008,1.92C2542.56,318.219,2541.465,319.224,2540.274,320.369Z" transform="translate(-2489.218 -261.983)" fill="#fff"/>
        <path id="Trazado_126668" data-name="Trazado 126668" d="M2514.277,320.322c-1.05-1.028-2.039-1.978-3.007-2.948-.747-.749-.813-1.507-.223-2.117a1.4,1.4,0,0,1,2.124.167c1.487,1.466,2.969,2.938,4.431,4.431,1.027,1.049.76,2.135-.631,2.576-2.214.7-4.435,1.382-6.659,2.054a1.414,1.414,0,0,1-1.96-.853c-.225-.791.227-1.448,1.214-1.759,1.477-.465,2.956-.924,4.432-1.388A2.39,2.39,0,0,0,2514.277,320.322Z" transform="translate(-2483.251 -261.985)" fill="#fff"/>
      </g>
    </g>
  </g>
</svg>
