<svg xmlns="http://www.w3.org/2000/svg" width="109.8" height="83.895" viewBox="0 0 109.8 83.895">
  <g id="Grupo_134142" data-name="Grupo 134142" transform="translate(-221.076 -3021)">
    <g id="Grupo_78348" data-name="Grupo 78348" transform="translate(221.076 3021)">
      <path id="Trazado_113319" data-name="Trazado 113319" d="M1572.434,1094v-8.714h-8.783v-6.015h8.783v-8.714h5.855v8.714h8.806v6.015h-8.806V1094Z" transform="translate(-1563.651 -1070.555)" fill="#5bd3a9"/>
    </g>
    <path id="Trazado_126669" data-name="Trazado 126669" d="M884.675,1921.737a25.559,25.559,0,0,1,36.19,35.833c5.11,7.309,3.033,12.76-5.5,14.25-.391,5.04-3.191,7.755-8.3,8.242-.42,5.088-3.265,7.832-8.287,8.325-1.561,8.279-7.227,10.539-13.966,5.623-5.113,4.97-13.983,1.894-13.963-5.569-5.8-1.214-7.3-2.706-8.291-8.337-4.98-.44-7.81-3.127-8.278-8.322-3.471-.2-6.272-1.617-7.6-5.006-1.3-3.316-.4-6.272,2.042-8.911a26.171,26.171,0,0,1-5.578-21.342,24.438,24.438,0,0,1,7.82-14.214A25.91,25.91,0,0,1,884.675,1921.737Zm.938,51.939c.33.036.676.062,1.02.11,3.052.428,5.471,1.932,6.476,4.851A11.016,11.016,0,0,0,896.18,1983a3.6,3.6,0,0,0,5.436.124,3.7,3.7,0,0,0,.066-5.545c-.335-.356-.69-.694-1.035-1.04-3.992-3.993-8.008-7.962-11.945-12.008a2.693,2.693,0,0,1-.7-2.084,2.174,2.174,0,0,1,1.523-1.4,3.194,3.194,0,0,1,2.156.926c4.29,4.2,8.508,8.466,12.762,12.7a3.5,3.5,0,0,0,4.593.684,3.708,3.708,0,0,0,.866-6.145c-4.29-4.323-8.613-8.615-12.91-12.931-1.139-1.145-1.133-2.335-.041-3.193.951-.746,1.856-.625,2.929.444q5.2,5.178,10.376,10.373c.911.912,1.795,1.855,2.744,2.725a4.121,4.121,0,0,0,5.574-.145c1.507-1.363,1.649-3.028.315-4.877a17.837,17.837,0,0,0-2.027-2.29c-2.129-2.082-4.312-4.11-6.434-6.2-.421-.415-.969-1.042-.918-1.513a2.637,2.637,0,0,1,1.027-1.915,2.533,2.533,0,0,1,2.244.27c1.764,1.475,3.356,3.155,5.066,4.81a21.512,21.512,0,0,0-6.965-32.811,21.315,21.315,0,0,0-23.966,3.266c-4.782,4.516-9.361,9.249-13.966,13.947a4.352,4.352,0,0,0-1.056,2.343,3.9,3.9,0,0,0,2.391,3.818,3.519,3.519,0,0,0,4.253-.893q6.2-6.156,12.361-12.347c1.639-1.639,2.46-1.707,4.141-.054,3.358,3.3,6.655,6.672,9.958,10.032,1.074,1.091,1.13,2.144.249,3.027-.911.913-2.029.834-3.135-.265q-4.114-4.091-8.209-8.2c-.3-.3-.63-.576-1.134-1.033a14.094,14.094,0,0,1-.97,1.232q-5.174,5.2-10.367,10.38a7.514,7.514,0,0,1-5.155,2.471,8.557,8.557,0,0,1-7.79-5.113c-1.322-2.956-.739-5.878,1.761-8.408,3.5-3.542,7.038-7.046,10.555-10.57.3-.3.57-.625.853-.938-7.114-6.293-19.865-6.973-28.245.837-9.234,8.6-7.637,20.9-1.566,29.523,1.346-1.408,2.583-2.877,4-4.147A7.8,7.8,0,0,1,868.7,1955.1c.143.677.228,1.368.339,2.045a8.121,8.121,0,0,1,5.844,2.377,8.393,8.393,0,0,1,2.379,5.85C882.512,1965.958,884.76,1968.2,885.613,1973.676Zm-8.563-4.271a8.1,8.1,0,0,0-2.046,1.14c-2.446,2.32-4.825,4.714-7.17,7.137a3.912,3.912,0,0,0,.013,5.513,3.8,3.8,0,0,0,5.4-.048c2.427-2.341,4.79-4.748,7.159-7.148a3.353,3.353,0,0,0,.732-4.035C880.426,1970.44,879.185,1969.6,877.05,1969.405Zm-2.31,19.171a4.409,4.409,0,0,0,2.5,3.643,3.635,3.635,0,0,0,4.3-.765q3.582-3.478,7.067-7.055a3.639,3.639,0,0,0-.07-5.433,3.6,3.6,0,0,0-5.433.036c-2.317,2.265-4.636,4.531-6.849,6.894A12.7,12.7,0,0,0,874.74,1988.576Zm-20.336-20.9a4.82,4.82,0,0,0,1.781-.769c2.725-2.6,5.433-5.226,7.986-7.992,1.3-1.41.906-3.472-.59-4.89a3.487,3.487,0,0,0-4.923-.295q-3.956,3.753-7.707,7.716a3.452,3.452,0,0,0-.391,4.109C851.244,1966.951,852.41,1967.658,854.4,1967.676Zm19.035-2.336a4.985,4.985,0,0,0-2.828-3.862,3.447,3.447,0,0,0-4.022.84c-2.33,2.311-4.663,4.621-6.958,6.966a3.9,3.9,0,0,0-.049,5.6,3.8,3.8,0,0,0,5.48-.133c2.353-2.288,4.689-4.6,6.947-6.976A12.226,12.226,0,0,0,873.439,1965.341Zm14.32,25.745c2.225,2,4.558,1.965,6.1-.023a3.737,3.737,0,0,0-.907-5.422Z" transform="translate(-595.834 1108.312)" fill="#fff"/>
  </g>
</svg>
