<svg xmlns="http://www.w3.org/2000/svg" width="371.974" height="224.109" viewBox="0 0 371.974 224.109">
  <g id="Grupo_134227" data-name="Grupo 134227" transform="translate(-193.74 -6304.468)">
    <g id="Grupo_131178" data-name="Grupo 131178" transform="translate(-39.069 6290.518)">
      <path id="Trazado_123571" data-name="Trazado 123571" d="M496.41,46.182c-6.537-2.528-11.774-6.418-17.73-9.584-23.228-12.348-58.295-11.985-79.942.826-9.549,5.651-16.633,13.354-27.491,17.743-19,7.678-43.741,6.713-61.55,16.014-10.62,5.546-12.665,11.642-13.149,20.291-.635,11.309-5.966,22.406-15.124,31.586-9.742,9.765-23.867,17.632-29.663,28.872-3.56,6.907-3.619,14.517-2.589,21.908,3.137,22.54,22.157,44.165,54.546,51.532,14.567,3.314,30.311,3.5,44.517,7.548,8.618,2.456,16.337,6.244,24.547,9.331,33.217,12.487,75.011,12.582,107.312.244,9.519-3.636,18.337-8.294,28.711-10.62,9.441-2.117,19.653-2.178,29.327-3.762a75.693,75.693,0,0,0,37.708-17.432c10.251-8.706,11.609-20.587,18.461-30.8,4.465-6.655,11.456-12.3,16.425-18.772,12.091-15.753,14.488-38.748-1.046-54.5-11.354-11.516-32.358-17.273-42.87-29.16-2.659-3.008-4.544-6.31-7.122-9.351-5.777-6.821-15.1-12.194-25.772-14.852-12.2-3.039-25.927-2.642-37.323-6.99Z" transform="translate(-15.784 -13.619)" fill="#b3dcf5"/>
      <path id="Uni贸n_12" data-name="Uni贸n 12" d="M7909.006,5525.445a5.283,5.283,0,0,1-.936-3.244,16.434,16.434,0,0,1,.944-4.97,164.358,164.358,0,0,0,6.078-28.167c1.075-7.314,1.85-12.6,4.056-15.794,1.589-2.3,4.6-4.642,7.78-7.121a57.614,57.614,0,0,0,7.882-6.91,11.93,11.93,0,0,0,2.22-3.459,5.3,5.3,0,0,0,.263-3.3,29.783,29.783,0,0,0-4.066-9.853c-1.733-2.42-3.7-3.6-6.022-3.6l-.261,0a26.313,26.313,0,0,1-4.72-.532,16.978,16.978,0,0,0-4.9-.392,10.333,10.333,0,0,0-5.287,2.376,1,1,0,0,1-1.233-1.575,12.426,12.426,0,0,1,6.3-2.79,18.834,18.834,0,0,1,5.472.412,24.652,24.652,0,0,0,4.375.5c.084,0,.17,0,.257,0,2.969,0,5.54,1.488,7.647,4.431a31.672,31.672,0,0,1,4.379,10.527c.687,2.712-.265,5.51-2.911,8.557a58.879,58.879,0,0,1-8.164,7.177c-3.059,2.382-5.948,4.634-7.364,6.681-1.94,2.81-2.687,7.9-3.72,14.949a166.08,166.08,0,0,1-6.154,28.489c-1.006,3.125-1.117,5.335-.315,6.394.894,1.183,3.1,1.1,5.043,1.033l.08,0a.83.83,0,0,1,.228-.077,9.719,9.719,0,0,0,3.789-1.586,19.635,19.635,0,0,0,2.119-2.594,39.038,39.038,0,0,0,2.686-4.52,1,1,0,0,1,.237-.312q.125-.349.239-.7a30.886,30.886,0,0,0,1.059-14.251c-1.093-7.5-3.578-16.321,3.314-22.443,2.838-2.521,6.633-4.013,9.935-6.012,4.351-2.638,6.717-6.058,7.041-10.62.478-6.709-2.48-13.36-1.133-20.059.695-3.451,2.74-6.01,5.4-8.593a18.858,18.858,0,0,0,4.493-6.1c.036-.081.064-.161.1-.239a3.448,3.448,0,0,1,1.255-3.967,4.359,4.359,0,0,1,.478-.273c.083-.173.157-.348.245-.519a11.959,11.959,0,0,1,6.7-5.725c1.792-2.738,5.064-2.882,8.121-3.258,2.84-.348,4.439-1.627,6.777-2.979a7.448,7.448,0,0,1,4.938-.868c2.535.363,4.953,1.539,7.317,2.466a20.236,20.236,0,0,1,4.73,2.166,5.873,5.873,0,0,1,1.577,7.711.714.714,0,0,1-1.086.175c-.044.707-.157,1.414-.227,2.067-.125,1.153-.257,2.308-.386,3.461a6.35,6.35,0,0,1,2.591,2.228c2.635,3.921,1.394,8.7,1.021,13.042-.655,7.593,4.507,17.1-1.067,23.833a9.736,9.736,0,0,1-3.629,2.517,5.909,5.909,0,0,0-2.644,2.583c.064,3.68,2.533,6.948,3.2,10.644a6.209,6.209,0,0,1-.645,4.222c.663.934,1.368,1.87,2.073,2.853,2.559,3.563,2.609,6.908,1.412,11.05-.751,2.6-1.91,6.106-5.074,6.478a4.957,4.957,0,0,1-4.144-1.569c-3.814-.265-8.979-2.844-11.14-4.14-2.023-1.211-3.772-2.806-5.89-3.895a7.628,7.628,0,0,0-.727-.317c-2.2,1.474-5.459,2.28-7.832.7a4.805,4.805,0,0,1-2.087-3.4,10.549,10.549,0,0,1-3.236-4.252c-1.525-3.457-1.81-7.4-1.955-11.072a8.256,8.256,0,0,1-2.83-4.459,10.329,10.329,0,0,1,1.137-6.743,8.178,8.178,0,0,1-1.071-1.531c-1.77-3.465,2.891-6.494,1.471-10.08-1.189-3-4.5-5.076-5.337-8.229a5.243,5.243,0,0,1,2.135-5.962,6.923,6.923,0,0,1,2.364-6.546,7.008,7.008,0,0,1,2.272-1.239,5.7,5.7,0,0,0,.273-4.037c-.094-.275-.2-.561-.313-.852a18.307,18.307,0,0,1-3.146,4.142c-2.251,2.25-4.525,4.271-5.516,7.187a17.812,17.812,0,0,0-.659,6.912c.544,8.38,4.421,18.329-4.187,24.755-4.567,3.411-11.054,5.062-14.141,9.8-3.766,5.783-1.633,12.753-.747,18.9a35.661,35.661,0,0,1-1.186,15.566.993.993,0,0,1-.078.66c-.023.048-.313.639-.8,1.508a15.817,15.817,0,0,1-1.971,3.176l-.072.1a19.686,19.686,0,0,1-2.874,3.373,5.644,5.644,0,0,1-3.63,1.709c-.4,0-.826.016-1.277.032-.482.016-.988.036-1.5.036C7912.266,5527.3,7910.213,5527.038,7909.006,5525.445Zm83.178-35.688a6.654,6.654,0,0,0-1.9,3.111,5.647,5.647,0,0,1,.9,3.585c.317.534.661,1.061.96,1.6a7.636,7.636,0,0,1,1.151,3.312c.135,2.531-.966,3.7-2.662,4.052a3.948,3.948,0,0,0,3.349.062c1.356-.57,2.077-2.742,2.5-4,.938-2.77,1.705-5.765.634-8.593a19.115,19.115,0,0,0-3.352-5.012A22.078,22.078,0,0,1,7992.184,5489.756Zm-3.34,9.77a4.86,4.86,0,0,1-.942.444,6.329,6.329,0,0,0,1.106,4.03c.07.1.151.183.227.275a2.544,2.544,0,0,0,2.555-2.035c.416-1.486-.516-2.931-1.264-4.216A5.677,5.677,0,0,1,7988.843,5499.526Zm-16.61-3.382a28.069,28.069,0,0,1,3.164,2.019,38.176,38.176,0,0,0,10.272,5.4,18.083,18.083,0,0,0,2.047.568,6.79,6.79,0,0,1-.932-3.907,7.888,7.888,0,0,1-5.817-2.256,15.317,15.317,0,0,1-2.025-2.328,11.927,11.927,0,0,1-1.649.563,6.866,6.866,0,0,1-4.921-.207C7972.328,5496.045,7972.282,5496.1,7972.233,5496.144Zm7.713-.979c.223.328.454.651.7.966,1.213,1.535,3.869,3.56,6.211,3.17a23.3,23.3,0,0,0,.341-3.572c-.072-2.157-1.551-3.194-3.236-3.981A12.754,12.754,0,0,1,7979.947,5495.166Zm4.626-4.254c2.091.93,3.829,2.035,3.708,4.819-.046,1.077-.217,2.135-.313,3.176a3.964,3.964,0,0,0,1.149-1,3.382,3.382,0,0,0,.625-1.287,6.11,6.11,0,0,1-.916-4.06c-.083-.135-.165-.271-.253-.4a20.557,20.557,0,0,0-2.895-3.172A15.256,15.256,0,0,1,7984.573,5490.911Zm-18.41,6.737a6.4,6.4,0,0,0,3.467-.924c-1.778-.412-3.6-.4-5.474-.844a8.212,8.212,0,0,1-1.82-.677A3.886,3.886,0,0,0,7966.163,5497.648Zm-4.244-4.586c0,.024,0,.046.006.068a6.783,6.783,0,0,0,2.007,1.165c1.719.625,3.611.4,5.4.773a10.059,10.059,0,0,1,1.808.558c.1-.086.185-.177.277-.265-1.424-1.169-2.3-3.075-3.16-5.112-.207-.49-.4-1-.595-1.509a14.464,14.464,0,0,1-4.67-1.328A15.484,15.484,0,0,0,7961.919,5493.063Zm11.6,1.549a5.347,5.347,0,0,0,4.033-.1c.157-.056.306-.125.458-.187a16.956,16.956,0,0,0-2.284-2.8C7974.959,5492.57,7974.236,5493.655,7973.519,5494.611Zm-3.578-4.759a10.507,10.507,0,0,0,2.656,4.194c.812-1.041,1.5-2.164,2.271-3.23a9.089,9.089,0,0,0-3.7-1.537c-.512-.1-1.035-.181-1.559-.257C7969.725,5489.3,7969.825,5489.58,7969.941,5489.853Zm6.519.715a14.25,14.25,0,0,1,2.611,3.256,11.46,11.46,0,0,0,3.345-2.744c-.259-.108-.514-.219-.761-.332-1.251-.568-2.5-1.171-3.742-1.792A15.573,15.573,0,0,0,7976.46,5490.568Zm-16.562.1a9.159,9.159,0,0,0,1.141,1.607,19.01,19.01,0,0,1,.548-3.005,20.826,20.826,0,0,1,.733-2.257,6.8,6.8,0,0,1-1.242-1.065,7.081,7.081,0,0,1-1.836-5.327,6.705,6.705,0,0,1-1.709-.5A23.448,23.448,0,0,0,7959.9,5490.67Zm26.019-48.032a18.835,18.835,0,0,0-1.281,1.575,6.4,6.4,0,0,0-1.2,2.846,18.208,18.208,0,0,0,1.354,4.714c2.2,3.449,6.048,6.667,4.642,10.947a9.941,9.941,0,0,1-3.553,4.474,14.876,14.876,0,0,1,.886,2.35,33.006,33.006,0,0,1-.145,16.978c-.137.482-.3.964-.492,1.442a28.693,28.693,0,0,1,3.14,3.389c.866-1.631,2.619-2.784,3.692-4.307.026-.038.04-.078.066-.116a15.844,15.844,0,0,1-3.312-9.927,15.353,15.353,0,0,1,.968-5.243,6.454,6.454,0,0,1,.012-.653c.265-2.752,1.922-5.128,2.915-7.7a16.943,16.943,0,0,0,.671-9.8,14.054,14.054,0,0,0-.788-2.4,6.531,6.531,0,0,1-.482.97.353.353,0,0,1,.321.37,2.444,2.444,0,0,1-4.287,1.529,4.685,4.685,0,0,1-1-3.75,33.507,33.507,0,0,1,.78-3.3c.383-1.866.4-2.5-1.34-3.58-.781-.485-1.125-.81-1.538-.81Zm-7.179,45.609c1.265.621,2.539,1.226,3.824,1.8.155.068.312.135.464.2.1-.145.217-.281.307-.43a14,14,0,0,0,1.014-2.008c-.241-.207-.484-.41-.727-.613a5.309,5.309,0,0,0-4.883,1.048Zm-9.487-.159a16.44,16.44,0,0,1,6.328,1.814c.1-.125.2-.251.311-.374a10.771,10.771,0,0,1,1.093-1.044,55.36,55.36,0,0,1-9.2-5.821A35.171,35.171,0,0,0,7969.25,5488.089Zm-1.888-8.039c.048.4.117.8.177,1.2,1.159.962,2.364,1.862,3.58,2.68a62.619,62.619,0,0,0,6.745,3.883,8.41,8.41,0,0,1,4.634-1.563c-.591-.5-1.171-.99-1.718-1.482-.139-.125-.283-.249-.428-.372a8.43,8.43,0,0,1-5.614.072c-2.543-.872-3.465-2.756-5.423-4.182a4.9,4.9,0,0,0-1.543-.773Q7967.571,5479.781,7967.362,5480.05Zm-3.214,4.69c-.279.556-.542,1.137-.787,1.725a11.984,11.984,0,0,0,3.943,1.306,39.8,39.8,0,0,1-1.541-5.61A18.657,18.657,0,0,0,7964.148,5484.741Zm17.821-14.8a29.2,29.2,0,0,0-2.395,1.8c1.137,2.184,2.818,4.1,3.8,6.36a4.2,4.2,0,0,1,.157,3.429,5.034,5.034,0,0,1-2.107,2.338c.779.689,1.916,1.617,3.158,2.7.068.022.132.039.2.064,1.225-3.724,1.171-7.872,1.017-11.625a20.178,20.178,0,0,0-1.334-6.765C7983.625,5468.83,7982.773,5469.39,7981.97,5469.94Zm-21.63,10.761a5.6,5.6,0,0,0,.8,3.563,5.819,5.819,0,0,0,1.575,1.771,22.8,22.8,0,0,1,1.215-2.4,17.3,17.3,0,0,1,1.685-2.29c-.036-.207-.054-.412-.084-.617-.354-.331-.693-.677-1.033-1.024A14.826,14.826,0,0,1,7960.34,5480.7Zm30.516-3.7a14.519,14.519,0,0,0,2.846,8.531c1.171-3.536-1.521-7.416-2.607-11.167A15.844,15.844,0,0,0,7990.856,5477Zm-21.68.468c-.255.42-.53.824-.812,1.223a5.363,5.363,0,0,1,2.027,1.181c2.006,1.784,3.376,3.7,6.546,4.036a6.84,6.84,0,0,0,2.553-.257c-1.6-1.354-3.306-2.81-4.017-4.576a4.9,4.9,0,0,1-.239-3,4.645,4.645,0,0,1-1.179,1.454.642.642,0,0,1-.8,0,7.744,7.744,0,0,0-3.314-1.888A6.607,6.607,0,0,1,7969.176,5477.471Zm7.221-.986c-.408,2.834,2.111,4.829,4.267,6.713a3.472,3.472,0,0,0,1.566-1.5c.854-1.786.127-3.373-.894-4.911a43.6,43.6,0,0,1-2.6-4.278A7.2,7.2,0,0,0,7976.4,5476.485Zm-15.831,3.274c.177-.006.354-.016.537-.036a18.157,18.157,0,0,0,2.8-.616c-.55-.593-1.064-1.222-1.571-1.86A5.838,5.838,0,0,0,7960.567,5479.759Zm-4.574-13.06c-.058.114-.114.233-.175.347.068.09.131.177.205.271a7.118,7.118,0,0,1,1.609,5.225c-.052,2.044-.148,4.244-.123,6.472a5.978,5.978,0,0,0,1.888.665,6.171,6.171,0,0,1,.217-.747,6.243,6.243,0,0,1,1.942-2.646c-1.631-2.209-3.36-4.966-1.422-7.507a8.227,8.227,0,0,1,2.8-2.2c-1.719-.85-3.9-2.26-4.762-3.879C7957.47,5464.045,7956.688,5465.365,7955.993,5466.7Zm7.046,10.017a27.379,27.379,0,0,0,1.878,2.119c.123-.032.249-.068.37-.1a23.735,23.735,0,0,1-.05-3.045A8.224,8.224,0,0,0,7963.04,5476.716Zm4.06-1.362c0,.175-.006.354-.006.534,0,.874.044,1.746.11,2.62a4.683,4.683,0,0,1,.663.068c.227-.305.466-.6.665-.926a6.53,6.53,0,0,0,.862-2.143,8.463,8.463,0,0,0-1.7-.174Q7967.394,5475.333,7967.1,5475.354Zm-12.783-.2a6.948,6.948,0,0,0,1.559,2.587c-.01-2.129.187-4.266.093-6.39a4.194,4.194,0,0,0-1-2.5A8.974,8.974,0,0,0,7954.316,5475.157Zm14.987-4.9a9.812,9.812,0,0,1,.806,4.4c1.1.315,2.181,1.33,3.149,1.488,1.87.3,1.075-2.734.629-3.627a6.792,6.792,0,0,0-3.246-3c-.084-.042-.175-.07-.259-.11C7970,5469.686,7969.644,5469.96,7969.3,5470.254Zm-8.133,3.726c.348.606.735,1.189,1.143,1.762a9.055,9.055,0,0,1,3.021-1.2c.052-.49.1-.982.191-1.462a6.583,6.583,0,0,1,2.692-3.971q-.151-.341-.308-.681c-1.241-.42-2.5-.81-3.706-1.294C7961.318,5468.5,7959.145,5470.447,7961.169,5473.98Zm13.541-11.409a8.222,8.222,0,0,1-.751,2.808,9.808,9.808,0,0,1-2.72,3.34c2.519,1.4,4.742,3.919,4.345,6.332a10.929,10.929,0,0,1,2.688-3.513,10.181,10.181,0,0,1-.928-5.394,7.223,7.223,0,0,1,1.693-3.867c-.159-.08-.312-.167-.479-.241a8.97,8.97,0,0,0-1.862-.608C7976.046,5461.826,7975.383,5462.211,7974.71,5462.571Zm-5.188,11.966a9.786,9.786,0,0,0-.675-3.851,6.347,6.347,0,0,0-.681.792,5.639,5.639,0,0,0-1.008,2.862q.148,0,.3,0A11.117,11.117,0,0,1,7969.522,5474.537Zm9.232-4.763a9.739,9.739,0,0,0,.372,1.016c.709-.586,1.446-1.131,2.157-1.613.859-.584,1.82-1.2,2.758-1.862a11.055,11.055,0,0,0-4.194-4.592A7.67,7.67,0,0,0,7978.754,5469.774Zm16.578-39.061q-.717,6.457-1.437,12.914a13.986,13.986,0,0,1,.261,4.837,16.993,16.993,0,0,1,2.149,9.624c-.4,4.04-2.875,7.394-4.009,11.243a4.5,4.5,0,0,1,.792-.584c2.171-1.222,3.8-1.412,5.19-3.745a12.749,12.749,0,0,0,1.607-6.441c.006-4.939-1.917-9.658-1.646-14.625.255-4.67,2.306-10.807-1.595-14.607a5.066,5.066,0,0,0-1.073-.773C7995.49,5429.272,7995.412,5429.992,7995.332,5430.713Zm-25.531,34.21c-.695.307-1.53.611-2.414.932q.322.79.681,1.575c.521.175,1.039.35,1.547.544l.179-.143a8.851,8.851,0,0,0,2.935-4.256C7971.725,5464.057,7970.737,5464.509,7969.8,5464.923Zm-4.276,1.637c.253.092.49.177.7.247.363.128.733.249,1.1.37-.175-.37-.35-.737-.521-1.107C7966.378,5466.227,7965.95,5466.389,7965.524,5466.56Zm20.358-8.947c-.888,1.739-3.147,2.567-4.7,3.764-.079.058-.137.126-.209.189a13.387,13.387,0,0,1,4.431,4.722c1.762-1.434,3.178-3.109,3.244-5.21.064-2.033-1.135-3.8-2.425-5.447A3.355,3.355,0,0,1,7985.882,5457.613Zm-35-9.571c1.153,3.851,6.142,6.4,5.624,10.706-.171,1.418-1.01,2.6-1.557,3.917a3.32,3.32,0,0,0,.195,3.423c.681-1.243,1.41-2.457,2.027-3.638.223-.428.44-.866.641-1.313.006-.062,0-.125.012-.187a2.08,2.08,0,0,1,.476-.988c1.064-2.81,1.386-5.815-.584-8.444-1.631-2.178-3.9-3.74-5.2-6.131a10.193,10.193,0,0,1-.661-1.49A4.136,4.136,0,0,0,7950.881,5448.042Zm10.684,11.439a2.576,2.576,0,0,0-2.021,3.067c.346,1.472,2.6,2.659,4.574,3.471.746-.319,1.511-.606,2.276-.874a16.812,16.812,0,0,1-.861-2.447c-.046-.181-.081-.364-.123-.544-.083-.026-.163-.048-.243-.076a6.328,6.328,0,0,1-3.2-2.7C7961.836,5459.413,7961.7,5459.443,7961.565,5459.481Zm5.423,5.355c.012.03.026.058.036.088.976-.337,1.92-.665,2.744-1.034.942-.424,2.049-.918,3.2-1.485a6.441,6.441,0,0,0,.046-1.018c-1.047.168-2.119.448-3.3.733a8.728,8.728,0,0,1-3.443.247C7966.477,5463.2,7966.708,5464.021,7966.989,5464.836ZM7983.332,5452a7.761,7.761,0,0,1-1.573,5.239,17.631,17.631,0,0,1-3.411,3.093,12.79,12.79,0,0,1,1.828.789,15.765,15.765,0,0,1,1.708-1.259c2.027-1.312,3.32-2.36,3.288-4.849a2.688,2.688,0,0,0-.283-1.064,21.308,21.308,0,0,1-1.569-2.3C7983.323,5451.766,7983.33,5451.884,7983.332,5452Zm-17.775,6.478q.144,1.133.357,2.258c1.426.464,2.84.054,4.341-.33.876-.225,1.7-.424,2.5-.559a5.911,5.911,0,0,0-.171-.6,9.178,9.178,0,0,0-1.273-2.244Q7968.441,5457.751,7965.557,5458.475Zm-1.928.474a4.559,4.559,0,0,0,1.406,1.374q-.141-.825-.251-1.653C7964.4,5458.764,7964.014,5458.856,7963.628,5458.949Zm13.51,1c.042.01.076.026.117.036,2.633-1.773,4.811-3.985,5.09-6.713a33.956,33.956,0,0,0-.227-5.03c-.014-.168-.016-.339-.018-.508a8.694,8.694,0,0,1,.3-2.724,16.462,16.462,0,0,1,3.124-8.666c.958-1.376,2.1-2.708,3.178-4.067a7.547,7.547,0,0,0-1.673-2.2c-1.408-1.324-3.4-1.681-5.114-2.442a25.476,25.476,0,0,0-3.007,3.029,3.924,3.924,0,0,0-.7,1.661,4.77,4.77,0,0,1,4.338,2.234c2.282,3.789-2.085,7.786-5.4,9.782a39.475,39.475,0,0,1-3.562,1.814c2.238.464,5.4.914,6.6,2.772,2.666,4.136-3.4,6.518-7.219,7.625a9.1,9.1,0,0,1,1.526,3.115c.09,0,.181,0,.272,0A10.044,10.044,0,0,1,7977.139,5459.949Zm-24.45-16.839a11.3,11.3,0,0,0,1.766,3.4c2.411,3.246,5.849,5.274,5.793,9.455a11.006,11.006,0,0,1-.472,2.951,11.221,11.221,0,0,1,1.669-.6,6.8,6.8,0,0,1-.4-1.4c-.5-3.033.97-5.293,3.248-7.147-.01-1.242-.021-2.481-.039-3.72-1.571-.034-3.115-.036-4.558.008-1.995.064-2.384.093-3.6-1.339a8.036,8.036,0,0,1-1.521-2.7A8.988,8.988,0,0,0,7952.689,5443.11Zm9.991,12.824a5.68,5.68,0,0,0,.406,1.977c.552-.117,1.084-.215,1.569-.31-.2-1.926-.29-3.867-.328-5.8A6.03,6.03,0,0,0,7962.68,5455.934Zm2.462-4.958c.024,2.155.095,4.316.31,6.462.132-.03.267-.058.384-.086,1.6-.4,3.22-.775,4.833-1.165-1.717-2-3.836-3.684-4.545-6.022A12.362,12.362,0,0,0,7965.143,5450.977Zm2.64-1.912a5.01,5.01,0,0,0,1.209,3.149c.993,1.264,2.268,2.346,3.343,3.562.584-.151,1.169-.3,1.75-.468a10.354,10.354,0,0,0,4.269-1.94c1.888-1.8,1.488-4.13-1.047-5.174a25.665,25.665,0,0,0-5.056-1.414A49.6,49.6,0,0,0,7967.782,5449.064Zm22.2-2.662c-.115.87-.422,1.687-.619,2.539a8.433,8.433,0,0,0-.355,2.235q.229.9.458,1.788c.988-.133,1.975-.27,2.963-.4a.165.165,0,0,1-.026-.083,14.013,14.013,0,0,1,.446-2.633c-.884-1.755-1.962-3.451-2.846-5.188A7.03,7.03,0,0,1,7989.984,5446.4Zm-24.864,1.257c0,.484.006.97.006,1.457.249-.179.5-.36.759-.53a6.428,6.428,0,0,1,.116-1.368c.074-.364.179-.743.287-1.129-.381-.02-.753-.018-1.133-.03C7965.137,5446.622,7965.119,5447.162,7965.121,5447.66Zm2.831-.309c.6-.328,1.2-.645,1.815-.952-.53-.064-1.059-.125-1.593-.171C7968.1,5446.616,7968.019,5446.987,7967.951,5447.351Zm24.349-19.175c-.167.346-.346.685-.532,1.019-.066,1.073-.205,2.111-.352,3.013-.406,2.493-1.486,4.981-1.29,7.522.2,2.575,1.793,4.871,3.133,7.119.014-.5.012-1,.008-1.5-.33.059-.693-.084-.653-.446l1.866-16.835a12.364,12.364,0,0,0-1.935-.446C7992.469,5427.813,7992.389,5428,7992.3,5428.176Zm-27.274,11.688c2.742.647,3.74,2.62,3.376,5.106-.016.1-.036.2-.054.3.948.123,1.89.263,2.828.43a57.931,57.931,0,0,0,5.392-2.83,15.051,15.051,0,0,0,2.748-2.151,7.369,7.369,0,0,0,1.75-2.642c.5-1.938.286-2.157-1.788-3.061-.305-.135-.55-.249-.765-.35.271.806.649,1.625.924,2.5.727,2.31-.128,4.393-2.834,5.3-3.107,1.039-6.153-.024-8.706-1.579-.944-.577-1.992-1.143-3.015-1.731C7964.936,5439.386,7964.986,5439.624,7965.026,5439.864Zm.175,5.094c.454.034.906.058,1.36.1.317-1.4.327-2.738-1.356-3.553C7965.275,5442.668,7965.245,5443.844,7965.2,5444.958Zm-6.85-3.937a9.025,9.025,0,0,0-2.236.49c.717,2.517,1.908,3.23,4.765,3.246,1.119.006,2.236.054,3.353.126-.014-.539-.016-1.077-.04-1.615-.028-.655-.044-1.388-.1-2.141a12.318,12.318,0,0,0-2.8-.268C7960.238,5440.86,7959.185,5440.938,7958.352,5441.021Zm25.255,1.876a4.752,4.752,0,0,1,1.242-.92,30.537,30.537,0,0,0,3.674-5c.173-1.083.416-2.147.659-3.212a4.2,4.2,0,0,0-.128-.548C7986.769,5436.261,7984.384,5439.2,7983.606,5442.9Zm3.347-1.408a3.014,3.014,0,0,1,2.069.942,11.2,11.2,0,0,1-.621-2.575C7987.945,5440.413,7987.451,5440.951,7986.953,5441.49Zm-23.321-7.848a4.641,4.641,0,0,0-.842,1.733c.02.018.044.028.063.044a6.164,6.164,0,0,1,1.47,2.053c.436.315,1.093.647,1.5.91,1.9,1.231,3.768,2.782,6.121,3.375,2.681.675,6.65.02,6.823-2.965.1-1.643-.866-3.062-1.35-4.546-.342-.006-.607.253-1.348.868-.293.243-.546.519-.823.771a12.575,12.575,0,0,1-1.756,1.454,4.493,4.493,0,0,1-1.76,1.246,4.565,4.565,0,0,1-4.953-1.2,7.66,7.66,0,0,1-.771-.492,6.232,6.232,0,0,1-2.316-3.31Zm-11.018,5.445a6.309,6.309,0,0,0-.231,2.409,12.425,12.425,0,0,1,1.89-.848,9.524,9.524,0,0,1,1.229-5.028A6.369,6.369,0,0,0,7952.615,5439.087Zm5.214-4.309c-.261.478-.572.984-.93,1.567a6.579,6.579,0,0,0-1.012,3.818,23.286,23.286,0,0,1,8.037-.484,9.107,9.107,0,0,0-.313-1.3,18.25,18.25,0,0,1-1.583-1.091,1.849,1.849,0,0,1-.944-1.792,1.551,1.551,0,0,1,.046-.2,5.415,5.415,0,0,0-2.457-.588A5.718,5.718,0,0,0,7957.829,5434.778Zm9.69-5.172c-.386.346-.745.709-1.095,1.079a16.06,16.06,0,0,0,.6,2.609c.646,1.88.6,2.075,3.111,1.764,2.328-.287,2.272-.076,2.422-1.82a16,16,0,0,0-.2-3.28c-.01-.1-.028-.207-.042-.311a4.442,4.442,0,0,0-2.628-1.088A2.931,2.931,0,0,0,7967.519,5429.606Zm-6.066,4.927a11.863,11.863,0,0,1,1.985-2.237,9.392,9.392,0,0,1,.534-4.021c-.024-.09-.038-.185-.064-.275a5.235,5.235,0,0,0-2.244-3.344c-1.621-.938-2.32-.739-3.559.381-.115.1-.205.189-.3.277-.221.561-.44,1.121-.665,1.677.056.219.139.47.241.793.223.7.574,1.374.819,2.069a5.084,5.084,0,0,1,.05,4.064c.1,0,.208-.007.311-.007A6.905,6.905,0,0,1,7961.453,5434.533Zm12.388-10.208c-.241,3,1.326,5.9,1.155,8.913-.012.215-.039.436-.066.657a6.3,6.3,0,0,1,2.228-1.356,3.612,3.612,0,0,1,.357-1.384c.75-1.567,2.28-2.72,3.471-4.009a5.043,5.043,0,0,1-1.111-.886,21.759,21.759,0,0,1-1.312-2,5.53,5.53,0,0,0-4.058-2.424A7.287,7.287,0,0,0,7973.84,5424.325Zm9.013,2.2c.315.154.645.3,1.012.446a11.73,11.73,0,0,1,3.857,2.017,8.63,8.63,0,0,1,1.793,2.24c.07-.094.143-.189.211-.283a15.156,15.156,0,0,0,.195-2.224c0-.476,0-.992-.018-1.517-.056-.012-.116-.02-.173-.034a18.591,18.591,0,0,1-3.5-1.2,5.15,5.15,0,0,1-1.169.265,3.956,3.956,0,0,1-1.913-.229A4.054,4.054,0,0,1,7982.854,5426.521Zm-16.869,1.643c.086.4.159.8.225,1.195a7.59,7.59,0,0,1,2.109-1.51,4.538,4.538,0,0,1,3.742-.074c-.016-.115-.032-.229-.046-.344a22.271,22.271,0,0,0-3.453-3.264A11.6,11.6,0,0,0,7965.984,5428.164Zm25.185-10.256c2.507,2.308,2.678,5.863,1.705,8.836a15.607,15.607,0,0,1,1.7.444l.277-2.48a12.654,12.654,0,0,0,.259-2.455,5.816,5.816,0,0,0-1.741-3.734,5.44,5.44,0,0,0-2.4-.771C7991.035,5417.8,7991.1,5417.845,7991.169,5417.908Zm-.269,1.7c-.4.755-.751,1.651-1.163,2.537.04.039.092.073.13.111a6.931,6.931,0,0,1,1.844,4.269c.134.026.273.05.41.074a9.107,9.107,0,0,0,.446-1.973c.249-2.32-.317-5.056-2.553-6.6a6.494,6.494,0,0,0-.739-.412c-.773-.03-1.533-.028-2.18-.024l-.657,0a42.3,42.3,0,0,0-5.012.3,36.483,36.483,0,0,1,5.357,2.224,16.243,16.243,0,0,0,3.339-1.175.665.665,0,0,1,.292-.07A.512.512,0,0,1,7990.9,5419.6Zm-3.547,5.783c.208.086.416.175.628.251a14.645,14.645,0,0,0,1.838.516,5.338,5.338,0,0,0-.819-2.375c-.024-.036-.058-.066-.086-.1A5.934,5.934,0,0,1,7987.353,5425.388Zm-12.044-4.811a6.507,6.507,0,0,1,3.552,1.7,9.916,9.916,0,0,1,1.374,1.982,5.624,5.624,0,0,0,1.673,1.72,5.326,5.326,0,0,0,.3-.546c-1.241-1.062-1.806-2.925-2.778-4.261a16.476,16.476,0,0,1-3.489-1.189A4.58,4.58,0,0,0,7975.309,5420.577Zm-2.79,1.382a7.612,7.612,0,0,0-3.184,1.521,7.778,7.778,0,0,0,.669.7c.628.574,1.293,1.113,1.888,1.671a9.272,9.272,0,0,1,.082-1.631,9.407,9.407,0,0,1,.669-2.274C7972.6,5421.951,7972.561,5421.953,7972.519,5421.959Zm-9.029,1.774a6.189,6.189,0,0,1,1.681,2.051,12.882,12.882,0,0,1,2.342-2.768,3.686,3.686,0,0,1-.655-1.338c-.472-2.043,1.086-3.809,3.131-4.686a13.318,13.318,0,0,0-8.169,2.408,9.527,9.527,0,0,0-2.623,2.955l.162,0A6.885,6.885,0,0,1,7963.49,5423.733Zm19.86-2.158a6.147,6.147,0,0,1,.335,1.766,17.838,17.838,0,0,0,2.535,1.537,3.018,3.018,0,0,0,1.758-1.564c.072-.125.13-.253.2-.378a12.024,12.024,0,0,0-2.706-1.519A17.009,17.009,0,0,1,7983.35,5421.575Zm-1.1,2.613c.106.054.2.086.311.135a4.464,4.464,0,0,0,.054-.6,21.059,21.059,0,0,1-1.633-1.519A9.454,9.454,0,0,0,7982.251,5424.188Zm-13.6-2.057a9.4,9.4,0,0,1,2.438-1.237,9.192,9.192,0,0,1,2.371-.412,6.975,6.975,0,0,1,.89-1.014,5.011,5.011,0,0,0-.711-.148,6.894,6.894,0,0,0-.779-.045C7970.742,5419.275,7968.865,5420.278,7968.652,5422.132Zm19.384-1.284c.3.191.589.382.858.583.048-.119.106-.237.153-.357.1-.231.195-.456.291-.685Q7988.7,5420.647,7988.036,5420.848Zm-16.807-3.3c-2.24.647-3.115,1.848-3.1,3.162a4,4,0,0,1,1.753-1.8,6.475,6.475,0,0,1,4.17-.377.492.492,0,0,1,.376-.346c.381-.1.765-.187,1.147-.277a6.7,6.7,0,0,0-1.139-.406c-.283-.059-.566-.106-.848-.155a6.166,6.166,0,0,0-.7-.041A5.939,5.939,0,0,0,7971.229,5417.546Zm9.238,2.77c.289.048.574.1.866.137a4.05,4.05,0,0,0-1.567-1.075A11.433,11.433,0,0,0,7980.467,5420.316Zm16.069-.291c1.035-3.729-2.869-5.538-5.934-6.878-3.419-1.493-7.595-3.841-11.275-1.822-2.278,1.247-3.728,2.551-6.388,2.92-2.709.374-5.831.227-7.94,2.075a23.321,23.321,0,0,1,12.689.39c-.259-1.722.514-3.25,3.16-4.082a8.776,8.776,0,0,1,2.647-.4C7988.493,5412.229,7993.571,5416.2,7996.537,5420.025Zm-13.336-6.611c-1.4.028-3.206.364-4.023,1.663a2.835,2.835,0,0,0-.384,1.967l.452.141c.968-.153,1.945-.268,2.923-.36,2.491-.8,4.981-1.288,7.326-.094a18.809,18.809,0,0,1,2.417.317,13.4,13.4,0,0,0-8.518-3.636Z" transform="translate(-7577.967 -5328.591)" fill="#008bfd" stroke="rgba(0,0,0,0)" stroke-miterlimit="10" stroke-width="1"/>
      <path id="Uni贸n_13" data-name="Uni贸n 13" d="M7986.59,5541.933a13.39,13.39,0,0,1-2.62-3.087,48.931,48.931,0,0,1-3.568-7.058c-.233-.54-.435-1-.594-1.345-1.383-2.949-1.925-7.491-2.137-10.406-1.266-8.164,2.542-16.107,7.083-23.124,2.974-4.6,5.063-9.328,3.534-14.683-1.335-4.676-4.591-7.721-8.662-10.49-9.283-1.464-7.058,13.291-8.466,18.05-1.21,4.094-4.337,7.932-9.271,8.514a28.2,28.2,0,0,1-3.456.129c-2.612-.014-5.03-.03-7.4,1.856-2.079,1.651-3.633,3.407-6.307,4.324a11.725,11.725,0,0,1-9.549-.733c-.59,1.842-.2,3.361,3.377,3.425,7.5.139,15.439-3.735,21.123-8.345.527-.427,1.287.32.755.755a39.393,39.393,0,0,1-11,6.41c-3.653,1.379-8.337,2.813-12.3,2.336a3.6,3.6,0,0,1-3.333-4.622,6.388,6.388,0,0,1,.224-.755,8.6,8.6,0,0,1-1.178-1.162c-2.751-3.309-1.968-6.69-.069-10.089-.431-.3-.854-.61-1.256-.94a6.776,6.776,0,0,1-4.312-5.389,7.558,7.558,0,0,1,.242-3.031c-1.076-.584-2.529-.306-3.738-.955a3.565,3.565,0,0,1-1.909-4.11c-.257.026-.513.061-.769.075-4.885.27-10.2-1.428-12.2-5.744-2.1-4.535.441-7.743,4.517-10.2a43.955,43.955,0,0,0,14.745-15.067,33.4,33.4,0,0,1,1.941-2.779c-.058-.127-.117-.258-.177-.387-1.5-3.244-2.932-6.693-2.529-10.345.008-.074.028-.147.039-.221a11.929,11.929,0,0,1,1.425-6.917,45.523,45.523,0,0,0-.747-5.125,4.613,4.613,0,0,1,3.031-5.306,12.9,12.9,0,0,0,5.083-3.341,6.969,6.969,0,0,1,3.017-2.338c2.529-.812,5.24.648,7.012,2.382a17.808,17.808,0,0,1,2,2.455c.1-.012.2-.028.3-.041,3.891-.5,8.734.061,11.4,3.061,4.2.862,6.837,4.054,8.768,7.417a9.4,9.4,0,0,1,2.429,4.616,36.906,36.906,0,0,0,4.732,6.714,17.428,17.428,0,0,1,3.8,5.56c1.921,5.631-3.866,9.259-5.493,14.179a15.483,15.483,0,0,0-.564,3.887c.3,1.412.741,2.815,1.15,4.3.65,2.358,1,5.161-.048,7.437a6.715,6.715,0,0,1,5.485-.922.456.456,0,0,1,.4.36c7.9,3.019,11.4,12.87,9.04,19.85-1.824,5.385-6.118,9.741-8.319,14.989a27.944,27.944,0,0,0-2.061,10.524,1,1,0,0,1,.339.737c0,.083.135,8.23,2.08,12.377.173.366.379.846.618,1.4a47.235,47.235,0,0,0,3.412,6.762c1.476,2.268,2.894,3.458,4.112,3.458.046,0,.09,0,.137,0,1.454-.109,4.376-2.11,7.62-14.3a144.359,144.359,0,0,0,3.945-21.846,180.036,180.036,0,0,0,.973-19.868c-.066-12.371-1.321-21.169-1.919-23.491-.342-1.327-1.913-3.651-3.575-6.112a64.048,64.048,0,0,1-4.438-7.228,14.091,14.091,0,0,1-1.25-3.514,5.236,5.236,0,0,1,.3-3.278c.787-1.643,2.626-2.6,5.467-2.835,6.791-.566,10.88.137,14.6,2.505s7.016,6.418,12.111,12.836a1,1,0,1,1-1.566,1.244c-4.964-6.257-8.182-10.2-11.62-12.393a14.275,14.275,0,0,0-5.558-2.1,32.147,32.147,0,0,0-7.8-.1c-2.082.173-3.371.747-3.83,1.706-.5,1.037-.177,2.737.951,5.053a62.394,62.394,0,0,0,4.3,6.986c1.838,2.719,3.425,5.069,3.852,6.73.788,3.057,1.923,12.516,1.984,23.978a182.625,182.625,0,0,1-.983,20.091,146.3,146.3,0,0,1-4,22.148,47.539,47.539,0,0,1-4.482,11.855,10.782,10.782,0,0,1-2.342,2.831,4.663,4.663,0,0,1-2.58,1.1c-.1.008-.2.012-.294.012A5,5,0,0,1,7986.59,5541.933Zm-49.033-42.988c-.413,1.039-1.263,2.384-1.883,3.693,4.457,3.158,10.131.67,13.859-2.521a11.328,11.328,0,0,1,7.771-2.793,5.319,5.319,0,0,1-3.252-3.608,9.756,9.756,0,0,1-1.869,2.344c-1.136,1.966-3.087,3.724-5.667,3.6a4.836,4.836,0,0,1-2.2-.652c-2.5.026-4.942-.729-6.35-2.616A5.441,5.441,0,0,1,7937.557,5498.945Zm-4.247-4.781a6.314,6.314,0,0,0,1.222,7.528c.034.034.07.06.107.092.491-.85,1.081-1.647,1.564-2.527,1.6-2.926.229-4.823-2.11-6.5C7933.815,5493.22,7933.545,5493.687,7933.31,5494.164Zm16.273,3.657a12.325,12.325,0,0,1-3.373,1.027,4.389,4.389,0,0,0,2.411-.395,5.022,5.022,0,0,0,1.241-.793C7949.765,5497.71,7949.682,5497.773,7949.583,5497.821Zm-7.382-3.3a6.787,6.787,0,0,0,1.671,3.093,10.944,10.944,0,0,0,8.007-2.886c.131-.308.251-.616.351-.916a21.972,21.972,0,0,0,.62-2.477,12.134,12.134,0,0,1-7.02-3.651c-.26,1.637.262,3.429-.786,4.946a2.493,2.493,0,0,1-2.952,1.188C7942.124,5494.051,7942.145,5494.283,7942.2,5494.519Zm-1.557,2.169a7.424,7.424,0,0,0,1.923.721,7.373,7.373,0,0,1-1.037-2.032,7.8,7.8,0,0,1-.351-1.974,8.43,8.43,0,0,1-2.481-2.451C7938.31,5493.3,7938.55,5495.532,7940.644,5496.688Zm28.894-20.992a11.382,11.382,0,0,1-3.461,6.108,7.957,7.957,0,0,1-.592,3.464,10.04,10.04,0,0,1-3.691,4.241c.938,2.62,2.058,6.5-.9,7.693,6.317-.566,8.911-5.735,9.562-11.032.375-3.059.344-8.518,2.227-12.1A18.457,18.457,0,0,1,7969.538,5475.7Zm-13.156,15.734c-.489.046-.961.063-1.428.064a8.693,8.693,0,0,1-.284.884,11.709,11.709,0,0,0,.459,1.3c1.16,2.6,5,3.853,6.475.868.548-1.112.1-2.5-.3-3.6-.113-.308-.242-.616-.373-.924A11.918,11.918,0,0,1,7956.382,5491.43Zm-21.384,0-.123,0c-.084.153-.179.3-.268.453a10.538,10.538,0,0,1,2.286,1.99c.042.052.074.108.115.161a9.443,9.443,0,0,1,.3-3.244A6.312,6.312,0,0,1,7935,5491.428Zm8.19-6.769c-.095,2.509-1.071,4.962-1.19,7.451a2.562,2.562,0,0,0,2.779-2.255c.115-1.047.106-2.079.292-3.023a13.86,13.86,0,0,1-1.547-2.372C7943.411,5484.526,7943.3,5484.587,7943.188,5484.659Zm-3.57,4.193a7.519,7.519,0,0,1-.536.606,5.959,5.959,0,0,0,1.3,1.974,2.547,2.547,0,0,0,.8.493c.177-2.189.926-4.35,1.122-6.571A25.739,25.739,0,0,0,7939.617,5488.852Zm-10.987-6.934a2.528,2.528,0,0,1,.57.634c1.5,2.413.312,5.155,2.7,7.34.145.131.3.256.451.378a6.69,6.69,0,0,0,1.154.272c.848-1.524,1.454-3.077.151-4.7-.768-.958-2.05-1.408-3.029-2.161a4.993,4.993,0,0,1-1.784-2.257C7928.763,5481.586,7928.7,5481.751,7928.63,5481.918Zm1.978-3.067a3.285,3.285,0,0,0,1.049,3.782c2.205,2.03,5.1,2.813,4.293,6.265a7.955,7.955,0,0,1-.606,1.641,4.654,4.654,0,0,0,2.259-.912c.051-.184.1-.359.145-.538a9.4,9.4,0,0,1-.121-5.874,9.846,9.846,0,0,0,.57-1.6c.252-2.808-1.659-3.667-3.78-3.772q-.163-.008-.324-.008A6.715,6.715,0,0,0,7930.607,5478.852Zm24.439,8.43a9.283,9.283,0,0,1,.173,2.684,10.7,10.7,0,0,0,5.167-1.194,8.732,8.732,0,0,1-.765-2.725A13.686,13.686,0,0,1,7955.046,5487.281Zm-8.47-1.335a12,12,0,0,0,5.6,3.546c.334.1.671.179,1.007.248.019-.088.039-.177.059-.266-.046-.518-.079-1.017-.1-1.452-.012-.236-.021-.476-.03-.711a12.531,12.531,0,0,1-3.645-.757c-.775-.29-1.515-.928-2.178-.928A.956.956,0,0,0,7946.577,5485.946Zm-18.06.92a5.447,5.447,0,0,0,.969,1.565c-.053-.113-.115-.218-.159-.336-.544-1.43-.213-3.131-.86-4.5a2.942,2.942,0,0,0-.222-.389A6.358,6.358,0,0,0,7928.517,5486.866Zm34.575-3.425a9.848,9.848,0,0,1-2.376,2.008,6.624,6.624,0,0,0,.606,2.765,8.438,8.438,0,0,0,3.754-5.681A16.854,16.854,0,0,1,7963.092,5483.441Zm-22.615,1.375c-.2.668-.481,1.466-.77,2.328.308-.447.623-.9.979-1.319a9.069,9.069,0,0,1,1.663-1.528c0-.123,0-.246,0-.369a6.6,6.6,0,0,0-.7-2.578C7941.24,5482.506,7940.827,5483.661,7940.477,5484.816Zm-1.218-2.906c-.449,1.794-1.027,3.2-.88,4.948.709-2.413,1.535-4.789,2.354-7.177a12.512,12.512,0,0,1-1.482-3.1,7.807,7.807,0,0,1-.2-2.672,15.023,15.023,0,0,0-5.762.389c-.022.041-.04.083-.064.123-.419.713-.955,1.448-1.448,2.195a4.1,4.1,0,0,1-.119.433c-.028.076-.077.143-.109.217a10.922,10.922,0,0,1,2.791-.371C7937.392,5476.9,7940.167,5478.291,7939.259,5481.911Zm7.97,2.281a12.044,12.044,0,0,0,5.836,2.145c-.04-.949-.083-1.9-.125-2.85-.048-.139-.1-.276-.145-.417a4.7,4.7,0,0,1-.08-3.169,31.211,31.211,0,0,0-1.923-8.994,40.244,40.244,0,0,1-4.275-3.4c-.042,1.728,1.029,3.637,2.028,5.226,2.084,3.314,2.93,6.575,2.022,10.347a.446.446,0,0,1-.53.272,9.549,9.549,0,0,0-5.006.382,11.8,11.8,0,0,0,.817,1.295,3.738,3.738,0,0,1,.87-.84.47.47,0,0,1,.259-.071A.445.445,0,0,1,7947.229,5484.192Zm11.976-1.494a14.229,14.229,0,0,0-3.778,3.629,11.031,11.031,0,0,0,4.2-1.311,2.715,2.715,0,0,1,1.041-2.1c.034-.02,1.716-.348,1.2-.2.258-.064.505-.133.749-.208a5.4,5.4,0,0,0,1.2-3.856A19.955,19.955,0,0,1,7959.205,5482.7Zm1.539-9.837c-1.027,1.861-2.654,2.95-4.513,4.15a8.219,8.219,0,0,0-2.485,2.147c.006.048.012.1.016.145.145,1.482.135,3.1.129,4.74.258.6.528,1.194.755,1.8a8.045,8.045,0,0,1,.556-.792c2.187-2.652,5.958-3.9,7.987-6.669a6.027,6.027,0,0,0,.463-.749,18.915,18.915,0,0,0-2.273-4.956C7961.167,5472.74,7960.961,5472.808,7960.744,5472.86Zm-19.231-8.494a13.105,13.105,0,0,1-.582,4.6,6.639,6.639,0,0,1,2.326,4.62c.077.038.151.068.226.113a.8.8,0,0,1,.413.912,13.433,13.433,0,0,0,.808,8.454,10.52,10.52,0,0,1,2.052-.527,7.553,7.553,0,0,1,1.132,0,4.764,4.764,0,0,0,1.536-.061c1.076-.527.733-2.016.691-2.942a11.9,11.9,0,0,0-1.851-5.6c-1.305-2.2-3.464-4.61-2.745-7.262-1.5-1.18-3.454-2.529-4.471-4.106A6.307,6.307,0,0,1,7941.512,5464.366Zm24.27,5.854c-.193,1.339-.222,2.712-.349,4.176a8.147,8.147,0,0,1-.793,2.906,6.283,6.283,0,0,1-.4,4.386c-.026.054-.059.1-.085.157.115-.067.232-.125.347-.2.237-.157.455-.326.668-.5,0-1.555-.155-3.1,1.009-4.4a6.445,6.445,0,0,1,2.427-1.524,24.407,24.407,0,0,0,.663-6.466c-.173.061-.328.131-.516.186a.5.5,0,0,1-.667-.516,5.848,5.848,0,0,1-.707-.044A10.457,10.457,0,0,1,7965.782,5470.221Zm-42.875,7.032a4.376,4.376,0,0,0,.131,1.688c.668,2.268,3.035,1.823,4.774,2.509a9.7,9.7,0,0,1,.838-1.551,4.617,4.617,0,0,1,.179-.92.619.619,0,0,1,.2-.562,13.267,13.267,0,0,1,1.647-2.672,3.088,3.088,0,0,0-.022-.7A63.492,63.492,0,0,1,7922.907,5477.252Zm43.161,2.554c-.006.177-.006.346-.006.52a8.993,8.993,0,0,0,1.192-1.641,13.558,13.558,0,0,0,1.039-2.439A3.826,3.826,0,0,0,7966.068,5479.806Zm-26.2-5.693a8.473,8.473,0,0,0,1.265,4.37,17.152,17.152,0,0,0,.8-3.7,10.2,10.2,0,0,0-2.062-.725C7939.869,5474.077,7939.865,5474.1,7939.865,5474.113Zm13.791,4.227c1.6-1.828,4.426-3.087,5.991-5.27a11.571,11.571,0,0,1-7.382-1.295A32.182,32.182,0,0,1,7953.655,5478.34Zm8.617-5.971a24.228,24.228,0,0,1,1.976,3.693,26.441,26.441,0,0,0,.407-4.944A11.624,11.624,0,0,1,7962.272,5472.369Zm-34.292-23.771a42.1,42.1,0,0,1-5.171,6.673,43.169,43.169,0,0,1-6.522,5.556c-2.9,2.026-6.845,3.526-6.96,7.314-.205,6.762,6.861,8.279,12.961,7.592a20.343,20.343,0,0,1,2.682-4.489c-2.855-.878-6.087-2.012-6.025-5.162.051-2.535,2.473-4.883,3.943-6.859l5.272-7.083q1.755-2.362,3.5-4.732c-.371-.915-.765-1.821-1.174-2.723C7929.586,5445.958,7928.793,5447.308,7927.979,5448.6Zm-4.658,27a22.232,22.232,0,0,0,3.389-.79c1.1-.356,2.213-.733,3.336-1.089a7.913,7.913,0,0,0-3.665-2.032c-.149-.048-.3-.1-.459-.145A15.534,15.534,0,0,0,7923.322,5475.6Zm47.031-7.328a30.82,30.82,0,0,1-.63,6.5c.306-.127.606-.256.9-.4,5.034-2.543,3.941-6.857,2.66-11.04C7972.983,5465.349,7972.276,5467.166,7970.353,5468.267Zm-42.088.673c-.483.529-1.075,1.156-1.686,1.844a14.288,14.288,0,0,1,3.174,1.432,5.758,5.758,0,0,1,1.305,1.182c.467-.139.936-.274,1.405-.4a20.319,20.319,0,0,0,1.857-5.057c-.9-.024-1.82,0-2.721.03-.815.026-1.621.05-2.4.038l-.1-.008C7928.825,5468.315,7928.549,5468.627,7928.265,5468.94Zm11.805,3.516a11.364,11.364,0,0,1,1.828.514,5.12,5.12,0,0,0-1.276-2.854C7940.408,5470.893,7940.213,5471.67,7940.07,5472.456Zm-4.628-3.524a21.132,21.132,0,0,1-1.285,3.671,15.826,15.826,0,0,1,5.1-.271c.175-.953.429-1.891.675-2.833a6.159,6.159,0,0,0-1.186-.705,9.877,9.877,0,0,0-3.109-.767C7935.571,5468.328,7935.519,5468.629,7935.442,5468.932Zm13.337-4.672a6.074,6.074,0,0,0-.558.34,24.688,24.688,0,0,1,1.988,2.743,19.98,19.98,0,0,1,1.214,2.318,11.089,11.089,0,0,0,9.044,1.816c.028-.088.042-.177.068-.264-.266-.473-.523-.942-.755-1.412a11.665,11.665,0,0,1-1.2-4.752,5.788,5.788,0,0,0-4.19-1.078,16.683,16.683,0,0,1-1.724-.034,4.3,4.3,0,0,1-1.672-.455A8.771,8.771,0,0,0,7948.78,5464.26Zm10.757-2.221a14.53,14.53,0,0,0-.177,2.523,6.541,6.541,0,0,1,2.084,6.457l.084.143c.322-.113.648-.222.967-.369a9.012,9.012,0,0,0,2.408-1.637c.042-.193.091-.385.147-.574a8.043,8.043,0,0,1,.313-.807,6.785,6.785,0,0,1-2.292-1.9,8.161,8.161,0,0,1-1.518-4.97A9.942,9.942,0,0,1,7959.537,5462.039Zm-29.864-10.329c-2.8,3.755-5.973,7.443-8.466,11.372-3.083,4.859.594,6.092,4.386,7.367.642-.8,1.236-1.468,1.667-1.941.2-.218.4-.437.592-.657-3.373-.759-3.606-4.181-2.141-7.126,1.666-3.351,4.664-4.356,7.89-5.218a21.93,21.93,0,0,0-1.519-7.014C7931.28,5449.565,7930.475,5450.634,7929.673,5451.71Zm30.849,17.659c.081.159.167.318.254.477a5.536,5.536,0,0,0-1.317-3.939A11.1,11.1,0,0,0,7960.522,5469.369Zm-24.768-13.607a39.026,39.026,0,0,1,.109,11.233,9.747,9.747,0,0,1,4.34,1.419,15.869,15.869,0,0,0,.467-2.843c.151-2.707-1.4-4.632-2.862-6.827a8.518,8.518,0,0,1-1.357-3.192C7936.218,5455.621,7935.988,5455.7,7935.754,5455.762Zm11.215,10.117c.793.708,1.579,1.432,2.386,2.136-.171-.288-.34-.574-.527-.855-.437-.65-.912-1.275-1.406-1.883A3.535,3.535,0,0,0,7946.969,5465.879Zm20.921,1.709a5.779,5.779,0,0,0,1.315-.151c-.046-.922-.111-1.836-.209-2.717A10.865,10.865,0,0,1,7967.891,5467.588Zm3.494-13.549a.332.332,0,0,1-.117.089,9.892,9.892,0,0,1-.322,6.46,12.993,12.993,0,0,1-1.1,1.873,39.759,39.759,0,0,1,.473,4.611c1.893-1.516,2.058-4.188,2.139-6.544a17.216,17.216,0,0,1-.4-1.9,15.351,15.351,0,0,1,.578-5.619c.01-.044.012-.081.02-.125A11.884,11.884,0,0,0,7971.384,5454.04ZM7929.953,5467c1.52.1,3.208-.026,4.571-.042.1-.556.191-1.114.256-1.675a37.492,37.492,0,0,0-.163-8.829C7934.436,5460.575,7932.553,5463.847,7929.953,5467Zm33.286-17.52a8.051,8.051,0,0,1-.731,10.6c.141,2.406,1.031,5.6,3.218,6.917a20.75,20.75,0,0,1,1.875-2.84,12.938,12.938,0,0,0,.264-2.978c-.115-4.021-1.865-7.779-3.2-11.557a32.62,32.62,0,0,1-1.146-4.4A17.632,17.632,0,0,1,7963.239,5449.477Zm-37.321,14.779c.06,1.613,1.244,2.31,2.819,2.6,2.487-2.854,4.611-5.858,4.859-9.87.012-.229,0-.453,0-.681C7929.478,5457.421,7925.756,5459.9,7925.917,5464.256Zm16.086-3.782c.373,1.859,2.636,3.43,4.187,4.727a4.97,4.97,0,0,1,.566-.7,66.286,66.286,0,0,0-4.736-4.823A1.965,1.965,0,0,0,7942,5460.474Zm14.493,2.38c-.3.036-.6.068-.908.095a5.291,5.291,0,0,1,1.323.238,7.274,7.274,0,0,1,1.658.813,14.925,14.925,0,0,1,.167-1.666A11.289,11.289,0,0,1,7956.5,5462.854Zm-8.812-7.614c-1.464.469-4.154,1.819-5.242,3.462,1.77,1.664,3.55,3.325,5.125,5.121a8.1,8.1,0,0,1,2.58-1.089,3.235,3.235,0,0,1-.546-1.289c-.509-2.542,1.686-4.076,2.652-6.237.081-.179.129-.35.189-.525q-.454-.029-.907-.029A12.6,12.6,0,0,0,7947.684,5455.24Zm4.406,2.695c-1.055,1.6-2.03,3.528-.155,4.446a55.628,55.628,0,0,0,6.98-1.087,59.548,59.548,0,0,1,2.471-7.6,8.039,8.039,0,0,0-3.588-4.958,4.866,4.866,0,0,1-2.209-2.775,4.134,4.134,0,0,1-.109-.914c-.793-.272-1.6-.508-2.429-.707-.614,2.32.155,4.285,1.341,6.5a5.541,5.541,0,0,1,.83,3.788c-.042.274-.411.4-.67.345s-.5-.095-.745-.133A14.425,14.425,0,0,1,7952.09,5457.935Zm-14.944-2.588a6.165,6.165,0,0,0,.266.955c.708,1.937,2.152,3.466,3.133,5.211a3.447,3.447,0,0,1-.119-.334,4.028,4.028,0,0,1,.415-2.618c-1.144-1.081-2.268-2.181-3.331-3.325C7937.392,5455.276,7937.267,5455.307,7937.146,5455.347Zm29.147-9.892a15.05,15.05,0,0,0,.824,6.959,41.73,41.73,0,0,1,1.688,5.314c.32,1.152.582,2.332.81,3.52a9.628,9.628,0,0,0,.813-1.7c1.218-3.508-.715-6.941-.973-10.431a7.714,7.714,0,0,1,1.045-4.825,14.138,14.138,0,0,1-.816-6.354C7968.573,5440.457,7966.75,5442.706,7966.293,5445.455Zm-6.571,15.568a7.017,7.017,0,0,0,1.822-.993c.02-1.585.181-3.19.081-4.692-.008-.123-.026-.23-.036-.351A45.939,45.939,0,0,0,7959.723,5461.023Zm2.98-9.324c-.145.478-.3.957-.465,1.434a27.657,27.657,0,0,1,.246,5.957c.042-.054.089-.1.129-.157a7.454,7.454,0,0,0,.32-8.144C7962.856,5451.094,7962.8,5451.388,7962.7,5451.7Zm-16.437-4.3c-.848,3.858-4.04,6.08-7.715,7.467.9.964,1.849,1.9,2.817,2.817a8.1,8.1,0,0,1,1.573-1.607,13.328,13.328,0,0,1,7.231-2.555c.382-.022,1.541.163,2.485.264.469-3.436-3.216-5.846-6.237-7.773A6.823,6.823,0,0,1,7946.267,5447.4Zm-10.621,7.562c.237-.064.473-.137.711-.207-.014-.27-.012-.534-.026-.834-.369-.435-.713-.882-1.049-1.333Q7935.475,5453.775,7935.646,5454.962Zm38.493-3.266c-.165.995-.439,2-.675,3.043,0,.022,0,.042-.008.064a9.76,9.76,0,0,1,.439-.957c.8-1.47,1.786-2.846,2.66-4.2C7975.782,5450.369,7974.935,5451.06,7974.139,5451.7Zm-36.989,1.553c.272.33.528.67.816.989a15.95,15.95,0,0,0,1.8-.77c3.222-1.643,5.906-4.708,5.612-8.127-.461-.3-.9-.618-1.337-.931C7941.558,5446.974,7937.8,5449.771,7937.15,5453.249Zm33.187-5.786a18.767,18.767,0,0,0,.755,5.858,14.4,14.4,0,0,1,1.738-1.548c.258-2.54-.64-4.112-1.871-6.5A6.171,6.171,0,0,0,7970.337,5447.463Zm-36.191-1.726c.218,1.436.463,2.874.711,4.313a23.878,23.878,0,0,0,1.748,2.536c.9-3.184,4-5.935,6.666-8.827a14.875,14.875,0,0,1-2.685-2.984,15.745,15.745,0,0,1-1.847-1.172C7937.2,5441.643,7935.676,5443.691,7934.146,5445.737Zm25,2.622a7.65,7.65,0,0,1,2.787,3.735c.215-.667.411-1.335.58-2.007a10.95,10.95,0,0,0-2.415-2.628,14.145,14.145,0,0,0-3.077-1.811A5.452,5.452,0,0,0,7959.146,5448.359Zm14.878-5.53a4.326,4.326,0,0,0-2.006,1.045c.524,1.192,1.17,2.353,1.746,3.675a6.507,6.507,0,0,1,.5,3.142,12.231,12.231,0,0,0,2.894-2.777c1.387-2.049.646-5.2-2.162-5.2A4.473,4.473,0,0,0,7974.024,5442.829Zm-40.354,7.4c-.012-.066-.024-.133-.034-.2-.041-.073-.075-.145-.111-.22C7933.574,5449.946,7933.624,5450.085,7933.67,5450.226Zm12.57-5.9c2.433,1.587,5.024,3.035,6.577,5.28a7.084,7.084,0,0,1-.485-5.433c-1.206-.266-2.431-.491-3.661-.717-.971-.177-1.967-.4-2.958-.675A7.9,7.9,0,0,1,7946.24,5444.327Zm11.944-5.838c-.226.1-.439.213-.652.331a5.473,5.473,0,0,1,.038.946,22.177,22.177,0,0,1-.574,3.043,7.172,7.172,0,0,0-.141,1.931,13.488,13.488,0,0,1,5.933,4.138c.081-.407.153-.815.205-1.227.485-3.84-.954-7.084-2.313-10.455C7960.224,5438.095,7960.022,5437.67,7958.184,5438.489Zm5.046-7.378q-.333.752-.654,1.5c-.449,1.057-.874,2.125-1.3,3.19a6.578,6.578,0,0,1,1.192,1.468c1.2,2.115,1.43,4.551,1.9,6.853.188.9.435,1.8.715,2.694.25-3.429,2.183-6,3.635-9.467a9.348,9.348,0,0,0,.813-4.034,8.764,8.764,0,0,0-.5-2.42c-.584-1.657-.62-1.474-2.791-1.675-.676-.063-1.146-.107-1.484-.107C7963.724,5429.117,7963.926,5429.534,7963.23,5431.111Zm-32.212,12.84q.29.625.576,1.25c-.167-.449-.331-.9-.505-1.347C7931.064,5443.886,7931.044,5443.92,7931.018,5443.951Zm1.067-1.263c.028.071.061.141.086.213.226.61.417,1.225.6,1.839-.115-.8-.214-1.613-.3-2.435C7932.343,5442.432,7932.21,5442.555,7932.085,5442.688Zm3.9-2.723a10.212,10.212,0,0,0-2.373,1.359c.018.224.03.447.053.667.076.777.173,1.555.278,2.332q1.77-2.389,3.538-4.783A8.111,8.111,0,0,0,7935.986,5439.965Zm17.4,3.4c-.041.095-.061.183-.093.278.757.185,1.5.4,2.227.632.1-.868.365-1.736.532-2.576a9.108,9.108,0,0,0,.177-2.014A9.331,9.331,0,0,0,7953.383,5443.363Zm24.159-.813a4.84,4.84,0,0,1,1.142,1.039,7.452,7.452,0,0,0-1.407-3.733c-1.255-1.839-2.908-3.422-4.326-5.153a21.466,21.466,0,0,1-1.517-2.149c.034,2.4-.485,4.8-.423,7.208a9.923,9.923,0,0,0,.673,3.282,5.276,5.276,0,0,1,.606-.413,6.107,6.107,0,0,1,2.882-.75A4.192,4.192,0,0,1,7977.542,5442.549Zm-29.109-6.031a14.785,14.785,0,0,1-2.378,5.435c2.128.586,4.337,1.009,6.492,1.512a9.435,9.435,0,0,1,3.6-4.644c-.308-1.963-1.518-3.474-3.773-4.879a12.668,12.668,0,0,0-3.7-1.667A16.188,16.188,0,0,1,7948.433,5436.518Zm-17.854,6.462c.039-.044.066-.092.107-.137-.592-1.452-1.2-2.9-1.8-4.37A32.57,32.57,0,0,0,7930.579,5442.98Zm13.539-.165.284-.334c-.022-.034-.036-.072-.057-.1-.415-.135-.826-.278-1.23-.435C7943.431,5442.247,7943.768,5442.537,7944.118,5442.815Zm-10.333-20.2a8.938,8.938,0,0,0-3.963,3.669c-.175,2.086-.973,4.068-1.355,6.122a13.843,13.843,0,0,0,.542,3.282,50.266,50.266,0,0,0,2.685,6.06c.215-.215.435-.427.661-.63-.625-7.193.193-14.771,6.5-19.516q-.308-.021-.617-.021A10.431,10.431,0,0,0,7933.785,5422.611Zm9.936,10.808a20.447,20.447,0,0,0-3.327,3.9,10.08,10.08,0,0,0,.409,1.283,7.274,7.274,0,0,1,4.281,3.037,12.93,12.93,0,0,0,1.909-3.274,13.687,13.687,0,0,0,.777-6.234q-.283-.027-.565-.027A5.246,5.246,0,0,0,7943.721,5433.419Zm-7.505-6.694c-2.554,4.047-2.977,8.851-2.694,13.446a9.43,9.43,0,0,1,3.884-1.7,9.153,9.153,0,0,1-2.636-4.754c-.808-4.014,2.021-9.018,6.9-9.418a5.8,5.8,0,0,1,3.589.773c.151-.077.306-.141.459-.216-.113-.137-.217-.28-.324-.423-1.526-.4-2.608-1.647-4.03-2.259-.128-.056-.266-.093-.4-.139A13.968,13.968,0,0,0,7936.216,5426.725Zm9.966-.945a9.146,9.146,0,0,1,2.374,5.331,8.912,8.912,0,0,1,1.712.5c3.111,1.236,6.379,3.472,7.139,6.529a6.351,6.351,0,0,0,2.882-1.647c.024-.032.046-.068.068-.1l-.032-.083a9.929,9.929,0,0,0-1.542-1.307,7.173,7.173,0,0,1-2.133-1.836c-1.462-2.219-.652-5.456-2.622-7.234a4.705,4.705,0,0,1-4.71,1.375,6.327,6.327,0,0,1-2.868-1.647C7946.361,5425.7,7946.271,5425.736,7946.182,5425.78Zm-6.75.077c-5.143,2.67-4.418,8.8-.9,12.272.177-.244.359-.483.538-.727a9.725,9.725,0,0,1-.113-4.283,11.856,11.856,0,0,1,5.266-7.433,4.482,4.482,0,0,0-2.132-.537A5.754,5.754,0,0,0,7939.432,5425.857Zm2.128,4.044a9.385,9.385,0,0,0-1.4,6.029c1.983-2.67,4.172-5.059,7.445-4.923-.052-.272-.106-.544-.175-.812a7.623,7.623,0,0,0-2.241-3.842A12.044,12.044,0,0,0,7941.56,5429.9Zm18.507-1.966c-.663,2.55-.012,5.067.854,7.479.61-1.253,1.007-2.753,1.488-3.951.524-1.305,1.08-3.867,2.787-4.491,2.248-.822,3.633.759,4.413,2.882a8.613,8.613,0,0,0-1.432-3.156c-1.691-2.277-4.225-2.28-6.879-2.338C7960.927,5425.533,7960.391,5426.685,7960.067,5427.935Zm-5.439-2.861c.05.042.11.076.161.121,1.708,1.506,1.551,3.679,2.026,5.626a6.817,6.817,0,0,0,2.817,3.591c-.018-.055-.038-.107-.056-.161a12.481,12.481,0,0,1-.711-5.657,26.483,26.483,0,0,1,1.422-4.277,17.586,17.586,0,0,1-5.182-1.229A3.821,3.821,0,0,1,7954.628,5425.074Zm-7.222.181a4.377,4.377,0,0,0,3.55,1.162,3.936,3.936,0,0,0,2.221-1.058,5.072,5.072,0,0,0-.973-.391,6.833,6.833,0,0,0-1.876-.257A8.608,8.608,0,0,0,7947.406,5425.255Zm6.4-.717a2.617,2.617,0,0,0,.356-1.313,2.724,2.724,0,0,0-.059-.52c-.791-.314-1.581-.634-2.384-.935a12.759,12.759,0,0,1-2.523,2.074,10.268,10.268,0,0,1,1.161-.067A7.481,7.481,0,0,1,7953.81,5424.538Zm-13.976-13.769c-2.676.625-3.875,3.689-6.418,4.817-1.1.491-2.75.71-3.54,1.691a5.252,5.252,0,0,0-.713,4c.185,1.049.483,2.062.624,3.109.147-.177.294-.354.458-.524a10.224,10.224,0,0,1,1.989-1.581.586.586,0,0,1-.36-.786,7.182,7.182,0,0,1,5.159-3.9,33.333,33.333,0,0,1,9.934-2.878c-1.574-2.093-3.428-4.093-5.957-4.092A5.182,5.182,0,0,0,7939.834,5410.77Zm21.654,9.749a5.577,5.577,0,0,1,.139,2.386,12.507,12.507,0,0,1,4.723.584,12.431,12.431,0,0,0-5.626-4.763A7.765,7.765,0,0,1,7961.489,5420.519Zm-17.323.284c.538.786,1.039,1.631,1.575,2.431,1.658.441,2.8-.024,4.277-1.279.211-.177.4-.37.6-.563a19.469,19.469,0,0,0-1.883-.536,11.069,11.069,0,0,0-2.424-.273A10.527,10.527,0,0,0,7944.166,5420.8Zm12.1-2.271a6.828,6.828,0,0,0-2.81,1.593l.059.046a4.673,4.673,0,0,1,1.053,1.18,19.777,19.777,0,0,0,4.424,1.394,12.46,12.46,0,0,0,1.625.141,5.593,5.593,0,0,0,.044-.737,6.018,6.018,0,0,0-1.269-3.768,7.452,7.452,0,0,0-1.178-.093A8.088,8.088,0,0,0,7956.267,5418.531Zm-14.046,2.872c.119.057.244.109.36.171.516.278.965.753,1.484,1.007.022.012.042.018.064.03-.286-.437-.57-.874-.872-1.3-.056-.081-.125-.147-.183-.224C7942.785,5421.181,7942.5,5421.284,7942.221,5421.4Zm-4.851-2.773a15.733,15.733,0,0,0-4.45,3.285,11.27,11.27,0,0,1,7.229-1.2,11.958,11.958,0,0,1,1.728-.828,6.282,6.282,0,0,0-3.8-1.3A5.966,5.966,0,0,0,7937.37,5418.629Zm13.965,1.4c.087.032.173.066.258.1a16.279,16.279,0,0,1-2.708-2.795c-.387-.5-.783-1.062-1.2-1.633-.7.086-1.357.193-1.947.306a39.608,39.608,0,0,0-5.975,1.591,6.3,6.3,0,0,1,2.533,1.111,5.906,5.906,0,0,1,.826.763,11.927,11.927,0,0,1,3.092-.4A15.024,15.024,0,0,1,7951.335,5420.033Zm-2.418-4.457c.111.155.22.31.331.461a17.763,17.763,0,0,0,3.339,3.379,7.836,7.836,0,0,1,.8-.65,7.74,7.74,0,0,1,4.976-1.384c-1.891-1.427-4.687-1.891-7.388-1.891C7950.277,5415.492,7949.585,5415.523,7948.917,5415.577Z" transform="translate(-7507.568 -5331.32)" fill="#133d60" stroke="rgba(0,0,0,0)" stroke-miterlimit="10" stroke-width="1"/>
      <path id="Trazado_123579" data-name="Trazado 123579" d="M306.878,79.533c-4.809-.644-9.6-2.03-14.4-2.51a.468.468,0,0,0-.234.865c4.339,2.187,9.839,2.875,14.637,3.305C307.958,81.289,307.909,79.67,306.878,79.533Z" transform="translate(33.36 8.776)" fill="#fff"/>
      <path id="Trazado_123580" data-name="Trazado 123580" d="M308.136,72.1c-.864-1.928-3.107-3.405-4.6-4.875-1.73-1.7-3.4-3.474-5.164-5.136-.433-.409-1.25.142-.864.666a59.828,59.828,0,0,0,4.851,5.647c1.477,1.555,3.091,3.77,5.151,4.512C308.015,73.093,308.314,72.492,308.136,72.1Z" transform="translate(36.864 6.1)" fill="#fff"/>
      <path id="Trazado_123581" data-name="Trazado 123581" d="M313.451,66.3a7.972,7.972,0,0,0-1.519-2.468.466.466,0,0,0-.785.326,7.3,7.3,0,0,0,.862,2.556,6.424,6.424,0,0,0,1.468,2.516.527.527,0,0,0,.888-.369A5.866,5.866,0,0,0,313.451,66.3Z" transform="translate(46.046 6.414)" fill="#fff"/>
      <path id="Trazado_123582" data-name="Trazado 123582" d="M395.768,76.063a12.882,12.882,0,0,0-2.931,3.418,25.868,25.868,0,0,0-3.02,4.421.514.514,0,0,0,.8.619,25.845,25.845,0,0,0,3.455-4.085c.9-1.157,2.088-2.323,2.52-3.737A.569.569,0,0,0,395.768,76.063Z" transform="translate(105.19 8.592)" fill="#fff"/>
      <path id="Trazado_123583" data-name="Trazado 123583" d="M409.44,79.777a22.967,22.967,0,0,0-6.142,2.569,48.937,48.937,0,0,0-6.329,3.774.565.565,0,0,0,.57.974c2.045-1.082,4.039-2.254,6.1-3.3,2.03-1.028,4.325-1.789,6.185-3.1A.506.506,0,0,0,409.44,79.777Z" transform="translate(112.869 9.263)" fill="#fff"/>
      <path id="Trazado_123584" data-name="Trazado 123584" d="M408.119,88.547a14.467,14.467,0,0,0-8.159,1.176c-.467.212-.228.974.258.953,1.38-.06,2.754-.325,4.131-.459a24.373,24.373,0,0,0,3.77-.387A.67.67,0,0,0,408.119,88.547Z" transform="translate(113.382 10.787)" fill="#fff"/>
      <path id="Trazado_123585" data-name="Trazado 123585" d="M326.918,167.83a12.912,12.912,0,0,0,1.1-4.365,25.853,25.853,0,0,0,.737-5.3.515.515,0,0,0-1-.2,25.959,25.959,0,0,0-1.276,5.2c-.293,1.438-.836,3.008-.593,4.469A.569.569,0,0,0,326.918,167.83Z" transform="translate(56.802 23.082)" fill="#fff"/>
      <path id="Trazado_123586" data-name="Trazado 123586" d="M313.885,170.411a22.941,22.941,0,0,0,4.358-5.034,49.041,49.041,0,0,0,3.989-6.194.565.565,0,0,0-.943-.619c-1.352,1.878-2.616,3.814-4,5.67-1.361,1.824-3.078,3.525-4.162,5.525A.507.507,0,0,0,313.885,170.411Z" transform="translate(48.426 23.203)" fill="#fff"/>
      <path id="Trazado_123587" data-name="Trazado 123587" d="M310.59,161.285a14.469,14.469,0,0,0,6.785-4.683c.324-.4-.23-.974-.656-.739-1.209.669-2.322,1.518-3.495,2.25a24.15,24.15,0,0,0-3.205,2.024A.67.67,0,0,0,310.59,161.285Z" transform="translate(45.738 22.759)" fill="#fff"/>
      <g id="Grupo_131180" data-name="Grupo 131180">
        <path id="Trazado_123573" data-name="Trazado 123573" d="M321.569,163.878c-3.154,7.972-5.125,19.974-6.279,28.161S312.2,215.554,309.1,223.2c-.6,1.477-1.078,7.233-1.431,14.064-.661,12.651-.939,29.025-.939,29.025a57.421,57.421,0,0,1-40.888-.77s3.2-13.451,5.971-27.255c2.493-12.48,4.648-25.252,3.786-28.638-1.8-7.155-12.373-40.165-13.358-43.905s6.218-32.594,9-38.087,7.448-20.3,10.1-21.16,4.385,2.662,3.062,5.556-11.312,29.254-11.866,38.672L284.4,128.1s10.711-16.019,14.311-17.312,6.494.986,2.817,5.37A125.864,125.864,0,0,0,291.1,132.483c-4.74,8.756-8.7,17.975-8.972,18.651.754-1.092,12.834-18.419,16.157-19.235,3.432-.831,27.131,3.694,26.332,5.971-.8,2.294-2.555,3.847-8.126,3.386s-15.835-1.017-15.835-1.017-7.4,17.59-5.017,27.977a5.291,5.291,0,0,0,8.478,2.817c2.785-2.231,6.019-5.433,7.327-9.064,2.508-6.894,8.294-19.913,14-19.128S324.723,155.906,321.569,163.878Z" transform="translate(19.723 -32.8)" fill="#ffae7b"/>
        <g id="Grupo_131179" data-name="Grupo 131179" transform="translate(284.033 203.28)">
          <path id="Trazado_123575" data-name="Trazado 123575" d="M308.357,185.2c-.709,13.577-1.007,31.151-1.007,31.151a61.631,61.631,0,0,1-43.886-.826s3.435-14.436,6.409-29.252a12.013,12.013,0,0,0,1.933.777A37.671,37.671,0,0,0,281.9,188.2,108.857,108.857,0,0,0,308.357,185.2Z" transform="translate(-263.464 -185.196)" fill="#ddf3ff"/>
          <path id="Trazado_123588" data-name="Trazado 123588" d="M288.7,195.323a3.31,3.31,0,0,0-3.871-2.142,3.052,3.052,0,0,0-2.019,1.9,2.582,2.582,0,0,0-.569,1,3.468,3.468,0,0,0,1.269,3.7,3.257,3.257,0,0,0,4.054-.258A3.8,3.8,0,0,0,288.7,195.323Z" transform="translate(-251.433 -180.11)" fill="#5dc1ff"/>
          <g id="Grupo_131176" data-name="Grupo 131176" transform="translate(0 1.073)">
            <path id="Trazado_123590" data-name="Trazado 123590" d="M265.67,204.058c-.043-.015-.156.2-.291.508l.341.117C265.8,204.313,265.785,204.1,265.67,204.058Z" transform="translate(-262.228 -174.097)" fill="#c4eaff"/>
            <path id="Trazado_123591" data-name="Trazado 123591" d="M266.08,215.643c-.109-.262-.087-.4.115-.785.161-.3.217-.525.161-.635s-.044-.183.072-.219a.351.351,0,0,0,.191-.288c.033-.278.39-.638.571-.574.066.023.076.123.02.222-.125.217-.035.92.127.974.13.046.321-.174.475-.548.893-2.167,1.037-2.529.778-2.654s-.192-.548.122-.752a1.028,1.028,0,0,0,.327-.607c.169-.693.622-1.728.7-1.6a1.516,1.516,0,0,1,.09.3.363.363,0,0,0,.28.288,4.918,4.918,0,0,1,.587.194c.372.146.528.054.362-.214a.679.679,0,0,1,.054-.475c.189-.452.026-.663-.494-.642-.364.016-.727-.054-.693-.135a1.465,1.465,0,0,0,0-.191c-.01-.122.063-.128.326-.03.477.179,1.461-.059,1.375-.334a2.663,2.663,0,0,1,.38-1.394c.086-.046.178,0,.326.165.262.288.5.378.686.267.127-.076.171-.059.306.1.2.235-.01.439-.323.321a.533.533,0,0,0-.415.035c-.24.148-.2.355.056.308.311-.056.536.2.364.411a.442.442,0,0,0-.063.41c.1.26-.02.574-.332.865-.214.2-.212.242.021.592.214.318.225.41.077.573a.823.823,0,0,0-.229.849,1.713,1.713,0,0,1-.178.89,1.3,1.3,0,0,0-.165.673c.072.076-.077.571-.388,1.277a.532.532,0,0,0-.046.36,6.454,6.454,0,0,1-.276,1.369c-.467,1.734-.37,1.927.168.342l.647-1.889c.3-.818,1.359-4.562,1.515-5.306.074-.336.262-1.014.418-1.5a7.888,7.888,0,0,0,.571-3.375c-.016-.29-.192-.349-.461-.158-.252.181-.411.146-.4-.087a2.474,2.474,0,0,0-.048-.439.626.626,0,0,1,.146-.512c.232-.278.5-.28.433,0-.051.206.181.533.345.49a2.3,2.3,0,0,0,.558-1.612,1.391,1.391,0,0,1,.046-.624c.1-.385.077-.49-.1-.569-.576-.262-.668-.322-.806-.535a1.048,1.048,0,0,0-.423-.342c-.151-.062-.26-.15-.239-.194a.4.4,0,0,0-.007-.224,2.252,2.252,0,0,1,.094-.675,1.431,1.431,0,0,0,.026-.744c-.145-.291-.061-.421.2-.311s.308.023.316-.546c0-.291.048-.426.135-.413.151.023.326-.27.194-.326-.3-.128-.37-.413-.133-.571.2-.135.224-.2.135-.378-.077-.158-.044-.3.123-.535.4-.553.375-1.573-.043-1.825.546-.053.683-.276.553-.8-.091-.362-.084-.38.23-.554.262-.142.311-.212.252-.355a.349.349,0,0,1,.1-.347c.094-.1.13-.216.079-.275a.264.264,0,0,1-.01-.265,1.233,1.233,0,0,0-.146-.856c-.038-.053.072-.166.247-.252.308-.151.314-.166.225-.477a1.054,1.054,0,0,1,.016-.477,27.314,27.314,0,0,1-4.581-.862,12.013,12.013,0,0,1-1.933-.777c-2.973,14.816-6.409,29.252-6.409,29.252s.875.408,2.455.974C266.207,215.966,266.21,215.952,266.08,215.643Zm7.491-15.739a.187.187,0,0,1,.24-.1c.186.074.186.092.007.235a.268.268,0,0,1-.225.063C273.54,200.085,273.528,199.993,273.571,199.9Zm-.294.678c.262-.066.418.018.563.3.16.311.267.35.411.148.169-.234.377-.165.479.16.077.248.061.295-.146.385-.148.064-.248.059-.268-.015-.046-.163-.23-.22-.291-.089-.13.28-.545.227-.767-.1C273.009,201,273.017,200.646,273.277,200.582Zm-.188,1.114c.3.03.336.161.171.61-.168.477-.291.53-.5.216S272.782,201.664,273.089,201.7Zm-.209,1.591c.285-.051.331.051.125.278-.189.211-.336.194-.35-.036C272.642,203.321,272.633,203.328,272.88,203.287Zm-.694,1.124c.26-.591.513-.749.622-.387.016.056.114.11.216.12a.492.492,0,0,1,.3.181.75.75,0,0,0,.413.219c.28.053.285.067.1.336-.36.507-.833.614-.734.163.14-.635.026-.8-.281-.42a.369.369,0,0,0-.077.431c.176.331-.25.464-.584.183C271.926,205.039,271.928,205,272.186,204.41ZM264.7,214.649c-.344-.153-.365-.4-.041-.476C265.078,214.8,265.073,214.815,264.7,214.649Z" transform="translate(-263.464 -185.848)" fill="#c4eaff"/>
            <path id="Trazado_123592" data-name="Trazado 123592" d="M266.263,204.656l.1.031C266.326,204.661,266.289,204.64,266.263,204.656Z" transform="translate(-261.658 -173.714)" fill="#c4eaff"/>
            <path id="Trazado_123593" data-name="Trazado 123593" d="M271.035,190.865a.266.266,0,0,0,.206-.14C270.818,190.766,270.8,190.871,271.035,190.865Z" transform="translate(-258.676 -182.701)" fill="#c4eaff"/>
            <path id="Trazado_123594" data-name="Trazado 123594" d="M271.4,190.01a.616.616,0,0,0-.081-.327C271.292,189.9,271.343,189.984,271.4,190.01Z" transform="translate(-258.398 -183.373)" fill="#c4eaff"/>
            <path id="Trazado_123595" data-name="Trazado 123595" d="M271.608,190.91a.254.254,0,0,0,.01.252c.048.054.128.007.184-.109s.051-.227-.008-.253S271.649,190.823,271.608,190.91Z" transform="translate(-258.227 -182.657)" fill="#c4eaff"/>
            <path id="Trazado_123596" data-name="Trazado 123596" d="M271.885,187.324c-.118.235-.021.38.192.281.14-.066.163-.416.031-.475C272.053,187.1,271.953,187.192,271.885,187.324Z" transform="translate(-258.063 -185.024)" fill="#c4eaff"/>
            <path id="Trazado_123597" data-name="Trazado 123597" d="M267,200.871c.216.173.334.173.392.142C267.14,200.825,267.022,200.825,267,200.871Z" transform="translate(-261.181 -176.17)" fill="#c4eaff"/>
            <path id="Trazado_123598" data-name="Trazado 123598" d="M268.113,205.149c.046-.117.035-.229-.028-.25s-.142.035-.176.122a.246.246,0,0,0,.026.247C268,205.3,268.069,205.261,268.113,205.149Z" transform="translate(-260.609 -173.557)" fill="#c4eaff"/>
            <path id="Trazado_123599" data-name="Trazado 123599" d="M267.562,201.741c.069-.166-.138-.216-.265-.063-.142.171.089.477.306.408C267.569,201.9,267.534,201.806,267.562,201.741Z" transform="translate(-261.019 -175.692)" fill="#c4eaff"/>
            <path id="Trazado_123600" data-name="Trazado 123600" d="M271.294,193.23c-.349-.1-.375-.132-.332-.383.053-.306-.146-.533-.378-.423s-.23.181.018.4c.128.114.209.255.181.316s.049.191.171.288a1.143,1.143,0,0,1,.313.466,2.3,2.3,0,0,0-1.257-.194.689.689,0,0,1,.031.479.262.262,0,0,0,.067.3c.235.186.349.212.4.094a.564.564,0,0,1,.336-.165c.273-.054.285-.049.28.123-.021.709.225.747.492.077C271.931,193.836,271.822,193.382,271.294,193.23Z" transform="translate(-259.24 -181.623)" fill="#c4eaff"/>
            <path id="Trazado_123601" data-name="Trazado 123601" d="M270.909,192.067a.272.272,0,0,0-.224-.123c-.22.007-.327.448-.128.53S271.011,192.25,270.909,192.067Z" transform="translate(-258.954 -181.914)" fill="#c4eaff"/>
          </g>
        </g>
      </g>
      <g id="Grupo_131181" data-name="Grupo 131181" transform="translate(493.872 73.543)">
        <path id="Trazado_123573-2" data-name="Trazado 123573" d="M268.309,163.878c3.154,7.972,5.125,19.974,6.279,28.161s3.093,23.515,6.186,31.164c.6,1.477,1.078,7.233,1.431,14.064.661,12.651.939,29.025.939,29.025a57.421,57.421,0,0,0,40.888-.77s-3.2-13.451-5.971-27.255c-2.493-12.48-4.648-25.252-3.786-28.638,1.8-7.155,12.373-40.166,13.358-43.905s-6.218-32.594-9-38.088-7.448-20.3-10.1-21.16-4.385,2.662-3.062,5.556,11.312,29.254,11.866,38.672L305.474,128.1s-10.711-16.019-14.311-17.312-6.494.986-2.817,5.37a125.861,125.861,0,0,1,10.433,16.328c4.74,8.756,8.7,17.975,8.972,18.651-.754-1.092-12.834-18.419-16.157-19.235-3.432-.831-27.132,3.694-26.332,5.971.8,2.294,2.555,3.847,8.126,3.386s15.835-1.017,15.835-1.017,7.4,17.59,5.017,27.977a5.291,5.291,0,0,1-8.478,2.817c-2.785-2.231-6.019-5.433-7.327-9.064-2.508-6.894-8.294-19.913-14-19.128S265.155,155.906,268.309,163.878Z" transform="translate(-262.151 -106.344)" fill="#ffae7b"/>
        <g id="Grupo_131179-2" data-name="Grupo 131179" transform="translate(18.523 129.737)">
          <path id="Trazado_123575-2" data-name="Trazado 123575" d="M263.464,185.2c.709,13.577,1.007,31.151,1.007,31.151a61.631,61.631,0,0,0,43.886-.826s-3.435-14.436-6.409-29.252a12.013,12.013,0,0,1-1.933.777,37.671,37.671,0,0,1-10.092,1.157A108.858,108.858,0,0,1,263.464,185.2Z" transform="translate(-263.464 -185.196)" fill="#ddf3ff"/>
          <path id="Trazado_123588-2" data-name="Trazado 123588" d="M282.338,195.323a3.31,3.31,0,0,1,3.871-2.142,3.052,3.052,0,0,1,2.019,1.9,2.582,2.582,0,0,1,.569,1,3.468,3.468,0,0,1-1.269,3.7,3.257,3.257,0,0,1-4.054-.258A3.8,3.8,0,0,1,282.338,195.323Z" transform="translate(-274.714 -180.11)" fill="#5dc1ff"/>
          <g id="Grupo_131176-2" data-name="Grupo 131176" transform="translate(30.76 1.073)">
            <path id="Trazado_123590-2" data-name="Trazado 123590" d="M265.478,204.058c.043-.015.156.2.291.508l-.341.117C265.35,204.313,265.363,204.1,265.478,204.058Z" transform="translate(-254.787 -174.097)" fill="#c4eaff"/>
            <path id="Trazado_123591-2" data-name="Trazado 123591" d="M273.8,215.643c.109-.262.087-.4-.115-.785-.161-.3-.217-.525-.161-.635s.044-.183-.072-.219a.351.351,0,0,1-.191-.288c-.033-.278-.39-.638-.571-.574-.066.023-.076.123-.02.222.125.217.035.92-.127.974-.13.046-.321-.174-.475-.548-.893-2.167-1.037-2.529-.778-2.654s.192-.548-.122-.752a1.028,1.028,0,0,1-.327-.607c-.169-.693-.622-1.728-.7-1.6a1.516,1.516,0,0,0-.09.3.363.363,0,0,1-.28.288,4.918,4.918,0,0,0-.587.194c-.372.146-.528.054-.362-.214a.679.679,0,0,0-.054-.475c-.189-.452-.026-.663.494-.642.364.016.727-.054.693-.135a1.465,1.465,0,0,1,0-.191c.01-.122-.063-.128-.326-.03-.477.179-1.461-.059-1.375-.334a2.663,2.663,0,0,0-.38-1.394c-.086-.046-.178,0-.326.165-.262.288-.5.378-.686.267-.127-.076-.171-.059-.306.1-.2.235.01.439.323.321a.533.533,0,0,1,.415.035c.24.148.2.355-.056.308-.311-.056-.536.2-.364.411a.442.442,0,0,1,.063.41c-.1.26.02.574.332.865.214.2.212.242-.021.592-.214.318-.225.41-.077.573a.823.823,0,0,1,.229.849,1.713,1.713,0,0,0,.178.89,1.3,1.3,0,0,1,.165.673c-.072.076.077.571.388,1.277a.532.532,0,0,1,.046.36,6.454,6.454,0,0,0,.276,1.369c.467,1.734.37,1.927-.168.342l-.647-1.889c-.3-.818-1.359-4.562-1.515-5.306-.074-.336-.262-1.014-.418-1.5a7.888,7.888,0,0,1-.571-3.375c.016-.29.192-.349.461-.158.252.181.411.146.4-.087a2.474,2.474,0,0,1,.048-.439.626.626,0,0,0-.146-.512c-.232-.278-.5-.28-.433,0,.051.206-.181.533-.345.49a2.3,2.3,0,0,1-.558-1.612,1.391,1.391,0,0,0-.046-.624c-.1-.385-.077-.49.1-.569.576-.262.668-.322.806-.535a1.048,1.048,0,0,1,.423-.342c.151-.062.26-.15.239-.194a.4.4,0,0,1,.007-.224,2.252,2.252,0,0,0-.094-.675,1.431,1.431,0,0,1-.026-.744c.145-.291.061-.421-.2-.311s-.308.023-.316-.546c0-.291-.048-.426-.135-.413-.151.023-.326-.27-.194-.326.3-.128.37-.413.133-.571-.2-.135-.224-.2-.135-.378.077-.158.044-.3-.123-.535-.4-.553-.375-1.573.043-1.825-.546-.053-.683-.276-.553-.8.091-.362.084-.38-.23-.554-.262-.142-.311-.212-.252-.355a.349.349,0,0,0-.1-.347c-.094-.1-.13-.216-.079-.275a.264.264,0,0,0,.01-.265,1.233,1.233,0,0,1,.146-.856c.038-.053-.072-.166-.247-.252-.308-.151-.314-.166-.225-.477a1.054,1.054,0,0,0-.016-.477,27.314,27.314,0,0,0,4.581-.862,12.013,12.013,0,0,0,1.933-.777c2.973,14.816,6.409,29.252,6.409,29.252s-.875.408-2.455.974C273.677,215.966,273.673,215.952,273.8,215.643ZM266.312,199.9a.187.187,0,0,0-.24-.1c-.186.074-.186.092-.007.235a.268.268,0,0,0,.225.063C266.343,200.085,266.355,199.993,266.312,199.9Zm.294.678c-.262-.066-.418.018-.563.3-.16.311-.267.35-.411.148-.169-.234-.377-.165-.479.16-.077.248-.061.295.146.385.148.064.248.059.268-.015.046-.163.23-.22.291-.089.13.28.545.227.767-.1C266.875,201,266.867,200.646,266.607,200.582Zm.188,1.114c-.3.03-.336.161-.171.61.168.477.291.53.5.216S267.1,201.664,266.794,201.7Zm.209,1.591c-.285-.051-.331.051-.125.278.189.211.336.194.35-.036C267.242,203.321,267.25,203.328,267,203.287Zm.694,1.124c-.26-.591-.513-.749-.622-.387-.016.056-.114.11-.216.12a.492.492,0,0,0-.3.181.75.75,0,0,1-.413.219c-.28.053-.285.067-.1.336.36.507.833.614.734.163-.14-.635-.026-.8.281-.42a.369.369,0,0,1,.077.431c-.176.331.25.464.584.183C267.958,205.039,267.956,205,267.7,204.41Zm7.486,10.239c.344-.153.365-.4.041-.476C274.805,214.8,274.81,214.815,275.184,214.649Z" transform="translate(-262.286 -185.848)" fill="#c4eaff"/>
            <path id="Trazado_123592-2" data-name="Trazado 123592" d="M266.365,204.656l-.1.031C266.3,204.661,266.339,204.64,266.365,204.656Z" transform="translate(-256.837 -173.714)" fill="#c4eaff"/>
            <path id="Trazado_123593-2" data-name="Trazado 123593" d="M271.09,190.865a.266.266,0,0,1-.206-.14C271.307,190.766,271.325,190.871,271.09,190.865Z" transform="translate(-269.316 -182.701)" fill="#c4eaff"/>
            <path id="Trazado_123594-2" data-name="Trazado 123594" d="M271.314,190.01a.616.616,0,0,1,.081-.327C271.426,189.9,271.375,189.984,271.314,190.01Z" transform="translate(-270.187 -183.373)" fill="#c4eaff"/>
            <path id="Trazado_123595-2" data-name="Trazado 123595" d="M271.813,190.91a.254.254,0,0,1-.01.252c-.048.054-.128.007-.184-.109s-.051-.227.008-.253S271.772,190.823,271.813,190.91Z" transform="translate(-271.061 -182.657)" fill="#c4eaff"/>
            <path id="Trazado_123596-2" data-name="Trazado 123596" d="M272.145,187.324c.118.235.021.38-.192.281-.14-.066-.163-.416-.031-.475C271.977,187.1,272.077,187.192,272.145,187.324Z" transform="translate(-271.834 -185.024)" fill="#c4eaff"/>
            <path id="Trazado_123597-2" data-name="Trazado 123597" d="M267.394,200.871c-.216.173-.334.173-.392.142C267.255,200.825,267.374,200.825,267.394,200.871Z" transform="translate(-259.081 -176.17)" fill="#c4eaff"/>
            <path id="Trazado_123598-2" data-name="Trazado 123598" d="M267.917,205.149c-.046-.117-.035-.229.028-.25s.142.035.176.122a.246.246,0,0,1-.026.247C268.028,205.3,267.961,205.261,267.917,205.149Z" transform="translate(-261.288 -173.557)" fill="#c4eaff"/>
            <path id="Trazado_123599-2" data-name="Trazado 123599" d="M267.295,201.741c-.069-.166.138-.216.265-.063.142.171-.089.477-.306.408C267.288,201.9,267.323,201.806,267.295,201.741Z" transform="translate(-259.705 -175.692)" fill="#c4eaff"/>
            <path id="Trazado_123600-2" data-name="Trazado 123600" d="M270.508,193.23c.349-.1.375-.132.332-.383-.053-.306.146-.533.378-.423s.23.181-.018.4c-.128.114-.209.255-.181.316s-.049.191-.171.288a1.143,1.143,0,0,0-.313.466,2.3,2.3,0,0,1,1.257-.194.689.689,0,0,0-.031.479.262.262,0,0,1-.067.3c-.235.186-.349.212-.4.094a.564.564,0,0,0-.336-.165c-.273-.054-.285-.049-.28.123.021.709-.225.747-.492.077C269.871,193.836,269.98,193.382,270.508,193.23Z" transform="translate(-268.428 -181.623)" fill="#c4eaff"/>
            <path id="Trazado_123601-2" data-name="Trazado 123601" d="M270.475,192.067a.272.272,0,0,1,.224-.123c.22.007.327.448.128.53S270.373,192.25,270.475,192.067Z" transform="translate(-268.297 -181.914)" fill="#c4eaff"/>
          </g>
        </g>
      </g>
      <path id="Trazado_123616" data-name="Trazado 123616" d="M286.4,91.772a2.9,2.9,0,0,0-1.858.039.47.47,0,0,0-.485-.009,2.9,2.9,0,0,0-.632,4.112,2.634,2.634,0,1,0,2.975-4.141Zm.019,3.33a1.365,1.365,0,0,1-2.154-.271,1.583,1.583,0,0,1-.1-1.1c.471-.482.961-1,1.714-.747A1.363,1.363,0,0,1,286.423,95.1Z" transform="translate(6.079 11.37)" fill="#fff"/>
      <path id="Trazado_123617" data-name="Trazado 123617" d="M290.195,87.869c-.729-.745-1.98-.12-2.3.73a.32.32,0,0,0,.064.3,1.141,1.141,0,0,0,.089,1.4,1.342,1.342,0,0,0,2.026-.074A1.806,1.806,0,0,0,290.195,87.869Zm-.537,1.839a.747.747,0,0,1-1.187.175.854.854,0,0,1-.214-.835.284.284,0,0,0,.089,0c.358-.145.619-.45.988-.575C290.12,88.2,289.9,89.373,289.658,89.708Z" transform="translate(28.793 10.642)" fill="#fff"/>
      <path id="Trazado_123618" data-name="Trazado 123618" d="M290.773,92.223c-.935-.144-2.056.745-1.667,1.751a.3.3,0,0,0,.476.146,1.243,1.243,0,0,0,.629,1.009,1.406,1.406,0,0,0,1.953-.924A1.669,1.669,0,0,0,290.773,92.223Zm-.14,2.264a.748.748,0,0,1-.36-.949c.425-.287.9-.429,1.1.213A.607.607,0,0,1,290.633,94.488Z" transform="translate(29.76 11.471)" fill="#fff"/>
      <path id="Trazado_123619" data-name="Trazado 123619" d="M376.919,62.574c-1.572-.608-4.161.312-3.756,2.368a.343.343,0,0,0,.312.272,3.32,3.32,0,0,0,.6,1.512c1.049,1.445,3.683,2.106,4.775.319C379.875,65.361,378.575,63.213,376.919,62.574Zm1.017,3.452c-.284,1.379-2.07.884-2.758.157a1.848,1.848,0,0,1-.279-2.338,1.671,1.671,0,0,1,1.444-.167A2.209,2.209,0,0,1,377.936,66.026Z" transform="translate(92.55 6.179)" fill="#fff"/>
      <path id="Trazado_123620" data-name="Trazado 123620" d="M372.616,53.533a1.709,1.709,0,0,0-2.285.588,2.841,2.841,0,0,0-.224,2.82,1.721,1.721,0,0,0,2.859-.121C373.6,55.893,373.676,54.2,372.616,53.533Zm-.4,2.744c-.417.652-1.32.663-1.507-.152a3.259,3.259,0,0,1-.038-1.093c.365-.314.968-.928,1.448-.652C372.7,54.711,372.5,55.835,372.218,56.277Z" transform="translate(89.358 4.567)" fill="#fff"/>
      <path id="Trazado_123621" data-name="Trazado 123621" d="M381.435,48.225a3.147,3.147,0,0,0-4.915.907c-.012.028,0,.051,0,.077a3.149,3.149,0,0,0,4.5,4.375C382.386,52.31,382.856,49.633,381.435,48.225Zm-1.2,4.716a2.227,2.227,0,0,1-3.3-.832,2.922,2.922,0,0,1,.121-2.63c1.181-.582,2.8-1.859,3.881-.28A3.091,3.091,0,0,1,380.237,52.941Z" transform="translate(94.673 3.522)" fill="#fff"/>
      <path id="Trazado_123622" data-name="Trazado 123622" d="M378.612,57.513a1.655,1.655,0,0,0-1.447-.446c-.915-.449-1.464,1.185-1.273,1.83a1.627,1.627,0,0,0,2.248.976A1.6,1.6,0,0,0,378.612,57.513ZM377.6,59.158a.791.791,0,0,1-.909-.848.679.679,0,0,1,.038-.137.3.3,0,0,0,.1,0c.344-.1.663-.325,1.035-.122C378.351,58.316,378.088,59.062,377.6,59.158Z" transform="translate(93.639 5.221)" fill="#fff"/>
      <path id="Trazado_123623" data-name="Trazado 123623" d="M366.58,158.485a3.084,3.084,0,0,0-3.359.387.162.162,0,0,0-.179.038,3,3,0,0,0,.1,4.366,3.126,3.126,0,0,0,4.37-.46A3,3,0,0,0,366.58,158.485Zm-.086,3.9a2.135,2.135,0,0,1-2.938,0,2.592,2.592,0,0,1-.622-1.876.342.342,0,0,0,.223-.086c.774-.739,1.726-1.6,2.865-.986A1.92,1.92,0,0,1,366.494,162.389Z" transform="translate(84.348 23.175)" fill="#fff"/>
      <path id="Trazado_123624" data-name="Trazado 123624" d="M371.124,153.352c-.617-.431-1.889-.226-2.09.536-1.042.168-1.063,1.58-.562,2.256a1.886,1.886,0,0,0,2.8.026A1.917,1.917,0,0,0,371.124,153.352Zm-.654,2.36a.961.961,0,0,1-1.434-.2,1.171,1.171,0,0,1,.041-1.083.32.32,0,0,0,.48.053c.29-.266.677-.632,1.1-.339C371.221,154.525,370.919,155.4,370.47,155.711Z" transform="translate(88.138 22.283)" fill="#fff"/>
      <path id="Trazado_123625" data-name="Trazado 123625" d="M371.537,161.108c-.958-.288-2.374.523-2.083,1.64a.264.264,0,0,0,.226.184,1.43,1.43,0,0,0,.595,1.285,1.7,1.7,0,0,0,2.428-.734A1.828,1.828,0,0,0,371.537,161.108Zm.485,1.991a.949.949,0,0,1-1.248.539,1.03,1.03,0,0,1-.365-1.371,1.128,1.128,0,0,1,.685-.327A.919.919,0,0,1,372.022,163.1Z" transform="translate(88.996 23.689)" fill="#fff"/>
      <path id="Trazado_123626" data-name="Trazado 123626" d="M376.256,159.5c-.605-.407-1.676-.091-1.6.752a.3.3,0,0,0,.548.148c.467-.767,1.1.253.778.834a.591.591,0,0,1-.69.343.569.569,0,0,1-.259-.717c.086-.125-.09-.308-.214-.214a.9.9,0,0,0-.015,1.466,1.232,1.232,0,0,0,1.85-.485A1.647,1.647,0,0,0,376.256,159.5Z" transform="translate(92.392 23.383)" fill="#fff"/>
      <path id="Trazado_123627" data-name="Trazado 123627" d="M375.341,167.9c-1.453-.412-3.592,1.008-2.921,2.629-.009.137-.015.268-.018.379a3.071,3.071,0,0,0,.845,2.434c1.4,1.249,3.424.24,4-1.321A3.2,3.2,0,0,0,375.341,167.9Zm1.1,3.309c-.133,1.014-1.132,2.121-2.236,1.608a1.568,1.568,0,0,1-.848-1.245,9.921,9.921,0,0,1-.114-1.156,4.064,4.064,0,0,1,.231-.568,1.417,1.417,0,0,1,1.581-.915A2.02,2.02,0,0,1,376.442,171.209Z" transform="translate(91.645 24.892)" fill="#fff"/>
      <path id="Trazado_123628" data-name="Trazado 123628" d="M376.311,151.665a1.375,1.375,0,0,0-1.049,1.8,1.568,1.568,0,0,0,.922,1.836c1.134.456,2.071-.652,2.114-1.719A1.8,1.8,0,0,0,376.311,151.665Zm.011,2.9a.979.979,0,0,1-.463-.695.264.264,0,0,0,.093-.252c-.258-1.226,1.7-1.288,1.564.049C377.457,154.252,376.947,154.921,376.322,154.565Z" transform="translate(93.149 22.019)" fill="#fff"/>
      <path id="Trazado_123629" data-name="Trazado 123629" d="M258.24,127.747a4.316,4.316,0,0,1-2.5-.058,3.675,3.675,0,0,1-1.666-1.77c-2.26-4.323-.575-9.7,2.068-13.8s6.214-7.637,8.168-12.105c1.649-3.775,2.049-8.02,3.848-11.724s5.84-6.934,9.78-5.729c8.837,2.7,6.071,21.085,3.552,27.488C277.949,119.065,267.444,126,258.24,127.747Z" transform="translate(-14.245 -12.373)" fill="#b3dcf5"/>
      <path id="Trazado_123630" data-name="Trazado 123630" d="M451.908,91.9c4.534-1.972,7.284-8.162,4.376-12.159-3.083-4.24-9.782-3.537-13.945-6.719-4.362-3.337-4.974-11.223-10.07-13.524-6.168-2.786-11.054,1.623-11.752,7.445C418.932,80.14,439.807,97.168,451.908,91.9Z" transform="translate(132.995 -19.931)" fill="#b3dcf5"/>
    </g>
  </g>
</svg>
