<svg xmlns="http://www.w3.org/2000/svg" width="58.462" height="60" viewBox="0 0 58.462 60">
  <g id="Grupo_133779" data-name="Grupo 133779" transform="translate(-807.77 -4447)">
    <ellipse id="Elipse_4912" data-name="Elipse 4912" cx="29.231" cy="30" rx="29.231" ry="30" transform="translate(807.77 4447)" fill="#d2f3e8"/>
    <g id="A64mba" transform="translate(-790.633 4225.667)">
      <g id="Grupo_133626" data-name="Grupo 133626" transform="translate(1610.402 232.333)">
        <path id="Trazado_126565" data-name="Trazado 126565" d="M1631.465,249.159c-.2.65-.354,1.285-.6,1.879a6.612,6.612,0,0,1-2.658,3.115.556.556,0,0,0-.314.611,7.593,7.593,0,0,0,.173,1.2,1.756,1.756,0,0,0,.962.984,20.27,20.27,0,0,0,4.757,1.605c.692.168,1.383.338,2.069.527a2.969,2.969,0,0,1,2.215,2.786c.144,2.606.309,5.211.449,7.817.056,1.027-.4,1.477-1.421,1.478h-25.25c-1.045,0-1.495-.459-1.437-1.5q.218-3.947.459-7.893a2.93,2.93,0,0,1,2.2-2.679c1.46-.393,2.94-.719,4.388-1.154a18.533,18.533,0,0,0,2.5-1.021,1.9,1.9,0,0,0,1.091-1.787,1.132,1.132,0,0,0-.566-1.141,6.664,6.664,0,0,1-2.892-4.536c-.042-.242-.136-.3-.364-.318a3.144,3.144,0,0,1-1.75-5.579.687.687,0,0,0,.189-.449c.037-1.068-.023-2.144.087-3.2a7.7,7.7,0,0,1,6.414-6.708,13.425,13.425,0,0,1,5.122-.01,7.273,7.273,0,0,1,1.267.407,12.809,12.809,0,0,1,1.144.629,5.155,5.155,0,0,1,3.355-1.832,5.991,5.991,0,0,1,.723-.041q2.5,0,5,0a5.132,5.132,0,0,1,5.237,5.25,20.333,20.333,0,0,1-.165,3.115,4.178,4.178,0,0,1-1.836,2.85,29.365,29.365,0,0,0-3.425,2.973,3.6,3.6,0,0,1-.285.253.833.833,0,0,1-.9.081.8.8,0,0,1-.484-.723c-.016-.33-.007-.662-.006-.993,0-.271-.125-.464-.393-.472-.707-.019-1.415-.007-2.136-.007A3.223,3.223,0,0,1,1631.465,249.159Zm6.089,18.076a2.119,2.119,0,0,0,.019-.254c-.1-1.714-.2-3.428-.3-5.142a2.17,2.17,0,0,0-1.589-1.979c-.182-.055-.367-.1-.551-.148a37.35,37.35,0,0,1-5.369-1.554c-.313-.136-.444-.091-.61.207a5.335,5.335,0,0,1-5.723,2.651,5.209,5.209,0,0,1-3.645-2.647c-.182-.321-.325-.366-.64-.2a5.184,5.184,0,0,1-1.029.4q-2.275.623-4.559,1.213a2.281,2.281,0,0,0-1.916,2.392c-.061,1.538-.164,3.074-.249,4.611-.008.145-.023.29-.039.476,1.194,0,2.337.006,3.48-.014.073,0,.2-.2.205-.307.021-.585.01-1.171.01-1.757,0-.42-.009-.841.007-1.26a.4.4,0,0,1,.427-.438c.269,0,.381.176.417.411a2.592,2.592,0,0,1,.011.381q0,2.807,0,5.615c0,.148.014.3.023.48h.408q8.116,0,16.232.009c.383,0,.463-.12.46-.474-.015-1.948-.009-3.9,0-5.844,0-.408.158-.6.447-.575.359.029.4.288.4.577,0,.9.018,1.809-.009,2.712-.011.374.076.511.477.5.928-.03,1.859-.009,2.788-.011C1637.269,267.259,1637.4,267.244,1637.554,267.235Zm-8.907-26.522a14.587,14.587,0,0,1-1.514.788,6.917,6.917,0,0,1-6.809-.831.881.881,0,0,0-1.433.213,2.994,2.994,0,0,0-.628,1.881c.006,1.859,0,3.718.006,5.576a6.28,6.28,0,0,0,.075.911,6.193,6.193,0,0,0,12.306-.71c.045-1.527.016-3.055.009-4.583a.514.514,0,0,0-.141-.362A5.31,5.31,0,0,1,1628.647,240.713Zm9.062,5.356.114.052c.22-.206.441-.411.66-.618a21.515,21.515,0,0,1,2.95-2.529,3.807,3.807,0,0,0,1.646-2.486,11.844,11.844,0,0,0,.062-3.72,4.214,4.214,0,0,0-3.606-3.544c-2.094-.09-4.2-.1-6.291-.015a4.049,4.049,0,0,0-3.776,3.373,20.78,20.78,0,0,0-.105,3.044,4.314,4.314,0,0,0,4.375,4.221c.917-.008,1.833-.01,2.75,0a1.2,1.2,0,0,1,1.22,1.24C1637.712,245.416,1637.709,245.742,1637.709,246.069Zm-9.12,11.536a2.781,2.781,0,0,1-1.471-2.852,7.087,7.087,0,0,1-5.193.046,7.324,7.324,0,0,1-.438,1.624,7.78,7.78,0,0,1-1.116,1.31,4.517,4.517,0,0,0,8.218-.129Zm-11.142-13.93a2.325,2.325,0,1,0,0,4.65Zm16.42,26.706c1.179,0,2.323.013,3.465-.016.141,0,.393-.229.4-.356.011-.63-.044-1.261-.075-1.885h-3.786Zm-22.587-2.269c-.036.566-.076,1.1-.1,1.628-.026.51.1.641.6.642q1.47,0,2.94,0c.11,0,.219-.014.324-.021v-2.249Zm20.2-19.769a2.349,2.349,0,0,0,2.125-3.373c-.058-.117-.157-.271-.263-.3-.613-.147-1.233-.261-1.862-.388Z" transform="translate(-1610.402 -232.333)" fill="#133d60"/>
        <path id="Trazado_126566" data-name="Trazado 126566" d="M1668.822,313.836a2.871,2.871,0,0,1,2.241,1.115c.172.219.23.443-.009.633s-.416.067-.592-.125a2.023,2.023,0,0,0-3.281,0c-.174.193-.364.3-.591.125-.243-.191-.183-.415-.011-.632A2.882,2.882,0,0,1,1668.822,313.836Z" transform="translate(-1654.761 -296.862)" fill="#133d60"/>
        <path id="Trazado_126567" data-name="Trazado 126567" d="M1661.419,296.219a.776.776,0,0,1-1.553-.009.776.776,0,1,1,1.553.009Z" transform="translate(-1649.565 -282.285)" fill="#133d60"/>
        <path id="Trazado_126568" data-name="Trazado 126568" d="M1690.055,296.207a.757.757,0,0,1-.769.773.767.767,0,0,1-.786-.8.78.78,0,0,1,.791-.759A.768.768,0,0,1,1690.055,296.207Z" transform="translate(-1672.235 -282.285)" fill="#133d60"/>
        <path id="Trazado_126569" data-name="Trazado 126569" d="M1718.312,247.366c-.441,0-.821,0-1.2,0a1.092,1.092,0,0,1-1.056-1.492.126.126,0,0,0,.012-.036q0-.866-.01-1.733c0-.012-.009-.025-.01-.037-.006-.658-.056-1.32,0-1.972a.835.835,0,0,1,.806-.745,12.669,12.669,0,0,1,3.868.078,8.3,8.3,0,0,0,1.939.311,1.137,1.137,0,0,1,1.158,1.171q.023,1.643,0,3.285a1.129,1.129,0,0,1-1.2,1.165,1.964,1.964,0,0,0-1.976,1.069c-.224.44-.506.854-.689,1.309a.954.954,0,0,1-1.588.43,1.431,1.431,0,0,1-.447-1.523C1718.017,248.231,1718.168,247.829,1718.312,247.366Zm.66,2.178c.471-.736.908-1.443,1.371-2.133a1.7,1.7,0,0,1,1.254-.779,8.171,8.171,0,0,0,1.016-.142c.129-.032.317-.2.319-.316.024-1.081.023-2.164,0-3.246,0-.111-.186-.316-.276-.311a13.5,13.5,0,0,1-2.277-.38,31.4,31.4,0,0,0-3.274-.08c-.087,0-.175.141-.262.217.077.082.148.225.234.234a9.64,9.64,0,0,0,1.027.041c.3,0,.609.008.6.4s-.326.391-.62.388a6.651,6.651,0,0,0-.877.014c-.129.016-.243.147-.364.227.118.086.229.232.356.247a7.943,7.943,0,0,0,.991.019c.271,0,.508.065.516.374.01.329-.228.417-.518.415-.356,0-.714-.011-1.068.02-.1.009-.186.15-.278.231.084.075.163.206.254.215a10.613,10.613,0,0,0,1.065.042c.28,0,.542.045.545.383,0,.357-.271.412-.565.409a8.747,8.747,0,0,0-.991.019c-.11.011-.205.156-.307.24.1.071.2.2.305.2.367.026.738.012,1.107.012,1.076,0,1.235.247.859,1.26a9.245,9.245,0,0,0-.368,1.308C1718.7,249.291,1718.777,249.511,1718.972,249.544Z" transform="translate(-1693.995 -239.385)" fill="#133d60"/>
      </g>
    </g>
  </g>
</svg>
