<svg xmlns="http://www.w3.org/2000/svg" width="60" height="60" viewBox="0 0 60 60">
  <g id="Grupo_133777" data-name="Grupo 133777" transform="translate(-597 -4453)">
    <rect id="Rectángulo_35719" data-name="Rectángulo 35719" width="60" height="60" rx="30" transform="translate(597 4453)" fill="#d2f3e8"/>
    <g id="Kn1ldO" transform="translate(-1271.229 4210.61)">
      <g id="Grupo_134290" data-name="Grupo 134290" transform="translate(1879.74 253.637)">
        <path id="Trazado_127295" data-name="Trazado 127295" d="M1887.619,253.637a6.613,6.613,0,0,1,1.362.574,6.68,6.68,0,0,1,1.132,1.167.551.551,0,0,0,.423.265,3.041,3.041,0,0,1,2.757,1.965.428.428,0,0,0,.3.22,3.577,3.577,0,0,1,3.079,1.867c.043.074.134.168.2.169a3.288,3.288,0,0,1,1.94.646,11.878,11.878,0,0,1,.537-1.249,2.917,2.917,0,0,1,1.466-1.217.462.462,0,0,0,.244-.327,4.153,4.153,0,0,1,7.785-1.8.325.325,0,0,0,.4.182,2.968,2.968,0,0,1,2.84,1.07.783.783,0,0,0,.4.263,3.626,3.626,0,0,1,3.005,3.125.844.844,0,0,0,.263.468,2.7,2.7,0,0,1,.8,2.923,2.639,2.639,0,0,1-2.479,1.78c-.634.01-1.269.006-1.9,0-.413,0-.637-.2-.637-.541s.23-.548.634-.553c.6-.008,1.2,0,1.793,0a1.567,1.567,0,0,0,1.581-1.115,1.548,1.548,0,0,0-.724-1.793.8.8,0,0,1-.424-.743,2.451,2.451,0,0,0-2.334-2.486.825.825,0,0,1-.705-.426,1.892,1.892,0,0,0-2.224-.826c-.718.211-.827.158-1.127-.549a3.055,3.055,0,0,0-5.85,1.34c.028.681-.054.794-.707.974a1.878,1.878,0,0,0-1.475,1.89.758.758,0,0,1-.46.753,1.56,1.56,0,0,0,.74,2.981q4.466,0,8.932,0a3.326,3.326,0,0,1,.366.006.55.55,0,0,1,.529.585.535.535,0,0,1-.566.5c-.817.008-1.634,0-2.549,0a14.279,14.279,0,0,1,3.183,8.956c.382,0,.732,0,1.082,0a1.73,1.73,0,0,1,1.855,1.851,7.2,7.2,0,0,1-.044,1.459,3.865,3.865,0,0,1-2.9,3.029.606.606,0,0,0-.448.434,14.446,14.446,0,0,1-10.074,9.466,7.915,7.915,0,0,1-5.308-.642c-.436-.187-.857-.41-1.276-.634-.456-.242-.59-.549-.4-.866s.494-.34.924-.1a11.147,11.147,0,0,0,3.052,1.2,7.01,7.01,0,0,0,4.657-.654,13.575,13.575,0,0,0,7.508-8.553,9.8,9.8,0,0,0,.271-2.313c.043-.84.008-1.683.006-2.525a.452.452,0,0,0-.027-.1c-.261-.053-.535-.1-.806-.165a6.059,6.059,0,0,1-2.965-1.718c-.231-.235-.471-.461-.7-.7a1.876,1.876,0,0,0-1.947-.509c-.9.232-1.8.432-2.687.7a6.99,6.99,0,0,1-4.105-.049c-.83-.242-1.671-.443-2.509-.658a1.869,1.869,0,0,0-1.917.5q-.5.507-1.022,1a5.893,5.893,0,0,1-3.177,1.535c-.072.012-.144.026-.215.042a.528.528,0,0,0-.094.051c.023,2.226-.274,4.505.909,6.6.2-.255.378-.525.592-.766a1.031,1.031,0,0,1,1.724-.009,9.418,9.418,0,0,1,2.014,4.054,2.729,2.729,0,0,1-1.213,2.822,3.133,3.133,0,0,1-3.389-.053,2.667,2.667,0,0,1-1.108-2.86,8.7,8.7,0,0,1,.584-1.686.682.682,0,0,0-.019-.611c-.272-.611-.528-1.23-.755-1.859a.539.539,0,0,0-.415-.38,3.825,3.825,0,0,1-2.9-2.981,6.439,6.439,0,0,1-.028-1.93,1.673,1.673,0,0,1,1.691-1.43c.388-.013.777,0,1.205,0a15.4,15.4,0,0,1,1.629-6.63,2.719,2.719,0,0,1-.728-4.054c-.134-.008-.249-.019-.364-.02-1.306,0-2.611.011-3.917,0a2.57,2.57,0,0,1-2.322-3.837,1.009,1.009,0,0,1,.228-.328,1.234,1.234,0,0,0,.435-1.164,3.033,3.033,0,0,1,2.93-3.019.53.53,0,0,0,.369-.2,3.514,3.514,0,0,1,2.458-1.738c.032-.006.06-.036.09-.055Zm-.764,20.919a1.251,1.251,0,0,0,.183.027,1.63,1.63,0,0,0,.217-.027,4.842,4.842,0,0,0,2.4-1.242c.362-.345.715-.7,1.078-1.042a2.833,2.833,0,0,1,2.708-.717c.831.188,1.664.38,2.476.637a6.5,6.5,0,0,0,4.058.017c.741-.237,1.5-.4,2.258-.6a3.039,3.039,0,0,1,3.157.82c.29.3.587.586.887.873a4.732,4.732,0,0,0,2.114,1.183c.2.053.416.081.7.134-.085-.748-.135-1.427-.243-2.1a11.776,11.776,0,0,0-3.18-6.568.783.783,0,0,0-.5-.215c-1.268-.018-2.537-.01-3.805-.009-.106,0-.212.013-.314.02a2.761,2.761,0,0,1-3,2.616c-3.061-.054-6.123-.012-9.185-.024a.523.523,0,0,0-.553.344,12.543,12.543,0,0,0-1.137,3.42C1887.044,272.916,1886.963,273.737,1886.856,274.556Zm11.244-13.2a1.975,1.975,0,0,0-1.37-.368c-.561.061-.675-.007-.918-.541a2.448,2.448,0,0,0-4.521.022c-.223.5-.357.584-.9.519a1.98,1.98,0,0,0-2.167,2.354,1.007,1.007,0,0,1-.394,1.144,1.514,1.514,0,0,0-.558,1.783,1.555,1.555,0,0,0,1.595.984h5.157c1.451,0,2.9.006,4.352,0a1.443,1.443,0,0,0,1.513-1.5A2.712,2.712,0,0,1,1898.1,261.352Zm-5.846-3.271a1.892,1.892,0,0,0-2-1.337c-.585.066-.708,0-.935-.514a2.393,2.393,0,0,0-4.425-.007c-.228.514-.355.587-.932.522a1.936,1.936,0,0,0-2.093,2.272,1.024,1.024,0,0,1-.393,1.176,1.457,1.457,0,0,0-.537,1.721,1.476,1.476,0,0,0,1.522.966c1.426,0,2.853,0,4.279,0,.106,0,.212-.015.293-.022.03-.038.043-.047.044-.056a3.124,3.124,0,0,1,3.082-2.933.316.316,0,0,0,.24-.109A3.663,3.663,0,0,1,1892.254,258.081Zm-3,24.16a8.682,8.682,0,0,0-1.784,3.722,1.51,1.51,0,0,0,.805,1.632,1.938,1.938,0,0,0,2.082-.07,1.55,1.55,0,0,0,.683-1.694A8.984,8.984,0,0,0,1889.257,282.241Zm-3.448-6.446c-.47,0-.9-.027-1.316.008a.571.571,0,0,0-.536.629c-.006.414-.014.829,0,1.243a2.658,2.658,0,0,0,1.848,2.156Zm24.339,4.094a2.825,2.825,0,0,0,1.82-2.037,6.521,6.521,0,0,0,.021-1.531.515.515,0,0,0-.489-.512c-.433-.03-.87-.008-1.351-.008Z" transform="translate(-1879.74 -253.637)" fill="#133d60"/>
        <path id="Trazado_127296" data-name="Trazado 127296" d="M1931.775,350.108a3.812,3.812,0,0,1,2.632,1.013c.3.279.344.578.129.833s-.542.253-.865-.02a2.632,2.632,0,0,0-3.641,0c-.313.265-.612.278-.839.038s-.2-.564.112-.858A3.753,3.753,0,0,1,1931.775,350.108Z" transform="translate(-1913.614 -319.927)" fill="#133d60"/>
        <path id="Trazado_127297" data-name="Trazado 127297" d="M1949.676,334.105a2.46,2.46,0,0,1-1.67-.621.552.552,0,0,1-.138-.8.56.56,0,0,1,.837-.043,1.423,1.423,0,0,0,1.931.006.552.552,0,1,1,.708.835A2.449,2.449,0,0,1,1949.676,334.105Z" transform="translate(-1926.473 -307.811)" fill="#133d60"/>
        <path id="Trazado_127298" data-name="Trazado 127298" d="M1917.9,334.1a2.392,2.392,0,0,1-1.635-.648.548.548,0,0,1-.087-.807.559.559,0,0,1,.787-.033,1.425,1.425,0,0,0,1.987,0,.549.549,0,0,1,.808.056.541.541,0,0,1-.1.778A2.5,2.5,0,0,1,1917.9,334.1Z" transform="translate(-1904.685 -307.808)" fill="#133d60"/>
        <path id="Trazado_127299" data-name="Trazado 127299" d="M1952.945,273.055c-.162.152-.3.381-.492.441a1.116,1.116,0,0,0-.822.629.474.474,0,0,1-.683.219.507.507,0,0,1-.3-.629,1.843,1.843,0,0,1,1.685-1.278A.7.7,0,0,1,1952.945,273.055Z" transform="translate(-1928.451 -266.555)" fill="#133d60"/>
        <path id="Trazado_127300" data-name="Trazado 127300" d="M1912.383,281.845a.571.571,0,0,1-.623-.7,1.9,1.9,0,0,1,1.628-1.225.518.518,0,0,1,.532.462.488.488,0,0,1-.366.594,1.14,1.14,0,0,0-.835.632C1912.657,281.734,1912.458,281.8,1912.383,281.845Z" transform="translate(-1901.73 -271.696)" fill="#133d60"/>
        <path id="Trazado_127301" data-name="Trazado 127301" d="M1890.486,268.046a1.819,1.819,0,0,1,1.205-1.575.542.542,0,0,1,.7.3.494.494,0,0,1-.237.683,1.027,1.027,0,0,0-.615.788.474.474,0,0,1-.63.346A.516.516,0,0,1,1890.486,268.046Z" transform="translate(-1887.124 -262.434)" fill="#133d60"/>
      </g>
    </g>
  </g>
</svg>
