<svg xmlns="http://www.w3.org/2000/svg" width="118.553" height="85.804" viewBox="0 0 118.553 85.804">
  <g id="Grupo_133804" data-name="Grupo 133804" transform="translate(-221.076 -3020.838)">
    <g id="Grupo_78348" data-name="Grupo 78348" transform="translate(221.076 3021)">
      <path id="Trazado_113319" data-name="Trazado 113319" d="M1572.434,1094v-8.714h-8.783v-6.015h8.783v-8.714h5.855v8.714h8.806v6.015h-8.806V1094Z" transform="translate(-1563.651 -1070.555)" fill="#5bd3a9"/>
    </g>
    <g id="A64mba" transform="translate(-1307.402 2769.847)">
      <g id="Grupo_134913" data-name="Grupo 134913" transform="translate(1572.743 250.991)">
        <path id="Trazado_127874" data-name="Trazado 127874" d="M1619.294,288.179c-.452,1.436-.783,2.838-1.329,4.152a14.611,14.611,0,0,1-5.875,6.885,1.229,1.229,0,0,0-.695,1.351,16.808,16.808,0,0,0,.381,2.643,3.881,3.881,0,0,0,2.126,2.174,44.785,44.785,0,0,0,10.513,3.547c1.529.371,3.057.748,4.574,1.165a6.562,6.562,0,0,1,4.894,6.157c.319,5.76.682,11.517.993,17.277.123,2.27-.875,3.266-3.142,3.266h-55.8c-2.308,0-3.3-1.014-3.175-3.326q.482-8.724,1.015-17.444a6.476,6.476,0,0,1,4.858-5.92c3.228-.868,6.5-1.59,9.7-2.551a41.027,41.027,0,0,0,5.53-2.256,4.2,4.2,0,0,0,2.412-3.95,2.5,2.5,0,0,0-1.251-2.522,14.734,14.734,0,0,1-6.392-10.026c-.092-.534-.3-.653-.8-.7a6.947,6.947,0,0,1-3.868-12.331,1.517,1.517,0,0,0,.416-.992c.082-2.361-.052-4.739.192-7.081a17.026,17.026,0,0,1,14.174-14.825,29.674,29.674,0,0,1,11.32-.022,15.957,15.957,0,0,1,2.8.9,28.258,28.258,0,0,1,2.529,1.39,11.393,11.393,0,0,1,7.415-4.049,13.212,13.212,0,0,1,1.6-.091q5.529-.011,11.059,0a11.341,11.341,0,0,1,11.574,11.6,44.948,44.948,0,0,1-.364,6.885,9.238,9.238,0,0,1-4.058,6.3,64.867,64.867,0,0,0-7.57,6.572,8.115,8.115,0,0,1-.63.559,1.843,1.843,0,0,1-1.991.18,1.767,1.767,0,0,1-1.07-1.6c-.034-.73-.016-1.463-.013-2.194,0-.6-.276-1.026-.868-1.043-1.563-.043-3.128-.014-4.721-.014A7.125,7.125,0,0,1,1619.294,288.179Zm13.457,39.951a4.614,4.614,0,0,0,.041-.561c-.22-3.789-.436-7.578-.672-11.365a4.8,4.8,0,0,0-3.511-4.375c-.4-.12-.812-.218-1.218-.326-3.979-1.065-8.062-1.778-11.865-3.435-.692-.3-.982-.2-1.349.458a11.791,11.791,0,0,1-12.648,5.859,11.51,11.51,0,0,1-8.055-5.849c-.4-.71-.719-.808-1.416-.444a11.4,11.4,0,0,1-2.275.875q-5.028,1.376-10.075,2.68c-2.833.731-4.12,2.375-4.234,5.286-.134,3.4-.361,6.794-.551,10.19-.018.322-.052.643-.085,1.053,2.638,0,5.165.013,7.691-.031.162,0,.445-.437.453-.678.045-1.293.021-2.588.022-3.882,0-.929-.019-1.858.016-2.785a.889.889,0,0,1,.943-.97c.595,0,.842.389.921.909a5.684,5.684,0,0,1,.025.842q0,6.205,0,12.41c0,.328.03.655.05,1.061h.9q17.937,0,35.875.02c.846,0,1.022-.265,1.017-1.049-.032-4.3-.02-8.611-.007-12.917,0-.9.349-1.322.987-1.271.795.064.891.638.89,1.276,0,2,.039,4-.02,5.993-.024.828.167,1.13,1.054,1.1,2.052-.067,4.108-.019,6.161-.024C1632.121,328.181,1632.421,328.149,1632.751,328.13Zm-19.685-58.618a32.251,32.251,0,0,1-3.348,1.742,15.289,15.289,0,0,1-15.048-1.835c-1.322-.929-2.186-.812-3.168.47a6.624,6.624,0,0,0-1.388,4.158c.013,4.108,0,8.216.014,12.324a13.931,13.931,0,0,0,.165,2.014,13.687,13.687,0,0,0,27.2-1.568c.1-3.374.035-6.752.021-10.128a1.137,1.137,0,0,0-.311-.8A11.734,11.734,0,0,1,1613.066,269.512Zm20.028,11.837.251.116c.486-.455.975-.908,1.459-1.365a47.56,47.56,0,0,1,6.521-5.588,8.41,8.41,0,0,0,3.639-5.5,26.182,26.182,0,0,0,.138-8.222c-.416-3.815-4.187-7.669-7.97-7.832-4.628-.2-9.276-.22-13.9-.033a8.948,8.948,0,0,0-8.344,7.454,45.943,45.943,0,0,0-.232,6.726,9.535,9.535,0,0,0,9.669,9.328c2.025-.017,4.052-.021,6.077.006a2.652,2.652,0,0,1,2.7,2.741C1633.1,279.906,1633.094,280.628,1633.094,281.349Zm-20.155,25.5a6.148,6.148,0,0,1-3.253-6.3,15.661,15.661,0,0,1-11.477.1,16.236,16.236,0,0,1-.968,3.591,17.182,17.182,0,0,1-2.465,2.9c1.277,3.37,5.336,5.829,9.613,5.681C1608,312.686,1612,309.918,1612.939,306.844Zm-24.625-30.786a5.139,5.139,0,1,0,0,10.276Zm36.29,59.024c2.605,0,5.133.029,7.658-.037.313-.008.869-.507.874-.787.025-1.393-.1-2.787-.166-4.165H1624.6Zm-49.921-5.015c-.08,1.252-.168,2.425-.228,3.6-.057,1.127.222,1.417,1.335,1.419q3.248.006,6.5,0c.243,0,.485-.031.717-.047v-4.971Zm44.654-43.692a5.191,5.191,0,0,0,4.7-7.454c-.128-.258-.346-.6-.582-.655-1.354-.326-2.725-.577-4.115-.857Z" transform="translate(-1572.743 -250.991)" fill="#fff"/>
        <path id="Trazado_127875" data-name="Trazado 127875" d="M1613.991,303.3a6.343,6.343,0,0,1,4.953,2.463c.38.483.509.978-.019,1.4-.5.4-.92.149-1.308-.276-2.255-2.473-5.017-2.472-7.25,0-.385.426-.8.673-1.307.277-.536-.423-.4-.917-.024-1.4A6.369,6.369,0,0,1,1613.991,303.3Z" transform="translate(-1582.916 -265.79)" fill="#fff"/>
        <path id="Trazado_127876" data-name="Trazado 127876" d="M1607.922,293.242a1.716,1.716,0,0,1-3.431-.019,1.716,1.716,0,1,1,3.431.019Z" transform="translate(-1581.724 -262.447)" fill="#fff"/>
        <path id="Trazado_127877" data-name="Trazado 127877" d="M1626.305,293.216a1.673,1.673,0,0,1-1.7,1.709,1.7,1.7,0,0,1-1.738-1.761,1.724,1.724,0,0,1,1.748-1.677A1.7,1.7,0,0,1,1626.305,293.216Z" transform="translate(-1586.923 -262.447)" fill="#fff"/>
        <path id="Trazado_127878" data-name="Trazado 127878" d="M1645.658,270.247c-.975,0-1.815.009-2.656,0a2.414,2.414,0,0,1-2.335-3.3.272.272,0,0,0,.028-.08q-.01-1.915-.022-3.829c0-.027-.021-.055-.021-.082-.014-1.454-.125-2.916,0-4.359a1.847,1.847,0,0,1,1.783-1.647,27.978,27.978,0,0,1,8.548.172,18.353,18.353,0,0,0,4.286.688,2.513,2.513,0,0,1,2.559,2.589q.052,3.63,0,7.261a2.5,2.5,0,0,1-2.641,2.576,4.341,4.341,0,0,0-4.368,2.364c-.5.972-1.119,1.887-1.525,2.893a2.109,2.109,0,0,1-3.508.949,3.162,3.162,0,0,1-.989-3.366C1645,272.159,1645.339,271.272,1645.658,270.247Zm1.459,4.815c1.041-1.626,2.007-3.19,3.03-4.714a3.753,3.753,0,0,1,2.772-1.722,17.954,17.954,0,0,0,2.245-.315c.286-.07.7-.45.706-.7.053-2.391.05-4.783,0-7.174,0-.245-.41-.7-.609-.688-1.754.1-3.358-.655-5.032-.84a69.456,69.456,0,0,0-7.236-.176c-.192,0-.386.312-.58.479.171.181.328.5.517.518a21.174,21.174,0,0,0,2.269.091c.656,0,1.346.018,1.324.887-.022.853-.721.863-1.37.857a14.8,14.8,0,0,0-1.938.032c-.284.035-.537.326-.8.5.261.19.507.513.787.545a17.426,17.426,0,0,0,2.191.041c.6-.006,1.122.143,1.141.828.02.729-.5.921-1.145.919-.788,0-1.579-.025-2.361.044-.218.019-.41.332-.614.51.186.166.359.455.56.475a23.4,23.4,0,0,0,2.353.093c.62,0,1.2.1,1.2.845,0,.787-.6.909-1.248.9a19.408,19.408,0,0,0-2.192.042c-.242.026-.453.345-.678.53.224.157.439.433.674.45.812.058,1.63.026,2.446.027,2.379,0,2.729.545,1.9,2.785a20.42,20.42,0,0,0-.813,2.892C1646.519,274.5,1646.684,274.987,1647.117,275.062Z" transform="translate(-1591.913 -252.609)" fill="#fff"/>
      </g>
    </g>
  </g>
</svg>
