<svg xmlns="http://www.w3.org/2000/svg" width="110.634" height="85.48" viewBox="0 0 110.634 85.48">
  <g id="Grupo_133803" data-name="Grupo 133803" transform="translate(-221.076 -3021)">
    <g id="Grupo_78348" data-name="Grupo 78348" transform="translate(221.076 3021)">
      <path id="Trazado_113319" data-name="Trazado 113319" d="M1572.434,1094v-8.714h-8.783v-6.015h8.783v-8.714h5.855v8.714h8.806v6.015h-8.806V1094Z" transform="translate(-1563.651 -1070.555)" fill="#5bd3a9"/>
    </g>
    <g id="Grupo_134912" data-name="Grupo 134912" transform="translate(-1909.177 2761.587)">
      <path id="Trazado_127851" data-name="Trazado 127851" d="M2235.055,333.509a21.016,21.016,0,0,0-2.469-5.673c-.1-.113-.206-.221-.3-.341a16.967,16.967,0,0,0-14.161-7.032c-2.132.006-4.265-.018-6.4-.028-.64.01-1.281.016-1.922.032-.736.018-1.074-.334-1.018-1.067a.382.382,0,0,0,0-.091c-.289-1.67.333-2.649,1.855-3.591a22.532,22.532,0,0,0,10.1-13.744c.149-.551.319-.863.984-.921a3.76,3.76,0,0,0,2.982-2.3,7.359,7.359,0,0,0,.4-5.605l-.762-1.456a4.6,4.6,0,0,0-2.38-1.586c-.5-.095-.376-.476-.378-.787-.006-1.643,0-3.286,0-4.929l2.763-.163a15.088,15.088,0,0,0,3.933-1,3.857,3.857,0,0,0,2.38-2.558,4.87,4.87,0,0,0-.4-2.386h0a.306.306,0,0,0-.221-.353,20.941,20.941,0,0,0-5.882-5.077l-1.251-.774c-.353-.173-.715-.329-1.056-.523-.466-.265-.947-.426-1.261.14-.274.494,0,.868.47,1.1a1.351,1.351,0,0,1,.214.167,5.772,5.772,0,0,1,1.523.876,2.089,2.089,0,0,1,.893.536,14.786,14.786,0,0,1,4.378,3.525h0a.327.327,0,0,0,.33.392c1.34,1.677,1.055,2.865-.914,3.67a8.909,8.909,0,0,1-3.455.715,5.562,5.562,0,0,1-1.709.186,25.512,25.512,0,0,0-3.271-11.33l.024-.017a24.42,24.42,0,0,0,3.343-2.839,9.183,9.183,0,0,0,1.547-2.355q.081-.711.162-1.422a3.805,3.805,0,0,0-2.416-2.772,13.236,13.236,0,0,0-3.972-.978,39.688,39.688,0,0,0-5.752-.121.707.707,0,0,0-.782.716c-.012.477.319.7.763.74a7.972,7.972,0,0,0,.822-.006,29.058,29.058,0,0,1,5.292.211,7.005,7.005,0,0,1,3.954,1.444l-.022,0,.206.2a1.362,1.362,0,0,1,.194,1.7,1.868,1.868,0,0,1-.448.885,14.04,14.04,0,0,1-3.7,3.289l-.242-.391-.244.142c-6.332-8.5-14.629-11.889-24.658-10.075a23.97,23.97,0,0,0-8.525,3.6l-2.351,1.852a32.167,32.167,0,0,0-4.358,5.034,8.313,8.313,0,0,1-1.58-1.2,6.286,6.286,0,0,1-1.658-1.5,3.5,3.5,0,0,1-.907-1.131,1.825,1.825,0,0,1,.8-2.89,7.22,7.22,0,0,1,1.619-.617,26.874,26.874,0,0,1,7.552-.532c.546.012,1.028-.112,1.03-.749,0-.583-.449-.709-.961-.727a42.369,42.369,0,0,0-4.852.056,13.389,13.389,0,0,0-4.788,1.1c-2.38,1.133-2.94,3.13-1.517,5.344a9.239,9.239,0,0,0,1.949,2.173c.72.587,1.459,1.151,2.2,1.715l-1.451,3.008-.819,2.518-.023.088a34.156,34.156,0,0,0-.857,5.833,14.851,14.851,0,0,1-3.739-.484,3.987,3.987,0,0,1-1.685-.559c-1.571-.727-1.882-1.7-.961-3.137a8.474,8.474,0,0,1,1.037-1.276,19.007,19.007,0,0,1,3.827-2.966c.933-.578,1.893-1.112,2.848-1.656.429-.245.668-.595.434-1.055-.262-.519-.708-.494-1.17-.227-.423.244-.86.464-1.279.714a22.292,22.292,0,0,0-6.583,5.176c-1.9,2.443-1.357,4.593,1.452,5.894.165.077.326.162.49.243l2,.5a35.522,35.522,0,0,0,4.071.358l4.254-.052c2.325-.3,4.648-.616,6.974-.9a31.761,31.761,0,0,1,3.689-.571l-.025.012.015,0,.009-.011a18.264,18.264,0,0,1,3.124-.8c1.642-.455,3.3-.851,4.947-1.295a1.95,1.95,0,0,1,1.077-.053c2.662.774,5.354,1.428,8.067,2,.071.015.13.091.192.146,1.614.078,3.167.552,4.763.742,1.966.234,3.931.487,5.9.732a7.342,7.342,0,0,0,2.207,1.266.74.74,0,0,1,.564.8c-.064,3.756.119,7.515-.109,11.269a22.109,22.109,0,0,1-43.785,2.271,25.474,25.474,0,0,1-.376-5.017c0-2.779.015-5.56-.01-8.339a.909.909,0,0,1,.656-1.02,6.763,6.763,0,0,0,2.125-1.229l-4.254.053q-.022.618-.044,1.237l0,1.465c.016.823.029,1.647.049,2.47.006.265-.033.453-.345.542-2.3.654-3.156,2.441-3.485,4.577-.365,2.369.682,5.627,3.4,6.4.349.767.494,1.688,1.482,1.976a25.31,25.31,0,0,0,8.8,12.1,7.51,7.51,0,0,0,2.9,2.767c.01.426.029.852.029,1.278,0,1.122-.148,1.274-1.256,1.275-2.346,0-4.695.075-7.036-.015a18.4,18.4,0,0,0-10.778,2.78c-.325-.3-.183-.69-.183-1.039q-.012-12.923-.006-25.846c0-.244,0-.49,0-.734a.733.733,0,1,0-1.465.041c.008.183,0,.367,0,.55q0,13.565,0,27.129c0,.366.031.732.049,1.1a17.535,17.535,0,0,0-5.663,9.389,37.115,37.115,0,0,0-.408,7.931c-.021,2.343.608,3.007,2.9,3.144q7.915-.016,15.832-.027c.579,0,1.12-.014,1.276-.73-.114-.746-.654-.753-1.239-.751q-7.335.012-14.67,0c-.335,0-.67-.018-1.006-.028-1.505.075-1.643-.037-1.621-1.541.04-2.736-.227-5.492.5-8.185a15.51,15.51,0,0,1,7.963-9.979c.261-.141.516-.348.852-.223a11.442,11.442,0,0,1,6.034-1.487,8.91,8.91,0,0,1,3.359.08c1.029.4,1.033,1.866,1.593,2.814a18.063,18.063,0,0,0,32.582-2.176.958.958,0,0,1,1.044-.744c2.878-.021,5.733-.006,8.468,1.119a15.707,15.707,0,0,1,9.809,14.523c.017,1.466.006,2.933,0,4.4,0,1.26-.165,1.425-1.423,1.425h-37.584c-.947,0-1.894.017-2.841-.006-.564-.014-.954.157-1.07.75.182.765.778.731,1.375.731q11.959-.006,23.917,0,8.11,0,16.22,0c2.082,0,2.9-.795,2.872-2.872C2235.5,339.157,2235.736,336.313,2235.055,333.509ZM2221.7,291.668c.274-.155.531.07.735.234a4.845,4.845,0,0,1,1.584,3.732,4.729,4.729,0,0,1-1.606,3.639c-.3.227-.674.463-1,.285s-.034-.552-.007-.834c.207-2.125.166-4.255.173-6.384C2221.578,292.109,2221.459,291.8,2221.7,291.668Zm-7.422-9.7a21.894,21.894,0,0,1-2.827-3.463,10.028,10.028,0,0,0-1.649-2.045l.081-.032c2.558-1.23,5.116-2.463,7.57-3.894a23.754,23.754,0,0,1,2.924,9.771A35.133,35.133,0,0,1,2214.278,281.966Zm-31.014-15.328,2.188-1.727a22.443,22.443,0,0,1,7.934-3.357c9.311-1.677,17.022,1.427,22.937,9.227-2.8,1.565-5.759,2.933-8.641,4.251l-.849.388a7.287,7.287,0,0,0-1.044.052,69.011,69.011,0,0,1-15.651,0,7.79,7.79,0,0,0-.882-.057,4.322,4.322,0,0,0-.882.085,47,47,0,0,1-8.884-4.575A30.729,30.729,0,0,1,2183.264,266.638Zm-7.139,10.811.74-2.3,1.23-2.551c2.288,1.376,4.672,2.593,7.012,3.765a6.436,6.436,0,0,0-1.244,1.5,26.833,26.833,0,0,1-3.016,4.149,29.117,29.117,0,0,1-5.509.332A35.378,35.378,0,0,1,2176.125,277.449Zm12.8,3.858c-2.022.4-4.044.809-6.092,1.042a28.189,28.189,0,0,0,2.494-3.572,6.272,6.272,0,0,1,1.887-1.856l.044-.03c2.581.99,5.177,2.017,8.048,2.884C2193.03,280.453,2190.979,280.9,2188.922,281.307Zm5.7-3.257c-.532-.227-1.074-.431-1.621-.626,1.654.117,3.31.182,4.967.182s3.34-.066,5.006-.185c-.563.2-1.123.408-1.673.64A8.088,8.088,0,0,1,2194.622,278.05Zm9.8,2.7c-1.19-.262-2.368-.573-3.837-.932,2.559-.822,4.929-1.707,7.257-2.6a7.933,7.933,0,0,1,1.966,2.2,19,19,0,0,0,2.152,2.779C2209.428,281.842,2206.926,281.3,2204.426,280.747Zm-31.6,17.834a5.443,5.443,0,0,1,.082-6.089,3.4,3.4,0,0,1,.728-.676c.5-.352.752-.258.731.412-.03,1-.007,2.008-.007,3.509a21.343,21.343,0,0,0,.247,3.324c.106.618-.183.615-.593.475A2.459,2.459,0,0,1,2172.822,298.581Zm37.56,28.484c-7.922,9.025-22.837,6.716-27.565-4.252-.295-.683-.306-.95.554-.89.944.066,1.895.03,2.842.011a2.255,2.255,0,0,0,2.405-2.41c.019-.6-.283-1.444.134-1.724s1.1.29,1.675.477a23.471,23.471,0,0,0,15.886-.286c.3-.112.583-.353,1.006-.239,0,.627-.014,1.264,0,1.9a2.194,2.194,0,0,0,2.247,2.275c1.249.037,2.5.007,3.863.007A15.563,15.563,0,0,1,2210.382,327.065Z" transform="translate(-0.741)" fill="#fff"/>
      <path id="Trazado_127852" data-name="Trazado 127852" d="M2217.6,288.4l-.011-.011-.015,0Z" transform="translate(-11.657 -5.529)" fill="#fff"/>
      <path id="Trazado_127853" data-name="Trazado 127853" d="M2251.275,332.7a.722.722,0,0,0,1.441.032,4.311,4.311,0,0,0,.014-.641q0-13.711,0-27.422a3.454,3.454,0,0,0-.079-.905.64.64,0,0,0-.743-.532.683.683,0,0,0-.638.672c0,.244,0,.49,0,.734q0,6.832,0,13.665t0,13.665A6.917,6.917,0,0,0,2251.275,332.7Z" transform="translate(-18.085 -8.36)" fill="#fff"/>
      <path id="Trazado_127854" data-name="Trazado 127854" d="M2164.219,329.137a.722.722,0,0,0,1.441.019,5.3,5.3,0,0,0,.015-.732q0-13.692,0-27.386a4.957,4.957,0,0,0-.027-.822.714.714,0,0,0-1.408-.019,4.335,4.335,0,0,0-.03.821q0,6.87,0,13.739V328.4A7.174,7.174,0,0,0,2164.219,329.137Z" transform="translate(-1.471 -7.671)" fill="#fff"/>
      <path id="Trazado_127855" data-name="Trazado 127855" d="M2247.651,329.156a.723.723,0,0,0,1.443-.02,4.232,4.232,0,0,0,.01-.549q0-13.877,0-27.752a3,3,0,0,0-.028-.638.716.716,0,0,0-1.411.019,4.981,4.981,0,0,0-.026.822q0,6.824,0,13.647v13.74A5.935,5.935,0,0,0,2247.651,329.156Z" transform="translate(-17.393 -7.671)" fill="#fff"/>
      <path id="Trazado_127856" data-name="Trazado 127856" d="M2239.894,314.338q.015,6.172.024,12.343c0,.559.042,1.123.75,1.109s.727-.59.726-1.142q-.01-5.9,0-11.8a1.877,1.877,0,0,0-.261-1.041C2240.579,313.651,2240.126,313.734,2239.894,314.338Z" transform="translate(-15.916 -10.368)" fill="#fff"/>
      <path id="Trazado_127857" data-name="Trazado 127857" d="M2172.677,313.75c-.658-.016-.763.468-.762,1.01q.006,6.007,0,12.013c0,.549.12,1.036.759,1.02s.718-.527.716-1.062c-.011-1.987,0-3.975,0-5.961s0-3.974,0-5.961C2173.387,314.286,2173.349,313.767,2172.677,313.75Z" transform="translate(-2.942 -10.37)" fill="#fff"/>
      <path id="Trazado_127858" data-name="Trazado 127858" d="M2157.231,308.693c-.694,0-.74.57-.736,1.129.011,1.951,0,3.9,0,5.853,0,1.982,0,3.963,0,5.945,0,.547.007,1.119.735,1.119s.737-.576.737-1.12q-.005-5.9,0-11.8C2157.971,309.263,2157.926,308.692,2157.231,308.693Z" transform="translate(0 -9.405)" fill="#fff"/>
      <path id="Trazado_127859" data-name="Trazado 127859" d="M2260.438,319.408c0-2.048,0-4.1,0-6.144,0-.5-.19-.97-.752-.96-.543.011-.722.421-.72.966.016,4,.011,8.009.006,12.014,0,.54.1,1.041.74,1.038s.736-.507.734-1.045C2260.434,323.321,2260.439,321.364,2260.438,319.408Z" transform="translate(-19.555 -10.094)" fill="#fff"/>
      <path id="Trazado_127860" data-name="Trazado 127860" d="M2160.123,325.34c0,.513.125.96.7.984s.767-.391.766-.919q0-6.052,0-12.1c0-.5-.167-.984-.719-.994-.607-.011-.76.45-.754,1.021.022,1.986.009,3.973.009,5.96C2160.127,321.3,2160.131,323.323,2160.123,325.34Z" transform="translate(-0.691 -10.094)" fill="#fff"/>
      <path id="Trazado_127861" data-name="Trazado 127861" d="M2256.063,308.692c-.624.01-.723.52-.722,1.059q.012,5.991,0,11.981c0,.543.1,1.023.76,1.009s.714-.528.713-1.051c-.006-1.982,0-3.963,0-5.945s-.007-3.963,0-5.945C2256.82,309.238,2256.762,308.681,2256.063,308.692Z" transform="translate(-18.864 -9.404)" fill="#fff"/>
      <path id="Trazado_127862" data-name="Trazado 127862" d="M2244.167,331.364a.758.758,0,0,0,.851-.756,3.4,3.4,0,0,0,.005-.367q0-5.859,0-11.719c0-.531-.068-1.053-.707-1.069-.706-.018-.77.536-.768,1.1.009,1.953,0,3.906,0,5.859q0,3.067,0,6.135C2243.554,330.983,2243.615,331.357,2244.167,331.364Z" transform="translate(-16.615 -11.077)" fill="#fff"/>
      <path id="Trazado_127863" data-name="Trazado 127863" d="M2176.24,331.341c.706.023.775-.528.773-1.092q-.008-5.86,0-11.719c0-.529-.062-1.054-.7-1.075-.706-.023-.777.527-.774,1.092.009,1.923,0,3.846,0,5.768,0,1.983,0,3.967,0,5.951C2175.538,330.794,2175.6,331.32,2176.24,331.341Z" transform="translate(-3.635 -11.077)" fill="#fff"/>
      <path id="Trazado_127864" data-name="Trazado 127864" d="M2216.387,289.534a6.823,6.823,0,0,0,6.54,4.8c.413-.036.715-.195.766-.631.057-.484-.224-.734-.67-.823a3.291,3.291,0,0,0-.456-.043,5.063,5.063,0,0,1-4.612-3.347,3.307,3.307,0,0,0-.605-1.085C2216.608,288.416,2216.189,288.71,2216.387,289.534Z" transform="translate(-11.421 -5.532)" fill="#fff"/>
      <path id="Trazado_127865" data-name="Trazado 127865" d="M2217.6,288.4l-.026-.012.011.013Z" transform="translate(-11.657 -5.529)" fill="#fff"/>
      <path id="Trazado_127866" data-name="Trazado 127866" d="M2189.083,292.856c-.511.019-.912.247-.851.844.058.555.477.625.944.626a6.691,6.691,0,0,0,6.256-4.534c.323-.96.152-1.236-.859-1.389a3.2,3.2,0,0,0-.435.659A5.208,5.208,0,0,1,2189.083,292.856Z" transform="translate(-6.056 -5.533)" fill="#fff"/>
      <path id="Trazado_127867" data-name="Trazado 127867" d="M2193.516,363.186c-1.7.027-3.4.019-5.094,0a.827.827,0,0,0-.954.751c.137.585.544.733,1.092.728,1.612-.013,3.224-.02,4.834,0a1.022,1.022,0,0,0,1.108-.74A.926.926,0,0,0,2193.516,363.186Z" transform="translate(-5.911 -19.804)" fill="#fff"/>
      <path id="Trazado_127868" data-name="Trazado 127868" d="M2189.185,299.768c-.639.021-.748.518-.716,1.054a3.4,3.4,0,0,0,.05.451,4.894,4.894,0,0,0,5.811,3.8,4.983,4.983,0,0,0,3.676-4.361c.047-.432-.1-.888-.656-.942-.63-.06-.763.4-.824.952a3.3,3.3,0,0,1-6.581-.027C2189.892,300.18,2189.762,299.748,2189.185,299.768Z" transform="translate(-6.101 -7.701)" fill="#fff"/>
      <path id="Trazado_127869" data-name="Trazado 127869" d="M2214.123,299.767c-.64.022-.749.519-.716,1.054a3.334,3.334,0,0,0,.05.451,4.893,4.893,0,0,0,5.81,3.8,4.981,4.981,0,0,0,3.677-4.36c.045-.432-.094-.889-.655-.943-.631-.06-.763.4-.825.952a3.266,3.266,0,0,1-4.193,2.874,3.229,3.229,0,0,1-2.386-2.9C2214.83,300.18,2214.7,299.748,2214.123,299.767Z" transform="translate(-10.86 -7.701)" fill="#fff"/>
      <path id="Trazado_127870" data-name="Trazado 127870" d="M2206.042,311.256a1.812,1.812,0,0,1-1.841-1.862c-.022-.517.02-1.04-.031-1.554a.67.67,0,0,0-.741-.654.659.659,0,0,0-.693.694c-.023.548-.024,1.1,0,1.647a3.284,3.284,0,0,0,2.242,3.033,3.363,3.363,0,0,0,4.4-3.68c0-.244,0-.488,0-.731.009-.5-.1-.952-.71-.956-.591,0-.759.41-.762.927,0,.427.012.854-.007,1.281A1.809,1.809,0,0,1,2206.042,311.256Z" transform="translate(-8.821 -9.117)" fill="#fff"/>
      <path id="Trazado_127871" data-name="Trazado 127871" d="M2200.946,319.547c-.363.316-.554.7-.222,1.117.365.454.795.352,1.193-.006a3,3,0,0,0,.412-.362c.627-.812,1.278-.888,1.987-.1.08.088.209.131.294.216.7.7,1.322.6,2.063-.016,1.158-.969,1.192-.924,2.41.057a2.245,2.245,0,0,0,.678.456c.574.175.836-.172.948-.654-.082-.63-.6-.856-.988-1.179-2.116-1.764-1.616-1.61-3.6-.127-.326.243-.551.342-.944.055-2.353-1.712-1.707-1.573-3.884.247C2201.175,319.345,2201.061,319.446,2200.946,319.547Z" transform="translate(-8.408 -11.141)" fill="#fff"/>
      <path id="Trazado_127872" data-name="Trazado 127872" d="M2193.852,302.3a2.235,2.235,0,0,0,2.246-2.263,2.263,2.263,0,1,0-4.524.036A2.233,2.233,0,0,0,2193.852,302.3Z" transform="translate(-6.694 -7.315)" fill="#fff"/>
      <path id="Trazado_127873" data-name="Trazado 127873" d="M2218.766,302.3a2.229,2.229,0,0,0,2.255-2.251,2.262,2.262,0,1,0-4.524-.078A2.238,2.238,0,0,0,2218.766,302.3Z" transform="translate(-11.451 -7.315)" fill="#fff"/>
    </g>
  </g>
</svg>
