<svg xmlns="http://www.w3.org/2000/svg" width="85" height="85" viewBox="0 0 85 85">
  <g id="Grupo_135047" data-name="Grupo 135047" transform="translate(-653.666 -1127)">
    <circle id="Elipse_4923" data-name="Elipse 4923" cx="42.5" cy="42.5" r="42.5" transform="translate(653.666 1127)" fill="#133d60"/>
    <g id="_8LDg17" data-name="8LDg17" transform="translate(-4935.685 902.829)">
      <g id="Grupo_134954" data-name="Grupo 134954" transform="translate(5604.351 239.171)">
        <path id="Trazado_127927" data-name="Trazado 127927" d="M5604.351,286.742c.127-.6.213-1.216.389-1.8a10.538,10.538,0,0,1,7.2-7.366c2.039-.667,4.1-1.267,6.15-1.9.172-.053.34-.121.544-.194l-.225-1.832a5.036,5.036,0,0,1-4.09-2.211,4.851,4.851,0,0,1-.8-3.272c.215-2.386,2.078-4.11,4.883-4.422v-.615c0-3.152.018-6.3-.007-9.454a5.478,5.478,0,0,1,1.186-3.763.646.646,0,0,0,.1-.441,4.922,4.922,0,0,1,3.168-5.5.825.825,0,0,0,.379-.405,4.894,4.894,0,0,1,5.416-3.115.65.65,0,0,0,.454-.072,6.063,6.063,0,0,1,2.591-1.211H5633a5.994,5.994,0,0,1,2.592,1.21.649.649,0,0,0,.454.072,4.892,4.892,0,0,1,5.416,3.118.821.821,0,0,0,.38.4,4.935,4.935,0,0,1,3.175,5.448.716.716,0,0,0,.1.492,5.461,5.461,0,0,1,1.18,3.713c-.022,3.17-.007,6.341-.007,9.512v.613c2.9.274,4.776,2.125,4.9,4.752.13,2.7-1.62,4.552-4.915,5.172l-.229,1.787c.127.049.24.1.357.136,2.188.682,4.384,1.336,6.562,2.05a10.614,10.614,0,0,1,7.372,10.167c.007,2.059,0,4.118,0,6.177,0,.923-.244,1.169-1.159,1.169q-26.84,0-53.681.009a1.192,1.192,0,0,1-1.151-.555Zm35.627-33.453a5.1,5.1,0,0,1-4.03.991.808.808,0,0,0-.477.179,4.922,4.922,0,0,1-6.259-.008.725.725,0,0,0-.479-.168,5.049,5.049,0,0,1-3.978-.982c-.092.068-.184.126-.265.2a12.236,12.236,0,0,0-4.446,9.644c-.005,1.02.01,2.041-.012,3.062a.8.8,0,0,1-.812.849.817.817,0,0,1-.81-.854c-.018-.246,0-.494,0-.784a3.213,3.213,0,0,0-2.9,1.766,3.119,3.119,0,0,0,.262,3.454,3.188,3.188,0,0,0,2.648,1.339,8.262,8.262,0,0,1,.005-.9.748.748,0,0,1,.8-.728.757.757,0,0,1,.8.74c.027.234.007.474.021.71a25.309,25.309,0,0,0,.228,3.264,12.28,12.28,0,0,0,24.209-.385c.151-1.132.114-2.289.17-3.434.028-.565.344-.9.819-.9s.785.341.814.908c.012.228,0,.458,0,.742a3.275,3.275,0,0,0,2.9-1.782,3.271,3.271,0,0,0-2.893-4.786c0,.243,0,.406,0,.569-.016.687-.315,1.066-.83,1.06s-.8-.382-.808-1.08c-.007-.948,0-1.9,0-2.843A12.38,12.38,0,0,0,5639.979,253.289ZM5619,277.1c-2.212.685-4.451,1.329-6.655,2.072a8.534,8.534,0,0,0-6.25,7.575c-.235,2.2-.076,4.439-.092,6.661,0,.028.04.056.063.085h9.754c0-.859.023-1.693-.009-2.525a.771.771,0,0,0-.707-.722c-.689-.14-1-.482-.9-.981.1-.523.59-.763,1.259-.624a2.459,2.459,0,0,1,2,2.4c.015.813,0,1.626,0,2.436h29.749c0-.858-.018-1.677,0-2.495a2.467,2.467,0,0,1,2.109-2.366c.609-.091,1.054.161,1.15.65s-.223.864-.851.97a.8.8,0,0,0-.763.787c-.027.814-.008,1.629-.008,2.458h9.833c0-2,.028-3.965-.006-5.93a8.872,8.872,0,0,0-5.99-8.262c-1.753-.606-3.54-1.112-5.312-1.664l-1.7-.531c-2.467,6.021-6.759,9.566-13.288,9.586C5625.821,286.708,5621.493,283.161,5619,277.1Zm1.11-20.868c.134-.213.211-.331.285-.452a13.93,13.93,0,0,1,3.779-4.121.858.858,0,0,1,1.307.07,3.223,3.223,0,0,0,3.319.837,1.034,1.034,0,0,1,1.133.294,3.225,3.225,0,0,0,4.8.014,1.07,1.07,0,0,1,1.18-.3,3.208,3.208,0,0,0,3.272-.833c.468-.442.812-.488,1.3-.09a17.216,17.216,0,0,1,1.959,1.735c.771.854,1.437,1.8,2.179,2.75,0-1.079.016-2.144,0-3.208a2.96,2.96,0,0,0-.995-2.177,1.119,1.119,0,0,1-.335-1.269,3.217,3.217,0,0,0-2.346-4.056,1.152,1.152,0,0,1-.931-.927,3.214,3.214,0,0,0-4.051-2.35,1.155,1.155,0,0,1-1.271-.331,3.217,3.217,0,0,0-4.726.022,1.118,1.118,0,0,1-1.226.314,3.223,3.223,0,0,0-4.084,2.375,1.115,1.115,0,0,1-.9.891,3.221,3.221,0,0,0-2.361,4.094,1.244,1.244,0,0,1-.313,1.232,3.758,3.758,0,0,0-.931,1.676A33.337,33.337,0,0,0,5620.115,256.236Z" transform="translate(-5604.351 -239.171)" fill="#fff"/>
        <path id="Trazado_127928" data-name="Trazado 127928" d="M5708,239.171a1.154,1.154,0,0,1,.555,1.152c-.032.688-.008,1.378-.008,2.129.764,0,1.487,0,2.21,0,.783,0,1.069.276,1.069,1.037q0,8.911,0,17.822c0,.764-.286,1.042-1.066,1.042q-5.139,0-10.278,0c-.781,0-1.064-.269-1.065-1.044q-.007-8.911,0-17.821c0-.772.284-1.032,1.073-1.036.708,0,1.415,0,2.2,0,0-.706.019-1.373-.006-2.038a1.34,1.34,0,0,1,.5-1.243Zm2.151,21.516V244.119h-9.062v16.568Zm-5.785-18.265h2.507V240.85h-2.507Z" transform="translate(-5655.837 -239.171)" fill="#fff"/>
        <path id="Trazado_127929" data-name="Trazado 127929" d="M5658.683,303.587a5.747,5.747,0,0,1,5.7,5.768,2.944,2.944,0,0,1-3.9,2.815,5.365,5.365,0,0,0-3.667,0,2.946,2.946,0,0,1-3.891-2.988A5.736,5.736,0,0,1,5658.683,303.587Zm-.054,1.64a4.1,4.1,0,0,0-4.068,4.01,1.314,1.314,0,0,0,1.824,1.353,6.31,6.31,0,0,1,4.522,0,1.316,1.316,0,0,0,1.832-1.394A4.088,4.088,0,0,0,5658.629,305.227Z" transform="translate(-5630.656 -274.058)" fill="#fff"/>
        <path id="Trazado_127930" data-name="Trazado 127930" d="M5649.025,296.941a3.253,3.253,0,0,1-3.234-2.948c-.059-.68.2-1.089.722-1.137.493-.045.8.274.9.938a1.624,1.624,0,0,0,1.428,1.491,1.587,1.587,0,0,0,1.7-1,4.087,4.087,0,0,0,.152-.689.811.811,0,1,1,1.614.162A3.257,3.257,0,0,1,5649.025,296.941Z" transform="translate(-5626.791 -268.245)" fill="#fff"/>
        <path id="Trazado_127931" data-name="Trazado 127931" d="M5674.012,296.941a3.251,3.251,0,0,1-3.179-3.007c-.044-.636.227-1.035.733-1.077.479-.04.795.275.892.891a1.632,1.632,0,0,0,1.44,1.54,1.591,1.591,0,0,0,1.7-1.007,4.245,4.245,0,0,0,.15-.689.811.811,0,1,1,1.613.173A3.259,3.259,0,0,1,5674.012,296.941Z" transform="translate(-5640.354 -268.245)" fill="#fff"/>
        <path id="Trazado_127932" data-name="Trazado 127932" d="M5706.573,260.156c0-1.84,0-3.679,0-5.519,0-.915.248-1.152,1.175-1.153q1.8,0,3.606,0c.781,0,1.067.277,1.067,1.039q0,5.629,0,11.257c0,.765-.286,1.042-1.063,1.044-1.2,0-2.4,0-3.606,0-.945,0-1.179-.237-1.18-1.205Q5706.57,262.888,5706.573,260.156Zm1.665,1.719h2.517v-6.714h-2.517Zm2.509,3.283v-1.57h-2.5v1.57Z" transform="translate(-5659.713 -246.922)" fill="#fff"/>
      </g>
    </g>
  </g>
</svg>
