<svg xmlns="http://www.w3.org/2000/svg" width="85" height="85" viewBox="0 0 85 85">
  <g id="Grupo_135046" data-name="Grupo 135046" transform="translate(-437.666 -1127)">
    <circle id="Elipse_4922" data-name="Elipse 4922" cx="42.5" cy="42.5" r="42.5" transform="translate(437.666 1127)" fill="#133d60"/>
    <g id="KSN1uL" transform="translate(-5002.72 904.019)">
      <g id="Grupo_134953" data-name="Grupo 134953" transform="translate(5457.025 237.481)">
        <path id="Trazado_127922" data-name="Trazado 127922" d="M5457.025,267.125c.068-.224.14-.447.206-.671a2.955,2.955,0,0,1,1.635-1.96.565.565,0,0,0,.374-.624q-.016-2.694,0-5.388a16.892,16.892,0,0,1,13.472-16.688,12.252,12.252,0,0,1,2.063-.287,52.778,52.778,0,0,1,8.5.15l-.852-1.49c-.514-.9-.17-1.5.87-1.5,2.328.02,4.654.05,6.981.077.727.009.971.236,1.072.962q.442,3.182.9,6.364a.936.936,0,0,0,.2.492,17.755,17.755,0,0,1,3.329,4.93c.458-.669.873-1.274,1.311-1.912-.6-.354-1.163-.685-1.724-1.026-.684-.415-.769-.865-.265-1.489q1.483-1.84,2.984-3.666c.423-.516.868-.6,1.276-.269s.41.8,0,1.305c-.816,1.012-1.639,2.019-2.5,3.081.458.273.89.533,1.323.79,1.084.639,1.148.907.451,1.93-1.1,1.618-2.2,3.237-3.244,4.952l9.3-4.32c-.661-.394-1.234-.741-1.811-1.078-.342-.2-.659-.407-.661-.866,0-.487.342-.69.707-.888,2.6-1.417,5.2-2.839,7.914-4.317l-7.352-4.346c-.61.746-1.195,1.494-1.819,2.206a1.165,1.165,0,0,1-.717.421.9.9,0,0,1-.7-.4.979.979,0,0,1,.028-.856c.769-1.025,1.584-2.017,2.417-2.993.366-.428.808-.286,1.241-.029q3.779,2.242,7.568,4.466c.426.251.856.5,1.275.756.762.475.75,1.179-.039,1.612q-3.755,2.061-7.52,4.1c-.144.079-.285.164-.505.291.668.4,1.29.769,1.917,1.133.364.211.76.475.621.92a1.481,1.481,0,0,1-.711.8q-4.386,2.088-8.81,4.1a.864.864,0,0,0-.6,1c.074,2.252.064,4.507.062,6.761a.807.807,0,0,0,.5.888,3.008,3.008,0,0,1,1.652,2.448,5.548,5.548,0,0,1-1.8,5.116.972.972,0,0,0-.355.8q.017,6.46.007,12.921c0,1.055-.2,1.25-1.252,1.251q-2.144,0-4.289,0h-.671a18.577,18.577,0,0,1,1.4,5.033c.227.976-.078,1.355-1.067,1.356q-13.085,0-26.171,0c-.995,0-1.3-.358-1.085-1.329a18.254,18.254,0,0,1,1.381-5.027c-.272-.013-.462-.031-.652-.031-1.43,0-2.859,0-4.289,0-1.041,0-1.268-.223-1.268-1.248q0-6.46.006-12.92a.94.94,0,0,0-.341-.8,6.017,6.017,0,0,1-1.874-3.455Zm6.519-4.378c0,2.831,0,5.6.005,8.36a5.563,5.563,0,0,0,.114.981,10.5,10.5,0,0,0,10.475,8.78c2.73.012,5.46.024,8.19-.011a11.516,11.516,0,0,0,2.5-.284,10.423,10.423,0,0,0,8.079-10.261c.022-2.271-.029-4.544.024-6.815a1.238,1.238,0,0,0-.893-1.4,13.458,13.458,0,0,1-5.5-4.919c-.327-.459-.628-.935-.951-1.418a31.318,31.318,0,0,1-10.542,4.848A56.523,56.523,0,0,1,5463.544,262.747Zm-1.727,1.734a.584.584,0,0,0,.045-.131q.006-1.017.007-2.034c0-.923.229-1.161,1.157-1.218a52.739,52.739,0,0,0,15.7-3.457,19.351,19.351,0,0,0,6.345-3.642c.672-.618,1.122-.509,1.619.268a36.815,36.815,0,0,0,2.3,3.343,9.386,9.386,0,0,0,4.913,3.437.847.847,0,0,1,.662.942c0,.818,0,1.635,0,2.582.377-.333,1-.054.99-.765-.022-2.089-.019-4.178-.029-6.267,0-.17-.032-.34-.054-.564-.741.343-1.424.648-2.1.972a.877.877,0,0,1-1.153-.116c-.36-.4-.228-.8.049-1.2.73-1.054,1.454-2.112,2.158-3.183a.755.755,0,0,0,.1-.58,14.117,14.117,0,0,0-2.2-3.908c-.063-.081-.165-.193-.244-.19-.557.027-1.112.079-1.687.126.1,1.917.2,3.8.3,5.683a.831.831,0,0,1-.571.95.82.82,0,0,1-.983-.411q-2.887-4.281-5.769-8.567c-.454-.68-.091-1.328.733-1.361.377-.014.754,0,1.186,0-.424-.968-.865-1.682-2.027-1.851a47.967,47.967,0,0,0-8.008-.21,13.459,13.459,0,0,0-2.6.361,15.123,15.123,0,0,0-11.67,13.464c-.167,2.37-.067,4.759-.086,7.14,0,.032.031.064.054.111Zm20.9,20.526a.482.482,0,0,0-.042.07,4.573,4.573,0,0,1-4.3,3.6c-2.165.043-3.727-1.134-4.558-3.41a.563.563,0,0,0-.42-.289c-.658-.022-1.317.012-1.977.016a.813.813,0,0,1-.909-.754.778.778,0,0,1,.779-.873c.564-.051,1.133-.04,1.7-.052.213,0,.426,0,.649,0v-.767c-.559-.069-1.089-.1-1.606-.2a12.054,12.054,0,0,1-9.63-8.4.623.623,0,0,0-.32-.369,11.453,11.453,0,0,0-1.178-.227v12.085h.612c1.246,0,2.492-.035,3.736.011a2.907,2.907,0,0,0,2.4-.736.773.773,0,0,1,1.205.087.807.807,0,0,1-.223,1.2c-2.042,1.4-2.47,3.552-2.794,5.783h24.716C5490.192,287.286,5487.885,284.505,5482.719,285.007Zm12.806-11.668a2.7,2.7,0,0,1-.637.14c-.607-.028-.8.316-1,.837a11.909,11.909,0,0,1-8.852,7.9c-.738.178-1.5.243-2.24.358v.742c.385,0,.731.01,1.077,0a7.788,7.788,0,0,1,5.623,1.934.974.974,0,0,0,.6.184c1.649.014,3.3.009,4.948.006.155,0,.311-.028.48-.045Zm-6.739-21.7.1-.06c-.063-1.133-.139-2.266-.186-3.4-.028-.672.279-.975.949-.99.338-.008.675,0,1.075,0l-.959-6.8h-5.3c.124.222.216.4.314.564.876,1.5,1.76,3,2.628,4.506.45.781.1,1.387-.8,1.409-.315.008-.631,0-1.043,0Zm-7.629,30.9h-5.8c0,.653-.046,1.292.009,1.923a2.837,2.837,0,0,0,2.583,2.564,2.808,2.808,0,0,0,3.038-2.145A16.452,16.452,0,0,0,5481.158,282.539Zm13.407-10.728a3.85,3.85,0,0,0,3.032-2.727,3.741,3.741,0,0,0-.015-2.322,1.5,1.5,0,0,0-1.735-.927c-.727.144-1.176.634-1.161,1.116a16.137,16.137,0,0,1,1.925.194.7.7,0,0,1,.5.911.767.767,0,0,1-.893.63c-.127-.01-.25-.055-.376-.073-.531-.081-1.251.345-1.267.794C5494.544,270.208,5494.565,271.01,5494.565,271.811Zm-32.618.023c-.023-.366-.055-.726-.067-1.085a7.758,7.758,0,0,1,0-1.1.719.719,0,0,0-.479-.827,3.248,3.248,0,0,0-1.093-.136c-.38.006-.753-.04-.865-.413a1.338,1.338,0,0,1,.087-.906.894.894,0,0,1,.647-.341c.544-.049,1.1-.016,1.638-.016a1.478,1.478,0,0,0-1.446-1.2,1.5,1.5,0,0,0-1.534,1.009A3.976,3.976,0,0,0,5461.947,271.834Z" transform="translate(-5457.025 -237.481)" fill="#fff"/>
        <path id="Trazado_127923" data-name="Trazado 127923" d="M5483.967,300.877c-1.054-.211-2.025-.368-2.972-.617a1.289,1.289,0,0,1-.79-.627c-.244-.6.3-1.117,1.019-.983,1.637.307,3.271.632,4.894,1a.955.955,0,0,1,.625.58,1.026,1.026,0,0,1-.28.856c-1.218.967-2.476,1.887-3.734,2.8a.808.808,0,0,1-1.169-.173.8.8,0,0,1,.219-1.157c.562-.441,1.145-.855,1.715-1.284C5483.635,301.169,5483.763,301.049,5483.967,300.877Z" transform="translate(-5469.732 -271.086)" fill="#fff"/>
        <path id="Trazado_127924" data-name="Trazado 127924" d="M5516.023,300.885c.75.559,1.394,1.036,2.035,1.517.575.431.716.915.393,1.338-.311.405-.8.41-1.354,0-1.132-.839-2.257-1.685-3.393-2.52a.89.89,0,0,1-.468-.965c.1-.431.431-.588.842-.668,1.543-.3,3.08-.627,4.622-.931.651-.129,1.1.132,1.181.657.075.481-.258.844-.892.972Z" transform="translate(-5487.905 -271.085)" fill="#fff"/>
        <path id="Trazado_127925" data-name="Trazado 127925" d="M5499.5,313.243a3.983,3.983,0,0,1,3.624,2.277.834.834,0,1,1-1.466.755,2.378,2.378,0,0,0-4.3-.006.831.831,0,1,1-1.459-.75A3.962,3.962,0,0,1,5499.5,313.243Z" transform="translate(-5478.311 -279.118)" fill="#fff"/>
        <path id="Trazado_127926" data-name="Trazado 127926" d="M5501.275,306.409c-.476,0-.95.009-1.426,0a.818.818,0,0,1-.915-.8.81.81,0,0,1,.879-.84q1.453-.022,2.906,0a.822.822,0,0,1,.868.8.831.831,0,0,1-.887.838C5502.227,306.42,5501.751,306.409,5501.275,306.409Z" transform="translate(-5480.057 -274.453)" fill="#fff"/>
      </g>
    </g>
  </g>
</svg>
