<svg xmlns="http://www.w3.org/2000/svg" width="85" height="85" viewBox="0 0 85 85">
  <g id="Grupo_135063" data-name="Grupo 135063" transform="translate(-231.666 -1127)">
    <circle id="Elipse_4921" data-name="Elipse 4921" cx="42.5" cy="42.5" r="42.5" transform="translate(231.666 1127)" fill="#133d60"/>
    <g id="Grupo_134952" data-name="Grupo 134952" transform="translate(-5090.487 903.921)">
      <path id="Trazado_127918" data-name="Trazado 127918" d="M5384.211,253.82a6.757,6.757,0,0,0-3.54-10.693l-1.494-.5a8.217,8.217,0,0,0-3.482-6.155,9.493,9.493,0,0,0-3.563-1.4h-15.24a2.457,2.457,0,0,1-.335.1,7.843,7.843,0,0,0-4.491,2.373,7.993,7.993,0,0,0-2.218,5.116c-.211.031-.417.075-.619.123a6.881,6.881,0,0,0-3.835,10.916,10.716,10.716,0,0,0-1.442,10.591,10.417,10.417,0,0,0,5.277,5.788,13.367,13.367,0,0,0,2.979,1.019,2.167,2.167,0,0,1-.1.249,10.671,10.671,0,0,0-1.456,5.088,1.911,1.911,0,0,1-.5,1.073,2.581,2.581,0,0,0-.031,3.736c.67.746.668.87-.021,1.631a2.462,2.462,0,0,0-.036,3.576c.744.849.744.88.01,1.718a2.393,2.393,0,0,0-.154,3.345,2.841,2.841,0,0,1,.753,2.316c-.016.317,0,.635,0,.952.011.968.272,1.23,1.24,1.231h12.142q6.579,0,13.155,0c.813,0,1.114-.3,1.125-1.1.008-.654-.038-1.314.028-1.962a1.815,1.815,0,0,1,.4-.988,2.6,2.6,0,0,0,.048-3.913c-.564-.628-.564-.829,0-1.458a2.5,2.5,0,0,0,.007-3.795c-.569-.621-.573-.847-.019-1.459a2.576,2.576,0,0,0-.04-3.9,1.329,1.329,0,0,1-.4-.753,11.043,11.043,0,0,0-1.532-5.491c-.015-.026.008-.074,0-.042l3.158-1.069-.01-.018a11.488,11.488,0,0,0,5.666-5.793A10.464,10.464,0,0,0,5384.211,253.82Zm-6.547,25.072a.68.68,0,0,1,.011,1.055c-.065.075-.136.144-.2.217a2.546,2.546,0,0,0-.027,3.769c.621.684.619.834-.013,1.536a2.544,2.544,0,0,0,.01,3.727c.635.707.648.915-.031,1.581a2.713,2.713,0,0,0-.847,2.081c.007.434,0,.868,0,1.341h-3.51v-.726q0-6.933,0-13.865c0-.255.04-.592-.1-.745a1.6,1.6,0,0,0-.891-.522.707.707,0,0,0-.77.673,4.773,4.773,0,0,0-.022.654q0,6.9,0,13.806v.732h-13.523v-.683q0-7.082,0-14.163c0-.4-.052-.81-.472-.928a1.154,1.154,0,0,0-.928.08,1.483,1.483,0,0,0-.373.987c-.028,2.737-.016,5.474-.016,8.212v6.5h-3.512c0-.465,0-.914,0-1.363a2.729,2.729,0,0,0-.853-2.08c-.679-.663-.665-.856-.019-1.578a2.543,2.543,0,0,0,0-3.726c-.632-.7-.633-.841,0-1.534a2.544,2.544,0,0,0,.006-3.726c-.649-.721-.665-.9.02-1.572a2.979,2.979,0,0,0,.861-2.2,8.125,8.125,0,0,1,2.35-5.681.623.623,0,0,1,.865-.168,11.154,11.154,0,0,0,1.539.624.832.832,0,0,0,1.1-.534.848.848,0,0,0-.476-1.127,19.491,19.491,0,0,1-2.734-1.4,2.838,2.838,0,0,1-.416-4.292,1.9,1.9,0,0,1,2.872-.287,11.231,11.231,0,0,0,13.942-.053,1.765,1.765,0,0,1,1.883-.256,2.764,2.764,0,0,1,1.165,4.259,4.932,4.932,0,0,1-2.234,1.622,20.281,20.281,0,0,1-8.116,1.558c-.476-.009-.952-.036-1.428-.035a.776.776,0,0,0-.816.776.8.8,0,0,0,.62.946,1.936,1.936,0,0,0,.41.063,20.336,20.336,0,0,0,10.523-1.9c.319-.163.464-.024.654.166a7.785,7.785,0,0,1,2.357,5.246A3.71,3.71,0,0,0,5377.664,278.891Zm-3.97-21.767a9.516,9.516,0,0,1-10.053,7,9.374,9.374,0,0,1-8.527-8.237,49.473,49.473,0,0,1-.031-5.344,16.024,16.024,0,0,1,18.961-.035C5373.929,252.757,5374.273,254.96,5373.693,257.125Zm10.842,4.471c-.4,2.678-3.142,5.4-5.342,6.776,0,0-.006,0-.005,0a8.669,8.669,0,0,1-3.877,1.064c2.926-3.008,1.476-7.144-1.71-8.015.307-.511.632-1.007.91-1.528a11.167,11.167,0,0,0,1.3-5.314q0-2.588,0-5.177c0-1.146-.605-1.512-1.607-.991a6.144,6.144,0,0,1-8.766-3.185c-.176-.432-.392-.779-.922-.785s-.758.328-.936.764a6.143,6.143,0,0,1-8.754,3.216c-1.014-.53-1.63-.176-1.622.958.016,2.18-.016,4.364.1,6.54a9.975,9.975,0,0,0,1.894,5.123c.065.1.118.2.209.354a4.264,4.264,0,0,0-3.187,3.417,4.8,4.8,0,0,0,1.554,4.605c-.34-.026-.541-.032-.738-.06a9.5,9.5,0,0,1-3.809-1.389,9.1,9.1,0,0,1-4.159-6.384,8.83,8.83,0,0,1,1.984-7.057c.621-.775.611-.988-.032-1.738a4.784,4.784,0,0,1-.89-5.264,4.688,4.688,0,0,1,3.1-2.845,5.873,5.873,0,0,1,1.21-.226c1.008-.078,1.177-.262,1.209-1.411a6.139,6.139,0,0,1,4.743-6.005,7.27,7.27,0,0,1,1.649-.174q6.486-.021,12.974-.007a6.243,6.243,0,0,1,6.352,6.375c0,.847.278,1.16,1.17,1.211a4.887,4.887,0,0,1,1.84.463h0l.007,0c.114.055.23.107.341.173,0-.017.007-.034.011-.051a4.922,4.922,0,0,1,1.848,7.878c-.643.74-.652.95-.032,1.715A8.632,8.632,0,0,1,5384.535,261.6Z" fill="#fff"/>
      <path id="Trazado_127919" data-name="Trazado 127919" d="M5423.783,326.921c-.715-.806-.715-.862,0-1.671a2.559,2.559,0,0,0,0-3.644,3.674,3.674,0,0,1-.587-1.047.868.868,0,0,0-1.024-.6.766.766,0,0,0-.718.8,2.458,2.458,0,0,0,.838,1.894c.654.662.648.86.038,1.534a2.548,2.548,0,0,0-.027,3.768c.645.716.647.85-.047,1.569a2.443,2.443,0,0,0-.8,1.67c-.017.595.252.953.765,1.015s.84-.243,1.018-.786a2.63,2.63,0,0,1,.533-.88A2.48,2.48,0,0,0,5423.783,326.921Z" transform="translate(-40.647 -44.055)" fill="#fff"/>
      <path id="Trazado_127920" data-name="Trazado 127920" d="M5350.265,332.384a.794.794,0,0,0-.8-.861.865.865,0,0,0-.977.677,2.552,2.552,0,0,1-.486.9,2.5,2.5,0,0,0-.023,3.753c.625.681.632.872.011,1.541a2.73,2.73,0,0,0-.824,1.852,2.846,2.846,0,0,0,.854,1.964,2.139,2.139,0,0,1,.456.792.915.915,0,0,0,1.014.781.866.866,0,0,0,.771-1.015,2.566,2.566,0,0,0-.81-1.67c-.7-.719-.7-.871-.024-1.622a2.556,2.556,0,0,0,0-3.684c-.678-.753-.683-.869.038-1.614A2.483,2.483,0,0,0,5350.265,332.384Z" transform="translate(-2.073 -50.064)" fill="#fff"/>
      <path id="Trazado_127921" data-name="Trazado 127921" d="M5381.736,284.022a2.858,2.858,0,0,1,3.974.014.865.865,0,0,0,1.31-.023.837.837,0,0,0-.116-1.3,4.625,4.625,0,0,0-6.35-.023c-.474.445-.525.871-.168,1.292A.87.87,0,0,0,5381.736,284.022Z" transform="translate(-19.207 -24.068)" fill="#fff"/>
    </g>
  </g>
</svg>
