<svg xmlns="http://www.w3.org/2000/svg" width="85" height="85" viewBox="0 0 85 85">
  <g id="Grupo_135054" data-name="Grupo 135054" transform="translate(-437.666 -1561)">
    <circle id="Elipse_4936" data-name="Elipse 4936" cx="42.5" cy="42.5" r="42.5" transform="translate(437.666 1561)" fill="#133d60"/>
    <g id="_68oAhW" data-name="68oAhW" transform="translate(-980.684 1080.435)">
      <g id="Grupo_134967" data-name="Grupo 134967" transform="translate(1430.35 492.566)">
        <path id="Trazado_128025" data-name="Trazado 128025" d="M1432.862,528.56c2.983-1.862,5.821-1.795,8.544.471,1.377-1.374,2.734-2.73,4.093-4.084a3.381,3.381,0,0,1,.5-.452.88.88,0,0,1,1.176.112.818.818,0,0,1,.156,1.209q-2.6,2.686-5.284,5.294c-.422.41-.918.254-1.434-.3a4.608,4.608,0,0,0-3.706-1.586,4.852,4.852,0,0,0-4.4,3.74,4.6,4.6,0,0,0,2.186,5.069c.107-.132.221-.268.329-.407a5.322,5.322,0,0,1,5.778-1.8.955.955,0,0,1,.776,1.136.925.925,0,0,1-1.19.762,3.888,3.888,0,0,0-2.63.213,3.943,3.943,0,0,0-2.125,3.375,7.228,7.228,0,0,0,2.594,6.329c2.76,2.364,7.255,1.3,9.009-2.117a8.978,8.978,0,0,0,.636-1.844c.208-.8.536-1.064,1.343-.956a2.279,2.279,0,0,0,2.682-1.922,2.317,2.317,0,0,0-1.7-2.949,11.278,11.278,0,0,0-1.145-.2c-.834-.134-1.135-.543-.962-1.357q1.214-5.723,2.436-11.444a1.186,1.186,0,0,0,.074-.42c-.056-.3-.073-.726-.266-.849s-.615.02-.856.173c-.6.382-1.076.4-1.466-.062s-.325-.958.2-1.446a2.881,2.881,0,0,1,3.132-.555,2.446,2.446,0,0,1,1.227,2.6c-.016.3-.05.6-.083.989a18.613,18.613,0,0,1,8.306-1.78,20.752,20.752,0,0,1,8.372,1.858c-.06-.273-.105-.454-.139-.637a2.849,2.849,0,0,1,1.513-2.963,2.567,2.567,0,0,1,3.021.62.971.971,0,0,1-1.205,1.508c-.334-.221-.71-.653-1.054-.256a1.59,1.59,0,0,0-.183,1.184c.334,1.765.737,3.517,1.112,5.274q.664,3.116,1.32,6.233c.163.781-.144,1.19-.932,1.329a8.942,8.942,0,0,0-1.491.32,2.3,2.3,0,0,0-1.364,2.92,2.261,2.261,0,0,0,2.506,1.857c1.089-.1,1.284.042,1.525,1.145.781,3.581,4.541,5.9,7.836,4.747,2.5-.873,3.73-2.864,4.279-5.338a5.582,5.582,0,0,0-.24-3.374,3.557,3.557,0,0,0-4.143-2.25,1.586,1.586,0,0,1-1.091-.143,1.081,1.081,0,0,1-.336-.948,1.31,1.31,0,0,1,.768-.744,5.24,5.24,0,0,1,5.8,1.86c.086.112.173.222.288.37a4.6,4.6,0,0,0,2.271-4.461,4.67,4.67,0,0,0-3.155-4.091,4.389,4.389,0,0,0-4.854,1.1c-.982.939-1.238.96-2.2,0q-2.234-2.235-4.467-4.469a.98.98,0,0,1-.24-1.364.964.964,0,0,1,1.575-.065c1.281,1.265,2.548,2.541,3.817,3.817.158.159.29.344.464.553a6.65,6.65,0,0,1,8.623-.455c.149-1.1.336-2.1.414-3.106a28.509,28.509,0,0,0-35.543-30.069c-.846.215-1.391-.179-1.367-.959a.9.9,0,0,1,.758-.909,30.451,30.451,0,0,1,37.433,36.284,1.612,1.612,0,0,0,.1.977,6.694,6.694,0,0,1-2.382,8.637.8.8,0,0,0-.393.943c.5,3.465-.261,6.548-3.117,8.787-2.641,2.071-5.56,2.141-8.539.742a1.094,1.094,0,0,0-1.121.027,30.27,30.27,0,0,1-28.482-.037.949.949,0,0,0-1.009-.014,8.021,8.021,0,0,1-11.747-6.333,20.493,20.493,0,0,1,.076-3.353.648.648,0,0,0-.331-.689,6.675,6.675,0,0,1-2.477-8.705,1.465,1.465,0,0,0,.082-.873,30.447,30.447,0,0,1,15.589-33.948c.469-.249.948-.48,1.432-.7a1.056,1.056,0,0,1,1.47.431c.255.512.058,1.009-.617,1.324a28.646,28.646,0,0,0-5.992,3.678,28.115,28.115,0,0,0-10.371,17.863A26.038,26.038,0,0,0,1432.862,528.56Zm38.543,7.275a.89.89,0,0,0,.009-.2c-.526-2.476-1.046-4.953-1.6-7.423a.965.965,0,0,0-.478-.55,19.117,19.117,0,0,0-6.487-1.9,17.988,17.988,0,0,0-10.617,1.953.99.99,0,0,0-.434.588c-.31,1.311-.58,2.63-.861,3.948-.254,1.19-.505,2.38-.76,3.581.262.072.458.122.652.178a4.129,4.129,0,0,1,3.055,3.858c.077,2.1-.987,4.047-2.814,4.458a2.486,2.486,0,0,0-2.088,1.958,11.118,11.118,0,0,1-1.247,2.137,28.562,28.562,0,0,0,26.114.018,20.209,20.209,0,0,1-1.407-2.636,1.659,1.659,0,0,0-1.453-1.327,4.185,4.185,0,0,1-3.25-4.21,4.134,4.134,0,0,1,3.147-4.276C1471.06,535.938,1471.232,535.886,1471.405,535.835Z" transform="translate(-1430.35 -492.566)" fill="#fff"/>
        <path id="Trazado_128026" data-name="Trazado 128026" d="M1510.858,534.5a4.48,4.48,0,0,1-4.64-4.526,1.051,1.051,0,0,1,.91-1.184c.563-.062.929.3,1.032,1.03.288,2.032,1.8,3.035,3.614,2.383a2.492,2.492,0,0,0,1.741-2.231c.087-.8.433-1.149,1.088-1.09.6.055.9.482.863,1.247A4.474,4.474,0,0,1,1510.858,534.5Z" transform="translate(-1471.218 -512.077)" fill="#fff"/>
        <path id="Trazado_128027" data-name="Trazado 128027" d="M1475.7,530.254a4.615,4.615,0,0,1-9.22-.124c-.006-.716.307-1.107.909-1.138s.977.321,1.044,1.018a2.588,2.588,0,0,0,2.687,2.465,2.47,2.47,0,0,0,2.622-2.357c.069-.538.191-1.02.828-1.123C1475.316,528.875,1475.737,529.348,1475.7,530.254Z" transform="translate(-1449.813 -512.179)" fill="#fff"/>
        <path id="Trazado_128028" data-name="Trazado 128028" d="M1517.1,512.664a2.415,2.415,0,0,1-.58.688c-2.157,1.282-4.332,2.534-6.512,3.776a.9.9,0,0,1-1.3-.4.881.881,0,0,1,.328-1.273c2.164-1.269,4.334-2.53,6.518-3.765A1.025,1.025,0,0,1,1517.1,512.664Z" transform="translate(-1472.482 -502.792)" fill="#fff"/>
        <path id="Trazado_128029" data-name="Trazado 128029" d="M1474.34,516.084c.016.962-.732,1.49-1.384,1.122-2.187-1.23-4.357-2.49-6.521-3.76a.858.858,0,0,1-.318-1.267.951.951,0,0,1,1.375-.353c1.052.585,2.087,1.2,3.13,1.8s2.1,1.185,3.119,1.818A2.834,2.834,0,0,1,1474.34,516.084Z" transform="translate(-1449.533 -502.857)" fill="#fff"/>
      </g>
    </g>
  </g>
</svg>
