<svg xmlns="http://www.w3.org/2000/svg" width="85" height="85" viewBox="0 0 85 85">
  <g id="Grupo_135050" data-name="Grupo 135050" transform="translate(-653.666 -1349)">
    <circle id="Elipse_4929" data-name="Elipse 4929" cx="42.5" cy="42.5" r="42.5" transform="translate(653.666 1349)" fill="#133d60"/>
    <g id="smyICg" transform="translate(-188.94 910.564)">
      <g id="Grupo_134963" data-name="Grupo 134963" transform="translate(858.606 450.436)">
        <path id="Trazado_127998" data-name="Trazado 127998" d="M884,512.406c-1.48-.276-2.992-.442-4.435-.849a19.2,19.2,0,0,1-9.933-6.645,19.652,19.652,0,0,1-4.394-12.221c0-.121-.01-.242-.022-.362,0-.038-.032-.072-.091.029a19.478,19.478,0,0,1-3.083-.917,5.692,5.692,0,0,1-3.368-5.01,22.581,22.581,0,0,1,.08-4.344,6.088,6.088,0,0,1,5.57-5.038l.906-.057c0-.253,0-.467,0-.682,0-2.9-.044-5.809.027-8.711a11.154,11.154,0,0,1,3.821-8.2,1.1,1.1,0,0,0,.389-.772c-.354-2.433.79-4.048,2.752-5.258a19.333,19.333,0,0,1,7.509-2.514,36.587,36.587,0,0,1,16.322,1.183,16.12,16.12,0,0,1,6.623,3.621,11.4,11.4,0,0,1,3.48,7.561,15.6,15.6,0,0,1-.88,6.416,1.648,1.648,0,0,0-.1.528q-.009,3.3,0,6.594a1.217,1.217,0,0,0,.043.211c.511.049,1.035.059,1.542.157a6.059,6.059,0,0,1,4.969,5.439,20.279,20.279,0,0,1-.088,4.64,6.048,6.048,0,0,1-5.488,4.911c-.3.026-.6.045-.905.067-.138,1.245-.222,2.49-.422,3.715a19.126,19.126,0,0,1-4.473,9.5,19.633,19.633,0,0,1-10.954,6.544c-.978.215-1.982.315-2.974.468Zm19.64-26.178h-.684c-1.138,0-1.266-.156-1.3-1.285-.1-3.062-.189-6.125-.35-9.184a5.8,5.8,0,0,0-2.545-4.778c-.454-.307-.43-.7-.235-1.168a18.78,18.78,0,0,0,.847-2.317c.271-1.012.172-1.111-.77-1.586a10.38,10.38,0,0,0-4.763-.916c-4.6-.012-9.2-.022-13.794,0-2.6.014-5.156-.163-7.461-1.507a4.306,4.306,0,0,0-1.146,5.486c.11.259.236.512.361.765.346.7.3.891-.34,1.361a5.309,5.309,0,0,0-2.227,3.666c-.161,1.176-.3,2.361-.344,3.546-.088,2.276-.1,4.555-.15,6.833-.017.84-.247,1.07-1.09,1.083-.3,0-.594,0-1.062,0,.117,3.042.04,6.038.388,8.983a17.16,17.16,0,0,0,6.547,11.537,17.816,17.816,0,0,0,14.539,3.935,18.008,18.008,0,0,0,12.736-8.359,17.141,17.141,0,0,0,2.836-9.051C903.684,490.959,903.638,488.643,903.638,486.228Zm.265-25.909.185-.127a26.944,26.944,0,0,0-1.806-2.812,12.31,12.31,0,0,0-5.764-3.619,34.407,34.407,0,0,0-18.471-1.088,15.061,15.061,0,0,0-5.757,2.4c-.4.286-.511.6-.2.937a5.84,5.84,0,0,0,1.472,1.29,10.485,10.485,0,0,0,5.595.95c2.79-.211,5.566-.615,8.355-.837a40.033,40.033,0,0,1,6.326-.219A22.209,22.209,0,0,1,903.9,460.319Zm-38.712,18.25a4.459,4.459,0,0,0-4.772,3,10.914,10.914,0,0,0,0,6.015,4.489,4.489,0,0,0,4.776,3.024ZM905.223,490.6a4.562,4.562,0,0,0,4.793-3,13.2,13.2,0,0,0,.255-4.791,4.611,4.611,0,0,0-5.048-4.268ZM871,457.162l-.176.07a3.544,3.544,0,0,0,.332.9,6,6,0,0,0,3.422,2.122,21.335,21.335,0,0,0,6.6.5c3.847-.116,7.692-.342,11.539-.355a18.069,18.069,0,0,1,11.423,3.973c.161.126.331.239.564.406,0-.468-.023-.811.005-1.151a1.35,1.35,0,0,0-.674-1.368,24.1,24.1,0,0,0-2.676-1.624,24.694,24.694,0,0,0-13.766-1.794c-2.911.4-5.841.762-8.773.874C875.963,459.823,873.128,459.479,871,457.162Zm33.253,10.8c.052-.259.083-.376.1-.494.045-.37.324-.721-.1-1.1A18.35,18.35,0,0,0,898.773,463a20.659,20.659,0,0,0-8.376-1.19c-3.646.111-7.289.352-10.935.437a14.448,14.448,0,0,1-7.282-1.379c-.032-.017-.094.02-.149.034a4.857,4.857,0,0,0,2.2,1.755,12.838,12.838,0,0,0,5.029.853c4.838,0,9.677,0,14.515.006a17.747,17.747,0,0,1,2.292.125,11.768,11.768,0,0,1,7.452,3.465C903.745,467.353,903.956,467.614,904.254,467.96ZM870,460.578c-.087.074-.182.145-.266.228a9.871,9.871,0,0,0-3.037,7.261q-.014,8.04,0,16.081v.53c.558.049.558.049.571-.476.053-2.094.085-4.189.169-6.283.042-1.045.145-2.09.283-3.127a7.136,7.136,0,0,1,2.643-4.714,5.821,5.821,0,0,1,1.013-7.5Zm33.123,24.1c.617.2.58-.178.58-.536q0-6.833,0-13.665a1.305,1.305,0,0,0-.057-.533,6.962,6.962,0,0,0-2.565-2.962c-.315.973-.634,1.917-.914,2.873a.6.6,0,0,0,.178.488,7.279,7.279,0,0,1,2.41,5.177c.164,2.815.251,5.634.369,8.451C903.129,484.209,903.12,484.447,903.12,484.678Z" transform="translate(-858.606 -450.436)" fill="#fff"/>
        <path id="Trazado_127999" data-name="Trazado 127999" d="M940.777,534.52a5.208,5.208,0,1,1,5.22-5.182A5.229,5.229,0,0,1,940.777,534.52Zm-3.728-5.288a3.735,3.735,0,1,0,3.8-3.661A3.737,3.737,0,0,0,937.049,529.232Z" transform="translate(-906.974 -496.734)" fill="#fff"/>
        <path id="Trazado_128000" data-name="Trazado 128000" d="M902.113,532.224c-1.21,0-2.42-.011-3.629.005a1.067,1.067,0,0,1-1.094-.673,5.2,5.2,0,1,1,9.491-.118,1.131,1.131,0,0,1-1.2.794C904.492,532.206,903.3,532.224,902.113,532.224Zm-3.465-1.462h5.806c1.215,0,1.455-.253,1.4-1.493a3.714,3.714,0,0,0-.07-.538,3.573,3.573,0,0,0-2.6-2.951,3.509,3.509,0,0,0-3.838,1.069A3.626,3.626,0,0,0,898.648,530.763Z" transform="translate(-882.673 -496.757)" fill="#fff"/>
        <path id="Trazado_128001" data-name="Trazado 128001" d="M921.714,578.53a5.912,5.912,0,0,1-.69-.485c-.554-.529-1.082-1.085-1.632-1.619a1.731,1.731,0,0,0-2.579-.076,3.158,3.158,0,0,1-4.562.049,1.715,1.715,0,0,0-2.5,0,3.14,3.14,0,0,1-4.381.014,1.733,1.733,0,0,0-2.625.1c-.49.479-.972.967-1.456,1.453-.341.342-.713.472-1.119.124-.355-.3-.323-.732.09-1.159.519-.536,1.039-1.072,1.584-1.581a3.135,3.135,0,0,1,4.377-.129,1.777,1.777,0,0,0,2.641.016,3.14,3.14,0,0,1,4.336.05,1.729,1.729,0,0,0,2.626-.021,3.168,3.168,0,0,1,4.6.122c.593.576,1.2,1.147,1.737,1.769a1,1,0,0,1,.164.81C922.269,578.181,921.957,578.322,921.714,578.53Z" transform="translate(-884.575 -528.303)" fill="#fff"/>
        <path id="Trazado_128002" data-name="Trazado 128002" d="M941.255,502.378a6.1,6.1,0,0,1,.591.268q2.454,1.485,4.9,2.982c.516.317.656.724.393,1.1-.328.464-.742.4-1.168.145q-2.453-1.488-4.9-2.979c-.362-.22-.606-.538-.414-.95C940.765,502.706,941.056,502.557,941.255,502.378Z" transform="translate(-910.129 -483.08)" fill="#fff"/>
        <path id="Trazado_128003" data-name="Trazado 128003" d="M907.709,512.606c.207.225.516.418.6.682.148.467-.168.762-.609.87-1.267.309-2.538.6-3.808.9-.664.156-1.325.329-1.993.466a.7.7,0,0,1-.915-.56.685.685,0,0,1,.57-.856c1.931-.467,3.866-.912,5.8-1.363.078-.018.159-.022.239-.032Z" transform="translate(-885.225 -489.507)" fill="#fff"/>
        <path id="Trazado_128004" data-name="Trazado 128004" d="M949.1,536.918a.748.748,0,0,1-.729.788.712.712,0,0,1-.715-.736.745.745,0,0,1,.722-.792A.766.766,0,0,1,949.1,536.918Z" transform="translate(-914.573 -504.321)" fill="#fff"/>
        <path id="Trazado_128005" data-name="Trazado 128005" d="M908.983,536.942a.707.707,0,0,1,.7-.751.746.746,0,0,1,.751.768.732.732,0,0,1-.709.751A.722.722,0,0,1,908.983,536.942Z" transform="translate(-890.266 -504.328)" fill="#fff"/>
      </g>
    </g>
  </g>
</svg>
