<svg xmlns="http://www.w3.org/2000/svg" width="85" height="85" viewBox="0 0 85 85">
  <g id="Grupo_135062" data-name="Grupo 135062" transform="translate(-862.666 -1561)">
    <g id="Grupo_135056" data-name="Grupo 135056">
      <circle id="Elipse_4933" data-name="Elipse 4933" cx="42.5" cy="42.5" r="42.5" transform="translate(862.666 1561)" fill="#133d60"/>
      <g id="kfaTwH" transform="translate(634.405 1125.999)">
        <g id="Grupo_134960" data-name="Grupo 134960" transform="translate(244.801 452.345)">
          <path id="Trazado_127981" data-name="Trazado 127981" d="M295.222,503.176a3.6,3.6,0,0,1-.187-.788c-.022-2.037.007-4.076-.036-6.113a3.843,3.843,0,0,0-3.518-3.619c-1.521-.065-3.047-.04-4.57-.04q-18.513,0-37.026.006a5.822,5.822,0,0,0-1.617.187,3.879,3.879,0,0,0-2.779,3.713c-.02,1.971,0,3.943-.016,5.914a3.226,3.226,0,0,1-.183.74h-.3a2.491,2.491,0,0,1-.179-.637q-.02-3.058-.006-6.117a4.612,4.612,0,0,1,4.4-4.47c2.436-.03,4.873-.019,7.31-.011a.634.634,0,0,0,.679-.4,6.266,6.266,0,0,1,5.848-3.663c1.158-.025,2.317,0,3.512,0V486.24h-.588c-3.9,0-7.791.007-11.686,0a5.1,5.1,0,0,1-5.006-3.1,5.379,5.379,0,0,1-.466-2.108c-.046-3.58-.021-7.16-.023-10.741,0-.255-.018-.554.325-.562.39-.009.349.326.349.586,0,3.448.068,6.9-.019,10.343a4.718,4.718,0,0,0,4.92,4.927c3.762-.067,7.525-.016,11.288-.016h.657c-.312-.28-.532-.469-.742-.668a21.064,21.064,0,0,1-5.3-8.354.7.7,0,0,0-.659-.571,2.675,2.675,0,0,1-2.362-2.276,2.749,2.749,0,0,1,1.628-2.91c.151-.072.342-.291.333-.431a10.27,10.27,0,0,1,2.609-7.55,2.107,2.107,0,0,0,.124-.185c-.344-.446-.707-.876-1.018-1.341a1.672,1.672,0,0,1-.13-.623c0-.028.029-.061.03-.093a4.905,4.905,0,0,0-1.481-1.86.616.616,0,0,1-.328-.262,6.507,6.507,0,0,1-.865-3.228c.027-1.172.611-1.513,1.657-.963.659.346,1.292.744,1.944,1.1a7.814,7.814,0,0,0,8.222-.072,8.959,8.959,0,0,1,3.422-1.269,4.908,4.908,0,0,1,4.955,2.175,7.146,7.146,0,0,1,.988,6.533.834.834,0,0,0,.111.654,10.552,10.552,0,0,1,2.145,6.98.525.525,0,0,0,.32.576,2.681,2.681,0,0,1,1.372,2.8,2.642,2.642,0,0,1-2.2,2.2.9.9,0,0,0-.819.726,19.96,19.96,0,0,1-5.869,8.85,2.894,2.894,0,0,0,.357.048c4.011,0,8.023,0,12.034-.017a4.52,4.52,0,0,0,4.253-4.107c.016-.348.026-.7.026-1.044,0-7.509-.01-15.018.009-22.526a4.616,4.616,0,0,0-4.787-4.882q-16.087.006-32.173.033a4.486,4.486,0,0,0-4.641,4.7c-.01,2.967,0,5.934-.006,8.9,0,.281.1.7-.331.7s-.338-.409-.339-.694q0-4.426,0-8.852a5.2,5.2,0,0,1,5.4-5.429q16.062-.01,32.124,0a5.2,5.2,0,0,1,5.419,5.413q.006,11.512,0,23.024a5.229,5.229,0,0,1-5.448,5.451c-3.9.014-7.791,0-11.686,0h-.631v1.635c.579,0,1.153-.019,1.725,0a22.228,22.228,0,0,1,3.309.2,5.909,5.909,0,0,1,4.3,3.424.663.663,0,0,0,.706.443c2.387-.016,4.774-.026,7.161,0a4.6,4.6,0,0,1,4.443,3.642,3.071,3.071,0,0,0,.111.323v7.261ZM265.044,465.7c-.151.283-.313.549-.438.832-.275.62-.519,1.254-.8,1.873a5.784,5.784,0,0,1-2.663,2.908c-.355.183-.935.115-1.028.617a5.482,5.482,0,0,0,.037,1.336,5.73,5.73,0,0,0,.1.687,20.01,20.01,0,0,0,3.774,8.236,13.448,13.448,0,0,0,3.679,3.515,4.519,4.519,0,0,0,5.021.085,10.946,10.946,0,0,0,1.689-1.215,19.008,19.008,0,0,0,4.9-7.324,13.889,13.889,0,0,0,1.1-5.165.579.579,0,0,0-.4-.615,7.952,7.952,0,0,1-1.664-1.049,6.055,6.055,0,0,1-1.63-2.519c-.214-.549-.459-1.086-.672-1.588C272.266,467.789,268.626,468.068,265.044,465.7Zm17.64,26.165a2.525,2.525,0,0,0-.117-.309,5.129,5.129,0,0,0-3.533-2.754,25.438,25.438,0,0,0-3.805-.22c-.125,0-.288.141-.38.259a5.625,5.625,0,0,1-9.161-.031.631.631,0,0,0-.436-.232c-.862-.019-1.727-.051-2.585.007a5.567,5.567,0,0,0-4.661,2.87,3.538,3.538,0,0,0-.174.409Zm-15.429-5.677c0,.56.011.971,0,1.382a1.7,1.7,0,0,1-.11.813c-.105.161-.443.169-.678.244a4.775,4.775,0,0,0,7.614-.036c-.76-.1-.8.109-.813-.974,0-.419,0-.837,0-1.372A5.27,5.27,0,0,1,267.255,486.184ZM259.33,471.4a1.916,1.916,0,0,0-1.414,2.261,1.872,1.872,0,0,0,1.855,1.609Q259.55,473.327,259.33,471.4Zm21.461,3.926a4.123,4.123,0,0,0,.424-.092,2.034,2.034,0,0,0,.353-3.72c-.2-.1-.447-.263-.482.159C280.988,472.865,280.893,474.06,280.791,475.322Z" transform="translate(-244.801 -452.345)" fill="#fff"/>
          <path id="Trazado_127982" data-name="Trazado 127982" d="M322.206,538.556c-.629,0-1.26.021-1.887-.014-.164-.009-.32-.188-.48-.288.164-.118.326-.335.492-.339q1.887-.043,3.775,0c.171,0,.462.2.48.331.044.324-.259.31-.492.311Q323.15,538.558,322.206,538.556Z" transform="translate(-296.769 -511.592)" fill="#fff"/>
          <path id="Trazado_127983" data-name="Trazado 127983" d="M313.27,513.106a1,1,0,0,1,1.022.992,1.019,1.019,0,0,1-1,1.017,1,1,0,0,1-1.014-1A.983.983,0,0,1,313.27,513.106Z" transform="translate(-291.531 -494.426)" fill="#fff"/>
          <path id="Trazado_127984" data-name="Trazado 127984" d="M337.364,513.108a.986.986,0,0,1,1.016.992,1,1,0,0,1-1,1.018,1.019,1.019,0,0,1-1.022-1A1,1,0,0,1,337.364,513.108Z" transform="translate(-308.212 -494.427)" fill="#fff"/>
        </g>
      </g>
    </g>
  </g>
</svg>
