<svg xmlns="http://www.w3.org/2000/svg" width="85" height="85" viewBox="0 0 85 85">
  <g id="Grupo_135059" data-name="Grupo 135059" transform="translate(-1277.666 -1349)">
    <circle id="Elipse_4932" data-name="Elipse 4932" cx="42.5" cy="42.5" r="42.5" transform="translate(1277.666 1349)" fill="#133d60"/>
    <g id="Kn1ldO" transform="translate(-586.793 1112.721)">
      <g id="Grupo_134964" data-name="Grupo 134964" transform="translate(1879.74 253.637)">
        <path id="Trazado_128006" data-name="Trazado 128006" d="M1891.585,253.637a5.855,5.855,0,0,1,3.751,2.617.828.828,0,0,0,.635.4,4.571,4.571,0,0,1,4.144,2.954.644.644,0,0,0,.454.33,5.377,5.377,0,0,1,4.628,2.806c.064.111.2.253.307.254a4.943,4.943,0,0,1,2.916.972,17.891,17.891,0,0,1,.807-1.877,4.386,4.386,0,0,1,2.2-1.829.694.694,0,0,0,.366-.491,6.243,6.243,0,0,1,11.7-2.712.488.488,0,0,0,.607.274,4.463,4.463,0,0,1,4.269,1.608,1.178,1.178,0,0,0,.606.4,5.451,5.451,0,0,1,4.518,4.7,1.27,1.27,0,0,0,.4.7,4.056,4.056,0,0,1,1.208,4.394,3.967,3.967,0,0,1-3.727,2.677c-.953.015-1.907.009-2.861,0-.621,0-.957-.3-.957-.814s.345-.823.953-.831c.9-.012,1.8,0,2.7,0a2.356,2.356,0,0,0,2.376-1.676,2.326,2.326,0,0,0-1.088-2.7,1.2,1.2,0,0,1-.638-1.117,3.685,3.685,0,0,0-3.509-3.737,1.24,1.24,0,0,1-1.06-.641,2.845,2.845,0,0,0-3.343-1.242c-1.08.318-1.243.238-1.7-.825a4.593,4.593,0,0,0-8.794,2.014c.042,1.024-.081,1.194-1.062,1.464a2.824,2.824,0,0,0-2.218,2.841,1.139,1.139,0,0,1-.691,1.132,2.345,2.345,0,0,0,1.112,4.481q6.714.006,13.427,0a5,5,0,0,1,.55.008.827.827,0,0,1,.8.879.8.8,0,0,1-.851.757c-1.228.013-2.456,0-3.833,0a21.465,21.465,0,0,1,4.786,13.464c.574,0,1.1,0,1.626,0a2.6,2.6,0,0,1,2.788,2.782,10.809,10.809,0,0,1-.066,2.194,5.811,5.811,0,0,1-4.354,4.553.911.911,0,0,0-.674.653c-2.719,7.217-7.6,12.166-15.145,14.23a11.9,11.9,0,0,1-7.98-.966c-.655-.281-1.289-.617-1.919-.952-.686-.365-.887-.825-.608-1.3.268-.457.743-.511,1.389-.147a16.753,16.753,0,0,0,4.587,1.8,10.538,10.538,0,0,0,7-.984,20.406,20.406,0,0,0,11.287-12.857,14.725,14.725,0,0,0,.408-3.477c.065-1.262.012-2.531.008-3.8a.675.675,0,0,0-.04-.143c-.392-.079-.8-.152-1.212-.248a9.109,9.109,0,0,1-4.458-2.583c-.347-.353-.709-.692-1.054-1.047a2.821,2.821,0,0,0-2.928-.765c-1.347.348-2.709.649-4.039,1.056a10.507,10.507,0,0,1-6.171-.074c-1.247-.364-2.513-.666-3.772-.989a2.81,2.81,0,0,0-2.881.755q-.755.762-1.537,1.5a8.86,8.86,0,0,1-4.776,2.308c-.108.018-.216.039-.323.063a.78.78,0,0,0-.141.076c.035,3.346-.411,6.773,1.366,9.927.294-.384.568-.789.889-1.152a1.549,1.549,0,0,1,2.592-.014,14.156,14.156,0,0,1,3.027,6.095,4.1,4.1,0,0,1-1.823,4.242,4.71,4.71,0,0,1-5.095-.08,4.01,4.01,0,0,1-1.666-4.3,13.1,13.1,0,0,1,.878-2.534,1.025,1.025,0,0,0-.029-.918c-.409-.919-.794-1.85-1.135-2.8a.81.81,0,0,0-.624-.571,5.75,5.75,0,0,1-4.355-4.482,9.678,9.678,0,0,1-.043-2.9,2.515,2.515,0,0,1,2.542-2.15c.583-.019,1.168,0,1.812,0a23.149,23.149,0,0,1,2.449-9.966,4.088,4.088,0,0,1-1.094-6.095c-.2-.011-.374-.029-.547-.03-1.963,0-3.926.017-5.888-.006a3.864,3.864,0,0,1-3.49-5.768,1.517,1.517,0,0,1,.343-.493,1.854,1.854,0,0,0,.654-1.75,4.56,4.56,0,0,1,4.4-4.538.8.8,0,0,0,.554-.3,5.283,5.283,0,0,1,3.695-2.612c.048-.009.09-.055.135-.083Zm-1.148,31.448a1.884,1.884,0,0,0,.275.04,2.46,2.46,0,0,0,.327-.04,7.278,7.278,0,0,0,3.613-1.867c.544-.518,1.074-1.052,1.621-1.567a4.258,4.258,0,0,1,4.071-1.078c1.249.282,2.5.571,3.722.958a9.778,9.778,0,0,0,6.1.026c1.115-.356,2.262-.608,3.4-.906a4.569,4.569,0,0,1,4.745,1.233c.436.445.882.881,1.333,1.312a7.115,7.115,0,0,0,3.177,1.779c.308.08.626.122,1.048.2-.128-1.125-.2-2.146-.365-3.153a17.7,17.7,0,0,0-4.78-9.873,1.177,1.177,0,0,0-.748-.323c-1.907-.027-3.814-.016-5.721-.013-.159,0-.319.02-.472.031a4.151,4.151,0,0,1-4.5,3.933c-4.6-.082-9.2-.017-13.807-.036a.786.786,0,0,0-.831.517,18.854,18.854,0,0,0-1.71,5.142C1890.72,282.619,1890.6,283.853,1890.437,285.085Zm16.9-19.85a2.968,2.968,0,0,0-2.059-.554c-.844.091-1.016-.011-1.38-.813a3.68,3.68,0,0,0-6.8.033c-.335.756-.537.878-1.346.78a2.976,2.976,0,0,0-3.257,3.539,1.514,1.514,0,0,1-.592,1.72,2.276,2.276,0,0,0-.839,2.68,2.338,2.338,0,0,0,2.4,1.48h7.752c2.181,0,4.361.009,6.542,0a2.17,2.17,0,0,0,2.275-2.257A4.078,4.078,0,0,1,1907.34,265.235Zm-8.789-4.917a2.845,2.845,0,0,0-3-2.011c-.88.1-1.064-.006-1.406-.773a3.6,3.6,0,0,0-6.652-.01c-.343.773-.534.882-1.4.784a2.91,2.91,0,0,0-3.147,3.415,1.539,1.539,0,0,1-.591,1.768,2.19,2.19,0,0,0-.808,2.587,2.22,2.22,0,0,0,2.288,1.452c2.144.006,4.289,0,6.433,0,.159,0,.318-.023.44-.032.045-.056.065-.07.066-.085a4.7,4.7,0,0,1,4.633-4.409.475.475,0,0,0,.36-.164A5.506,5.506,0,0,1,1898.551,260.318Zm-4.505,36.32a13.052,13.052,0,0,0-2.682,5.6,2.27,2.27,0,0,0,1.211,2.453,2.913,2.913,0,0,0,3.13-.106,2.331,2.331,0,0,0,1.027-2.547A13.5,13.5,0,0,0,1894.046,296.637Zm-5.184-9.69c-.707,0-1.347-.041-1.979.012a.858.858,0,0,0-.806.946c-.01.623-.021,1.247.006,1.869a4,4,0,0,0,2.778,3.241Zm36.588,6.155a4.247,4.247,0,0,0,2.736-3.063,9.814,9.814,0,0,0,.031-2.3.775.775,0,0,0-.735-.769c-.651-.045-1.307-.012-2.032-.012Z" transform="translate(-1879.74 -253.637)" fill="#fff"/>
        <path id="Trazado_128007" data-name="Trazado 128007" d="M1933.153,350.108a5.731,5.731,0,0,1,3.956,1.522c.451.419.516.87.193,1.252s-.814.38-1.3-.03a3.957,3.957,0,0,0-5.474.005c-.471.4-.919.418-1.261.057-.359-.38-.3-.847.168-1.289A5.642,5.642,0,0,1,1933.153,350.108Z" transform="translate(-1905.853 -304.738)" fill="#fff"/>
        <path id="Trazado_128008" data-name="Trazado 128008" d="M1950.646,334.926a3.7,3.7,0,0,1-2.511-.934.829.829,0,0,1-.207-1.2.842.842,0,0,1,1.259-.064,2.14,2.14,0,0,0,2.9.008.83.83,0,1,1,1.064,1.255A3.682,3.682,0,0,1,1950.646,334.926Z" transform="translate(-1915.765 -295.397)" fill="#fff"/>
        <path id="Trazado_128009" data-name="Trazado 128009" d="M1918.841,334.924a3.6,3.6,0,0,1-2.458-.973.824.824,0,0,1-.132-1.212.841.841,0,0,1,1.183-.05,2.143,2.143,0,0,0,2.987.007.825.825,0,0,1,1.214.084.813.813,0,0,1-.155,1.17A3.758,3.758,0,0,1,1918.841,334.924Z" transform="translate(-1898.969 -295.396)" fill="#fff"/>
        <path id="Trazado_128010" data-name="Trazado 128010" d="M1954.111,273.367c-.244.229-.452.573-.74.663a1.677,1.677,0,0,0-1.235.946.713.713,0,0,1-1.027.33.762.762,0,0,1-.452-.946,2.771,2.771,0,0,1,2.534-1.921A1.056,1.056,0,0,1,1954.111,273.367Z" transform="translate(-1917.29 -263.595)" fill="#fff"/>
        <path id="Trazado_128011" data-name="Trazado 128011" d="M1912.707,282.814a.858.858,0,0,1-.936-1.053,2.863,2.863,0,0,1,2.447-1.841.779.779,0,0,1,.8.694.734.734,0,0,1-.551.894,1.714,1.714,0,0,0-1.256.95C1913.118,282.648,1912.818,282.74,1912.707,282.814Z" transform="translate(-1896.691 -267.558)" fill="#fff"/>
        <path id="Trazado_128012" data-name="Trazado 128012" d="M1890.486,268.854a2.734,2.734,0,0,1,1.812-2.367.815.815,0,0,1,1.051.443.743.743,0,0,1-.357,1.027,1.543,1.543,0,0,0-.924,1.185.714.714,0,0,1-.948.52A.775.775,0,0,1,1890.486,268.854Z" transform="translate(-1885.432 -260.418)" fill="#fff"/>
      </g>
    </g>
  </g>
</svg>
