<svg xmlns="http://www.w3.org/2000/svg" width="85" height="85" viewBox="0 0 85 85">
  <g id="Grupo_135061" data-name="Grupo 135061" transform="translate(-1071.666 -1561)">
    <circle id="Elipse_4937" data-name="Elipse 4937" cx="42.5" cy="42.5" r="42.5" transform="translate(1071.666 1561)" fill="#133d60"/>
    <g id="DJZvsd" transform="translate(-535.16 1129.941)">
      <g id="Grupo_134968" data-name="Grupo 134968" transform="translate(1620.826 444.058)">
        <path id="Trazado_128030" data-name="Trazado 128030" d="M1737.153,579.119a13.236,13.236,0,0,1-2.325-1.029,5.159,5.159,0,0,1-1.732-6.417,5.27,5.27,0,1,1,5.805,7.344,1.475,1.475,0,0,0-.257.1Zm4.292-5.21a3.548,3.548,0,1,0-3.642,3.486A3.548,3.548,0,0,0,1741.445,573.91Z" transform="translate(-1689.343 -520.37)" fill="#fff"/>
        <path id="Trazado_128031" data-name="Trazado 128031" d="M1634.281,458.421c.7-1.418,1.393-2.793,2.058-4.179a.532.532,0,0,0-.122-.433c-.409-.5-.847-.985-1.265-1.482a4.829,4.829,0,0,1-.522-5.659c.15-.266.33-.517.461-.791a3.586,3.586,0,0,1,6.157-.128c.536.986,1.213,1.895,1.86,2.892a15.2,15.2,0,0,1,12.1,0,19.245,19.245,0,0,0,1.522-2.379,3.716,3.716,0,0,1,6.855.156,5.917,5.917,0,0,1,.643,3.856,5.632,5.632,0,0,1-1.442,2.5c-.372.409-.932.815-1,1.281-.06.422.461.911.677,1.392.438.972.844,1.958,1.294,3.01a6.724,6.724,0,0,1,7.724,6.81c3.475.774,5.659,2.826,5.8,6.461.128,3.365-1.718,5.531-4.833,6.654a6.738,6.738,0,0,1-8.942,7.9c-.058.153-.121.306-.174.462a6.628,6.628,0,0,1-7.664,4.413.559.559,0,0,0-.728.3,6.632,6.632,0,0,1-11.477-.031c-.128-.212-.2-.426-.553-.332a6.652,6.652,0,0,1-8.038-4.694.586.586,0,0,0-.084-.122,6.717,6.717,0,0,1-8.9-7.888c-3.313-1.217-5.171-3.557-4.823-7.14.327-3.372,2.474-5.279,5.738-5.969A6.771,6.771,0,0,1,1634.281,458.421Zm-.345,1.769a4.893,4.893,0,0,0-5.523,5.5c.142.953-.143,1.289-1.125,1.321a4.919,4.919,0,0,0-.66,9.769c1.061.179,1.282.564.908,1.588a4.766,4.766,0,0,0,.111,3.682,4.924,4.924,0,0,0,6.994,2.279c.888-.492,1.438-.22,1.547.764a4.926,4.926,0,0,0,6.78,4.128c.757-.285,1.131-.146,1.415.553a4.938,4.938,0,0,0,9.259.037.9.9,0,0,1,1.324-.585,4.937,4.937,0,0,0,6.8-4.254,1.142,1.142,0,0,1,.568-.808,1.433,1.433,0,0,1,1,.207,4.939,4.939,0,0,0,7.014-6.12c-.326-.866-.068-1.3.842-1.456.15-.026.3-.04.451-.076a4.924,4.924,0,0,0-1.015-9.707c-.976-.033-1.258-.369-1.117-1.329a4.942,4.942,0,0,0-2.771-5.084,4.641,4.641,0,0,0-2.9-.4c.015.157.032.269.036.381.036,1.107.093,2.214.093,3.321a.791.791,0,0,1-.84.828.824.824,0,0,1-.848-.828c-.024-.247,0-.5-.015-.745a25.746,25.746,0,0,0-.245-3.193,13.288,13.288,0,0,0-26.179.3c-.157,1.13-.1,2.288-.2,3.427a1.443,1.443,0,0,1-.411.929c-.547.436-1.268-.012-1.284-.784C1633.917,462.643,1633.935,461.442,1633.935,460.19Zm7.363-10.864c-.593-.914-1.2-1.884-1.843-2.833a1.825,1.825,0,0,0-2.631-.31,4.58,4.58,0,0,0-1.346,2.841c-.078,1.637,1.13,2.522,1.962,3.537Zm19.233,3.276a16.581,16.581,0,0,0,1.613-2.19c.828-1.586-.061-3.182-1.13-4.295a1.792,1.792,0,0,0-2.437.233c-.7.993-1.34,2.033-1.955,2.976Z" transform="translate(-1620.826 -444.058)" fill="#fff"/>
        <path id="Trazado_128032" data-name="Trazado 128032" d="M1663.924,512.591c-.889,0-1.766-.04-2.638.008a3.257,3.257,0,0,1-3.622-3.54c.023-.345-.086-.5-.446-.575a3.076,3.076,0,0,1-2.529-2.985,9.233,9.233,0,0,1,.007-1.2.785.785,0,0,1,.816-.791.807.807,0,0,1,.868.8c.029.284.013.573.018.859a1.5,1.5,0,0,0,1.694,1.69c1.586.007,3.172,0,4.758,0a2.576,2.576,0,0,1,2.837,2.79c.011.993-.006,1.987.005,2.98a1.491,1.491,0,0,0,1.7,1.683q2.322.01,4.644,0a1.479,1.479,0,0,0,1.679-1.645c.014-1.012-.005-2.025.007-3.038a2.569,2.569,0,0,1,2.8-2.77c1.586,0,3.172,0,4.758,0a1.508,1.508,0,0,0,1.733-1.711,8.023,8.023,0,0,1,.033-.972.837.837,0,0,1,1.657.007c.185,1.8-.1,3.761-2.611,4.353a.6.6,0,0,0-.326.411c-.078.429-.033.884-.14,1.3a3.13,3.13,0,0,1-3.094,2.341c-1.009.018-2.018,0-3.039,0-.056.39-.076.735-.159,1.064a3.122,3.122,0,0,1-3.019,2.367c-1.738.033-3.478.036-5.216,0a3.121,3.121,0,0,1-3.111-2.927C1663.974,512.944,1663.951,512.795,1663.924,512.591Zm.012-1.732c.014-.223.031-.374.032-.525,0-.306.014-.613-.012-.916a.818.818,0,0,0-.894-.836c-.573-.016-1.147,0-1.72-.005h-1.958c0,.3-.006.506,0,.715a1.416,1.416,0,0,0,1.348,1.555C1661.778,510.9,1662.827,510.859,1663.936,510.859Zm16.038-2.275c-1.277,0-2.517-.031-3.754.026a.927.927,0,0,0-.687.549,9.552,9.552,0,0,0-.032,1.713h2.567C1679.647,510.87,1680.191,510.239,1679.974,508.584Z" transform="translate(-1641.571 -480.465)" fill="#fff"/>
        <path id="Trazado_128033" data-name="Trazado 128033" d="M1666.454,488.492a14.4,14.4,0,0,1,.8-2.215,1.356,1.356,0,0,1,1.913-.59q2.3.883,4.589,1.769c.742.288.884.5.866,1.283a4.006,4.006,0,1,1-8.01-.191Zm2.034-1.217a12.657,12.657,0,0,0-.134,1.59,2.164,2.164,0,0,0,1.566,1.978,2.189,2.189,0,0,0,2.4-.649c.767-.828.686-1.182-.334-1.577C1670.868,488.186,1669.752,487.76,1668.488,487.274Z" transform="translate(-1648.791 -469.471)" fill="#fff"/>
        <path id="Trazado_128034" data-name="Trazado 128034" d="M1707.469,488.549a4.005,4.005,0,0,1-8.007.25c-.031-.828.1-1.039.865-1.335q2.292-.89,4.586-1.774a1.376,1.376,0,0,1,1.948.634,13.951,13.951,0,0,1,.756,2.175Zm-2.018-1.215c-1.292.5-2.548.994-3.818,1.452-.415.15-.458.345-.3.721a2.3,2.3,0,0,0,3.082,1.247A2.453,2.453,0,0,0,1705.45,487.334Z" transform="translate(-1669.019 -469.474)" fill="#fff"/>
        <path id="Trazado_128035" data-name="Trazado 128035" d="M1690.362,506.712a4.991,4.991,0,0,1-1.14-.021c-.3-.072-.7-.269-.794-.511a1.362,1.362,0,0,1,.19-.976,3.584,3.584,0,0,1,.74-.789,1.393,1.393,0,0,1,2-.025,3.65,3.65,0,0,1,.779.83,1.326,1.326,0,0,1,.169.981c-.1.24-.505.423-.808.493A5.154,5.154,0,0,1,1690.362,506.712Z" transform="translate(-1662.238 -480.782)" fill="#fff"/>
        <path id="Trazado_128036" data-name="Trazado 128036" d="M1688.537,519.284c0,.324.022.65-.005.971a.821.821,0,0,1-.875.792.785.785,0,0,1-.819-.788c-.038-.684-.032-1.372,0-2.057a.849.849,0,0,1,1.7,0C1688.563,518.558,1688.537,518.922,1688.537,519.284Z" transform="translate(-1661.268 -489.009)" fill="#fff"/>
        <path id="Trazado_128037" data-name="Trazado 128037" d="M1695.728,519.227c0-.343-.025-.688.006-1.029a.85.85,0,0,1,1.7,0c.03.685.03,1.373,0,2.057a.85.85,0,0,1-1.695-.005C1695.7,519.916,1695.728,519.57,1695.728,519.227Z" transform="translate(-1666.727 -489.009)" fill="#fff"/>
      </g>
    </g>
  </g>
</svg>
