<svg xmlns="http://www.w3.org/2000/svg" width="58.461" height="60" viewBox="0 0 58.461 60">
  <g id="Grupo_133909" data-name="Grupo 133909" transform="translate(0.001)">
    <ellipse id="Elipse_4912" data-name="Elipse 4912" cx="29.231" cy="30" rx="29.231" ry="30" transform="translate(-0.001)" fill="#d2f3e8"/>
    <g id="QCah59" transform="translate(-3957.203 -219.912)">
      <g id="Grupo_134901" data-name="Grupo 134901" transform="translate(3963.202 233.912)">
        <path id="Trazado_127775" data-name="Trazado 127775" d="M3998.147,245.651a2.209,2.209,0,0,1,1.373-1.255c.821-.347,1.632-.718,2.438-1.1a2.073,2.073,0,0,1,1.865.006c.765.36,1.529.725,2.313,1.038a2.089,2.089,0,0,1,1.578,1.911c.523,0,1.015.005,1.505,0,.346,0,.623.109.7.466s-.156.573-.478.679c-.7.231-1.4.454-2.172.7,0,.531,0,1.127,0,1.723a.358.358,0,0,0,.087.2c.773.943.541,1.661-.636,1.9a4.123,4.123,0,0,1-1.873,3.367.428.428,0,0,0-.162.3c-.018.429-.007.859-.007,1.174.5.273.927.52,1.368.735a1.172,1.172,0,0,0,.487.073,2.465,2.465,0,0,1,2.665,2.683c0,1.4-.015,2.8.009,4.2.008.447-.142.588-.583.586-2.956-.014-5.911-.007-8.867-.007h-35.791c-.768,0-.768,0-.768-.751q0-2.98,0-5.959a3.151,3.151,0,0,1,2.7-3.333c.123-.026.291-.093.334-.189a8.617,8.617,0,0,1,2.673-3.183,5.539,5.539,0,0,1-1.388-2.473,5.378,5.378,0,0,1-.1-2.851c-.792-.015-1.384-.268-1.555-1.063a1.306,1.306,0,0,1,.744-1.469,2.015,2.015,0,0,1-.642-1.878c.017-1.108,0-2.217,0-3.326a2.459,2.459,0,0,1,2.569-2.641.48.48,0,0,0,.49-.3,3.087,3.087,0,0,1,3.488-1.63c1.13.229,2.256.477,3.387.7a2.108,2.108,0,0,1,1.8,1.738.58.58,0,0,0,.247.334,3.462,3.462,0,0,1,1.816,3.247c-.016,1.031-.013,2.063-.019,3.095,0,.527-.105.622-.631.543-.242-.036-.478-.111-.716-.168l-.057.12a.933.933,0,0,0,.286.116,1.208,1.208,0,0,1,1.237,1.074,1.285,1.285,0,0,1-.87,1.41,4.457,4.457,0,0,1-.641.1,6.32,6.32,0,0,1-1.41,5.276,27.763,27.763,0,0,1,2.037,2.4,2.4,2.4,0,0,0,1.518,1.258,5.124,5.124,0,0,1,1.41.856,3.048,3.048,0,0,0,1.432-1.347,9.459,9.459,0,0,1,1.811-2,5.674,5.674,0,0,1,1.5-.663s.019-.108-.019-.137c-.623-.464-1.2-1.042-2.1-.811a4.5,4.5,0,0,1-.458.049,1.648,1.648,0,0,1-1.853-.9,4.253,4.253,0,0,0-1.508-1.689,1.59,1.59,0,0,1-.382-2.351,1.386,1.386,0,0,0,.165-1.506,1.708,1.708,0,0,1,.862-2.468,1.3,1.3,0,0,0,.785-1.335,5.906,5.906,0,0,1,0-.693,1.608,1.608,0,0,1,1.115-1.593,10.635,10.635,0,0,0,2.525-1.289,4.105,4.105,0,0,1,4.543-.131,4.773,4.773,0,0,0,2.223.622c.215.011.428.044.642.072a1.5,1.5,0,0,1,1.337,1.107c.19.6.367,1.206.524,1.816a1.252,1.252,0,0,0,.765.915c.185.076.362.17.541.258a1.615,1.615,0,0,1,1.023,1.861C3997.283,244.911,3997.283,244.911,3998.147,245.651Zm-14.083,1.715c-.98-.091-1.494-.57-1.462-1.317.032-.731.542-1.147,1.426-1.162v-.865c-.191,0-.344,0-.5,0-.215,0-.493.024-.454-.289.013-.1.273-.226.434-.254a7.5,7.5,0,0,1,.783-.016.987.987,0,0,0,1-.863.491.491,0,0,1-.18-.021c-.141-.079-.273-.174-.409-.262a1.5,1.5,0,0,1,.441-.277,4.866,4.866,0,0,1,.737-.019.756.756,0,0,0,.773-.708c.146-.9.48-1.186,1.381-1.194.169,0,.339,0,.508,0,.412.01.72-.1.81-.571.019-.1.2-.167.314-.249.073.118.233.273.2.347a2.057,2.057,0,0,1-.477.8c-.219.181-.46.328-.309.6a1.467,1.467,0,0,0,.617.589,1.959,1.959,0,0,0,.774.046c1.132,0,1.481.283,1.688,1.382a.755.755,0,0,0,.788.688c.323.011.647.018.969,0,.369-.021.5.146.479.5-.014.212,0,.425,0,.636.886.031,1.376.417,1.436,1.1.066.75-.353,1.173-1.435,1.427a5.861,5.861,0,0,1-.911,3.038,1.926,1.926,0,0,1,1.682-.346.994.994,0,0,0,1.318-.87,2.935,2.935,0,0,1,.939-1.693,1.082,1.082,0,0,0-.068-1.812,1.6,1.6,0,0,1-.572-1.437c.137-1.347.126-1.364-1.116-1.964-.041-.02-.083-.041-.125-.059a1.736,1.736,0,0,1-1.024-1.228c-.141-.535-.3-1.066-.451-1.6a1.072,1.072,0,0,0-1.167-.958,6.617,6.617,0,0,1-2.979-.794,3.469,3.469,0,0,0-3.885.221,8.482,8.482,0,0,1-2.487,1.263,1.119,1.119,0,0,0-.833,1.144c-.007.2-.013.4,0,.6a1.894,1.894,0,0,1-1.1,1.914,1.46,1.46,0,0,0-.679.744,1.851,1.851,0,0,0,.126,1.052,1.848,1.848,0,0,1-.114,1.762c-.6.911-.486,1.388.423,2.033a2.645,2.645,0,0,1,.924.925,1.821,1.821,0,0,0,2.4,1.243,2.842,2.842,0,0,1,.371-.049A5.472,5.472,0,0,1,3984.064,247.366Zm.563-3.4c0,1.215-.022,2.415,0,3.614a4.579,4.579,0,0,0,4.154,4.43,4.457,4.457,0,0,0,4.868-3.415,31.8,31.8,0,0,0,.282-4.289c-.272-.014-.421-.028-.571-.029-1.206-.01-1.509-.249-1.761-1.417a.767.767,0,0,0-.809-.669c-.338-.007-.677.008-1.015-.009a1.311,1.311,0,0,1-1.264-1.182c-.015-.117-.03-.233-.044-.342-.983-.1-1.061-.043-1.289.852a1.326,1.326,0,0,1-.939.988c-.118.038-.288.106-.316.2A1.885,1.885,0,0,1,3984.627,243.966Zm-6.818,2.043c0-.775-.013-1.621.006-2.466a1.419,1.419,0,0,0-.295-.878,3.219,3.219,0,0,1-.548-1.245,14.136,14.136,0,0,1-.083-2.069,1.565,1.565,0,0,0-.911-1.532,1.671,1.671,0,0,0-1.871.178,2.447,2.447,0,0,1-2.819.4c-.356.923-.363.9-1.408,1.231a.789.789,0,0,0-.475.533,1.871,1.871,0,0,1-1.444,1.874v3.978l.507.365c-.086.107-.156.283-.262.309-.364.088-.413.333-.376.632.039.318.253.435.552.435.354,0,.708,0,1.062,0a.737.737,0,0,0,.766-.708,1.316,1.316,0,0,1,1.509-1.317q1.108-.011,2.216,0a1.341,1.341,0,0,1,1.543,1.341c.05.342.215.617.551.65a7.527,7.527,0,0,0,1.517,0c.141-.015.338-.274.36-.441a.924.924,0,0,0-.23-.538,2.354,2.354,0,0,0-.388-.357Zm30.844,18.471c0-1.511,0-2.972,0-4.432a1.722,1.722,0,0,0-1.018-1.678,2.319,2.319,0,0,0-2.242.005,4.66,4.66,0,0,1-5.182.1,2.933,2.933,0,0,0-2.114-.244c-.3.042-.419.208-.415.538.018,1.646.008,3.292.008,4.939,0,.881,0,.881.9.781.024,0,.045-.038.092-.08,0-.423-.006-.869,0-1.314,0-.232-.078-.566.29-.562.334,0,.257.321.26.539.007.459,0,.918,0,1.407h6.935c0-.527-.023-1.033.014-1.534.011-.148.19-.284.293-.426.082.143.226.282.235.43.03.5.011,1,.011,1.534Zm-15.285-9.095a7.653,7.653,0,0,1-8.318.02,10.471,10.471,0,0,0,.358,2.434c.711,2.143,1.5,4.258,2.285,6.377a.565.565,0,0,0,.425.279c.753.028,1.508.029,2.26,0a.568.568,0,0,0,.419-.291q1.143-3.115,2.241-6.246A5.672,5.672,0,0,0,3993.368,255.386Zm5.866-7.173c0,1.291-.019,2.521,0,3.751a3.456,3.456,0,0,0,6.912-.038c.015-1.153,0-2.307,0-3.461a1.975,1.975,0,0,0-.032-.253Zm-21.822,7.313-.152-.123c-.223.158-.666-.244-.713.283a4.234,4.234,0,0,1-1.188,2.489c-.556.623-1,.6-1.463-.1-.333-.508-.664-1.017-1.021-1.565-.384.588-.724,1.118-1.073,1.642a.755.755,0,0,1-1.351.1,4.05,4.05,0,0,1-1.254-2.785h-.8a7.576,7.576,0,0,0,.2,1.312c.865,2.512,1.756,5.015,2.657,7.515a.5.5,0,0,0,.387.21c.8.02,1.6,0,2.4.016a.443.443,0,0,0,.5-.354c.767-2.14,1.565-4.27,2.312-6.417C3977.1,257.026,3977.228,256.266,3977.412,255.526Zm20.674-7.826a2.477,2.477,0,0,0-1.064,1.652,1.5,1.5,0,0,1-1.77,1.29,1.739,1.739,0,0,0-1.715.5,2.141,2.141,0,0,1-1.453.718c-.111,0-.222.1-.333.156.111.075.213.194.333.216a2.9,2.9,0,0,1,1.758.936c.568.678,1.057,1.423,1.578,2.14.08.109.125.285.228.328a3.264,3.264,0,0,1,1.917,2.086c.527-.043,1.011-.08,1.494-.125a.964.964,0,0,0,.347-.08c.413-.212.818-.439,1.3-.7,0-.331.01-.776-.007-1.22a.423.423,0,0,0-.157-.3,4.113,4.113,0,0,1-1.876-3.36c-1.162-.269-1.4-.961-.684-1.888a.443.443,0,0,0,.1-.242C3998.09,249.136,3998.086,248.463,3998.086,247.7Zm-32.164,7.884a2.527,2.527,0,0,0-2.149,2.4c-.035,2.138-.006,4.277,0,6.416,0,.025.027.051.048.087h5.039c-.084-.194-.145-.348-.216-.5-1.044-2.175-2.066-4.361-3.148-6.517-.42-.838-.151-1.216.665-1.147.018,0,.039-.033.053-.045Zm6.909-8.013-1.523.783c-.252,1-.543,1.232-1.713,1.224-.455,0-.91-.04-1.382-.062a4.376,4.376,0,0,0,2,2.382c0-.468-.026-.865.014-1.255.015-.151.179-.286.275-.428.088.137.245.271.253.413.031.518.012,1.039.012,1.592.665.356,1.349.736,2.048,1.085a.582.582,0,0,0,.455-.034c.5-.261,1-.537,1.481-.846a.658.658,0,0,0,.231-.455c.031-.429-.013-.863.021-1.291.013-.16.159-.31.244-.464.1.16.266.312.284.48a12.112,12.112,0,0,1,.014,1.246,3.829,3.829,0,0,0,1.966-2.45c-.327.03-.66.073-.994.087a7.753,7.753,0,0,1-1.014-.012,1.167,1.167,0,0,1-1-.718,4.231,4.231,0,0,1-.182-.651l-.073.113Zm6.705,8.736a.832.832,0,0,0,.137.031c.846.046.986.274.624,1.028q-1.165,2.431-2.331,4.862c-.064.133-.118.271-.2.464a9.192,9.192,0,0,1,1.1.013c.171.021.325.178.486.274a1.645,1.645,0,0,1-.507.255c-.365.04-.737,0-1.106.017-.108,0-.269.04-.311.114-.2.354-.363.726-.554,1.12h3.886v-.532c0-1.369,0-2.739,0-4.108,0-1.152-.1-2.319.721-3.261a2.349,2.349,0,0,0-1.661-.984Zm7.72-4.1c.081,1.248-.06,2.34-1.2,3.016a6.319,6.319,0,0,0,6.354-.052,2.826,2.826,0,0,1-1.206-2.973A5.5,5.5,0,0,1,3987.257,252.206Zm-18.911.652a7.263,7.263,0,0,0-1.658,2.332c-.186.422-.153.7.313.862a1.935,1.935,0,0,1,.528.277,1.239,1.239,0,0,1,.228.348c-.122.068-.241.19-.367.2-.485.023-.973.009-1.476.009a.768.768,0,0,0,.026.173q1.73,3.616,3.466,7.23c.042.087.136.2.211.209.355.022.712.01,1.125.01l-.206-.572q-1.053-2.9-2.108-5.8a7.191,7.191,0,0,1-.507-3.478C3968,254.067,3968.19,253.5,3968.346,252.858Zm11.541,4.035c-.551,0-1.023.016-1.492-.01-.138-.008-.271-.135-.405-.207a1.577,1.577,0,0,1,.28-.368,3.292,3.292,0,0,1,.61-.322.422.422,0,0,0,.25-.628,6.916,6.916,0,0,0-1.74-2.528c-.017.038-.032.054-.029.065a1.084,1.084,0,0,0,.052.171,5.688,5.688,0,0,1,.211,4.059c-.464,1.479-1.009,2.932-1.527,4.394-.347.98-.709,1.955-1.087,3a4.418,4.418,0,0,1,.648.005c.456.074.668-.129.859-.537,1.027-2.2,2.09-4.382,3.139-6.57C3979.724,257.268,3979.786,257.118,3979.886,256.893Zm1.469,7.589h2.536a10.414,10.414,0,0,1,.039-2.256,1.928,1.928,0,0,0-.2-1.454c-.542-1.034-1.054-2.084-1.567-3.133-.214-.437-.046-.739.409-.788.118-.013.237-.015.4-.025l-.262-.533a2.6,2.6,0,0,0-1.383,2.409q-.007,2.677,0,5.354C3981.329,264.192,3981.345,264.326,3981.355,264.482Zm15.74.025c0-2.151.047-4.269-.024-6.384a2.2,2.2,0,0,0-1.316-1.815l-.246.529c.976.064,1.081.25.658,1.112-.546,1.116-1.1,2.231-1.638,3.349a.664.664,0,0,0-.1.424,4.246,4.246,0,0,1,.068,2.784Zm-17.881-21.447c0-.347,0-.652,0-.958,0-.825-.145-1-.926-1.246-.118-.037-.2-.191-.3-.291.126-.081.258-.238.375-.227a5.055,5.055,0,0,1,.82.2,3.01,3.01,0,0,0-2.505-3.635c-.464-.107-.923-.237-1.39-.327a17.772,17.772,0,0,0-2.354-.394c-.937-.051-1.321.423-1.351,1.353a.469.469,0,0,0,.45.558,1.884,1.884,0,0,0,1.628-.448,2.25,2.25,0,0,1,2.547-.324,2.113,2.113,0,0,1,1.229,2.144c-.012.492-.016.985,0,1.477A2.1,2.1,0,0,0,3979.213,243.06Zm12.051,21.512c.476-.174.936.2,1.2-.353,1.053-2.168,2.119-4.33,3.177-6.5a1.987,1.987,0,0,0,.093-.324c-.507,0-.937.013-1.367-.009-.114-.006-.31-.118-.313-.189a.486.486,0,0,1,.185-.359c.212-.149.48-.22.681-.378a.536.536,0,0,0,.2-.434,5.9,5.9,0,0,0-1.575-2.4c-.022.053-.036.069-.032.081a1.315,1.315,0,0,0,.052.173,4.771,4.771,0,0,1,.293,3.026c-.321,1.229-.74,2.433-1.151,3.636C3992.265,261.849,3991.78,263.14,3991.264,264.572Zm-4.109-.1c-.068-.2-.118-.359-.174-.515-.675-1.881-1.356-3.759-2.023-5.642a6,6,0,0,1-.062-4.416c.017-.041,0-.1-.009-.23-.239.268-.439.46-.6.681a8.765,8.765,0,0,0-.654,1c-.488.909-.474.924.442,1.405.027.014.064.019.082.041.1.12.194.243.29.366-.147.079-.29.215-.442.227-.42.032-.844.011-1.327.011.109.227.179.377.253.525l2.971,5.94C3986.26,264.584,3986.26,264.584,3987.156,264.472Zm-10.027-28.043a1.426,1.426,0,0,0-1.116-1.163c-1.275-.274-2.552-.54-3.835-.767a2.485,2.485,0,0,0-2.724,1.5,1.285,1.285,0,0,0,.988,1.9c.495.107.591.03.6-.476a1.661,1.661,0,0,1,1.736-1.794,6.55,6.55,0,0,1,1.458.142C3975.18,235.958,3976.114,236.194,3977.129,236.428Zm-8.382.073a1.878,1.878,0,0,0-2.208,1.71c-.041,1.444-.022,2.891-.006,4.335a.9.9,0,0,0,.847.9c0-1,.006-2,0-3a2.668,2.668,0,0,1,.378-1.676,2.162,2.162,0,0,1,1.532-.865C3968.932,237.473,3968.538,237.108,3968.747,236.5Zm34.052,7.126c-.61.615-1.172,1.16-1.709,1.729a1.628,1.628,0,0,0-.418,1.485c.719-.17,1.4-.378,2.087-.481s1.394-.1,2.16-.147C4004.538,245.055,4003.484,244.524,4002.8,243.627Zm-27.838,9.338c-.515.292-.986.524-1.416.815a.854.854,0,0,1-1.048.006c-.539-.331-1.111-.607-1.685-.915a1.75,1.75,0,0,0,.432,1.7,11.443,11.443,0,0,0,1.539,1.065.3.3,0,0,0,.252-.025,8.584,8.584,0,0,0,1.143-.683A1.96,1.96,0,0,0,3974.96,252.965Zm-4.778,1.04a2.484,2.484,0,0,0-.137.235,3.187,3.187,0,0,0,.9,3.719.365.365,0,0,0,.354-.045c.4-.578.773-1.174,1.156-1.769a9.2,9.2,0,0,1-1.322-.884A9.007,9.007,0,0,1,3970.182,254.005Zm4.4,4.1a3.076,3.076,0,0,0,.978-4.1,8.352,8.352,0,0,1-.91,1.225,9.477,9.477,0,0,1-1.341.911Zm26.036-10.486c1.846,0,3.695.064,5.537-.027a16.5,16.5,0,0,0,2.739-.576,2.2,2.2,0,0,0,.387-.2c-1.949,0-3.765-.023-5.58.008A6.48,6.48,0,0,0,4000.615,247.619Zm-22.775.683c-.594,0-1.131.019-1.667,0a1.256,1.256,0,0,1-1.237-1.142c-.094-.687-.3-.869-.988-.877-.26,0-.519,0-.779,0,.032.866.383,1.316,1.095,1.344a.607.607,0,0,1,.679.675.677.677,0,0,0,.687.72,10.556,10.556,0,0,0,1.29-.005A1.01,1.01,0,0,0,3977.84,248.3Zm23.418,7.356c0,.443-.017.811.01,1.177a.46.46,0,0,0,.209.334,2.915,2.915,0,0,0,2.449-.006c.083-.037.192-.135.2-.209.019-.418.009-.837.009-1.305A4.088,4.088,0,0,1,4001.258,255.658Zm-28.728-9.379c-.339,0-.645-.012-.951,0a.749.749,0,0,0-.809.761,1.3,1.3,0,0,1-1.417,1.265c-.468.009-.936,0-1.448,0a1.083,1.083,0,0,0,.962.707c.337.02.676.012,1.014.008.559-.007.79-.189.87-.738a.686.686,0,0,1,.647-.655C3972.193,247.515,3972.483,247.176,3972.53,246.279Zm26.137,1.446c.421-.169.791-.292,1.133-.47a.537.537,0,0,0,.254-.4,2.637,2.637,0,0,1,.942-2.209,3.5,3.5,0,0,0,.266-.293,11,11,0,0,0-2.142.927,1.076,1.076,0,0,0-.433.717A14.58,14.58,0,0,0,3998.667,247.725Zm1.469,9.851-.01.177a4.04,4.04,0,0,0,5.282-.223,3.893,3.893,0,0,0-1.063.1,4.02,4.02,0,0,1-3.223.03A3.275,3.275,0,0,0,4000.135,257.576Zm-29.476-19.066c-2.677-.286-2.913.772-2.654,2.905a1.149,1.149,0,0,0,.813-1.109,1.189,1.189,0,0,1,1.193-1.263A.7.7,0,0,0,3970.659,238.51Zm36.486,7.721a1.223,1.223,0,0,0-.742-1.149c-.4-.192-.809-.368-1.215-.547-.341-.151-.685-.3-1.027-.446.52.688,1.214,1.219,1.287,2.142Zm-38.7,8.748c.359-.129.721-.145.844-.325a15.72,15.72,0,0,0,.833-1.569c.146-.276.2-.515-.149-.682-.146-.07-.279-.164-.423-.25A5.091,5.091,0,0,0,3968.441,254.979Zm7.785-2.76c-.092.054-.157.091-.221.13-.593.361-.587.386-.2.98a5.7,5.7,0,0,1,.533,1.007c.236.6.312.649.952.452A4.506,4.506,0,0,0,3976.226,252.219Zm10.433.464c-.245.133-.5.188-.606.345a13.488,13.488,0,0,0-.754,1.412c-.044.09-.033.3.017.325a.493.493,0,0,0,.371,0A1.867,1.867,0,0,0,3986.659,252.683Zm6.7,2.1c-.285-.551-.542-1.12-.871-1.644-.125-.2-.414-.3-.688-.483A1.731,1.731,0,0,0,3993.355,254.779Zm-8.828,7.6-.116.008a3.5,3.5,0,0,0,.107,1.928.326.326,0,0,0,.216.186c.263.023.529.009.858.009Zm8.411,2.134a3.462,3.462,0,0,0,.6-.007c.144-.029.34-.085.4-.192a2.538,2.538,0,0,0,.032-1.908Zm-14.582-18.859a.706.706,0,0,0,.919-.362.63.63,0,0,0-.149-.828.844.844,0,0,0-.577-.142c-.08.009-.169.273-.185.428C3978.336,245.051,3978.356,245.355,3978.356,245.657Zm-10.967,0c0-.312.02-.6-.008-.89-.015-.16-.109-.444-.171-.445-.209,0-.526.034-.6.169a1.109,1.109,0,0,0-.116.8C3966.6,245.649,3966.942,245.769,3967.39,245.661Zm16.677,1.024c0-.3.017-.577-.007-.848-.011-.132-.073-.337-.161-.366-.135-.046-.4-.022-.454.065a1.244,1.244,0,0,0-.233.761C3983.289,246.667,3983.621,246.8,3984.066,246.685Zm10.346.005a.634.634,0,0,0,.848-.415.615.615,0,0,0-.293-.791c-.311-.182-.543-.055-.554.3C3994.405,246.084,3994.413,246.388,3994.413,246.69Zm12.317,4.623c.37.02.555-.159.52-.489-.03-.281-.22-.408-.52-.319Zm-8.066-.822c-.4-.05-.556.138-.524.441a.411.411,0,0,0,.524.38Z" transform="translate(-3963.202 -233.912)" fill="#133d60"/>
        <path id="Trazado_127776" data-name="Trazado 127776" d="M4076.2,300.933c-.522-.247-.994-.445-1.436-.7-.108-.062-.115-.3-.168-.458.161.007.361-.046.477.029a1.76,1.76,0,0,0,2.251.02c.127-.083.342-.03.517-.04-.056.154-.067.389-.175.449C4077.206,300.489,4076.72,300.691,4076.2,300.933Z" transform="translate(-4050.177 -285.33)" fill="#133d60"/>
        <path id="Trazado_127777" data-name="Trazado 127777" d="M4089.406,282.106c-.035.043-.113.222-.208.233a.392.392,0,0,1-.315-.224c-.071-.328-.229-.557-.567-.562-.365-.006-.526.239-.6.583-.019.092-.186.153-.284.228-.081-.11-.226-.217-.232-.332a1.113,1.113,0,0,1,1.086-1.043A1.136,1.136,0,0,1,4089.406,282.106Z" transform="translate(-4060.02 -270.67)" fill="#133d60"/>
        <path id="Trazado_127778" data-name="Trazado 127778" d="M4068.813,282.068l-.2.263c-.114-.094-.3-.168-.329-.284-.09-.319-.242-.542-.588-.539s-.49.24-.579.553c-.031.109-.192.181-.294.27-.079-.113-.222-.224-.226-.34a1.108,1.108,0,0,1,2.215.078Z" transform="translate(-4043.934 -270.642)" fill="#133d60"/>
        <path id="Trazado_127779" data-name="Trazado 127779" d="M4014.343,274.833c-.486.055-.683.237-.776.58-.034.126-.2.217-.3.323-.077-.144-.227-.293-.219-.431a1.152,1.152,0,0,1,1.087-1.005,1.139,1.139,0,0,1,1.179.89c.025.168-.109.36-.17.541-.118-.128-.238-.255-.354-.386C4014.622,275.157,4014.458,274.965,4014.343,274.833Z" transform="translate(-4002.121 -265.445)" fill="#133d60"/>
        <path id="Trazado_127780" data-name="Trazado 127780" d="M3991.109,275.463a1.216,1.216,0,0,1,1.185-1.167,1.153,1.153,0,0,1,1.133,1.056c0,.127-.145.255-.224.382-.1-.094-.259-.172-.287-.284-.091-.355-.273-.6-.652-.591s-.544.269-.627.624a.387.387,0,0,1-.306.227C3991.226,275.688,3991.151,275.515,3991.109,275.463Z" transform="translate(-3984.992 -265.444)" fill="#133d60"/>
        <path id="Trazado_127781" data-name="Trazado 127781" d="M4138.789,319.989c-.441-.226-.834-.409-1.2-.631-.072-.043-.055-.234-.08-.357.136-.019.321-.105.4-.047a1.33,1.33,0,0,0,1.774.006c.083-.063.267.008.4.017-.026.136-.007.348-.085.395C4139.628,319.594,4139.231,319.77,4138.789,319.989Z" transform="translate(-4099.299 -300.298)" fill="#133d60"/>
        <path id="Trazado_127782" data-name="Trazado 127782" d="M4148.024,304.644a.9.9,0,0,1,.911.8c0,.123-.111.248-.171.373a2.559,2.559,0,0,1-.347-.214c-.137-.116-.254-.255-.379-.384a5.234,5.234,0,0,1-.382.391,2.244,2.244,0,0,1-.345.2c-.06-.111-.17-.222-.171-.333A.917.917,0,0,1,4148.024,304.644Z" transform="translate(-4106.822 -289.139)" fill="#133d60"/>
        <path id="Trazado_127783" data-name="Trazado 127783" d="M4132.367,304.7a.91.91,0,0,1,.907.813c0,.117-.135.233-.208.35a2.346,2.346,0,0,1-.312-.207c-.134-.123-.25-.264-.374-.4-.127.13-.246.269-.384.386a2.543,2.543,0,0,1-.346.211c-.062-.125-.182-.253-.175-.374A.9.9,0,0,1,4132.367,304.7Z" transform="translate(-4094.591 -289.186)" fill="#133d60"/>
        <path id="Trazado_127784" data-name="Trazado 127784" d="M4003.775,299.847a5.584,5.584,0,0,1-.8-.2c-.1-.04-.15-.219-.223-.335.12-.061.236-.167.358-.174.447-.026.9-.03,1.344-.018a1.047,1.047,0,0,1,.343.146c-.057.125-.085.322-.177.359A5.948,5.948,0,0,1,4003.775,299.847Z" transform="translate(-3994.08 -284.825)" fill="#133d60"/>
        <path id="Trazado_127785" data-name="Trazado 127785" d="M4007.27,312.319a4.3,4.3,0,0,1-.012.69c-.017.1-.161.252-.245.25a.361.361,0,0,1-.267-.235,12.652,12.652,0,0,1,0-1.427c.005-.09.179-.169.275-.253.082.094.218.18.235.285A4.278,4.278,0,0,1,4007.27,312.319Z" transform="translate(-3997.188 -294.371)" fill="#133d60"/>
      </g>
    </g>
  </g>
</svg>
