<svg xmlns="http://www.w3.org/2000/svg" width="401.058" height="270.511" viewBox="0 0 401.058 270.511">
  <g id="Grupo_135066" data-name="Grupo 135066" transform="translate(-589.516 -413.745)">
    <g id="Grupo_134389" data-name="Grupo 134389">
      <path id="Trazado_127578" data-name="Trazado 127578" d="M515.786,48.255c-7.048-2.81-12.694-7.133-19.117-10.652-25.044-13.724-62.852-13.321-86.192.918-10.3,6.281-17.934,14.842-29.64,19.72-20.483,8.533-47.161,7.46-66.363,17.8C303.023,82.2,300.818,88.978,300.3,98.59c-.684,12.568-6.433,24.9-16.307,35.105-10.5,10.852-25.733,19.6-31.982,32.088-3.839,7.676-3.9,16.135-2.792,24.349,3.382,25.051,23.89,49.085,58.81,57.274,15.706,3.684,32.681,3.888,48,8.388,9.292,2.73,17.614,6.94,26.466,10.37,35.814,13.878,80.876,13.984,115.7.272,10.263-4.041,19.771-9.218,30.956-11.8,10.179-2.352,21.19-2.421,31.62-4.181a80.568,80.568,0,0,0,40.657-19.374c11.053-9.675,12.517-22.88,19.9-34.232,4.814-7.4,12.352-13.671,17.71-20.864,13.036-17.508,15.62-43.065-1.128-60.574-12.242-12.8-34.888-19.2-46.222-32.408-2.867-3.343-4.9-7.013-7.679-10.393-6.229-7.581-16.282-13.552-27.787-16.507-13.152-3.378-27.954-2.936-40.241-7.769Z" transform="translate(340.923 403.627)" fill="#b3dcf5"/>
      <path id="Trazado_127579" data-name="Trazado 127579" d="M258.781,132.451a4.763,4.763,0,0,1-2.758-.064,4.055,4.055,0,0,1-1.838-1.953c-2.494-4.77-.634-10.7,2.282-15.226s6.857-8.428,9.013-13.358c1.819-4.166,2.261-8.85,4.246-12.938s6.445-7.652,10.793-6.322c9.752,2.98,6.7,23.268,3.92,30.334C280.529,122.87,268.937,130.522,258.781,132.451Z" transform="translate(343.079 411.225)" fill="#b3dcf5"/>
      <path id="Trazado_127580" data-name="Trazado 127580" d="M455.166,95.346c5-2.176,8.038-9.007,4.829-13.417-3.4-4.679-10.795-3.9-15.389-7.415-4.814-3.683-5.489-12.384-11.113-14.924-6.806-3.075-12.2,1.791-12.968,8.216C418.777,82.365,441.813,101.156,455.166,95.346Z" transform="translate(513.467 399.88)" fill="#b3dcf5"/>
    </g>
    <g id="Grupo_134388" data-name="Grupo 134388" transform="translate(556.558 313.912)">
      <g id="Grupo_134387" data-name="Grupo 134387" transform="translate(112.441 99.833)">
        <g id="Grupo_134386" data-name="Grupo 134386">
          <g id="Grupo_134385" data-name="Grupo 134385">
            <g id="Grupo_134362" data-name="Grupo 134362" transform="translate(19.881)">
              <path id="Trazado_127438" data-name="Trazado 127438" d="M174.08,351.236h72.813l-8.254,44.911H174.08Z" transform="translate(-138.648 -125.636)" fill="#38261f"/>
              <g id="Grupo_134360" data-name="Grupo 134360" transform="translate(0 6.711)">
                <g id="Grupo_134356" data-name="Grupo 134356" transform="translate(0.735 112.563)">
                  <path id="Trazado_127439" data-name="Trazado 127439" d="M162.728,305.731l-22.718-9.3,1.728-13.695c1.708-14.06.078-24.192,3.507-37.93l3.009-12.057,26.84,5.045-1.575,12.327a342.946,342.946,0,0,1-7.965,41.665Z" transform="translate(-135.887 -232.749)" fill="#f09a6d"/>
                  <path id="Trazado_127440" data-name="Trazado 127440" d="M135.481,338.6c-.52-11.576,2.134-23.6,4.057-34.887h0l22.72,8.371,0,.93a132.2,132.2,0,0,1-3.107,28.164Z" transform="translate(-135.415 -240.032)" fill="#f09a6d"/>
                </g>
                <g id="Grupo_134357" data-name="Grupo 134357" transform="translate(110.375 105.303)">
                  <path id="Trazado_127441" data-name="Trazado 127441" d="M297.653,293.576l10.192-9.682-6.005-12.861c-5.438-13.076-6.6-23.273-13.612-35.576l-6.151-10.8L257.6,236.76l4.842,11.445a342.808,342.808,0,0,0,18.914,37.969l3.972,6A8.1,8.1,0,0,0,297.653,293.576Z" transform="translate(-257.595 -224.659)" fill="#f09a6d"/>
                  <path id="Trazado_127442" data-name="Trazado 127442" d="M349.384,237.2l-12.638-10.743-27.376,23.933c-9.207,7.035-16.721,16.793-24.136,25.516h0l21.008,12.038.711-.6a132.144,132.144,0,0,0,19.593-20.47Z" transform="translate(-260.432 -224.843)" fill="#f09a6d"/>
                  <path id="Trazado_127443" data-name="Trazado 127443" d="M298.638,281.724c-.459-12.9,4.915-19.452,4.97-19.517l-.638-.538c-.23.273-5.635,6.833-5.164,20.084Z" transform="translate(-261.719 -228.458)" fill="#38261f"/>
                </g>
                <path id="Trazado_127444" data-name="Trazado 127444" d="M194.882,184.479,193.3,145.456l24.754-1,1.464,36.2a6.411,6.411,0,0,0,3.645,5.535c8.1,3.861,22.976,10.407,32.459,11.342,0,0-50.986,28.576-84.7,2.359,0,0,11.98-4,21.07-9.793A6.347,6.347,0,0,0,194.882,184.479Z" transform="translate(-138.325 -111.124)" fill="#f09a6d"/>
                <path id="Trazado_127445" data-name="Trazado 127445" d="M222.541,178.019s-13.841.4-20.182-9.633c0,0,3.747,14.834,20.365,14.163Z" transform="translate(-141.551 -113.58)" fill="#38261f" opacity="0.25" style="mix-blend-mode: multiply;isolation: isolate"/>
                <g id="Grupo_134358" data-name="Grupo 134358" transform="translate(0 79.299)">
                  <path id="Trazado_127446" data-name="Trazado 127446" d="M228.829,195.68l-.861.648a39.3,39.3,0,0,1-44.592,1.858h0s-17.513,6.206-24.819,8.279S134.6,272.092,134.6,272.092s8.644,3.283,29.775,7.655l1.669-22.416L159.9,344.393s57.327,12.643,92.628-2.706l-.826-83.278,1.383,13.822s10.568-1.041,29.509-10.448c0,0-13.739-43.441-18.5-50.121s-12.357-9.264-22.355-12.455C234.52,196.9,228.829,195.68,228.829,195.68Z" transform="translate(-134.596 -195.68)" fill="#436370"/>
                </g>
                <path id="Trazado_127447" data-name="Trazado 127447" d="M205.239,107.913c14.294-2.356,23.263,2.007,27.7,16.709.225.745.4,1.5.584,2.255.874,3.557,1.576,7.916.64,9.928,0,0,7.711,18.539-7.064,34.5-1.683,1.82-9.825.844-12.1.388-19.215-3.843-17.293-24.98-17.293-24.98-.431-1.278-7.559-1.767-7.967-3.089C185.811,130.931,187.777,110.792,205.239,107.913Z" transform="translate(-140.08 -107.312)" fill="#f09a6d"/>
                <g id="Grupo_134359" data-name="Grupo 134359" transform="translate(89.322 29.239)">
                  <path id="Trazado_127448" data-name="Trazado 127448" d="M234.134,151.5a15.771,15.771,0,0,0,4.825,11.581,34.447,34.447,0,0,0-.068-22.934c.037-.08.067-.169.1-.255A15.762,15.762,0,0,0,234.134,151.5Z" transform="translate(-234.134 -139.895)" fill="#f07c59"/>
                </g>
                <path id="Trazado_127449" data-name="Trazado 127449" d="M199.124,144.8a8,8,0,0,0-6.544,3.842c2.25.6,5.307,1.1,5.584,1.923,0,0-.771,8.573,3.628,15.792,3.469-1.438,5.979-5.6,5.979-10.507C207.771,149.747,203.9,144.8,199.124,144.8Z" transform="translate(-140.547 -111.159)" fill="#f07c59"/>
                <path id="Trazado_127450" data-name="Trazado 127450" d="M222.985,161.8a9.115,9.115,0,0,0,2.9-.539l-.318-.772c-.056.022-5.717,2.233-12.1-3.25l-.543.632C216.9,161.279,220.57,161.894,222.985,161.8Z" transform="translate(-142.635 -112.436)" fill="#38261f"/>
                <path id="Trazado_127451" data-name="Trazado 127451" d="M215.4,132.883c-1.215-1.214-7.16,1.49-7.4,1.638-1.843,1.13-1.16,2.382-.88,2.794.163.241.849-.148,2.559-.615,3.646-.993,5.23-.509,5.89-1.656A1.933,1.933,0,0,0,215.4,132.883Z" transform="translate(-142.003 -109.904)" fill="#9e4b20"/>
                <path id="Trazado_127452" data-name="Trazado 127452" d="M229.885,132.348c.678-1.25,5.277.115,5.486.214a2.348,2.348,0,0,1,1.491,2.574c-.077.237-.659-.013-2.016-.189-2.895-.376-3.983.276-4.686-.652A2.036,2.036,0,0,1,229.885,132.348Z" transform="translate(-144.361 -109.827)" fill="#9e4b20"/>
              </g>
              <path id="Trazado_127453" data-name="Trazado 127453" d="M212.448,144.207c.247.946.936,1.585,1.539,1.427s.892-1.052.644-2-.936-1.585-1.539-1.427S212.2,143.261,212.448,144.207Z" transform="translate(-142.577 -104.18)" fill="#38261f"/>
              <path id="Trazado_127454" data-name="Trazado 127454" d="M231.988,141.707c.247.943.892,1.592,1.442,1.447s.8-1.025.548-1.967-.892-1.591-1.441-1.447S231.742,140.764,231.988,141.707Z" transform="translate(-144.582 -103.927)" fill="#38261f"/>
              <path id="Trazado_127455" data-name="Trazado 127455" d="M232.254,124.082s9.98-15.871,2.032-18.267-21.359-7.258-34.164.266-16.32,16.748-18.23,19.635c-3.562,5.384,13.3,35.607,13.3,35.607l-.368-10.493,3.052-6.2.742-22.279s24.328,1.23,30.5-4.53A16.356,16.356,0,0,1,232.254,124.082Z" transform="translate(-139.4 -100.06)" fill="#9e4b20"/>
              <path id="Trazado_127456" data-name="Trazado 127456" d="M193.936,112.883c14.952-18.352,40.572-10.621,40.828-10.54l.248-.8c-.262-.083-26.418-7.975-41.723,10.81Z" transform="translate(-140.62 -99.833)" fill="#9e4b20"/>
              <g id="Grupo_134361" data-name="Grupo 134361" transform="translate(46.186 38.247)">
                <path id="Trazado_127457" data-name="Trazado 127457" d="M186.488,152.68c1.356,4.248,5.566,6.7,9.4,5.474s5.849-5.661,4.493-9.91-5.566-6.7-9.4-5.474S185.132,148.431,186.488,152.68Z" transform="translate(-186.065 -142.454)" fill="#f07c59"/>
                <path id="Trazado_127458" data-name="Trazado 127458" d="M193.366,153.444c.406-1.124,2.457-1.675,3.213-1.793l.529-.082-.208-.492a5.453,5.453,0,0,0-3.121-3.381,4.033,4.033,0,0,0-3.121.347l.433.713a3.243,3.243,0,0,1,2.441-.264,4.347,4.347,0,0,1,2.39,2.445c-.94.226-2.841.845-3.338,2.224Z" transform="translate(-186.536 -142.974)" fill="#38261f"/>
              </g>
              <rect id="Rectángulo_36010" data-name="Rectángulo 36010" width="0.833" height="24.47" transform="translate(114.668 138.387) rotate(-8.028)" fill="#6d74a6"/>
              <rect id="Rectángulo_36011" data-name="Rectángulo 36011" width="28.375" height="0.833" transform="translate(29.359 170.06) rotate(-87.575)" fill="#6d74a6"/>
              <path id="Trazado_127459" data-name="Trazado 127459" d="M201.595,118.96s6.037,24.182-1.753,25.583l-.251-21.3Z" transform="translate(-141.267 -101.796)" fill="#9e4b20"/>
              <path id="Trazado_127460" data-name="Trazado 127460" d="M199.527,160.3s11.531,12.25,18.5,4.56a10.953,10.953,0,0,0,4.752-.081s5.253,6.588,12.08,1.824c0,0-1.82,8.755-6.748,11.2S202.847,181.762,199.527,160.3Z" transform="translate(-141.26 -106.039)" fill="#9e4b20"/>
              <path id="Trazado_127461" data-name="Trazado 127461" d="M235.425,177.53l-.678-.586a11.493,11.493,0,0,0,2.433-7.812l.894-.088A12.241,12.241,0,0,1,235.425,177.53Z" transform="translate(-144.875 -106.936)" fill="#9e4b20"/>
              <path id="Trazado_127462" data-name="Trazado 127462" d="M202.687,172.824c-.127-.215-3.082-5.341-2.169-10.75l.885.149c-.859,5.092,2.03,10.1,2.059,10.148Z" transform="translate(-141.344 -106.221)" fill="#9e4b20"/>
              <path id="Trazado_127463" data-name="Trazado 127463" d="M213.441,149.2a5.862,5.862,0,1,1,5.862-5.862A5.869,5.869,0,0,1,213.441,149.2Zm0-10.828a4.965,4.965,0,1,0,4.965,4.965A4.971,4.971,0,0,0,213.441,138.372Z" transform="translate(-142.087 -103.696)" fill="#fff"/>
              <path id="Trazado_127464" data-name="Trazado 127464" d="M233.48,146.518a6.143,6.143,0,0,1-4.589-9.559,4.784,4.784,0,0,1,3.221-1.97c2.856-.4,5.642,1.836,6.212,4.99h0a5.939,5.939,0,0,1-.955,4.521,4.747,4.747,0,0,1-3.888,2.017Zm-.7-10.679a4.026,4.026,0,0,0-.547.039,3.894,3.894,0,0,0-2.618,1.607,5.031,5.031,0,0,0-.8,3.836c.484,2.685,2.814,4.6,5.2,4.261a3.887,3.887,0,0,0,2.618-1.607,5.033,5.033,0,0,0,.8-3.835h0A5.018,5.018,0,0,0,232.784,135.84Z" transform="translate(-144.166 -103.437)" fill="#fff"/>
              <path id="Trazado_127465" data-name="Trazado 127465" d="M227.673,151.354a11.016,11.016,0,0,0,3.429-3.193,1.027,1.027,0,0,0,.044-.975c-.678-1.459-5.075-2.348-5.95-2.512l-.153.818c2,.375,4.981,1.256,5.346,2.044a.2.2,0,0,1-.013.212,10.374,10.374,0,0,1-3.13,2.89Z" transform="translate(-143.879 -104.435)" fill="#38261f"/>
              <path id="Trazado_127466" data-name="Trazado 127466" d="M220.271,143.244l-.457-.773c.189-.112,4.669-2.713,7.934-.452l-.511.738C224.448,140.825,220.313,143.219,220.271,143.244Z" transform="translate(-143.342 -104.068)" fill="#fff"/>
              <rect id="Rectángulo_36012" data-name="Rectángulo 36012" width="0.897" height="7.368" transform="matrix(0.034, -0.999, 0.999, 0.034, 58.563, 40.8)" fill="#fff"/>
            </g>
            <g id="Grupo_134368" data-name="Grupo 134368" transform="translate(106.165 25.492)">
              <path id="Trazado_127467" data-name="Trazado 127467" d="M317.691,134.054c10.921,7.845,12.925,16.835,13.154,21.555.166,3.422-.935,4.719,0,7.89,1.845,6.259,7.7,6.51,12.332,13.148A25.7,25.7,0,0,1,347.369,188s-7.105,6.807-16.786,5.146S313,200.768,304.46,200.779s-20-6.844-29.037-5.886a18.051,18.051,0,0,1-14.723-5.169s10.829-18.692,12.309-28.411-1.279-32.06,16.1-32.369C301.306,128.73,317.691,134.054,317.691,134.054Z" transform="translate(-233.822 -128.313)" fill="#52261f"/>
              <path id="Trazado_127468" data-name="Trazado 127468" d="M357.4,187.212l.816-.214c-1.239-4.724-2.781-10.6-6.954-14.369a21.184,21.184,0,0,0-4.543-2.811c-2.785-1.421-5.664-2.892-6.473-5.777a10.468,10.468,0,0,1-.1-3.8c.028-.3.056-.607.078-.91.212-2.886-2.988-12.672-10.157-18.531-.743-.606-1.284-.925-1.686-.642-.451.317-.218.976.077,1.811.031.087.066.188.1.29-.089-.073-.192-.162-.311-.268l-.563.628c.755.677,1.238.993,1.63.731.426-.285.222-.863-.061-1.663-.06-.169-.142-.4-.2-.6.119.082.277.2.48.364,6.945,5.676,10.052,15.06,9.849,17.815-.022.3-.048.6-.076.895a11.261,11.261,0,0,0,.127,4.1c.909,3.242,3.956,4.8,6.9,6.3a20.262,20.262,0,0,1,4.361,2.685C354.678,176.854,356.185,182.6,357.4,187.212Z" transform="translate(-240.697 -129.454)" fill="#52261f"/>
              <path id="Trazado_127469" data-name="Trazado 127469" d="M256.238,186.841a59.376,59.376,0,0,0,14.65-23.915c.888-2.823,1.526-5.756,2.142-8.591a68.208,68.208,0,0,1,3.414-12.061l-.776-.328a68.713,68.713,0,0,0-3.462,12.21c-.613,2.817-1.246,5.73-2.122,8.517a58.536,58.536,0,0,1-14.443,23.572Z" transform="translate(-233.303 -129.648)" fill="#52261f"/>
              <path id="Trazado_127470" data-name="Trazado 127470" d="M317.7,157.162l.017-.844c-8.651-.175-16.464-4.147-20.39-10.365a17.549,17.549,0,0,1-1.041-16.509l-.768-.349a18.393,18.393,0,0,0,1.1,17.308C300.69,152.859,308.77,156.982,317.7,157.162Z" transform="translate(-237.224 -128.329)" fill="#52261f"/>
              <g id="Grupo_134363" data-name="Grupo 134363" transform="translate(99.093 107.914)">
                <path id="Trazado_127471" data-name="Trazado 127471" d="M355.046,315.526l20.506-9.379-2.094-12.506c-2.089-12.84-.969-22.2-4.626-34.683L363.474,248.5l-22.3,5.132,1.9,11.256a315.183,315.183,0,0,0,8.856,37.947Z" transform="translate(-341.175 -248.497)" fill="#c26c48"/>
              </g>
              <g id="Grupo_134364" data-name="Grupo 134364" transform="translate(4.155 113.486)">
                <path id="Trazado_127472" data-name="Trazado 127472" d="M259.08,320.194l-23.7-8.964.395-12.674c.343-13.005.1-19.7,2.04-32.564l1.708-11.286,24.982,2.287L264.13,268.4a314.927,314.927,0,0,1-3.674,38.793Z" transform="translate(-235.378 -254.707)" fill="#c26c48"/>
              </g>
              <path id="Trazado_127473" data-name="Trazado 127473" d="M306.83,129.267c-16.012-2.815-25.9,6.5-28.479,21.185,0,0-.5,10.192-.6,10.962-.013.1-6.081,16.32,7.607,30.877a5.183,5.183,0,0,0,3.068,1.275c23.951,3.965,25.082-19.645,25.082-19.645.395-1.175,10.363-12.823,10.583-14.075C326.675,145.164,322.842,132.082,306.83,129.267Z" transform="translate(-235.434 -128.295)" fill="#c26c48"/>
              <path id="Trazado_127474" data-name="Trazado 127474" d="M314.065,205.537V169.661H293.273v33.283a5.89,5.89,0,0,1-3.141,5.215c-7.295,3.844-20.7,10.4-29.372,11.614,0,0,47.857,24.337,77.825-.976,0,0-13.11-3.232-21.667-8.207A5.829,5.829,0,0,1,314.065,205.537Z" transform="translate(-233.828 -132.492)" fill="#c26c48"/>
              <path id="Trazado_127475" data-name="Trazado 127475" d="M292.209,133.127s-2.314,14.182,22.952,21.557c0,0-4.953,14.886-.729,16.4,0,0,16.475-.81,12.956-21.508s-19.873-22.64-31.092-20.8-17.326,8.722-17.365,20C278.932,148.779,284.611,135.187,292.209,133.127Z" transform="translate(-235.693 -128.241)" fill="#52261f"/>
              <path id="Trazado_127476" data-name="Trazado 127476" d="M292.485,184.634a8.714,8.714,0,0,1-3.108-.506l.327-.8c.211.086,5.228,2.037,11.062-2.981l.562.652A13.462,13.462,0,0,1,292.485,184.634Z" transform="translate(-236.765 -133.589)" fill="#38261f"/>
              <path id="Trazado_127477" data-name="Trazado 127477" d="M299.87,157.365c1.116-1.116,6.578,1.366,6.8,1.5,1.694,1.037,1.067,2.187.809,2.566-.15.221-.78-.136-2.351-.564-3.35-.912-4.8-.466-5.411-1.519A1.777,1.777,0,0,1,299.87,157.365Z" transform="translate(-237.803 -131.201)" fill="#52261f"/>
              <path id="Trazado_127478" data-name="Trazado 127478" d="M286.437,156.976c-.722-1.08-5.217.171-5.419.245-1.533.567-1.522,1.478-1.375,1.825.085.2.651.015,1.989-.08,2.851-.2,3.954.391,4.612-.363A1.46,1.46,0,0,0,286.437,156.976Z" transform="translate(-235.76 -131.145)" fill="#52261f"/>
              <path id="Trazado_127479" data-name="Trazado 127479" d="M296.992,200.368a23.42,23.42,0,0,0,15.987-10.162s-5.99,12.521-15.987,13.9Z" transform="translate(-237.547 -134.601)" fill="#38261f" opacity="0.25" style="mix-blend-mode: multiply;isolation: isolate"/>
              <g id="Grupo_134365" data-name="Grupo 134365" transform="translate(0 80.036)">
                <path id="Trazado_127480" data-name="Trazado 127480" d="M278.295,217.431h0a39.068,39.068,0,0,0,43.957,3.226l1.439-.835s12.07,3.072,18.854,4.7,24.428,59.346,24.428,59.346-7.812,3.335-27.045,8.132l-2.363-20.513,10.594,72.184s-61.375,13.506-94.345.728l3.034-76.059,1.373,20.052s-9.739-.564-27.473-8.5c0,0,9.994-44.747,14.116-51.055,2.812-4.3,8.648-6.26,14.254-7.434,2.61-.546,5.169-.922,7.351-1.288A98.813,98.813,0,0,0,278.295,217.431Z" transform="translate(-230.748 -217.431)" fill="#fff"/>
              </g>
              <path id="Trazado_127481" data-name="Trazado 127481" d="M289.061,176.161a4.04,4.04,0,0,1-2.514-2.6c-.283-1.394.511-2.962,2.361-4.663l.582.634c-1.587,1.459-2.314,2.792-2.1,3.854.27,1.342,1.945,1.961,1.961,1.967Z" transform="translate(-236.469 -132.414)" fill="#38261f"/>
              <g id="Grupo_134366" data-name="Grupo 134366" transform="translate(74.29 34.277)">
                <path id="Trazado_127482" data-name="Trazado 127482" d="M329.261,176.882c-1.036,4.739-5.347,7.821-9.627,6.885s-6.911-5.537-5.874-10.276,5.346-7.821,9.627-6.885S330.3,172.143,329.261,176.882Z" transform="translate(-313.534 -166.438)" fill="#c26c48"/>
                <path id="Trazado_127483" data-name="Trazado 127483" d="M322.894,178.346c-.558-1.186-2.846-1.578-3.681-1.629l-.55-.033.166-.525c.647-2.048,1.664-3.382,3.024-3.965a4.355,4.355,0,0,1,3.394.058l-.376.774a3.546,3.546,0,0,0-2.689-.039,4.769,4.769,0,0,0-2.362,2.931c1.027.145,3.171.615,3.852,2.06Z" transform="translate(-314.061 -166.996)" fill="#38261f"/>
              </g>
              <path id="Trazado_127484" data-name="Trazado 127484" d="M299.159,148.859c-4.073-2.495-6.433-5.495-7.017-8.914a12.319,12.319,0,0,1,2.468-9.071l.667.544c-.031.038-3.065,3.84-2.285,8.391.541,3.161,2.768,5.958,6.616,8.316Z" transform="translate(-237.035 -128.511)" fill="#52261f"/>
              <g id="Grupo_134367" data-name="Grupo 134367" transform="translate(40.972 36.404)">
                <path id="Trazado_127485" data-name="Trazado 127485" d="M316.8,178.229a44.444,44.444,0,0,0,0-7.744,9.961,9.961,0,0,0-3.668,19.222A26.855,26.855,0,0,0,316.8,178.229Z" transform="translate(-279.529 -168.981)" fill="#b35334"/>
                <path id="Trazado_127486" data-name="Trazado 127486" d="M276.924,168.809A31.171,31.171,0,0,0,278.237,185a9.948,9.948,0,0,0-1.314-16.193Z" transform="translate(-276.406 -168.809)" fill="#b35334"/>
              </g>
              <path id="Trazado_127487" data-name="Trazado 127487" d="M303.981,167.336c-.206,1.05-.868,1.8-1.48,1.683s-.94-1.068-.735-2.117.868-1.8,1.479-1.684S304.186,166.286,303.981,167.336Z" transform="translate(-238.031 -132.035)" fill="#38261f"/>
              <path id="Trazado_127488" data-name="Trazado 127488" d="M284.14,165.952c-.187.957-.791,1.643-1.348,1.534s-.858-.973-.67-1.929.791-1.643,1.348-1.535S284.327,165,284.14,165.952Z" transform="translate(-236.015 -131.912)" fill="#38261f"/>
              <path id="Trazado_127489" data-name="Trazado 127489" d="M301.424,130.864c-.586-.125,6.563-.481,13.058,2.172,8.31,3.4,13.044,10.741,12.538,11.327-.39.451-4.335-2.582-5.015-1.815-.468.527,1.046,2.359.692,2.68-.64.58-6.116-4.89-7-4.15-.391.325.47,1.552.086,1.9-.723.66-4.306-3.2-9.6-5.967-4.838-2.532-8.722-2.91-8.647-3.286.139-.691,13.115,1.541,13.23.951C310.862,134.167,307.088,132.074,301.424,130.864Z" transform="translate(-237.602 -128.501)" fill="#804430"/>
              <path id="Trazado_127490" data-name="Trazado 127490" d="M341.14,178.125c.433-.478,4.643,1.589,7.264,5.65,2.143,3.32,2.885,7.448,1.844,8.07-.877.524-2.276-1.882-4.381-1.5-2.041.372-2.135,2.89-4.15,3.228-1.791.3-2.344-1.582-4.612-1.613-2.508-.035-3.53,2.244-4.958,1.844-2.1-.59-3.306-5.144-2.19-6,.63-.48,1.774,1.541,3.574,1.269s2.029-2.416,3.689-2.537c1.595-.116,2.406,1.786,3.459,1.384,1.02-.39.628-2.32,1.96-3,.9-.457,1.636.136,1.96-.23C345.478,183.706,340.6,178.72,341.14,178.125Z" transform="translate(-240.887 -133.354)" fill="#804430"/>
              <path id="Trazado_127491" data-name="Trazado 127491" d="M321.427,182.886a2.456,2.456,0,1,1-2.456,2.456A2.456,2.456,0,0,1,321.427,182.886Z" transform="translate(-239.803 -133.849)" fill="#fff"/>
            </g>
            <g id="Grupo_134369" data-name="Grupo 134369" transform="translate(206.298 106.295)">
              <path id="Trazado_127492" data-name="Trazado 127492" d="M363.661,232.718a47.722,47.722,0,0,1-11.041-11.651l-.93,3.753Z" transform="translate(-343.294 -218.571)" fill="#f09a6d"/>
              <path id="Trazado_127493" data-name="Trazado 127493" d="M356.369,227.467s15.465,9.89,16.249,18-3.012,16.477-5.39,13.63.046-15.517.046-15.517Z" transform="translate(-343.774 -219.228)" fill="#f09a6d"/>
              <path id="Trazado_127494" data-name="Trazado 127494" d="M349.4,221.058s14.43,11.346,14.422,19.5-4.6,16.106-6.691,13.041,1.554-15.438,1.554-15.438Z" transform="translate(-343.059 -218.57)" fill="#f09a6d"/>
              <path id="Trazado_127495" data-name="Trazado 127495" d="M365.273,235.7s4.276,7.918,3.278,9.776-1.773,16.013-5.32,15.9-.98-10.7-.533-12.842-7.091-21.532-7.091-21.532Z" transform="translate(-343.696 -219.181)" fill="#f09a6d"/>
              <path id="Trazado_127496" data-name="Trazado 127496" d="M353.59,224.479c.465-2.784-5.45-7.463-9.133-5.871a3.656,3.656,0,0,0-2.1,2.419c-.389,2.867,4.711,6.953,8.583,5.758C351.172,226.714,353.334,226.018,353.59,224.479Z" transform="translate(-342.334 -218.286)" fill="#f09a6d"/>
              <path id="Trazado_127497" data-name="Trazado 127497" d="M363.3,252.651l-1.094-.5c2.135-4.7,4.264-10.05,4.2-11.007-.666-1.04-3.3-4.99-3.327-5.03l1-.667c.113.171,2.778,4.166,3.379,5.112C367.971,241.374,366.573,245.441,363.3,252.651Zm3.1-11.544Z" transform="translate(-344.373 -220.047)" fill="#38261f"/>
              <path id="Trazado_127498" data-name="Trazado 127498" d="M368.006,258.072l-1.138-.387c1.1-3.23,3.974-11.908,4.111-13.264.126-1.251-1.139-3.717-1.638-4.563l1.035-.609c.2.345,1.985,3.431,1.8,5.293C372,246.28,368.413,256.87,368.006,258.072Z" transform="translate(-344.852 -220.437)" fill="#38261f"/>
            </g>
            <g id="Grupo_134377" data-name="Grupo 134377" transform="translate(0 124.601)">
              <path id="Trazado_127499" data-name="Trazado 127499" d="M134.725,256.165l-1.2-.024c.152-7.257-8.6-9.956-8.691-9.984l.342-1.15C125.272,245.035,134.9,247.988,134.725,256.165Z" transform="translate(-113.713 -239.333)" fill="#38261f"/>
              <path id="Trazado_127500" data-name="Trazado 127500" d="M178.519,258.915c-2.164-2.224-3.677-5.525-3.181-8.136.908-4.79,4.017-9.908,8.109-11.55,4.158-1.669,9.49.671,11.953,4.625a11.091,11.091,0,0,1,.9,9.155c-2.122,6-9.167,8.169-13.8,7.556A6.388,6.388,0,0,1,178.519,258.915Z" transform="translate(-118.887 -238.685)" fill="#38261f"/>
              <path id="Trazado_127501" data-name="Trazado 127501" d="M188.75,241.935c-2.055-1.084-5.8,1.026-7.347,3.821-.759,1.368-1.1,3.1-.646,3.373.777.46,3.653-3.417,4.389-2.936.5.328-.724,2.206.118,3.3.76.984,2.46.367,2.844,1.171.45.943-1.5,2.588-1.251,2.87.267.3,2.171-1.853,5.126-2.3,1.851-.28,2.971.283,3.191-.172.324-.669-2.183-1.723-4.095-4.71C189.456,243.812,190,242.593,188.75,241.935Z" transform="translate(-119.431 -238.988)" fill="#523a2d"/>
              <path id="Trazado_127502" data-name="Trazado 127502" d="M135.536,263.828c.7-3.142.238-6.878-1.62-8.913-3.408-3.733-8.937-6.558-13.443-5.78-4.578.791-8.009,5.758-8.031,10.588a11.5,11.5,0,0,0,4.184,8.572c5.136,4.136,12.536,2.22,16.3-.844A6.628,6.628,0,0,0,135.536,263.828Z" transform="translate(-112.441 -239.744)" fill="#38261f"/>
              <path id="Trazado_127503" data-name="Trazado 127503" d="M160.713,303.548s-14.685-2.068-20.053,11.759c-4.7,12.094-7.568,51.557-7.568,51.557a67.505,67.505,0,0,0,49.215,1.631s-.564-22.806-1.779-37.534c-.565-6.841-.244-9.974-2.279-14.408a23.106,23.106,0,0,0-14.816-12.489Z" transform="translate(-114.56 -245.331)" fill="#fff"/>
              <g id="Grupo_134370" data-name="Grupo 134370" transform="translate(33.074 83.237)">
                <path id="Trazado_127504" data-name="Trazado 127504" d="M149.3,353.626a82.133,82.133,0,0,0,5.045,7.73c1.153,1.071,10.289.857,20.274-.791a57.018,57.018,0,0,0,17.949-6.427s12.141-3.355,12.876-4.548,2.529-4.9,2.982-5.869-2.18-4.682-2.18-4.682c-.123-5.166-1.715-7.949-2.782-7.562s-.739,5.619-1.587,7.053-5.56,3.239-5.56,3.239,3.932-7.677-1.659-3.642c-2.568,1.854-4.179,8.263-4.179,8.263l-27.924,2.319-1.389-2.374A18.635,18.635,0,0,1,149.3,353.626Z" transform="translate(-149.298 -331.441)" fill="#c26c48"/>
              </g>
              <path id="Trazado_127505" data-name="Trazado 127505" d="M187.995,270.2s3.772-4.78,5.743.072-1.028,9.517-5.805,9.047Z" transform="translate(-120.189 -241.703)" fill="#c26c48"/>
              <path id="Trazado_127506" data-name="Trazado 127506" d="M154.708,300.177l-.36,7.129c-.013.232.2.436.529.5,1.709.322,7.037,1.079,10.78-1.12a.446.446,0,0,0,.252-.478l-1.405-6.39Z" transform="translate(-116.742 -244.959)" fill="#c26c48"/>
              <path id="Trazado_127507" data-name="Trazado 127507" d="M154.631,302.282c2.021.125,4.088.155,6.194.078,1.422-.052,2.823-.155,4.2-.3l-.494-2.246-9.8.362Z" transform="translate(-116.771 -244.959)" fill="#38261f" opacity="0.25" style="mix-blend-mode: multiply;isolation: isolate"/>
              <path id="Trazado_127508" data-name="Trazado 127508" d="M184.674,269.5c-.476,13.169-9.484,24.83-23.872,26.15s-27.027-8.249-28.23-21.371,9.484-24.83,23.872-26.15S185.28,252.742,184.674,269.5Z" transform="translate(-114.498 -239.635)" fill="#c26c48"/>
              <path id="Trazado_127509" data-name="Trazado 127509" d="M184.493,264.553s.195-20.654-24.753-23.3c-15.809-1.676-26.654,7.443-27.744,23.364-.36,5.261,1.536,12.223,1.536,12.223,1.184-.314,4.718-5.145,2.348-11.2,0,0,8.04,2.142,13.492,1.415,12.776-1.7,18.808-8.109,20-12.682C176.292,259.278,179.06,262.793,184.493,264.553Z" transform="translate(-114.443 -238.928)" fill="#38261f"/>
              <path id="Trazado_127510" data-name="Trazado 127510" d="M136.4,260.116c-.423-.415.954-4.644,4.02-6,1.613-.715,2.03.1,3.9-.543,3.03-1.042,2.925-3.517,5.535-4.36,2.487-.8,3.206,1.24,5.962.491,2.771-.755,2.625-2.979,5.1-3.376,2.347-.375,3.3,1.5,6.177,1.24,1.9-.168,1.99-1.2,3.471-1.3,3.714-.239,7.155,5.308,6.712,5.967s-4.7-3.992-7.8-2.265c-1.514.844-1.714,2.631-3.039,2.671-1.582.048-2-2.476-3.682-2.68-1.808-.219-2.242,2.574-4.884,3.752-2.907,1.3-4.109-1.314-6.938-.261-3.557,1.324-3.857,6.273-6.514,6.2-1.554-.04-1.89-1.745-3.791-1.813C138.2,257.754,136.767,260.473,136.4,260.116Z" transform="translate(-114.893 -239.462)" fill="#523a2d"/>
              <path id="Trazado_127511" data-name="Trazado 127511" d="M171.3,280.677l-.7-.842c.153-.127,3.788-3.084,5.945-.692l-.811.732C174.279,278.256,171.331,280.652,171.3,280.677Z" transform="translate(-118.411 -242.742)" fill="#38261f"/>
              <path id="Trazado_127512" data-name="Trazado 127512" d="M160.783,271.884a.8.8,0,0,0-.652-1.216c-1.255.034-3.389.2-4.008,1.646C155.364,274.087,159.745,273.414,160.783,271.884Z" transform="translate(-116.915 -241.967)" fill="#38261f"/>
              <path id="Trazado_127513" data-name="Trazado 127513" d="M181.976,267.573a.686.686,0,0,0-.388-1.116c-1.084-.2-2.944-.462-3.684.607C177,268.376,180.863,268.633,181.976,267.573Z" transform="translate(-119.146 -241.516)" fill="#38261f"/>
              <path id="Trazado_127514" data-name="Trazado 127514" d="M184.448,282.615a13.043,13.043,0,0,0,.759,4.411,28.577,28.577,0,0,0,4.775-14.549C186.739,274.09,184.448,278.02,184.448,282.615Z" transform="translate(-119.831 -242.153)" fill="#b35334"/>
              <path id="Trazado_127515" data-name="Trazado 127515" d="M118.07,254.2c1.224-2.076,5.674-2.249,8.564-.626,1.415.794,2.662,2.137,2.406,2.625-.435.829-5.084-1.027-5.471-.2-.265.563,1.84,1.552,1.69,2.974-.135,1.281-1.971,1.663-1.872,2.582.115,1.078,2.734,1.466,2.665,1.852-.073.407-2.924-.455-5.775.759-1.788.761-2.47,1.867-2.911,1.585-.65-.414.99-2.709,1.051-6.386C118.468,256.242,117.328,255.461,118.07,254.2Z" transform="translate(-112.931 -240.101)" fill="#523a2d"/>
              <path id="Trazado_127516" data-name="Trazado 127516" d="M182.034,272.691c.116,1.013-.269,1.891-.86,1.958s-1.164-.7-1.281-1.713.269-1.891.86-1.958S181.917,271.677,182.034,272.691Z" transform="translate(-119.362 -241.999)" fill="#38261f"/>
              <path id="Trazado_127517" data-name="Trazado 127517" d="M161.692,276.976c.12,1.045-.277,1.95-.887,2.019s-1.2-.721-1.32-1.767.276-1.95.886-2.02S161.572,275.93,161.692,276.976Z" transform="translate(-117.267 -242.433)" fill="#38261f"/>
              <g id="Grupo_134371" data-name="Grupo 134371" transform="translate(40.63 41.708)">
                <path id="Trazado_127518" data-name="Trazado 127518" d="M169.254,285.844s-4.427,2.842-11.536-.681c0,0,1.382,4.1,5.165,4.862S169.254,285.844,169.254,285.844Z" transform="translate(-157.718 -285.163)" fill="#38261f"/>
                <path id="Trazado_127519" data-name="Trazado 127519" d="M163.059,290.287a6.41,6.41,0,0,1-3.628-2.245,4.2,4.2,0,0,1,5.429,2.186A3.971,3.971,0,0,1,163.059,290.287Z" transform="translate(-157.894 -285.425)" fill="#b35334"/>
              </g>
              <g id="Grupo_134372" data-name="Grupo 134372" transform="translate(13.847 34.159)">
                <path id="Trazado_127520" data-name="Trazado 127520" d="M136.387,278.145s-8.256-4.716-8.509,3.195,6.787,12.88,13.638,9.643Z" transform="translate(-127.872 -276.75)" fill="#c26c48"/>
              </g>
              <path id="Trazado_127521" data-name="Trazado 127521" d="M134.107,287.1c.485-1.032,2.478-1.373,3.2-1.417l.479-.029-.144-.458a5.141,5.141,0,0,0-2.632-3.452,3.793,3.793,0,0,0-2.955.051l.328.674a3.084,3.084,0,0,1,2.34-.033,4.151,4.151,0,0,1,2.056,2.551c-.895.126-2.761.535-3.353,1.794Z" transform="translate(-114.454 -243.075)" fill="#38261f"/>
              <path id="Trazado_127522" data-name="Trazado 127522" d="M153.747,283.942a5.352,5.352,0,1,1-5.335-5.784A5.573,5.573,0,0,1,153.747,283.942Z" transform="translate(-115.585 -242.736)" fill="#b35334"/>
              <path id="Trazado_127523" data-name="Trazado 127523" d="M131.543,270c-4.684-7.792,2.952-15.629,3.03-15.707l.682.677c-.073.074-7.186,7.39-2.889,14.536Z" transform="translate(-114.246 -240.286)" fill="#f06622"/>
              <g id="Grupo_134373" data-name="Grupo 134373" transform="translate(9.231 13.866)">
                <path id="Trazado_127524" data-name="Trazado 127524" d="M131.545,261.85a3.45,3.45,0,0,1-1.2-.19l-.643-.258.113-.124-.047.015c-.166-.52-1.582-5.13-.145-6.653a1.823,1.823,0,0,1,1.91-.413,2.376,2.376,0,0,1,1.877,1.572c.5,1.668-1.084,3.963-1.983,5.09.926.015,2.64-.31,4.482-2.677l.758.591C134.679,261.358,132.741,261.85,131.545,261.85Zm-.686-6.754a.66.66,0,0,0-.536.2c-.719.762-.3,3.38.2,5.174.9-1.094,2.327-3.185,1.963-4.4a1.472,1.472,0,0,0-1.2-.917A1.754,1.754,0,0,0,130.859,255.1Z" transform="translate(-123.37 -254.136)" fill="#f06622"/>
                <path id="Trazado_127525" data-name="Trazado 127525" d="M125.514,266.889l-.325-.9c2.839-1.021,3.691-2.552,3.944-3.444-1.407.5-4.273,1.322-5.65.259a2.236,2.236,0,0,1-.714-2.252,1.959,1.959,0,0,1,1.178-1.716c1.926-.75,5.389,1.964,5.911,2.387l.3-.124.044.674C130.207,261.906,130.361,265.147,125.514,266.889Zm-.792-7.233a1.176,1.176,0,0,0-.426.071c-.115.044-.463.18-.575.957-.141.976.229,1.262.35,1.354.859.665,3.132.171,4.754-.407C127.6,260.714,125.81,259.657,124.722,259.657Z" transform="translate(-122.728 -254.605)" fill="#f06622"/>
              </g>
              <g id="Grupo_134374" data-name="Grupo 134374" transform="translate(60.381 5.895)">
                <path id="Trazado_127526" data-name="Trazado 127526" d="M184.952,252.839c-1.037,0-3.342-.435-5.224-3.9l.844-.458c1.43,2.634,3.062,3.252,3.986,3.372-.7-1.258-1.891-3.781-1.125-5.345a2.374,2.374,0,0,1,2.108-1.244,1.828,1.828,0,0,1,1.817.719c1.168,1.736-.982,6.054-1.231,6.539l-.042-.022.091.14-.676.149A2.651,2.651,0,0,1,184.952,252.839Zm.866-6.625c-.059,0-.123,0-.193.008a1.472,1.472,0,0,0-1.329.709c-.556,1.138.512,3.434,1.219,4.66.789-1.688,1.631-4.2,1.046-5.071C186.507,246.44,186.354,246.214,185.818,246.214Z" transform="translate(-179.728 -245.254)" fill="#f06622"/>
                <path id="Trazado_127527" data-name="Trazado 127527" d="M189.458,258.738c-4.5-2.511-3.814-5.683-3.782-5.817l.153-.659.271.172c.584-.334,4.444-2.444,6.222-1.39a1.963,1.963,0,0,1,.882,1.886,2.234,2.234,0,0,1-1.074,2.105c-1.53.823-4.225-.455-5.531-1.18.1.92.693,2.57,3.328,4.043Zm-2.406-5.729c1.508.836,3.669,1.689,4.623,1.181.135-.074.547-.294.567-1.28.016-.784-.305-.976-.411-1.039C190.93,251.337,188.611,252.2,187.052,253.009Z" transform="translate(-180.333 -245.818)" fill="#f06622"/>
              </g>
              <g id="Grupo_134376" data-name="Grupo 134376" transform="translate(15.392 66.914)">
                <g id="Grupo_134375" data-name="Grupo 134375">
                  <path id="Trazado_127528" data-name="Trazado 127528" d="M132.027,334.906a47.758,47.758,0,0,0,3.873-15.578l2.656,2.81Z" transform="translate(-129.844 -313.876)" fill="#f09a6d"/>
                  <path id="Trazado_127529" data-name="Trazado 127529" d="M135.632,326.692s-8.59,16.223-5.279,23.67,10.735,12.857,11.4,9.208-7.681-13.483-7.681-13.483Z" transform="translate(-129.594 -314.632)" fill="#f09a6d"/>
                  <path id="Trazado_127530" data-name="Trazado 127530" d="M138.754,317.681s-6.973,16.982-2.953,24.071,11.935,11.753,12.245,8.056-8.955-12.672-8.955-12.672Z" transform="translate(-130.103 -313.707)" fill="#f09a6d"/>
                  <path id="Trazado_127531" data-name="Trazado 127531" d="M132.157,338.246s.177,9,1.96,10.124,9.429,13.064,12.46,11.219-4.416-9.795-5.861-11.44-4.43-22.232-4.43-22.232Z" transform="translate(-129.857 -314.552)" fill="#f09a6d"/>
                  <path id="Trazado_127532" data-name="Trazado 127532" d="M136.436,322.874c-1.775-2.194,1.068-9.18,5.058-9.607a3.655,3.655,0,0,1,3.021,1.071c1.751,2.3-.677,8.372-4.635,9.238C139.642,323.628,137.417,324.087,136.436,322.874Z" transform="translate(-130.241 -313.252)" fill="#f09a6d"/>
                </g>
                <path id="Trazado_127533" data-name="Trazado 127533" d="M142.5,352.147c-.3-.273-7.324-6.692-8.184-7.642-.95-1.053-.306-4.816.015-6.385l1.176.24c-.5,2.461-.643,4.956-.3,5.34.657.726,5.587,5.262,8.1,7.559Z" transform="translate(-130.027 -315.804)" fill="#38261f"/>
                <path id="Trazado_127534" data-name="Trazado 127534" d="M140.977,359.058c-2.164-2.271-9.258-9.777-9.674-11.011a38.691,38.691,0,0,1-.778-5.509l1.2-.1a37.962,37.962,0,0,0,.72,5.226c.305.772,5.074,6.02,9.4,10.564Z" transform="translate(-129.689 -316.248)" fill="#38261f"/>
              </g>
              <path id="Trazado_127535" data-name="Trazado 127535" d="M211.686,335.369a5.9,5.9,0,0,1,2.36,3.922,8.162,8.162,0,0,1-.9,4.509Z" transform="translate(-122.627 -248.608)" fill="#c26c48"/>
              <path id="Trazado_127536" data-name="Trazado 127536" d="M213.713,339.609a5.466,5.466,0,0,1,1.436,4.184,6.538,6.538,0,0,1-2.126,3.678Z" transform="translate(-122.764 -249.043)" fill="#c26c48"/>
              <path id="Trazado_127537" data-name="Trazado 127537" d="M211.712,343.806l-.933-.756a5.5,5.5,0,0,0,1.027-1.921,39.45,39.45,0,0,0-.217-5.155l1.2-.107a40.851,40.851,0,0,1,.2,5.469A6.6,6.6,0,0,1,211.712,343.806Z" transform="translate(-122.534 -248.659)" fill="#38261f"/>
              <path id="Trazado_127538" data-name="Trazado 127538" d="M145.085,271.3c-.817,0-1.659-.021-2.53-.065l.06-1.2c24.052,1.206,26.693-15.3,26.716-15.463l1.189.17C170.5,254.917,167.887,271.3,145.085,271.3Z" transform="translate(-115.532 -240.316)" fill="#38261f"/>
              <path id="Trazado_127539" data-name="Trazado 127539" d="M190.8,262.694a8.276,8.276,0,0,1-1.779-.168l.274-1.169a9.794,9.794,0,0,0,7.111-1.613l.677.992A11.116,11.116,0,0,1,190.8,262.694Z" transform="translate(-120.301 -240.846)" fill="#38261f"/>
              <path id="Trazado_127540" data-name="Trazado 127540" d="M162.264,345.924l-.944-.743c1.2-1.522,1.725-2.268,1.945-2.6l-7.845-18.3,1.1-.472,8.077,18.838-.124.249A26.247,26.247,0,0,1,162.264,345.924Z" transform="translate(-116.852 -247.422)" fill="#38261f"/>
            </g>
            <path id="Trazado_127541" data-name="Trazado 127541" d="M266.149,364.812,252.654,367.8l-10.131-25.122c-3.817-7.771-5.307-16.8-7.145-25.1h0l20.079-1.069.272.636a87.689,87.689,0,0,1,5.9,20.217Z" transform="translate(-125.059 -122.071)" fill="#c26c48"/>
            <path id="Trazado_127542" data-name="Trazado 127542" d="M256.323,315.5a24.82,24.82,0,0,0-8.52-10.764l.651-1.01a25.586,25.586,0,0,1,8.987,11.335Z" transform="translate(-126.334 -120.759)" fill="#38261f"/>
            <g id="Grupo_134383" data-name="Grupo 134383" transform="translate(116.712 118.309)">
              <g id="Grupo_134378" data-name="Grupo 134378" transform="translate(0.18 98.441)">
                <path id="Trazado_127543" data-name="Trazado 127543" d="M257.33,342.258l-2.846,40.531a8.032,8.032,0,0,1-7.748.442s-6.472-16.438-3.021-31.9c.778-3.491.465-7,.859-9.955Z" transform="translate(-242.702 -341.373)" fill="#f09a6d"/>
              </g>
              <path id="Trazado_127544" data-name="Trazado 127544" d="M267.422,309.384s-22.879,6.049-24.92,31.348l18.291,4.55Z" transform="translate(-242.502 -239.649)" fill="#5bd3a9"/>
              <path id="Trazado_127545" data-name="Trazado 127545" d="M276.384,306.543s14.685-2.068,20.053,11.759c4.7,12.095,7.568,51.557,7.568,51.557s-22.937,14.363-49.63,4.781c0,0,.978-25.956,2.194-40.685.564-6.841.244-9.974,2.279-14.407,2.318-5.049-1.279-7.323,14.816-12.49Z" transform="translate(-243.721 -239.346)" fill="#5bd3a9"/>
              <path id="Trazado_127546" data-name="Trazado 127546" d="M255.611,345.8a118.591,118.591,0,0,1,.92-14.232l1.192.155a116.938,116.938,0,0,0-.911,14.062Z" transform="translate(-243.847 -241.926)" fill="#38261f"/>
              <path id="Trazado_127547" data-name="Trazado 127547" d="M286.742,303.172l.359,7.129c.013.232-.2.436-.528.5-1.71.322-7.037,1.079-10.78-1.12a.448.448,0,0,1-.253-.478l1.406-6.39Z" transform="translate(-245.892 -238.974)" fill="#f09a6d"/>
              <path id="Trazado_127548" data-name="Trazado 127548" d="M286.953,305.277c-1.54.957-4.1,1.207-6.2,1.13a9.127,9.127,0,0,1-4.193-1.35l.494-2.247,9.8.362Z" transform="translate(-245.997 -238.974)" fill="#38261f" opacity="0.25" style="mix-blend-mode: multiply;isolation: isolate"/>
              <path id="Trazado_127549" data-name="Trazado 127549" d="M308.011,290.093c-.485-1.032-2.478-1.373-3.2-1.417l-.478-.029.145-.458a5.141,5.141,0,0,1,2.632-3.452,3.8,3.8,0,0,1,2.955.051l-.328.674a3.089,3.089,0,0,0-2.34-.033,4.148,4.148,0,0,0-2.056,2.551c.895.126,2.76.535,3.353,1.794Z" transform="translate(-248.848 -237.091)" fill="#38261f"/>
              <g id="Grupo_134381" data-name="Grupo 134381" transform="translate(4.739 17.366)">
                <path id="Trazado_127550" data-name="Trazado 127550" d="M258.154,255.818s-7.174,8.381-5.768,17l.719,1.061,10.162-17.864Z" transform="translate(-248.236 -251.517)" fill="#52261f"/>
                <path id="Trazado_127551" data-name="Trazado 127551" d="M253.522,275.84s-5.052-5.274-5.678,1.01,3.629,11.537,8.238,10.193Z" transform="translate(-247.783 -253.36)" fill="#f09a6d"/>
                <path id="Trazado_127552" data-name="Trazado 127552" d="M253.279,275.446c-.765,12.557,13.563,24.669,27.937,23.2s24.94-13.284,23.6-26.392-14.074-22.548-28.447-21.081S254.152,261.109,253.279,275.446Z" transform="translate(-248.344 -251.026)" fill="#f09a6d"/>
                <path id="Trazado_127553" data-name="Trazado 127553" d="M276.653,279.92l.644-.882c-.161-.118-3.965-2.852-5.976-.334l.853.681C273.537,277.682,276.623,279.9,276.653,279.92Z" transform="translate(-250.199 -253.757)" fill="#38261f"/>
                <path id="Trazado_127554" data-name="Trazado 127554" d="M287.408,268.98a.8.8,0,0,1,.578-1.253c1.255-.041,3.4,0,4.1,1.4C292.949,270.854,288.536,270.444,287.408,268.98Z" transform="translate(-251.835 -252.739)" fill="#52261f"/>
                <path id="Trazado_127555" data-name="Trazado 127555" d="M265.472,266.983a.686.686,0,0,1,.319-1.138c1.071-.269,2.912-.637,3.714.385C270.489,267.486,266.645,267.975,265.472,266.983Z" transform="translate(-249.578 -252.517)" fill="#52261f"/>
                <path id="Trazado_127556" data-name="Trazado 127556" d="M265.978,272.087c-.055,1.019.381,1.871.975,1.9s1.12-.768,1.176-1.787-.381-1.872-.975-1.9S266.034,271.068,265.978,272.087Z" transform="translate(-249.65 -253.004)" fill="#38261f"/>
                <path id="Trazado_127557" data-name="Trazado 127557" d="M287.113,274.1c-.057,1.052.393,1.93,1.006,1.963s1.155-.791,1.212-1.843-.394-1.929-1.006-1.963S287.17,273.045,287.113,274.1Z" transform="translate(-251.819 -253.204)" fill="#38261f"/>
                <g id="Grupo_134379" data-name="Grupo 134379" transform="translate(26.924 31.756)">
                  <path id="Trazado_127558" data-name="Trazado 127558" d="M277.786,287.784s4.588,2.572,11.474-1.37c0,0-1.134,4.174-4.865,5.163S277.786,287.784,277.786,287.784Z" transform="translate(-277.786 -286.414)" fill="#38261f"/>
                  <path id="Trazado_127559" data-name="Trazado 127559" d="M284.945,291.858a6.4,6.4,0,0,0,3.487-2.459,4.2,4.2,0,0,0-5.288,2.507A3.975,3.975,0,0,0,284.945,291.858Z" transform="translate(-278.336 -286.696)" fill="#f07c59"/>
                </g>
                <g id="Grupo_134380" data-name="Grupo 134380" transform="translate(51.929 19.531)">
                  <path id="Trazado_127560" data-name="Trazado 127560" d="M308.22,275.155s7.2-6.213,8.965,1.5S313,290.6,305.651,288.739Z" transform="translate(-305.651 -272.79)" fill="#f09a6d"/>
                </g>
                <path id="Trazado_127561" data-name="Trazado 127561" d="M293.215,281.589a5.337,5.337,0,1,0,5.014-5.489A5.259,5.259,0,0,0,293.215,281.589Z" transform="translate(-252.445 -253.598)" fill="#f07c59"/>
                <path id="Trazado_127562" data-name="Trazado 127562" d="M254.81,279.779c.17,2.855,2.268,5.052,4.683,4.907s4.235-2.577,4.063-5.432-2.269-5.051-4.683-4.906S254.638,276.925,254.81,279.779Z" transform="translate(-248.503 -253.418)" fill="#f07c59"/>
                <path id="Trazado_127563" data-name="Trazado 127563" d="M313.5,284.356c-.486-1.032-2.478-1.373-3.2-1.417l-.479-.029.145-.458A5.143,5.143,0,0,1,312.59,279a3.8,3.8,0,0,1,2.955.051l-.328.674a3.1,3.1,0,0,0-2.341-.033,4.153,4.153,0,0,0-2.056,2.551c.895.126,2.761.535,3.353,1.794Z" transform="translate(-254.149 -253.868)" fill="#38261f"/>
              </g>
              <path id="Trazado_127564" data-name="Trazado 127564" d="M258.964,257.629s14.4,4.553,41.249,3.967c0,0-2.32,11.923,0,14.19a35.41,35.41,0,0,1,4.545-5.211,7.809,7.809,0,0,1,3.308-1.7s7.777-9.131-12.624-18.162c-13.952-6.177-27.843-11.572-35.279-16.068C260.163,234.645,244.137,243.349,258.964,257.629Z" transform="translate(-243.546 -231.978)" fill="#52261f"/>
              <g id="Grupo_134382" data-name="Grupo 134382" transform="translate(54.435 98.822)">
                <path id="Trazado_127565" data-name="Trazado 127565" d="M303.163,342.712l2.942,41.9a8.305,8.305,0,0,0,8.011.457s6.691-16.993,3.124-32.983c-.8-3.608-.48-7.237-.888-10.292Z" transform="translate(-303.163 -341.798)" fill="#f09a6d"/>
              </g>
              <path id="Trazado_127566" data-name="Trazado 127566" d="M291.513,308.726s23.653,6.254,25.762,32.408l-18.909,4.7Z" transform="translate(-247.532 -239.581)" fill="#5bd3a9"/>
              <path id="Trazado_127567" data-name="Trazado 127567" d="M302.006,347.848c-.659-4.925-3.147-14.26-3.171-14.354l1.159-.31c.1.386,2.533,9.5,3.2,14.5Z" transform="translate(-248.284 -242.092)" fill="#38261f"/>
              <path id="Trazado_127568" data-name="Trazado 127568" d="M260.286,238.233c-1.252-.424-3.309,1.823-4.265,3.92-1.146,2.509-1.244,5.958.115,6.687,1,.538,1.933-.873,4.15-.577,1.306.174,1.515.734,3.113,1.384,2.212.9,2.988.306,5.65.807s2.4,1.191,5.765,2.19c2.835.841,3.011.349,6.341,1.153,4.263,1.03,6.3,2.4,6.687,1.845.333-.485-.826-2.11-2.306-3.113-1.837-1.246-3.032-.762-5.418-1.5-3.291-1.017-2.777-2.479-5.88-3.574-3.344-1.181-4.359.369-7.609-1.038a9.456,9.456,0,0,1-4.266-3.343C260.745,240.642,261.383,238.6,260.286,238.233Z" transform="translate(-243.799 -232.341)" fill="#804430"/>
              <path id="Trazado_127569" data-name="Trazado 127569" d="M313.947,266.088,312.9,265.5c2.9-5.216,6.24-5.661,6.381-5.678l.139,1.194-.069-.6.074.6C319.393,261.022,316.516,261.458,313.947,266.088Z" transform="translate(-249.727 -234.562)" fill="#52261f"/>
              <path id="Trazado_127570" data-name="Trazado 127570" d="M319.964,268.639a6.548,6.548,0,0,0-6.356-2.033l-.285-1.167a7.748,7.748,0,0,1,7.566,2.433Z" transform="translate(-249.771 -235.116)" fill="#52261f"/>
              <path id="Trazado_127571" data-name="Trazado 127571" d="M292.86,250.352c-19.324-5.951-29.076-17.8-29.172-17.923l.934-.756c.094.116,9.639,11.694,28.591,17.53Z" transform="translate(-244.676 -231.673)" fill="#52261f"/>
            </g>
            <path id="Trazado_127572" data-name="Trazado 127572" d="M306.481,331.752l6.112,10.973,31.722-10.636c9.668-2.848,19.307-8.817,27.711-14.936a2.567,2.567,0,0,0,.967-2.717l-2.846-11.067-10.8-2.463-.806.28A121.419,121.419,0,0,0,335,312.3Z" transform="translate(-132.356 -120.47)" fill="#c26c48"/>
            <path id="Trazado_127573" data-name="Trazado 127573" d="M358.044,304.974l-.61-.847c.261-.188,6.505-4.574,14.877-.392l-.467.935C364.053,300.779,358.286,304.8,358.044,304.974Z" transform="translate(-137.586 -120.576)" fill="#38261f"/>
            <g id="Grupo_134384" data-name="Grupo 134384" transform="translate(144.985 203.432)">
              <path id="Trazado_127574" data-name="Trazado 127574" d="M311.51,331.36s-9.962-.7-12.968-1.43-7.493-4.168-9.546-3.239,2.2,7.562,6.162,9.035a13.492,13.492,0,0,1-4.531,4.217c-2.681,1.342-15.217,8.563-16.3,9.673s.582,2.791,4.986,2.612c0,0-3.4,2.083-3.3,2.71s-.267,3.051,5.809,1.884c0,0-1.389,1.46-1.04,2.077s1.694,2.281,5.513.617c0,0-.557,1.493,1.722,1.158s13.817-4.045,18.069-6.341,12-14.046,12-14.046Z" transform="translate(-274.008 -326.532)" fill="#c26c48"/>
              <path id="Trazado_127575" data-name="Trazado 127575" d="M280.128,355.043l-.468-1.181s4-1.587,7.742-3.132a36.792,36.792,0,0,0,5.207-2.5l.688,1.068a37.178,37.178,0,0,1-5.412,2.61C284.135,353.452,280.128,355.043,280.128,355.043Z" transform="translate(-274.588 -328.759)" fill="#38261f"/>
              <path id="Trazado_127576" data-name="Trazado 127576" d="M282.541,360.171l-.413-1.2c.089-.031,8.859-3.06,11.262-5.214l.848.947C291.644,357.027,282.911,360.045,282.541,360.171Z" transform="translate(-274.842 -329.326)" fill="#38261f"/>
              <path id="Trazado_127577" data-name="Trazado 127577" d="M287.922,363.407l-.506-1.165c.057-.025,5.7-2.47,7.7-3.458l.562,1.14C293.648,360.923,288.155,363.307,287.922,363.407Z" transform="translate(-275.384 -329.842)" fill="#38261f"/>
            </g>
          </g>
        </g>
      </g>
    </g>
  </g>
</svg>
