<svg id="Grupo_133915" data-name="Grupo 133915" xmlns="http://www.w3.org/2000/svg" width="58.461" height="60" viewBox="0 0 58.461 60">
  <ellipse id="Elipse_4912" data-name="Elipse 4912" cx="29.231" cy="30" rx="29.231" ry="30" fill="#d2f3e8"/>
  <g id="RiekV0" transform="translate(-4783.384 -215.167)">
    <g id="Grupo_134905" data-name="Grupo 134905" transform="translate(4793.325 225.661)">
      <path id="Trazado_127806" data-name="Trazado 127806" d="M4793.348,264.673a6.137,6.137,0,0,1,4.983-6.632c.265-.054.639-.074.752-.247a3.031,3.031,0,0,0,.293-1.048c.013-.067-.073-.189-.146-.234a4.484,4.484,0,0,1-2.08-3.112c-.2-.033-.391-.057-.581-.1a2.509,2.509,0,0,1-1.775-3.453.986.986,0,0,0,.045-.621,5.5,5.5,0,0,1,4.531-7.136c.077-.012.152-.032.294-.062a4.687,4.687,0,0,1-1.246-2.482c-.185-.029-.365-.049-.541-.088a2.5,2.5,0,0,1-1.959-1.883,1.158,1.158,0,0,0-.256-.463,3.759,3.759,0,0,1-.014-5.258.775.775,0,0,0,.188-.475,4.444,4.444,0,0,1,4.756-4.46.86.86,0,0,0,.549-.189,4.4,4.4,0,0,1,5.739-.01.781.781,0,0,0,.626.217,4.393,4.393,0,0,1,4.7,4.325.892.892,0,0,0,.272.69,7.5,7.5,0,0,1,.609.8c.085-.262.166-.5.238-.735a6.9,6.9,0,0,1,3.873-4.5,6.064,6.064,0,0,1,2.549-.582,21.26,21.26,0,0,1,3.606.145,6.528,6.528,0,0,1,5.256,4.6,39.45,39.45,0,0,1,1.157,3.874,3.484,3.484,0,0,1-.868,3.286.871.871,0,0,0,.033,1.38,2.92,2.92,0,0,1,.91,1.817c.235,0,.456-.006.675,0a1.8,1.8,0,0,1,1.815,1.638,20.9,20.9,0,0,1-.2,5.252,1.7,1.7,0,0,0,.064,1.085,2.488,2.488,0,0,1-2.093,3.347c-.09.011-.181.016-.3.026a4.247,4.247,0,0,1-.928,2.087,12.4,12.4,0,0,1-1.068.978c-.068.06-.173.09-.22.161a1.987,1.987,0,0,0,.538,1.395,6.319,6.319,0,0,1,4.015,4.465,17.8,17.8,0,0,1,.3,2.2Zm26.4-33.959c.01.064.019.113.025.162a2.525,2.525,0,0,0,2.632,2.34c.564,0,1.128,0,1.692,0a1.889,1.889,0,0,1,1.968,1.952q.008,1.1,0,2.2a6.329,6.329,0,0,1-1.723,4.355l-.256.283h4.44l.091-.09a9.216,9.216,0,0,0-.633-.846,2.13,2.13,0,0,1-.081-3.014,2.547,2.547,0,0,0,.564-2.594q-.461-1.644-1-3.267a5.4,5.4,0,0,0-4.332-3.888,17.324,17.324,0,0,0-3.253-.121,5.513,5.513,0,0,0-5.113,3.547c-.482,1.3-.87,2.637-1.229,3.976a2.292,2.292,0,0,0,.473,2.18,2.185,2.185,0,0,1-.087,3.334,5.5,5.5,0,0,0-.512.8,7.709,7.709,0,0,1,5.115,1.952l1-.938a5.776,5.776,0,0,1-3.327-4.144,15.73,15.73,0,0,1-.2-3.166,3.734,3.734,0,0,1,2.433-3.529c.105-.041.21-.085.288-.117l-.238-1.37Zm-11.9,1.967a2.253,2.253,0,0,1-1.831.538c-.419-.013-.839,0-1.258,0a3.882,3.882,0,0,1-2.6-.941.623.623,0,0,0-.449-.126,2.477,2.477,0,0,0-2.086,2.447q-.02,2.163,0,4.325a3,3,0,0,0,2.57,3.021,17.176,17.176,0,0,0,3.719-.008,2.961,2.961,0,0,0,2.508-2.87c.038-1.638.02-3.277.005-4.915A2.267,2.267,0,0,0,4807.851,232.681Zm1.788,30.746a4.712,4.712,0,0,0-1.192-2.611,5.291,5.291,0,0,0-3.071-1.619,1.972,1.972,0,0,0-1.176.08,5.294,5.294,0,0,1-3.881.073,2.862,2.862,0,0,0-1.784-.068,4.841,4.841,0,0,0-3.832,3.732,3.2,3.2,0,0,0-.051.413Zm.132-16.291a4.874,4.874,0,0,1,.573-.062c2.085-.005,4.169-.01,6.254,0A1.874,1.874,0,0,1,4818.51,249c.008,1.259.016,2.518,0,3.776a3.974,3.974,0,0,1-1.656,3.362,1,1,0,0,0-.424,1.405c.056.137.1.328.207.386.652.35,1.321.669,2.023,1.018a3.838,3.838,0,0,0,1.111-2.75c.008-2.216.014-4.432,0-6.648a6.137,6.137,0,0,0-1.715-4.273,6.266,6.266,0,0,0-8.666-.454c-.1.091-.239.266-.213.363C4809.349,245.833,4809.563,246.474,4809.77,247.135Zm11.262,3.752c0,.616-.006,1.233,0,1.849a3.09,3.09,0,0,0,2.613,3.083,10.675,10.675,0,0,0,1.8.062,3.137,3.137,0,0,0,3.134-3.127c.015-1.219.006-2.439,0-3.659,0-.539-.228-.762-.768-.765-.813,0-1.626,0-2.439,0a4.854,4.854,0,0,1-2.971-.974.372.372,0,0,0-.544.018,2.115,2.115,0,0,0-.829,1.666C4821.024,249.654,4821.033,250.271,4821.032,250.887Zm-22.669.051c0,.616-.009,1.233,0,1.849a3.087,3.087,0,0,0,2.584,3.027,10.811,10.811,0,0,0,1.8.067,3.139,3.139,0,0,0,3.164-3.178c.01-1.193,0-2.387,0-3.58,0-.569-.219-.79-.78-.793-.747,0-1.5-.011-2.242,0a4.992,4.992,0,0,1-3.2-1.007.318.318,0,0,0-.45.006,2.1,2.1,0,0,0-.881,1.68C4798.352,249.653,4798.364,250.3,4798.363,250.938Zm11.334,0c0,.6-.006,1.206,0,1.809a3.09,3.09,0,0,0,2.616,3.077,10.666,10.666,0,0,0,1.8.061,3.136,3.136,0,0,0,3.133-3.125c.015-1.219.006-2.438,0-3.656,0-.541-.226-.768-.763-.769q-3.007,0-6.015,0c-.559,0-.773.225-.777.8C4809.694,249.728,4809.7,250.331,4809.7,250.934Zm15.206-14.47-.093-.013c0-.38,0-.76,0-1.141,0-.621-.208-.832-.818-.834-.538,0-1.075,0-1.613,0a3.852,3.852,0,0,1-2.713-1.059.583.583,0,0,0-.44-.124,2.473,2.473,0,0,0-1.966,2.344c-.017.616-.02,1.233,0,1.849a5.007,5.007,0,0,0,1.889,3.864,3,3,0,0,0,3.779-.005,4.538,4.538,0,0,0,1.632-2.444A24.5,24.5,0,0,0,4824.9,236.464Zm-16.616,12.068a1.069,1.069,0,0,0,.054-.147,4.225,4.225,0,0,0-3.979-5.082c-1.468-.038-2.939-.054-4.4,0a4.078,4.078,0,0,0-3.785,2.616,3.669,3.669,0,0,0-.177,2.62l1.188-.266c-.005.01,0,0,.008-.012q.04-.111.077-.222a3.407,3.407,0,0,1,2.215-2.227.447.447,0,0,1,.545.129,3.671,3.671,0,0,0,2.757,1.126c.787,0,1.574.005,2.36,0a1.918,1.918,0,0,1,1.832,1.061.43.43,0,0,0,.246.194C4807.562,248.405,4807.908,248.46,4808.286,248.532Zm12.239-1.772c.528-.3,1.073-.625,1.624-.936a.4.4,0,0,1,.544.115,3.683,3.683,0,0,0,2.792,1.132c.787-.007,1.573,0,2.36,0a1.9,1.9,0,0,1,1.8,1.051.437.437,0,0,0,.241.2c.341.08.688.132,1.053.2a2.9,2.9,0,0,0,.086-.475c.033-1.374.066-2.749.079-4.124,0-.4-.27-.627-.7-.627-2.621,0-5.243-.023-7.863.012a3.989,3.989,0,0,0-2.935,1.4.3.3,0,0,0-.047.437C4819.9,245.689,4820.227,246.257,4820.525,246.76Zm-19.694-17.294h1.293a2.542,2.542,0,0,0,2.331,2.477c.693.042,1.39.021,2.084.009a.617.617,0,0,0,.635-.617.631.631,0,0,0-.659-.635c-.191-.009-.382,0-.567,0v-1.273l1.144.053a1.448,1.448,0,0,0-.031-.215,3.14,3.14,0,0,0-5.472-1.176.5.5,0,0,1-.593.194,3.111,3.111,0,0,0-3.866,3.281,1.043,1.043,0,0,1-.443,1.067,2.319,2.319,0,0,0-.482,3.034,2.808,2.808,0,0,1,2.155-1.227,3.814,3.814,0,0,1,2.794-3.464Zm10.089,33.958h8.764a5.035,5.035,0,0,0-3.287-4.189c-.032.082-.068.166-.1.251a1.927,1.927,0,0,1-2.046,1.437h-1.534a1.928,1.928,0,0,1-2.083-1.49,2.715,2.715,0,0,0-.121-.246l-1.227.668A6.255,6.255,0,0,1,4810.92,263.424Zm11.245-.992-1.743-2.32c-.5.325-.49.321-.237.794a5.554,5.554,0,0,1,.415.888c.173.531.3,1.077.45,1.63h10.009a5.2,5.2,0,0,0-1.838-3.343l-1.766,2.351-2.646-1.979Zm-9.962-25.087a2.527,2.527,0,0,1-2.411,2.179,12.546,12.546,0,0,1-1,1.971,11.589,11.589,0,0,1-1.529,1.451l1.159,1.02a7.71,7.71,0,0,1,3.614-1.788.29.29,0,0,0,.181-.2,2.993,2.993,0,0,1,.978-1.833.818.818,0,0,0,.149-1.078C4812.971,238.483,4812.577,237.909,4812.2,237.346Zm-.337-1.628c.075-.152.14-.261.185-.378a2.436,2.436,0,0,0-.889-2.89.575.575,0,0,1-.253-.655,2.938,2.938,0,0,0-.627-2.4,3.048,3.048,0,0,0-2.2-1.187,10.358,10.358,0,0,1,.3,1.29c.046.424-.037.861-.009,1.288a1.366,1.366,0,0,0,.354.99,3.222,3.222,0,0,1,.9,1.879c.038.268.063.537.094.808A2.631,2.631,0,0,1,4811.865,235.718Zm-4.614,17.693c0,1.18-.059,2.361.021,3.533a3.051,3.051,0,0,0,1.067,2.029,6.615,6.615,0,0,1,1.307-.734,1.39,1.39,0,0,0,1.042-1.316.389.389,0,0,0-.2-.472,4.324,4.324,0,0,1-1.94-2.754c-.049-.21-.076-.425-.11-.616Zm4.695,3.7a2.541,2.541,0,0,0-.069,2.083.729.729,0,0,0,.69.474c.6,0,1.205,0,1.807,0a.746.746,0,0,0,.711-.5,2.568,2.568,0,0,0-.08-2.055Zm11.317,0-.231.961c.572.286,1.118.563,1.668.83a.281.281,0,0,0,.216,0c.56-.272,1.115-.553,1.675-.834-.09-.359-.168-.672-.241-.958Zm-19.577,0h-3.094l-.213.9a4.345,4.345,0,0,0,3.523,0Zm6.035-21.356v2.485a1.243,1.243,0,0,0,0-2.485Zm20.146,13.85v2.487a1.242,1.242,0,0,0,1.237-1.232A1.255,1.255,0,0,0,4829.867,249.6Zm-22.673,2.483a1.235,1.235,0,1,0,0-2.469Zm-10.115.006V249.6a1.243,1.243,0,0,0,0,2.486Zm1.255-13.856v-2.485a1.243,1.243,0,0,0,0,2.485Zm22.326,20.134c.287-.125.621-.267.953-.416a2.375,2.375,0,0,0,.42-1.35.2.2,0,0,0-.058-.052l-.853-.6C4820.968,256.754,4820.813,257.563,4820.66,258.368Zm-14.465-.263-.347-2.178c-.3.218-.747.38-.873.677a1.6,1.6,0,0,0,.167,1.067C4805.337,258.14,4805.854,257.929,4806.195,258.1Zm16.222,2.565,1.193-.895a7.76,7.76,0,0,1-.9-.469c-.446-.311-.818-.154-1.235.1Zm5.722-1.249c-.675-.418-1.277-.3-2.078.393l1.141.855Z" transform="translate(-4793.325 -225.661)" fill="#133d60"/>
      <path id="Trazado_127807" data-name="Trazado 127807" d="M4818.733,263.806h6.259a3.209,3.209,0,0,1-1.312,3.173,2.962,2.962,0,0,1-3.37.164A3.2,3.2,0,0,1,4818.733,263.806Zm1.4,1.258a1.8,1.8,0,0,0,1.819,1.244,1.731,1.731,0,0,0,1.616-1.244Z" transform="translate(-4811.161 -252.458)" fill="#133d60"/>
      <path id="Trazado_127808" data-name="Trazado 127808" d="M4819.985,255.942a.626.626,0,1,1-.61-.642A.635.635,0,0,1,4819.985,255.942Z" transform="translate(-4811.173 -246.482)" fill="#133d60"/>
      <path id="Trazado_127809" data-name="Trazado 127809" d="M4836.918,255.935a.626.626,0,1,1-.617-.635A.634.634,0,0,1,4836.918,255.935Z" transform="translate(-4823.069 -246.482)" fill="#133d60"/>
      <path id="Trazado_127810" data-name="Trazado 127810" d="M4892.017,315.769a1.478,1.478,0,0,0,2.712.006l1.062.533a2.57,2.57,0,0,1-2.375,1.614,2.658,2.658,0,0,1-2.5-1.593Z" transform="translate(-4861.88 -288.962)" fill="#133d60"/>
      <path id="Trazado_127811" data-name="Trazado 127811" d="M4891.305,306.1a.627.627,0,1,1-.607.646A.634.634,0,0,1,4891.305,306.1Z" transform="translate(-4861.729 -282.168)" fill="#133d60"/>
      <path id="Trazado_127812" data-name="Trazado 127812" d="M4904.032,307.352a.627.627,0,1,1,.62-.633A.632.632,0,0,1,4904.032,307.352Z" transform="translate(-4870.652 -282.168)" fill="#133d60"/>
      <path id="Trazado_127813" data-name="Trazado 127813" d="M4814.706,316.3l1.109-.555a1.5,1.5,0,0,0,1.335.894,1.443,1.443,0,0,0,1.343-.9l1.092.549a2.57,2.57,0,0,1-2.375,1.614A2.662,2.662,0,0,1,4814.706,316.3Z" transform="translate(-4808.345 -288.94)" fill="#133d60"/>
      <path id="Trazado_127814" data-name="Trazado 127814" d="M4828.452,306.734a.627.627,0,1,1-.618-.635A.634.634,0,0,1,4828.452,306.734Z" transform="translate(-4817.121 -282.168)" fill="#133d60"/>
      <path id="Trazado_127815" data-name="Trazado 127815" d="M4815.114,306.1a.627.627,0,1,1-.614.638A.633.633,0,0,1,4815.114,306.1Z" transform="translate(-4808.201 -282.168)" fill="#133d60"/>
      <path id="Trazado_127816" data-name="Trazado 127816" d="M4852.9,316.316l1.065-.527a1.476,1.476,0,0,0,2.708-.009c.182.088.367.175.549.267s.347.178.519.267a2.553,2.553,0,0,1-2.3,1.619A2.609,2.609,0,0,1,4852.9,316.316Z" transform="translate(-4835.174 -288.969)" fill="#133d60"/>
      <path id="Trazado_127817" data-name="Trazado 127817" d="M4866.552,306.73a.626.626,0,1,1-.622-.631A.634.634,0,0,1,4866.552,306.73Z" transform="translate(-4843.886 -282.169)" fill="#133d60"/>
      <path id="Trazado_127818" data-name="Trazado 127818" d="M4853.852,306.722a.626.626,0,1,1-.63-.623A.634.634,0,0,1,4853.852,306.722Z" transform="translate(-4834.965 -282.169)" fill="#133d60"/>
      <path id="Trazado_127819" data-name="Trazado 127819" d="M4878.323,269.731l1.073-.538a1.505,1.505,0,0,0,1.332.894,1.479,1.479,0,0,0,1.355-.9l1.083.541a2.62,2.62,0,0,1-4.843,0Z" transform="translate(-4853.036 -256.239)" fill="#133d60"/>
      <path id="Trazado_127820" data-name="Trazado 127820" d="M4891.952,260.17a.626.626,0,1,1-.616-.637A.634.634,0,0,1,4891.952,260.17Z" transform="translate(-4861.73 -249.456)" fill="#133d60"/>
      <path id="Trazado_127821" data-name="Trazado 127821" d="M4878.629,259.533a.627.627,0,1,1-.63.622A.632.632,0,0,1,4878.629,259.533Z" transform="translate(-4852.808 -249.456)" fill="#133d60"/>
    </g>
  </g>
</svg>
