<svg xmlns="http://www.w3.org/2000/svg" width="58.462" height="60" viewBox="0 0 58.462 60">
  <g id="Grupo_133779" data-name="Grupo 133779" transform="translate(-0.31)">
    <ellipse id="Elipse_4912" data-name="Elipse 4912" cx="29.231" cy="30" rx="29.231" ry="30" transform="translate(0.31)" fill="#d2f3e8"/>
    <g id="_4GM7O5" data-name="4GM7O5" transform="translate(-3511.9 -242.088)">
      <g id="Grupo_134899" data-name="Grupo 134899" transform="translate(3521.21 253.089)">
        <path id="Trazado_127755" data-name="Trazado 127755" d="M3521.21,276.008a6.5,6.5,0,0,1,.837-1.449,3.529,3.529,0,0,1,1.367-.754c1.012-.351,2.046-.643,3.081-.926a1.3,1.3,0,0,0,.849-.637c.209-.359.4-.773.906-.786a1.194,1.194,0,0,0-.456-1.281,6.556,6.556,0,0,1-2.28-4.326.484.484,0,0,0-.312-.442,1.993,1.993,0,0,1-.646-3.15.846.846,0,0,0,.172-.493c.022-1.127-.036-2.259.042-3.381a5.487,5.487,0,0,1,5.593-5.277c1.817-.026,3.635-.019,5.452,0a2.686,2.686,0,0,1,2.673,1.818.878.878,0,0,0,.258.336,3.443,3.443,0,0,1,1.321,2.772c.008,1.22-.009,2.441.013,3.661a1.1,1.1,0,0,0,.23.628,1.994,1.994,0,0,1-.675,3.068.553.553,0,0,0-.351.5,6.537,6.537,0,0,1-2.275,4.286,1.146,1.146,0,0,0-.437,1.263c.45.04.676.393.864.755a1.369,1.369,0,0,0,.942.7q1.626.454,3.235.965a2.665,2.665,0,0,1,1.971,2.51c0,.4-.183.644-.517.678a.573.573,0,0,1-.662-.582,1.642,1.642,0,0,0-1.367-1.54c-.778-.213-1.547-.459-2.271-.675-.9,1.121-1.762,2.224-2.655,3.3a1.279,1.279,0,0,1-1.879.165c-.4-.281-.779-.579-1.238-.922v14.077c0,.578-.2.863-.594.862s-.6-.294-.6-.864q0-6.765,0-13.531v-.53c-.3.222-.544.4-.792.582a7.468,7.468,0,0,1-.687.473,1.184,1.184,0,0,1-1.554-.235c-.918-1.1-1.8-2.22-2.738-3.386-.864.267-1.811.518-2.725.858a1.393,1.393,0,0,0-.9,1.342c-.018.49,0,.981,0,1.472q0,6.348,0,12.7c0,.093,0,.186,0,.278.011.333-.021.649-.383.8s-.6-.072-.812-.318Zm7.417-16.492c-.029.109-.068.232-.094.357-.126.609-.238,1.222-.377,1.829a1.325,1.325,0,0,1-1.336,1.082c-.292.009-.585-.011-.875.015a.778.778,0,0,0-.695.706.8.8,0,0,0,.56.859,1.309,1.309,0,0,0,.2.034.667.667,0,0,1,.642.719,5.888,5.888,0,0,0,.1.948,5.755,5.755,0,0,0,11.411-.848c.025-.579.131-.713.7-.825a.8.8,0,0,0,.67-.592.714.714,0,0,0-.289-.84.886.886,0,0,1-.373-.82c.013-1.313-.006-2.626.009-3.939a2.418,2.418,0,0,0-1.035-2.117,1.3,1.3,0,0,1-.425-.589,1.536,1.536,0,0,0-1.58-1.2c-1.843-.012-3.687-.029-5.53,0a4.294,4.294,0,0,0-4.352,4.139c-.067,1-.016,2.014-.016,3.022,0,.035.03.071.056.127a5.389,5.389,0,0,1,.589,0c.3.033.417-.087.461-.387.079-.536.2-1.066.313-1.6a1.362,1.362,0,0,1,1.919-1.221,13.012,13.012,0,0,0,5.131.21c.663-.1,1.309-.319,1.961-.486.416-.107.745.041.834.381s-.084.613-.511.768a13,13,0,0,1-5.644.619C3530.251,259.812,3529.46,259.644,3528.626,259.516Zm3.778,15.312c.847-.706,1.67-1.393,2.495-2.079a1.094,1.094,0,0,0,.358-1.4,7.054,7.054,0,0,1-5.782-.028,5.713,5.713,0,0,0,.007.722.812.812,0,0,0,.177.48C3530.552,273.3,3531.464,274.045,3532.4,274.828Zm-4.108-1.87-.8,1.2c.685.858,1.355,1.708,2.042,2.545a.333.333,0,0,0,.319.055c.528-.372,1.039-.768,1.584-1.178Zm6.779,3.9c.072-.042.115-.054.138-.082.665-.824,1.33-1.647,1.984-2.479a.3.3,0,0,0,.022-.27c-.219-.356-.46-.7-.709-1.07l-3.142,2.622Z" transform="translate(-3521.21 -253.089)" fill="#133d60"/>
        <path id="Trazado_127756" data-name="Trazado 127756" d="M3582.573,265.266c.376-.049.7-.09,1.03-.134a2.537,2.537,0,0,0,1.537-.848,11.9,11.9,0,0,0,1.119-1.438c.379-.567.652-.662,1.189-.268a9.9,9.9,0,0,0,3.836,1.446c.929.21,1.869.4,2.77.7a3.67,3.67,0,0,1,2.638,4,6.981,6.981,0,0,1-3.328,5.789.552.552,0,0,0-.2.376c-.028.342,0,.689-.01,1.034a.96.96,0,0,0,.686,1c1.467.574,2.928,1.166,4.392,1.751a2.788,2.788,0,0,1,1.995,2.957V284.5c0,.682-.056.759-.711.978V290.8a3.431,3.431,0,0,1-.01.437.584.584,0,0,1-1.154.061,1.949,1.949,0,0,1-.029-.434c0-1.79,0-3.58,0-5.4H3596.7v5.33a3.366,3.366,0,0,1-.006.358.618.618,0,0,1-.6.623.589.589,0,0,1-.586-.662q-.009-3.821,0-7.642a.592.592,0,0,1,.563-.647.607.607,0,0,1,.613.6c.023.248,0,.5,0,.781h2.339c0-.216,0-.436,0-.656,0-.717.008-1.433,0-2.149a1.414,1.414,0,0,0-.807-1.4c-1.285-.559-2.589-1.073-3.814-1.576a27.918,27.918,0,0,1-2,2.335,20.875,20.875,0,0,1-2.286,1.7.75.75,0,0,1-.857-.042,10.438,10.438,0,0,1-3.827-3.628c-.2-.318-.356-.386-.717-.229-1.02.444-2.063.833-3.095,1.248a1.606,1.606,0,0,0-1.182,1.726c-.006.769,0,1.539,0,2.308,0,.116.016.231.026.366h2.316c0-.269-.009-.518,0-.766a.6.6,0,0,1,.589-.626.614.614,0,0,1,.594.585,2.654,2.654,0,0,1,.007.318q0,3.582,0,7.164a1.913,1.913,0,0,1-.036.433.542.542,0,0,1-.579.446.553.553,0,0,1-.565-.512,2.688,2.688,0,0,1-.012-.4q0-2.468,0-4.935v-.463h-1.642v.43q0,2.487,0,4.975a2.542,2.542,0,0,1-.023.436.489.489,0,0,1-.556.452,1.037,1.037,0,0,1-.553-.41c-.088-.116-.059-.332-.059-.5q-.005-2.468,0-4.935v-.42c-.636-.23-.7-.318-.7-.962,0-1.128-.02-2.256.027-3.382a2.494,2.494,0,0,1,1.622-2.307c1.5-.635,3.02-1.222,4.531-1.829.8-.321.823-.434.893-1.293a1.629,1.629,0,0,0-.8-1.645,6.388,6.388,0,0,1-2.649-4.535.661.661,0,0,0-.411-.6,1.747,1.747,0,0,1-1.067-1.568,20.222,20.222,0,0,1,.191-4.835,8.164,8.164,0,0,1,3.469-5.095,1.03,1.03,0,0,0,.584-.974,3.116,3.116,0,0,1,1.755-2.7,4.67,4.67,0,0,1,5.606.741,2.8,2.8,0,0,1,.848,2.195.512.512,0,0,0,.273.547,8.276,8.276,0,0,1,3.6,4.637,11.1,11.1,0,0,1,.354,3.939.519.519,0,0,1-.554.514.512.512,0,0,1-.573-.441,3.922,3.922,0,0,1-.044-.791,8.178,8.178,0,0,0-.78-4.013,7.166,7.166,0,0,0-13.28,1.27A9.291,9.291,0,0,0,3582.573,265.266Zm4.551-1.46a.932.932,0,0,0-.1.083c-.041.052-.081.105-.119.159a4.71,4.71,0,0,1-3.607,2.32.774.774,0,0,0-.729.764.826.826,0,0,0,.712.822c.586.142.684.262.707.868a5.632,5.632,0,0,0,1.584,3.721,5.746,5.746,0,0,0,9.864-4.73,2.007,2.007,0,0,0-1.169-1.69,11.717,11.717,0,0,0-1.987-.665A16.406,16.406,0,0,1,3587.124,263.806Zm4.805,11.369a7.241,7.241,0,0,1-4.445-.013c.107,1.173,0,2.22-1.18,2.788a9.894,9.894,0,0,0,3.173,3.2.512.512,0,0,0,.415.063,9.637,9.637,0,0,0,3.262-3.237C3592.139,277.2,3592.139,277.2,3591.929,275.175Zm.69-18.7.106-.109a5.979,5.979,0,0,0-.533-.99,3.454,3.454,0,0,0-4.927.008,1.44,1.44,0,0,0-.406,1.094A8.5,8.5,0,0,1,3592.619,256.474Z" transform="translate(-3559.471 -253.122)" fill="#133d60"/>
        <path id="Trazado_127757" data-name="Trazado 127757" d="M3570.963,330.642c0-1.79,0-3.579,0-5.369a1.584,1.584,0,0,1,.12-.654c.42-.885.867-1.756,1.307-2.632.136-.27.356-.492.654-.389a.974.974,0,0,1,.485.493c.06.128-.042.357-.12.517-.357.739-.741,1.465-1.092,2.207a1.659,1.659,0,0,0-.159.678q-.015,5.131-.007,10.261c0,.093,0,.186,0,.278,0,.567-.211.858-.608.85s-.585-.291-.586-.833q0-1.611,0-3.221Z" transform="translate(-3554.008 -298.235)" fill="#133d60"/>
        <path id="Trazado_127758" data-name="Trazado 127758" d="M3532.141,330.667q0,2.664,0,5.328c0,.145.041.334-.032.427-.142.18-.341.4-.536.426-.173.019-.417-.179-.546-.346a.972.972,0,0,1-.077-.537c0-3.472,0-6.945-.011-10.417a2.058,2.058,0,0,0-.2-.828c-.333-.721-.708-1.422-1.059-2.134-.219-.442-.136-.792.212-.956.332-.156.636-.016.854.415.425.838.852,1.676,1.253,2.525a1.68,1.68,0,0,1,.134.689C3532.145,327.062,3532.141,328.864,3532.141,330.667Z" transform="translate(-3526.714 -298.232)" fill="#133d60"/>
        <path id="Trazado_127759" data-name="Trazado 127759" d="M3546.733,345.573a.6.6,0,0,1-.592-.575.586.586,0,1,1,1.172-.015A.6.6,0,0,1,3546.733,345.573Z" transform="translate(-3537.645 -313.28)" fill="#133d60"/>
        <path id="Trazado_127760" data-name="Trazado 127760" d="M3547.312,336.675a.585.585,0,1,1-1.17-.01.583.583,0,0,1,.588-.574A.593.593,0,0,1,3547.312,336.675Z" transform="translate(-3537.646 -307.806)" fill="#133d60"/>
        <path id="Trazado_127761" data-name="Trazado 127761" d="M3546.722,353.846a.569.569,0,0,1-.577-.577.582.582,0,0,1,.568-.593.589.589,0,0,1,.6.6A.569.569,0,0,1,3546.722,353.846Z" transform="translate(-3537.648 -318.739)" fill="#133d60"/>
        <path id="Trazado_127762" data-name="Trazado 127762" d="M3550.2,294.433a2.461,2.461,0,0,1-1.83-.87.588.588,0,0,1,.005-.854.574.574,0,0,1,.82.014,4.681,4.681,0,0,0,.393.332,1.1,1.1,0,0,0,1.329-.086c.1-.082.191-.183.292-.267a.553.553,0,0,1,.789,0,.56.56,0,0,1,.041.819A2.434,2.434,0,0,1,3550.2,294.433Z" transform="translate(-3538.995 -279.095)" fill="#133d60"/>
        <path id="Trazado_127763" data-name="Trazado 127763" d="M3544.05,283.155a3.85,3.85,0,0,1,0-.4.533.533,0,0,1,.541-.528.512.512,0,0,1,.6.459,3.642,3.642,0,0,1,.018.869.542.542,0,0,1-.62.53.552.552,0,0,1-.541-.575c-.008-.119,0-.239,0-.358Z" transform="translate(-3536.261 -272.298)" fill="#133d60"/>
        <path id="Trazado_127764" data-name="Trazado 127764" d="M3560.646,283.131c-.013-.637.152-.9.56-.91.427-.012.622.272.619.914a2.7,2.7,0,0,1-.034.474.578.578,0,0,1-1.142-.042A3.826,3.826,0,0,1,3560.646,283.131Z" transform="translate(-3547.204 -272.293)" fill="#133d60"/>
        <path id="Trazado_127765" data-name="Trazado 127765" d="M3606.163,304.811a2.4,2.4,0,0,1-1.867-.9.551.551,0,0,1,.009-.79.572.572,0,0,1,.818-.035c.1.082.191.184.293.267a1.119,1.119,0,0,0,1.426.023c.1-.08.193-.18.294-.265a.58.58,0,0,1,.849.011.6.6,0,0,1-.021.825A2.413,2.413,0,0,1,3606.163,304.811Z" transform="translate(-3575.876 -285.945)" fill="#133d60"/>
        <path id="Trazado_127766" data-name="Trazado 127766" d="M3601.157,293.478c0,.132.007.264,0,.395a.551.551,0,0,1-.553.562.538.538,0,0,1-.6-.5,3.538,3.538,0,0,1-.01-.826.582.582,0,0,1,.611-.549.594.594,0,0,1,.558.6c.008.1,0,.211,0,.316Z" transform="translate(-3573.131 -279.108)" fill="#133d60"/>
        <path id="Trazado_127767" data-name="Trazado 127767" d="M3617.742,293.516c.008.647-.174.937-.58.94s-.608-.3-.606-.932a2.364,2.364,0,0,1,.033-.471.581.581,0,0,1,1.151.069C3617.751,293.252,3617.742,293.384,3617.742,293.516Z" transform="translate(-3584.065 -279.118)" fill="#133d60"/>
      </g>
    </g>
  </g>
</svg>
