<svg id="Grupo_133910" data-name="Grupo 133910" xmlns="http://www.w3.org/2000/svg" width="58.461" height="60" viewBox="0 0 58.461 60">
  <ellipse id="Elipse_4912" data-name="Elipse 4912" cx="29.231" cy="30" rx="29.231" ry="30" fill="#d2f3e8"/>
  <g id="HDMGvP" transform="translate(-4632.943 -214.653)">
    <g id="Grupo_134904" data-name="Grupo 134904" transform="translate(4641.072 226.969)">
      <path id="Trazado_127801" data-name="Trazado 127801" d="M4649.624,283.958a11.422,11.422,0,1,1,11.361,11.445A11.428,11.428,0,0,1,4649.624,283.958Zm11.444-10.134a10.155,10.155,0,1,0,10.131,10.24A10.164,10.164,0,0,0,4661.068,273.824Z" transform="translate(-4647.084 -259.014)" fill="#133d60"/>
      <path id="Trazado_127802" data-name="Trazado 127802" d="M4649.458,238.1a1.97,1.97,0,0,0-.179-.084,3.6,3.6,0,0,1-2.415-3.066,6,6,0,0,1,.645-3.8,11.7,11.7,0,0,1,1.985-2.785l.822.924c-.347.457-.763.954-1.122,1.489a5.506,5.506,0,0,0-1.134,3.394,5.188,5.188,0,0,0,.1.825,2.505,2.505,0,0,0,2.615,2.037,2.347,2.347,0,0,0,.278.008.671.671,0,0,1,.774.473c.1.364-.115.577-.386.788-.936.73-1.909,1.425-2.775,2.233a19.5,19.5,0,0,0-5.654,8.929,14.215,14.215,0,0,0-.32,7.553,10.53,10.53,0,0,0,4.975,6.5,25.893,25.893,0,0,0,2.954,1.419c.476.214.6.328.6.847,0,.554,0,1.109,0,1.693h-1.269c0-.361-.018-.728.006-1.092a.4.4,0,0,0-.315-.458,14.746,14.746,0,0,1-5.76-4.022,11.752,11.752,0,0,1-2.777-8.869c.432-6.11,3.41-10.825,8.027-14.641.091-.076.186-.149.276-.226A.287.287,0,0,0,4649.458,238.1Z" transform="translate(-4641.072 -227.953)" fill="#133d60"/>
      <path id="Trazado_127803" data-name="Trazado 127803" d="M4740.7,235.583l1.165.393c-.324,1.025-.645,2.015-.949,3.009a96.391,96.391,0,0,0-2.364,9.358,11.6,11.6,0,0,0,1.475,8.328c1.208,2.118,2.333,4.292,3.343,6.511a22.37,22.37,0,0,1,1.949,8.916c0,.144,0,.288,0,.46h-1.226c-.06-.816-.1-1.63-.181-2.441a22.57,22.57,0,0,0-2.377-7.96c-.962-1.909-2.017-3.77-3.008-5.664a13.152,13.152,0,0,1-1.379-3.7,12.506,12.506,0,0,1,.106-4.22,81.555,81.555,0,0,1,3.371-12.85A1.3,1.3,0,0,1,4740.7,235.583Z" transform="translate(-4708.512 -233.024)" fill="#133d60"/>
      <path id="Trazado_127804" data-name="Trazado 127804" d="M4752,228.654l-1.192-.416.445-1.269,1.19.428Z" transform="translate(-4718.213 -226.969)" fill="#133d60"/>
      <path id="Trazado_127805" data-name="Trazado 127805" d="M4671.638,296.594c-.423.316-.83.632-1.248.932a1.9,1.9,0,0,1-2.326.059c-.344-.222-.687-.446-1.02-.684-.495-.353-.485-.934.078-1.152a4.083,4.083,0,0,0,1.942-1.719c.1-.154.227-.292.332-.445a1.964,1.964,0,0,1,2.081-.907,10.543,10.543,0,0,0,1.6.146l-.7-.405c-.48-.277-.964-.547-1.441-.83a1.6,1.6,0,0,1,1.49-2.842c.754.35,1.505.706,2.262,1.05a2.047,2.047,0,0,0,.406.09c-.77-.469-1.54-.855-2.215-1.367a3.615,3.615,0,0,1-1.635-3.879,4.286,4.286,0,0,1,3.134-3.36,4.418,4.418,0,0,1,5.547,5.162.44.44,0,0,0,.2.523,3.979,3.979,0,0,1,1.781,3.338,10.55,10.55,0,0,1-2.609,6.975,4.587,4.587,0,0,1-4.373,1.5,5.272,5.272,0,0,1-2.619-1.562C4672.079,297.018,4671.87,296.816,4671.638,296.594Zm7.673-8.645a4.646,4.646,0,0,1-2.327,1.908.241.241,0,0,0-.132.167.828.828,0,0,1-.574.647c-.3.141-.6.277-.886.44a.885.885,0,0,1-.9.005c-.844-.407-1.7-.789-2.547-1.185-.208-.1-.421-.162-.551.082s.03.412.249.535c1.08.61,2.145,1.249,3.242,1.829a1.143,1.143,0,0,1,.7,1.227c-.049.659-.3.886-.967.79-1.084-.156-2.173-.282-3.255-.457a.932.932,0,0,0-.979.418,10.2,10.2,0,0,1-1.723,2.084.7.7,0,0,0,1.04.02c.519-.387,1.033-.779,1.553-1.165.464-.345.715-.28,1.121.132a19.9,19.9,0,0,0,1.8,1.658,2.611,2.611,0,0,0,2.6.329,4.414,4.414,0,0,0,2.355-2.022,10.989,10.989,0,0,0,1.5-4.755A2.972,2.972,0,0,0,4679.311,287.949Zm-.562-2.185a3.27,3.27,0,0,0-2.092-3.2,3.157,3.157,0,0,0-3.512.955,2.525,2.525,0,0,0-.07,3.481,6.243,6.243,0,0,0,2.585,1.625,1.372,1.372,0,0,0,1.114-.053A3.472,3.472,0,0,0,4678.75,285.765Z" transform="translate(-4659.078 -265.022)" fill="#133d60"/>
    </g>
  </g>
</svg>
