<svg id="Grupo_133912" data-name="Grupo 133912" xmlns="http://www.w3.org/2000/svg" width="58.461" height="60" viewBox="0 0 58.461 60">
  <ellipse id="Elipse_4912" data-name="Elipse 4912" cx="29.231" cy="30" rx="29.231" ry="30" fill="#d2f3e8"/>
  <g id="bMElXF" transform="translate(-4962.797 -213.965)">
    <g id="Grupo_134906" data-name="Grupo 134906" transform="translate(4972.606 225.928)">
      <path id="Trazado_127822" data-name="Trazado 127822" d="M4972.605,247.28a.481.481,0,0,0,.074-.123,2.537,2.537,0,0,1,1.844-1.88c1.433-.433,2.864-.875,4.3-1.287.31-.088.365-.228.39-.527a2,2,0,0,0-.737-1.855,5.95,5.95,0,0,1-1.875-3.773.6.6,0,0,0-.276-.385,1.9,1.9,0,0,1-.585-2.992.757.757,0,0,0,.156-.443c.014-.884.033-1.77,0-2.653a5.185,5.185,0,0,1,5.023-5.416c1.9-.024,3.794-.032,5.689.026a2.352,2.352,0,0,1,2.124,1.588,1.209,1.209,0,0,0,.307.42,3.175,3.175,0,0,1,1.182,2.483c.006,1.166-.006,2.333.012,3.5a.943.943,0,0,0,.2.541,1.886,1.886,0,0,1-.587,2.911.535.535,0,0,0-.346.479c-.051.417-.161.826-.251,1.266.111.06.231.129.354.19a26.3,26.3,0,0,1,2.36,1.2,1.617,1.617,0,0,0,1.99-.019.491.491,0,0,0,.271-.442c.039-1.319.1-2.638.14-3.958a7.808,7.808,0,0,1,15.535-.834c.137,1.011.077,2.047.155,3.068q.268,3.505.589,7.006a.933.933,0,0,1-.555.952,13.478,13.478,0,0,1-3.781,1.563l-.494.129c.188.084.308.141.43.19,1.318.529,2.638,1.054,3.954,1.587a2.56,2.56,0,0,1,1.783,2.632c0,.974,0,1.948,0,2.922a.653.653,0,0,1-.485.729c-.087.027-.17.23-.17.353-.011,1.564-.006,3.127-.009,4.691a2.11,2.11,0,0,1-.031.459.508.508,0,0,1-.526.418.5.5,0,0,1-.546-.391,2.016,2.016,0,0,1-.047-.495q0-2.288,0-4.576v-.426h-1.484v1.02c0,1.384,0,2.768,0,4.153,0,.463-.2.714-.562.719s-.587-.252-.587-.7q-.007-3.48,0-6.96c0-.452.227-.719.578-.721s.566.261.574.716c0,.177,0,.355,0,.563h2.146v-.354c0-.744.005-1.487,0-2.23a1.376,1.376,0,0,0-.842-1.351c-.724-.317-1.463-.6-2.229-.91a5.9,5.9,0,0,1-9.805,2.268,5.366,5.366,0,0,1-1.511,2.4,1.7,1.7,0,0,1-.447.358c-.573.225-.508.7-.466,1.148a.423.423,0,0,0,.252.265c.59.213,1.189.4,1.782.6a2.549,2.549,0,0,1,1.894,2.621c0,.538.006,1.077,0,1.615-.005.427-.223.672-.573.67s-.567-.251-.576-.678c-.01-.538,0-1.077,0-1.615a1.6,1.6,0,0,0-1.467-1.634.393.393,0,0,0-.266.156,4.517,4.517,0,0,1-7.234,0,.436.436,0,0,0-.369-.115,1.541,1.541,0,0,0-1.364,1.785c0,.474.006.948,0,1.423-.007.424-.229.677-.573.679s-.571-.252-.577-.672q-.01-.846,0-1.692a2.55,2.55,0,0,1,1.79-2.508c.6-.215,1.209-.42,1.821-.605a.425.425,0,0,0,.349-.452,1.02,1.02,0,0,0-.519-1.026,4.94,4.94,0,0,1-2.076-3.536c-.027-.215-.042-.432-.067-.686a2.149,2.149,0,0,1-1.518-.692c-.046-.052-.237-.024-.333.023a6.661,6.661,0,0,1-2.284.62,6.525,6.525,0,0,1-6.767-4.581c-.036-.121-.076-.241-.118-.378-.657.2-1.3.381-1.928.586a1.349,1.349,0,0,0-1.027,1.334c-.021,1.934-.007,3.868-.007,5.834h2.755c0-.8.02-1.6-.014-2.385a1.443,1.443,0,0,0-.284-.62c-.265-.423-.557-.829-.826-1.25a.593.593,0,0,1,.117-.878.581.581,0,0,1,.829.225,12.14,12.14,0,0,1,1,1.547,3.365,3.365,0,0,1,.351,1.389c.03,3.217.017,6.434.015,9.651a1.757,1.757,0,0,1-.018.268.558.558,0,0,1-1.1.031,2.349,2.349,0,0,1-.036-.458q0-2.923,0-5.845v-.469h-2.111c-.007.161-.021.309-.021.458q0,2.884,0,5.768c0,.1,0,.205,0,.307-.022.441-.219.679-.564.686-.364.008-.584-.238-.585-.7q-.008-3.057,0-6.114c0-.248,0-.434-.318-.5-.133-.026-.232-.219-.347-.335Zm27.349-11.226c-.051.047-.078.06-.087.082a3.92,3.92,0,0,1-2.767,2.119.572.572,0,1,1-.355-1.088c.176-.075.363-.123.542-.192a2.394,2.394,0,0,0,1.7-1.947.556.556,0,0,1,.948-.372,8.417,8.417,0,0,0,3.278,1.335c1.046.24,2.1.454,3.122.787a3.083,3.083,0,0,1,2.27,2.645,6.245,6.245,0,0,1-2.708,6.239,1.028,1.028,0,0,0-.468,1.213.357.357,0,0,0,.113.013,14.016,14.016,0,0,0,3.622-1.342.467.467,0,0,0,.28-.547,88.867,88.867,0,0,1-.618-8.928,6.3,6.3,0,0,0-.333-1.8,6.648,6.648,0,0,0-12.879,1.133c-.143,1.152-.116,2.326-.162,3.49-.011.277,0,.554,0,.878.356-.176.684-.34,1.015-.5.644-.312,1.012-.083,1.019.64.007.692-.009,1.384.01,2.076a1.011,1.011,0,0,0,.18.475c.421.667.853,1.328,1.289,1.985a1.367,1.367,0,0,0,.339.389,5.319,5.319,0,0,0,8.171-5.2,2.037,2.037,0,0,0-.684-1.294,5.171,5.171,0,0,0-2.3-.9A15.458,15.458,0,0,1,4999.955,236.053Zm-22.865-2.22a5.215,5.215,0,0,1,.591,0c.278.033.411-.07.48-.345.091-.358.247-.7.345-1.057a.714.714,0,0,1,.747-.581c.679-.023,1.357-.061,2.034-.109a16.433,16.433,0,0,0,5.426-1.113.572.572,0,0,1,.834.283.552.552,0,0,1-.378.76,19.215,19.215,0,0,1-2.034.679,24.846,24.846,0,0,1-5.253.628.405.405,0,0,0-.457.343c-.1.383-.251.752-.369,1.13a.667.667,0,0,1-.735.534,5.559,5.559,0,0,0-1.036.009,1.279,1.279,0,0,0-.708.3.7.7,0,0,0,.428,1.149c.619.157.672.219.726.847.017.192.021.385.05.574a5.346,5.346,0,0,0,10.617-.417c.063-.786.064-.785.809-1.016a.691.691,0,0,0,.522-.721.647.647,0,0,0-.531-.667,5.238,5.238,0,0,0-.762-.057c-.4-.019-.648-.22-.664-.548s.244-.581.656-.6c.211-.011.422,0,.64,0,0-1.205.017-2.345-.006-3.484a1.978,1.978,0,0,0-.832-1.534,1.527,1.527,0,0,1-.485-.608,1.453,1.453,0,0,0-1.539-1.127c-1.679-.007-3.358-.022-5.036,0a3.989,3.989,0,0,0-4.058,3.511A28.318,28.318,0,0,0,4977.089,233.833Zm10.513,13.133a1.5,1.5,0,0,0,.182.018,21.638,21.638,0,0,0,4.938-.679c1.078-.3,2.117-.747,3.164-1.151.458-.177.867-.036.926.386.046.332-.157.517-.423.66a14.723,14.723,0,0,1-3.714,1.319,26.551,26.551,0,0,1-4.948.629.792.792,0,0,0-.778.747.755.755,0,0,0,.757.761c.191.015.384,0,.577.007a.583.583,0,0,1,.63.621c.01.23,0,.461.006.692a4.1,4.1,0,0,0,2.622,3.691,4.047,4.047,0,0,0,5.448-3.761c.017-1.176.017-1.176,1.169-1.247a.754.754,0,0,0,.761-.532.785.785,0,0,0-.293-.845,1.239,1.239,0,0,1-.309-.651c-.055-.364-.008-.743-.037-1.113a5.073,5.073,0,0,0-.892-2.542.674.674,0,0,1-.9.1c-1.062-.537-2.133-1.057-3.192-1.6a.651.651,0,0,0-.674-.009c-1.034.536-2.082,1.044-3.122,1.569-.339.171-.666.3-.979-.072A5.425,5.425,0,0,0,4987.6,246.966Zm10.7,3.863a4.61,4.61,0,0,0,8.325-1.264c-1.536-.388-2.709-1.111-2.355-3.046a6.78,6.78,0,0,1-4.824-.258c0,.2,0,.352,0,.5a1.71,1.71,0,0,0,.329,1.124,1.846,1.846,0,0,1-1.137,2.864C4998.531,250.78,4998.419,250.8,4998.3,250.829Zm-12.526-7.854a6.694,6.694,0,0,1-5.406.009c0,.54-.023,1.039,0,1.534a2.707,2.707,0,0,0,2.108,2.435,2.754,2.754,0,0,0,2.944-1.322A5.329,5.329,0,0,0,4985.778,242.975Zm-7.92,2.5a5.29,5.29,0,0,0,1.039,2.147,5.349,5.349,0,0,0,6.436,1.521c.292-.144.509-.28.524-.661a.986.986,0,0,1,.277-.617c.5-.475.234-1.064.325-1.606a3.869,3.869,0,0,1-4.02,1.84,3.815,3.815,0,0,1-3.181-3.045Zm17.683,12.145a1.4,1.4,0,0,1-1.2-1.631h-2.8a1.379,1.379,0,0,1-1.183,1.639A3.336,3.336,0,0,0,4995.541,257.624Zm-7.114-16.731c-.481.453-.937.878-1.386,1.308a.311.311,0,0,0-.1.194c-.008.619,0,1.239,0,1.908a.879.879,0,0,0,.122-.106q.617-.894,1.23-1.791a.573.573,0,0,0,.132-.261C4988.435,241.729,4988.427,241.311,4988.427,240.893Zm3.235.772-2.059-1.028v2.056Zm2.583,0,2.057,1.022v-2.05Z" transform="translate(-4972.605 -225.928)" fill="#133d60"/>
      <path id="Trazado_127823" data-name="Trazado 127823" d="M5070.852,282.75a2.34,2.34,0,0,1-1.8-.8.571.571,0,1,1,.8-.812c.743.624,1.045.624,1.788,0a.565.565,0,0,1,.825-.018.575.575,0,0,1-.017.826A2.2,2.2,0,0,1,5070.852,282.75Z" transform="translate(-5041.18 -265.125)" fill="#133d60"/>
      <path id="Trazado_127824" data-name="Trazado 127824" d="M5065.418,270.421a2.469,2.469,0,0,1,0,.269.61.61,0,0,1-.58.6.592.592,0,0,1-.567-.646c-.007-.179-.008-.359,0-.538a.583.583,0,0,1,.551-.62.6.6,0,0,1,.592.587,3.14,3.14,0,0,1,0,.346Z" transform="translate(-5037.901 -256.958)" fill="#133d60"/>
      <path id="Trazado_127825" data-name="Trazado 127825" d="M5083.713,270.412c0,.6-.168.876-.551.887s-.6-.292-.6-.9a2.565,2.565,0,0,1,.019-.383.565.565,0,0,1,1.127.048C5083.721,270.181,5083.713,270.3,5083.713,270.412Z" transform="translate(-5050.937 -256.966)" fill="#133d60"/>
      <path id="Trazado_127826" data-name="Trazado 127826" d="M5004.4,271.309a2.37,2.37,0,0,1-1.8-.821.575.575,0,0,1,.008-.827.562.562,0,0,1,.795.018c.761.637,1.053.637,1.817,0a.565.565,0,0,1,.823.008.578.578,0,0,1-.017.8A2.347,2.347,0,0,1,5004.4,271.309Z" transform="translate(-4993.853 -256.971)" fill="#133d60"/>
      <path id="Trazado_127827" data-name="Trazado 127827" d="M5016.167,258.929a2.909,2.909,0,0,1,0-.345.528.528,0,0,1,.527-.512.508.508,0,0,1,.579.446,3.157,3.157,0,0,1,.012.839.537.537,0,0,1-.58.5.567.567,0,0,1-.544-.584c-.008-.114,0-.23,0-.346Z" transform="translate(-5003.633 -248.825)" fill="#133d60"/>
      <path id="Trazado_127828" data-name="Trazado 127828" d="M4998.926,258.944c0,.077,0,.154,0,.231-.013.416-.238.68-.574.677a.606.606,0,0,1-.575-.647,3.3,3.3,0,0,1,.011-.613.568.568,0,0,1,1.134.045c.008.1,0,.205,0,.307Z" transform="translate(-4990.53 -248.813)" fill="#133d60"/>
      <path id="Trazado_127829" data-name="Trazado 127829" d="M5038.7,317.157a2.279,2.279,0,0,1-1.731-.8.564.564,0,0,1-.017-.825.607.607,0,0,1,.829.011,1.771,1.771,0,0,0,.814.426,1.575,1.575,0,0,0,.878-.353c.366-.264.674-.332.917-.085s.21.588-.1.91A2.254,2.254,0,0,1,5038.7,317.157Z" transform="translate(-5018.323 -289.646)" fill="#133d60"/>
      <path id="Trazado_127830" data-name="Trazado 127830" d="M5035.108,307.309a.548.548,0,0,1-.545-.566.561.561,0,1,1,1.121.03A.547.547,0,0,1,5035.108,307.309Z" transform="translate(-5016.742 -283.1)" fill="#133d60"/>
      <path id="Trazado_127831" data-name="Trazado 127831" d="M5048.765,306.184a.563.563,0,1,1-.565.55A.553.553,0,0,1,5048.765,306.184Z" transform="translate(-5026.456 -283.1)" fill="#133d60"/>
    </g>
  </g>
</svg>
