<svg xmlns="http://www.w3.org/2000/svg" width="85" height="85" viewBox="0 0 85 85">
  <g id="Grupo_135068" data-name="Grupo 135068" transform="translate(-3782 1769.5)">
    <circle id="Elipse_5017" data-name="Elipse 5017" cx="42.5" cy="42.5" r="42.5" transform="translate(3782 -1769.5)" fill="#5bd3a9"/>
    <g id="hAraeC" transform="translate(924.097 -5438.862)">
      <g id="Grupo_135020" data-name="Grupo 135020" transform="translate(2871.403 3685.862)">
        <path id="Trazado_128294" data-name="Trazado 128294" d="M2914.529,3717.171h-.594c-1.729,0-3.459,0-5.189,0-1.307,0-1.869-.562-1.869-1.855q0-4.945,0-9.889a1.6,1.6,0,0,1,1.844-1.833q6.446,0,12.893,0a1.6,1.6,0,0,1,1.819,1.808q.011,4.972,0,9.944c0,1.252-.583,1.819-1.851,1.824-1.729.005-3.459,0-5.189,0h-.627v9.751c.794,0,1.578.062,2.35-.012a2.453,2.453,0,0,1,2.489,3.607h4.717v1.127h-7.833v3.538c.58,0,1.155,0,1.731,0a2.125,2.125,0,0,1,2.348,2.325c0,.327,0,.655,0,.983-.012.764-.107,1.444.867,1.89a2.093,2.093,0,0,1,.784,2.649,2.369,2.369,0,0,1-4.527-.309,2.243,2.243,0,0,1,1.187-2.571.848.848,0,0,0,.564-1c-.035-.489-.007-.983-.008-1.475,0-1.055-.276-1.337-1.312-1.337H2888.6v5.137h3.164v2.927h-1.122v-1.752h-5.288v1.767h-1.122v-2.93h3.169v-5.1a4.058,4.058,0,0,0-.421-.043q-2.459-.005-4.917,0c-.768,0-1.1.323-1.115,1.09-.013.637.011,1.275-.009,1.912a.659.659,0,0,0,.45.74,2.294,2.294,0,0,1,1.311,2.565,2.372,2.372,0,0,1-4.592.24,2.3,2.3,0,0,1,1.271-2.82.618.618,0,0,0,.426-.691c-.028-.655-.013-1.311-.007-1.966a2.113,2.113,0,0,1,2.229-2.231c.614-.01,1.229,0,1.875,0v-3.5a1.2,1.2,0,0,0-.278-.025,3.8,3.8,0,0,1-2.722-.828c-2.947-1.908-5.933-3.759-8.9-5.633-.184-.116-.364-.238-.595-.389l.584-.964,4.689,2.949c.329-1.451,1.01-2.21,2.187-2.264a3.112,3.112,0,0,1,1.544.386c.974.527,1.881,1.177,2.833,1.748a1.723,1.723,0,0,0,.807.244c1.1.027,2.212.011,3.348.011v-31.238h-.882c-1.639,0-3.278-.018-4.917.016a1.389,1.389,0,0,0-.839.356c-.719.668-1.391,1.386-2.042,2.046l-2.656-2.648.817-.727,1.744,1.857c.6-.606,1.136-1.191,1.721-1.727a1.226,1.226,0,0,1,.75-.316q6.91-.028,13.821,0a1.142,1.142,0,0,1,.706.295c.583.543,1.124,1.131,1.707,1.728l1.788-1.9.847.936-1.407,1.253c.441.618.778,1.118,1.149,1.59a.793.793,0,0,0,.47.242,12.335,12.335,0,0,1,1.243.125,2.242,2.242,0,0,1,1.643,2.146c.014,3.15.019,6.3,0,9.451a2.28,2.28,0,0,1-2.287,2.245c-.307.007-.613,0-.986,0v2.089h-1.6v9.03h.623q5.326,0,10.653,0a1.926,1.926,0,0,1,2.165,2.145c.01,1.007.01,1.009,1.009,1.007q.874,0,1.748-.012a.631.631,0,0,0,.146-.051Zm-18.364-20.3a9.65,9.65,0,0,1-.873-.788,1.2,1.2,0,0,0-1-.406c-1.712.02-3.423.007-5.135.01-.19,0-.381.02-.572.031v31.163h2.05c0-.4-.01-.767,0-1.129a1.916,1.916,0,0,1,2.012-1.979c.547-.007,1.093,0,1.639,0h2.646a.822.822,0,0,0,.076-.207c0-2.823.011-5.646-.007-8.468,0-.114-.218-.308-.35-.322a11.65,11.65,0,0,0-1.244-.016v-2.105c-.49,0-.922.005-1.355,0a2.286,2.286,0,0,1-2.356-2.341q-.019-4.616,0-9.233a2.308,2.308,0,0,1,2.326-2.383,4.927,4.927,0,0,0,.653-.013.646.646,0,0,0,.371-.225C2895.395,3697.986,2895.724,3697.5,2896.165,3696.869Zm19.427,14.1-1.643,2.656-2.183-3.7c-.359.406-.7.757-1,1.144a.986.986,0,0,1-.925.433c-.594-.036-1.191-.009-1.837-.009,0,1.413-.008,2.755.006,4.1,0,.336.243.448.564.448q6.579-.005,13.159,0c.388,0,.564-.171.563-.56q-.005-5.078,0-10.157c0-.388-.166-.568-.555-.568q-6.579,0-13.158,0c-.422,0-.59.2-.586.6.007.674,0,1.347,0,2.021,0,.977,0,1.955,0,2.984.458,0,.858-.031,1.25.008a1.061,1.061,0,0,0,1.021-.456c.522-.647,1.093-1.255,1.683-1.923l2.017,3.421,1.477-2.375c.625.724,1.231,1.4,1.8,2.1a.94.94,0,0,0,.878.409c.39-.033.785-.007,1.176-.007v1.079c-2.064.219-2.064.219-3.375-1.275C2915.836,3711.227,2915.737,3711.124,2915.591,3710.966Zm-30.5,24.176h31.167v-3.458h-31.167Zm7.737-29.281c.163-.04.284-.062.4-.1a3.848,3.848,0,0,1,3.583.5,4.639,4.639,0,0,0,4.815.286.535.535,0,0,0,.294-.371c.017-1.728.028-3.457-.005-5.185a1.1,1.1,0,0,0-1.149-1.143q-3.383-.025-6.767,0a1.091,1.091,0,0,0-1.159,1.073C2892.8,3702.558,2892.828,3704.191,2892.828,3705.862Zm17.637,22.224h-18.649v2.4h18.649Zm-8.537-20.385-.391.112c-1.948.565-3.8.633-5.539-.709a2.727,2.727,0,0,0-2.954-.031.5.5,0,0,0-.22.375c-.018.946-.028,1.893,0,2.837a1.162,1.162,0,0,0,1.2,1.23q3.355.038,6.711,0a1.143,1.143,0,0,0,1.188-1.178C2901.955,3709.485,2901.928,3708.631,2901.928,3707.7Zm-11.32,20.35c-2.318,0-4.572.011-6.825-.013a2.008,2.008,0,0,1-.954-.283c-.984-.583-1.939-1.216-2.912-1.82a1.242,1.242,0,1,0-1.308,2.08c1.195.761,2.39,1.524,3.6,2.26a1.654,1.654,0,0,0,.81.231c2.346.018,4.692.011,7.038.008.186,0,.371-.031.55-.048Zm19.885-1.162v-.781c0-1-.213-1.217-1.208-1.217h-11.108v2Zm1.185,1.165v2.463c1.324,0,2.6,0,3.87,0,1.019,0,2.04.018,3.058-.025a1.2,1.2,0,0,0,1.162-1.213,1.221,1.221,0,0,0-1.226-1.217C2916.266,3728.043,2913.991,3728.054,2911.677,3728.054Zm-19.821-1.134c1.632,0,3.25,0,4.867-.01.1,0,.272-.15.275-.236.025-.577.013-1.155.013-1.783-1.208,0-2.352.03-3.494-.007-1.892-.06-1.745.32-1.718,1.851A1.124,1.124,0,0,0,2891.856,3726.92Zm30.361,15.267a1.219,1.219,0,1,0-1.195,1.24A1.228,1.228,0,0,0,2922.217,3742.187Zm-41.837-1.224a1.232,1.232,0,1,0,1.216,1.23A1.254,1.254,0,0,0,2880.38,3740.962Zm18.211-28.264h-2.018v.885h2.018Zm-2.366-14.052h2.3a1.235,1.235,0,0,0-1.154-.687A1.217,1.217,0,0,0,2896.225,3698.646Z" transform="translate(-2871.403 -3691.476)" fill="#133d60"/>
        <path id="Trazado_128295" data-name="Trazado 128295" d="M2909.859,3721.554h1.117v8.2c0,1.01-.048,1.047-1.117.829Z" transform="translate(-2896.314 -3708.983)" fill="#133d60"/>
        <path id="Trazado_128296" data-name="Trazado 128296" d="M2964.523,3817.735v-1.064h9.141v1.064Z" transform="translate(-2931.725 -3770.598)" fill="#133d60"/>
        <path id="Trazado_128297" data-name="Trazado 128297" d="M2958.233,3816.71v1.045h-1.752v-1.045Z" transform="translate(-2926.515 -3770.624)" fill="#133d60"/>
        <path id="Trazado_128298" data-name="Trazado 128298" d="M2910.95,3714.89h-1.077v-1.669h1.077Z" transform="translate(-2896.323 -3703.585)" fill="#133d60"/>
        <path id="Trazado_128299" data-name="Trazado 128299" d="M3006.995,3693.485l-.054-1.057,1.135-.061v1.118Z" transform="translate(-2959.203 -3690.076)" fill="#133d60"/>
        <path id="Trazado_128300" data-name="Trazado 128300" d="M2913.047,3685.92l1.09-.054.051,1.127h-1.141Z" transform="translate(-2898.38 -3685.865)" fill="#133d60"/>
        <path id="Trazado_128301" data-name="Trazado 128301" d="M3014.684,3692.411v1.055l-1.093.052v-1.107Z" transform="translate(-2963.511 -3690.104)" fill="#133d60"/>
        <path id="Trazado_128302" data-name="Trazado 128302" d="M2985.5,3704.736h-1.053l-.054-1.092h1.107Z" transform="translate(-2944.594 -3697.381)" fill="#133d60"/>
        <path id="Trazado_128303" data-name="Trazado 128303" d="M2877.861,3735.181h-1.127V3734.1h1.078Z" transform="translate(-2874.856 -3717.107)" fill="#133d60"/>
        <path id="Trazado_128304" data-name="Trazado 128304" d="M2906.574,3686.128h1.086v1.076h-1.086Z" transform="translate(-2894.187 -3686.034)" fill="#133d60"/>
        <path id="Trazado_128305" data-name="Trazado 128305" d="M2971.555,3705.017v-1.091h1.065v1.091Z" transform="translate(-2936.281 -3697.564)" fill="#133d60"/>
        <path id="Trazado_128306" data-name="Trazado 128306" d="M2884.3,3733.943v1.076l-1.087.057v-1.133Z" transform="translate(-2879.052 -3717.008)" fill="#133d60"/>
        <path id="Trazado_128307" data-name="Trazado 128307" d="M3001.607,3693.772h-1.079l-.048-1.07h1.127Z" transform="translate(-2955.017 -3690.293)" fill="#133d60"/>
        <path id="Trazado_128308" data-name="Trazado 128308" d="M2919.483,3686.906v-1.044h1.094l.053,1.044Z" transform="translate(-2902.548 -3685.862)" fill="#133d60"/>
        <path id="Trazado_128309" data-name="Trazado 128309" d="M2889.723,3733.822h1.051v1.067h-1.051Z" transform="translate(-2883.271 -3716.93)" fill="#133d60"/>
        <path id="Trazado_128310" data-name="Trazado 128310" d="M2978.068,3704.866v-1.04h1.05v1.04Z" transform="translate(-2940.499 -3697.499)" fill="#133d60"/>
        <path id="Trazado_128311" data-name="Trazado 128311" d="M3001.688,3726.3h3.4v1.08h-3.4Z" transform="translate(-2955.8 -3712.055)" fill="#133d60"/>
        <path id="Trazado_128312" data-name="Trazado 128312" d="M3005.1,3732.712v1.042h-3.408v-1.042Z" transform="translate(-2955.8 -3716.211)" fill="#133d60"/>
      </g>
    </g>
  </g>
</svg>
