<svg xmlns="http://www.w3.org/2000/svg" width="58.461" height="60" viewBox="0 0 58.461 60">
  <g id="Grupo_135078" data-name="Grupo 135078" transform="translate(-6197 1128.5)">
    <g id="Grupo_135072" data-name="Grupo 135072" transform="translate(5001.31 -9577.5)">
      <g id="Grupo_133941" data-name="Grupo 133941" transform="translate(1195.69 8449)">
        <ellipse id="Elipse_4912" data-name="Elipse 4912" cx="29.231" cy="30" rx="29.231" ry="30" fill="#d2f3e8"/>
        <g id="Grupo_135024" data-name="Grupo 135024" transform="translate(-2547.683 -3692.567)">
          <path id="Trazado_128340" data-name="Trazado 128340" d="M2586.235,3740.963a19.312,19.312,0,0,1-1.98-.468,8.427,8.427,0,0,1-5.1-4.7c-.043-.1-.085-.193-.127-.289a15.791,15.791,0,0,1-14.731-3.356,15.312,15.312,0,0,1-5.494-11.409,15.9,15.9,0,0,1,16.56-16.557,15.34,15.34,0,0,1,12.254,6.557,15.659,15.659,0,0,1,2.513,13.6c.649.38,1.312.7,1.9,1.124a8.382,8.382,0,0,1,3.492,5.952,1.208,1.208,0,0,0,.062.2v1.509c-.022.09-.05.18-.064.272a8.424,8.424,0,0,1-5.956,7.165,15.247,15.247,0,0,1-1.814.4Zm-2.893-16.438c.967-.223,1.89-.452,2.822-.64a.381.381,0,0,0,.351-.315,12.079,12.079,0,0,0,.267-5.791,12.275,12.275,0,1,0-8.6,14.128.378.378,0,0,0,.319-.386,8.253,8.253,0,0,1,3.171-5.787,1.221,1.221,0,0,0,.421-1.3c-.229,0-.442.006-.654,0a1.82,1.82,0,0,1-1.75-1.6,1.793,1.793,0,0,1,1.365-2,3.686,3.686,0,0,1,.819-.063c1.013-.007,1.471.452,1.472,1.462C2583.344,3723.02,2583.343,3723.81,2583.343,3724.525Zm-3.67,7.84a7.344,7.344,0,1,0,7.394-7.309A7.348,7.348,0,0,0,2579.672,3732.365Zm-1.211.749a13.287,13.287,0,0,1-11.625-2.077,12.985,12.985,0,0,1-5.566-10.424,13.436,13.436,0,0,1,13.366-13.975,12.848,12.848,0,0,1,9.681,4.007,13.382,13.382,0,0,1,3.427,13.2l1.163.172a14.717,14.717,0,1,0-10.269,10.263Zm3.635-11.119c-.4.018-.844-.15-1.084.275a.786.786,0,0,0,0,.658c.24.43.686.25,1.085.279Z" transform="translate(0)" fill="#133d60"/>
          <path id="Trazado_128341" data-name="Trazado 128341" d="M2584.353,3746.647a2.939,2.939,0,0,1-.514-.475.522.522,0,0,1,.131-.684c.292-.284.6-.556.895-.831l14.143-13.013a2.368,2.368,0,0,1,.355-.3.578.578,0,0,1,.755.087.571.571,0,0,1,.047.783,6.271,6.271,0,0,1-.564.552q-7.282,6.7-14.569,13.4A7.118,7.118,0,0,1,2584.353,3746.647Z" transform="translate(-17.572 -19.047)" fill="#133d60"/>
          <path id="Trazado_128342" data-name="Trazado 128342" d="M2597.373,3738.422a1.864,1.864,0,0,1-.172,2.6,1.842,1.842,0,0,1-2.429,0,1.863,1.863,0,0,1-.175-2.59c-.64-1.12-.561-2.023.234-2.67a1.848,1.848,0,0,1,2.374.051A1.882,1.882,0,0,1,2597.373,3738.422Zm-.772-1.219a.613.613,0,0,0-.613-.612.592.592,0,0,0-.6.577.614.614,0,0,0,.586.639A.63.63,0,0,0,2596.6,3737.2Zm-.631,1.835a.6.6,0,0,0-.586.632.612.612,0,0,0,.6.585.628.628,0,0,0,.612-.62A.615.615,0,0,0,2595.97,3739.038Z" transform="translate(-24.892 -21.94)" fill="#133d60"/>
          <path id="Trazado_128343" data-name="Trazado 128343" d="M2615.164,3763.823c-.246,0-.448,0-.65,0a1.833,1.833,0,0,1-.018-3.665c.192-.006.383-.005.575,0a1.217,1.217,0,0,1,1.313,1.295c.013,1.366.008,2.73,0,4.1,0,.463-.24.726-.618.723s-.6-.266-.6-.735C2615.159,3764.973,2615.164,3764.412,2615.164,3763.823Zm-.021-2.447c-.4.037-.842-.142-1.081.285a.791.791,0,0,0,0,.657c.238.431.685.248,1.081.283Z" transform="translate(-37.946 -39.391)" fill="#133d60"/>
          <path id="Trazado_128344" data-name="Trazado 128344" d="M2585.883,3738.429c0-.766,0-1.532,0-2.3,0-.473.217-.727.6-.727s.616.265.617.724q.006,2.336,0,4.67a.636.636,0,0,1-.632.716c-.361-.01-.586-.276-.588-.713C2585.88,3740.01,2585.883,3739.219,2585.883,3738.429Z" transform="translate(-19.065 -21.976)" fill="#133d60"/>
          <path id="Trazado_128345" data-name="Trazado 128345" d="M2637.6,3792.969h6.739c-.286-.273-.511-.479-.725-.7a.617.617,0,1,1,.861-.862q.845.831,1.677,1.676a.633.633,0,0,1,0,1.028q-.845.857-1.7,1.7a.607.607,0,0,1-.92.061.626.626,0,0,1,.055-.923c.213-.225.428-.448.642-.673,0-.005,0-.022-.006-.053h-6.715c.272.276.5.5.725.738a.613.613,0,0,1,.061.872.585.585,0,0,1-.866.038q-.945-.908-1.855-1.854a.561.561,0,0,1,0-.839q.913-.941,1.855-1.854a.585.585,0,0,1,.84.02.594.594,0,0,1,.005.842c-.228.244-.487.459-.733.687Z" transform="translate(-53.899 -61.211)" fill="#133d60"/>
        </g>
      </g>
    </g>
  </g>
</svg>
