<svg xmlns="http://www.w3.org/2000/svg" width="84.58" height="88.784" viewBox="0 0 84.58 88.784">
  <g id="Grupo_133801" data-name="Grupo 133801" transform="translate(-179.999 -818)">
    <path id="Trazado_113510" data-name="Trazado 113510" d="M181.093,82.636c-3.492,0-5.216-2.787-6.6-5.028-1.4-2.267-2.353-3.657-4.141-3.657s-2.736,1.39-4.136,3.657c-1.385,2.241-3.109,5.028-6.6,5.028s-5.216-2.787-6.6-5.028c-1.4-2.267-2.351-3.657-4.138-3.657s-2.735,1.39-4.136,3.657c-1.385,2.241-3.109,5.028-6.6,5.028s-5.214-2.789-6.6-5.03c-1.4-2.266-2.35-3.655-4.134-3.655s-2.733,1.39-4.134,3.655c-1.385,2.243-3.107,5.03-6.6,5.03s-5.213-2.787-6.6-5.03c-1.4-2.266-2.35-3.655-4.134-3.655a1.447,1.447,0,1,1,0-2.895c3.489,0,5.213,2.787,6.6,5.028,1.4,2.267,2.35,3.657,4.134,3.657s2.733-1.39,4.134-3.657c1.385-2.241,3.109-5.028,6.6-5.028s5.213,2.787,6.6,5.028c1.4,2.267,2.35,3.657,4.136,3.657s2.735-1.39,4.136-3.657c1.385-2.241,3.109-5.028,6.6-5.028s5.214,2.787,6.6,5.028c1.4,2.267,2.35,3.657,4.138,3.657s2.735-1.39,4.136-3.657c1.383-2.241,3.109-5.028,6.6-5.028s5.218,2.787,6.6,5.028c1.4,2.267,2.353,3.657,4.139,3.657s2.738-1.39,4.141-3.657c1.385-2.241,3.11-5.028,6.6-5.028a1.447,1.447,0,1,1,0,2.895c-1.788,0-2.738,1.39-4.141,3.657C186.311,79.848,184.587,82.636,181.093,82.636Z" transform="translate(108.943 1011.283) rotate(-90)" fill="#008bfd"/>
    <path id="Trazado_113511" data-name="Trazado 113511" d="M181.093,90.3c-3.492,0-5.216-2.789-6.6-5.028-1.4-2.269-2.353-3.658-4.141-3.658s-2.736,1.39-4.136,3.657c-1.385,2.241-3.109,5.03-6.6,5.03s-5.216-2.789-6.6-5.03c-1.4-2.267-2.351-3.657-4.138-3.657s-2.735,1.39-4.136,3.657c-1.385,2.241-3.109,5.03-6.6,5.03s-5.214-2.791-6.6-5.03c-1.4-2.267-2.35-3.657-4.134-3.657s-2.733,1.39-4.134,3.657c-1.385,2.241-3.107,5.03-6.6,5.03s-5.213-2.789-6.6-5.03c-1.4-2.267-2.35-3.657-4.134-3.657a1.447,1.447,0,1,1,0-2.894c3.489,0,5.213,2.789,6.6,5.03,1.4,2.266,2.35,3.655,4.134,3.655s2.733-1.39,4.134-3.655c1.385-2.241,3.109-5.03,6.6-5.03s5.213,2.789,6.6,5.03c1.4,2.266,2.35,3.655,4.136,3.655s2.735-1.39,4.136-3.655c1.385-2.241,3.109-5.03,6.6-5.03s5.214,2.789,6.6,5.03c1.4,2.266,2.35,3.655,4.138,3.655s2.735-1.39,4.136-3.655c1.383-2.241,3.109-5.03,6.6-5.03s5.218,2.789,6.6,5.03c1.4,2.266,2.353,3.655,4.139,3.655s2.738-1.39,4.141-3.655c1.385-2.241,3.11-5.03,6.6-5.03a1.447,1.447,0,1,1,0,2.894c-1.788,0-2.738,1.39-4.141,3.657C186.311,87.51,184.587,90.3,181.093,90.3Z" transform="translate(113.281 1011.283) rotate(-90)" fill="#008bfd"/>
    <path id="Trazado_113512" data-name="Trazado 113512" d="M181.093,97.96c-3.492,0-5.216-2.787-6.6-5.028-1.4-2.267-2.353-3.657-4.141-3.657s-2.736,1.39-4.136,3.657c-1.385,2.241-3.109,5.028-6.6,5.028s-5.216-2.787-6.6-5.028c-1.4-2.267-2.351-3.657-4.138-3.657s-2.735,1.39-4.136,3.657c-1.385,2.241-3.109,5.028-6.6,5.028s-5.214-2.787-6.6-5.028c-1.4-2.267-2.35-3.657-4.134-3.657s-2.733,1.39-4.134,3.657c-1.385,2.241-3.107,5.028-6.6,5.028s-5.213-2.787-6.6-5.028c-1.4-2.267-2.35-3.657-4.134-3.657a1.447,1.447,0,1,1,0-2.895c3.489,0,5.213,2.789,6.6,5.03,1.4,2.266,2.35,3.655,4.134,3.655s2.733-1.39,4.134-3.655c1.385-2.241,3.109-5.03,6.6-5.03s5.213,2.789,6.6,5.028c1.4,2.267,2.35,3.657,4.136,3.657s2.735-1.39,4.136-3.657c1.385-2.239,3.109-5.028,6.6-5.028s5.214,2.789,6.6,5.028c1.4,2.267,2.35,3.657,4.138,3.657s2.735-1.39,4.136-3.657c1.383-2.239,3.109-5.028,6.6-5.028s5.218,2.789,6.6,5.028c1.4,2.267,2.353,3.657,4.139,3.657s2.738-1.39,4.141-3.657c1.385-2.239,3.11-5.028,6.6-5.028a1.447,1.447,0,1,1,0,2.895c-1.788,0-2.738,1.39-4.141,3.657C186.311,95.172,184.587,97.96,181.093,97.96Z" transform="translate(117.619 1011.283) rotate(-90)" fill="#008bfd"/>
    <path id="Trazado_113538" data-name="Trazado 113538" d="M181.093,97.96c-3.492,0-5.216-2.787-6.6-5.028-1.4-2.267-2.353-3.657-4.141-3.657s-2.736,1.39-4.136,3.657c-1.385,2.241-3.109,5.028-6.6,5.028s-5.216-2.787-6.6-5.028c-1.4-2.267-2.351-3.657-4.138-3.657s-2.735,1.39-4.136,3.657c-1.385,2.241-3.109,5.028-6.6,5.028s-5.214-2.787-6.6-5.028c-1.4-2.267-2.35-3.657-4.134-3.657s-2.733,1.39-4.134,3.657c-1.385,2.241-3.107,5.028-6.6,5.028s-5.213-2.787-6.6-5.028c-1.4-2.267-2.35-3.657-4.134-3.657a1.447,1.447,0,1,1,0-2.895c3.489,0,5.213,2.789,6.6,5.03,1.4,2.266,2.35,3.655,4.134,3.655s2.733-1.39,4.134-3.655c1.385-2.241,3.109-5.03,6.6-5.03s5.213,2.789,6.6,5.028c1.4,2.267,2.35,3.657,4.136,3.657s2.735-1.39,4.136-3.657c1.385-2.239,3.109-5.028,6.6-5.028s5.214,2.789,6.6,5.028c1.4,2.267,2.35,3.657,4.138,3.657s2.735-1.39,4.136-3.657c1.383-2.239,3.109-5.028,6.6-5.028s5.218,2.789,6.6,5.028c1.4,2.267,2.353,3.657,4.139,3.657s2.738-1.39,4.141-3.657c1.385-2.239,3.11-5.028,6.6-5.028a1.447,1.447,0,1,1,0,2.895c-1.788,0-2.738,1.39-4.141,3.657C186.311,95.172,184.587,97.96,181.093,97.96Z" transform="translate(130.619 1011.283) rotate(-90)" fill="#008bfd"/>
    <path id="Trazado_113539" data-name="Trazado 113539" d="M181.093,97.96c-3.492,0-5.216-2.787-6.6-5.028-1.4-2.267-2.353-3.657-4.141-3.657s-2.736,1.39-4.136,3.657c-1.385,2.241-3.109,5.028-6.6,5.028s-5.216-2.787-6.6-5.028c-1.4-2.267-2.351-3.657-4.138-3.657s-2.735,1.39-4.136,3.657c-1.385,2.241-3.109,5.028-6.6,5.028s-5.214-2.787-6.6-5.028c-1.4-2.267-2.35-3.657-4.134-3.657s-2.733,1.39-4.134,3.657c-1.385,2.241-3.107,5.028-6.6,5.028s-5.213-2.787-6.6-5.028c-1.4-2.267-2.35-3.657-4.134-3.657a1.447,1.447,0,1,1,0-2.895c3.489,0,5.213,2.789,6.6,5.03,1.4,2.266,2.35,3.655,4.134,3.655s2.733-1.39,4.134-3.655c1.385-2.241,3.109-5.03,6.6-5.03s5.213,2.789,6.6,5.028c1.4,2.267,2.35,3.657,4.136,3.657s2.735-1.39,4.136-3.657c1.385-2.239,3.109-5.028,6.6-5.028s5.214,2.789,6.6,5.028c1.4,2.267,2.35,3.657,4.138,3.657s2.735-1.39,4.136-3.657c1.383-2.239,3.109-5.028,6.6-5.028s5.218,2.789,6.6,5.028c1.4,2.267,2.353,3.657,4.139,3.657s2.738-1.39,4.141-3.657c1.385-2.239,3.11-5.028,6.6-5.028a1.447,1.447,0,1,1,0,2.895c-1.788,0-2.738,1.39-4.141,3.657C186.311,95.172,184.587,97.96,181.093,97.96Z" transform="translate(142.619 1011.283) rotate(-90)" fill="#008bfd"/>
    <path id="Trazado_122776" data-name="Trazado 122776" d="M181.093,97.96c-3.492,0-5.216-2.787-6.6-5.028-1.4-2.267-2.353-3.657-4.141-3.657s-2.736,1.39-4.136,3.657c-1.385,2.241-3.109,5.028-6.6,5.028s-5.216-2.787-6.6-5.028c-1.4-2.267-2.351-3.657-4.138-3.657s-2.735,1.39-4.136,3.657c-1.385,2.241-3.109,5.028-6.6,5.028s-5.214-2.787-6.6-5.028c-1.4-2.267-2.35-3.657-4.134-3.657s-2.733,1.39-4.134,3.657c-1.385,2.241-3.107,5.028-6.6,5.028s-5.213-2.787-6.6-5.028c-1.4-2.267-2.35-3.657-4.134-3.657a1.447,1.447,0,1,1,0-2.895c3.489,0,5.213,2.789,6.6,5.03,1.4,2.266,2.35,3.655,4.134,3.655s2.733-1.39,4.134-3.655c1.385-2.241,3.109-5.03,6.6-5.03s5.213,2.789,6.6,5.028c1.4,2.267,2.35,3.657,4.136,3.657s2.735-1.39,4.136-3.657c1.385-2.239,3.109-5.028,6.6-5.028s5.214,2.789,6.6,5.028c1.4,2.267,2.35,3.657,4.138,3.657s2.735-1.39,4.136-3.657c1.383-2.239,3.109-5.028,6.6-5.028s5.218,2.789,6.6,5.028c1.4,2.267,2.353,3.657,4.139,3.657s2.738-1.39,4.141-3.657c1.385-2.239,3.11-5.028,6.6-5.028a1.447,1.447,0,1,1,0,2.895c-1.788,0-2.738,1.39-4.141,3.657C186.311,95.172,184.587,97.96,181.093,97.96Z" transform="translate(154.619 1011.283) rotate(-90)" fill="#008bfd"/>
    <path id="Trazado_122777" data-name="Trazado 122777" d="M181.093,97.96c-3.492,0-5.216-2.787-6.6-5.028-1.4-2.267-2.353-3.657-4.141-3.657s-2.736,1.39-4.136,3.657c-1.385,2.241-3.109,5.028-6.6,5.028s-5.216-2.787-6.6-5.028c-1.4-2.267-2.351-3.657-4.138-3.657s-2.735,1.39-4.136,3.657c-1.385,2.241-3.109,5.028-6.6,5.028s-5.214-2.787-6.6-5.028c-1.4-2.267-2.35-3.657-4.134-3.657s-2.733,1.39-4.134,3.657c-1.385,2.241-3.107,5.028-6.6,5.028s-5.213-2.787-6.6-5.028c-1.4-2.267-2.35-3.657-4.134-3.657a1.447,1.447,0,1,1,0-2.895c3.489,0,5.213,2.789,6.6,5.03,1.4,2.266,2.35,3.655,4.134,3.655s2.733-1.39,4.134-3.655c1.385-2.241,3.109-5.03,6.6-5.03s5.213,2.789,6.6,5.028c1.4,2.267,2.35,3.657,4.136,3.657s2.735-1.39,4.136-3.657c1.385-2.239,3.109-5.028,6.6-5.028s5.214,2.789,6.6,5.028c1.4,2.267,2.35,3.657,4.138,3.657s2.735-1.39,4.136-3.657c1.383-2.239,3.109-5.028,6.6-5.028s5.218,2.789,6.6,5.028c1.4,2.267,2.353,3.657,4.139,3.657s2.738-1.39,4.141-3.657c1.385-2.239,3.11-5.028,6.6-5.028a1.447,1.447,0,1,1,0,2.895c-1.788,0-2.738,1.39-4.141,3.657C186.311,95.172,184.587,97.96,181.093,97.96Z" transform="translate(166.619 1011.283) rotate(-90)" fill="#008bfd"/>
  </g>
</svg>
