<svg xmlns="http://www.w3.org/2000/svg" width="85" height="40.674" viewBox="0 0 85 40.674">
  <g id="Grupo_135036" data-name="Grupo 135036" transform="translate(-180.336 -406)">
    <path id="Trazado_113510" data-name="Trazado 113510" d="M177.828,80.73c-3.343,0-4.994-2.329-6.319-4.2-1.343-1.894-2.253-3.055-3.964-3.055s-2.62,1.161-3.96,3.055c-1.326,1.872-2.976,4.2-6.318,4.2s-4.994-2.329-6.319-4.2c-1.341-1.894-2.251-3.055-3.961-3.055s-2.618,1.161-3.96,3.055c-1.326,1.872-2.976,4.2-6.318,4.2s-4.992-2.33-6.316-4.2c-1.341-1.893-2.249-3.054-3.958-3.054s-2.617,1.161-3.958,3.054c-1.326,1.874-2.974,4.2-6.316,4.2s-4.991-2.329-6.316-4.2c-1.341-1.893-2.249-3.054-3.958-3.054a1.221,1.221,0,1,1,0-2.418c3.34,0,4.991,2.329,6.316,4.2,1.34,1.894,2.249,3.055,3.958,3.055s2.617-1.161,3.958-3.055c1.326-1.872,2.976-4.2,6.316-4.2s4.991,2.329,6.315,4.2c1.341,1.894,2.249,3.055,3.96,3.055s2.618-1.161,3.96-3.055c1.326-1.872,2.976-4.2,6.318-4.2s4.992,2.329,6.319,4.2c1.34,1.894,2.249,3.055,3.961,3.055s2.618-1.161,3.96-3.055c1.324-1.872,2.976-4.2,6.318-4.2s5,2.329,6.321,4.2c1.343,1.894,2.253,3.055,3.963,3.055s2.621-1.161,3.964-3.055c1.326-1.872,2.978-4.2,6.321-4.2a1.22,1.22,0,1,1,0,2.418c-1.712,0-2.621,1.161-3.964,3.055C182.824,78.4,181.173,80.73,177.828,80.73Z" transform="translate(369.835 517.73) rotate(180)" fill="#008bfd"/>
    <path id="Trazado_113511" data-name="Trazado 113511" d="M177.828,88.394c-3.343,0-4.994-2.33-6.319-4.2-1.343-1.9-2.253-3.056-3.964-3.056s-2.62,1.161-3.96,3.055c-1.326,1.872-2.976,4.2-6.318,4.2s-4.994-2.33-6.319-4.2c-1.341-1.894-2.251-3.055-3.961-3.055s-2.618,1.161-3.96,3.055c-1.326,1.872-2.976,4.2-6.318,4.2s-4.992-2.332-6.316-4.2c-1.341-1.894-2.249-3.055-3.958-3.055s-2.617,1.161-3.958,3.055c-1.326,1.872-2.974,4.2-6.316,4.2s-4.991-2.33-6.316-4.2c-1.341-1.894-2.249-3.055-3.958-3.055a1.221,1.221,0,1,1,0-2.418c3.34,0,4.991,2.33,6.316,4.2,1.34,1.893,2.249,3.054,3.958,3.054s2.617-1.161,3.958-3.054c1.326-1.872,2.976-4.2,6.316-4.2s4.991,2.33,6.315,4.2c1.341,1.893,2.249,3.054,3.96,3.054s2.618-1.161,3.96-3.054c1.326-1.872,2.976-4.2,6.318-4.2s4.992,2.33,6.319,4.2c1.34,1.893,2.249,3.054,3.961,3.054s2.618-1.161,3.96-3.054c1.324-1.872,2.976-4.2,6.318-4.2s5,2.33,6.321,4.2c1.343,1.893,2.253,3.054,3.963,3.054s2.621-1.161,3.964-3.054c1.326-1.872,2.978-4.2,6.321-4.2a1.22,1.22,0,1,1,0,2.418c-1.712,0-2.621,1.161-3.964,3.055C182.824,86.063,181.173,88.394,177.828,88.394Z" transform="translate(369.835 515.394) rotate(180)" fill="#008bfd"/>
    <path id="Trazado_113512" data-name="Trazado 113512" d="M177.828,96.054c-3.343,0-4.994-2.329-6.319-4.2-1.343-1.894-2.253-3.055-3.964-3.055s-2.62,1.161-3.96,3.055c-1.326,1.872-2.976,4.2-6.318,4.2s-4.994-2.329-6.319-4.2c-1.341-1.894-2.251-3.055-3.961-3.055s-2.618,1.161-3.96,3.055c-1.326,1.872-2.976,4.2-6.318,4.2s-4.992-2.329-6.316-4.2c-1.341-1.894-2.249-3.055-3.958-3.055s-2.617,1.161-3.958,3.055c-1.326,1.872-2.974,4.2-6.316,4.2s-4.991-2.329-6.316-4.2c-1.341-1.894-2.249-3.055-3.958-3.055a1.221,1.221,0,1,1,0-2.418c3.34,0,4.991,2.33,6.316,4.2,1.34,1.893,2.249,3.054,3.958,3.054s2.617-1.161,3.958-3.054c1.326-1.872,2.976-4.2,6.316-4.2s4.991,2.33,6.315,4.2c1.341,1.894,2.249,3.055,3.96,3.055s2.618-1.161,3.96-3.055c1.326-1.871,2.976-4.2,6.318-4.2s4.992,2.33,6.319,4.2c1.34,1.894,2.249,3.055,3.961,3.055s2.618-1.161,3.96-3.055c1.324-1.871,2.976-4.2,6.318-4.2s5,2.33,6.321,4.2c1.343,1.894,2.253,3.055,3.963,3.055s2.621-1.161,3.964-3.055c1.326-1.871,2.978-4.2,6.321-4.2a1.22,1.22,0,1,1,0,2.418c-1.712,0-2.621,1.161-3.964,3.055C182.824,93.725,181.173,96.054,177.828,96.054Z" transform="translate(369.835 512.055) rotate(180)" fill="#008bfd"/>
    <path id="Trazado_113538" data-name="Trazado 113538" d="M177.828,96.054c-3.343,0-4.994-2.329-6.319-4.2-1.343-1.894-2.253-3.055-3.964-3.055s-2.62,1.161-3.96,3.055c-1.326,1.872-2.976,4.2-6.318,4.2s-4.994-2.329-6.319-4.2c-1.341-1.894-2.251-3.055-3.961-3.055s-2.618,1.161-3.96,3.055c-1.326,1.872-2.976,4.2-6.318,4.2s-4.992-2.329-6.316-4.2c-1.341-1.894-2.249-3.055-3.958-3.055s-2.617,1.161-3.958,3.055c-1.326,1.872-2.974,4.2-6.316,4.2s-4.991-2.329-6.316-4.2c-1.341-1.894-2.249-3.055-3.958-3.055a1.221,1.221,0,1,1,0-2.418c3.34,0,4.991,2.33,6.316,4.2,1.34,1.893,2.249,3.054,3.958,3.054s2.617-1.161,3.958-3.054c1.326-1.872,2.976-4.2,6.316-4.2s4.991,2.33,6.315,4.2c1.341,1.894,2.249,3.055,3.96,3.055s2.618-1.161,3.96-3.055c1.326-1.871,2.976-4.2,6.318-4.2s4.992,2.33,6.319,4.2c1.34,1.894,2.249,3.055,3.961,3.055s2.618-1.161,3.96-3.055c1.324-1.871,2.976-4.2,6.318-4.2s5,2.33,6.321,4.2c1.343,1.894,2.253,3.055,3.963,3.055s2.621-1.161,3.964-3.055c1.326-1.871,2.978-4.2,6.321-4.2a1.22,1.22,0,1,1,0,2.418c-1.712,0-2.621,1.161-3.964,3.055C182.824,93.725,181.173,96.054,177.828,96.054Z" transform="translate(369.835 502.055) rotate(180)" fill="#008bfd"/>
  </g>
</svg>
