<svg xmlns="http://www.w3.org/2000/svg" width="86.682" height="84.58" viewBox="0 0 86.682 84.58">
  <g id="Grupo_133902" data-name="Grupo 133902" transform="translate(-818 264.579) rotate(-90)">
    <path id="Trazado_113510" data-name="Trazado 113510" d="M74.78,11.58c-3.409,0-5.092-2.787-6.444-5.028-1.37-2.267-2.3-3.657-4.043-3.657s-2.672,1.39-4.038,3.657C58.9,8.792,57.22,11.58,53.812,11.58S48.72,8.792,47.368,6.551c-1.368-2.267-2.3-3.657-4.04-3.657s-2.67,1.39-4.038,3.657c-1.352,2.241-3.035,5.028-6.443,5.028S27.756,8.79,26.406,6.55c-1.368-2.266-2.294-3.655-4.036-3.655S19.7,4.284,18.333,6.55c-1.352,2.243-3.033,5.03-6.441,5.03S6.8,8.792,5.451,6.55C4.083,4.284,3.157,2.895,1.415,2.895A1.432,1.432,0,0,1,0,1.447,1.431,1.431,0,0,1,1.415,0C4.821,0,6.5,2.787,7.856,5.028,9.222,7.3,10.15,8.685,11.892,8.685s2.668-1.39,4.036-3.657C17.28,2.787,18.963,0,22.37,0s5.089,2.787,6.44,5.028C30.177,7.3,31.1,8.685,32.847,8.685s2.67-1.39,4.038-3.657C38.237,2.787,39.92,0,43.328,0s5.091,2.787,6.444,5.028c1.366,2.267,2.294,3.657,4.04,3.657s2.67-1.39,4.038-3.657C59.2,2.787,60.885,0,64.293,0s5.094,2.787,6.446,5.028c1.37,2.267,2.3,3.657,4.041,3.657s2.673-1.39,4.043-3.657C80.175,2.787,81.86,0,85.269,0a1.429,1.429,0,0,1,1.413,1.447,1.43,1.43,0,0,1-1.413,1.447c-1.746,0-2.673,1.39-4.043,3.657C79.874,8.792,78.191,11.58,74.78,11.58Z" transform="translate(179.999 904.682) rotate(-90)" fill="#008bfd"/>
    <path id="Trazado_113511" data-name="Trazado 113511" d="M74.78,11.581c-3.409,0-5.092-2.789-6.444-5.028-1.37-2.269-2.3-3.658-4.043-3.658s-2.672,1.39-4.038,3.657c-1.352,2.241-3.035,5.03-6.443,5.03s-5.093-2.789-6.444-5.03c-1.368-2.267-2.3-3.657-4.04-3.657s-2.67,1.39-4.038,3.657c-1.352,2.241-3.035,5.03-6.443,5.03s-5.091-2.791-6.441-5.03c-1.368-2.267-2.294-3.657-4.036-3.657S19.7,4.284,18.333,6.551c-1.352,2.241-3.033,5.03-6.441,5.03S6.8,8.792,5.451,6.551C4.083,4.284,3.157,2.894,1.415,2.894A1.431,1.431,0,0,1,0,1.447,1.432,1.432,0,0,1,1.415,0C4.821,0,6.5,2.789,7.856,5.03,9.222,7.3,10.15,8.685,11.892,8.685S14.561,7.3,15.929,5.03C17.28,2.789,18.963,0,22.37,0s5.089,2.789,6.44,5.03C30.177,7.3,31.1,8.685,32.847,8.685s2.67-1.39,4.038-3.655C38.237,2.789,39.92,0,43.328,0s5.091,2.789,6.444,5.03c1.366,2.266,2.294,3.655,4.04,3.655S56.482,7.3,57.85,5.03C59.2,2.789,60.885,0,64.293,0s5.094,2.789,6.446,5.03c1.37,2.266,2.3,3.655,4.041,3.655S77.453,7.3,78.823,5.03C80.175,2.789,81.86,0,85.269,0a1.43,1.43,0,0,1,1.413,1.447,1.429,1.429,0,0,1-1.413,1.447c-1.746,0-2.673,1.39-4.043,3.657C79.874,8.792,78.191,11.581,74.78,11.581Z" transform="translate(191.999 904.682) rotate(-90)" fill="#008bfd"/>
    <path id="Trazado_113512" data-name="Trazado 113512" d="M74.78,11.58c-3.409,0-5.092-2.787-6.444-5.028-1.37-2.267-2.3-3.657-4.043-3.657s-2.672,1.39-4.038,3.657C58.9,8.792,57.22,11.58,53.812,11.58S48.72,8.792,47.368,6.551c-1.368-2.267-2.3-3.657-4.04-3.657s-2.67,1.39-4.038,3.657c-1.352,2.241-3.035,5.028-6.443,5.028s-5.091-2.787-6.441-5.028c-1.368-2.267-2.294-3.657-4.036-3.657S19.7,4.284,18.333,6.551C16.981,8.792,15.3,11.58,11.892,11.58S6.8,8.792,5.451,6.551C4.083,4.284,3.157,2.895,1.415,2.895A1.431,1.431,0,0,1,0,1.447,1.432,1.432,0,0,1,1.415,0C4.821,0,6.5,2.789,7.856,5.03,9.222,7.3,10.15,8.685,11.892,8.685S14.561,7.3,15.929,5.03C17.28,2.789,18.963,0,22.37,0s5.089,2.789,6.44,5.028C30.177,7.3,31.1,8.685,32.847,8.685s2.67-1.39,4.038-3.657C38.237,2.789,39.92,0,43.328,0s5.091,2.789,6.444,5.028c1.366,2.267,2.294,3.657,4.04,3.657s2.67-1.39,4.038-3.657C59.2,2.789,60.885,0,64.293,0s5.094,2.789,6.446,5.028c1.37,2.267,2.3,3.657,4.041,3.657s2.673-1.39,4.043-3.657C80.175,2.789,81.86,0,85.269,0a1.43,1.43,0,0,1,1.413,1.447,1.429,1.429,0,0,1-1.413,1.447c-1.746,0-2.673,1.39-4.043,3.657C79.874,8.792,78.191,11.58,74.78,11.58Z" transform="translate(203.999 904.682) rotate(-90)" fill="#008bfd"/>
    <path id="Trazado_113538" data-name="Trazado 113538" d="M74.78,11.58c-3.409,0-5.092-2.787-6.444-5.028-1.37-2.267-2.3-3.657-4.043-3.657s-2.672,1.39-4.038,3.657C58.9,8.792,57.22,11.58,53.812,11.58S48.72,8.792,47.368,6.551c-1.368-2.267-2.3-3.657-4.04-3.657s-2.67,1.39-4.038,3.657c-1.352,2.241-3.035,5.028-6.443,5.028s-5.091-2.787-6.441-5.028c-1.368-2.267-2.294-3.657-4.036-3.657S19.7,4.284,18.333,6.551C16.981,8.792,15.3,11.58,11.892,11.58S6.8,8.792,5.451,6.551C4.083,4.284,3.157,2.895,1.415,2.895A1.431,1.431,0,0,1,0,1.447,1.432,1.432,0,0,1,1.415,0C4.821,0,6.5,2.789,7.856,5.03,9.222,7.3,10.15,8.685,11.892,8.685S14.561,7.3,15.929,5.03C17.28,2.789,18.963,0,22.37,0s5.089,2.789,6.44,5.028C30.177,7.3,31.1,8.685,32.847,8.685s2.67-1.39,4.038-3.657C38.237,2.789,39.92,0,43.328,0s5.091,2.789,6.444,5.028c1.366,2.267,2.294,3.657,4.04,3.657s2.67-1.39,4.038-3.657C59.2,2.789,60.885,0,64.293,0s5.094,2.789,6.446,5.028c1.37,2.267,2.3,3.657,4.041,3.657s2.673-1.39,4.043-3.657C80.175,2.789,81.86,0,85.269,0a1.43,1.43,0,0,1,1.413,1.447,1.429,1.429,0,0,1-1.413,1.447c-1.746,0-2.673,1.39-4.043,3.657C79.874,8.792,78.191,11.58,74.78,11.58Z" transform="translate(216.999 904.682) rotate(-90)" fill="#008bfd"/>
    <path id="Trazado_113539" data-name="Trazado 113539" d="M74.78,11.58c-3.409,0-5.092-2.787-6.444-5.028-1.37-2.267-2.3-3.657-4.043-3.657s-2.672,1.39-4.038,3.657C58.9,8.792,57.22,11.58,53.812,11.58S48.72,8.792,47.368,6.551c-1.368-2.267-2.3-3.657-4.04-3.657s-2.67,1.39-4.038,3.657c-1.352,2.241-3.035,5.028-6.443,5.028s-5.091-2.787-6.441-5.028c-1.368-2.267-2.294-3.657-4.036-3.657S19.7,4.284,18.333,6.551C16.981,8.792,15.3,11.58,11.892,11.58S6.8,8.792,5.451,6.551C4.083,4.284,3.157,2.895,1.415,2.895A1.431,1.431,0,0,1,0,1.447,1.432,1.432,0,0,1,1.415,0C4.821,0,6.5,2.789,7.856,5.03,9.222,7.3,10.15,8.685,11.892,8.685S14.561,7.3,15.929,5.03C17.28,2.789,18.963,0,22.37,0s5.089,2.789,6.44,5.028C30.177,7.3,31.1,8.685,32.847,8.685s2.67-1.39,4.038-3.657C38.237,2.789,39.92,0,43.328,0s5.091,2.789,6.444,5.028c1.366,2.267,2.294,3.657,4.04,3.657s2.67-1.39,4.038-3.657C59.2,2.789,60.885,0,64.293,0s5.094,2.789,6.446,5.028c1.37,2.267,2.3,3.657,4.041,3.657s2.673-1.39,4.043-3.657C80.175,2.789,81.86,0,85.269,0a1.43,1.43,0,0,1,1.413,1.447,1.429,1.429,0,0,1-1.413,1.447c-1.746,0-2.673,1.39-4.043,3.657C79.874,8.792,78.191,11.58,74.78,11.58Z" transform="translate(228.999 904.682) rotate(-90)" fill="#008bfd"/>
    <path id="Trazado_122776" data-name="Trazado 122776" d="M74.78,11.58c-3.409,0-5.092-2.787-6.444-5.028-1.37-2.267-2.3-3.657-4.043-3.657s-2.672,1.39-4.038,3.657C58.9,8.792,57.22,11.58,53.812,11.58S48.72,8.792,47.368,6.551c-1.368-2.267-2.3-3.657-4.04-3.657s-2.67,1.39-4.038,3.657c-1.352,2.241-3.035,5.028-6.443,5.028s-5.091-2.787-6.441-5.028c-1.368-2.267-2.294-3.657-4.036-3.657S19.7,4.284,18.333,6.551C16.981,8.792,15.3,11.58,11.892,11.58S6.8,8.792,5.451,6.551C4.083,4.284,3.157,2.895,1.415,2.895A1.431,1.431,0,0,1,0,1.447,1.432,1.432,0,0,1,1.415,0C4.821,0,6.5,2.789,7.856,5.03,9.222,7.3,10.15,8.685,11.892,8.685S14.561,7.3,15.929,5.03C17.28,2.789,18.963,0,22.37,0s5.089,2.789,6.44,5.028C30.177,7.3,31.1,8.685,32.847,8.685s2.67-1.39,4.038-3.657C38.237,2.789,39.92,0,43.328,0s5.091,2.789,6.444,5.028c1.366,2.267,2.294,3.657,4.04,3.657s2.67-1.39,4.038-3.657C59.2,2.789,60.885,0,64.293,0s5.094,2.789,6.446,5.028c1.37,2.267,2.3,3.657,4.041,3.657s2.673-1.39,4.043-3.657C80.175,2.789,81.86,0,85.269,0a1.43,1.43,0,0,1,1.413,1.447,1.429,1.429,0,0,1-1.413,1.447c-1.746,0-2.673,1.39-4.043,3.657C79.874,8.792,78.191,11.58,74.78,11.58Z" transform="translate(240.999 904.682) rotate(-90)" fill="#008bfd"/>
    <path id="Trazado_122777" data-name="Trazado 122777" d="M74.78,11.58c-3.409,0-5.092-2.787-6.444-5.028-1.37-2.267-2.3-3.657-4.043-3.657s-2.672,1.39-4.038,3.657C58.9,8.792,57.22,11.58,53.812,11.58S48.72,8.792,47.368,6.551c-1.368-2.267-2.3-3.657-4.04-3.657s-2.67,1.39-4.038,3.657c-1.352,2.241-3.035,5.028-6.443,5.028s-5.091-2.787-6.441-5.028c-1.368-2.267-2.294-3.657-4.036-3.657S19.7,4.284,18.333,6.551C16.981,8.792,15.3,11.58,11.892,11.58S6.8,8.792,5.451,6.551C4.083,4.284,3.157,2.895,1.415,2.895A1.431,1.431,0,0,1,0,1.447,1.432,1.432,0,0,1,1.415,0C4.821,0,6.5,2.789,7.856,5.03,9.222,7.3,10.15,8.685,11.892,8.685S14.561,7.3,15.929,5.03C17.28,2.789,18.963,0,22.37,0s5.089,2.789,6.44,5.028C30.177,7.3,31.1,8.685,32.847,8.685s2.67-1.39,4.038-3.657C38.237,2.789,39.92,0,43.328,0s5.091,2.789,6.444,5.028c1.366,2.267,2.294,3.657,4.04,3.657s2.67-1.39,4.038-3.657C59.2,2.789,60.885,0,64.293,0s5.094,2.789,6.446,5.028c1.37,2.267,2.3,3.657,4.041,3.657s2.673-1.39,4.043-3.657C80.175,2.789,81.86,0,85.269,0a1.43,1.43,0,0,1,1.413,1.447,1.429,1.429,0,0,1-1.413,1.447c-1.746,0-2.673,1.39-4.043,3.657C79.874,8.792,78.191,11.58,74.78,11.58Z" transform="translate(252.999 904.682) rotate(-90)" fill="#008bfd"/>
  </g>
</svg>
